<?xml version="1.0" encoding="UTF-8" standalone="no"?>
<!-- Generator: Adobe Illustrator 13.0.0, SVG Export Plug-In  -->

<svg
   xmlns:dc="http://purl.org/dc/elements/1.1/"
   xmlns:cc="http://creativecommons.org/ns#"
   xmlns:rdf="http://www.w3.org/1999/02/22-rdf-syntax-ns#"
   xmlns:svg="http://www.w3.org/2000/svg"
   xmlns="http://www.w3.org/2000/svg"
   xmlns:sodipodi="http://sodipodi.sourceforge.net/DTD/sodipodi-0.dtd"
   xmlns:inkscape="http://www.inkscape.org/namespaces/inkscape"
   version="1.1"
   x="0px"
   y="0px"
   width="576"
   height="507.5"
   viewBox="-0.781 -0.08 576.53826 507.94375"
   enable-background="new -0.781 -0.08 576 506"
   xml:space="preserve"
   id="svg2"
   inkscape:version="0.48.1 "
   sodipodi:docname="A15a1.svg"
   inkscape:export-filename="C:\Documents and Settings\bertrand.bouteilles\Bureau\Panneaux\A - Route\1_danger\A15a1.png"
   inkscape:export-xdpi="150"
   inkscape:export-ydpi="150"><metadata
   id="metadata18"><rdf:RDF><cc:Work
       rdf:about=""><dc:format>image/svg+xml</dc:format><dc:type
         rdf:resource="http://purl.org/dc/dcmitype/StillImage" /><dc:title></dc:title></cc:Work></rdf:RDF></metadata><sodipodi:namedview
   pagecolor="#ffffff"
   bordercolor="#666666"
   borderopacity="1"
   objecttolerance="10"
   gridtolerance="10"
   guidetolerance="10"
   inkscape:pageopacity="0"
   inkscape:pageshadow="2"
   inkscape:window-width="1920"
   inkscape:window-height="1174"
   id="namedview16"
   showgrid="false"
   fit-margin-top="0.3"
   fit-margin-left="0.3"
   fit-margin-right="0.3"
   fit-margin-bottom="0.3"
   inkscape:zoom="0.64569469"
   inkscape:cx="464.49675"
   inkscape:cy="47.585467"
   inkscape:window-x="1276"
   inkscape:window-y="-4"
   inkscape:window-maximized="1"
   inkscape:current-layer="svg2"
   showguides="true"
   inkscape:guide-bbox="true" />
<defs
   id="defs4">
</defs>





<path
   inkscape:connector-curvature="0"
   d="M 4.6642489,460.12075 260.66925,16.70776 c 5.531,-9.58 15.753,-15.482 26.815,-15.482 11.063,0 21.284,5.902 26.815,15.482 l 256.00499,443.41299 c 5.531,9.58 5.531,21.384 0,30.964 -5.53,9.58 -15.753,15.482 -26.815,15.482 H 31.479249 c -11.062,0 -21.284,-5.902 -26.8150001,-15.482 -5.53099996,-9.58 -5.53099996,-21.384 0,-30.964 z"
   id="path6"
   style="fill:#ffffff;stroke:#000000;stroke-width:2;stroke-linecap:round;stroke-linejoin:round;stroke-miterlimit:4;stroke-opacity:1;stroke-dasharray:none" /><path
   inkscape:connector-curvature="0"
   d="M 31.389249,494.18175 H 543.58024 c 6.618,0 12.734,-3.531 16.044,-9.264 3.31,-5.731 3.31,-12.794 0,-18.525 L 303.52825,22.82276 c -3.31,-5.732 -9.425,-9.263 -16.044,-9.263 -6.619,0 -12.734,3.531 -16.043,9.263 L 15.345249,466.39275 c -3.31,5.731 -3.31,12.794 0,18.525 3.309,5.733 9.425,9.264 16.044,9.264 z"
   id="path8"
   style="fill:#FF0000;stroke:none" /><polygon
   transform="translate(0.42724894,1.13776)"
   points="510.884,455.888 63.23,455.888 287.058,68.208 "
   id="polygon10"
   style="fill:#ffffff;stroke:none" /><polyline
   transform="translate(0.42724894,1.13776)"
   points="263.943,420.829   247.9,421.712 255.81,409.415 258.012,399.554 259.07,387.679 253.785,368.941 247.555,365.899 233.664,343.595 223.277,325.453   188.384,319.764 184.793,306.481 210.121,284.354 199.898,283.538 190.22,282.354 190.182,278.341 202.214,277.68 211.31,275.04   218.099,279.354 234.273,272.999 232.523,280.859 279.299,289.354 347.679,287.249 386.875,284.871 393.837,288.271   402.734,341.813 410.653,349.765 401.158,367.912 396.784,368.318 391.247,322.952 384.498,361.503 394.692,378.553 397.417,415.92   384.825,415.309 387.683,389.745 385.619,383.563 376.953,373.795 368.411,396.312 364.591,416.777 349.639,417.284   359.273,394.392 361.932,367.007 354.197,378.389 347.245,376.266 341.799,379.053 326.719,366.063 285.71,369.368 287.333,386.682   289.372,409.463 289.261,416.942 278.314,416.681 281.302,404.797 277.099,384.59 273.184,375.688 268.439,394.704 266.37,406.73   "
   id="polyline12"
   style="fill:#000000;stroke:none" /><line
   style="fill:none;stroke:#000000;stroke-width:0.17640001;stroke-linecap:round;stroke-linejoin:round"
   x1="266.79724"
   y1="407.86774"
   x2="264.37024"
   y2="421.96674"
   id="line14" /></svg>