<?xml version="1.0" encoding="UTF-8" standalone="no"?>
<!-- Generator: Adobe Illustrator 13.0.0, SVG Export Plug-In  -->

<svg
   xmlns:dc="http://purl.org/dc/elements/1.1/"
   xmlns:cc="http://creativecommons.org/ns#"
   xmlns:rdf="http://www.w3.org/1999/02/22-rdf-syntax-ns#"
   xmlns:svg="http://www.w3.org/2000/svg"
   xmlns="http://www.w3.org/2000/svg"
   xmlns:sodipodi="http://sodipodi.sourceforge.net/DTD/sodipodi-0.dtd"
   xmlns:inkscape="http://www.inkscape.org/namespaces/inkscape"
   version="1.1"
   x="0px"
   y="0px"
   width="576"
   height="507.5"
   viewBox="-0.781 -0.08 576.53826 507.94375"
   enable-background="new -0.781 -0.08 576 506"
   xml:space="preserve"
   id="svg2"
   inkscape:version="0.48.1 "
   sodipodi:docname="A15a2.svg"
   inkscape:export-filename="C:\Documents and Settings\bertrand.bouteilles\Bureau\Panneaux\A - Route\1_danger\A15a2.png"
   inkscape:export-xdpi="150"
   inkscape:export-ydpi="150"><metadata
   id="metadata18"><rdf:RDF><cc:Work
       rdf:about=""><dc:format>image/svg+xml</dc:format><dc:type
         rdf:resource="http://purl.org/dc/dcmitype/StillImage" /><dc:title></dc:title></cc:Work></rdf:RDF></metadata><sodipodi:namedview
   pagecolor="#ffffff"
   bordercolor="#666666"
   borderopacity="1"
   objecttolerance="10"
   gridtolerance="10"
   guidetolerance="10"
   inkscape:pageopacity="0"
   inkscape:pageshadow="2"
   inkscape:window-width="1920"
   inkscape:window-height="1174"
   id="namedview16"
   showgrid="false"
   fit-margin-top="0.3"
   fit-margin-left="0.3"
   fit-margin-right="0.3"
   fit-margin-bottom="0.3"
   inkscape:zoom="0.64569469"
   inkscape:cx="464.49675"
   inkscape:cy="47.585467"
   inkscape:window-x="1276"
   inkscape:window-y="-4"
   inkscape:window-maximized="1"
   inkscape:current-layer="svg2"
   showguides="true"
   inkscape:guide-bbox="true" />
<defs
   id="defs4">
</defs>





<path
   inkscape:connector-curvature="0"
   d="M 4.6642489,460.12075 260.66925,16.70776 c 5.531,-9.58 15.753,-15.482 26.815,-15.482 11.063,0 21.284,5.902 26.815,15.482 l 256.00499,443.41299 c 5.531,9.58 5.531,21.384 0,30.964 -5.53,9.58 -15.753,15.482 -26.815,15.482 H 31.479249 c -11.062,0 -21.284,-5.902 -26.8150001,-15.482 -5.53099996,-9.58 -5.53099996,-21.384 0,-30.964 z"
   id="path6"
   style="fill:#ffffff;stroke:#000000;stroke-width:2;stroke-linecap:round;stroke-linejoin:round;stroke-miterlimit:4;stroke-opacity:1;stroke-dasharray:none" /><path
   inkscape:connector-curvature="0"
   d="M 31.389249,494.18175 H 543.58024 c 6.618,0 12.734,-3.531 16.044,-9.264 3.31,-5.731 3.31,-12.794 0,-18.525 L 303.52825,22.82276 c -3.31,-5.732 -9.425,-9.263 -16.044,-9.263 -6.619,0 -12.734,3.531 -16.043,9.263 L 15.345249,466.39275 c -3.31,5.731 -3.31,12.794 0,18.525 3.309,5.733 9.425,9.264 16.044,9.264 z"
   id="path8"
   style="fill:#FF0000;stroke:none" /><polygon
   transform="translate(0.42724894,1.13776)"
   points="510.884,455.888 63.23,455.888 287.058,68.208 "
   id="polygon10"
   style="fill:#ffffff;stroke:none" /><polygon
   transform="translate(0.42724894,1.13776)"
   points="213.896,368.884 211.308,352.259 208.202,335.634 204.061,328.077 197.849,328.077 193.19,331.855 185.944,331.1 184.908,322.787 193.19,308.429 197.849,300.872 203.543,298.604 210.791,279.712 211.826,288.78 214.932,291.804 221.144,283.491 225.284,284.246 224.767,292.559 228.908,290.292 236.155,295.582 242.884,297.094 246.508,297.85 247.025,300.116 255.308,303.895 258.413,307.673 259.966,311.451 265.661,313.719 271.354,311.451 277.566,311.451 283.26,312.963 290.507,312.207 298.272,309.939 303.966,310.695 318.46,310.695 324.155,306.917 330.366,304.65 333.989,303.895 340.201,304.65 345.895,303.895 352.107,303.895 358.836,306.917 365.047,308.429 369.189,309.939 371.259,314.475 374.366,319.008 379.542,319.008 379.542,321.275 380.059,327.32 385.753,327.32 387.306,334.122 385.236,339.412 382.648,340.168 385.236,346.214 384.201,354.526 382.648,362.083 380.059,367.373 372.295,368.129 366.601,386.265 365.565,391.555 371.777,431.607 358.836,431.607 361.424,418.004 356.765,399.868 352.107,394.578 343.825,433.874 328.813,433.118 333.471,427.072 338.13,412.715 341.237,395.334 339.683,390.8 333.471,385.51 314.836,393.066 296.202,395.334 280.672,395.334 272.908,393.822 264.625,398.356 267.213,432.362 254.272,433.118 251.167,430.096 257.896,423.294 250.649,398.356 249.096,433.118 239.261,433.874 235.637,430.852 240.814,422.539 238.743,396.09 235.12,393.822 223.214,387.777 "
   id="polygon12"
   style="fill:#000000;stroke:none" /></svg>