<?xml version="1.0" encoding="UTF-8" standalone="no"?>
<!-- Generator: Adobe Illustrator 13.0.0, SVG Export Plug-In  -->

<svg
   xmlns:dc="http://purl.org/dc/elements/1.1/"
   xmlns:cc="http://creativecommons.org/ns#"
   xmlns:rdf="http://www.w3.org/1999/02/22-rdf-syntax-ns#"
   xmlns:svg="http://www.w3.org/2000/svg"
   xmlns="http://www.w3.org/2000/svg"
   xmlns:sodipodi="http://sodipodi.sourceforge.net/DTD/sodipodi-0.dtd"
   xmlns:inkscape="http://www.inkscape.org/namespaces/inkscape"
   version="1.1"
   x="0px"
   y="0px"
   width="576"
   height="507.5"
   viewBox="-0.781 -0.08 576.53826 507.94375"
   enable-background="new -0.781 -0.08 576 506"
   xml:space="preserve"
   id="svg2"
   inkscape:version="0.48.1 "
   sodipodi:docname="A15c.svg"
   inkscape:export-filename="C:\Documents and Settings\bertrand.bouteilles\Bureau\Panneaux\A - Route\1_danger\A15c.png"
   inkscape:export-xdpi="150"
   inkscape:export-ydpi="150"><metadata
   id="metadata18"><rdf:RDF><cc:Work
       rdf:about=""><dc:format>image/svg+xml</dc:format><dc:type
         rdf:resource="http://purl.org/dc/dcmitype/StillImage" /><dc:title></dc:title></cc:Work></rdf:RDF></metadata><sodipodi:namedview
   pagecolor="#ffffff"
   bordercolor="#666666"
   borderopacity="1"
   objecttolerance="10"
   gridtolerance="10"
   guidetolerance="10"
   inkscape:pageopacity="0"
   inkscape:pageshadow="2"
   inkscape:window-width="1920"
   inkscape:window-height="1174"
   id="namedview16"
   showgrid="false"
   fit-margin-top="0.3"
   fit-margin-left="0.3"
   fit-margin-right="0.3"
   fit-margin-bottom="0.3"
   inkscape:zoom="0.64569469"
   inkscape:cx="464.49675"
   inkscape:cy="47.585467"
   inkscape:window-x="1276"
   inkscape:window-y="-4"
   inkscape:window-maximized="1"
   inkscape:current-layer="svg2"
   showguides="true"
   inkscape:guide-bbox="true" />
<defs
   id="defs4">
</defs>





<path
   inkscape:connector-curvature="0"
   d="M 4.6642489,460.12075 260.66926,16.70776 c 5.531,-9.58 15.753,-15.482 26.815,-15.482 11.063,0 21.284,5.902 26.815,15.482 l 256.00498,443.41299 c 5.531,9.58 5.531,21.384 0,30.964 -5.53,9.58 -15.753,15.482 -26.815,15.482 H 31.479259 c -11.062,0 -21.28401,-5.902 -26.8150101,-15.482 -5.53099996,-9.58 -5.53099996,-21.384 0,-30.964 z"
   id="path6"
   style="fill:#ffffff;stroke:#000000;stroke-width:2;stroke-linecap:round;stroke-linejoin:round;stroke-miterlimit:4;stroke-opacity:1;stroke-dasharray:none" /><path
   inkscape:connector-curvature="0"
   d="M 31.389259,494.18175 H 543.58024 c 6.618,0 12.734,-3.531 16.044,-9.264 3.31,-5.731 3.31,-12.794 0,-18.525 L 303.52826,22.82276 c -3.31,-5.732 -9.425,-9.263 -16.044,-9.263 -6.619,0 -12.734,3.531 -16.043,9.263 L 15.345259,466.39275 c -3.31,5.731 -3.31,12.794 0,18.525 3.309,5.733 9.425,9.264 16.044,9.264 z"
   id="path8"
   style="fill:#FF0000;stroke:none" /><polygon
   transform="translate(0.42724894,1.13776)"
   points="510.884,455.888 63.23,455.888 287.058,68.208 "
   id="polygon10"
   style="fill:#ffffff;stroke:none" /><polygon
   transform="translate(0.42724894,1.13776)"
   points="216.266,249.71 221.307,251.346 235.309,259.521 245.95,267.695 253.791,277.505 258.832,287.314 275.634,278.323 273.394,270.148 273.954,266.061 278.434,259.521 276.194,255.433 270.594,252.981 265.553,250.528 264.433,241.536 253.231,239.083 262.192,230.091 270.034,226.821 273.394,223.55 281.235,223.55 287.956,226.003 291.875,230.091 294.676,240.718 289.076,243.988 287.956,254.615 294.117,255.433 298.597,259.521 304.758,268.513 323.241,296.308 325.481,302.03 323.8,308.57 345.083,304.482 355.725,305.3 366.367,308.57 379.249,317.562 388.77,314.292 408.373,314.292 416.213,317.562 421.254,325.737 429.095,345.357 431.335,368.247 407.812,368.247 406.132,333.912 393.25,326.555 382.609,327.372 382.048,330.642 384.849,339.635 383.169,353.532 405.572,388.685 406.692,441.82 392.69,442.639 391.57,396.858 388.209,391.136 354.045,372.334 355.725,383.779 363.006,400.129 336.683,445.091 319.88,442.639 342.843,400.129 342.283,393.589 335.563,387.049 325.481,373.151 322.121,366.611 291.875,366.611 267.233,360.89 263.873,363.342 267.233,375.604 269.473,396.858 287.956,441.82 271.154,441.82 235.309,365.794 203.944,382.144 206.185,418.932 191.623,426.289 192.183,372.334 228.587,348.627 227.467,342.087 225.787,330.642 224.667,324.103 226.347,314.292 211.785,289.768 180.981,304.482 175.94,293.855 187.142,275.87 185.461,268.513 195.542,258.703 196.663,237.448 205.625,249.71 "
   id="polygon12"
   style="fill:#000000;stroke:none" /><polygon
   transform="translate(0.42724894,1.13776)"
   points="276.373,289.586 278.55,302.305 263.309,299.125 "
   id="polygon14"
   style="fill:#ffffff;stroke:none" /></svg>