<?xml version="1.0" encoding="UTF-8" standalone="no"?>
<!-- Generator: Adobe Illustrator 13.0.0, SVG Export Plug-In  -->

<svg
   xmlns:dc="http://purl.org/dc/elements/1.1/"
   xmlns:cc="http://creativecommons.org/ns#"
   xmlns:rdf="http://www.w3.org/1999/02/22-rdf-syntax-ns#"
   xmlns:svg="http://www.w3.org/2000/svg"
   xmlns="http://www.w3.org/2000/svg"
   xmlns:sodipodi="http://sodipodi.sourceforge.net/DTD/sodipodi-0.dtd"
   xmlns:inkscape="http://www.inkscape.org/namespaces/inkscape"
   version="1.1"
   x="0px"
   y="0px"
   width="576"
   height="507.5"
   viewBox="-0.781 -0.08 576.53826 507.94375"
   enable-background="new -0.781 -0.08 576 506"
   xml:space="preserve"
   id="svg2"
   inkscape:version="0.48.1 "
   sodipodi:docname="A16.svg"
   inkscape:export-filename="C:\Documents and Settings\bertrand.bouteilles\Bureau\Panneaux\A - Route\1_danger\A16.png"
   inkscape:export-xdpi="150"
   inkscape:export-ydpi="150"><metadata
   id="metadata18"><rdf:RDF><cc:Work
       rdf:about=""><dc:format>image/svg+xml</dc:format><dc:type
         rdf:resource="http://purl.org/dc/dcmitype/StillImage" /><dc:title></dc:title></cc:Work></rdf:RDF></metadata><sodipodi:namedview
   pagecolor="#ffffff"
   bordercolor="#666666"
   borderopacity="1"
   objecttolerance="10"
   gridtolerance="10"
   guidetolerance="10"
   inkscape:pageopacity="0"
   inkscape:pageshadow="2"
   inkscape:window-width="1920"
   inkscape:window-height="1174"
   id="namedview16"
   showgrid="false"
   fit-margin-top="0.3"
   fit-margin-left="0.3"
   fit-margin-right="0.3"
   fit-margin-bottom="0.3"
   inkscape:zoom="0.64569469"
   inkscape:cx="464.49675"
   inkscape:cy="47.585467"
   inkscape:window-x="1276"
   inkscape:window-y="-4"
   inkscape:window-maximized="1"
   inkscape:current-layer="svg2"
   showguides="true"
   inkscape:guide-bbox="true" />
<defs
   id="defs4">
</defs>





<path
   inkscape:connector-curvature="0"
   style="fill:#ffffff;stroke:#000000;stroke-width:2;stroke-linecap:round;stroke-linejoin:round;stroke-miterlimit:4;stroke-opacity:1;stroke-dasharray:none"
   d="M 4.6642489,460.12075 260.66925,16.70776 c 5.531,-9.58 15.753,-15.481 26.815,-15.481 11.063,0 21.284,5.901 26.815,15.481 l 256.00499,443.41299 c 5.531,9.58 5.531,21.384 0,30.964 -5.53,9.58 -15.753,15.482 -26.814,15.482 H 31.479249 c -11.062,0 -21.284,-5.902 -26.8150001,-15.482 -5.53099996,-9.581 -5.53099996,-21.384 0,-30.964 z"
   id="path3" /><path
   inkscape:connector-curvature="0"
   style="fill:#ff0000;stroke:none"
   d="M 31.389249,494.18175 H 543.58024 c 6.617,0 12.733,-3.531 16.044,-9.265 3.31,-5.73 3.31,-12.794 0,-18.524 L 303.52925,22.82276 c -3.311,-5.731 -9.426,-9.263 -16.044,-9.263 -6.619,0 -12.734,3.531 -16.043,9.263 L 15.345249,466.39275 c -3.31,5.73 -3.31,12.794 0,18.524 3.309,5.734 9.425,9.265 16.044,9.265 z"
   id="path5" /><polygon
   transform="translate(0.42724894,1.13776)"
   style="fill:#ffffff;stroke:none"
   points="510.884,455.888 63.23,455.888 287.058,68.208 "
   id="polygon7" /><polyline
   transform="translate(0.42724894,1.13776)"
   style="fill:#000000;stroke:none"
   points="83.125,444.401   158.521,313.811 487.057,443.759 "
   id="polyline9" /><line
   style="fill:none;stroke:#000000;stroke-width:0.17640001;stroke-linecap:round;stroke-linejoin:round"
   x1="158.82426"
   y1="314.89874"
   x2="489.76724"
   y2="445.53876"
   id="line11" /><path
   inkscape:connector-curvature="0"
   style="fill:#000000;stroke:none"
   d="m 179.12025,307.66676 -12.509,-3.052 14.358,-24.791 10.309,3.079 32.83,-14.325 65.604,24.851 15.849,35.107 42.10599,23.007 -6.357,19.341 -11.775,-3.061 c 3.73,-9.257 -0.461,-19.813 -9.52699,-23.985 -9.066,-4.173 -19.813,-0.491 -24.415,8.364 l -84.424,-30.632 c 2.972,-8.647 -1.207,-18.127 -9.595,-21.768 -8.389,-3.639 -18.168,-0.214 -22.454,7.865 z"
   id="path13" /><polygon
   transform="translate(0.42724894,1.13776)"
   style="fill:#ffffff;stroke:none"
   points="290.383,321.165 249.549,305.669 255.246,286.117 282.751,297.724 "
   id="polygon17" /><polygon
   transform="translate(0.42724894,1.13776)"
   style="fill:#ffffff;stroke:none"
   points="225.99,275.972 251.881,284.838 245.9,304.156 204.881,289.078 206.294,284.78 "
   id="polygon19" /><circle
   transform="translate(0.42724894,1.13776)"
   sodipodi:ry="13.599"
   sodipodi:rx="13.599"
   sodipodi:cy="313.285"
   sodipodi:cx="195.105"
   style="fill:#000000;stroke:none"
   cx="195.105"
   cy="313.285"
   r="13.599"
   id="circle21" /><circle
   transform="translate(0.42724894,1.13776)"
   sodipodi:ry="14.708"
   sodipodi:rx="14.708"
   sodipodi:cy="358.57001"
   sodipodi:cx="311.814"
   style="fill:#000000;stroke:none"
   cx="311.814"
   cy="358.57001"
   r="14.708"
   id="circle23" /><path
   inkscape:connector-curvature="0"
   style="fill:#ffffff;stroke:none"
   d="m 192.53625,344.11876 -17.663,48.531 -9.218,-3.355 12.502,-34.246 -0.132,-0.049 c -0.17,0.262 -1.191,0.602 -3.063,1.018 l -3.428,0.473 -2.938,0.055 c -1.116,-0.158 -1.737,-0.197 -1.865,-0.119 l 3.728,-10.24 2.396,-0.213 c 4.208,-0.938 7.629,-2.697 10.266,-5.279 l 9.415,3.424 z"
   id="path29" /><path
   inkscape:connector-curvature="0"
   style="fill:#ffffff;stroke:none"
   d="m 194.40925,378.13576 c 0.383,-1.258 0.791,-2.482 1.224,-3.672 0.216,-0.594 0.444,-1.184 0.683,-1.771 0.915,-2.311 1.928,-4.51 3.038,-6.6 l 0.084,-0.232 0.241,-0.248 1.061,-2.195 0.285,-0.271 1.004,-1.729 0.204,-0.15 c 0.907,-1.467 2.272,-2.99 4.096,-4.57 l 1.487,-1.105 2.535,-1.209 c 2.537,-0.873 5.494,-1.082 8.87,-0.625 1.055,0.184 2.111,0.469 3.168,0.854 l 0.265,0.096 c 1.636,0.646 3.265,1.551 4.886,2.713 0.717,0.361 1.736,1.295 3.06,2.799 1.312,1.674 2.328,3.678 3.05,6.01 l 0.469,2.004 0.197,2.129 -0.118,1.455 0.063,0.135 -0.12,0.33 c 0.052,0.543 0.051,0.955 -0.001,1.234 l 0.072,0.213 -0.508,3.145 0.074,0.104 -0.222,0.404 0.035,0.313 -0.956,3.656 0.013,0.377 -0.111,-0.002 -0.526,2.166 -0.09,0.041 c 0.007,0.252 -0.041,0.385 -0.145,0.396 l -0.021,0.367 -0.102,0.074 -0.652,2.307 -0.091,0.043 -0.249,0.994 -0.058,0.053 -0.48,1.322 c -0.318,0.807 -0.742,1.764 -1.269,2.867 l -0.61,1.162 0.042,0.092 -0.285,0.27 c -0.363,0.791 -0.902,1.691 -1.619,2.703 l -0.427,0.555 -0.166,0.352 -1.748,2.133 -0.214,0.07 c -0.08,0.221 -0.611,0.789 -1.593,1.703 l -2.415,1.703 c -2.469,1.371 -4.93,2.133 -7.38,2.289 -1.589,0.045 -3.119,-0.102 -4.593,-0.438 l -2.604,-0.76 -0.583,-0.25 c -4.974,-1.959 -8.433,-5.064 -10.378,-9.314 -0.902,-2.248 -1.33,-4.637 -1.283,-7.164 -0.048,-2.609 0.291,-5.219 1.015,-7.824 l 0.396,-1.504 z m 12.822,15.965 c 1.333,0.584 2.188,0.871 2.567,0.859 l 0.009,0.078 1.961,0.264 c 1.63,0.045 3.123,-0.596 4.479,-1.924 1.18,-1.391 2.317,-3.146 3.413,-5.268 l 2.883,-7.404 1.176,-3.539 0.619,-2.73 -0.084,-0.18 0.244,-2.006 -0.108,-0.115 c 0.151,-1.441 -0.032,-2.891 -0.548,-4.352 -0.497,-0.83 -0.923,-1.408 -1.276,-1.736 l -1.747,-1.16 -1.979,-0.832 c -0.896,-0.352 -1.966,-0.529 -3.211,-0.533 -1.189,0.115 -2.354,0.678 -3.494,1.684 -0.909,0.992 -1.882,2.295 -2.92,3.914 l -0.007,0.221 c -0.172,0.064 -0.382,0.398 -0.627,1.008 -1.247,2.463 -2.655,6.229 -4.224,11.295 l -0.782,3.793 -0.232,2.797 c 0.025,1.506 0.371,2.715 1.035,3.631 0.608,0.794 1.558,1.54 2.853,2.235 z"
   id="path31" /><path
   inkscape:connector-curvature="0"
   style="fill:#ffffff;stroke:none"
   d="m 294.22225,383.07576 5.105,1.857 -47.574,36.29699 -5.104,-1.857 47.573,-36.29699 z m -23.42,-8.375 c 2.842,1.033 4.895,2.93 6.162,5.686 1.266,2.754 1.383,5.553 0.349,8.395 -1.026,2.82 -2.915,4.875 -5.668,6.168 -2.753,1.293 -5.538,1.426 -8.357,0.398 -2.819,-1.025 -4.868,-2.918 -6.146,-5.678 -1.278,-2.76 -1.403,-5.549 -0.377,-8.367 1.034,-2.842 2.921,-4.91 5.663,-6.207 2.741,-1.298 5.533,-1.43 8.374,-0.395 z m -1.91,4.992 c -1.471,-0.537 -2.918,-0.473 -4.341,0.191 -1.422,0.662 -2.401,1.73 -2.937,3.201 -0.527,1.449 -0.452,2.881 0.227,4.297 0.678,1.416 1.742,2.387 3.191,2.914 1.471,0.535 2.915,0.477 4.333,-0.176 1.419,-0.652 2.393,-1.701 2.92,-3.15 0.544,-1.494 0.486,-2.943 -0.17,-4.352 -0.656,-1.409 -1.73,-2.382 -3.223,-2.925 z m 14.018,29.531 c 2.814,1.025 4.866,2.912 6.155,5.664 1.29,2.75199 1.422,5.53699 0.396,8.35499 -1.026,2.82 -2.904,4.85 -5.633,6.088 -2.73,1.238 -5.513,1.342 -8.349,0.309 -2.859,-1.039 -4.937,-2.912 -6.23,-5.615 -1.295,-2.703 -1.429,-5.465 -0.402,-8.28299 1.033,-2.842 2.927,-4.896 5.68,-6.164 2.752,-1.268 5.546,-1.385 8.383,-0.354 z m -1.894,4.998 c -1.449,-0.527 -2.872,-0.461 -4.269,0.199 -1.397,0.66 -2.358,1.715 -2.886,3.16399 -0.535,1.471 -0.482,2.914 0.159,4.328 0.641,1.414 1.687,2.385 3.136,2.912 1.493,0.545 2.943,0.488 4.351,-0.168 1.408,-0.656 2.383,-1.73 2.927,-3.225 0.535,-1.471 0.473,-2.904 -0.188,-4.301 -0.661,-1.39499 -1.737,-2.36599 -3.23,-2.90899 z"
   id="path33" /></svg>