<?xml version="1.0" encoding="UTF-8" standalone="no"?>
<!-- Generator: Adobe Illustrator 13.0.0, SVG Export Plug-In  -->

<svg
   xmlns:dc="http://purl.org/dc/elements/1.1/"
   xmlns:cc="http://creativecommons.org/ns#"
   xmlns:rdf="http://www.w3.org/1999/02/22-rdf-syntax-ns#"
   xmlns:svg="http://www.w3.org/2000/svg"
   xmlns="http://www.w3.org/2000/svg"
   xmlns:sodipodi="http://sodipodi.sourceforge.net/DTD/sodipodi-0.dtd"
   xmlns:inkscape="http://www.inkscape.org/namespaces/inkscape"
   version="1.1"
   x="0px"
   y="0px"
   width="576"
   height="507.5"
   viewBox="-0.781 -0.08 576.53826 507.94375"
   enable-background="new -0.781 -0.08 576 506"
   xml:space="preserve"
   id="svg2"
   inkscape:version="0.48.1 "
   sodipodi:docname="A19.svg"
   inkscape:export-filename="C:\Documents and Settings\bertrand.bouteilles\Bureau\Panneaux\A - Route\1_danger\A19.png"
   inkscape:export-xdpi="150"
   inkscape:export-ydpi="150"><metadata
   id="metadata18"><rdf:RDF><cc:Work
       rdf:about=""><dc:format>image/svg+xml</dc:format><dc:type
         rdf:resource="http://purl.org/dc/dcmitype/StillImage" /><dc:title></dc:title></cc:Work></rdf:RDF></metadata><sodipodi:namedview
   pagecolor="#ffffff"
   bordercolor="#666666"
   borderopacity="1"
   objecttolerance="10"
   gridtolerance="10"
   guidetolerance="10"
   inkscape:pageopacity="0"
   inkscape:pageshadow="2"
   inkscape:window-width="1920"
   inkscape:window-height="1174"
   id="namedview16"
   showgrid="false"
   fit-margin-top="0.3"
   fit-margin-left="0.3"
   fit-margin-right="0.3"
   fit-margin-bottom="0.3"
   inkscape:zoom="0.64569469"
   inkscape:cx="464.49675"
   inkscape:cy="47.585467"
   inkscape:window-x="1276"
   inkscape:window-y="-4"
   inkscape:window-maximized="1"
   inkscape:current-layer="svg2"
   showguides="true"
   inkscape:guide-bbox="true" />
<defs
   id="defs4">
</defs>





<path
   inkscape:connector-curvature="0"
   d="M 4.6642489,460.12075 260.66925,16.70776 c 5.531,-9.58 15.753,-15.482 26.815,-15.482 11.063,0 21.284,5.902 26.815,15.482 l 256.00499,443.41299 c 5.531,9.58 5.531,21.384 0,30.964 -5.53,9.58 -15.753,15.482 -26.815,15.482 H 31.479249 c -11.062,0 -21.284,-5.902 -26.8150001,-15.482 -5.53099996,-9.58 -5.53099996,-21.384 0,-30.964 z"
   id="path6"
   style="fill:#ffffff;stroke:#000000;stroke-width:2;stroke-linecap:round;stroke-linejoin:round;stroke-miterlimit:4;stroke-opacity:1;stroke-dasharray:none" /><path
   inkscape:connector-curvature="0"
   d="M 31.389249,494.18175 H 543.58024 c 6.618,0 12.734,-3.531 16.044,-9.264 3.31,-5.731 3.31,-12.794 0,-18.525 L 303.52825,22.82276 c -3.31,-5.732 -9.425,-9.263 -16.044,-9.263 -6.619,0 -12.734,3.531 -16.043,9.263 L 15.345249,466.39275 c -3.31,5.731 -3.31,12.794 0,18.525 3.309,5.733 9.425,9.264 16.044,9.264 z"
   id="path8"
   style="fill:#FF0000;stroke:none" /><polygon
   transform="translate(0.42724894,1.13776)"
   points="510.884,455.888 63.23,455.888 287.058,68.208 "
   id="polygon10"
   style="fill:#ffffff;stroke:none" /><polygon
   transform="translate(0.42724894,1.13776)"
   points="175.494,430.422 175.494,428.214 175.494,425.957 179.318,412.563 191.554,412.563 192.224,428.21 192.371,430.422 218.349,430.422 217.837,428.426 213.731,411.447 245.851,403.634 247.38,411.447 241.262,425.957 242.293,428.467 242.988,430.422 280.264,430.422 264.969,404.75 277.205,340.009 293.265,316.568 300.147,257.408 313.913,246.247 318.5,196.017 311.619,183.738 318.5,149.135 483.686,437.12 92.902,437.12 92.902,430.422 149.396,430.422 149.446,429.171 147.199,422.609 156.376,415.912 161.167,428.898 161.627,430.422 175.275,430.422 "
   id="polygon12"
   style="fill:#000000;stroke:none" /><polygon
   transform="translate(0.42724894,1.13776)"
   points="206.848,352.287 222.908,351.171 230.556,336.66 222.908,324.382 209.143,347.822 "
   id="polygon14"
   style="fill:#000000;stroke:none" /><polygon
   transform="translate(0.42724894,1.13776)"
   points="223.673,294.244 218.32,286.431 209.143,304.29 216.791,305.406 "
   id="polygon16"
   style="fill:#000000;stroke:none" /><polygon
   transform="translate(0.42724894,1.13776)"
   points="246.615,233.968 261.145,237.316 258.851,266.339 254.263,269.687 246.615,284.198 238.968,283.082 230.556,264.106 "
   id="polygon18"
   style="fill:#000000;stroke:none" /><polygon
   transform="translate(0.42724894,1.13776)"
   points="268.028,183.738 273.381,185.971 271.852,213.876 264.205,213.876 258.087,221.689 252.733,209.411 "
   id="polygon20"
   style="fill:#000000;stroke:none" /></svg>