<?xml version="1.0" encoding="UTF-8" standalone="no"?>
<!-- Generator: Adobe Illustrator 13.0.0, SVG Export Plug-In  -->

<svg
   xmlns:dc="http://purl.org/dc/elements/1.1/"
   xmlns:cc="http://creativecommons.org/ns#"
   xmlns:rdf="http://www.w3.org/1999/02/22-rdf-syntax-ns#"
   xmlns:svg="http://www.w3.org/2000/svg"
   xmlns="http://www.w3.org/2000/svg"
   xmlns:sodipodi="http://sodipodi.sourceforge.net/DTD/sodipodi-0.dtd"
   xmlns:inkscape="http://www.inkscape.org/namespaces/inkscape"
   version="1.1"
   x="0px"
   y="0px"
   width="576"
   height="507.5"
   viewBox="-0.781 -0.08 575.9704 507.40624"
   enable-background="new -0.781 -0.08 576 506"
   xml:space="preserve"
   id="svg2"
   inkscape:version="0.48.1 "
   sodipodi:docname="A1b.svg"><metadata
   id="metadata18"><rdf:RDF><cc:Work
       rdf:about=""><dc:format>image/svg+xml</dc:format><dc:type
         rdf:resource="http://purl.org/dc/dcmitype/StillImage" /></cc:Work></rdf:RDF></metadata><sodipodi:namedview
   pagecolor="#ffffff"
   bordercolor="#666666"
   borderopacity="1"
   objecttolerance="10"
   gridtolerance="10"
   guidetolerance="10"
   inkscape:pageopacity="0"
   inkscape:pageshadow="2"
   inkscape:window-width="1920"
   inkscape:window-height="1174"
   id="namedview16"
   showgrid="false"
   fit-margin-top="-2.7755576e-017"
   fit-margin-left="-2.7755576e-017"
   fit-margin-right="-2.7755576e-017"
   fit-margin-bottom="-2.7755576e-017"
   inkscape:zoom="0.64569469"
   inkscape:cx="149.82313"
   inkscape:cy="47.307777"
   inkscape:window-x="1276"
   inkscape:window-y="-4"
   inkscape:window-maximized="1"
   inkscape:current-layer="svg2"
   showguides="true"
   inkscape:guide-bbox="true" />
<defs
   id="defs4">
</defs>





<g
   transform="translate(-0.31141299,-0.23625652)"
   id="g3753"><path
     style="fill:#ffffff;stroke:#000000;stroke-width:2;stroke-linecap:round;stroke-linejoin:round;stroke-miterlimit:4;stroke-opacity:1;stroke-dasharray:none"
     id="path6"
     d="M 4.6648165,460.11552 260.69804,16.653635 C 266.22965,7.0725782 276.45278,1.1699276 287.516,1.1699276 c 11.06422,0 21.28635,5.9026506 26.81796,15.4837074 L 570.36717,460.11552 c 5.53161,9.58105 5.53161,21.38636 0,30.96741 -5.53061,9.58106 -15.75473,15.48371 -26.81795,15.48371 H 31.482773 c -11.063219,0 -21.286347,-5.90265 -26.8179565,-15.48371 -5.53160972,-9.58105 -5.53160972,-21.38636 0,-30.96741 z"
     inkscape:connector-curvature="0" /><path
     style="fill:#ff0000;fill-opacity:1;stroke:none"
     id="path8"
     d="M 31.392763,494.18027 H 543.64023 c 6.61873,0 12.7354,-3.53139 16.04577,-9.26502 3.31036,-5.73163 3.31036,-12.79541 0,-18.52704 L 303.56177,22.769309 c -3.31036,-5.732632 -9.42604,-9.264022 -16.04577,-9.264022 -6.61973,0 -12.7354,3.53139 -16.04477,9.264022 L 15.346994,466.38821 c -3.310365,5.73163 -3.310365,12.79541 0,18.52704 3.309365,5.73363 9.42604,9.26502 16.045769,9.26502 z"
     inkscape:connector-curvature="0" /><polygon
     style="fill:#ffffff;stroke:none"
     id="polygon10"
     points="510.884,455.888 63.23,455.888 287.058,68.208 "
     transform="matrix(1.0001103,0,0,1.0001103,0.42734948,1.0819179)" /></g><path
   inkscape:connector-curvature="0"
   d="m 258.02969,255.41792 -33.37699,-23.325 33.39799,-19.875 c 2.314,0.003 4.627,0.176 6.917,0.514 77.023,11.383 134.074,77.485 134.074,155.344 v 78.33899 l -20.942,-32.27299 -21.962,32.47099 -0.235,-90.19699 c -5.303,-51.79 -45.073,-93.379 -96.574,-100.989 -0.431,-0.065 -0.868,-0.068 -1.299,-0.009 z"
   id="path12"
   style="fill:#000000;stroke:none" /></svg>