<?xml version="1.0" encoding="UTF-8" standalone="no"?>
<!-- Generator: Adobe Illustrator 13.0.0, SVG Export Plug-In  -->

<svg
   xmlns:dc="http://purl.org/dc/elements/1.1/"
   xmlns:cc="http://creativecommons.org/ns#"
   xmlns:rdf="http://www.w3.org/1999/02/22-rdf-syntax-ns#"
   xmlns:svg="http://www.w3.org/2000/svg"
   xmlns="http://www.w3.org/2000/svg"
   xmlns:sodipodi="http://sodipodi.sourceforge.net/DTD/sodipodi-0.dtd"
   xmlns:inkscape="http://www.inkscape.org/namespaces/inkscape"
   version="1.1"
   x="0px"
   y="0px"
   width="576"
   height="507.5"
   viewBox="-0.781 -0.08 576.53826 507.94375"
   enable-background="new -0.781 -0.08 576 506"
   xml:space="preserve"
   id="svg2"
   inkscape:version="0.48.4 r9939"
   sodipodi:docname="AJAX1.svg"><metadata
   id="metadata18"><rdf:RDF><cc:Work
       rdf:about=""><dc:format>image/svg+xml</dc:format><dc:type
         rdf:resource="http://purl.org/dc/dcmitype/StillImage" /></cc:Work></rdf:RDF></metadata><sodipodi:namedview
   pagecolor="#ffffff"
   bordercolor="#666666"
   borderopacity="1"
   objecttolerance="10"
   gridtolerance="10"
   guidetolerance="10"
   inkscape:pageopacity="0"
   inkscape:pageshadow="2"
   inkscape:window-width="1280"
   inkscape:window-height="1004"
   id="namedview16"
   showgrid="false"
   fit-margin-top="0.3"
   fit-margin-left="0.3"
   fit-margin-right="0.3"
   fit-margin-bottom="0.3"
   inkscape:zoom="0.64569469"
   inkscape:cx="464.49675"
   inkscape:cy="47.585467"
   inkscape:window-x="-8"
   inkscape:window-y="-8"
   inkscape:window-maximized="1"
   inkscape:current-layer="svg2"
   showguides="true"
   inkscape:guide-bbox="true" />
<defs
   id="defs4">
</defs>





<path
   inkscape:connector-curvature="0"
   d="M 570.30424,460.12075 314.29924,16.707756 c -5.531,-9.58 -15.753,-15.4819999 -26.815,-15.4819999 -11.063,0 -21.284,5.9019999 -26.815,15.4819999 L 4.6642489,460.12075 c -5.53099997,9.58 -5.53099997,21.384 0,30.964 5.5300001,9.58 15.7530001,15.482 26.8150001,15.482 H 543.48924 c 11.062,0 21.284,-5.902 26.815,-15.482 5.531,-9.58 5.531,-21.384 0,-30.964 z"
   id="path6"
   style="fill:#ffffff;stroke:#000000;stroke-width:2;stroke-linecap:round;stroke-linejoin:round;stroke-miterlimit:4;stroke-opacity:1;stroke-dasharray:none" /><path
   inkscape:connector-curvature="0"
   d="M 543.57924,494.18175 H 31.388249 c -6.618,0 -12.734,-3.531 -16.044,-9.264 -3.31,-5.731 -3.31,-12.794 0,-18.525 L 271.44024,22.822756 c 3.31,-5.732 9.425,-9.263 16.044,-9.263 6.619,0 12.734,3.531 16.043,9.263 l 256.096,443.569994 c 3.31,5.731 3.31,12.794 0,18.525 -3.309,5.733 -9.425,9.264 -16.044,9.264 z"
   id="path8"
   style="fill:#FF0000;stroke:none" /><polygon
   transform="matrix(-1,0,0,1,574.54124,1.1377561)"
   points="63.23,455.888 287.058,68.208 510.884,455.888 "
   id="polygon10"
   style="fill:#ffffff;stroke:none" /><path
   inkscape:connector-curvature="0"
   d="m 225.22325,221.62976 22.67599,-33.436 20.551,33.436 v 96.477 l 46.893,-36.539 c 8.159,-11.168 22.575,-15.821 35.724,-11.53 13.148,4.291 22.044,16.553 22.044,30.384 v 142.48999 l -20.329,-27.46699 -22.898,27.46699 V 325.03676 l -54.806,42.707 c -9.306,7.251 -21.931,8.566 -32.53099,3.388 -10.6,-5.178 -17.323,-15.945 -17.323,-27.743 v -121.759 z"
   id="path12"
   style="fill:#000000;stroke:none" /></svg>