<?xml version="1.0" encoding="UTF-8" standalone="no"?>
<!-- Generator: Adobe Illustrator 13.0.0, SVG Export Plug-In  -->

<svg
   xmlns:dc="http://purl.org/dc/elements/1.1/"
   xmlns:cc="http://creativecommons.org/ns#"
   xmlns:rdf="http://www.w3.org/1999/02/22-rdf-syntax-ns#"
   xmlns:svg="http://www.w3.org/2000/svg"
   xmlns="http://www.w3.org/2000/svg"
   xmlns:sodipodi="http://sodipodi.sourceforge.net/DTD/sodipodi-0.dtd"
   xmlns:inkscape="http://www.inkscape.org/namespaces/inkscape"
   version="1.1"
   x="0px"
   y="0px"
   width="576"
   height="507.5"
   viewBox="-0.781 -0.08 576.53826 507.94375"
   enable-background="new -0.781 -0.08 576 506"
   xml:space="preserve"
   id="svg2"
   inkscape:version="0.48.1 "
   sodipodi:docname="A20.svg"
   inkscape:export-filename="C:\Documents and Settings\bertrand.bouteilles\Bureau\Panneaux\A - Route\1_danger\A20.png"
   inkscape:export-xdpi="150"
   inkscape:export-ydpi="150"><metadata
   id="metadata18"><rdf:RDF><cc:Work
       rdf:about=""><dc:format>image/svg+xml</dc:format><dc:type
         rdf:resource="http://purl.org/dc/dcmitype/StillImage" /><dc:title></dc:title></cc:Work></rdf:RDF></metadata><sodipodi:namedview
   pagecolor="#ffffff"
   bordercolor="#666666"
   borderopacity="1"
   objecttolerance="10"
   gridtolerance="10"
   guidetolerance="10"
   inkscape:pageopacity="0"
   inkscape:pageshadow="2"
   inkscape:window-width="1920"
   inkscape:window-height="1174"
   id="namedview16"
   showgrid="false"
   fit-margin-top="0.3"
   fit-margin-left="0.3"
   fit-margin-right="0.3"
   fit-margin-bottom="0.3"
   inkscape:zoom="0.64569469"
   inkscape:cx="464.49675"
   inkscape:cy="47.585467"
   inkscape:window-x="1276"
   inkscape:window-y="-4"
   inkscape:window-maximized="1"
   inkscape:current-layer="svg2"
   showguides="true"
   inkscape:guide-bbox="true" />
<defs
   id="defs4">
</defs>





<path
   inkscape:connector-curvature="0"
   d="M 4.6642489,460.12075 260.66925,16.707756 c 5.531,-9.58 15.753,-15.4819999 26.815,-15.4819999 11.063,0 21.284,5.9019999 26.815,15.4819999 L 570.30424,460.12075 c 5.531,9.58 5.531,21.384 0,30.964 -5.53,9.58 -15.753,15.482 -26.815,15.482 H 31.479249 c -11.062,0 -21.284,-5.902 -26.8150001,-15.482 -5.53099996,-9.58 -5.53099996,-21.384 0,-30.964 z"
   id="path6"
   style="fill:#ffffff;stroke:#000000;stroke-width:2;stroke-linecap:round;stroke-linejoin:round;stroke-miterlimit:4;stroke-opacity:1;stroke-dasharray:none" /><path
   inkscape:connector-curvature="0"
   d="M 31.389249,494.18175 H 543.58024 c 6.618,0 12.734,-3.531 16.044,-9.264 3.31,-5.731 3.31,-12.794 0,-18.525 L 303.52825,22.822756 c -3.31,-5.732 -9.425,-9.263 -16.044,-9.263 -6.619,0 -12.734,3.531 -16.043,9.263 L 15.345249,466.39275 c -3.31,5.731 -3.31,12.794 0,18.525 3.309,5.733 9.425,9.264 16.044,9.264 z"
   id="path8"
   style="fill:#FF0000;stroke:none" /><polygon
   transform="translate(0.42724901,1.1377561)"
   points="510.884,455.888 63.23,455.888 287.058,68.208 "
   id="polygon10"
   style="fill:#ffffff;stroke:none" /><path
   inkscape:connector-curvature="0"
   d="m 249.54825,302.93676 c 2.813,-8.701 -1.54,-18.102 -9.994,-21.587 -8.454,-3.484 -18.167,0.119 -22.302,8.274 l -12.563,-2.821 13.9,-25.051 10.364,2.89 32.561,-14.926 66.048,23.64 16.49199,34.812 42.521,22.229 -6,19.453 -11.831,-2.843 c 3.562,-9.324 -0.824,-19.801 -9.967,-23.807 -9.142,-4.005 -19.817,-0.127 -24.257,8.812 l -84.97199,-29.075 z"
   id="path12"
   style="fill:#000000;stroke:none" /><polyline
   transform="translate(0.42724901,1.1377561)"
   points="229.402,417.903   247.429,416.4 269.586,412.457 287.42,407.725 305.196,407.228 316.856,411.485 329.573,421.132 343.092,426.384 359.125,426.384   373.701,419.998 385.361,413.613 397.022,411.485 409.556,414.034 429.088,424.256 442.522,428.229 465.527,426.384 "
   id="polyline14"
   style="fill:none;stroke:#000000;stroke-width:5;stroke-linecap:round;stroke-linejoin:round;stroke-opacity:1" /><polyline
   transform="translate(0.42724901,1.1377561)"
   points="229.402,405.553   247.429,404.05 269.586,400.106 287.42,395.374 305.196,394.877 316.856,399.135 329.573,408.781 343.092,414.033 359.125,414.033   373.701,407.647 385.361,401.263 397.022,399.135 409.556,401.684 429.088,411.905 442.522,415.879 465.527,414.033 "
   id="polyline16"
   style="fill:none;stroke:#000000;stroke-width:5;stroke-linecap:round;stroke-linejoin:round;stroke-opacity:1" /><polyline
   transform="translate(0.42724901,1.1377561)"
   points="229.402,393.202   247.429,391.699 269.586,387.756 287.42,383.024 305.196,382.527 316.856,386.784 329.573,396.431 343.092,401.683 359.125,401.683   373.701,395.297 385.361,388.912 397.022,386.784 409.556,389.333 429.088,399.555 442.522,403.528 465.527,401.683 "
   id="polyline18"
   style="fill:none;stroke:#000000;stroke-width:5;stroke-linecap:round;stroke-linejoin:round;stroke-opacity:1" /><polygon
   transform="translate(0.42724901,1.1377561)"
   points="85.104,437.866 162.193,307.934 229.402,308.032 229.402,437.866 "
   id="polygon20"
   style="fill:#000000;stroke:none" /><polygon
   transform="translate(0.42724901,1.1377561)"
   points="328.764,301.068 287.653,286.324 292.989,266.671 320.704,277.771 "
   id="polygon22"
   style="fill:#ffffff;stroke:none" /><polygon
   transform="translate(0.42724901,1.1377561)"
   points="263.552,257.064 289.602,265.454 283.977,284.88 242.688,270.557 244.022,266.234 "
   id="polygon24"
   style="fill:#ffffff;stroke:none" /><circle
   sodipodi:ry="13.599"
   sodipodi:rx="13.599"
   sodipodi:cy="294.939"
   sodipodi:cx="233.358"
   transform="translate(0.42724901,1.1377561)"
   cx="233.358"
   cy="294.939"
   r="13.599"
   id="circle26"
   style="fill:#000000;stroke:none" /><circle
   sodipodi:ry="14.708"
   sodipodi:rx="14.708"
   sodipodi:cy="338.073"
   sodipodi:cx="350.88"
   transform="translate(0.42724901,1.1377561)"
   cx="350.88"
   cy="338.073"
   r="14.708"
   id="circle28"
   style="fill:#000000;stroke:none" /></svg>