<?xml version="1.0" encoding="UTF-8" standalone="no"?>
<!-- Generator: Adobe Illustrator 13.0.0, SVG Export Plug-In  -->

<svg
   xmlns:dc="http://purl.org/dc/elements/1.1/"
   xmlns:cc="http://creativecommons.org/ns#"
   xmlns:rdf="http://www.w3.org/1999/02/22-rdf-syntax-ns#"
   xmlns:svg="http://www.w3.org/2000/svg"
   xmlns="http://www.w3.org/2000/svg"
   xmlns:sodipodi="http://sodipodi.sourceforge.net/DTD/sodipodi-0.dtd"
   xmlns:inkscape="http://www.inkscape.org/namespaces/inkscape"
   version="1.1"
   x="0px"
   y="0px"
   width="576"
   height="507.5"
   viewBox="-0.781 -0.08 576.53826 507.94375"
   enable-background="new -0.781 -0.08 576 506"
   xml:space="preserve"
   id="svg2"
   inkscape:version="0.48.1 "
   sodipodi:docname="A21a.svg"
   inkscape:export-filename="C:\Documents and Settings\bertrand.bouteilles\Bureau\Panneaux\A - Route\1_danger\A21a.png"
   inkscape:export-xdpi="150"
   inkscape:export-ydpi="150"><metadata
   id="metadata18"><rdf:RDF><cc:Work
       rdf:about=""><dc:format>image/svg+xml</dc:format><dc:type
         rdf:resource="http://purl.org/dc/dcmitype/StillImage" /><dc:title></dc:title></cc:Work></rdf:RDF></metadata><sodipodi:namedview
   pagecolor="#ffffff"
   bordercolor="#666666"
   borderopacity="1"
   objecttolerance="10"
   gridtolerance="10"
   guidetolerance="10"
   inkscape:pageopacity="0"
   inkscape:pageshadow="2"
   inkscape:window-width="1920"
   inkscape:window-height="1174"
   id="namedview16"
   showgrid="false"
   fit-margin-top="0.3"
   fit-margin-left="0.3"
   fit-margin-right="0.3"
   fit-margin-bottom="0.3"
   inkscape:zoom="0.64569469"
   inkscape:cx="464.49675"
   inkscape:cy="47.585467"
   inkscape:window-x="1276"
   inkscape:window-y="-4"
   inkscape:window-maximized="1"
   inkscape:current-layer="svg2"
   showguides="true"
   inkscape:guide-bbox="true" />
<defs
   id="defs4">
</defs>





<path
   inkscape:connector-curvature="0"
   d="M 4.6642489,460.12075 260.66925,16.707756 c 5.531,-9.58 15.753,-15.4819999 26.815,-15.4819999 11.063,0 21.284,5.9019999 26.815,15.4819999 L 570.30424,460.12075 c 5.531,9.58 5.531,21.384 0,30.964 -5.53,9.58 -15.753,15.482 -26.815,15.482 H 31.479249 c -11.062,0 -21.284,-5.902 -26.8150001,-15.482 -5.53099996,-9.58 -5.53099996,-21.384 0,-30.964 z"
   id="path6"
   style="fill:#ffffff;stroke:#000000;stroke-width:2;stroke-linecap:round;stroke-linejoin:round;stroke-miterlimit:4;stroke-opacity:1;stroke-dasharray:none" /><path
   inkscape:connector-curvature="0"
   d="M 31.389249,494.18175 H 543.58024 c 6.618,0 12.734,-3.531 16.044,-9.264 3.31,-5.731 3.31,-12.794 0,-18.525 L 303.52825,22.822756 c -3.31,-5.732 -9.425,-9.263 -16.044,-9.263 -6.619,0 -12.734,3.531 -16.043,9.263 L 15.345249,466.39275 c -3.31,5.731 -3.31,12.794 0,18.525 3.309,5.733 9.425,9.264 16.044,9.264 z"
   id="path8"
   style="fill:#FF0000;stroke:none" /><polygon
   transform="translate(0.42724901,1.1377561)"
   points="510.884,455.888 63.23,455.888 287.058,68.208 "
   id="polygon10"
   style="fill:#ffffff;stroke:none" /><path
   inkscape:connector-curvature="0"
   d="m 316.42625,380.90876 c 2.219,2.805 3.451,6.263 3.508,9.838 l 61.28399,-4.956 -0.255,0.768 -0.045,0.777 -0.002,0.718 -61.10299,4.942 c -0.51,4.13 -2.583,7.907 -5.792,10.557 l 0.229,9.658 0.025,10.02899 -23.321,8.083 -5.662,-3.086 1.259,-6.751 7.1,-5.124 -1.172,-13.53599 c -5.575,-5.273 -6.709,-13.725 -2.721,-20.28 l -46.659,-55.381 0.961,-2.322 46.458,55.143 -1.566,-18.319 -10.572,1.669 -2.204,-6.013 4,-4.569 -11.95,-38.266 c -0.231,-0.569 -0.421,-1.155 -0.568,-1.752 l -20.614,0.707 0.251,-2.242 20.014,-0.687 c -0.407,-5.859 3.165,-11.265 8.714,-13.188 l 29.152,-10.104 -7.548,-28.247 -4.626,12.604 -47.44,13.634 -3.786,-2.211 -0.322,-1.177 -4.789,0.536 -5.015,2.847 1.519,6.974 15.436,7.352 -1.56,13.908 -2.984,11.4 -18.093,43.715 -12.802,15.935 c 2.339,1.879 2.872,5.226 1.231,7.737 -1.641,2.511 -4.919,3.37 -7.58,1.983 -2.66,-1.387 -3.835,-4.565 -2.716,-7.349 1.119,-2.783 4.167,-4.264 7.047,-3.423 l 12.88,-16.033 17.913,-43.278 2.904,-11.098 1.365,-12.167 -14.988,-7.139 -2.101,-9.647 6.84,-3.885 4.896,-0.547 -0.595,-2.171 40.72,-17.542 10.698,-45.44 3.998,-5.664 -0.668,-5.874 c -10.908,-2.602 -18.517,-12.47 -18.259,-23.681 0.258,-11.211 8.313,-20.719 19.33,-22.816 11.016,-2.097 22,3.786 26.359,14.119 4.359,10.333 0.908,22.306 -8.281,28.733 l 1.025,7.646 6.391,3.083 8.40499,6.543 25.347,71.239 -1.797,10.581 -13.431,17.962 45.254,65.936 c 2.717,-0.48 5.359,1.164 6.127,3.814 0.767,2.65 -0.588,5.452 -3.142,6.497 -2.554,1.045 -5.484,-0.004 -6.794,-2.433 -1.311,-2.428 -0.579,-5.453 1.696,-7.015 l -44.552,-64.912 -8.109,10.845 -14.15199,51.813"
   id="path12"
   style="fill:#000000;stroke:none" /><polyline
   style="fill:none;stroke:#000000;stroke-width:0.17640001;stroke-linecap:round;stroke-linejoin:round"
   transform="translate(0.42724901,1.1377561)"
   points="  314.209,377.851 326.509,332.838 312.394,351.715 312.989,376.841 "
   id="polyline14" /><path
   style="fill:none;stroke:#000000;stroke-width:0.17640001;stroke-linecap:round;stroke-linejoin:round"
   inkscape:connector-curvature="0"
   d="m 314.63625,378.98876 c -0.391,-0.356 -0.798,-0.693 -1.221,-1.01"
   id="path16" /><polyline
   transform="translate(0.42724901,1.1377561)"
   points="  307.177,308.142 314.831,305.754 294.849,336.806 287.133,314.396 299.245,310.617 "
   id="polyline18"
   style="fill:#ffffff;stroke:none" /><path
   inkscape:connector-curvature="0"
   d="m 343.56124,388.83576 -4.454,0.36 c -0.538,-16.111 7.18,-31.385 20.472,-40.507 l 2.525,3.68 c -11.972,8.218 -18.956,21.952 -18.543,36.467 z"
   id="path20"
   style="fill:#000000;stroke:none" /><path
   inkscape:connector-curvature="0"
   d="m 339.23424,391.42576 4.45,-0.36 c 1.542,19.069 15.566,34.79299 34.336,38.49699 18.77,3.704 37.716,-5.513 46.387,-22.56499 8.672,-17.055 4.958,-37.793 -9.094,-50.777 -14.051,-12.984 -35.018,-15.053 -51.335,-5.065 l -2.529,-3.685 c 17.984,-11.131 41.178,-8.944 56.765,5.353 15.587,14.297 19.765,37.216 10.225,56.093 -9.54,18.87799 -30.47,29.10699 -51.225,25.03799 -20.756,-4.071 -36.274,-21.44699 -37.98,-42.52899 z"
   id="path22"
   style="fill:#000000;stroke:none" /><path
   inkscape:connector-curvature="0"
   d="m 232.43025,352.94776 1.731,-4.182 c 22.058,13.5 29.153,42.23 15.918,64.447 -13.236,22.21799 -41.88,29.65499 -64.253,16.68599 -22.374,-12.971 -30.153,-41.52299 -17.45,-64.04999 12.703,-22.527 41.161,-30.646 63.836,-18.212 l -1.718,4.151 c -20.382,-11.483 -46.209,-4.455 -57.96,15.773 -11.752,20.229 -5.065,46.146 15.007,58.16399 20.072,12.018 46.076,5.673 58.356,-14.23899 12.282,-19.91 6.281,-45.995 -13.467,-58.538 z"
   id="path24"
   style="fill:#000000;stroke:none" /><line
   style="fill:none;stroke:#000000;stroke-width:0.17640001;stroke-linecap:round;stroke-linejoin:round"
   x1="267.31125"
   y1="310.51373"
   x2="313.84424"
   y2="309.08871"
   id="line26" /><line
   style="fill:none;stroke:#000000;stroke-width:0.17640001;stroke-linecap:round;stroke-linejoin:round"
   x1="267.66025"
   y1="312.73572"
   x2="312.38025"
   y2="311.36572"
   id="line28" /><polyline
   style="fill:none;stroke:#000000;stroke-width:0.17640001;stroke-linecap:round;stroke-linejoin:round"
   transform="translate(0.42724901,1.1377561)"
   points="  288.527,360.528 289.04,351.187 292.106,341.861 294.849,336.806 "
   id="polyline30" /><line
   style="fill:none;stroke:#000000;stroke-width:0.17640001;stroke-linecap:round;stroke-linejoin:round"
   x1="313.41626"
   y1="377.97873"
   x2="314.02124"
   y2="403.55273"
   id="line32" /><line
   style="fill:none;stroke:#000000;stroke-width:0.17640001;stroke-linecap:round;stroke-linejoin:round"
   x1="290.52023"
   y1="379.98572"
   x2="292.48026"
   y2="402.82571"
   id="line34" /><line
   style="fill:none;stroke:#000000;stroke-width:0.17640001;stroke-linecap:round;stroke-linejoin:round"
   x1="326.93625"
   y1="333.97574"
   x2="330.58224"
   y2="329.09973"
   id="line36" /><line
   style="fill:none;stroke:#000000;stroke-width:0.17640001;stroke-linecap:round;stroke-linejoin:round"
   x1="338.69125"
   y1="318.25473"
   x2="340.10126"
   y2="316.36673"
   id="line38" /></svg>