<?xml version="1.0" encoding="UTF-8" standalone="no"?>
<!-- Generator: Adobe Illustrator 13.0.0, SVG Export Plug-In  -->

<svg
   xmlns:dc="http://purl.org/dc/elements/1.1/"
   xmlns:cc="http://creativecommons.org/ns#"
   xmlns:rdf="http://www.w3.org/1999/02/22-rdf-syntax-ns#"
   xmlns:svg="http://www.w3.org/2000/svg"
   xmlns="http://www.w3.org/2000/svg"
   xmlns:sodipodi="http://sodipodi.sourceforge.net/DTD/sodipodi-0.dtd"
   xmlns:inkscape="http://www.inkscape.org/namespaces/inkscape"
   version="1.1"
   x="0px"
   y="0px"
   width="576"
   height="507.5"
   viewBox="-0.781 -0.08 576.53826 507.94375"
   enable-background="new -0.781 -0.08 576 506"
   xml:space="preserve"
   id="svg2"
   inkscape:version="0.48.1 "
   sodipodi:docname="A23.svg"
   inkscape:export-filename="C:\Documents and Settings\bertrand.bouteilles\Bureau\Panneaux\A - Route\1_danger\A23.png"
   inkscape:export-xdpi="150"
   inkscape:export-ydpi="150"><metadata
   id="metadata18"><rdf:RDF><cc:Work
       rdf:about=""><dc:format>image/svg+xml</dc:format><dc:type
         rdf:resource="http://purl.org/dc/dcmitype/StillImage" /><dc:title></dc:title></cc:Work></rdf:RDF></metadata><sodipodi:namedview
   pagecolor="#ffffff"
   bordercolor="#666666"
   borderopacity="1"
   objecttolerance="10"
   gridtolerance="10"
   guidetolerance="10"
   inkscape:pageopacity="0"
   inkscape:pageshadow="2"
   inkscape:window-width="1920"
   inkscape:window-height="1174"
   id="namedview16"
   showgrid="false"
   fit-margin-top="0.3"
   fit-margin-left="0.3"
   fit-margin-right="0.3"
   fit-margin-bottom="0.3"
   inkscape:zoom="0.64569469"
   inkscape:cx="464.49675"
   inkscape:cy="314.85352"
   inkscape:window-x="1276"
   inkscape:window-y="-4"
   inkscape:window-maximized="1"
   inkscape:current-layer="svg2"
   showguides="true"
   inkscape:guide-bbox="true" />
<defs
   id="defs4">
</defs>





<path
   inkscape:connector-curvature="0"
   d="M 4.6642489,460.12075 260.66925,16.707758 c 5.531,-9.58 15.753,-15.482 26.815,-15.482 11.063,0 21.284,5.902 26.815,15.482 L 570.30424,460.12075 c 5.531,9.58 5.531,21.384 0,30.964 -5.53,9.58 -15.753,15.482 -26.815,15.482 H 31.479249 c -11.062,0 -21.284,-5.902 -26.8150001,-15.482 -5.53099996,-9.58 -5.53099996,-21.384 0,-30.964 z"
   id="path6"
   style="fill:#ffffff;stroke:#000000;stroke-width:2;stroke-linecap:round;stroke-linejoin:round;stroke-miterlimit:4;stroke-opacity:1;stroke-dasharray:none" /><path
   inkscape:connector-curvature="0"
   d="M 31.389249,494.18175 H 543.58024 c 6.619,0 12.735,-3.531 16.044,-9.264 3.31,-5.731 3.31,-12.794 10e-4,-18.525 L 303.52925,22.822758 c -3.31,-5.732 -9.426,-9.263 -16.044,-9.263 -6.619,0 -12.735,3.531 -16.044,9.263 L 15.345249,466.39275 c -3.31,5.731 -3.31,12.794 0,18.525 3.309,5.733 9.425,9.264 16.044,9.264 z"
   id="path8"
   style="fill:#FF0000;fill-opacity:1;stroke:none" /><polygon
   transform="translate(0.42724894,1.137758)"
   points="510.884,455.888 63.23,455.888 287.058,68.208 "
   id="polygon10"
   style="fill:#ffffff;stroke:none" /><polygon
   transform="translate(0.42724894,1.137758)"
   points="371.964,355.15 398.808,343.618 407.63,346.286 386.537,372.808 382.63,379.827 371.204,411.729 364.288,405.637 359.945,376.745 310.414,349.212 297.304,374.324 294.199,440.018 277.875,429.412 253.796,316.35 219.736,294.288 180.65,268.428 185.43,259.842 228.004,279.435 264.701,296.758 373.483,257.647 391.098,265.934 336.9,303.188 322.465,327.563 "
   id="polygon12"
   style="fill:#000000;stroke:none" /></svg>