<?xml version="1.0" encoding="UTF-8" standalone="no"?>
<!-- Generator: Adobe Illustrator 13.0.0, SVG Export Plug-In  -->

<svg
   xmlns:dc="http://purl.org/dc/elements/1.1/"
   xmlns:cc="http://creativecommons.org/ns#"
   xmlns:rdf="http://www.w3.org/1999/02/22-rdf-syntax-ns#"
   xmlns:svg="http://www.w3.org/2000/svg"
   xmlns="http://www.w3.org/2000/svg"
   xmlns:sodipodi="http://sodipodi.sourceforge.net/DTD/sodipodi-0.dtd"
   xmlns:inkscape="http://www.inkscape.org/namespaces/inkscape"
   version="1.1"
   x="0px"
   y="0px"
   width="576"
   height="507.5"
   viewBox="-0.781 -0.08 576.53826 507.94375"
   enable-background="new -0.781 -0.08 576 506"
   xml:space="preserve"
   id="svg2"
   inkscape:version="0.48.1 "
   sodipodi:docname="A24.svg"
   inkscape:export-filename="C:\Documents and Settings\bertrand.bouteilles\Bureau\Panneaux\A - Route\1_danger\A24.png"
   inkscape:export-xdpi="150"
   inkscape:export-ydpi="150"><metadata
   id="metadata18"><rdf:RDF><cc:Work
       rdf:about=""><dc:format>image/svg+xml</dc:format><dc:type
         rdf:resource="http://purl.org/dc/dcmitype/StillImage" /><dc:title></dc:title></cc:Work></rdf:RDF></metadata><sodipodi:namedview
   pagecolor="#ffffff"
   bordercolor="#666666"
   borderopacity="1"
   objecttolerance="10"
   gridtolerance="10"
   guidetolerance="10"
   inkscape:pageopacity="0"
   inkscape:pageshadow="2"
   inkscape:window-width="1920"
   inkscape:window-height="1174"
   id="namedview16"
   showgrid="false"
   fit-margin-top="0.3"
   fit-margin-left="0.3"
   fit-margin-right="0.3"
   fit-margin-bottom="0.3"
   inkscape:zoom="0.64569469"
   inkscape:cx="100.33187"
   inkscape:cy="290.07769"
   inkscape:window-x="1276"
   inkscape:window-y="-4"
   inkscape:window-maximized="1"
   inkscape:current-layer="svg2"
   showguides="true"
   inkscape:guide-bbox="true" />
<defs
   id="defs4">
</defs>





<path
   inkscape:connector-curvature="0"
   d="M 4.6642489,460.12075 260.66925,16.707756 c 5.531,-9.58 15.753,-15.4819999 26.815,-15.4819999 11.063,0 21.284,5.9019999 26.815,15.4819999 L 570.30424,460.12075 c 5.531,9.58 5.531,21.384 0,30.964 -5.53,9.58 -15.753,15.482 -26.815,15.482 H 31.479249 c -11.062,0 -21.284,-5.902 -26.8150001,-15.482 -5.53099996,-9.58 -5.53099996,-21.384 0,-30.964 z"
   id="path6-1"
   style="fill:#ffffff;stroke:#000000;stroke-width:2;stroke-linecap:round;stroke-linejoin:round;stroke-miterlimit:4;stroke-opacity:1;stroke-dasharray:none" /><path
   inkscape:connector-curvature="0"
   d="M 31.389249,494.18175 H 543.58024 c 6.618,0 12.734,-3.531 16.044,-9.264 3.31,-5.731 3.31,-12.794 0,-18.525 L 303.52825,22.822756 c -3.31,-5.732 -9.425,-9.263 -16.044,-9.263 -6.619,0 -12.734,3.531 -16.043,9.263 L 15.345249,466.39275 c -3.31,5.731 -3.31,12.794 0,18.525 3.309,5.733 9.425,9.264 16.044,9.264 z"
   id="path8-7"
   style="fill:#FF0000;stroke:none;fill-opacity:1" /><polygon
   transform="translate(0.42724901,1.1377561)"
   points="510.884,455.888 63.23,455.888 287.058,68.208 "
   id="polygon10-4"
   style="fill:#ffffff;stroke:none" /><polygon
   transform="translate(0.42724901,1.1377561)"
   points="361.264,438.3 361.814,259.328 376.11,259.328 376.11,438.3 "
   id="polygon12-0"
   style="fill:#FF0000;stroke:none;fill-opacity:1" /><path
   inkscape:connector-curvature="0"
   d="m 185.74025,299.79076 c -5.812,4.385 -6.969,12.649 -2.585,18.461 3.283,4.352 8.905,6.234 14.146,4.735"
   id="path14"
   style="fill:#FF0000;stroke:none;fill-opacity:1" /><polyline
   transform="translate(0.42724901,1.1377561)"
   points="  329.906,243.769 369.842,259.431 342.406,286.216 "
   id="polyline16"
   style="fill:#FF0000;stroke:none;fill-opacity:1" /><line
   x1="248.07425"
   y1="268.39072"
   x2="289.51126"
   y2="246.25276"
   id="line18"
   style="fill:none;stroke:#FF0000;stroke-width:0.49999999;stroke-linecap:round;stroke-linejoin:round;stroke-miterlimit:4;stroke-opacity:1;stroke-dasharray:none" /><line
   x1="268.93524"
   y1="312.91772"
   x2="308.80524"
   y2="306.89172"
   id="line20"
   style="fill:none;stroke:#FF0000;stroke-width:0.49999999;stroke-linecap:round;stroke-linejoin:round;stroke-miterlimit:4;stroke-opacity:1;stroke-dasharray:none" /><line
   x1="220.92924"
   y1="319.85571"
   x2="244.32324"
   y2="316.40472"
   id="line22"
   style="fill:none;stroke:#FF0000;stroke-width:0.49999999;stroke-linecap:round;stroke-linejoin:round;stroke-miterlimit:4;stroke-opacity:1;stroke-dasharray:none" /><path
   inkscape:connector-curvature="0"
   d="m 308.80525,306.89176 c 6.692,-22.258 -0.971,-46.341 -19.294,-60.639 l 17.987,-9.471 22.83399,8.125 c 8.194,12.637 12.537,27.385 12.5,42.447 l -18.69299,17.446 -15.334,2.092 z"
   id="path24"
   style="fill:#FF0000;stroke:none;fill-opacity:1" /><path
   inkscape:connector-curvature="0"
   d="m 244.32325,316.40476 c 5.456,-6.545 6.944,-15.528 3.892,-23.483 -3.052,-7.955 -10.168,-13.637 -18.601,-14.853 l 18.108,-9.726 0.352,0.048 6.49,0.728 4.136,0.46 c 8.433,1.216 15.549,6.897 18.601,14.853 3.052,7.956 1.563,16.938 -3.893,23.483 l -4.473,5.004 -24.612,3.486 z"
   id="path26"
   style="fill:#FF0000;stroke:none;fill-opacity:1" /><line
   x1="213.78224"
   y1="286.14774"
   x2="229.61525"
   y2="278.06873"
   id="line28"
   style="fill:none;stroke:#FF0000;stroke-width:0.49999999;stroke-linecap:round;stroke-linejoin:round;stroke-miterlimit:4;stroke-opacity:1;stroke-dasharray:none" /><path
   inkscape:connector-curvature="0"
   d="m 197.28225,322.99276 23.647,-3.138 c 6.198,-4.28 9.216,-11.866 7.653,-19.234 -1.563,-7.368 -7.399,-13.076 -14.801,-14.474 l -26.185,12.74 3.244,-0.619 2.005,-0.39 2.405,0.39 2.808,1.17 1.871,0.977 1.871,1.755 1.604,2.146 1.203,3.316 0.535,2.927 -0.134,3.121 -1.069,3.513 -1.872,2.146 -1.872,2.146 -2.913,1.508"
   id="path30"
   style="fill:#FF0000;stroke:none;fill-opacity:1" /></svg>