<?xml version="1.0" encoding="UTF-8" standalone="no"?>
<!-- Generator: Adobe Illustrator 13.0.0, SVG Export Plug-In  -->

<svg
   xmlns:dc="http://purl.org/dc/elements/1.1/"
   xmlns:cc="http://creativecommons.org/ns#"
   xmlns:rdf="http://www.w3.org/1999/02/22-rdf-syntax-ns#"
   xmlns:svg="http://www.w3.org/2000/svg"
   xmlns="http://www.w3.org/2000/svg"
   xmlns:sodipodi="http://sodipodi.sourceforge.net/DTD/sodipodi-0.dtd"
   xmlns:inkscape="http://www.inkscape.org/namespaces/inkscape"
   version="1.1"
   x="0px"
   y="0px"
   width="576"
   height="507.5"
   viewBox="-0.781 -0.08 576.53826 507.94375"
   enable-background="new -0.781 -0.08 576 506"
   xml:space="preserve"
   id="svg2"
   inkscape:version="0.48.1 "
   sodipodi:docname="A4.svg"><metadata
   id="metadata18"><rdf:RDF><cc:Work
       rdf:about=""><dc:format>image/svg+xml</dc:format><dc:type
         rdf:resource="http://purl.org/dc/dcmitype/StillImage" /></cc:Work></rdf:RDF></metadata><sodipodi:namedview
   pagecolor="#ffffff"
   bordercolor="#666666"
   borderopacity="1"
   objecttolerance="10"
   gridtolerance="10"
   guidetolerance="10"
   inkscape:pageopacity="0"
   inkscape:pageshadow="2"
   inkscape:window-width="476"
   inkscape:window-height="423"
   id="namedview16"
   showgrid="false"
   fit-margin-top="0.3"
   fit-margin-left="0.3"
   fit-margin-right="0.3"
   fit-margin-bottom="0.3"
   inkscape:zoom="0.81932015"
   inkscape:cx="123.29271"
   inkscape:cy="384.2684"
   inkscape:window-x="544"
   inkscape:window-y="39"
   inkscape:window-maximized="0"
   inkscape:current-layer="svg2"
   showguides="true"
   inkscape:guide-bbox="true" />
<defs
   id="defs4">
</defs>
<path
   d="M 4.6641756,460.12125 260.6692,16.708249 c 5.531,-9.58 15.753,-15.482 26.815,-15.482 11.063,0 21.284,5.902 26.815,15.482 l 256.005,443.413001 c 5.531,9.58 5.531,21.384 0,30.964 -5.53,9.58 -15.753,15.482 -26.815,15.482 H 31.479171 c -11.062,0 -21.284,-5.902 -26.8149954,-15.482 -5.53099991,-9.58 -5.53099991,-21.384 0,-30.964 z"
   id="path6"
   style="fill:#ffffff;fill-opacity:1;stroke:#000000;stroke-width:2;stroke-miterlimit:4;stroke-opacity:1;stroke-dasharray:none"
   inkscape:connector-curvature="0" />
<path
   d="M 31.390171,494.18225 H 543.5812 c 6.618,0 12.734,-3.531 16.044,-9.264 3.31,-5.731 3.31,-12.794 0,-18.525 L 303.5292,22.822249 c -3.31,-5.732 -9.425,-9.263 -16.044,-9.263 -6.619,0 -12.734,3.531 -16.043,9.263 L 15.346171,466.39325 c -3.31,5.731 -3.31,12.794 0,18.525 3.309,5.732 9.425,9.264 16.044,9.264 z"
   id="path8"
   style="fill:#FF0000;stroke:none;fill-opacity:1"
   inkscape:connector-curvature="0" />
<polygon
   points="287.219,68.37 511.046,456.049 63.392,456.049 "
   id="polygon10"
   style="fill:#ffffff;stroke:none"
   transform="translate(0.26617569,0.97624901)" />


<polyline
   points="325.304,364.509   305.248,375.097 283.988,384.749 395.001,405.684 403.824,408.25 404.054,413.875 399.206,419.563 394.544,425.899 388.637,434.841   385.006,435.576 369.642,435.576 369.718,435.282 370.387,434.472 371.525,433.257 373.01,431.745 374.717,430.044 376.524,428.265   378.308,426.517 379.944,424.907 381.337,423.522 382.487,422.351 383.427,421.362 384.183,420.523 384.783,419.797   385.258,419.155 385.637,418.56 385.946,417.981 386.211,417.391 386.426,416.792 386.58,416.196 386.663,415.611 386.666,415.045   386.576,414.511 386.385,414.017 386.081,413.572 385.641,413.181 384.984,412.823 384.022,412.472 382.663,412.101   380.814,411.685 378.386,411.198 375.285,410.612 371.421,409.902 366.745,409.05 361.383,408.076 355.504,407.008 349.275,405.873   342.865,404.7 336.444,403.517 330.181,402.352 324.242,401.232 318.763,400.181 313.733,399.199 309.111,398.282 304.853,397.423   300.914,396.619 297.253,395.865 293.824,395.154 290.587,394.484 287.503,393.847 284.575,393.24 281.808,392.655 279.209,392.088   276.789,391.532 274.551,390.981 272.506,390.43 270.661,389.873 269.019,389.304 267.575,388.722 266.317,388.126 265.235,387.516   264.32,386.889 263.561,386.246 262.946,385.584 262.468,384.905 262.116,384.206 261.887,383.495 261.777,382.778 261.788,382.063   261.913,381.356 262.151,380.665 262.502,379.996 262.962,379.356 263.532,378.749 264.231,378.164 265.08,377.584 266.101,376.998   267.316,376.386 268.748,375.736 270.417,375.032 272.344,374.259 274.58,373.399 277.277,372.418 280.619,371.284 284.786,369.958   289.958,368.405 296.319,366.59 304.05,364.478 313.221,362.061 319.99,341.956 248.444,317.865 242.092,336.732 239.372,336.351   236.973,336.21 234.19,336.21 229.373,337.284 228.181,337.893 226.901,338.572 225.558,339.329 224.174,340.167 222.766,341.076   221.35,342.037 219.938,343.035 218.547,344.052 217.192,345.073 215.888,346.081 214.649,347.059 213.488,347.995 212.409,348.889   211.412,349.751 210.498,350.586 209.668,351.401 208.922,352.202 208.264,352.993 207.691,353.784 207.206,354.579   206.804,355.378 206.481,356.183 206.233,356.994 206.056,357.811 205.944,358.634 205.896,359.463 205.905,360.299 205.97,361.141   206.092,361.982 206.277,362.816 206.529,363.634 206.853,364.43 207.251,365.197 207.73,365.926 208.294,366.611 208.945,367.247   209.678,367.84 210.484,368.398 211.356,368.931 212.287,369.447 213.269,369.954 214.293,370.461 215.354,370.978 216.441,371.509   217.551,372.051 218.676,372.596 219.809,373.134 220.943,373.662 222.073,374.167 223.191,374.645 224.292,375.087 225.37,375.491   226.432,375.859 227.485,376.204 228.537,376.533 229.597,376.857 230.672,377.185 231.769,377.527 232.898,377.89 234.063,378.283   235.255,378.7 236.464,379.133 237.678,379.574 238.887,380.015 240.08,380.448 241.244,380.865 242.368,381.256 243.445,381.62   244.472,381.958 245.451,382.284 246.382,382.602 247.266,382.923 248.104,383.257 248.897,383.613 249.646,383.998 250.354,384.42   251.033,384.885 251.697,385.399 252.361,385.964 253.039,386.587 253.747,387.273 254.496,388.024 255.304,388.845   256.174,389.741 257.083,390.711 257.996,391.754 258.876,392.87 259.692,394.055 260.408,395.31 260.99,396.634 261.402,398.025   261.622,399.481 261.66,401 261.538,402.576 261.275,404.205 260.895,405.884 260.415,407.61 259.859,409.376 259.248,411.179   258.6,413.013 257.921,414.859 257.221,416.693 256.503,418.496 255.773,420.244 255.038,421.917 254.303,423.491 253.574,424.946   252.856,426.267 252.156,427.47 251.477,428.577 250.824,429.61 250.201,430.593 249.615,431.549 249.069,432.5 248.568,433.47   248.362,433.913 240.775,441.903 209.802,441.903 207.621,441.762 206.122,441.572 205.251,441.311 204.957,440.962   205.184,440.504 205.877,439.919 206.986,439.186 208.456,438.287 210.231,437.208 212.253,435.974 214.46,434.612 216.791,433.152   219.185,431.622 221.581,430.052 223.919,428.472 226.137,426.912 228.187,425.394 230.072,423.921 231.81,422.492 233.417,421.102   234.909,419.75 236.302,418.434 237.614,417.15 238.86,415.895 240.053,414.667 241.191,413.458 242.265,412.262 243.269,411.07   244.194,409.875 245.036,408.668 245.783,407.443 246.432,406.193 246.977,404.912 247.421,403.615 247.773,402.316   248.039,401.033 248.227,399.782 248.342,398.58 248.393,397.443 248.386,396.387 248.328,395.426 248.216,394.556 248.047,393.771   247.819,393.065 247.528,392.431 247.172,391.863 246.747,391.353 246.25,390.898 245.675,390.488 245.004,390.118 244.217,389.78   243.292,389.467 242.207,389.174 240.943,388.894 239.477,388.618 237.789,388.34 235.869,388.055 233.759,387.761 231.511,387.458   229.178,387.144 226.813,386.819 224.467,386.483 222.195,386.135 220.05,385.776 218.069,385.403 216.236,385.014 214.52,384.607   212.888,384.178 211.312,383.726 209.758,383.247 208.197,382.737 206.597,382.194 204.938,381.617 203.245,381.003   201.551,380.353 199.895,379.667 198.31,378.945 196.833,378.186 195.497,377.389 194.34,376.555 193.387,375.684 192.625,374.772   192.033,373.816 191.588,372.811 191.27,371.756 191.055,370.648 190.922,369.481 190.85,368.253 190.821,366.966 190.843,365.634   190.927,364.278 191.085,362.917 191.33,361.575 191.672,360.267 192.124,359.016 192.697,357.842 193.401,356.757 194.228,355.752   195.167,354.81 196.208,353.914 197.341,353.043 198.555,352.183 199.839,351.317 201.183,350.427 202.578,349.499 204.019,348.532   205.507,347.531 207.04,346.498 208.616,345.435 210.233,344.347 211.892,343.238 213.588,342.108 215.317,340.965 217.054,339.827   218.77,338.714 220.435,337.646 222.019,336.645 223.495,335.731 224.831,334.925 226,334.246 226.982,333.71 227.796,333.309   228.458,333.036 228.475,333.029 229.835,332.605 236.189,313.738 231.008,302.836 238.828,279.616 250.046,274.776   260.711,258.437 275.556,251.586 337.828,272.555 346.169,287.213 345.273,306.301 350.784,317.314 343.791,340.275   331.746,345.375 325.304,364.509 "
   id="polyline12"
   style="fill:#000000;stroke:none"
   transform="translate(0.01599817,0.72575061)" /><polygon
   points="335.01,303.923 258.826,278.27 271.293,258.769 338.034,280.704 "
   id="polygon18"
   style="fill:#ffffff;fill-opacity:1;stroke:none"
   transform="translate(0.01599817,0.72575061)" /></svg>