<?xml version="1.0" encoding="UTF-8" standalone="no"?>
<!-- Generator: Adobe Illustrator 13.0.0, SVG Export Plug-In  -->

<svg
   xmlns:dc="http://purl.org/dc/elements/1.1/"
   xmlns:cc="http://creativecommons.org/ns#"
   xmlns:rdf="http://www.w3.org/1999/02/22-rdf-syntax-ns#"
   xmlns:svg="http://www.w3.org/2000/svg"
   xmlns="http://www.w3.org/2000/svg"
   xmlns:sodipodi="http://sodipodi.sourceforge.net/DTD/sodipodi-0.dtd"
   xmlns:inkscape="http://www.inkscape.org/namespaces/inkscape"
   version="1.1"
   x="0px"
   y="0px"
   width="576"
   height="507.5"
   viewBox="-0.781 -0.08 576.53826 507.94375"
   enable-background="new -0.781 -0.08 576 506"
   xml:space="preserve"
   id="svg2"
   inkscape:version="0.48.1 "
   sodipodi:docname="A6.svg"
   inkscape:export-filename="C:\Documents and Settings\bertrand.bouteilles\Bureau\Panneaux\A - Route\1_danger\A6.png"
   inkscape:export-xdpi="150"
   inkscape:export-ydpi="150"><metadata
   id="metadata18"><rdf:RDF><cc:Work
       rdf:about=""><dc:format>image/svg+xml</dc:format><dc:type
         rdf:resource="http://purl.org/dc/dcmitype/StillImage" /><dc:title></dc:title></cc:Work></rdf:RDF></metadata><sodipodi:namedview
   pagecolor="#ffffff"
   bordercolor="#666666"
   borderopacity="1"
   objecttolerance="10"
   gridtolerance="10"
   guidetolerance="10"
   inkscape:pageopacity="0"
   inkscape:pageshadow="2"
   inkscape:window-width="1920"
   inkscape:window-height="1174"
   id="namedview16"
   showgrid="false"
   fit-margin-top="0.3"
   fit-margin-left="0.3"
   fit-margin-right="0.3"
   fit-margin-bottom="0.3"
   inkscape:zoom="0.64569469"
   inkscape:cx="100.33187"
   inkscape:cy="290.07769"
   inkscape:window-x="1276"
   inkscape:window-y="-4"
   inkscape:window-maximized="1"
   inkscape:current-layer="svg2"
   showguides="true"
   inkscape:guide-bbox="true" />
<defs
   id="defs4">
</defs>





<path
   inkscape:connector-curvature="0"
   d="M 4.6642489,460.12075 260.66925,16.707761 c 5.532,-9.5799996 15.754,-15.4819996 26.816,-15.4819996 11.063,0 21.284,5.902 26.815,15.4819996 L 570.30524,460.12075 c 5.531,9.58 5.531,21.384 0,30.964 -5.53,9.58 -15.753,15.482 -26.815,15.482 H 31.479249 c -11.062,0 -21.284,-5.902 -26.8150001,-15.482 -5.53099996,-9.58 -5.53099996,-21.384 0,-30.964 z"
   id="path6"
   style="fill:#ffffff;stroke:#000000;stroke-width:2;stroke-linecap:round;stroke-linejoin:round;stroke-miterlimit:4;stroke-opacity:1;stroke-dasharray:none" /><path
   inkscape:connector-curvature="0"
   d="M 31.390249,494.18175 H 543.58124 c 6.618,0 12.734,-3.531 16.044,-9.264 3.31,-5.731 3.31,-12.794 0,-18.525 L 303.52925,22.821761 c -3.31,-5.732 -9.425,-9.263 -16.044,-9.263 -6.619,0 -12.734,3.531 -16.043,9.263 L 15.346249,466.39275 c -3.31,5.731 -3.31,12.794 0,18.525 3.309,5.732 9.425,9.264 16.044,9.264 z"
   id="path8"
   style="fill:#FF0000;stroke:none;fill-opacity:1" /><polygon
   transform="translate(0.01624894,0.7257614)"
   points="511.296,456.299 63.642,456.299 287.469,68.62 "
   id="polygon10"
   style="fill:#ffffff;stroke:none" /><polygon
   transform="translate(0.01624894,0.7257614)"
   points="384.6,439.488 384.6,348.951 432.433,348.951 482.797,439.488 "
   id="polygon12"
   style="fill:#000000;stroke:none" /><polygon
   transform="translate(0.01624894,0.7257614)"
   points="140.777,354.462 86.156,444.547 190.432,443.511 191.279,353.674 162.543,320.889 312.133,200.327 334.239,228.315 329.818,231.544 334.977,239.079 191.279,353.674 190.545,354.259 "
   id="polygon14"
   style="fill:#000000;stroke:none" /><polyline
   transform="translate(0.01624894,0.7257614)"
   points="190.428,437.328   203.072,432.216 216.336,422.529 225.916,418.223 236.233,416.07 242.864,416.07 251.708,417.146 261.287,420.375 270.129,424.681   278.973,428.987 290.025,433.293 301.08,433.293 312.133,430.064 320.239,423.605 329.818,418.223 340.872,414.993 349.714,417.146   358.558,424.681 365.927,431.14 375.506,435.446 384.6,436.523 "
   id="polyline16"
   style="fill:none;stroke:#000000;stroke-width:6;stroke-linecap:round;stroke-linejoin:round;stroke-opacity:1" /><polyline
   transform="translate(0.01624894,0.7257614)"
   points="190.428,418.801   203.072,413.691 216.336,404.002 225.916,399.697 236.233,397.544 242.864,397.544 251.708,398.621 261.287,401.849   270.129,406.156 278.973,410.46 290.025,414.767 301.08,414.767 312.133,411.538 320.239,405.08 329.818,399.697 340.872,396.467   349.714,398.621 358.558,406.156 365.927,412.615 375.506,416.919 384.6,417.997 "
   id="polyline18"
   style="fill:none;stroke:#000000;stroke-width:6;stroke-linecap:round;stroke-linejoin:round;stroke-opacity:1" /><polyline
   transform="translate(0.01624894,0.7257614)"
   points="190.428,400.276   203.072,395.165 216.336,385.477 225.916,381.17 236.233,379.018 242.864,379.018 251.708,380.094 261.287,383.324 270.129,387.629   278.973,391.935 290.025,396.241 301.08,396.241 312.133,393.012 320.239,386.553 329.818,381.17 340.872,377.942 349.714,380.094   358.558,387.629 365.927,394.088 375.506,398.394 384.6,399.471 "
   id="polyline20"
   style="fill:none;stroke:#000000;stroke-width:6;stroke-linecap:round;stroke-linejoin:round;stroke-opacity:1" /><rect
   x="97.477623"
   y="381.43283"
   transform="matrix(0.77096816,-0.63687369,0.63687369,0.77096816,0,0)"
   width="14.475598"
   height="16.681688"
   id="rect22" /></svg>