<?xml version="1.0" encoding="UTF-8" standalone="no"?>
<!-- Generator: Adobe Illustrator 13.0.0, SVG Export Plug-In  -->

<svg
   xmlns:dc="http://purl.org/dc/elements/1.1/"
   xmlns:cc="http://creativecommons.org/ns#"
   xmlns:rdf="http://www.w3.org/1999/02/22-rdf-syntax-ns#"
   xmlns:svg="http://www.w3.org/2000/svg"
   xmlns="http://www.w3.org/2000/svg"
   xmlns:sodipodi="http://sodipodi.sourceforge.net/DTD/sodipodi-0.dtd"
   xmlns:inkscape="http://www.inkscape.org/namespaces/inkscape"
   version="1.1"
   x="0px"
   y="0px"
   width="576"
   height="507.5"
   viewBox="-0.781 -0.08 576.53826 507.94375"
   enable-background="new -0.781 -0.08 576 506"
   xml:space="preserve"
   id="svg2"
   inkscape:version="0.48.1 "
   sodipodi:docname="A7.svg"
   inkscape:export-filename="C:\Documents and Settings\bertrand.bouteilles\Bureau\Panneaux\A - Route\1_danger\A7.png"
   inkscape:export-xdpi="150"
   inkscape:export-ydpi="150"><metadata
   id="metadata18"><rdf:RDF><cc:Work
       rdf:about=""><dc:format>image/svg+xml</dc:format><dc:type
         rdf:resource="http://purl.org/dc/dcmitype/StillImage" /><dc:title></dc:title></cc:Work></rdf:RDF></metadata><sodipodi:namedview
   pagecolor="#ffffff"
   bordercolor="#666666"
   borderopacity="1"
   objecttolerance="10"
   gridtolerance="10"
   guidetolerance="10"
   inkscape:pageopacity="0"
   inkscape:pageshadow="2"
   inkscape:window-width="1920"
   inkscape:window-height="1174"
   id="namedview16"
   showgrid="false"
   fit-margin-top="0.3"
   fit-margin-left="0.3"
   fit-margin-right="0.3"
   fit-margin-bottom="0.3"
   inkscape:zoom="0.64569469"
   inkscape:cx="100.33187"
   inkscape:cy="290.07769"
   inkscape:window-x="1276"
   inkscape:window-y="-4"
   inkscape:window-maximized="1"
   inkscape:current-layer="svg2"
   showguides="true"
   inkscape:guide-bbox="true" />
<defs
   id="defs4">
</defs>





<path
   inkscape:connector-curvature="0"
   d="M 4.6641239,460.12075 260.66912,16.707756 c 5.532,-9.58 15.753,-15.4819999 26.816,-15.4819999 11.063,0 21.284,5.9019999 26.815,15.4819999 L 570.30511,460.12075 c 5.531,9.58 5.531,21.384 0,30.964 -5.53,9.58 -15.753,15.482 -26.815,15.482 H 31.480124 c -11.062,0 -21.284,-5.901 -26.8150001,-15.482 -5.53199993,-9.58 -5.53199993,-21.384 -0.001,-30.964 z"
   id="path6"
   style="fill:#ffffff;stroke:#000000;stroke-width:2;stroke-linecap:round;stroke-linejoin:round;stroke-miterlimit:4;stroke-opacity:1;stroke-dasharray:none" /><path
   inkscape:connector-curvature="0"
   d="M 31.390124,494.18075 H 543.58111 c 6.619,0 12.734,-3.53 16.044,-9.263 3.31,-5.731 3.31,-12.794 0,-18.525 L 303.52912,22.821756 c -3.31,-5.732 -9.425,-9.263 -16.043,-9.263 -6.619,0 -12.735,3.531 -16.044,9.263 L 15.345124,466.39275 c -3.309,5.732 -3.309,12.794 0,18.525 3.31,5.732 9.425,9.264 16.045,9.263 z"
   id="path8"
   style="fill:#FF0000;stroke:none;fill-opacity:1" /><polygon
   transform="translate(0.01612389,0.7257561)"
   points="511.296,456.299 63.642,456.299 287.469,68.62 "
   id="polygon10"
   style="fill:#ffffff;stroke:none" /><polygon
   transform="translate(0.01612389,0.7257561)"
   points="212.878,401.688 229.2,401.704 229.2,423.541 257.564,423.541 257.418,401.729 274.876,401.745 274.876,423.541 303.241,423.541 303.095,401.77 320.081,401.786 320.081,423.541 348.445,423.541 348.3,401.811 367.666,401.829 367.666,423.541 396.031,423.541 395.886,401.855 411.705,401.87 411.705,380.784 395.744,380.784 395.218,302.274 411.854,302.274 395.068,279.889 381.169,260.522 367.666,278.674 367.666,279.731 347.285,279.614 333.584,260.522 320.081,278.674 320.081,279.457 301.892,279.351 288.379,260.522 274.876,278.674 274.876,279.195 256.026,279.086 242.703,260.522 229.2,278.674 229.2,278.931 211.3,278.829 198.163,260.522 184.66,278.674 167.169,302.274 184.66,302.274 184.66,380.784 170.394,380.784 170.394,401.65 184.66,401.663 184.66,423.541 213.025,423.541 "
   id="polygon12"
   style="fill:#000000;stroke:none" /><polygon
   transform="translate(0.01612389,0.7257561)"
   points="348.159,380.784 367.666,380.784 367.666,302.274 347.633,302.274 "
   id="polygon14"
   style="fill:#ffffff;stroke:none" /><polygon
   transform="translate(0.01612389,0.7257561)"
   points="302.954,380.784 320.081,380.784 320.081,302.274 302.428,302.274 "
   id="polygon16"
   style="fill:#ffffff;stroke:none" /><polygon
   transform="translate(0.01612389,0.7257561)"
   points="257.278,380.784 274.876,380.784 274.876,302.274 256.752,302.274 "
   id="polygon18"
   style="fill:#ffffff;stroke:none" /><polygon
   transform="translate(0.01612389,0.7257561)"
   points="212.738,380.784 229.2,380.784 229.2,302.274 212.212,302.274 "
   id="polygon20"
   style="fill:#ffffff;stroke:none" /></svg>