<?xml version="1.0" encoding="UTF-8" standalone="no"?>
<!-- Generator: Adobe Illustrator 13.0.0, SVG Export Plug-In  -->

<svg
   xmlns:dc="http://purl.org/dc/elements/1.1/"
   xmlns:cc="http://creativecommons.org/ns#"
   xmlns:rdf="http://www.w3.org/1999/02/22-rdf-syntax-ns#"
   xmlns:svg="http://www.w3.org/2000/svg"
   xmlns="http://www.w3.org/2000/svg"
   xmlns:sodipodi="http://sodipodi.sourceforge.net/DTD/sodipodi-0.dtd"
   xmlns:inkscape="http://www.inkscape.org/namespaces/inkscape"
   version="1.1"
   x="0px"
   y="0px"
   width="576"
   height="507.5"
   viewBox="-0.781 -0.08 576.53826 507.94375"
   enable-background="new -0.781 -0.08 576 506"
   xml:space="preserve"
   id="svg2"
   inkscape:version="0.48.1 "
   sodipodi:docname="A8.svg"
   inkscape:export-filename="C:\Documents and Settings\bertrand.bouteilles\Bureau\Panneaux\A - Route\1_danger\A8.png"
   inkscape:export-xdpi="150"
   inkscape:export-ydpi="150"><metadata
   id="metadata18"><rdf:RDF><cc:Work
       rdf:about=""><dc:format>image/svg+xml</dc:format><dc:type
         rdf:resource="http://purl.org/dc/dcmitype/StillImage" /><dc:title></dc:title></cc:Work></rdf:RDF></metadata><sodipodi:namedview
   pagecolor="#ffffff"
   bordercolor="#666666"
   borderopacity="1"
   objecttolerance="10"
   gridtolerance="10"
   guidetolerance="10"
   inkscape:pageopacity="0"
   inkscape:pageshadow="2"
   inkscape:window-width="1920"
   inkscape:window-height="1174"
   id="namedview16"
   showgrid="false"
   fit-margin-top="0.3"
   fit-margin-left="0.3"
   fit-margin-right="0.3"
   fit-margin-bottom="0.3"
   inkscape:zoom="0.64569469"
   inkscape:cx="170.87018"
   inkscape:cy="290.07769"
   inkscape:window-x="1276"
   inkscape:window-y="-4"
   inkscape:window-maximized="1"
   inkscape:current-layer="svg2"
   showguides="true"
   inkscape:guide-bbox="true" />
<defs
   id="defs4">
</defs>





<path
   inkscape:connector-curvature="0"
   d="M 4.6642489,460.12075 260.66925,16.707756 c 5.532,-9.58 15.754,-15.4819999 26.816,-15.4819999 11.063,0 21.284,5.9019999 26.815,15.4819999 L 570.30524,460.12075 c 5.531,9.58 5.531,21.384 0,30.964 -5.53,9.58 -15.753,15.482 -26.815,15.482 H 31.479249 c -11.062,0 -21.284,-5.902 -26.8150001,-15.482 -5.53099996,-9.58 -5.53099996,-21.384 0,-30.964 z"
   id="path6"
   style="fill:#ffffff;stroke:#000000;stroke-width:2;stroke-linecap:round;stroke-linejoin:round;stroke-miterlimit:4;stroke-opacity:1;stroke-dasharray:none" /><path
   inkscape:connector-curvature="0"
   d="M 31.390249,494.18175 H 543.58124 c 6.618,0 12.734,-3.531 16.044,-9.264 3.31,-5.731 3.31,-12.794 0,-18.525 L 303.52925,22.821756 c -3.31,-5.732 -9.425,-9.263 -16.044,-9.263 -6.619,0 -12.734,3.531 -16.043,9.263 L 15.346249,466.39275 c -3.31,5.731 -3.31,12.794 0,18.525 3.309,5.732 9.425,9.264 16.044,9.264 z"
   id="path8"
   style="fill:#FF0000;stroke:none;fill-opacity:1" /><polygon
   transform="translate(0.01624902,0.7257561)"
   points="511.296,456.299 63.642,456.299 287.469,68.62 "
   id="polygon10"
   style="fill:#ffffff;stroke:none" /><path
   inkscape:connector-curvature="0"
   d="m 261.55125,336.87276 h -40.009 v -22.605 h -3.403 l -0.038,-1.117 -0.065,-7.453 0.15,-5.803 0.338,-4.408 0.496,-3.271 0.625,-2.392 0.724,-1.767 0.795,-1.4 0.839,-1.248 0.879,-1.138 0.917,-1.026 0.953,-0.914 0.988,-0.804 1.021,-0.69 1.052,-0.577 1.081,-0.464 1.109,-0.35 1.13,-0.24 1.145,-0.133 1.152,-0.029 1.154,0.069 1.147,0.167 1.136,0.259 1.117,0.349 1.093,0.432 1.072,0.504 1.057,0.564 1.047,0.611 1.042,0.646 1.043,0.667 1.051,0.675 1.062,0.671 1.077,0.654 1.091,0.625 1.102,0.583 1.108,0.528 1.111,0.461 1.11,0.382 1.106,0.29 1.1,0.186 1.088,0.071 1.074,-0.04 1.057,-0.146 1.038,-0.247 1.015,-0.343 0.991,-0.433 0.961,-0.519 0.931,-0.597 0.897,-0.672 0.867,-0.739 0.838,-0.803 0.813,-0.857 0.79,-0.908 0.771,-0.951 0.753,-0.99 0.739,-1.021 0.729,-1.042 0.724,-1.035 0.727,-0.995 0.735,-0.92 0.75,-0.814 0.772,-0.673 0.8,-0.501 0.836,-0.294 0.875,-0.065 0.908,0.133 0.931,0.294 0.947,0.415 0.952,0.497 0.948,0.537 0.936,0.54 0.913,0.502 0.886,0.432 0.865,0.352 0.855,0.268 0.856,0.182 0.868,0.091 0.891,-0.002 0.924,-0.098 0.967,-0.196 1.019,-0.299 1.063,-0.401 1.096,-0.507 1.119,-0.61 1.134,-0.716 1.137,-0.822 1.128,-0.93 1.11,-1.037 1.083,-1.143 1.046,-1.238 1.002,-1.319 0.949,-1.39 0.888,-1.445 0.818,-1.487 0.741,-1.518 0.655,-1.533 0.567,-1.533 0.505,-1.504 0.475,-1.439 0.475,-1.343 0.507,-1.213 0.572,-1.05 0.667,-0.854 0.794,-0.625 0.943,-0.374 1.077,-0.154 1.187,0.025 1.271,0.161 1.33,0.255 1.365,0.307 1.375,0.317 1.36,0.286 1.324,0.218 1.283,0.146 1.241,0.074 1.197,0.004 1.151,-0.064 1.10499,-0.131 1.057,-0.197 1.006,-0.262 0.959,-0.326 0.927,-0.398 0.912,-0.479 0.918,-0.567 0.94,-0.666 0.981,-0.773 1.042,-0.889 1.121,-1.014 1.211,-1.145 1.276,-1.268 1.314,-1.38 1.32,-1.484 1.297,-1.576 1.242,-1.66 1.157,-1.731 1.043,-1.793 0.903,-1.845 0.766,-1.883 0.633,-1.907 0.509,-1.917 0.391,-1.913 0.278,-1.895 0.174,-1.863 0.075,-1.817 -0.018,-1.762 -0.118,-1.712 -0.226,-1.673 -0.342,-1.643 -0.466,-1.624 -0.598,-1.614 -0.738,-1.615 -0.886,-1.625 -1.038,-1.639 -1.168,-1.637 -1.27,-1.608 -1.346,-1.557 -1.395,-1.48 -1.417,-1.38 -1.412,-1.255 -1.38,-1.106 -1.323,-0.945 -1.26,-0.811 -1.189,-0.715 -1.114,-0.659 -1.032,-0.64 -0.946,-0.662 -0.853,-0.72 -0.755,-0.819 -0.654,-0.944 -0.566,-1.05 -0.494,-1.127 -0.43799,-1.175 -0.396,-1.193 -0.369,-1.181 -0.358,-1.139 -0.364,-1.068 -0.383,-0.972 -0.41,-0.875 -0.443,-0.781 -0.482,-0.691 -0.529,-0.605 -0.581,-0.522 -0.641,-0.444 -0.705,-0.369 -0.774,-0.298 -0.844,-0.226 -0.906,-0.154 -0.966,-0.082 -1.022,-0.01 -1.073,0.063 -1.121,0.136 -1.166,0.21 -1.206,0.285 -1.236,0.366 -1.259,0.453 -1.271,0.546 -1.275,0.645 -1.271,0.753 -1.256,0.865 -1.232,0.984 -1.203,1.101 -1.17,1.178 -1.142,1.204 -1.111,1.181 -1.084,1.108 -1.057,0.986 -1.03,0.813 -1.006,0.591 -0.981,0.336 -0.957,0.109 -0.931,-0.074 -0.905,-0.21 -0.879,-0.303 -0.852,-0.352 -0.823,-0.354 -0.794,-0.314 -0.767,-0.236 -0.749,-0.159 -0.743,-0.089 -0.75,-0.028 -0.768,0.025 -0.797,0.07 -0.84,0.106 -0.893,0.134 -0.954,0.156 -1.004,0.183 -1.037,0.216 -1.055,0.256 -1.057,0.303 -1.043,0.357 -1.011,0.418 -0.965,0.485 -0.906,0.558 -0.844,0.632 -0.783,0.704 -0.723,0.774 -0.664,0.845 -0.605,0.913 -0.546,0.981 -0.49,1.047 -0.437,1.106 -0.401,1.133 -0.387,1.12 -0.395,1.068 -0.422,0.977 -0.471,0.847 -0.542,0.678 -0.632,0.468 -0.74,0.236 -0.839,0.039 -0.928,-0.11 -1.003,-0.207 -1.067,-0.254 -1.119,-0.25 -1.159,-0.198 -1.186,-0.094 -1.201,0.048 -1.207,0.182 -1.201,0.296 -1.186,0.392 -1.162,0.467 -1.126,0.522 -1.08,0.559 -1.025,0.576 -0.963,0.58 -0.911,0.586 -0.869,0.606 -0.842,0.637 -0.826,0.678 -0.823,0.73 -0.832,0.794 -0.854,0.868 -0.884,0.95 -0.904,1.025 -0.908,1.09 -0.898,1.145 -0.872,1.189 -0.832,1.223 -0.776,1.247 -0.706,1.26 -0.624,1.265 -0.537,1.27 -0.453,1.274 -0.369,1.281 -0.284,1.288 -0.201,1.297 -0.118,1.307 -0.035,1.317 0.044,1.327 0.101,1.333 0.129,1.334 0.134,1.328 0.11,1.316 0.063,1.299 -0.014,1.276 -0.115,1.247 -0.238,1.214 -0.359,1.183 -0.473,1.155 -0.58,1.132 -0.68,1.112 -0.772,1.095 -0.858,1.082 -0.936,1.072 -1.005,1.066 -1.059,1.06 -1.093,1.057 -1.11,1.053 -1.108,1.05 -1.089,1.047 -1.051,1.046 -0.996,1.046 -0.924,1.048 -0.857,1.062 -0.792,1.088 -0.733,1.129 -0.678,1.181 -0.63,1.246 -0.586,1.326 -0.547,1.419 -0.512,1.521 -0.472,1.614 -0.427,1.699 -0.377,1.772 -0.321,1.836 -0.258,1.888 -0.191,1.93 -0.12,1.96 -0.033,2.024 0.096,2.291 0.274,2.809 0.503,3.57 0.784,4.582 1.113,5.842 1.493,7.35 1.109,5.249 h -6.74 v 22.605 h -26.44 c -7.118,15.4 -7.506,33.067 -1.071,48.765 h -16.783 v 12.708 h 23.309 c -4.744,2.396 -7.667,7.324 -7.495,12.636 0.172,5.312 3.409,10.04099 8.298,12.12499 h -52.991 l 0.262,9.962 h 303.59499 v -9.962 h -103.466 c 5.209,-1.222 9.607,-4.69 12.011,-9.47199 2.401,-4.78 2.561,-10.381 0.432,-15.289 h 35.09 v -40.305 h -25.392 v -24.722 h 30.748 v -11.385 h -58.348 v 14.938 h -51.92099 c -0.061,-3.203 -0.154,-6.404 -0.283,-9.605 -0.172,-4.291 -3.746,-7.657 -8.041,-7.57 -4.294,0.086 -7.73,3.592 -7.73,7.887 v 9.287 z"
   id="path12"
   style="fill:#000000;stroke:none" /><path
   style="fill:#ffffff;stroke:#000000;stroke-width:0.17640001;stroke-linecap:round;stroke-linejoin:round"
   inkscape:connector-curvature="0"
   d="m 287.38925,423.10575 c 5.209,-1.222 9.607,-4.69 12.01,-9.47199 2.402,-4.78 2.561,-10.381 0.433,-15.289 h 14.465 c -2.128,4.908 -1.97,10.509 0.433,15.289 2.402,4.78099 6.802,8.24999 12.01,9.47199 h -39.351 z"
   id="path14" /><path
   style="fill:#ffffff;stroke:#000000;stroke-width:0.17640001;stroke-linecap:round;stroke-linejoin:round"
   inkscape:connector-curvature="0"
   d="m 240.68825,423.10575 c 5.208,-1.222 9.608,-4.69 12.01,-9.47199 2.402,-4.78 2.561,-10.381 0.433,-15.289 h 13.569 c -2.128,4.908 -1.97,10.509 0.433,15.289 2.402,4.78099 6.801,8.24999 12.01,9.47199 h -38.455"
   id="path16" /><path
   style="fill:#ffffff;stroke:#000000;stroke-width:0.17640001;stroke-linecap:round;stroke-linejoin:round"
   inkscape:connector-curvature="0"
   d="m 232.44225,423.10575 h -34.143 c 4.889,-2.084 8.125,-6.81299 8.297,-12.12499 0.172,-5.312 -2.751,-10.24 -7.496,-12.636 h 20.898 c -2.128,4.908 -1.97,10.509 0.432,15.289 2.404,4.78199 6.803,8.25099 12.012,9.47199 z"
   id="path18" /></svg>