<?xml version="1.0" encoding="UTF-8" standalone="no"?>
<!-- Generator: Adobe Illustrator 13.0.0, SVG Export Plug-In  -->

<svg
   xmlns:dc="http://purl.org/dc/elements/1.1/"
   xmlns:cc="http://creativecommons.org/ns#"
   xmlns:rdf="http://www.w3.org/1999/02/22-rdf-syntax-ns#"
   xmlns:svg="http://www.w3.org/2000/svg"
   xmlns="http://www.w3.org/2000/svg"
   xmlns:sodipodi="http://sodipodi.sourceforge.net/DTD/sodipodi-0.dtd"
   xmlns:inkscape="http://www.inkscape.org/namespaces/inkscape"
   version="1.1"
   x="0px"
   y="0px"
   width="576"
   height="507.5"
   viewBox="-0.781 -0.08 576.53826 507.94375"
   enable-background="new -0.781 -0.08 576 506"
   xml:space="preserve"
   id="svg2"
   inkscape:version="0.48.1 "
   sodipodi:docname="A9.svg"
   inkscape:export-filename="C:\Documents and Settings\bertrand.bouteilles\Bureau\Panneaux\A - Route\1_danger\A9.png"
   inkscape:export-xdpi="150"
   inkscape:export-ydpi="150"><metadata
   id="metadata18"><rdf:RDF><cc:Work
       rdf:about=""><dc:format>image/svg+xml</dc:format><dc:type
         rdf:resource="http://purl.org/dc/dcmitype/StillImage" /><dc:title></dc:title></cc:Work></rdf:RDF></metadata><sodipodi:namedview
   pagecolor="#ffffff"
   bordercolor="#666666"
   borderopacity="1"
   objecttolerance="10"
   gridtolerance="10"
   guidetolerance="10"
   inkscape:pageopacity="0"
   inkscape:pageshadow="2"
   inkscape:window-width="1920"
   inkscape:window-height="1174"
   id="namedview16"
   showgrid="false"
   fit-margin-top="0.3"
   fit-margin-left="0.3"
   fit-margin-right="0.3"
   fit-margin-bottom="0.3"
   inkscape:zoom="0.64569469"
   inkscape:cx="100.33187"
   inkscape:cy="290.07769"
   inkscape:window-x="1276"
   inkscape:window-y="-4"
   inkscape:window-maximized="1"
   inkscape:current-layer="svg2"
   showguides="true"
   inkscape:guide-bbox="true" />
<defs
   id="defs4">
</defs>





<path
   inkscape:connector-curvature="0"
   d="M 4.6642489,460.12075 260.66925,16.707756 c 5.532,-9.58 15.754,-15.4819999 26.816,-15.4819999 11.063,0 21.284,5.9019999 26.815,15.4819999 L 570.30524,460.12075 c 5.531,9.58 5.531,21.384 0,30.964 -5.53,9.58 -15.753,15.482 -26.815,15.482 H 31.479249 c -11.062,0 -21.284,-5.902 -26.8150001,-15.482 -5.53099996,-9.58 -5.53099996,-21.384 0,-30.964 z"
   id="path6"
   style="fill:#ffffff;stroke:#000000;stroke-width:2;stroke-linecap:round;stroke-linejoin:round;stroke-miterlimit:4;stroke-opacity:1;stroke-dasharray:none" /><path
   inkscape:connector-curvature="0"
   d="M 31.390249,494.18175 H 543.58124 c 6.618,0 12.734,-3.531 16.044,-9.264 3.31,-5.731 3.31,-12.794 0,-18.525 L 303.52925,22.821756 c -3.31,-5.732 -9.425,-9.263 -16.044,-9.263 -6.619,0 -12.734,3.531 -16.043,9.263 L 15.346249,466.39275 c -3.31,5.731 -3.31,12.794 0,18.525 3.309,5.732 9.425,9.264 16.044,9.264 z"
   id="path8"
   style="fill:#FF0000;stroke:none" /><polygon
   transform="translate(0.01624902,0.7257561)"
   points="511.296,456.299 63.642,456.299 287.469,68.62 "
   id="polygon10"
   style="fill:#ffffff;stroke:none" /><polyline
   transform="translate(0.01624902,0.7257561)"
   points="177.469,272.17   262.468,272.17 398.469,272.17 "
   id="polyline12"
   style="fill:none;stroke:#000000;stroke-width:7;stroke-linecap:round;stroke-linejoin:round;stroke-opacity:1" /><polygon
   transform="translate(0.01624902,0.7257561)"
   points="290.469,322.17 256.469,273.17 265.469,271.17 298.469,322.17 281.469,346.17 290.469,348.17 291.469,357.17 242.469,357.17 242.469,349.17 258.469,348.17 "
   id="polygon14"
   style="fill:#000000;stroke:none" /><polygon
   transform="translate(0.01624902,0.7257561)"
   points="132.469,405.17 132.469,400.17 152.469,358.17 155.469,354.17 415.469,354.17 441.469,402.17 441.469,419.17 436.469,423.17 137.469,423.17 133.469,421.17 "
   id="polygon16"
   style="fill:#000000;stroke:none" /><polyline
   transform="translate(0.01624902,0.7257561)"
   points="  159.135,364.17 161.135,362.837 415.802,362.17 417.802,364.17 431.136,395.503 431.136,398.17 429.136,400.17 427.136,400.837   151.135,402.17 147.802,399.503 145.802,398.17 145.802,396.17 156.469,364.837 "
   id="polyline18"
   style="fill:#ffffff;stroke:none" /><polyline
   style="fill:none;stroke:#000000;stroke-width:0.17640001;stroke-linecap:round;stroke-linejoin:round"
   transform="translate(0.01624902,0.7257561)"
   points="  172.469,356.17 171.135,362.17 173.802,362.837 "
   id="polyline20" /><rect
   x="173.81824"
   y="363.56274"
   width="8.6669998"
   height="39.333"
   id="rect22"
   style="fill:#000000;stroke:#000000;stroke-width:0.17640001;stroke-linecap:round;stroke-linejoin:round;stroke-opacity:1" /><polygon
   style="stroke:#000000;stroke-width:0.17640001;stroke-linecap:round;stroke-linejoin:round"
   transform="translate(0.01624902,0.7257561)"
   points="174.469,367.503 171.135,362.17 186.469,361.503 183.135,366.17 "
   id="polygon24" /><polygon
   style="stroke:#000000;stroke-width:0.17640001;stroke-linecap:round;stroke-linejoin:round"
   transform="translate(0.01624902,0.7257561)"
   points="186.469,403.503 170.469,404.17 173.802,396.837 182.469,397.503 "
   id="polygon26" /><rect
   x="260.81824"
   y="363.22974"
   width="8.6669998"
   height="39.333"
   id="rect28"
   style="fill:#000000;stroke:#000000;stroke-width:0.17640001;stroke-linecap:round;stroke-linejoin:round;stroke-opacity:1" /><polygon
   style="stroke:#000000;stroke-width:0.17640001;stroke-linecap:round;stroke-linejoin:round"
   transform="translate(0.01624902,0.7257561)"
   points="261.469,367.17 258.135,361.837 273.469,361.17 270.135,365.837 "
   id="polygon30" /><polygon
   style="stroke:#000000;stroke-width:0.17640001;stroke-linecap:round;stroke-linejoin:round"
   transform="translate(0.01624902,0.7257561)"
   points="273.469,403.17 257.469,403.837 260.802,396.504 269.469,397.17 "
   id="polygon32" /><rect
   x="305.48523"
   y="363.89673"
   width="8.6660004"
   height="39.333"
   id="rect34"
   style="fill:#000000;stroke:#000000;stroke-width:0.17640001;stroke-linecap:round;stroke-linejoin:round;stroke-opacity:1" /><polygon
   style="stroke:#000000;stroke-width:0.17640001;stroke-linecap:round;stroke-linejoin:round"
   transform="translate(0.01624902,0.7257561)"
   points="306.135,367.837 302.802,362.504 318.135,361.837 314.802,366.504 "
   id="polygon36" /><polygon
   style="stroke:#000000;stroke-width:0.17640001;stroke-linecap:round;stroke-linejoin:round"
   transform="translate(0.01624902,0.7257561)"
   points="318.135,403.837 302.135,404.504 305.469,397.171 314.135,397.837 "
   id="polygon38" /><rect
   style="stroke:#000000;stroke-width:0.17640001;stroke-linecap:round;stroke-linejoin:round"
   x="393.48523"
   y="363.89575"
   width="8.6660004"
   height="39.333"
   id="rect40" /><polygon
   transform="translate(0.01624902,0.7257561)"
   points="394.135,367.836 390.802,362.503 406.135,361.836 402.802,366.503 "
   id="polygon42"
   style="fill:#000000;stroke:#000000;stroke-width:0.17640001;stroke-linecap:round;stroke-linejoin:round;stroke-opacity:1" /><polygon
   style="stroke:#000000;stroke-width:0.17640001;stroke-linecap:round;stroke-linejoin:round"
   transform="translate(0.01624902,0.7257561)"
   points="406.135,403.836 390.135,404.503 393.469,397.17 402.135,397.836 "
   id="polygon44" /><ellipse
   sodipodi:ry="10.333"
   sodipodi:rx="10.667"
   sodipodi:cy="418.504"
   sodipodi:cx="183.802"
   transform="translate(0.01624902,0.7257561)"
   cx="183.802"
   cy="418.504"
   rx="10.667"
   ry="10.333"
   id="ellipse46"
   style="fill:#000000;stroke:#000000;stroke-width:7;stroke-linecap:round;stroke-linejoin:round;stroke-opacity:1" /><ellipse
   sodipodi:ry="10.333"
   sodipodi:rx="10.666"
   sodipodi:cy="419.17099"
   sodipodi:cx="216.13499"
   transform="matrix(0.1146,0.99339999,-0.99339999,0.1146,607.80214,157.16556)"
   cx="216.13499"
   cy="419.17099"
   rx="10.666"
   ry="10.333"
   id="ellipse48"
   style="fill:#000000;stroke:#000000;stroke-width:7;stroke-linecap:round;stroke-linejoin:round;stroke-opacity:1" /><ellipse
   sodipodi:ry="10.333"
   sodipodi:rx="10.666"
   sodipodi:cy="418.504"
   sodipodi:cx="361.80099"
   transform="matrix(0.1146,0.99339999,-0.99339999,0.1146,736.10974,11.858856)"
   cx="361.80099"
   cy="418.504"
   rx="10.666"
   ry="10.333"
   id="ellipse50"
   style="fill:#000000;stroke:#000000;stroke-width:7;stroke-linecap:round;stroke-linejoin:round;stroke-opacity:1" /><ellipse
   sodipodi:ry="10.333"
   sodipodi:rx="10.666"
   sodipodi:cy="419.17099"
   sodipodi:cx="391.80099"
   transform="matrix(0.1146,0.99339999,-0.99339999,0.1146,763.33484,-17.353044)"
   cx="391.80099"
   cy="419.17099"
   rx="10.666"
   ry="10.333"
   id="ellipse52"
   style="fill:#000000;stroke:#000000;stroke-width:7;stroke-linecap:round;stroke-linejoin:round;stroke-opacity:1" /><line
   x1="81.485252"
   y1="434.22974"
   x2="495.48523"
   y2="434.22974"
   id="line54"
   style="fill:none;stroke:#000000;stroke-width:7;stroke-linecap:round;stroke-linejoin:round;stroke-opacity:1" /><polygon
   style="stroke:#000000;stroke-width:0.17640001;stroke-linecap:round;stroke-linejoin:round"
   transform="translate(0.01624902,0.7257561)"
   points="420.276,355.879 422.418,358.483 439.519,395.901 441.818,400.565 441.007,402.702 438.857,404.247 414.376,354.946 "
   id="polygon56" /></svg>