<?xml version="1.0" encoding="UTF-8" standalone="no"?>
<!-- Generator: Adobe Illustrator 13.0.0, SVG Export Plug-In  -->

<svg
   xmlns:dc="http://purl.org/dc/elements/1.1/"
   xmlns:cc="http://creativecommons.org/ns#"
   xmlns:rdf="http://www.w3.org/1999/02/22-rdf-syntax-ns#"
   xmlns:svg="http://www.w3.org/2000/svg"
   xmlns="http://www.w3.org/2000/svg"
   xmlns:sodipodi="http://sodipodi.sourceforge.net/DTD/sodipodi-0.dtd"
   xmlns:inkscape="http://www.inkscape.org/namespaces/inkscape"
   version="1.1"
   x="0px"
   y="0px"
   width="576.53827"
   height="507.94376"
   viewBox="-0.781 -0.08 576.53826 507.94375"
   enable-background="new -0.781 -0.08 576 506"
   xml:space="preserve"
   id="svg2"
   inkscape:version="0.48.1 "
   sodipodi:docname="AB1.svg"
   inkscape:export-filename="C:\Documents and Settings\bertrand.bouteilles\Bureau\Panneaux\A - Route\2_intersection-priorite\AB1.png"
   inkscape:export-xdpi="150"
   inkscape:export-ydpi="150"><metadata
   id="metadata18"><rdf:RDF><cc:Work
       rdf:about=""><dc:format>image/svg+xml</dc:format><dc:type
         rdf:resource="http://purl.org/dc/dcmitype/StillImage" /><dc:title></dc:title></cc:Work></rdf:RDF></metadata><sodipodi:namedview
   pagecolor="#ffffff"
   bordercolor="#666666"
   borderopacity="1"
   objecttolerance="10"
   gridtolerance="10"
   guidetolerance="10"
   inkscape:pageopacity="0"
   inkscape:pageshadow="2"
   inkscape:window-width="1920"
   inkscape:window-height="1174"
   id="namedview16"
   showgrid="false"
   fit-margin-top="0.3"
   fit-margin-left="0.3"
   fit-margin-right="0.3"
   fit-margin-bottom="0.3"
   inkscape:zoom="0.64569469"
   inkscape:cx="100.33187"
   inkscape:cy="290.07769"
   inkscape:window-x="1276"
   inkscape:window-y="-4"
   inkscape:window-maximized="1"
   inkscape:current-layer="svg2"
   showguides="true"
   inkscape:guide-bbox="true" />
<defs
   id="defs4">
</defs>





<path
   inkscape:connector-curvature="0"
   d="M 4.663749,460.12175 260.66975,16.707755 c 5.531,-9.58 15.753,-15.482 26.815,-15.482 11.063,0 21.284,5.902 26.815,15.482 L 570.30474,460.12175 c 5.531,9.58 5.531,21.383 0,30.964 -5.531,9.579 -15.753,15.481 -26.815,15.481 H 31.479749 c -11.062,0 -21.284,-5.902 -26.815,-15.481 -5.53100003,-9.581 -5.53200003,-21.384 -10e-4,-30.964 z"
   id="path6"
   style="fill:#ffffff;stroke:#000000;stroke-width:2;stroke-linecap:round;stroke-linejoin:round;stroke-miterlimit:4;stroke-opacity:1;stroke-dasharray:none" /><path
   style="fill:#ff0000;stroke:none;stroke-width:0.17640001000000000;stroke-linecap:round;stroke-linejoin:round;fill-opacity:1"
   inkscape:connector-curvature="0"
   d="M 559.62374,466.39275 303.52875,22.822755 c -3.31,-5.732 -9.425,-9.263 -16.044,-9.263 -6.619,0 -12.734,3.531 -16.044,9.263 L 15.344749,466.39275 c -3.31,5.732 -3.309,12.794 0,18.526 3.31,5.731 9.425,9.263 16.044,9.263 H 543.57974 c 6.619,0 12.734,-3.531 16.044,-9.263 3.31,-5.732 3.31,-12.794 0,-18.526 z"
   id="path8" /><polygon
   style="fill:#ffffff;stroke:none;stroke-width:0.17640001000000000;stroke-linecap:round;stroke-linejoin:round"
   transform="translate(0.42774897,1.137755)"
   points="510.884,455.888 63.23,455.888 287.057,68.208 "
   id="polygon10" /><polyline
   style="stroke:none;stroke-width:0.17640001000000000;stroke-linecap:round;stroke-linejoin:round;fill:#000000"
   transform="translate(0.42774897,1.137755)"
   points="287.057,314.667   217.274,246.313 195.668,268.37 264.999,336.281 197.087,405.612 219.145,427.219 287.057,357.888 354.969,427.219 377.026,405.612   309.114,336.281 378.445,268.37 356.839,246.313 287.057,314.667 "
   id="polyline12" /></svg>