<?xml version="1.0" encoding="UTF-8" standalone="no"?>
<!-- Generator: Adobe Illustrator 16.0.2, SVG Export Plug-In . SVG Version: 6.00 Build 0)  -->

<svg
   xmlns:dc="http://purl.org/dc/elements/1.1/"
   xmlns:cc="http://creativecommons.org/ns#"
   xmlns:rdf="http://www.w3.org/1999/02/22-rdf-syntax-ns#"
   xmlns:svg="http://www.w3.org/2000/svg"
   xmlns="http://www.w3.org/2000/svg"
   xmlns:sodipodi="http://sodipodi.sourceforge.net/DTD/sodipodi-0.dtd"
   xmlns:inkscape="http://www.inkscape.org/namespaces/inkscape"
   version="1.1"
   id="svg2"
   sodipodi:docname="AB3a.svg"
   inkscape:version="0.48.1 "
   x="0px"
   y="0px"
   width="576.875px"
   height="619.557px"
   viewBox="0 0 576.875 619.557"
   style="enable-background:new 0 0 576.875 619.557;"
   xml:space="preserve"
   inkscape:export-filename="C:\Documents and Settings\bertrand.bouteilles\Bureau\Panneaux\A - Route\2_intersection-priorite\AB3a.png"
   inkscape:export-xdpi="150"
   inkscape:export-ydpi="150"><metadata
   id="metadata48"><rdf:RDF><cc:Work
       rdf:about=""><dc:format>image/svg+xml</dc:format><dc:type
         rdf:resource="http://purl.org/dc/dcmitype/StillImage" /><dc:title></dc:title></cc:Work></rdf:RDF></metadata><defs
   id="defs46" />
<sodipodi:namedview
   id="namedview42"
   inkscape:current-layer="svg2"
   inkscape:window-y="0"
   inkscape:window-x="1287"
   fit-margin-bottom="0.2"
   fit-margin-right="0.2"
   inkscape:window-height="964"
   inkscape:window-width="1280"
   inkscape:pageshadow="2"
   inkscape:pageopacity="0"
   borderopacity="1"
   inkscape:cy="278.28015"
   fit-margin-left="0.2"
   bordercolor="#666666"
   pagecolor="#ffffff"
   showgrid="false"
   inkscape:cx="301.03613"
   inkscape:zoom="1.011377"
   guidetolerance="10"
   fit-margin-top="0.2"
   objecttolerance="10"
   gridtolerance="10"
   inkscape:window-maximized="1">
	</sodipodi:namedview>
<path
   id="path8"
   inkscape:connector-curvature="0"
   style="fill:#FFFFFF;stroke:#000000;stroke-width:2;stroke-linecap:round;stroke-linejoin:round;stroke-miterlimit:4;stroke-dasharray:none"
   d="  M4.674,47.865l256.011,443.423c5.531,9.58,15.754,15.482,26.816,15.482c11.063,0,21.283-5.902,26.815-15.482L570.327,47.865  c5.531-9.578,5.531-21.384,0-30.964c-5.531-9.581-15.752-15.481-26.814-15.481H31.491c-11.063,0-21.285,5.899-26.816,15.48  C-0.855,26.481-0.856,38.285,4.674,47.865z" />
<path
   id="path10"
   inkscape:connector-curvature="0"
   style="fill:#ff0000"
   d="M559.648,41.594L303.546,485.175  c-3.312,5.73-9.425,9.265-16.044,9.265s-12.734-3.531-16.044-9.265L15.356,41.594c-3.31-5.731-3.31-12.794,0-18.525  c3.31-5.73,9.425-9.264,16.044-9.264h512.204c6.618,0,12.733,3.531,16.046,9.265C562.957,28.8,562.957,35.862,559.648,41.594z" />
<polygon
   id="polygon40"
   style="fill:#FFFFFF;"
   points="95.758,69.488 287.502,401.597 479.246,69.488 " />
<path
   id="path6"
   inkscape:connector-curvature="0"
   style="fill:#FFFFFF;stroke:#000000;stroke-width:2;stroke-linecap:round;stroke-linejoin:round;stroke-miterlimit:4;stroke-dasharray:none"
   d="  M148.441,605.106v-81.972c0-3.434,1.952-6.727,5.426-9.152c3.474-2.427,8.187-3.791,13.1-3.791h240.844  c4.914,0,9.625,1.364,13.101,3.791c3.477,2.429,5.428,5.722,5.428,9.152v81.972c0,3.436-1.951,6.727-5.428,9.152  c-3.476,2.429-8.187,3.791-13.101,3.791H166.968c-4.914,0-9.626-1.362-13.1-3.791C150.394,611.831,148.441,608.541,148.441,605.106  L148.441,605.106z" />
<g
   id="g8"
   transform="translate(-51.415053,107.77386)">
	<rect
   x="155.978"
   y="522.79498"
   style="fill:none"
   width="260.87"
   height="86.016998"
   id="rect10" />
	
	
	
	
	
	
	
	
	
	
	
	
	
	
<text
   xml:space="preserve"
   style="font-size:40px;font-style:normal;font-variant:normal;font-weight:normal;font-stretch:normal;line-height:110.00000238%;letter-spacing:0px;word-spacing:0px;fill:#000000;fill-opacity:1;stroke:none;font-family:Caracteres L1;-inkscape-font-specification:Caracteres L1"
   x="338.75867"
   y="451.33286"
   id="text3025"
   sodipodi:linespacing="110%"><tspan
     sodipodi:role="line"
     id="tspan3027"
     x="340.75867"
     y="451.33286"
     style="font-size:48px;font-style:normal;font-variant:normal;font-weight:normal;font-stretch:normal;text-align:center;line-height:110.00000238%;letter-spacing:4px;word-spacing:0px;text-anchor:middle;font-family:Caracteres L1;-inkscape-font-specification:Caracteres L1">CéDEZ LE</tspan><tspan
     sodipodi:role="line"
     x="340.75867"
     y="504.13284"
     id="tspan3029"
     style="font-size:48px;font-style:normal;font-variant:normal;font-weight:normal;font-stretch:normal;text-align:center;line-height:110.00000238%;letter-spacing:4px;word-spacing:0px;text-anchor:middle;font-family:Caracteres L1;-inkscape-font-specification:Caracteres L1">PASSAGE</tspan></text>


</g>

</svg>