<?xml version="1.0" encoding="UTF-8" standalone="no"?>
<!-- Generator: Adobe Illustrator 16.0.2, SVG Export Plug-In . SVG Version: 6.00 Build 0)  -->

<svg
   xmlns:dc="http://purl.org/dc/elements/1.1/"
   xmlns:cc="http://creativecommons.org/ns#"
   xmlns:rdf="http://www.w3.org/1999/02/22-rdf-syntax-ns#"
   xmlns:svg="http://www.w3.org/2000/svg"
   xmlns="http://www.w3.org/2000/svg"
   xmlns:sodipodi="http://sodipodi.sourceforge.net/DTD/sodipodi-0.dtd"
   xmlns:inkscape="http://www.inkscape.org/namespaces/inkscape"
   version="1.1"
   id="svg2"
   sodipodi:docname="AB3b.svg"
   inkscape:version="0.48.1 "
   x="0px"
   y="0px"
   width="576.473px"
   height="607.094px"
   viewBox="0 0 576.473 607.094"
   style="enable-background:new 0 0 576.473 607.094;"
   xml:space="preserve"
   inkscape:export-filename="C:\Documents and Settings\bertrand.bouteilles\Bureau\Panneaux\A - Route\2_intersection-priorite\AB3b.png"
   inkscape:export-xdpi="150"
   inkscape:export-ydpi="150"><metadata
   id="metadata47"><rdf:RDF><cc:Work
       rdf:about=""><dc:format>image/svg+xml</dc:format><dc:type
         rdf:resource="http://purl.org/dc/dcmitype/StillImage" /><dc:title></dc:title></cc:Work></rdf:RDF></metadata><defs
   id="defs45" />
<sodipodi:namedview
   id="namedview22"
   inkscape:window-maximized="1"
   guidetolerance="10"
   objecttolerance="10"
   fit-margin-left="0"
   inkscape:cy="255.87885"
   gridtolerance="10"
   borderopacity="1"
   showgrid="false"
   inkscape:cx="436.0187"
   bordercolor="#666666"
   inkscape:zoom="1.4259819"
   pagecolor="#ffffff"
   fit-margin-top="0"
   inkscape:current-layer="svg2"
   inkscape:window-y="-4"
   inkscape:window-x="1276"
   fit-margin-bottom="0"
   fit-margin-right="0"
   inkscape:window-height="1174"
   inkscape:window-width="1920"
   inkscape:pageshadow="2"
   inkscape:pageopacity="0">
	</sodipodi:namedview>
<path
   id="path6"
   inkscape:connector-curvature="0"
   style="fill:#FFFFFF;stroke:#000000;stroke-width:2.00000002;stroke-linecap:round;stroke-linejoin:round;stroke-miterlimit:4;stroke-dasharray:none"
   d="M571.035,47.541l-256.01,443.424  c-5.531,9.58-15.754,15.482-26.814,15.482c-11.062,0-21.284-5.902-26.814-15.482L5.382,47.541c-5.53-9.581-5.53-21.384,0-30.964  c5.531-9.58,15.754-15.482,26.817-15.482H544.22c11.063,0,21.285,5.901,26.815,15.482C576.567,26.158,576.568,37.961,571.035,47.541  z" />
<path
   id="path8"
   inkscape:connector-curvature="0"
   style="fill:#ff0000"
   d="M16.065,41.27l256.102,443.58  c3.311,5.732,9.426,9.267,16.044,9.267c6.619,0,12.734-3.531,16.045-9.267L560.356,41.27c3.311-5.732,3.311-12.794,0-18.526  c-3.312-5.732-9.427-9.263-16.046-9.263H32.109c-6.618,0-12.734,3.531-16.044,9.263C12.754,28.476,12.754,35.538,16.065,41.27z" />
<path
   id="path10"
   inkscape:connector-curvature="0"
   style="fill:#FFFFFF;stroke:#000000;stroke-width:2.00000002;stroke-linecap:round;stroke-linejoin:round;stroke-miterlimit:4;stroke-dasharray:none"
   d="M147.058,590.967v-70.472c0-2.95,1.951-5.781,5.426-7.868  c3.475-2.086,8.188-3.259,13.101-3.259h240.842c4.913,0,9.626,1.173,13.103,3.259c3.475,2.087,5.426,4.918,5.426,7.868v70.472  c0,2.95-1.951,5.781-5.426,7.867c-3.477,2.087-8.188,3.26-13.103,3.26H165.583c-4.914,0-9.626-1.173-13.101-3.26  C149.008,596.748,147.058,593.917,147.058,590.967L147.058,590.967z" />
<polygon
   id="polygon12"
   style="fill:#FFFFFF;"
   points="288.209,401.273 96.466,69.164 479.952,69.164 " />
<g
   id="g8">
	<path
   id="path14_1_"
   inkscape:connector-curvature="0"
   style="fill:none;"
   d="M206.951,624.988H194.49v-57.763   c-4.554,5.236-9.92,9.108-16.099,11.617v-13.908c3.252-1.309,6.784-3.79,10.6-7.441c3.813-3.654,6.431-7.917,7.85-12.79h10.111   L206.951,624.988L206.951,624.988z" />
</g>
<rect
   x="145.896"
   y="526.047"
   style="fill:none;"
   width="279.058"
   height="176"
   id="rect11" />
<g
   style="enable-background:new    ;"
   id="g13">
	<path
   d="M192.583,526.133v63.121h-12.827l0.046-44.559h-0.184c-0.092,0.373-1.195,1.189-3.31,2.449l-4,1.977l-3.586,1.289   c-1.441,0.287-2.223,0.502-2.345,0.645v-13.32l2.851-1.246c4.751-2.836,8.168-6.287,10.253-10.355H192.583z"
   id="path15" />
</g>
<g
   style="enable-background:new    ;"
   id="g17">
	<path
   style="fill:none;stroke:#000000;stroke-width:2;stroke-miterlimit:10;"
   d="M192.583,526.133v63.121h-12.827l0.046-44.559h-0.184c-0.092,0.373-1.195,1.189-3.31,2.449l-4,1.977   l-3.586,1.289c-1.441,0.287-2.223,0.502-2.345,0.645v-13.32l2.851-1.246c4.751-2.836,8.168-6.287,10.253-10.355H192.583z"
   id="path19" />
</g>
<g
   style="enable-background:new    ;"
   id="g21">
	<path
   d="M254.283,526.09l-0.046,12.074h-22.712l-1.563,10.742c2.145-0.572,4.414-0.816,6.805-0.73   c2.237-0.057,4.521,0.172,6.851,0.688c3.371,1.003,6.375,2.765,9.011,5.285c3.647,3.725,5.716,7.85,6.207,12.375   c0.03,0.659,0.046,1.304,0.046,1.934c0,2.75-0.384,5.128-1.149,7.133c-1.41,3.065-3.341,5.815-5.793,8.25   c-4.046,3.553-8.981,5.328-14.805,5.328h-0.919l-4.23-0.258c-4.414-0.458-8.246-1.904-11.494-4.34   c-4.2-3.609-6.79-7.318-7.77-11.129l13.241-3.137c0.398,1.69,1.44,3.209,3.126,4.555c2.544,1.748,6.13,2.105,10.759,1.074   c3.831-1.461,5.624-4.01,5.379-7.648c0.092-3.294-1.502-5.629-4.781-7.004c-2.269-0.63-4.828-0.802-7.678-0.516   c-2.177,0.43-4.123,1.218-5.839,2.363l-11.448-8.379l3.402-28.66H254.283z"
   id="path23" />
</g>
<g
   style="enable-background:new    ;"
   id="g25">
	<path
   style="fill:none;stroke:#000000;stroke-width:2;stroke-miterlimit:10;"
   d="M254.283,526.09l-0.046,12.074h-22.712l-1.563,10.742c2.145-0.572,4.414-0.816,6.805-0.73   c2.237-0.057,4.521,0.172,6.851,0.688c3.371,1.003,6.375,2.765,9.011,5.285c3.647,3.725,5.716,7.85,6.207,12.375   c0.03,0.659,0.046,1.304,0.046,1.934c0,2.75-0.384,5.128-1.149,7.133c-1.41,3.065-3.341,5.815-5.793,8.25   c-4.046,3.553-8.981,5.328-14.805,5.328h-0.919l-4.23-0.258c-4.414-0.458-8.246-1.904-11.494-4.34   c-4.2-3.609-6.79-7.318-7.77-11.129l13.241-3.137c0.398,1.69,1.44,3.209,3.126,4.555c2.544,1.748,6.13,2.105,10.759,1.074   c3.831-1.461,5.624-4.01,5.379-7.648c0.092-3.294-1.502-5.629-4.781-7.004c-2.269-0.63-4.828-0.802-7.678-0.516   c-2.177,0.43-4.123,1.218-5.839,2.363l-11.448-8.379l3.402-28.66H254.283z"
   id="path27" />
</g>
<g
   style="enable-background:new    ;"
   id="g29">
	<path
   d="M269.957,564.418c-0.092-1.604-0.138-3.18-0.138-4.727c0-0.773,0.015-1.547,0.046-2.32   c0.092-3.036,0.352-5.986,0.781-8.852v-0.301l0.184-0.387l0.322-2.965l0.23-0.43l0.46-2.406l0.184-0.258   c0.46-2.063,1.456-4.383,2.989-6.961l1.333-1.891l2.575-2.449c2.728-2.063,6.268-3.537,10.621-4.426   c1.38-0.229,2.805-0.344,4.276-0.344h0.367c2.299,0.058,4.705,0.416,7.219,1.074c1.041,0.115,2.712,0.76,5.011,1.934   c2.36,1.375,4.506,3.252,6.438,5.629l1.471,2.105l1.195,2.363l0.506,1.719l0.138,0.129v0.43c0.307,0.602,0.49,1.074,0.552,1.418   l0.185,0.215l0.781,3.824l0.138,0.086l-0.092,0.559l0.184,0.344l0.46,4.598l0.185,0.43l-0.139,0.043l0.322,2.707l-0.092,0.086   c0.122,0.287,0.122,0.459,0,0.516l0.138,0.43l-0.092,0.129l0.229,2.922l-0.092,0.086l0.138,1.246l-0.046,0.086v1.719   c-0.03,1.061-0.123,2.335-0.275,3.824l-0.23,1.59l0.093,0.086l-0.23,0.43c-0.092,1.061-0.353,2.32-0.781,3.781l-0.276,0.816   l-0.046,0.473l-1.195,3.18l-0.229,0.172c0,0.287-0.399,1.16-1.195,2.621l-2.207,2.965c-2.422,2.607-5.104,4.512-8.046,5.715   c-1.932,0.717-3.878,1.188-5.839,1.418l-3.54,0.215l-0.828-0.043c-6.988-0.172-12.628-2.291-16.919-6.359   c-2.115-2.205-3.709-4.77-4.781-7.691c-1.227-2.979-1.977-6.115-2.253-9.41L269.957,564.418z M292.854,577.395   c1.9,0.115,3.08,0.086,3.54-0.086l0.046,0.086l2.529-0.516c2.022-0.63,3.57-1.99,4.644-4.082c0.827-2.091,1.44-4.583,1.839-7.477   l0.229-9.711l-0.138-4.555l-0.46-3.395l-0.184-0.172l-0.598-2.406l-0.185-0.086c-0.459-1.719-1.333-3.309-2.62-4.77   c-0.981-0.744-1.763-1.231-2.345-1.461l-2.667-0.602l-2.804-0.129c-1.258-0.028-2.652,0.215-4.185,0.73   c-1.41,0.631-2.59,1.762-3.54,3.395c-0.675,1.519-1.288,3.424-1.839,5.715l0.092,0.258c-0.184,0.144-0.292,0.616-0.322,1.418   c-0.43,3.352-0.476,8.265-0.138,14.738l0.736,4.684l0.965,3.309c0.705,1.719,1.67,2.965,2.896,3.738   C289.451,576.679,290.953,577.137,292.854,577.395z"
   id="path31" />
</g>
<g
   style="enable-background:new    ;"
   id="g33">
	<path
   style="fill:none;stroke:#000000;stroke-width:2;stroke-miterlimit:10;"
   d="M269.957,564.418c-0.092-1.604-0.138-3.18-0.138-4.727c0-0.773,0.015-1.547,0.046-2.32   c0.092-3.036,0.352-5.986,0.781-8.852v-0.301l0.184-0.387l0.322-2.965l0.23-0.43l0.46-2.406l0.184-0.258   c0.46-2.063,1.456-4.383,2.989-6.961l1.333-1.891l2.575-2.449c2.728-2.063,6.268-3.537,10.621-4.426   c1.38-0.229,2.805-0.344,4.276-0.344h0.367c2.299,0.058,4.705,0.416,7.219,1.074c1.041,0.115,2.712,0.76,5.011,1.934   c2.36,1.375,4.506,3.252,6.438,5.629l1.471,2.105l1.195,2.363l0.506,1.719l0.138,0.129v0.43c0.307,0.602,0.49,1.074,0.552,1.418   l0.185,0.215l0.781,3.824l0.138,0.086l-0.092,0.559l0.184,0.344l0.46,4.598l0.185,0.43l-0.139,0.043l0.322,2.707l-0.092,0.086   c0.122,0.287,0.122,0.459,0,0.516l0.138,0.43l-0.092,0.129l0.229,2.922l-0.092,0.086l0.138,1.246l-0.046,0.086v1.719   c-0.03,1.061-0.123,2.335-0.275,3.824l-0.23,1.59l0.093,0.086l-0.23,0.43c-0.092,1.061-0.353,2.32-0.781,3.781l-0.276,0.816   l-0.046,0.473l-1.195,3.18l-0.229,0.172c0,0.287-0.399,1.16-1.195,2.621l-2.207,2.965c-2.422,2.607-5.104,4.512-8.046,5.715   c-1.932,0.717-3.878,1.188-5.839,1.418l-3.54,0.215l-0.828-0.043c-6.988-0.172-12.628-2.291-16.919-6.359   c-2.115-2.205-3.709-4.77-4.781-7.691c-1.227-2.979-1.977-6.115-2.253-9.41L269.957,564.418z M292.854,577.395   c1.9,0.115,3.08,0.086,3.54-0.086l0.046,0.086l2.529-0.516c2.022-0.63,3.57-1.99,4.644-4.082c0.827-2.091,1.44-4.583,1.839-7.477   l0.229-9.711l-0.138-4.555l-0.46-3.395l-0.184-0.172l-0.598-2.406l-0.185-0.086c-0.459-1.719-1.333-3.309-2.62-4.77   c-0.981-0.744-1.763-1.231-2.345-1.461l-2.667-0.602l-2.804-0.129c-1.258-0.028-2.652,0.215-4.185,0.73   c-1.41,0.631-2.59,1.762-3.54,3.395c-0.675,1.519-1.288,3.424-1.839,5.715l0.092,0.258c-0.184,0.144-0.292,0.616-0.322,1.418   c-0.43,3.352-0.476,8.265-0.138,14.738l0.736,4.684l0.965,3.309c0.705,1.719,1.67,2.965,2.896,3.738   C289.451,576.679,290.953,577.137,292.854,577.395z"
   id="path35" />
</g>
<g
   style="enable-background:new    ;"
   id="g37">
	<path
   d="M348.153,544.609h11.356v2.922c2.146-1.833,5.303-2.936,9.471-3.309h0.506c4.23,0,7.096,0.674,8.598,2.02   c1.84,0.859,3.341,2.393,4.506,4.598c2.851-4.411,6.728-6.617,11.632-6.617h4c4.444,0.516,7.679,1.991,9.701,4.426   c2.544,2.664,4.168,6.316,4.874,10.957v29.605h-11.448v-27.973c-0.92-4.268-3.326-6.402-7.219-6.402   c-4.628-0.114-7.264,2.292-7.908,7.219v27.156h-11.447v-26.984c-0.522-5.099-3.065-7.591-7.633-7.477   c-4.229,0.115-6.605,2.578-7.126,7.391l-0.138,27.07h-11.816L348.153,544.609z"
   id="path39" />
</g>
<g
   style="enable-background:new    ;"
   id="g41">
	<path
   style="fill:none;stroke:#000000;stroke-width:2;stroke-miterlimit:10;"
   d="M348.153,544.609h11.356v2.922c2.146-1.833,5.303-2.936,9.471-3.309h0.506c4.23,0,7.096,0.674,8.598,2.02   c1.84,0.859,3.341,2.393,4.506,4.598c2.851-4.411,6.728-6.617,11.632-6.617h4c4.444,0.516,7.679,1.991,9.701,4.426   c2.544,2.664,4.168,6.316,4.874,10.957v29.605h-11.448v-27.973c-0.92-4.268-3.326-6.402-7.219-6.402   c-4.628-0.114-7.264,2.292-7.908,7.219v27.156h-11.447v-26.984c-0.522-5.099-3.065-7.591-7.633-7.477   c-4.229,0.115-6.605,2.578-7.126,7.391l-0.138,27.07h-11.816L348.153,544.609z"
   id="path43" />
</g>
</svg>