<?xml version="1.0" encoding="UTF-8" standalone="no"?>
<!-- Generator: Adobe Illustrator 16.0.2, SVG Export Plug-In . SVG Version: 6.00 Build 0)  -->

<svg
   xmlns:dc="http://purl.org/dc/elements/1.1/"
   xmlns:cc="http://creativecommons.org/ns#"
   xmlns:rdf="http://www.w3.org/1999/02/22-rdf-syntax-ns#"
   xmlns:svg="http://www.w3.org/2000/svg"
   xmlns="http://www.w3.org/2000/svg"
   xmlns:sodipodi="http://sodipodi.sourceforge.net/DTD/sodipodi-0.dtd"
   xmlns:inkscape="http://www.inkscape.org/namespaces/inkscape"
   version="1.1"
   id="svg2"
   inkscape:version="0.48.1 "
   sodipodi:docname="AB4.svg"
   x="0px"
   y="0px"
   width="576"
   height="576"
   viewBox="0 0 576.00001 575.99999"
   xml:space="preserve"
   inkscape:export-filename="C:\Documents and Settings\bertrand.bouteilles\Bureau\Panneaux\A - Route\2_intersection-priorite\AB4.png"
   inkscape:export-xdpi="150"
   inkscape:export-ydpi="150"><metadata
   id="metadata14"><rdf:RDF><cc:Work
       rdf:about=""><dc:format>image/svg+xml</dc:format><dc:type
         rdf:resource="http://purl.org/dc/dcmitype/StillImage" /><dc:title></dc:title></cc:Work></rdf:RDF></metadata><defs
   id="defs12">
	
	
	
	
	
</defs>
<sodipodi:namedview
   id="namedview18"
   inkscape:window-maximized="1"
   gridtolerance="10"
   fit-margin-left="0"
   borderopacity="1"
   showgrid="false"
   guidetolerance="10"
   bordercolor="#666666"
   inkscape:cy="223.24418"
   fit-margin-top="-2.7755576e-017"
   pagecolor="#ffffff"
   inkscape:zoom="0.91562529"
   objecttolerance="10"
   inkscape:cx="576.93684"
   inkscape:pageopacity="0"
   inkscape:pageshadow="2"
   inkscape:window-width="1920"
   inkscape:window-height="1174"
   fit-margin-right="0"
   inkscape:current-layer="svg2"
   inkscape:window-y="-4"
   inkscape:window-x="1276"
   fit-margin-bottom="0">
	</sodipodi:namedview>
<polygon
   id="polygon6"
   style="fill:#ffffff;stroke:#000000;stroke-width:2;stroke-linecap:round;stroke-linejoin:round;stroke-miterlimit:4;stroke-dasharray:none"
   points="169.907,1.803 1.798,169.912 1.798,407.652 169.907,575.76 407.648,575.76 575.755,407.652 575.755,169.912 407.648,1.803 "
   transform="matrix(1.0000747,0,0,1.0000747,-0.7980666,-0.80307698)" />
<polygon
   id="polygon8"
   style="fill:#ff0000"
   points="176.34,17.335 17.33,176.345 17.33,401.219 176.34,560.229 401.214,560.229 560.224,401.219 560.224,176.345 401.214,17.335 "
   transform="matrix(1.0000747,0,0,1.0000747,-0.79856664,-0.80357702)" />
<g
   id="g3762"
   transform="translate(7.5485665,24.363823)"><path
     id="path10"
     inkscape:connector-curvature="0"
     style="fill:#ffffff"
     d="m 33.674007,310.31316 v -0.21501 c 0,-0.78706 0.822061,-1.3241 2.471184,-1.61112 12.676947,-4.08231 20.911562,-7.01853 24.708846,-8.80966 1.935144,2.6502 4.476334,5.04938 7.627569,7.19754 5.08438,3.00822 10.527787,4.83436 16.32922,5.47941 6.15846,0.14601 9.990746,0 11.494859,-0.43004 7.090525,-2.00415 11.457855,-4.0453 13.104975,-6.12345 1.64613,-1.43211 3.07823,-4.90437 4.29832,-10.42078 0.28403,-2.14816 0,-4.54734 -0.85906,-7.19754 -1.07408,-1.78913 -2.22117,-3.29325 -3.43826,-4.51234 l -3.65127,-2.7932 -4.0823,-1.82614 C 78.97339,271.9603 66.476457,267.80799 64.185286,266.5889 53.657499,262.36358 45.814913,255.38106 40.658528,245.64033 c -3.366251,-6.51648 -4.870364,-14.43107 -4.512337,-23.74177 1.359102,-11.60287 6.123458,-20.80455 14.288067,-27.60906 9.166685,-6.6605 18.728399,-10.27577 28.684143,-10.85081 h 2.793209 c 7.091529,0 12.961968,0.53704 17.618316,1.61112 9.453704,2.6502 16.829254,6.33847 22.130654,11.06482 5.29939,4.36933 9.66872,10.31377 13.10598,17.83334 l -0.32203,1.18208 -22.13065,10.6358 -1.07408,-0.53704 c -1.3601,-4.36733 -5.19239,-7.91259 -11.494858,-10.6358 -7.09053,-2.64719 -15.39815,-2.7212 -24.923862,-0.21501 -4.082305,1.3611 -6.946519,3.11523 -8.594642,5.26439 -0.574043,0.57404 -1.326099,2.36318 -2.256169,5.3714 -0.14601,3.51026 0,5.55142 0.430033,6.12346 0.930069,2.43618 2.793208,4.61935 5.586417,6.55349 l 2.793209,1.18209 c 20.339519,6.01645 34.125552,10.38577 41.360092,13.10598 6.22946,2.86521 10.99282,6.01645 14.28806,9.4537 l 6.01645,8.16461 c 4.43934,7.37755 6.80351,15.43516 7.09053,24.17181 0.07,0.57404 0.10701,1.25409 0.10701,2.04115 0,2.79321 -0.43003,6.55349 -1.2891,11.27984 -1.79113,6.6605 -3.93929,11.56687 -6.44548,14.7181 -4.29732,5.3014 -7.41255,8.48664 -9.34669,9.56272 -10.52779,7.23354 -21.3786,11.13583 -32.551436,11.70987 h -9.77573 c -7.305546,-0.71605 -13.466006,-2.14816 -18.478381,-4.29832 -8.021599,-3.72328 -14.503083,-7.87759 -19.444452,-12.46193 -4.083305,-3.72328 -7.62857,-9.05968 -10.636794,-16.0072 l 0,0 z" /><path
     id="path12"
     inkscape:connector-curvature="0"
     style="fill:#ffffff"
     d="m 259.21285,184.83479 v 30.29526 H 227.7355 V 342.43456 H 198.51432 V 214.80803 h -33.62551 v -29.97324 h 94.32404 l 0,0 z" /><path
     id="path14"
     inkscape:connector-curvature="0"
     style="fill:#ffffff"
     d="m 347.24043,183.00866 c 17.33029,2.65019 30.14925,12.89196 38.45987,30.72529 7.09053,13.17898 10.6358,29.36519 10.6358,48.55863 v 1.93414 c 0,23.99379 -5.83844,44.40532 -17.51131,61.23458 -8.31062,11.31584 -20.0555,17.65231 -35.23663,19.01642 -1.57612,0.14301 -3.11524,0.21501 -4.61935,0.21501 -15.75718,0 -28.97116,-6.6605 -39.64196,-19.98149 -11.02982,-17.76133 -16.61624,-35.98869 -16.75925,-54.68209 -0.072,-1.57411 -0.10701,-3.15023 -0.10701,-4.72835 0,-25.28089 5.62142,-46.19445 16.86626,-62.73868 7.52056,-9.02368 15.36115,-14.78811 23.52576,-17.2963 5.65642,-1.78913 11.31484,-2.6862 16.97526,-2.6862 2.50619,-0.001 4.97738,0.14401 7.41256,0.42904 l 0,0 z m -8.27162,134.18002 c 8.30762,-0.43003 15.32515,-6.12346 21.05657,-17.08128 4.15231,-7.30554 6.76951,-18.04835 7.84359,-32.22941 0.21502,-18.04834 -2.97422,-32.83645 -9.56272,-44.36831 -5.3714,-8.0206 -11.31584,-12.49693 -17.83333,-13.429 -8.59464,0.43003 -15.75717,6.05345 -21.4846,16.86626 -4.08231,7.59256 -6.7325,18.47838 -7.9496,32.65844 -0.14601,18.04834 3.11524,32.80345 9.77473,44.2613 5.2984,8.0226 11.34985,12.46193 18.15536,13.322 l 0,0 z" /><path
     id="path16"
     inkscape:connector-curvature="0"
     style="fill:#ffffff"
     d="m 481.89349,184.72678 c 9.16668,1.00408 17.27729,4.29732 24.33281,9.88374 7.05353,5.58642 12.12091,11.88989 15.20114,18.90741 3.86729,7.52057 5.80143,15.57717 5.80143,24.17181 0,4.0123 -0.037,6.62549 -0.10601,7.84259 -0.57404,9.88373 -2.61519,18.12035 -6.12345,24.70884 -3.51127,6.59049 -7.34355,11.63987 -11.49486,15.14713 -9.02368,8.23562 -18.51638,12.42693 -28.47013,12.56794 h -29.86423 v 44.1523 h -29.4372 V 184.72678 h 60.1605 z m -30.29527,81.86212 h 24.27882 c 3.72327,-0.43003 6.8035,-1.3591 9.23769,-2.79321 6.58849,-3.93829 10.52778,-10.77781 11.81688,-20.51953 0.21502,-8.80966 -1.57612,-15.50516 -5.3714,-20.0895 -3.79729,-4.58235 -8.84666,-7.19754 -15.14713,-7.84259 h -24.81586 v 51.24483 l 0.001,0 z" /></g>
</svg>