<?xml version="1.0" encoding="UTF-8" standalone="no"?>
<!-- Generator: Adobe Illustrator 16.0.2, SVG Export Plug-In . SVG Version: 6.00 Build 0)  -->

<svg
   xmlns:dc="http://purl.org/dc/elements/1.1/"
   xmlns:cc="http://creativecommons.org/ns#"
   xmlns:rdf="http://www.w3.org/1999/02/22-rdf-syntax-ns#"
   xmlns:svg="http://www.w3.org/2000/svg"
   xmlns="http://www.w3.org/2000/svg"
   xmlns:sodipodi="http://sodipodi.sourceforge.net/DTD/sodipodi-0.dtd"
   xmlns:inkscape="http://www.inkscape.org/namespaces/inkscape"
   version="1.1"
   id="svg2"
   inkscape:version="0.48.1 "
   sodipodi:docname="AB5.svg"
   x="0px"
   y="0px"
   width="576.44464"
   height="618.47363"
   viewBox="0 0 576.44465 618.47364"
   xml:space="preserve"
   inkscape:export-filename="C:\Documents and Settings\bertrand.bouteilles\Bureau\Panneaux\A - Route\2_intersection-priorite\AB5.png"
   inkscape:export-xdpi="150"
   inkscape:export-ydpi="150"><metadata
   id="metadata31"><rdf:RDF><cc:Work
       rdf:about=""><dc:format>image/svg+xml</dc:format><dc:type
         rdf:resource="http://purl.org/dc/dcmitype/StillImage" /><dc:title></dc:title></cc:Work></rdf:RDF></metadata><defs
   id="defs29" />
<sodipodi:namedview
   id="namedview24"
   inkscape:pageopacity="0"
   inkscape:pageshadow="2"
   inkscape:window-width="1920"
   inkscape:window-height="1174"
   fit-margin-right="0"
   fit-margin-bottom="0"
   inkscape:window-x="1276"
   inkscape:window-y="-4"
   inkscape:current-layer="svg2"
   objecttolerance="10"
   inkscape:zoom="0.90941253"
   pagecolor="#ffffff"
   bordercolor="#666666"
   inkscape:cx="281.48355"
   showgrid="false"
   borderopacity="1"
   gridtolerance="10"
   inkscape:cy="278.79194"
   fit-margin-top="0"
   fit-margin-left="0"
   guidetolerance="10"
   inkscape:window-maximized="1">
	</sodipodi:namedview>




<path
   id="path6"
   inkscape:connector-curvature="0"
   style="fill:#ffffff;stroke:#000000;stroke-width:2.00000003;stroke-linecap:round;stroke-linejoin:round;stroke-miterlimit:4;stroke-dasharray:none"
   d="m 571.0465,47.696 -256.01,443.42 c -5.531,9.581 -15.753,15.481 -26.815,15.481 -11.062,0 -21.283,-5.9 -26.813,-15.481 L 5.3974979,47.696 c -5.53000001,-9.581 -5.53000001,-21.384 0,-30.964 C 10.928498,7.151 21.151498,1.25 32.212498,1.25 H 544.2325 c 11.063,0 21.283,5.902 26.813,15.482 5.532,9.581 5.532,21.383 0.001,30.964 z" /><path
   id="path8"
   inkscape:connector-curvature="0"
   style="fill:#ff0000"
   d="M 16.077498,41.424 272.1775,485.001 c 3.311,5.731 9.425,9.264 16.044,9.264 6.619,0 12.735,-3.529 16.046,-9.264 l 256.1,-443.577 c 3.31,-5.732 3.31,-12.794 0,-18.526 -3.311,-5.732 -9.425,-9.263 -16.044,-9.263 H 32.122498 c -6.619,0 -12.735,3.531 -16.044,9.263 -3.31,5.732 -3.31,12.794 -0.001,18.526 l 0,0 z" /><polygon
   id="polygon10"
   style="fill:#ffffff"
   points="479.031,68.669 287.289,400.775 95.548,68.669 "
   transform="translate(0.93249789,0.649)" /><path
   id="path6-8"
   inkscape:connector-curvature="0"
   style="fill:#ffffff;stroke:#000000;stroke-width:2.00000003;stroke-linecap:round;stroke-linejoin:round;stroke-miterlimit:4;stroke-dasharray:none"
   d="m 149.26483,604.28066 v -81.972 c 0,-3.434 1.952,-6.727 5.426,-9.152 3.474,-2.427 8.187,-3.791 13.1,-3.791 h 240.84401 c 4.914,0 9.625,1.364 13.101,3.791 3.477,2.429 5.428,5.722 5.428,9.152 v 81.972 c 0,3.436 -1.951,6.727 -5.428,9.152 -3.476,2.429 -8.187,3.791 -13.101,3.791 H 167.79183 c -4.914,0 -9.626,-1.362 -13.1,-3.791 -3.474,-2.427 -5.427,-5.717 -5.427,-9.152 l 0,0 z" /><g
   id="g8"
   transform="matrix(0.7065195,0,0,0.7065195,84.982583,144.63028)">
	<rect
   x="148.70399"
   y="527.03101"
   style="fill:none"
   width="277.896"
   height="133"
   id="rect10" />
	<path
   inkscape:connector-curvature="0"
   style="stroke:#000000;stroke-width:2.5;stroke-miterlimit:10"
   d="m 186.459,572.813 v -0.078 c 0,-0.286 0.32,-0.481 0.961,-0.586 4.932,-1.484 8.136,-2.552 9.613,-3.203 0.752,0.964 1.741,1.836 2.967,2.617 1.978,1.094 4.096,1.758 6.353,1.992 2.396,0.053 3.887,0 4.473,-0.156 2.758,-0.729 4.458,-1.471 5.099,-2.227 0.641,-0.521 1.198,-1.783 1.672,-3.789 0.111,-0.781 0,-1.653 -0.334,-2.617 -0.418,-0.65 -0.864,-1.197 -1.337,-1.641 l -1.421,-1.016 -1.588,-0.664 c -8.833,-2.578 -13.696,-4.088 -14.587,-4.531 -4.096,-1.536 -7.147,-4.075 -9.153,-7.617 -1.31,-2.369 -1.896,-5.247 -1.755,-8.633 0.529,-4.219 2.382,-7.564 5.559,-10.039 3.566,-2.422 7.287,-3.736 11.16,-3.945 h 1.086 c 2.759,0 5.043,0.195 6.855,0.586 3.678,0.964 6.547,2.305 8.61,4.023 2.062,1.589 3.762,3.75 5.099,6.484 l -0.125,0.43 -8.61,3.867 -0.418,-0.195 c -0.53,-1.588 -2.021,-2.877 -4.472,-3.867 -2.759,-0.963 -5.991,-0.989 -9.697,-0.078 -1.588,0.495 -2.703,1.133 -3.344,1.914 -0.224,0.209 -0.516,0.859 -0.878,1.953 -0.056,1.276 0,2.019 0.167,2.227 0.362,0.886 1.087,1.68 2.174,2.383 l 1.086,0.43 c 7.914,2.188 13.277,3.776 16.092,4.766 2.424,1.042 4.277,2.188 5.559,3.438 l 2.341,2.969 c 1.727,2.683 2.646,5.612 2.758,8.789 0.027,0.209 0.042,0.456 0.042,0.742 0,1.016 -0.167,2.383 -0.501,4.102 -0.697,2.422 -1.533,4.206 -2.508,5.352 -1.672,1.928 -2.884,3.086 -3.637,3.477 -4.096,2.631 -8.317,4.049 -12.664,4.258 h -3.804 c -2.842,-0.26 -5.239,-0.781 -7.189,-1.563 -3.121,-1.354 -5.643,-2.864 -7.565,-4.531 -1.589,-1.357 -2.968,-3.297 -4.139,-5.823 z"
   id="path13" />
	<path
   inkscape:connector-curvature="0"
   style="stroke:#000000;stroke-width:2.5;stroke-miterlimit:10"
   d="m 277.717,527.188 v 11.016 H 265.47 v 46.289 h -11.369 v -46.406 h -13.083 v -10.898 h 36.699 z"
   id="path15" />
	<path
   inkscape:connector-curvature="0"
   style="stroke:#000000;stroke-width:2.5;stroke-miterlimit:10"
   d="m 315.475,526.523 c 6.742,0.964 11.73,4.688 14.963,11.172 2.759,4.792 4.138,10.678 4.138,17.656 v 0.703 c 0,8.725 -2.271,16.146 -6.813,22.266 -3.233,4.115 -7.803,6.419 -13.71,6.914 -0.613,0.052 -1.212,0.078 -1.797,0.078 -6.131,0 -11.271,-2.422 -15.423,-7.266 -4.292,-6.458 -6.465,-13.086 -6.521,-19.883 -0.028,-0.572 -0.042,-1.146 -0.042,-1.719 0,-9.192 2.188,-16.797 6.563,-22.813 2.926,-3.281 5.977,-5.377 9.153,-6.289 2.201,-0.65 4.402,-0.977 6.604,-0.977 0.976,0.002 1.937,0.055 2.885,0.158 z m -3.218,48.79 c 3.232,-0.156 5.963,-2.227 8.192,-6.211 1.615,-2.656 2.633,-6.563 3.051,-11.719 0.084,-6.563 -1.156,-11.939 -3.72,-16.133 -2.09,-2.916 -4.403,-4.544 -6.938,-4.883 -3.344,0.156 -6.13,2.201 -8.359,6.133 -1.588,2.761 -2.619,6.719 -3.093,11.875 -0.057,6.563 1.212,11.928 3.804,16.094 2.061,2.917 4.415,4.531 7.063,4.844 z"
   id="path17" />
	<path
   inkscape:connector-curvature="0"
   style="stroke:#000000;stroke-width:2.5;stroke-miterlimit:10"
   d="m 371.373,527.148 c 3.566,0.365 6.723,1.563 9.468,3.594 2.744,2.031 4.716,4.323 5.914,6.875 1.505,2.734 2.257,5.664 2.257,8.789 0,1.459 -0.015,2.409 -0.042,2.852 -0.224,3.594 -1.018,6.589 -2.382,8.984 -1.366,2.396 -2.857,4.232 -4.473,5.508 -3.511,2.995 -7.203,4.519 -11.076,4.57 H 359.42 v 16.055 h -11.453 v -57.227 h 23.406 z m -11.786,29.766 h 9.446 c 1.448,-0.156 2.646,-0.494 3.594,-1.016 2.563,-1.432 4.097,-3.919 4.598,-7.461 0.084,-3.203 -0.613,-5.638 -2.09,-7.305 -1.477,-1.666 -3.441,-2.617 -5.893,-2.852 h -9.655 v 18.634 z"
   id="path19" />
	<path
   inkscape:connector-curvature="0"
   style="stroke:#000000;stroke-width:2.5;stroke-miterlimit:10"
   d="m 206.69,604.131 v 52.361 h -10.641 l 0.038,-36.963 h -0.153 c -0.076,0.309 -0.991,0.986 -2.746,2.031 l -3.318,1.64 -2.975,1.069 c -1.195,0.238 -1.844,0.416 -1.945,0.535 v -11.051 l 2.365,-1.033 c 3.941,-2.353 6.775,-5.216 8.505,-8.59 h 10.87 z"
   id="path21" />
	<path
   inkscape:connector-curvature="0"
   style="stroke:#000000;stroke-width:2.5;stroke-miterlimit:10"
   d="m 264.981,604.095 -0.038,10.017 h -18.841 l -1.297,8.91 c 1.78,-0.475 3.662,-0.677 5.645,-0.605 1.855,-0.047 3.75,0.143 5.683,0.57 2.797,0.832 5.289,2.294 7.476,4.385 3.025,3.089 4.742,6.511 5.149,10.266 0.025,0.547 0.038,1.081 0.038,1.604 0,2.281 -0.318,4.254 -0.954,5.917 -1.17,2.543 -2.772,4.824 -4.806,6.844 -3.356,2.947 -7.45,4.42 -12.281,4.42 h -0.763 l -3.509,-0.214 c -3.661,-0.38 -6.84,-1.58 -9.535,-3.6 -3.484,-2.994 -5.632,-6.071 -6.446,-9.232 l 10.984,-2.602 c 0.33,1.402 1.195,2.661 2.593,3.777 2.11,1.45 5.085,1.747 8.925,0.892 3.178,-1.212 4.666,-3.326 4.462,-6.345 0.076,-2.732 -1.246,-4.67 -3.966,-5.811 -1.882,-0.521 -4.005,-0.664 -6.37,-0.428 -1.806,0.357 -3.42,1.011 -4.844,1.961 l -9.497,-6.951 2.822,-23.774 h 29.37 z"
   id="path23" />
	<path
   inkscape:connector-curvature="0"
   style="stroke:#000000;stroke-width:2.5;stroke-miterlimit:10"
   d="m 280.327,635.89 c -0.076,-1.33 -0.114,-2.638 -0.114,-3.921 0,-0.642 0.012,-1.283 0.038,-1.925 0.076,-2.519 0.292,-4.966 0.648,-7.343 v -0.25 l 0.152,-0.32 0.267,-2.459 0.19,-0.357 0.381,-1.996 0.153,-0.213 c 0.381,-1.711 1.208,-3.637 2.479,-5.775 l 1.106,-1.568 2.136,-2.031 c 2.263,-1.711 5.199,-2.935 8.81,-3.672 1.145,-0.189 2.327,-0.285 3.548,-0.285 h 0.305 c 1.907,0.049 3.902,0.346 5.988,0.892 0.863,0.096 2.25,0.63 4.157,1.604 1.957,1.141 3.737,2.697 5.339,4.669 l 1.221,1.747 0.991,1.96 0.42,1.426 0.114,0.106 v 0.357 c 0.254,0.498 0.406,0.891 0.458,1.176 l 0.152,0.178 0.648,3.173 0.114,0.071 -0.076,0.463 0.152,0.285 0.382,3.814 0.152,0.356 -0.114,0.036 0.267,2.245 -0.076,0.071 c 0.102,0.238 0.102,0.381 0,0.428 l 0.114,0.356 -0.076,0.106 0.191,2.424 -0.077,0.072 0.115,1.033 -0.038,0.071 v 1.426 c -0.026,0.88 -0.103,1.938 -0.229,3.173 l -0.19,1.318 0.076,0.071 -0.19,0.356 c -0.076,0.88 -0.293,1.925 -0.648,3.137 l -0.229,0.678 -0.039,0.392 -0.991,2.638 -0.19,0.143 c 0,0.238 -0.331,0.963 -0.992,2.174 l -1.83,2.46 c -2.009,2.163 -4.233,3.743 -6.675,4.741 -1.602,0.594 -3.217,0.985 -4.844,1.176 l -2.937,0.178 -0.687,-0.035 c -5.798,-0.143 -10.476,-1.9 -14.036,-5.275 -1.754,-1.829 -3.077,-3.957 -3.966,-6.381 -1.018,-2.471 -1.64,-5.072 -1.869,-7.806 l -0.151,-1.568 z m 18.993,10.764 c 1.576,0.096 2.556,0.071 2.938,-0.071 l 0.038,0.071 2.098,-0.428 c 1.678,-0.522 2.962,-1.651 3.852,-3.387 0.687,-1.733 1.195,-3.801 1.525,-6.201 l 0.191,-8.057 -0.114,-3.777 -0.382,-2.816 -0.152,-0.143 -0.496,-1.996 -0.152,-0.071 c -0.382,-1.426 -1.106,-2.745 -2.174,-3.956 -0.814,-0.618 -1.463,-1.021 -1.945,-1.213 l -2.212,-0.498 -2.327,-0.107 c -1.043,-0.023 -2.199,0.178 -3.471,0.605 -1.17,0.523 -2.148,1.462 -2.937,2.816 -0.56,1.26 -1.067,2.84 -1.525,4.74 l 0.076,0.215 c -0.152,0.119 -0.242,0.511 -0.267,1.176 -0.356,2.78 -0.395,6.856 -0.115,12.227 l 0.61,3.885 0.802,2.744 c 0.584,1.426 1.385,2.46 2.402,3.102 0.915,0.547 2.161,0.926 3.737,1.14 z"
   id="path25" />
	<path
   inkscape:connector-curvature="0"
   style="stroke:#000000;stroke-width:2.5;stroke-miterlimit:10"
   d="m 343.631,619.457 h 9.421 v 2.424 c 1.779,-1.52 4.398,-2.435 7.856,-2.744 h 0.42 c 3.509,0 5.886,0.559 7.132,1.676 1.525,0.713 2.771,1.984 3.737,3.813 2.365,-3.659 5.581,-5.489 9.649,-5.489 h 3.318 c 3.687,0.428 6.369,1.652 8.048,3.672 2.109,2.209 3.457,5.239 4.042,9.089 v 24.56 h -9.496 v -23.205 c -0.763,-3.54 -2.76,-5.311 -5.988,-5.311 -3.84,-0.095 -6.026,1.901 -6.56,5.988 v 22.527 h -9.497 v -22.385 c -0.433,-4.229 -2.543,-6.297 -6.331,-6.203 -3.509,0.096 -5.479,2.139 -5.912,6.131 l -0.114,22.457 h -9.802 l 0.077,-37 z"
   id="path27" />
</g>
</svg>