<?xml version="1.0" encoding="UTF-8" standalone="no"?>
<!-- Generator: Adobe Illustrator 13.0.0, SVG Export Plug-In  -->

<svg
   xmlns:dc="http://purl.org/dc/elements/1.1/"
   xmlns:cc="http://creativecommons.org/ns#"
   xmlns:rdf="http://www.w3.org/1999/02/22-rdf-syntax-ns#"
   xmlns:svg="http://www.w3.org/2000/svg"
   xmlns="http://www.w3.org/2000/svg"
   xmlns:sodipodi="http://sodipodi.sourceforge.net/DTD/sodipodi-0.dtd"
   xmlns:inkscape="http://www.inkscape.org/namespaces/inkscape"
   version="1.1"
   x="0px"
   y="0px"
   width="576px"
   height="576px"
   viewBox="-0.722 -0.722 576 576"
   enable-background="new -0.722 -0.722 576 576"
   xml:space="preserve"
   id="svg2"
   inkscape:version="0.48.1 "
   sodipodi:docname="AB6.svg"
   inkscape:export-filename="C:\Documents and Settings\bertrand.bouteilles\Bureau\Panneaux\A - Route\2_intersection-priorite\AB6.png"
   inkscape:export-xdpi="150"
   inkscape:export-ydpi="150"><metadata
   id="metadata16"><rdf:RDF><cc:Work
       rdf:about=""><dc:format>image/svg+xml</dc:format><dc:type
         rdf:resource="http://purl.org/dc/dcmitype/StillImage" /><dc:title></dc:title></cc:Work></rdf:RDF></metadata><sodipodi:namedview
   pagecolor="#ffffff"
   bordercolor="#666666"
   borderopacity="1"
   objecttolerance="10"
   gridtolerance="10"
   guidetolerance="10"
   inkscape:pageopacity="0"
   inkscape:pageshadow="2"
   inkscape:window-width="1920"
   inkscape:window-height="1174"
   id="namedview14"
   showgrid="false"
   inkscape:zoom="1.0173611"
   inkscape:cx="381.96023"
   inkscape:cy="218.15125"
   inkscape:window-x="1276"
   inkscape:window-y="-4"
   inkscape:window-maximized="1"
   inkscape:current-layer="svg2" />
<defs
   id="defs4">
</defs>



<g
   id="g3761"
   transform="matrix(1.086735,0,0,1.0867371,-24.918144,-24.918204)"><path
     style="fill:#ffffff;stroke:#000000;stroke-width:2;stroke-linecap:round;stroke-linejoin:round;stroke-miterlimit:4;stroke-dasharray:none"
     id="path8"
     d="M 274.554,28.536 28.536,274.554 c -3.375,3.375 -5.271,7.952 -5.271,12.725 0,4.773 1.896,9.35 5.271,12.725 l 246.018,246.017 c 3.375,3.375 7.952,5.271 12.725,5.271 4.773,0 9.35,-1.896 12.725,-5.271 L 546.022,300.004 c 3.375,-3.375 5.271,-7.952 5.271,-12.725 0,-4.773 -1.896,-9.35 -5.271,-12.725 L 300.003,28.536 c -3.375,-3.375 -7.952,-5.271 -12.725,-5.271 -4.773,0 -9.35,1.897 -12.724,5.271 z"
     inkscape:connector-curvature="0" /><rect
     id="rect10"
     height="223.99001"
     width="223.991"
     transform="matrix(0.7071,-0.7071,0.7071,0.7071,-118.9946,287.2783)"
     y="175.283"
     x="175.283"
     style="fill:none;stroke:#ffff00;stroke-width:0.17640001;stroke-linecap:round;stroke-linejoin:round" /><rect
     style="fill:#f6f73d;stroke:#000000;stroke-width:2.00001907;stroke-linecap:round;stroke-linejoin:round;stroke-miterlimit:4;stroke-dasharray:none"
     id="rect12"
     height="260.76801"
     width="260.76801"
     transform="matrix(0.7071,-0.7071,0.7071,0.7071,-118.9949,287.2785)"
     y="156.895"
     x="156.894" /></g>
</svg>