<?xml version="1.0" encoding="UTF-8" standalone="no"?>
<!-- Generator: Adobe Illustrator 13.0.0, SVG Export Plug-In  -->

<svg
   xmlns:dc="http://purl.org/dc/elements/1.1/"
   xmlns:cc="http://creativecommons.org/ns#"
   xmlns:rdf="http://www.w3.org/1999/02/22-rdf-syntax-ns#"
   xmlns:svg="http://www.w3.org/2000/svg"
   xmlns="http://www.w3.org/2000/svg"
   xmlns:sodipodi="http://sodipodi.sourceforge.net/DTD/sodipodi-0.dtd"
   xmlns:inkscape="http://www.inkscape.org/namespaces/inkscape"
   version="1.1"
   x="0px"
   y="0px"
   width="576px"
   height="576px"
   viewBox="-0.933 -0.933 576 576"
   enable-background="new -0.933 -0.933 576 576"
   xml:space="preserve"
   id="svg2"
   inkscape:version="0.48.1 "
   sodipodi:docname="AB7.svg"
   inkscape:export-filename="C:\Documents and Settings\bertrand.bouteilles\Bureau\Panneaux\A - Route\2_intersection-priorite\AB7.png"
   inkscape:export-xdpi="150"
   inkscape:export-ydpi="150"><metadata
   id="metadata22"><rdf:RDF><cc:Work
       rdf:about=""><dc:format>image/svg+xml</dc:format><dc:type
         rdf:resource="http://purl.org/dc/dcmitype/StillImage" /><dc:title></dc:title></cc:Work></rdf:RDF></metadata><sodipodi:namedview
   pagecolor="#ffffff"
   bordercolor="#666666"
   borderopacity="1"
   objecttolerance="10"
   gridtolerance="10"
   guidetolerance="10"
   inkscape:pageopacity="0"
   inkscape:pageshadow="2"
   inkscape:window-width="1280"
   inkscape:window-height="964"
   id="namedview20"
   showgrid="false"
   inkscape:zoom="1.0173611"
   inkscape:cx="312.49387"
   inkscape:cy="325.54433"
   inkscape:window-x="1282"
   inkscape:window-y="0"
   inkscape:window-maximized="1"
   inkscape:current-layer="svg2" />
<defs
   id="defs4">
</defs>






<g
   id="g3767"
   transform="matrix(1.0867391,0,0,1.0867391,-24.899933,-24.899933)"><rect
     id="rect8"
     height="287.543"
     width="265.34799"
     transform="matrix(0.7056,-0.7086,0.7086,0.7056,-122.3694,297.2804)"
     y="152.13901"
     x="163.916"
     style="fill:#f6f623" /><rect
     id="rect10"
     height="82.001999"
     width="223.99001"
     transform="matrix(-0.7071,0.7071,-0.7071,-0.7071,814.2354,337.2688)"
     y="296.267"
     x="225.272"
     style="fill:none;stroke:#ffff00;stroke-width:0.17640001;stroke-linecap:round;stroke-linejoin:round" /><rect
     id="rect12"
     height="223.991"
     width="82.001999"
     transform="matrix(0.7071,0.7071,-0.7071,0.7071,236.8668,-98.1132)"
     y="124.872"
     x="195.86501"
     style="fill:none;stroke:#ffff00;stroke-width:0.17640001;stroke-linecap:round;stroke-linejoin:round" /><path
     style="fill:#ffffff;stroke:#000000;stroke-width:2;stroke-linecap:round;stroke-linejoin:round;stroke-miterlimit:4;stroke-dasharray:none"
     id="path14"
     d="m 102.676,287.067 184.391,-184.391 70.987,70.987 43.538,-43.538 -101.801,-101.8 c -3.375,-3.375 -7.952,-5.271 -12.725,-5.271 -4.773,0 -9.35,1.896 -12.725,5.271 L 28.325,274.342 c -3.375,3.375 -5.271,7.952 -5.271,12.725 0,4.773 1.896,9.35 5.271,12.725 l 101.8,101.8 43.539,-43.538 -70.988,-70.987 z"
     inkscape:connector-curvature="0" /><path
     style="fill:#ffffff;stroke:#000000;stroke-width:2;stroke-linecap:round;stroke-linejoin:round;stroke-miterlimit:4;stroke-dasharray:none"
     id="path16"
     d="m 172.542,444.009 43.538,-43.538 70.987,70.987 184.391,-184.391 -70.988,-70.987 43.539,-43.538 101.8,101.8 c 3.375,3.375 5.271,7.952 5.271,12.725 0,4.773 -1.896,9.35 -5.271,12.725 L 299.792,545.809 c -3.375,3.375 -7.952,5.271 -12.725,5.271 -4.773,0 -9.35,-1.896 -12.725,-5.271 l -101.8,-101.8 z"
     inkscape:connector-curvature="0" /><rect
     id="rect18"
     height="61.296001"
     width="386.957"
     transform="matrix(0.7056,-0.7086,0.7086,0.7056,-118.6342,288.2612)"
     y="256.25699"
     x="94.123001" /></g>
</svg>