<?xml version="1.0" encoding="UTF-8" standalone="no"?>
<!-- Generator: Adobe Illustrator 16.0.2, SVG Export Plug-In . SVG Version: 6.00 Build 0)  -->

<svg
   xmlns:dc="http://purl.org/dc/elements/1.1/"
   xmlns:cc="http://creativecommons.org/ns#"
   xmlns:rdf="http://www.w3.org/1999/02/22-rdf-syntax-ns#"
   xmlns:svg="http://www.w3.org/2000/svg"
   xmlns="http://www.w3.org/2000/svg"
   xmlns:sodipodi="http://sodipodi.sourceforge.net/DTD/sodipodi-0.dtd"
   xmlns:inkscape="http://www.inkscape.org/namespaces/inkscape"
   version="1.1"
   id="Ebene_1"
   x="0px"
   y="0px"
   width="576px"
   height="576px"
   viewBox="0 0 576 576"
   style="enable-background:new 0 0 576 576;"
   xml:space="preserve"
   inkscape:version="0.48.1 "
   sodipodi:docname="B10a.svg"
   inkscape:export-filename="C:\Documents and Settings\bertrand.bouteilles\Bureau\Panneaux\A - Route\3_interdiction\B10a.png"
   inkscape:export-xdpi="150"
   inkscape:export-ydpi="150"><metadata
   id="metadata33"><rdf:RDF><cc:Work
       rdf:about=""><dc:format>image/svg+xml</dc:format><dc:type
         rdf:resource="http://purl.org/dc/dcmitype/StillImage" /><dc:title></dc:title></cc:Work></rdf:RDF></metadata><defs
   id="defs31" /><sodipodi:namedview
   pagecolor="#ffffff"
   bordercolor="#666666"
   borderopacity="1"
   objecttolerance="10"
   gridtolerance="10"
   guidetolerance="10"
   inkscape:pageopacity="0"
   inkscape:pageshadow="2"
   inkscape:window-width="1920"
   inkscape:window-height="1174"
   id="namedview29"
   showgrid="false"
   inkscape:zoom="0.35969147"
   inkscape:cx="-417.47249"
   inkscape:cy="336.02291"
   inkscape:window-x="1276"
   inkscape:window-y="-4"
   inkscape:window-maximized="1"
   inkscape:current-layer="Ebene_1" />
<circle
   style="fill:#ffffff;stroke:#000000;stroke-width:2;stroke-linecap:round;stroke-linejoin:round"
   cx="287.96899"
   cy="287.96899"
   r="286.96899"
   id="circle3"
   sodipodi:cx="287.96899"
   sodipodi:cy="287.96899"
   sodipodi:rx="286.96899"
   sodipodi:ry="286.96899"
   transform="translate(0.03100586,0.03100586)" />
<circle
   style="fill:#ff0000;stroke:#ff0000;stroke-width:0.17640001;stroke-linecap:round;stroke-linejoin:round"
   cx="287.96899"
   cy="287.96899"
   r="273.98199"
   id="circle5"
   sodipodi:cx="287.96899"
   sodipodi:cy="287.96899"
   sodipodi:rx="273.98199"
   sodipodi:ry="273.98199"
   transform="translate(0.03100586,0.03100586)" />
<circle
   style="fill:#ffffff;stroke:#ff0000;stroke-width:0.17640001;stroke-linecap:round;stroke-linejoin:round"
   cx="287.96899"
   cy="287.96899"
   r="192.438"
   id="circle7"
   sodipodi:cx="287.96899"
   sodipodi:cy="287.96899"
   sodipodi:rx="192.438"
   sodipodi:ry="192.438"
   transform="translate(0.03100586,0.03100586)" />





<g
   id="g3010"
   transform="translate(-13.523,-8.2159)"><path
     id="path9"
     d="m 338.226,288.069 -93.32,-1.154 c -0.238,-9.862 -5.778,-18.828 -14.491,-23.455 -8.712,-4.626 -19.243,-4.194 -27.547,1.131 -8.305,5.325 -13.092,14.715 -12.521,24.563 l -29.325,-1.071 1.667,-7.3 h 5 l 3.333,-37.715 h 4.167 l 4.167,-30.416 4.167,-3.65 30.834,-1.216 V 181.02 H 411.03 v 105.845 h -18.701 c -0.426,-14.87 -12.774,-26.607 -27.647,-26.277 -14.875,0.332 -26.692,12.607 -26.456,27.481 z"
     style="stroke:#000000;stroke-width:0.17640001;stroke-linecap:round;stroke-linejoin:round"
     inkscape:connector-curvature="0" /><circle
     id="circle11"
     r="24.077999"
     cy="287.18301"
     cx="365.23801"
     style="stroke:#000000;stroke-width:0.17640001;stroke-linecap:round;stroke-linejoin:round"
     sodipodi:cx="365.23801"
     sodipodi:cy="287.18301"
     sodipodi:rx="24.077999"
     sodipodi:ry="24.077999"
     d="m 389.31601,287.18301 c 0,13.29792 -10.78009,24.078 -24.078,24.078 -13.29792,0 -24.078,-10.78008 -24.078,-24.078 0,-13.29791 10.78008,-24.078 24.078,-24.078 13.29791,0 24.078,10.78009 24.078,24.078 z" /><circle
     id="circle13"
     r="24.1"
     cy="287.18301"
     cx="217.774"
     style="stroke:#000000;stroke-width:0.17640001;stroke-linecap:round;stroke-linejoin:round"
     sodipodi:cx="217.774"
     sodipodi:cy="287.18301"
     sodipodi:rx="24.1"
     sodipodi:ry="24.1"
     d="m 241.874,287.18301 c 0,13.31007 -10.78994,24.1 -24.1,24.1 -13.31006,0 -24.1,-10.78993 -24.1,-24.1 0,-13.31006 10.78994,-24.1 24.1,-24.1 13.31006,0 24.1,10.78994 24.1,24.1 z" /><polygon
     id="polygon15"
     points="211.855,244.286 180.188,243.069 185.188,213.87 213.521,213.87 "
     style="fill:#ffffff;stroke:#000000;stroke-width:0.17640001;stroke-linecap:round;stroke-linejoin:round" /><path
     id="path17"
     d="m 194.96,410.58 -37.441,-30.166 37.441,-30.167 v 60.333 l 0,0 z m 208.327,-4.292 v -57.317 l 42.24,28.658 -42.24,28.659 z"
     inkscape:connector-curvature="0" /><g
     id="g19">
	<rect
   id="rect21"
   height="55"
   width="156"
   style="fill:none"
   y="356.5"
   x="218.5" />
	<path
   id="path23"
   d="m 252.498,356.561 v 44.472 h -8.446 l 0.03,-31.394 h -0.121 c -0.061,0.263 -0.787,0.838 -2.18,1.726 l -2.634,1.393 -2.361,0.908 c -0.949,0.202 -1.463,0.354 -1.544,0.454 v -9.385 l 1.877,-0.878 c 3.128,-1.998 5.378,-4.43 6.751,-7.296 h 8.628 z"
   inkscape:connector-curvature="0" />
	<path
   id="path25"
   d="m 264.032,383.534 c -0.061,-1.13 -0.091,-2.24 -0.091,-3.33 0,-0.545 0.01,-1.09 0.03,-1.635 0.061,-2.139 0.232,-4.218 0.515,-6.236 v -0.212 l 0.121,-0.272 0.212,-2.089 0.151,-0.303 0.303,-1.695 0.121,-0.182 c 0.303,-1.453 0.958,-3.088 1.968,-4.904 l 0.878,-1.332 1.695,-1.726 c 1.796,-1.453 4.127,-2.492 6.993,-3.118 0.908,-0.161 1.847,-0.242 2.815,-0.242 h 0.242 c 1.514,0.041 3.098,0.293 4.753,0.757 0.686,0.081 1.786,0.535 3.3,1.362 1.554,0.969 2.967,2.291 4.239,3.966 l 0.969,1.483 0.787,1.665 0.332,1.211 0.092,0.091 v 0.303 c 0.201,0.424 0.322,0.757 0.363,0.999 l 0.121,0.151 0.514,2.694 0.092,0.061 -0.061,0.394 0.121,0.242 0.303,3.239 0.121,0.303 -0.092,0.03 0.213,1.907 -0.061,0.061 c 0.08,0.202 0.08,0.323 0,0.363 l 0.09,0.303 -0.061,0.091 0.152,2.059 -0.061,0.061 0.09,0.878 -0.029,0.061 v 1.211 c -0.021,0.747 -0.081,1.646 -0.182,2.694 l -0.152,1.12 0.061,0.061 -0.15,0.303 c -0.061,0.747 -0.232,1.635 -0.516,2.664 l -0.182,0.575 -0.029,0.333 -0.787,2.24 -0.152,0.121 c 0,0.202 -0.262,0.817 -0.787,1.847 l -1.453,2.089 c -1.594,1.837 -3.359,3.179 -5.297,4.026 -1.271,0.505 -2.553,0.837 -3.845,0.999 l -2.331,0.151 -0.545,-0.03 c -4.602,-0.121 -8.315,-1.614 -11.141,-4.48 -1.393,-1.554 -2.442,-3.36 -3.148,-5.419 -0.808,-2.099 -1.302,-4.309 -1.483,-6.63 l -0.121,-1.334 z m 15.076,9.143 c 1.251,0.081 2.028,0.061 2.331,-0.061 l 0.03,0.061 1.665,-0.363 c 1.332,-0.443 2.351,-1.402 3.058,-2.876 0.545,-1.473 0.948,-3.229 1.211,-5.268 l 0.151,-6.842 -0.091,-3.209 -0.303,-2.392 -0.121,-0.121 -0.394,-1.695 -0.121,-0.061 c -0.303,-1.211 -0.878,-2.331 -1.726,-3.36 -0.646,-0.524 -1.161,-0.867 -1.544,-1.029 l -1.756,-0.424 -1.847,-0.091 c -0.828,-0.02 -1.746,0.151 -2.755,0.515 -0.929,0.444 -1.706,1.241 -2.331,2.392 -0.444,1.07 -0.848,2.412 -1.211,4.026 l 0.061,0.182 c -0.121,0.102 -0.192,0.435 -0.212,0.999 -0.283,2.361 -0.313,5.823 -0.091,10.384 l 0.484,3.3 0.636,2.331 c 0.464,1.211 1.1,2.089 1.907,2.634 0.729,0.464 1.718,0.786 2.969,0.968 z"
   inkscape:connector-curvature="0" />
	<path
   id="path27"
   d="m 320.673,369.578 h 7.478 v 2.059 c 1.412,-1.291 3.491,-2.068 6.236,-2.331 h 0.333 c 2.785,0 4.672,0.475 5.661,1.423 1.211,0.605 2.199,1.686 2.967,3.239 1.877,-3.107 4.43,-4.662 7.659,-4.662 h 2.634 c 2.926,0.363 5.056,1.403 6.388,3.118 1.675,1.877 2.744,4.45 3.209,7.72 v 20.858 H 355.7 v -19.708 c -0.605,-3.007 -2.19,-4.511 -4.753,-4.511 -3.048,-0.08 -4.783,1.615 -5.207,5.086 v 19.133 h -7.538 V 381.99 c -0.344,-3.592 -2.019,-5.348 -5.025,-5.268 -2.785,0.081 -4.35,1.816 -4.692,5.207 l -0.091,19.072 h -7.78 l 0.059,-31.423 z"
   inkscape:connector-curvature="0" />
</g></g>
</svg>