<?xml version="1.0" encoding="UTF-8" standalone="no"?>
<!-- Generator: Adobe Illustrator 16.0.2, SVG Export Plug-In . SVG Version: 6.00 Build 0)  -->

<svg
   xmlns:dc="http://purl.org/dc/elements/1.1/"
   xmlns:cc="http://creativecommons.org/ns#"
   xmlns:rdf="http://www.w3.org/1999/02/22-rdf-syntax-ns#"
   xmlns:svg="http://www.w3.org/2000/svg"
   xmlns="http://www.w3.org/2000/svg"
   xmlns:sodipodi="http://sodipodi.sourceforge.net/DTD/sodipodi-0.dtd"
   xmlns:inkscape="http://www.inkscape.org/namespaces/inkscape"
   version="1.1"
   id="Ebene_1"
   x="0px"
   y="0px"
   width="576px"
   height="576px"
   viewBox="0 0 576 576"
   style="enable-background:new 0 0 576 576;"
   xml:space="preserve"
   inkscape:version="0.48.1 "
   sodipodi:docname="B11.svg"
   inkscape:export-filename="C:\Documents and Settings\bertrand.bouteilles\Bureau\Panneaux\A - Route\3_interdiction\B11.png"
   inkscape:export-xdpi="150"
   inkscape:export-ydpi="150"><metadata
   id="metadata43"><rdf:RDF><cc:Work
       rdf:about=""><dc:format>image/svg+xml</dc:format><dc:type
         rdf:resource="http://purl.org/dc/dcmitype/StillImage" /><dc:title></dc:title></cc:Work></rdf:RDF></metadata><defs
   id="defs41">
	
	

	
	

	
	

	
	
</defs><sodipodi:namedview
   pagecolor="#ffffff"
   bordercolor="#666666"
   borderopacity="1"
   objecttolerance="10"
   gridtolerance="10"
   guidetolerance="10"
   inkscape:pageopacity="0"
   inkscape:pageshadow="2"
   inkscape:window-width="1280"
   inkscape:window-height="964"
   id="namedview39"
   showgrid="false"
   inkscape:zoom="0.50868056"
   inkscape:cx="-111.07167"
   inkscape:cy="288"
   inkscape:window-x="-4"
   inkscape:window-y="-4"
   inkscape:window-maximized="1"
   inkscape:current-layer="Ebene_1" />
<circle
   style="fill:#ffffff;stroke:#000000;stroke-width:2;stroke-linecap:round;stroke-linejoin:round"
   cx="287.96899"
   cy="287.96899"
   r="286.96899"
   id="circle3"
   sodipodi:cx="287.96899"
   sodipodi:cy="287.96899"
   sodipodi:rx="286.96899"
   sodipodi:ry="286.96899"
   transform="translate(0.03100586,0.03100586)" />
<circle
   style="fill:#ff0000;stroke:#ff0000;stroke-width:0.17640001000000000;stroke-linecap:round;stroke-linejoin:round"
   cx="287.96899"
   cy="287.96899"
   r="273.98199"
   id="circle5"
   sodipodi:cx="287.96899"
   sodipodi:cy="287.96899"
   sodipodi:rx="273.98199"
   sodipodi:ry="273.98199"
   transform="translate(0.03100586,0.03100586)" />
<circle
   style="fill:#ffffff;stroke:#ff0000;stroke-width:0.17640001;stroke-linecap:round;stroke-linejoin:round"
   cx="287.96899"
   cy="287.96899"
   r="192.438"
   id="circle7"
   sodipodi:cx="287.96899"
   sodipodi:cy="287.96899"
   sodipodi:rx="192.438"
   sodipodi:ry="192.438"
   transform="translate(0.03100586,0.03100586)" />






<g
   id="g3028"
   transform="translate(-0.3125,-1.582)"><polygon
     id="polygon9"
     points="449.084,287.969 479.5,309.266 479.5,287.969 479.5,266.673 "
     style="fill:none;stroke:#000000;stroke-width:0.17640001;stroke-linecap:round;stroke-linejoin:round" /><polygon
     id="polygon11"
     points="127.541,287.969 97.125,309.266 97.125,287.969 97.125,266.673 "
     style="fill:none;stroke:#000000;stroke-width:0.17640001;stroke-linecap:round;stroke-linejoin:round" /><path
     id="path13"
     d="m 479.5,287.969 v 18.657 c -0.08,0.819 -0.165,1.642 -0.257,2.46 l -30.159,-21.117 30.159,-21.117 c 0.092,0.819 0.177,1.64 0.257,2.46 v 18.657 z m -351.959,0 -30.417,21.297 v -21.297 -21.296 l 30.417,21.296 z"
     inkscape:connector-curvature="0" /><path
     d="m 179.145,215.232 c 5.801,0.938 12.217,3.897 19.248,8.877 2.109,1.7 4.423,4.366 6.943,7.998 l 3.076,5.625 1.143,2.725 -0.264,0.264 c 1.464,3.985 2.197,7.793 2.197,11.426 -0.352,7.031 -0.997,11.573 -1.934,13.623 -1.582,4.219 -2.988,7.237 -4.219,9.053 l -2.021,2.9 -4.482,4.922 -36.65,36.475 h 51.24 v 25.137 H 126.85 l 0.088,-25.4 54.053,-54.581 c 1.699,-2.05 2.9,-3.925 3.604,-5.625 1.815,-5.917 0.967,-10.898 -2.549,-14.941 -3.223,-3.105 -7.765,-4.658 -13.623,-4.658 l -5.186,0.703 -2.373,1.143 -1.494,0.088 -3.252,2.549 -1.846,2.197 c -1.173,2.109 -1.964,3.75 -2.373,4.922 l -0.527,3.076 c -0.235,0.646 -0.382,0.879 -0.439,0.703 l -23.73,0.088 -0.176,-0.615 0.176,-4.307 0.352,-0.527 c 0.233,-3.691 1.435,-7.822 3.604,-12.393 l 4.043,-6.768 3.252,-3.604 0.527,-0.176 c 6.21,-5.566 13.125,-9.022 20.742,-10.371 4.452,-0.761 8.495,-1.143 12.129,-1.143 2.692,0 5.124,0.206 7.293,0.615 z"
     id="path19"
     inkscape:connector-curvature="0" /><path
     d="m 220.153,320.563 h 25.625 l -7.031,43.984 h -18.594 v -43.984 z"
     id="path25"
     inkscape:connector-curvature="0" /><path
     d="m 312.121,257.47 -0.063,17.837 H 280.7 l -2.158,15.869 c 2.961,-0.846 6.094,-1.205 9.395,-1.078 3.089,-0.085 6.241,0.254 9.458,1.016 4.654,1.481 8.801,4.084 12.441,7.807 5.035,5.502 7.893,11.596 8.569,18.281 0.042,0.975 0.063,1.927 0.063,2.857 0,4.063 -0.529,7.575 -1.587,10.537 -1.946,4.528 -4.612,8.591 -7.998,12.188 -5.586,5.247 -12.399,7.871 -20.439,7.871 h -1.27 l -5.84,-0.381 c -6.094,-0.677 -11.384,-2.814 -15.869,-6.412 -5.798,-5.332 -9.374,-10.812 -10.728,-16.439 l 18.281,-4.635 c 0.549,2.498 1.989,4.74 4.316,6.729 3.512,2.582 8.463,3.111 14.854,1.588 5.289,-2.158 7.766,-5.925 7.427,-11.299 0.127,-4.866 -2.073,-8.316 -6.602,-10.348 -3.132,-0.93 -6.665,-1.184 -10.601,-0.762 -3.005,0.635 -5.692,1.8 -8.062,3.492 l -15.806,-12.379 4.697,-42.338 h 48.88 z"
     id="path31"
     inkscape:connector-curvature="0" /><path
     d="m 341.875,275.921 h 17.126 v 4.715 c 3.235,-2.958 7.997,-4.738 14.283,-5.339 h 0.763 c 6.379,0 10.701,1.086 12.966,3.259 2.773,1.387 5.038,3.86 6.795,7.419 4.299,-7.118 10.146,-10.678 17.542,-10.678 h 6.032 c 6.702,0.832 11.579,3.213 14.63,7.142 3.836,4.299 6.285,10.192 7.35,17.68 v 47.773 h -17.265 v -45.139 c -1.387,-6.887 -5.017,-10.33 -10.886,-10.33 -6.98,-0.185 -10.955,3.698 -11.926,11.648 v 43.82 H 382.02 V 304.35 c -0.786,-8.228 -4.622,-12.249 -11.51,-12.064 -6.379,0.185 -9.962,4.16 -10.747,11.926 l -0.208,43.682 h -17.819 l 0.139,-71.973 z"
     id="path37"
     inkscape:connector-curvature="0" /></g>
</svg>