<?xml version="1.0" encoding="UTF-8" standalone="no"?>
<!-- Generator: Adobe Illustrator 16.0.2, SVG Export Plug-In . SVG Version: 6.00 Build 0)  -->

<svg
   xmlns:dc="http://purl.org/dc/elements/1.1/"
   xmlns:cc="http://creativecommons.org/ns#"
   xmlns:rdf="http://www.w3.org/1999/02/22-rdf-syntax-ns#"
   xmlns:svg="http://www.w3.org/2000/svg"
   xmlns="http://www.w3.org/2000/svg"
   xmlns:sodipodi="http://sodipodi.sourceforge.net/DTD/sodipodi-0.dtd"
   xmlns:inkscape="http://www.inkscape.org/namespaces/inkscape"
   version="1.1"
   id="Ebene_1"
   x="0px"
   y="0px"
   width="576px"
   height="576px"
   viewBox="0 0 576 576"
   style="enable-background:new 0 0 576 576;"
   xml:space="preserve"
   inkscape:version="0.48.1 "
   sodipodi:docname="B12.svg"
   inkscape:export-filename="C:\Documents and Settings\bertrand.bouteilles\Bureau\Panneaux\A - Route\3_interdiction\B12.png"
   inkscape:export-xdpi="150"
   inkscape:export-ydpi="150"><metadata
   id="metadata25"><rdf:RDF><cc:Work
       rdf:about=""><dc:format>image/svg+xml</dc:format><dc:type
         rdf:resource="http://purl.org/dc/dcmitype/StillImage" /><dc:title></dc:title></cc:Work></rdf:RDF></metadata><defs
   id="defs23">
	
	
	
	
	
</defs><sodipodi:namedview
   pagecolor="#ffffff"
   bordercolor="#666666"
   borderopacity="1"
   objecttolerance="10"
   gridtolerance="10"
   guidetolerance="10"
   inkscape:pageopacity="0"
   inkscape:pageshadow="2"
   inkscape:window-width="1280"
   inkscape:window-height="964"
   id="namedview21"
   showgrid="false"
   inkscape:zoom="0.50868056"
   inkscape:cx="-111.07167"
   inkscape:cy="288"
   inkscape:window-x="-4"
   inkscape:window-y="-4"
   inkscape:window-maximized="1"
   inkscape:current-layer="Ebene_1" />
<circle
   style="fill:#ffffff;stroke:#000000;stroke-width:2;stroke-linecap:round;stroke-linejoin:round"
   cx="287.96899"
   cy="287.96899"
   r="286.96899"
   id="circle3"
   sodipodi:cx="287.96899"
   sodipodi:cy="287.96899"
   sodipodi:rx="286.96899"
   sodipodi:ry="286.96899"
   transform="translate(0.03100586,0.03100586)" />
<path
   d="m 287.9995,94.001 h 29.835 c 1.313,0.082 2.624,0.167 3.935,0.26 l -33.77,30.604 -33.77,-30.604 c 1.311,-0.093 2.623,-0.178 3.934,-0.26 h 29.836 z m 0,357.136 34.057,30.862 h -34.057 -34.056 l 34.056,-30.862 z"
   id="path5"
   inkscape:connector-curvature="0" />
<path
   style="fill:#ff0000;stroke:#ff0000;stroke-width:0.17640001;stroke-linecap:round;stroke-linejoin:round"
   d="m 288.0005,14.018 c -151.316,0 -273.982,122.667 -273.982,273.982 0,151.316 122.666,273.982 273.982,273.982 151.315,0 273.981,-122.666 273.981,-273.982 0,-151.315 -122.666,-273.982 -273.981,-273.982 z m 0,466.421 c -106.28,0 -192.438,-86.158 -192.438,-192.438 0,-106.28 86.157,-192.438 192.438,-192.438 106.281,0 192.438,86.157 192.438,192.438 -10e-4,106.281 -86.159,192.438 -192.438,192.438 z"
   id="path7"
   inkscape:connector-curvature="0" />
<g
   transform="translate(-7.9455,-11.8725)"
   id="g3002"><path
     inkscape:connector-curvature="0"
     d="m 178.168,231.358 c 4.27,0.886 8.333,2.605 12.188,5.156 l 5.313,4.531 c 2.344,2.813 3.854,4.792 4.531,5.938 l 2.422,4.844 c 1.354,3.959 2.083,7.996 2.188,12.109 l -0.391,5.938 -1.328,4.375 c -1.511,3.75 -3.855,7.553 -7.031,11.406 l 0.391,1.016 3.75,4.14 2.422,3.672 2.188,5.469 c 1.197,3.803 1.797,7.527 1.797,11.172 0,7.396 -2.475,14.428 -7.422,21.094 -7.5,9.012 -17.214,13.725 -29.141,14.141 -4.324,0 -7.891,-0.26 -10.703,-0.781 -3.646,-0.988 -6.225,-1.822 -7.734,-2.5 l -4.688,-2.344 -3.984,-2.891 -3.594,-3.203 -3.672,-4.766 c -2.136,-3.488 -3.646,-6.797 -4.531,-9.922 l -0.078,-0.703 20.547,-5.625 c 0.989,3.906 3.463,6.875 7.422,8.906 2.447,0.99 6.067,1.537 10.859,1.641 l 3.672,-0.391 2.969,-0.938 2.266,-1.328 c 1.563,-1.041 2.969,-2.578 4.219,-4.609 0.625,-1.301 1.094,-3.072 1.406,-5.313 0.104,-1.822 0,-2.863 -0.313,-3.125 0.104,-0.832 -0.261,-2.109 -1.094,-3.828 l -1.953,-2.734 c -1.406,-1.406 -2.631,-2.369 -3.672,-2.891 -1.303,-0.729 -3.047,-1.328 -5.234,-1.797 l -8.516,-0.234 v -21.171 c 1.145,0.105 3.411,-0.051 6.797,-0.469 l 0.156,0.156 c 6.197,-0.729 10.104,-4.114 11.719,-10.156 l -0.156,-3.516 0.156,-0.547 -0.313,-1.094 -1.484,-2.891 c -1.459,-1.822 -2.787,-3.02 -3.984,-3.594 -0.209,-0.156 -1.98,-0.625 -5.313,-1.406 l -4.922,0.156 v -0.156 l -4.844,0.781 -3.438,1.484 -1.406,1.094 -1.563,2.266 -1.172,2.891 -20.313,-6.094 1.328,-3.516 0.469,-0.469 c -0.105,-0.26 0.494,-1.563 1.797,-3.906 l 2.188,-3.516 3.125,-3.594 c 1.145,-0.625 1.719,-1.094 1.719,-1.406 l 1.641,-1.172 c 4.063,-3.02 8.801,-4.947 14.219,-5.781 2.708,-0.416 5.963,-0.625 9.766,-0.625 2.758,0.001 5.545,0.21 8.357,0.626 z"
     id="path13" /><path
     inkscape:connector-curvature="0"
     d="m 219.34,325.029 h 25.625 l -7.031,43.984 H 219.34 v -43.984 z"
     id="path15" /><path
     inkscape:connector-curvature="0"
     d="m 328.559,231.514 -0.078,21.953 h -38.594 l -2.656,19.531 c 3.645,-1.041 7.5,-1.484 11.563,-1.328 3.801,-0.104 7.682,0.313 11.641,1.25 5.729,1.824 10.832,5.027 15.313,9.609 6.197,6.771 9.713,14.271 10.547,22.5 0.051,1.199 0.078,2.371 0.078,3.516 0,5 -0.652,9.324 -1.953,12.969 -2.396,5.574 -5.678,10.574 -9.844,15 -6.875,6.459 -15.262,9.688 -25.156,9.688 h -1.563 l -7.188,-0.469 c -7.5,-0.832 -14.012,-3.463 -19.531,-7.891 -7.137,-6.563 -11.537,-13.307 -13.203,-20.234 l 22.5,-5.703 c 0.676,3.074 2.447,5.834 5.313,8.281 4.322,3.178 10.416,3.828 18.281,1.953 6.51,-2.656 9.557,-7.291 9.141,-13.906 0.156,-5.988 -2.553,-10.234 -8.125,-12.734 -3.855,-1.145 -8.203,-1.457 -13.047,-0.938 -3.699,0.781 -7.006,2.215 -9.922,4.297 l -19.453,-15.234 5.781,-52.109 h 60.155 z"
     id="path17" /><path
     inkscape:connector-curvature="0"
     d="m 368.15,277.869 h 16.282 v 4.482 c 3.075,-2.812 7.602,-4.504 13.578,-5.076 h 0.726 c 6.064,0 10.173,1.033 12.327,3.098 2.637,1.318 4.789,3.67 6.459,7.053 4.088,-6.767 9.646,-10.151 16.678,-10.151 h 5.734 c 6.372,0.791 11.009,3.055 13.909,6.79 3.647,4.087 5.976,9.69 6.987,16.81 v 45.416 h -16.414 v -42.912 c -1.318,-6.547 -4.769,-9.821 -10.349,-9.821 -6.636,-0.175 -10.415,3.517 -11.338,11.074 v 41.659 h -16.413 v -41.396 c -0.748,-7.821 -4.396,-11.646 -10.943,-11.47 -6.064,0.176 -9.47,3.955 -10.217,11.338 l -0.197,41.527 h -16.941 l 0.132,-68.421 z"
     id="path19" /></g>
</svg>