<?xml version="1.0" encoding="UTF-8" standalone="no"?>
<!-- Generator: Adobe Illustrator 16.0.2, SVG Export Plug-In . SVG Version: 6.00 Build 0)  -->

<svg
   xmlns:dc="http://purl.org/dc/elements/1.1/"
   xmlns:cc="http://creativecommons.org/ns#"
   xmlns:rdf="http://www.w3.org/1999/02/22-rdf-syntax-ns#"
   xmlns:svg="http://www.w3.org/2000/svg"
   xmlns="http://www.w3.org/2000/svg"
   xmlns:sodipodi="http://sodipodi.sourceforge.net/DTD/sodipodi-0.dtd"
   xmlns:inkscape="http://www.inkscape.org/namespaces/inkscape"
   version="1.1"
   id="Ebene_1"
   x="0px"
   y="0px"
   width="576px"
   height="576px"
   viewBox="0 0 576 576"
   style="enable-background:new 0 0 576 576;"
   xml:space="preserve"
   inkscape:version="0.48.1 "
   sodipodi:docname="B13.svg"
   inkscape:export-filename="C:\Documents and Settings\bertrand.bouteilles\Bureau\Panneaux\A - Route\3_interdiction\B13.png"
   inkscape:export-xdpi="150"
   inkscape:export-ydpi="150"><metadata
   id="metadata33"><rdf:RDF><cc:Work
       rdf:about=""><dc:format>image/svg+xml</dc:format><dc:type
         rdf:resource="http://purl.org/dc/dcmitype/StillImage" /><dc:title></dc:title><cc:license
         rdf:resource="http://creativecommons.org/licenses/publicdomain/" /><dc:creator><cc:Agent><dc:title>Bertrand Bouteilles</dc:title></cc:Agent></dc:creator></cc:Work><cc:License
       rdf:about="http://creativecommons.org/licenses/publicdomain/"><cc:permits
         rdf:resource="http://creativecommons.org/ns#Reproduction" /><cc:permits
         rdf:resource="http://creativecommons.org/ns#Distribution" /><cc:permits
         rdf:resource="http://creativecommons.org/ns#DerivativeWorks" /></cc:License></rdf:RDF></metadata><defs
   id="defs31">
	
	

	
	

	
	
</defs><sodipodi:namedview
   pagecolor="#ffffff"
   bordercolor="#666666"
   borderopacity="1"
   objecttolerance="10"
   gridtolerance="10"
   guidetolerance="10"
   inkscape:pageopacity="0"
   inkscape:pageshadow="2"
   inkscape:window-width="1920"
   inkscape:window-height="1174"
   id="namedview29"
   showgrid="false"
   inkscape:zoom="0.71938295"
   inkscape:cx="-26.811268"
   inkscape:cy="169.12234"
   inkscape:window-x="1276"
   inkscape:window-y="-4"
   inkscape:window-maximized="1"
   inkscape:current-layer="Ebene_1" />
<circle
   style="fill:#ffffff;stroke:#000000;stroke-width:2;stroke-linecap:round;stroke-linejoin:round"
   cx="287.96899"
   cy="287.96899"
   r="286.96899"
   id="circle3"
   sodipodi:cx="287.96899"
   sodipodi:cy="287.96899"
   sodipodi:rx="286.96899"
   sodipodi:ry="286.96899"
   transform="translate(0.03100586,0.03100586)" />
<circle
   style="fill:#ff0000;stroke:#ff0000;stroke-width:0.17640001000000000;stroke-linecap:round;stroke-linejoin:round"
   cx="287.96899"
   cy="287.96899"
   r="273.98199"
   id="circle5"
   sodipodi:cx="287.96899"
   sodipodi:cy="287.96899"
   sodipodi:rx="273.98199"
   sodipodi:ry="273.98199"
   transform="translate(0.03100586,0.03100586)" />
<circle
   style="fill:#ffffff;stroke:#ff0000;stroke-width:0.17640001;stroke-linecap:round;stroke-linejoin:round"
   cx="286.63501"
   cy="287.63501"
   r="192.438"
   id="circle7"
   sodipodi:cx="286.63501"
   sodipodi:cy="287.63501"
   sodipodi:rx="192.438"
   sodipodi:ry="192.438"
   transform="translate(1.3649902,0.36499023)" />



<g
   id="g3016"
   transform="translate(515.79189,-491.98037)"><polygon
     transform="translate(-517.02389,471.80887)"
     id="polygon9"
     points="245.468,384.635 245.468,337.302 267.802,337.302 260.968,384.635 " /><path
     d="m -293.45189,703.51687 -0.092,25.932 h -45.59 l -3.138,23.071 c 4.306,-1.23 8.859,-1.753 13.658,-1.569 4.49,-0.123 9.074,0.369 13.75,1.477 6.767,2.154 12.796,5.938 18.088,11.351 7.321,7.999 11.474,16.858 12.458,26.578 0.061,1.416 0.092,2.8 0.092,4.153 0,5.906 -0.77,11.014 -2.307,15.318 -2.831,6.584 -6.707,12.49 -11.628,17.719 -8.121,7.629 -18.027,11.443 -29.716,11.443 h -1.846 l -8.49,-0.553 c -8.859,-0.984 -16.551,-4.092 -23.071,-9.32 -8.43,-7.752 -13.628,-15.721 -15.596,-23.902 l 26.578,-6.737 c 0.799,3.631 2.891,6.892 6.275,9.782 5.106,3.754 12.304,4.521 21.595,2.307 7.69,-3.137 11.289,-8.612 10.797,-16.426 0.185,-7.074 -3.015,-12.09 -9.598,-15.043 -4.554,-1.353 -9.69,-1.722 -15.412,-1.107 -4.369,0.923 -8.275,2.615 -11.72,5.076 l -22.979,-17.996 6.829,-61.554 h 71.063 z"
     id="path15"
     inkscape:connector-curvature="0" /><path
     d="m -171.39089,732.74587 -0.068,19.209 h -33.77 l -2.324,17.09 c 3.189,-0.912 6.563,-1.299 10.117,-1.162 3.326,-0.092 6.722,0.273 10.186,1.094 5.013,1.596 9.479,4.398 13.398,8.408 5.423,5.924 8.499,12.486 9.229,19.688 0.045,1.049 0.068,2.074 0.068,3.076 0,4.375 -0.57,8.158 -1.709,11.348 -2.097,4.877 -4.968,9.252 -8.613,13.125 -6.016,5.65 -13.354,8.477 -22.012,8.477 h -1.367 l -6.289,-0.41 c -6.563,-0.729 -12.26,-3.031 -17.09,-6.904 -6.244,-5.742 -10.095,-11.645 -11.553,-17.705 l 19.688,-4.99 c 0.592,2.689 2.142,5.104 4.648,7.246 3.782,2.779 9.114,3.35 15.996,1.709 5.696,-2.324 8.362,-6.381 7.998,-12.168 0.137,-5.24 -2.233,-8.955 -7.109,-11.143 -3.373,-1.002 -7.178,-1.275 -11.416,-0.82 -3.236,0.684 -6.13,1.938 -8.682,3.76 l -17.021,-13.33 5.059,-45.596 h 52.636 z"
     id="path21"
     inkscape:connector-curvature="0" /><path
     d="m -124.24289,729.40187 21.58,-5.607 v 20.136 h 16.228 v 20.22 h -16.228 v 44.436 c 0.51,4.531 3.256,6.826 8.241,6.881 3.398,-0.17 6.598,-1.217 9.601,-3.143 l 6.117,17.842 c -5.042,2.662 -11.018,4.162 -17.927,4.502 h -0.34 c -8.156,0 -14.671,-2.152 -19.541,-6.457 -4.532,-3.963 -7.137,-10.648 -7.816,-20.051 v -44.01 h -10.875 l -0.085,-20.56 h 11.13 l -0.085,-14.189 z"
     id="path27"
     inkscape:connector-curvature="0" /></g>
</svg>