<?xml version="1.0" encoding="UTF-8" standalone="no"?>
<!-- Generator: Adobe Illustrator 16.0.2, SVG Export Plug-In . SVG Version: 6.00 Build 0)  -->

<svg
   xmlns:dc="http://purl.org/dc/elements/1.1/"
   xmlns:cc="http://creativecommons.org/ns#"
   xmlns:rdf="http://www.w3.org/1999/02/22-rdf-syntax-ns#"
   xmlns:svg="http://www.w3.org/2000/svg"
   xmlns="http://www.w3.org/2000/svg"
   xmlns:sodipodi="http://sodipodi.sourceforge.net/DTD/sodipodi-0.dtd"
   xmlns:inkscape="http://www.inkscape.org/namespaces/inkscape"
   version="1.1"
   id="Layer_1"
   inkscape:output_extension="org.inkscape.output.svg.inkscape"
   inkscape:version="0.48.1 "
   sodipodi:docname="B14_30.svg"
   sodipodi:version="0.32"
   x="0px"
   y="0px"
   width="576px"
   height="576px"
   viewBox="0 0 576 576"
   style="enable-background:new 0 0 576 576;"
   xml:space="preserve"
   inkscape:export-filename="C:\Documents and Settings\bertrand.bouteilles\Bureau\Panneaux\A - Route\3_interdiction\B14_30.png"
   inkscape:export-xdpi="150"
   inkscape:export-ydpi="150"><metadata
   id="metadata18"><rdf:RDF><cc:Work
       rdf:about=""><dc:format>image/svg+xml</dc:format><dc:type
         rdf:resource="http://purl.org/dc/dcmitype/StillImage" /><dc:title></dc:title></cc:Work></rdf:RDF></metadata>
<defs
   id="defs3">
	
	
		<inkscape:perspective
   id="perspective2469"
   inkscape:vp_z="576 : 288 : 1"
   inkscape:vp_x="0 : 288 : 1"
   sodipodi:type="inkscape:persp3d"
   inkscape:vp_y="0 : 1000 : 0"
   inkscape:persp3d-origin="288 : 192 : 1">
		</inkscape:perspective>

	
	
	
</defs>
<sodipodi:namedview
   id="base"
   gridtolerance="10.0"
   borderopacity="1.0"
   showgrid="false"
   guidetolerance="10.0"
   bordercolor="#666666"
   inkscape:cy="319.29702"
   pagecolor="#ffffff"
   inkscape:zoom="0.54954702"
   objecttolerance="10.0"
   inkscape:cx="472.75672"
   inkscape:pageopacity="0.0"
   inkscape:pageshadow="2"
   inkscape:window-width="1280"
   inkscape:window-height="964"
   inkscape:current-layer="Layer_1"
   inkscape:window-y="16"
   inkscape:window-x="1429"
   inkscape:window-maximized="1">
	</sodipodi:namedview>
<circle
   id="circle2448"
   style="fill:#ffffff;stroke:#000000;stroke-width:2;stroke-linecap:round;stroke-linejoin:round;stroke-miterlimit:4;stroke-dasharray:none"
   cx="287.05701"
   cy="287.05701"
   r="286.96899"
   sodipodi:cx="287.05701"
   sodipodi:cy="287.05701"
   sodipodi:rx="286.96899"
   sodipodi:ry="286.96899"
   transform="matrix(1.0001077,0,0,1.0001077,0.94309135,0.88107964)" />
<circle
   id="circle2450"
   style="fill:#ff0000;stroke:#ff0000;stroke-width:2;stroke-linecap:round;stroke-linejoin:round;stroke-miterlimit:4;stroke-dasharray:none"
   cx="287.05701"
   cy="287.05701"
   r="273.98199"
   sodipodi:cx="287.05701"
   sodipodi:cy="287.05701"
   sodipodi:rx="273.98199"
   sodipodi:ry="273.98199"
   transform="matrix(1.0001077,0,0,1.0001077,0.94309135,0.88107964)" />
<circle
   id="circle2452"
   style="fill:#ffffff;stroke:#ff0000;stroke-width:0.17640001;stroke-linecap:round;stroke-linejoin:round"
   cx="287.05701"
   cy="287.05701"
   r="192.438"
   sodipodi:cx="287.05701"
   sodipodi:cy="287.05701"
   sodipodi:rx="192.438"
   sodipodi:ry="192.438"
   transform="matrix(1.0001077,0,0,1.0001077,0.94309135,0.88107964)" />
<g
   id="g3760"
   transform="matrix(1.0001077,0,0,1.0001077,-3.1953473,-0.06201506)"><path
     style="fill:#000000"
     d="m 213.724,191.8545 c 7.536,1.49 14.706,4.379 21.51,8.669 l 9.376,7.618 c 4.137,4.729 6.802,8.057 7.998,9.982 l 4.274,8.144 c 2.389,6.655 3.675,13.442 3.86,20.359 l -0.689,9.982 -2.344,7.355 c -2.667,6.305 -6.804,12.697 -12.41,19.176 l 0.689,1.708 6.619,6.962 4.274,6.173 3.86,9.194 c 2.114,6.393 3.171,12.654 3.171,18.783 0,12.435 -4.367,24.256 -13.099,35.463 -13.237,15.15 -30.382,23.074 -51.431,23.774 -7.631,0 -13.926,-0.438 -18.89,-1.313 -6.435,-1.662 -10.985,-3.064 -13.65,-4.203 l -8.273,-3.94 -7.032,-4.86 -6.343,-5.385 -6.48,-8.012 c -3.77,-5.866 -6.435,-11.428 -7.997,-16.682 l -0.138,-1.182 36.263,-9.457 c 1.745,6.566 6.112,11.559 13.099,14.973 4.319,1.665 10.708,2.584 19.166,2.759 l 6.48,-0.657 5.24,-1.576 3.999,-2.232 c 2.758,-1.751 5.24,-4.334 7.446,-7.75 1.103,-2.188 1.93,-5.165 2.482,-8.932 0.183,-3.063 0,-4.814 -0.552,-5.254 0.183,-1.399 -0.461,-3.546 -1.93,-6.436 l -3.447,-4.598 c -2.482,-2.363 -4.643,-3.983 -6.48,-4.859 -2.299,-1.226 -5.377,-2.232 -9.238,-3.021 l -15.029,-0.394 v -35.595 c 2.021,0.176 6.02,-0.087 11.996,-0.789 l 0.276,0.264 c 10.938,-1.226 17.832,-6.917 20.682,-17.076 l -0.275,-5.91 0.275,-0.92 -0.551,-1.838 -2.62,-4.86 c -2.575,-3.064 -4.919,-5.077 -7.032,-6.042 -0.369,-0.263 -3.495,-1.051 -9.376,-2.364 l -8.687,0.263 v -0.263 l -8.548,1.313 -6.067,2.496 -2.482,1.838 -2.758,3.81 -2.068,4.86 -35.85,-10.246 2.344,-5.91 0.827,-0.788 c -0.186,-0.437 0.873,-2.627 3.171,-6.567 l 3.86,-5.911 5.516,-6.042 c 2.021,-1.051 3.033,-1.839 3.033,-2.364 l 2.896,-1.97 c 7.17,-5.078 15.534,-8.318 25.095,-9.72 4.778,-0.7 10.524,-1.051 17.235,-1.051 4.872,0 9.79,0.351 14.754,1.051 z"
     id="path14"
     inkscape:connector-curvature="0" /><path
     style="fill:#000000"
     d="m 304.823,308.358 c -0.275,-4.903 -0.413,-9.72 -0.413,-14.448 0,-2.364 0.045,-4.729 0.138,-7.093 0.275,-9.28 1.056,-18.301 2.344,-27.058 v -0.919 l 0.552,-1.183 0.965,-9.063 0.689,-1.313 1.379,-7.355 0.552,-0.789 c 1.379,-6.305 4.364,-13.396 8.962,-21.278 l 3.999,-5.779 7.722,-7.487 c 8.18,-6.305 18.797,-10.813 31.851,-13.529 4.137,-0.7 8.411,-1.051 12.823,-1.051 h 1.104 c 6.894,0.176 14.109,1.271 21.647,3.284 3.124,0.351 8.135,2.321 15.029,5.911 7.077,4.203 13.513,9.939 19.304,17.207 l 4.412,6.436 3.585,7.224 1.517,5.254 0.414,0.395 v 1.313 c 0.918,1.84 1.469,3.284 1.654,4.335 l 0.552,0.657 2.344,11.689 0.414,0.263 -0.276,1.708 0.552,1.051 1.379,14.054 0.552,1.313 -0.414,0.131 0.966,8.275 -0.276,0.263 c 0.366,0.876 0.366,1.401 0,1.576 l 0.414,1.313 -0.276,0.395 0.689,8.932 -0.275,0.262 0.414,3.81 -0.139,0.263 v 5.254 c -0.092,3.24 -0.368,7.138 -0.827,11.689 l -0.689,4.86 0.276,0.263 -0.689,1.313 c -0.276,3.24 -1.059,7.093 -2.345,11.559 l -0.827,2.495 -0.138,1.445 -3.585,9.72 -0.689,0.525 c 0,0.876 -1.195,3.546 -3.585,8.013 l -6.618,9.063 c -7.263,7.969 -15.306,13.791 -24.13,17.469 -5.791,2.19 -11.63,3.633 -17.511,4.335 l -10.617,0.657 -2.482,-0.132 c -20.958,-0.525 -37.872,-7.005 -50.741,-19.439 -6.342,-6.742 -11.123,-14.579 -14.34,-23.511 -3.678,-9.106 -5.929,-18.695 -6.756,-28.766 l -0.556,-5.781 z m 68.666,39.667 c 5.698,0.351 9.238,0.263 10.617,-0.263 l 0.138,0.263 7.584,-1.576 c 6.066,-1.925 10.707,-6.085 13.926,-12.478 2.482,-6.392 4.32,-14.01 5.516,-22.855 l 0.689,-29.684 -0.414,-13.924 -1.379,-10.376 -0.551,-0.525 -1.793,-7.355 -0.552,-0.263 c -1.379,-5.254 -3.998,-10.113 -7.859,-14.58 -2.942,-2.275 -5.287,-3.764 -7.031,-4.465 l -7.998,-1.84 -8.41,-0.394 c -3.771,-0.086 -7.952,0.657 -12.548,2.233 -4.229,1.927 -7.769,5.385 -10.617,10.376 -2.022,4.643 -3.86,10.465 -5.515,17.47 l 0.275,0.787 c -0.552,0.439 -0.875,1.885 -0.965,4.335 -1.289,10.245 -1.427,25.264 -0.414,45.052 l 2.206,14.317 2.896,10.114 c 2.113,5.254 5.009,9.063 8.687,11.427 3.308,2.016 7.811,3.416 13.512,4.204 z"
     id="path16"
     inkscape:connector-curvature="0" /></g>
</svg>