<?xml version="1.0" encoding="UTF-8" standalone="no"?>
<!-- Generator: Adobe Illustrator 16.0.2, SVG Export Plug-In . SVG Version: 6.00 Build 0)  -->

<svg
   xmlns:dc="http://purl.org/dc/elements/1.1/"
   xmlns:cc="http://creativecommons.org/ns#"
   xmlns:rdf="http://www.w3.org/1999/02/22-rdf-syntax-ns#"
   xmlns:svg="http://www.w3.org/2000/svg"
   xmlns="http://www.w3.org/2000/svg"
   xmlns:sodipodi="http://sodipodi.sourceforge.net/DTD/sodipodi-0.dtd"
   xmlns:inkscape="http://www.inkscape.org/namespaces/inkscape"
   version="1.1"
   id="Layer_1"
   inkscape:output_extension="org.inkscape.output.svg.inkscape"
   inkscape:version="0.48.1 "
   sodipodi:docname="B14_90.svg"
   sodipodi:version="0.32"
   x="0px"
   y="0px"
   width="576px"
   height="576px"
   viewBox="0 0 576 576"
   style="enable-background:new 0 0 576 576;"
   xml:space="preserve"
   inkscape:export-filename="C:\Documents and Settings\bertrand.bouteilles\Bureau\Panneaux\A - Route\3_interdiction\B14_90.png"
   inkscape:export-xdpi="150"
   inkscape:export-ydpi="150"><metadata
   id="metadata18"><rdf:RDF><cc:Work
       rdf:about=""><dc:format>image/svg+xml</dc:format><dc:type
         rdf:resource="http://purl.org/dc/dcmitype/StillImage" /><dc:title></dc:title></cc:Work></rdf:RDF></metadata>
<defs
   id="defs3">
	
	
		<inkscape:perspective
   id="perspective2469"
   inkscape:vp_z="576 : 288 : 1"
   inkscape:vp_x="0 : 288 : 1"
   sodipodi:type="inkscape:persp3d"
   inkscape:vp_y="0 : 1000 : 0"
   inkscape:persp3d-origin="288 : 192 : 1">
		</inkscape:perspective>

	
	
	
</defs>
<sodipodi:namedview
   id="base"
   gridtolerance="10.0"
   borderopacity="1.0"
   showgrid="false"
   guidetolerance="10.0"
   bordercolor="#666666"
   inkscape:cy="311.23092"
   pagecolor="#ffffff"
   inkscape:zoom="0.54954702"
   objecttolerance="10.0"
   inkscape:cx="-246.23703"
   inkscape:pageopacity="0.0"
   inkscape:pageshadow="2"
   inkscape:window-width="1280"
   inkscape:window-height="964"
   inkscape:current-layer="Layer_1"
   inkscape:window-y="21"
   inkscape:window-x="-4"
   inkscape:window-maximized="1">
	</sodipodi:namedview>
<circle
   id="circle2448"
   style="fill:#FFFFFF;stroke:#000000;stroke-linecap:round;stroke-linejoin:round;"
   cx="287.057"
   cy="287.057"
   r="286.969" />
<circle
   id="circle2450"
   style="fill:#ff0000;stroke:#FF0000;stroke-width:0.17640000000000000;stroke-linecap:round;stroke-linejoin:round"
   cx="287.057"
   cy="287.057"
   r="273.982" />
<circle
   id="circle2452"
   style="fill:#FFFFFF;stroke:#FF0000;stroke-width:0.1764;stroke-linecap:round;stroke-linejoin:round;"
   cx="287.057"
   cy="287.057"
   r="192.438" />
<path
   inkscape:connector-curvature="0"
   id="path14"
   d="m 180.632,200.522 v 0.263 c 5.239,-0.525 10.203,-0.788 14.891,-0.788 15.443,0 27.805,2.847 37.091,8.538 12.041,7.444 20.245,16.595 24.612,27.452 4.365,10.858 7.101,23.599 8.204,38.222 0.459,6.042 0.689,12.216 0.689,18.521 0,8.932 -0.461,18.171 -1.379,27.714 -1.564,16.112 -5.608,30.21 -12.134,42.294 -12.319,18.389 -28.865,28.811 -49.638,31.261 -1.747,0.086 -3.402,0.132 -4.964,0.132 -40.079,0 -64.301,-15.368 -72.665,-46.104 l 38.332,-9.72 2.206,3.94 c 4.413,9.02 13.789,13.529 28.128,13.529 12.593,-0.612 21.003,-5.604 25.233,-14.975 2.206,-4.114 4.458,-16.549 6.756,-37.303 -19.213,12.698 -39.573,15.413 -61.083,8.145 -20.316,-8.145 -32.679,-20.622 -37.091,-37.435 -0.827,-4.903 -1.241,-9.632 -1.241,-14.186 0,-15.06 4.733,-28.195 14.202,-39.404 10.387,-11.47 23.531,-18.169 39.435,-20.096 h 0.416 z m 9.238,79.072 c 19.579,0.701 30.563,-6.174 32.954,-20.622 -0.276,-14.009 -8.228,-21.89 -23.854,-23.643 -19.672,-1.576 -30.795,4.86 -33.368,19.308 -0.461,14.974 7.63,23.294 24.268,24.957 z"
   style="fill:#000000" /><path
   inkscape:connector-curvature="0"
   id="path16"
   d="m 307.03,317.553 c -0.275,-4.903 -0.413,-9.72 -0.413,-14.448 0,-2.364 0.045,-4.729 0.138,-7.093 0.275,-9.28 1.056,-18.301 2.344,-27.058 v -0.919 l 0.552,-1.183 0.965,-9.063 0.689,-1.313 1.379,-7.355 0.552,-0.789 c 1.379,-6.305 4.364,-13.396 8.962,-21.278 l 3.999,-5.779 7.722,-7.487 c 8.18,-6.305 18.797,-10.813 31.851,-13.529 4.137,-0.7 8.411,-1.051 12.823,-1.051 h 1.104 c 6.894,0.176 14.109,1.271 21.647,3.284 3.124,0.351 8.135,2.321 15.029,5.911 7.077,4.203 13.513,9.939 19.304,17.207 l 4.412,6.436 3.585,7.224 1.517,5.254 0.414,0.395 v 1.313 c 0.918,1.84 1.469,3.284 1.654,4.335 l 0.552,0.657 2.344,11.689 0.414,0.263 -0.276,1.708 0.552,1.051 1.379,14.054 0.552,1.313 -0.414,0.131 0.966,8.275 -0.276,0.263 c 0.366,0.876 0.366,1.401 0,1.576 l 0.414,1.313 -0.276,0.395 0.689,8.932 -0.275,0.262 0.414,3.81 -0.139,0.263 v 5.254 c -0.092,3.24 -0.368,7.138 -0.827,11.689 l -0.689,4.86 0.276,0.263 -0.689,1.313 c -0.276,3.24 -1.059,7.093 -2.345,11.559 l -0.827,2.495 -0.138,1.445 -3.585,9.72 -0.689,0.525 c 0,0.876 -1.195,3.546 -3.585,8.013 l -6.618,9.063 c -7.263,7.969 -15.306,13.791 -24.13,17.469 -5.791,2.19 -11.63,3.633 -17.511,4.335 l -10.617,0.657 -2.482,-0.132 c -20.958,-0.525 -37.872,-7.005 -50.741,-19.439 -6.342,-6.742 -11.123,-14.579 -14.34,-23.511 -3.678,-9.106 -5.929,-18.695 -6.756,-28.766 l -0.556,-5.781 z m 68.666,39.667 c 5.698,0.351 9.238,0.263 10.617,-0.263 l 0.138,0.263 7.584,-1.576 c 6.066,-1.925 10.707,-6.085 13.926,-12.478 2.482,-6.392 4.32,-14.01 5.516,-22.855 l 0.689,-29.684 -0.414,-13.924 -1.379,-10.376 -0.551,-0.525 -1.793,-7.355 -0.552,-0.263 c -1.379,-5.254 -3.998,-10.113 -7.859,-14.58 -2.942,-2.275 -5.287,-3.764 -7.031,-4.465 l -7.998,-1.84 -8.41,-0.394 c -3.771,-0.086 -7.952,0.657 -12.548,2.233 -4.229,1.927 -7.769,5.385 -10.617,10.376 -2.022,4.643 -3.86,10.465 -5.515,17.47 l 0.275,0.787 c -0.552,0.439 -0.875,1.885 -0.965,4.335 -1.289,10.245 -1.427,25.264 -0.414,45.052 l 2.206,14.317 2.896,10.114 c 2.113,5.254 5.009,9.063 8.687,11.427 3.308,2.016 7.811,3.416 13.512,4.204 z"
   style="fill:#000000" />
</svg>