<?xml version="1.0" encoding="UTF-8" standalone="no"?>
<!-- Generator: Adobe Illustrator 16.0.2, SVG Export Plug-In . SVG Version: 6.00 Build 0)  -->

<svg
   xmlns:dc="http://purl.org/dc/elements/1.1/"
   xmlns:cc="http://creativecommons.org/ns#"
   xmlns:rdf="http://www.w3.org/1999/02/22-rdf-syntax-ns#"
   xmlns:svg="http://www.w3.org/2000/svg"
   xmlns="http://www.w3.org/2000/svg"
   xmlns:sodipodi="http://sodipodi.sourceforge.net/DTD/sodipodi-0.dtd"
   xmlns:inkscape="http://www.inkscape.org/namespaces/inkscape"
   version="1.1"
   id="Layer_1"
   inkscape:output_extension="org.inkscape.output.svg.inkscape"
   inkscape:version="0.48.1 "
   sodipodi:docname="B14_130.svg"
   sodipodi:version="0.32"
   x="0px"
   y="0px"
   width="576px"
   height="576px"
   viewBox="0 0 576 576"
   style="enable-background:new 0 0 576 576;"
   xml:space="preserve"
   inkscape:export-filename="C:\Documents and Settings\bertrand.bouteilles\Bureau\Panneaux\A - Route\3_interdiction\B14_130.png"
   inkscape:export-xdpi="150"
   inkscape:export-ydpi="150"><metadata
   id="metadata20"><rdf:RDF><cc:Work
       rdf:about=""><dc:format>image/svg+xml</dc:format><dc:type
         rdf:resource="http://purl.org/dc/dcmitype/StillImage" /><dc:title></dc:title></cc:Work></rdf:RDF></metadata>
<defs
   id="defs3">
	
	
		<inkscape:perspective
   id="perspective2469"
   inkscape:vp_z="576 : 288 : 1"
   inkscape:vp_x="0 : 288 : 1"
   sodipodi:type="inkscape:persp3d"
   inkscape:vp_y="0 : 1000 : 0"
   inkscape:persp3d-origin="288 : 192 : 1">
		</inkscape:perspective>

	
	
	
	
</defs>
<sodipodi:namedview
   id="base"
   gridtolerance="10.0"
   borderopacity="1.0"
   showgrid="false"
   guidetolerance="10.0"
   bordercolor="#666666"
   inkscape:cy="311.23092"
   pagecolor="#ffffff"
   inkscape:zoom="0.54954702"
   objecttolerance="10.0"
   inkscape:cx="-246.23703"
   inkscape:pageopacity="0.0"
   inkscape:pageshadow="2"
   inkscape:window-width="1280"
   inkscape:window-height="964"
   inkscape:current-layer="Layer_1"
   inkscape:window-y="25"
   inkscape:window-x="0"
   inkscape:window-maximized="1">
	</sodipodi:namedview>



<circle
   id="circle2448"
   style="fill:#ffffff;stroke:#000000;stroke-width:2;stroke-linecap:round;stroke-linejoin:round;stroke-miterlimit:4;stroke-dasharray:none"
   cx="287.05701"
   cy="287.05701"
   r="286.96899"
   sodipodi:cx="287.05701"
   sodipodi:cy="287.05701"
   sodipodi:rx="286.96899"
   sodipodi:ry="286.96899"
   transform="matrix(1.0001077,0,0,1.0001077,0.91207712,0.91207712)" /><circle
   id="circle2450"
   style="fill:#ff0000;stroke:#ff0000;stroke-width:2;stroke-linecap:round;stroke-linejoin:round;stroke-miterlimit:4;stroke-dasharray:none"
   cx="287.05701"
   cy="287.05701"
   r="273.98199"
   sodipodi:cx="287.05701"
   sodipodi:cy="287.05701"
   sodipodi:rx="273.98199"
   sodipodi:ry="273.98199"
   transform="matrix(1.0001077,0,0,1.0001077,0.91207712,0.91207712)" /><circle
   id="circle2452"
   style="fill:#ffffff;stroke:#ff0000;stroke-width:0.17640001;stroke-linecap:round;stroke-linejoin:round"
   cx="287.05701"
   cy="287.05701"
   r="192.438"
   sodipodi:cx="287.05701"
   sodipodi:cy="287.05701"
   sodipodi:rx="192.438"
   sodipodi:ry="192.438"
   transform="matrix(1.0001077,0,0,1.0001077,0.91207712,0.91207712)" /><path
   inkscape:connector-curvature="0"
   id="path14"
   d="m 181.5,207.271 v 164.258 h -32.749 l 0.118,-115.954 h -0.47 c -0.235,0.97 -3.052,3.095 -8.452,6.374 l -10.212,5.144 -9.156,3.354 c -3.679,0.746 -5.674,1.305 -5.986,1.677 v -34.663 l 7.278,-3.243 c 12.128,-7.38 20.853,-16.362 26.176,-26.948 H 181.5 z"
   style="fill:#000000" /><path
   inkscape:connector-curvature="0"
   id="path16"
   d="m 277.283,206.936 c 6.416,1.269 12.52,3.729 18.312,7.38 l 7.982,6.485 c 3.521,4.025 5.79,6.859 6.808,8.498 l 3.639,6.933 c 2.034,5.666 3.129,11.443 3.287,17.332 l -0.587,8.498 -1.996,6.262 c -2.271,5.367 -5.792,10.809 -10.563,16.324 l 0.587,1.454 5.634,5.927 3.639,5.255 3.287,7.827 c 1.799,5.442 2.699,10.772 2.699,15.99 0,10.585 -3.718,20.648 -11.15,30.189 -11.269,12.897 -25.864,19.644 -43.783,20.239 -6.497,0 -11.855,-0.372 -16.081,-1.118 -5.479,-1.415 -9.352,-2.608 -11.621,-3.578 l -7.043,-3.354 -5.986,-4.138 -5.399,-4.584 -5.517,-6.82 c -3.209,-4.994 -5.479,-9.729 -6.808,-14.201 l -0.117,-1.006 30.871,-8.051 c 1.485,5.59 5.203,9.84 11.151,12.746 3.677,1.417 9.115,2.2 16.316,2.349 l 5.517,-0.56 4.46,-1.342 3.404,-1.9 c 2.348,-1.49 4.461,-3.689 6.339,-6.598 0.938,-1.862 1.643,-4.397 2.112,-7.604 0.156,-2.608 0,-4.099 -0.47,-4.473 0.156,-1.191 -0.392,-3.019 -1.643,-5.479 l -2.935,-3.914 c -2.113,-2.012 -3.953,-3.391 -5.517,-4.137 -1.957,-1.043 -4.578,-1.9 -7.865,-2.572 l -12.794,-0.335 v -30.3 c 1.721,0.149 5.125,-0.074 10.212,-0.672 l 0.235,0.225 c 9.312,-1.044 15.18,-5.889 17.607,-14.537 l -0.234,-5.031 0.234,-0.783 -0.47,-1.564 -2.23,-4.138 c -2.191,-2.608 -4.187,-4.322 -5.986,-5.144 -0.314,-0.224 -2.975,-0.895 -7.982,-2.013 l -7.395,0.224 v -0.224 l -7.278,1.118 -5.165,2.124 -2.113,1.565 -2.348,3.243 -1.761,4.138 -30.519,-8.723 1.996,-5.031 0.704,-0.671 c -0.158,-0.372 0.743,-2.236 2.7,-5.591 l 3.287,-5.032 4.695,-5.144 c 1.721,-0.895 2.583,-1.565 2.583,-2.013 l 2.465,-1.677 c 6.104,-4.322 13.224,-7.081 21.363,-8.274 4.068,-0.596 8.959,-0.895 14.673,-0.895 4.146,0.001 8.333,0.3 12.558,0.896 z"
   style="fill:#000000" /><path
   inkscape:connector-curvature="0"
   id="path18"
   d="m 334.681,306.899 c -0.234,-4.174 -0.352,-8.274 -0.352,-12.3 0,-2.013 0.038,-4.025 0.117,-6.038 0.234,-7.9 0.898,-15.579 1.995,-23.034 v -0.782 l 0.47,-1.007 0.822,-7.716 0.587,-1.117 1.174,-6.262 0.469,-0.672 c 1.174,-5.367 3.716,-11.405 7.63,-18.114 l 3.404,-4.92 6.573,-6.374 c 6.964,-5.367 16.002,-9.206 27.115,-11.517 3.521,-0.596 7.16,-0.895 10.916,-0.895 h 0.939 c 5.868,0.15 12.011,1.082 18.429,2.795 2.659,0.299 6.925,1.976 12.794,5.032 6.025,3.578 11.503,8.461 16.434,14.648 l 3.756,5.479 3.052,6.15 1.291,4.473 0.353,0.336 v 1.117 c 0.781,1.566 1.251,2.796 1.408,3.69 l 0.47,0.56 1.995,9.951 0.353,0.224 -0.234,1.454 0.469,0.895 1.174,11.964 0.47,1.118 -0.352,0.111 0.821,7.045 -0.234,0.224 c 0.312,0.746 0.312,1.193 0,1.342 l 0.352,1.118 -0.234,0.336 0.587,7.604 -0.235,0.223 0.353,3.243 -0.117,0.224 v 4.473 c -0.079,2.759 -0.313,6.076 -0.704,9.951 l -0.587,4.138 0.234,0.224 -0.587,1.118 c -0.234,2.759 -0.9,6.038 -1.995,9.84 l -0.705,2.124 -0.117,1.23 -3.052,8.274 -0.587,0.447 c 0,0.746 -1.018,3.019 -3.052,6.821 l -5.634,7.715 c -6.183,6.784 -13.029,11.74 -20.542,14.871 -4.93,1.864 -9.9,3.093 -14.907,3.69 l -9.038,0.56 -2.113,-0.112 c -17.842,-0.447 -32.241,-5.963 -43.196,-16.549 -5.399,-5.739 -9.469,-12.411 -12.207,-20.015 -3.131,-7.753 -5.048,-15.915 -5.752,-24.488 l -0.473,-4.92 z m 58.456,33.769 c 4.851,0.299 7.864,0.224 9.038,-0.224 l 0.117,0.224 6.456,-1.342 c 5.165,-1.639 9.115,-5.181 11.855,-10.622 2.113,-5.441 3.678,-11.927 4.695,-19.457 l 0.587,-25.27 -0.353,-11.854 -1.174,-8.833 -0.469,-0.447 -1.526,-6.262 -0.47,-0.224 c -1.174,-4.473 -3.404,-8.609 -6.69,-12.412 -2.506,-1.938 -4.501,-3.204 -5.986,-3.801 l -6.809,-1.565 -7.16,-0.335 c -3.209,-0.073 -6.77,0.559 -10.682,1.901 -3.6,1.64 -6.613,4.584 -9.038,8.833 -1.722,3.952 -3.286,8.908 -4.695,14.872 l 0.235,0.67 c -0.47,0.374 -0.745,1.604 -0.822,3.69 -1.097,8.722 -1.214,21.507 -0.352,38.353 l 1.878,12.188 2.465,8.61 c 1.799,4.473 4.265,7.715 7.395,9.728 2.818,1.717 6.651,2.908 11.505,3.579 z"
   style="fill:#000000" />
</svg>