<?xml version="1.0" encoding="UTF-8" standalone="no"?>
<!-- Generator: Adobe Illustrator 16.0.2, SVG Export Plug-In . SVG Version: 6.00 Build 0)  -->

<svg
   xmlns:dc="http://purl.org/dc/elements/1.1/"
   xmlns:cc="http://creativecommons.org/ns#"
   xmlns:rdf="http://www.w3.org/1999/02/22-rdf-syntax-ns#"
   xmlns:svg="http://www.w3.org/2000/svg"
   xmlns="http://www.w3.org/2000/svg"
   xmlns:sodipodi="http://sodipodi.sourceforge.net/DTD/sodipodi-0.dtd"
   xmlns:inkscape="http://www.inkscape.org/namespaces/inkscape"
   version="1.1"
   id="Layer_1"
   sodipodi:docname="B14_50.svg"
   inkscape:version="0.48.1 "
   inkscape:output_extension="org.inkscape.output.svg.inkscape"
   sodipodi:version="0.32"
   x="0px"
   y="0px"
   width="576px"
   height="576px"
   viewBox="0 0 576 576"
   enable-background="new 0 0 576 576"
   xml:space="preserve"
   inkscape:export-filename="C:\Documents and Settings\bertrand.bouteilles\Bureau\Panneaux\A - Route\3_interdiction\B14_50.png"
   inkscape:export-xdpi="150"
   inkscape:export-ydpi="150"><metadata
   id="metadata18"><rdf:RDF><cc:Work
       rdf:about=""><dc:format>image/svg+xml</dc:format><dc:type
         rdf:resource="http://purl.org/dc/dcmitype/StillImage" /><dc:title></dc:title></cc:Work></rdf:RDF></metadata>
<defs
   id="defs3">
	
	
		<inkscape:perspective
   id="perspective2469"
   inkscape:persp3d-origin="288 : 192 : 1"
   sodipodi:type="inkscape:persp3d"
   inkscape:vp_x="0 : 288 : 1"
   inkscape:vp_y="0 : 1000 : 0"
   inkscape:vp_z="576 : 288 : 1">
		</inkscape:perspective>
</defs>
<sodipodi:namedview
   id="base"
   inkscape:current-layer="g10"
   inkscape:window-y="21"
   inkscape:window-x="-4"
   inkscape:window-height="964"
   inkscape:window-width="1280"
   inkscape:pageshadow="2"
   inkscape:pageopacity="0.0"
   objecttolerance="10.0"
   inkscape:cy="311.23092"
   borderopacity="1.0"
   showgrid="false"
   inkscape:cx="-246.23703"
   bordercolor="#666666"
   pagecolor="#ffffff"
   inkscape:zoom="0.54954702"
   guidetolerance="10.0"
   gridtolerance="10.0"
   inkscape:window-maximized="1">
	</sodipodi:namedview>



<g
   id="g10">
	
	<circle
   id="circle2448"
   style="fill:#ffffff;stroke:#000000;stroke-width:2;stroke-linecap:round;stroke-linejoin:round;stroke-miterlimit:4;stroke-dasharray:none"
   cx="287.05701"
   cy="287.05701"
   r="286.96899"
   sodipodi:cx="287.05701"
   sodipodi:cy="287.05701"
   sodipodi:rx="286.96899"
   sodipodi:ry="286.96899"
   transform="matrix(1.0001077,0,0,1.0001077,0.91207712,0.91207712)" /><circle
   id="circle2450"
   style="fill:#ff0000;stroke:#ff0000;stroke-width:2;stroke-linecap:round;stroke-linejoin:round;stroke-miterlimit:4;stroke-dasharray:none"
   cx="287.05701"
   cy="287.05701"
   r="273.98199"
   sodipodi:cx="287.05701"
   sodipodi:cy="287.05701"
   sodipodi:rx="273.98199"
   sodipodi:ry="273.98199"
   transform="matrix(1.0001077,0,0,1.0001077,0.91207712,0.91207712)" /><circle
   id="circle2452"
   style="fill:#ffffff;stroke:#ff0000;stroke-width:0.17640001;stroke-linecap:round;stroke-linejoin:round"
   cx="287.05701"
   cy="287.05701"
   r="192.438"
   sodipodi:cx="287.05701"
   sodipodi:cy="287.05701"
   sodipodi:rx="192.438"
   sodipodi:ry="192.438"
   transform="matrix(1.0001077,0,0,1.0001077,0.91207712,0.91207712)" />
	<g
   id="g3006"
   transform="translate(1.3845,-9.4275)"><path
     style="fill:#000000"
     id="path14"
     d="m 250.303,193.754 -0.142,39.528 h -70.192 l -4.831,35.167 c 6.629,-1.875 13.641,-2.673 21.029,-2.392 6.914,-0.187 13.971,0.563 21.171,2.25 10.419,3.284 19.702,9.051 27.85,17.302 11.271,12.192 17.666,25.696 19.182,40.513 0.093,2.158 0.142,4.269 0.142,6.33 0,9.003 -1.186,16.788 -3.552,23.352 -4.358,10.035 -10.326,19.038 -17.903,27.008 -12.504,11.63 -27.756,17.443 -45.753,17.443 h -2.842 l -13.072,-0.844 c -13.641,-1.499 -25.483,-6.236 -35.522,-14.208 -12.979,-11.816 -20.983,-23.96 -24.013,-36.434 L 162.777,338.5 c 1.23,5.534 4.451,10.504 9.662,14.911 7.861,5.722 18.944,6.893 33.249,3.517 11.84,-4.782 17.381,-13.128 16.625,-25.039 0.284,-10.783 -4.643,-18.428 -14.777,-22.929 -7.011,-2.062 -14.919,-2.625 -23.729,-1.688 -6.727,1.407 -12.742,3.987 -18.045,7.737 l -35.38,-27.431 10.515,-93.826 h 109.406 z"
     inkscape:connector-curvature="0" /><path
     style="fill:#000000"
     id="path16"
     d="m 299.908,319.23 c -0.284,-5.251 -0.426,-10.409 -0.426,-15.474 0,-2.532 0.047,-5.064 0.142,-7.596 0.284,-9.939 1.088,-19.6 2.416,-28.978 v -0.985 l 0.568,-1.266 0.994,-9.706 0.711,-1.407 1.421,-7.877 0.568,-0.844 c 1.421,-6.752 4.498,-14.349 9.235,-22.789 l 4.121,-6.189 7.957,-8.018 c 8.43,-6.752 19.371,-11.581 32.822,-14.489 4.263,-0.75 8.668,-1.125 13.215,-1.125 h 1.137 c 7.104,0.189 14.54,1.36 22.308,3.517 3.22,0.376 8.384,2.486 15.488,6.33 7.293,4.501 13.925,10.645 19.893,18.428 l 4.547,6.893 3.694,7.737 1.563,5.627 0.427,0.422 v 1.407 c 0.945,1.969 1.514,3.517 1.705,4.642 l 0.568,0.704 2.415,12.52 0.427,0.281 -0.284,1.829 0.568,1.125 1.421,15.051 0.568,1.407 -0.427,0.141 0.995,8.862 -0.284,0.282 c 0.377,0.938 0.377,1.501 0,1.688 l 0.426,1.407 -0.284,0.422 0.711,9.565 -0.284,0.281 0.426,4.079 -0.142,0.281 v 5.627 c -0.096,3.471 -0.38,7.645 -0.853,12.52 l -0.711,5.205 0.284,0.281 -0.71,1.406 c -0.284,3.471 -1.09,7.597 -2.416,12.379 l -0.853,2.673 -0.142,1.548 -3.694,10.409 -0.711,0.563 c 0,0.938 -1.231,3.798 -3.694,8.581 l -6.82,9.706 c -7.483,8.534 -15.771,14.771 -24.865,18.709 -5.968,2.345 -11.984,3.891 -18.046,4.642 l -10.94,0.704 -2.558,-0.141 c -21.598,-0.563 -39.028,-7.502 -52.289,-20.819 -6.536,-7.221 -11.463,-15.614 -14.777,-25.18 -3.79,-9.753 -6.11,-20.021 -6.963,-30.807 l -0.568,-6.191 z m 70.761,42.483 c 5.873,0.375 9.521,0.281 10.941,-0.282 l 0.142,0.282 7.815,-1.688 c 6.252,-2.062 11.034,-6.517 14.351,-13.363 2.558,-6.845 4.452,-15.004 5.684,-24.477 l 0.711,-31.791 -0.427,-14.911 -1.421,-11.113 -0.568,-0.563 -1.847,-7.878 -0.568,-0.281 c -1.421,-5.626 -4.121,-10.832 -8.1,-15.614 -3.032,-2.438 -5.448,-4.031 -7.246,-4.783 l -8.241,-1.969 -8.668,-0.422 c -3.885,-0.092 -8.194,0.703 -12.93,2.391 -4.358,2.064 -8.006,5.768 -10.941,11.113 -2.084,4.972 -3.979,11.208 -5.684,18.709 l 0.284,0.844 c -0.568,0.47 -0.901,2.018 -0.994,4.642 -1.328,10.972 -1.47,27.057 -0.427,48.25 l 2.273,15.333 2.984,10.831 c 2.178,5.627 5.162,9.706 8.951,12.238 3.412,2.158 8.052,3.657 13.926,4.502 z"
     inkscape:connector-curvature="0" /></g>
</g>
</svg>