<?xml version="1.0" encoding="UTF-8" standalone="no"?>
<!-- Generator: Adobe Illustrator 16.0.2, SVG Export Plug-In . SVG Version: 6.00 Build 0)  -->

<svg
   xmlns:dc="http://purl.org/dc/elements/1.1/"
   xmlns:cc="http://creativecommons.org/ns#"
   xmlns:rdf="http://www.w3.org/1999/02/22-rdf-syntax-ns#"
   xmlns:svg="http://www.w3.org/2000/svg"
   xmlns="http://www.w3.org/2000/svg"
   xmlns:sodipodi="http://sodipodi.sourceforge.net/DTD/sodipodi-0.dtd"
   xmlns:inkscape="http://www.inkscape.org/namespaces/inkscape"
   version="1.1"
   id="Layer_1"
   inkscape:output_extension="org.inkscape.output.svg.inkscape"
   inkscape:version="0.48.1 "
   sodipodi:docname="B14_15.svg"
   sodipodi:version="0.32"
   x="0px"
   y="0px"
   width="576px"
   height="576px"
   viewBox="0 0 576 576"
   style="enable-background:new 0 0 576 576;"
   xml:space="preserve"
   inkscape:export-filename="C:\Documents and Settings\bertrand.bouteilles\Bureau\Panneaux\A - Route\3_interdiction\B14_15.png"
   inkscape:export-xdpi="150"
   inkscape:export-ydpi="150"><metadata
   id="metadata18"><rdf:RDF><cc:Work
       rdf:about=""><dc:format>image/svg+xml</dc:format><dc:type
         rdf:resource="http://purl.org/dc/dcmitype/StillImage" /><dc:title></dc:title></cc:Work></rdf:RDF></metadata>
<defs
   id="defs3">
	
	
		<inkscape:perspective
   id="perspective2469"
   inkscape:vp_z="576 : 288 : 1"
   inkscape:vp_x="0 : 288 : 1"
   sodipodi:type="inkscape:persp3d"
   inkscape:vp_y="0 : 1000 : 0"
   inkscape:persp3d-origin="288 : 192 : 1">
		</inkscape:perspective>

	
	
	
</defs>
<sodipodi:namedview
   id="base"
   gridtolerance="10.0"
   borderopacity="1.0"
   showgrid="false"
   guidetolerance="10.0"
   bordercolor="#666666"
   inkscape:cy="323.96868"
   pagecolor="#ffffff"
   inkscape:zoom="0.54954702"
   objecttolerance="10.0"
   inkscape:cx="215.96182"
   inkscape:pageopacity="0.0"
   inkscape:pageshadow="2"
   inkscape:window-width="1280"
   inkscape:window-height="964"
   inkscape:current-layer="Layer_1"
   inkscape:window-y="25"
   inkscape:window-x="0"
   inkscape:window-maximized="1">
	</sodipodi:namedview>
<circle
   id="circle2448"
   style="fill:#ffffff;stroke:#000000;stroke-width:2;stroke-linecap:round;stroke-linejoin:round;stroke-miterlimit:4;stroke-dasharray:none"
   cx="287.05701"
   cy="287.05701"
   r="286.96899"
   sodipodi:cx="287.05701"
   sodipodi:cy="287.05701"
   sodipodi:rx="286.96899"
   sodipodi:ry="286.96899"
   transform="matrix(1.0001077,0,0,1.0001077,9.8194426e-5,-0.06191352)" />
<circle
   id="circle2450"
   style="fill:#ff0000;stroke:#ff0000;stroke-width:0.17640001;stroke-linecap:round;stroke-linejoin:round"
   cx="287.05701"
   cy="287.05701"
   r="273.98199"
   sodipodi:cx="287.05701"
   sodipodi:cy="287.05701"
   sodipodi:rx="273.98199"
   sodipodi:ry="273.98199"
   transform="matrix(1.0001077,0,0,1.0001077,9.8194426e-5,-0.06191352)" />
<circle
   id="circle2452"
   style="fill:#ffffff;stroke:#ff0000;stroke-width:0.17640001;stroke-linecap:round;stroke-linejoin:round"
   cx="287.05701"
   cy="287.05701"
   r="192.438"
   sodipodi:cx="287.05701"
   sodipodi:cy="287.05701"
   sodipodi:rx="192.438"
   sodipodi:ry="192.438"
   transform="matrix(1.0001077,0,0,1.0001077,9.8194426e-5,-0.06191352)" />
<g
   id="g2998"
   transform="matrix(1.0001077,0,0,1.0001077,-1.3275447,-8.9943752)"><path
     style="fill:#000000"
     d="m 226.338,200.522 v 192.95 h -38.469 l 0.138,-136.208 h -0.552 c -0.275,1.14 -3.585,3.635 -9.927,7.487 l -11.996,6.042 -10.755,3.94 c -4.322,0.876 -6.666,1.533 -7.032,1.97 v -40.717 l 8.549,-3.81 c 14.248,-8.669 24.496,-19.22 30.748,-31.655 h 39.296 z"
     id="path14"
     inkscape:connector-curvature="0" /><path
     style="fill:#000000"
     d="m 417.121,200.391 -0.138,36.908 h -68.114 l -4.688,32.838 c 6.434,-1.751 13.237,-2.496 20.407,-2.233 6.709,-0.175 13.558,0.525 20.545,2.102 10.11,3.066 19.118,8.451 27.024,16.155 10.938,11.385 17.144,23.994 18.614,37.828 0.091,2.016 0.139,3.986 0.139,5.911 0,8.406 -1.15,15.676 -3.447,21.804 -4.229,9.371 -10.021,17.777 -17.373,25.219 -12.134,10.858 -26.936,16.287 -44.399,16.287 h -2.757 l -12.686,-0.788 c -13.237,-1.399 -24.729,-5.822 -34.471,-13.267 -12.595,-11.033 -20.361,-22.372 -23.303,-34.019 l 39.711,-9.589 c 1.193,5.168 4.319,9.809 9.376,13.924 7.629,5.342 18.384,6.436 32.265,3.283 11.489,-4.466 16.867,-12.259 16.132,-23.38 0.276,-10.068 -4.505,-17.206 -14.34,-21.409 -6.804,-1.926 -14.478,-2.451 -23.026,-1.576 -6.527,1.313 -12.364,3.723 -17.511,7.224 L 300.748,288 310.951,200.391 h 106.17 z"
     id="path16"
     inkscape:connector-curvature="0" /></g>
</svg>