<?xml version="1.0" encoding="UTF-8" standalone="no"?>
<!-- Generator: Adobe Illustrator 13.0.0, SVG Export Plug-In . SVG Version: 6.00 Build 14948)  -->

<svg
   xmlns:dc="http://purl.org/dc/elements/1.1/"
   xmlns:cc="http://creativecommons.org/ns#"
   xmlns:rdf="http://www.w3.org/1999/02/22-rdf-syntax-ns#"
   xmlns:svg="http://www.w3.org/2000/svg"
   xmlns="http://www.w3.org/2000/svg"
   xmlns:sodipodi="http://sodipodi.sourceforge.net/DTD/sodipodi-0.dtd"
   xmlns:inkscape="http://www.inkscape.org/namespaces/inkscape"
   version="1.1"
   id="Layer_1"
   x="0px"
   y="0px"
   width="576px"
   height="576px"
   viewBox="-0.943 -0.943 576 576"
   enable-background="new -0.943 -0.943 576 576"
   xml:space="preserve"
   inkscape:version="0.48.1 "
   sodipodi:docname="B16.svg"
   inkscape:export-filename="C:\Documents and Settings\bertrand.bouteilles\Bureau\Panneaux\A - Route\3_interdiction\B16.png"
   inkscape:export-xdpi="150"
   inkscape:export-ydpi="150"><metadata
   id="metadata19"><rdf:RDF><cc:Work
       rdf:about=""><dc:format>image/svg+xml</dc:format><dc:type
         rdf:resource="http://purl.org/dc/dcmitype/StillImage" /><dc:title></dc:title></cc:Work></rdf:RDF></metadata><defs
   id="defs17" /><sodipodi:namedview
   pagecolor="#ffffff"
   bordercolor="#666666"
   borderopacity="1"
   objecttolerance="10"
   gridtolerance="10"
   guidetolerance="10"
   inkscape:pageopacity="0"
   inkscape:pageshadow="2"
   inkscape:window-width="1280"
   inkscape:window-height="964"
   id="namedview15"
   showgrid="false"
   inkscape:zoom="0.35969147"
   inkscape:cx="-169.15171"
   inkscape:cy="281.76169"
   inkscape:window-x="-4"
   inkscape:window-y="-4"
   inkscape:window-maximized="1"
   inkscape:current-layer="Layer_1" />
<circle
   fill="#FFFFFF"
   stroke="#000000"
   stroke-linecap="round"
   stroke-linejoin="round"
   cx="287.057"
   cy="287.057"
   r="286.969"
   id="circle3" />
<circle
   cx="287.057"
   cy="287.057"
   r="273.982"
   id="circle5"
   style="fill:#ff0000"
   stroke-linejoin="round"
   stroke-linecap="round"
   stroke-width="0.1764"
   stroke="#FF0000"
   fill="#FF0000" />
<path
   d="M444.894,397.146  c56.203-80.578,42.686-190.557-31.359-255.126c-74.045-64.569-184.839-62.997-257.021,3.649l283.008,246.793L444.894,397.146z"
   id="path7"
   stroke-linejoin="round"
   stroke-linecap="round"
   stroke-width="0.1764"
   stroke="#FF0000"
   fill="#FFFFFF" />
<path
   d="M417.433,428.6  c-72.261,66.562-183.058,68.002-257.025,3.346c-73.968-64.657-87.355-174.651-31.057-255.164l282.715,247.128L417.433,428.6z"
   id="path9"
   stroke-linejoin="round"
   stroke-linecap="round"
   stroke-width="0.1764"
   stroke="#FF0000"
   fill="#FFFFFF" />

<g
   id="g2996"><polygon
     id="polygon11"
     points="278.746,307.371   199.56,238.207 181.782,229.319 167.052,215.988 167.052,358.932 183.306,344.119 226.988,322.641 "
     stroke-linejoin="round"
     stroke-linecap="round"
     stroke-width="0.1764"
     stroke="#000000" /><polygon
     id="polygon13"
     points="334.357,300.421   298.802,270.055 339.945,275.239 356.199,275.239 380.071,273.018 401.912,267.092 409.531,261.167 411.562,251.539   430.864,251.539 430.864,318.938 411.054,318.938 408.514,313.012 401.404,307.087 379.054,301.162 356.199,299.68 "
     stroke-linejoin="round"
     stroke-linecap="round"
     stroke-width="0.1764"
     stroke="#000000" /></g>
</svg>