<?xml version="1.0" encoding="UTF-8" standalone="no"?>
<!-- Generator: Adobe Illustrator 16.0.2, SVG Export Plug-In . SVG Version: 6.00 Build 0)  -->

<svg
   xmlns:dc="http://purl.org/dc/elements/1.1/"
   xmlns:cc="http://creativecommons.org/ns#"
   xmlns:rdf="http://www.w3.org/1999/02/22-rdf-syntax-ns#"
   xmlns:svg="http://www.w3.org/2000/svg"
   xmlns="http://www.w3.org/2000/svg"
   xmlns:sodipodi="http://sodipodi.sourceforge.net/DTD/sodipodi-0.dtd"
   xmlns:inkscape="http://www.inkscape.org/namespaces/inkscape"
   version="1.1"
   id="Layer_1"
   x="0px"
   y="0px"
   width="576px"
   height="576px"
   viewBox="0 0 576 576"
   style="enable-background:new 0 0 576 576;"
   xml:space="preserve"
   inkscape:version="0.48.1 "
   sodipodi:docname="B17.svg"
   inkscape:export-filename="C:\Documents and Settings\bertrand.bouteilles\Bureau\Panneaux\A - Route\3_interdiction\B17.png"
   inkscape:export-xdpi="150"
   inkscape:export-ydpi="150"><metadata
   id="metadata27"><rdf:RDF><cc:Work
       rdf:about=""><dc:format>image/svg+xml</dc:format><dc:type
         rdf:resource="http://purl.org/dc/dcmitype/StillImage" /><dc:title></dc:title></cc:Work></rdf:RDF></metadata><defs
   id="defs25" /><sodipodi:namedview
   pagecolor="#ffffff"
   bordercolor="#666666"
   borderopacity="1"
   objecttolerance="10"
   gridtolerance="10"
   guidetolerance="10"
   inkscape:pageopacity="0"
   inkscape:pageshadow="2"
   inkscape:window-width="1280"
   inkscape:window-height="964"
   id="namedview23"
   showgrid="false"
   inkscape:zoom="0.50868056"
   inkscape:cx="288"
   inkscape:cy="288"
   inkscape:window-x="-4"
   inkscape:window-y="-4"
   inkscape:window-maximized="1"
   inkscape:current-layer="Layer_1" />
<circle
   style="fill:#FFFFFF;stroke:#000000;stroke-linecap:round;stroke-linejoin:round;"
   cx="287.057"
   cy="287.057"
   r="286.969"
   id="circle3" />
<circle
   style="fill:#ff0000;stroke:#FF0000;stroke-width:0.17640000000000000;stroke-linecap:round;stroke-linejoin:round"
   cx="287.057"
   cy="287.057"
   r="273.982"
   id="circle5" />
<circle
   style="fill:#FFFFFF;stroke:#FF0000;stroke-width:0.1764;stroke-linecap:round;stroke-linejoin:round;"
   cx="287.057"
   cy="287.057"
   r="192.438"
   id="circle7" />
<polygon
   style="stroke:#000000;stroke-width:0.1764;stroke-linecap:round;stroke-linejoin:round;"
   points="94.885,290.958   95.58,282.846 134.474,282.846 167.116,316.303 187.258,316.303 187.258,350.773 169.2,351.788 167.811,357.871 162.95,363.954   156.698,368.009 147.669,369.023 138.641,364.967 133.084,356.857 133.084,351.788 109.471,350.773 100.442,323.4 140.03,322.386   144.891,321.373 123.361,291.971 "
   id="polygon9" />
<polygon
   style="stroke:#000000;stroke-width:0.1764;stroke-linecap:round;stroke-linejoin:round;"
   points="361.238,327.456   425.135,314.275 459.861,279.805 475.14,279.805 474.446,285.888 464.723,287.916 441.109,314.275 469.585,316.303 462.639,350.773   418.189,350.773 417.494,356.857 415.411,360.913 411.939,364.967 404.299,368.009 396.658,368.009 387.63,364.967 382.768,357.871   382.768,351.788 361.238,351.788 "
   id="polygon11" />
<g
   id="g13">
	<rect
   x="134.474"
   y="179.428"
   style="fill:none;"
   width="355.026"
   height="205.161"
   id="rect15" />
	<path
   d="M212.477,179.496v20.754c-10.596,9.614-19.581,23.517-26.953,41.71c-4.541,13.072-6.641,25.269-6.299,36.589h-22.119   c-0.099-26.414,9.545-52.715,28.931-78.905h-41.089v-20.147H212.477z"
   id="path17" />
	<path
   d="M225.441,239.601c-0.146-2.515-0.22-4.986-0.22-7.412c0-1.213,0.024-2.426,0.073-3.639   c0.146-4.761,0.561-9.388,1.245-13.881v-0.472l0.293-0.606l0.513-4.649l0.366-0.674l0.732-3.773l0.293-0.404   c0.732-3.234,2.318-6.873,4.761-10.916l2.124-2.965l4.102-3.841c4.345-3.234,9.985-5.547,16.919-6.94   c2.197-0.359,4.468-0.539,6.812-0.539h0.586c3.662,0.09,7.495,0.652,11.499,1.685c1.659,0.18,4.321,1.191,7.983,3.032   c3.759,2.156,7.178,5.099,10.254,8.827l2.344,3.302l1.904,3.706l0.806,2.695l0.22,0.202v0.674c0.487,0.943,0.78,1.685,0.879,2.224   l0.293,0.337l1.245,5.997l0.22,0.135l-0.146,0.876l0.293,0.539l0.732,7.21l0.293,0.674l-0.22,0.067l0.513,4.245l-0.146,0.135   c0.194,0.45,0.194,0.719,0,0.809l0.22,0.674l-0.146,0.202l0.366,4.582l-0.146,0.135l0.22,1.954l-0.073,0.135v2.695   c-0.049,1.663-0.195,3.662-0.439,5.997l-0.366,2.493l0.146,0.135l-0.366,0.674c-0.146,1.663-0.562,3.639-1.245,5.93l-0.439,1.28   l-0.073,0.741l-1.904,4.986l-0.366,0.27c0,0.45-0.635,1.819-1.904,4.11l-3.516,4.649c-3.857,4.088-8.13,7.075-12.817,8.962   c-3.076,1.124-6.178,1.864-9.302,2.224l-5.64,0.337l-1.318-0.067c-11.133-0.27-20.118-3.593-26.953-9.973   c-3.369-3.458-5.909-7.479-7.617-12.062c-1.954-4.671-3.149-9.59-3.589-14.757L225.441,239.601z M261.915,259.951   c3.027,0.18,4.907,0.135,5.64-0.135l0.073,0.135l4.028-0.809c3.223-0.988,5.688-3.122,7.397-6.401   c1.318-3.279,2.294-7.187,2.93-11.725l0.366-15.229l-0.22-7.143l-0.732-5.323l-0.293-0.27l-0.952-3.773l-0.293-0.135   c-0.732-2.695-2.124-5.188-4.175-7.479c-1.563-1.167-2.809-1.931-3.735-2.291l-4.248-0.943l-4.468-0.202   c-2.003-0.044-4.224,0.337-6.665,1.146c-2.247,0.989-4.127,2.763-5.64,5.323c-1.075,2.381-2.051,5.369-2.93,8.962l0.146,0.404   c-0.293,0.225-0.465,0.966-0.513,2.224c-0.685,5.256-0.758,12.96-0.22,23.112l1.172,7.345l1.538,5.188   c1.123,2.695,2.661,4.649,4.614,5.862C256.495,258.828,258.887,259.546,261.915,259.951z"
   id="path19" />
	<path
   d="M329.757,208.538h18.091v4.582c3.417-2.875,8.447-4.604,15.088-5.188h0.806c6.738,0,11.304,1.056,13.696,3.167   c2.93,1.348,5.321,3.751,7.178,7.21c4.541-6.917,10.718-10.377,18.53-10.377h6.372c7.079,0.809,12.231,3.123,15.454,6.94   c4.053,4.178,6.64,9.905,7.764,17.183v46.427h-18.237v-43.866c-1.465-6.693-5.299-10.04-11.499-10.04   c-7.373-0.179-11.572,3.594-12.598,11.32v42.586h-18.237v-42.316c-0.831-7.996-4.883-11.904-12.158-11.725   c-6.738,0.18-10.522,4.043-11.353,11.59l-0.22,42.451h-18.823L329.757,208.538z"
   id="path21" />
</g>
</svg>