<?xml version="1.0" encoding="UTF-8" standalone="no"?>
<!-- Generator: Adobe Illustrator 13.0.0, SVG Export Plug-In  -->

<svg
   xmlns:dc="http://purl.org/dc/elements/1.1/"
   xmlns:cc="http://creativecommons.org/ns#"
   xmlns:rdf="http://www.w3.org/1999/02/22-rdf-syntax-ns#"
   xmlns:svg="http://www.w3.org/2000/svg"
   xmlns="http://www.w3.org/2000/svg"
   xmlns:sodipodi="http://sodipodi.sourceforge.net/DTD/sodipodi-0.dtd"
   xmlns:inkscape="http://www.inkscape.org/namespaces/inkscape"
   version="1.1"
   x="0px"
   y="0px"
   width="576px"
   height="576px"
   viewBox="-0.531 -0.531 576 576"
   enable-background="new -0.531 -0.531 576 576"
   xml:space="preserve"
   id="svg2"
   inkscape:version="0.48.1 "
   sodipodi:docname="B18a.svg"
   inkscape:export-filename="C:\Documents and Settings\bertrand.bouteilles\Bureau\Panneaux\A - Route\3_interdiction\B18a.png"
   inkscape:export-xdpi="150"
   inkscape:export-ydpi="150"><metadata
   id="metadata24"><rdf:RDF><cc:Work
       rdf:about=""><dc:format>image/svg+xml</dc:format><dc:type
         rdf:resource="http://purl.org/dc/dcmitype/StillImage" /><dc:title></dc:title></cc:Work></rdf:RDF></metadata><sodipodi:namedview
   pagecolor="#ffffff"
   bordercolor="#666666"
   borderopacity="1"
   objecttolerance="10"
   gridtolerance="10"
   guidetolerance="10"
   inkscape:pageopacity="0"
   inkscape:pageshadow="2"
   inkscape:window-width="1920"
   inkscape:window-height="1174"
   id="namedview22"
   showgrid="false"
   inkscape:zoom="1.0173611"
   inkscape:cx="88.186374"
   inkscape:cy="268.99354"
   inkscape:window-x="1276"
   inkscape:window-y="-4"
   inkscape:window-maximized="1"
   inkscape:current-layer="svg2" />
<defs
   id="defs4">
</defs>
<circle
   fill="#FFFFFF"
   stroke="#000000"
   stroke-linecap="round"
   stroke-linejoin="round"
   cx="287.469"
   cy="287.469"
   r="286.969"
   id="circle6" />
<circle
   fill="#FF0000"
   stroke="#FF0000"
   stroke-width="0.1764"
   stroke-linecap="round"
   stroke-linejoin="round"
   cx="287.469"
   cy="287.469"
   r="273.982"
   id="circle8"
   style="fill:#ff0000" />
<circle
   fill="#FFFFFF"
   stroke="#FFFFFF"
   stroke-width="0.1764"
   stroke-linecap="round"
   stroke-linejoin="round"
   cx="287.469"
   cy="287.469"
   r="192.438"
   id="circle10" />




<g
   id="g3001"
   transform="translate(3.504,11.3049)"><polygon
     id="polygon12"
     points="210.469,407.885 228.687,407.885 229.037,379.755 340.094,379.243 340.094,408.396 358.661,408.396 358.312,378.732 372.324,366.969 371.624,330.655 362.164,313.267 334.138,317.869 339.743,327.587 304.359,325.541 304.71,343.953 291.396,332.701 285.792,343.953 276.332,333.213 271.077,339.351 262.319,324.519 225.184,328.099 225.534,314.801 214.323,312.755 197.858,330.145 197.507,367.479 210.119,378.732 "
     style="stroke:#000000;stroke-width:0.17640001;stroke-linecap:round;stroke-linejoin:round" /><circle
     id="circle14"
     r="6.369"
     cy="349.52399"
     cx="226.32899"
     sodipodi:cx="226.32899"
     sodipodi:cy="349.52399"
     sodipodi:rx="6.369"
     sodipodi:ry="6.369"
     style="fill:#ffffff;stroke:#ffffff;stroke-width:0.17640001;stroke-linecap:round;stroke-linejoin:round"
     d="m 232.69799,349.52399 c 0,3.5175 -2.85149,6.369 -6.369,6.369 -3.5175,0 -6.369,-2.8515 -6.369,-6.369 0,-3.5175 2.8515,-6.369 6.369,-6.369 3.51751,0 6.369,2.8515 6.369,6.369 z" /><circle
     id="circle16"
     r="6.6279998"
     cy="349.52399"
     cx="343.27301"
     sodipodi:cx="343.27301"
     sodipodi:cy="349.52399"
     sodipodi:rx="6.6279998"
     sodipodi:ry="6.6279998"
     style="fill:#ffffff;stroke:#ffffff;stroke-width:0.17640001;stroke-linecap:round;stroke-linejoin:round"
     d="m 349.90101,349.52399 c 0,3.66054 -2.96746,6.628 -6.628,6.628 -3.66054,0 -6.628,-2.96746 -6.628,-6.628 0,-3.66055 2.96746,-6.628 6.628,-6.628 3.66054,0 6.628,2.96745 6.628,6.628 z" /><polygon
     style="fill:#ff0000;stroke:#ffffff;stroke-width:3;stroke-linecap:round;stroke-linejoin:round"
     id="polygon18"
     points="210.452,279.142 204.326,265.089 218.328,263.812 185.072,229.321 225.33,238.263 199.075,185.887 234.081,199.939 232.331,190.997 248.084,198.662 249.834,165.448 262.961,187.165 283.09,137.344 301.468,193.552 311.095,187.165 318.096,196.106 346.102,166.726 339.101,199.939 381.982,189.72 355.729,217.824 363.604,221.656 348.727,238.263 388.109,236.985 360.104,258.702 381.982,256.146 346.102,295.748 398.611,305.967 333.849,317.465 339.976,327.685 304.969,325.129 304.969,344.291 291.842,332.794 285.715,344.291 276.964,332.794 270.837,339.182 262.086,325.129 225.33,327.685 225.33,314.91 213.077,312.354 169.319,307.245 208.702,298.303 198.2,286.806 " /><polygon
     style="fill:#ffff00;stroke:#ffffff;stroke-width:4"
     id="polygon20"
     points="280.469,315.469 287.469,330.469 289.469,311.469 301.469,319.469 302.469,309.469 327.469,321.469 315.849,307.465 339.469,305.469 324.469,298.469 337.469,283.469 321.469,274.469 340.469,258.469 320.469,258.469 324.469,236.469 299.469,243.469 286.469,191.469 274.469,241.469 241.469,230.469 253.469,258.469 226.469,253.469 257.469,282.469 231.469,285.469 248.34,295.698 236.469,304.469 258.469,306.469 251.469,313.469 268.469,307.469 273.842,322.794 " /></g>
</svg>