<?xml version="1.0" encoding="UTF-8" standalone="no"?>
<!-- Generator: Adobe Illustrator 13.0.0, SVG Export Plug-In . SVG Version: 6.00 Build 14948)  -->

<svg
   xmlns:dc="http://purl.org/dc/elements/1.1/"
   xmlns:cc="http://creativecommons.org/ns#"
   xmlns:rdf="http://www.w3.org/1999/02/22-rdf-syntax-ns#"
   xmlns:svg="http://www.w3.org/2000/svg"
   xmlns="http://www.w3.org/2000/svg"
   xmlns:sodipodi="http://sodipodi.sourceforge.net/DTD/sodipodi-0.dtd"
   xmlns:inkscape="http://www.inkscape.org/namespaces/inkscape"
   version="1.1"
   id="Layer_1"
   x="0px"
   y="0px"
   width="576px"
   height="576px"
   viewBox="-0.943 -0.943 576 576"
   enable-background="new -0.943 -0.943 576 576"
   xml:space="preserve"
   inkscape:version="0.48.1 "
   sodipodi:docname="B18b.svg"
   inkscape:export-filename="C:\Documents and Settings\bertrand.bouteilles\Bureau\Panneaux\A - Route\3_interdiction\B18b.png"
   inkscape:export-xdpi="150"
   inkscape:export-ydpi="150"><metadata
   id="metadata25"><rdf:RDF><cc:Work
       rdf:about=""><dc:format>image/svg+xml</dc:format><dc:type
         rdf:resource="http://purl.org/dc/dcmitype/StillImage" /><dc:title></dc:title></cc:Work></rdf:RDF></metadata><defs
   id="defs23" /><sodipodi:namedview
   pagecolor="#ffffff"
   bordercolor="#666666"
   borderopacity="1"
   objecttolerance="10"
   gridtolerance="10"
   guidetolerance="10"
   inkscape:pageopacity="0"
   inkscape:pageshadow="2"
   inkscape:window-width="1280"
   inkscape:window-height="964"
   id="namedview21"
   showgrid="false"
   inkscape:zoom="0.50868056"
   inkscape:cx="-111.07167"
   inkscape:cy="288"
   inkscape:window-x="-4"
   inkscape:window-y="-4"
   inkscape:window-maximized="1"
   inkscape:current-layer="Layer_1" />
<circle
   fill="#FFFFFF"
   stroke="#000000"
   stroke-linecap="round"
   stroke-linejoin="round"
   cx="287.057"
   cy="287.057"
   r="286.969"
   id="circle3" />
<circle
   fill="#FF0000"
   stroke="#FF0000"
   stroke-width="0.1764"
   stroke-linecap="round"
   stroke-linejoin="round"
   cx="287.057"
   cy="287.057"
   r="273.982"
   id="circle5"
   style="fill:#ff0000" />
<circle
   fill="#FFFFFF"
   stroke="#FF0000"
   stroke-width="0.1764"
   stroke-linecap="round"
   stroke-linejoin="round"
   cx="287.057"
   cy="287.057"
   r="192.438"
   id="circle7" />
<line
   fill="none"
   stroke="#000000"
   stroke-width="3"
   stroke-linecap="round"
   stroke-linejoin="round"
   x1="185.715"
   y1="298.497"
   x2="388.61"
   y2="298.497"
   id="line9" />
<polygon
   stroke="#000000"
   stroke-width="0.1764"
   stroke-linecap="round"
   stroke-linejoin="round"
   points="189.01,250.514   189.01,292.828 193.432,297.668 206.696,298.475 210.013,294.441 210.565,279.112 274.127,279.919 275.233,284.759 278.549,287.987   281.866,290.407 287.393,291.214 291.261,290.407 294.026,287.987 296.79,284.759 297.894,279.919 361.457,279.919 362.009,293.634   366.43,297.668 377.485,298.475 382.46,295.249 382.46,250.874 379.143,246.84 366.43,246.033 361.457,250.066 361.457,262.976   210.565,262.976 210.307,259.765 210.294,250.399 206.303,246.63 193.703,246.516 "
   id="polygon11" />
<path
   fill="none"
   stroke="#000000"
   stroke-width="9"
   stroke-linecap="round"
   stroke-linejoin="round"
   d="M137.608,321.873  c13.761-4.229,24.897-6.152,39.22-4.843c11.284,1.023,20.013,8.604,29.772,12.991c22.849,10.256,47.574-7.805,70.225-10.562  c25.686-3.117,44.813,16.128,69.65,16.128c13.608,0,25.453-6.441,38.155-10.725c13.308-4.479,26.928-0.239,39.835,2.656"
   id="path13" />
<path
   fill="none"
   stroke="#000000"
   stroke-width="9"
   stroke-linecap="round"
   stroke-linejoin="round"
   d="M137.608,344.463  c12.991-3.992,25.562-7.223,39.243-4.841c12.651,2.203,21.474,11.099,33.163,14.522c23.689,6.938,50.165-10.475,73.874-12.783  c24.77-2.412,44.354,22.289,69.849,16.564c11.54-2.592,22.538-9.708,34.168-11.252c13.149-1.747,23.865,0.883,36.563,3.438"
   id="path15" />
<rect
   x="246.057"
   y="255.057"
   stroke="#000000"
   stroke-width="0.1764"
   stroke-linecap="round"
   stroke-linejoin="round"
   width="80"
   height="11"
   id="rect17" />
<ellipse
   fill="#FF0000"
   stroke="#FF0000"
   stroke-width="0.1764"
   stroke-linecap="round"
   stroke-linejoin="round"
   cx="284.557"
   cy="212.057"
   rx="94.5"
   ry="51"
   id="ellipse19"
   style="fill:#ff0000" />
</svg>