<?xml version="1.0" encoding="UTF-8" standalone="no"?>
<!-- Generator: Adobe Illustrator 16.0.2, SVG Export Plug-In . SVG Version: 6.00 Build 0)  -->

<svg
   xmlns:dc="http://purl.org/dc/elements/1.1/"
   xmlns:cc="http://creativecommons.org/ns#"
   xmlns:rdf="http://www.w3.org/1999/02/22-rdf-syntax-ns#"
   xmlns:svg="http://www.w3.org/2000/svg"
   xmlns="http://www.w3.org/2000/svg"
   xmlns:sodipodi="http://sodipodi.sourceforge.net/DTD/sodipodi-0.dtd"
   xmlns:inkscape="http://www.inkscape.org/namespaces/inkscape"
   version="1.1"
   id="Layer_1"
   x="0px"
   y="0px"
   width="576px"
   height="576px"
   viewBox="0 0 576 576"
   style="enable-background:new 0 0 576 576;"
   xml:space="preserve"
   inkscape:version="0.48.1 "
   sodipodi:docname="B19.svg"
   inkscape:export-filename="C:\Documents and Settings\bertrand.bouteilles\Bureau\Panneaux\A - Route\3_interdiction\B19.png"
   inkscape:export-xdpi="150"
   inkscape:export-ydpi="150"><metadata
   id="metadata75"><rdf:RDF><cc:Work
       rdf:about=""><dc:format>image/svg+xml</dc:format><dc:type
         rdf:resource="http://purl.org/dc/dcmitype/StillImage" /><dc:title></dc:title></cc:Work></rdf:RDF></metadata><defs
   id="defs73" /><sodipodi:namedview
   pagecolor="#ffffff"
   bordercolor="#666666"
   borderopacity="1"
   objecttolerance="10"
   gridtolerance="10"
   guidetolerance="10"
   inkscape:pageopacity="0"
   inkscape:pageshadow="2"
   inkscape:window-width="1280"
   inkscape:window-height="964"
   id="namedview71"
   showgrid="false"
   inkscape:zoom="0.50868056"
   inkscape:cx="-111.07167"
   inkscape:cy="288"
   inkscape:window-x="-4"
   inkscape:window-y="-4"
   inkscape:window-maximized="1"
   inkscape:current-layer="Layer_1" />
<circle
   style="fill:#FFFFFF;stroke:#000000;stroke-linecap:round;stroke-linejoin:round;"
   cx="287.057"
   cy="287.057"
   r="286.969"
   id="circle3" />
<circle
   style="fill:#ff0000;stroke:#FF0000;stroke-width:0.17640000000000000;stroke-linecap:round;stroke-linejoin:round"
   cx="287.057"
   cy="287.057"
   r="273.982"
   id="circle5" />
<circle
   style="fill:#FFFFFF;stroke:#FF0000;stroke-width:0.1764;stroke-linecap:round;stroke-linejoin:round;"
   cx="287.057"
   cy="287.057"
   r="192.438"
   id="circle7" />
<g
   id="g9">
	<rect
   x="96.266"
   y="180.423"
   style="fill:none;"
   width="384.875"
   height="172.733"
   id="rect11" />
	<path
   d="M195.701,180.543v35.361h-7.059v-35.361H195.701z"
   id="path13" />
	<path
   d="M213.167,180.495l9.344,18.863v-18.863h6.906l0.025,35.41h-6.779l-11.35-22.312l-0.025,22.336h-6.982v-35.434H213.167z"
   id="path15" />
	<path
   d="M257.964,180.519v6.802h-7.439v28.583h-6.906v-28.656h-7.947v-6.73H257.964z"
   id="path17" />
	<path
   d="M285.825,180.567v6.464h-15.387v7.719h11.273v6.537h-11.273v8.081h16.047v6.537h-23.207l0.025-35.337H285.825z"
   id="path19" />
	<path
   d="M304.343,180.423c3.91,0,6.966,1.335,9.166,4.004c1.93,2.348,2.895,4.993,2.895,7.936c0,0.53-0.034,1.158-0.102,1.881   c-0.406,3.586-2.294,6.553-5.662,8.9l6.195,12.736h-8.023l-5.307-10.541h-4.596v10.613h-7.033l0.025-35.53H304.343z    M303.327,198.538l2.082-0.241c1.185-0.305,2.175-0.941,2.971-1.906c0.677-0.948,1.083-2.082,1.219-3.401   c0.067-1.64-0.44-3.071-1.523-4.293c-0.914-0.997-2.243-1.56-3.986-1.688h-5.104v11.53H303.327z"
   id="path21" />
	<path
   d="M337.13,180.423c2.438,0.273,4.507,1.198,6.208,2.774s2.933,3.441,3.694,5.596c0.355,0.949,0.618,2.195,0.787,3.739v10.854   c-0.254,3.667-1.469,6.625-3.644,8.877s-4.82,3.449-7.935,3.594h-14.727l0.025-35.434H337.13z M328.802,208.886h5.941   c1.202-0.177,2.226-0.599,3.072-1.267c0.847-0.667,1.565-1.837,2.158-3.51c0.321-1.029,0.415-4.776,0.279-11.24   c-0.796-3.345-2.632-5.266-5.51-5.765h-5.941V208.886z"
   id="path23" />
	<path
   d="M361.081,180.543v35.361h-7.059v-35.361H361.081z"
   id="path25" />
	<path
   d="M389.958,180.519v6.802h-7.439v28.583h-6.906v-28.656h-7.947v-6.73H389.958z"
   id="path27" />
</g>
<g
   id="g29">
</g>
<g
   id="g31">
	<rect
   x="94.62"
   y="257.173"
   style="fill:none;"
   width="384.875"
   height="172.733"
   id="rect33" />
	<path
   d="M256.134,257.246l9.598,35.337h-7.287l-1.6-6.006h-10.283l-1.625,6.006h-7.363l9.496-35.337H256.134z M247.958,279.847   h7.338l-3.555-13.797L247.958,279.847z"
   id="path35" />
	<path
   d="M280.227,257.342v23.928c0.321,3.056,2.133,4.76,5.434,5.114c3.25-0.338,5.078-2.018,5.484-5.042v-24h7.186v25.786   c-0.626,3.152-2.192,5.605-4.697,7.357c-2.234,1.496-4.52,2.283-6.855,2.363c-0.373,0.033-0.736,0.049-1.092,0.049   c-3.47,0-6.339-0.957-8.607-2.871c-2.59-2.379-3.961-4.807-4.113-7.284v-25.4H280.227z"
   id="path37" />
	<path
   d="M314.527,257.27l6.881,10.903l6.881-10.854h8.201l-11.4,17.512l11.502,17.778h-8.176l-7.109-10.783l-6.729,10.758   l-9.014,0.024l11.477-17.802l-11.451-17.536H314.527z"
   id="path39" />
</g>
<g
   id="g41">
	<rect
   x="95.563"
   y="328.26"
   style="fill:none;"
   width="384.875"
   height="172.732"
   id="rect43" />
	<path
   d="M113.536,328.332h9.572l7.49,18.742l7.668-18.742h9.547v35.41h-7.084v-22.361l-9.268,22.361h-1.854l-9.191-22.168   l0.076,22.168h-6.957V328.332z"
   id="path45" />
	<path
   d="M167.194,327.945c4.096,0.596,7.126,2.895,9.09,6.899c1.676,2.959,2.514,6.593,2.514,10.903v0.434   c0,5.387-1.38,9.971-4.139,13.749c-1.964,2.541-4.74,3.964-8.328,4.27c-0.373,0.032-0.736,0.048-1.092,0.048   c-3.724,0-6.847-1.495-9.369-4.486c-2.607-3.988-3.927-8.08-3.961-12.277c-0.017-0.354-0.025-0.707-0.025-1.062   c0-5.677,1.329-10.372,3.986-14.087c1.777-2.025,3.631-3.32,5.561-3.883c1.337-0.402,2.674-0.604,4.012-0.604   C166.034,327.85,166.618,327.882,167.194,327.945z M165.239,358.073c1.963-0.097,3.622-1.375,4.977-3.835   c0.981-1.641,1.6-4.053,1.854-7.236c0.051-4.053-0.703-7.373-2.26-9.963c-1.27-1.801-2.675-2.805-4.215-3.015   c-2.031,0.097-3.724,1.359-5.078,3.787c-0.965,1.704-1.591,4.149-1.879,7.333c-0.034,4.053,0.736,7.365,2.311,9.938   C162.2,356.883,163.63,357.881,165.239,358.073z"
   id="path47" />
	<path
   d="M204.728,328.355v6.803h-7.439v28.584h-6.906v-28.656h-7.947v-6.73H204.728z"
   id="path49" />
	<path
   d="M223.245,327.945c4.096,0.596,7.126,2.895,9.09,6.899c1.676,2.959,2.514,6.593,2.514,10.903v0.434   c0,5.387-1.38,9.971-4.139,13.749c-1.964,2.541-4.74,3.964-8.328,4.27c-0.373,0.032-0.736,0.048-1.092,0.048   c-3.724,0-6.847-1.495-9.369-4.486c-2.607-3.988-3.927-8.08-3.961-12.277c-0.017-0.354-0.025-0.707-0.025-1.062   c0-5.677,1.329-10.372,3.986-14.087c1.777-2.025,3.631-3.32,5.561-3.883c1.337-0.402,2.674-0.604,4.012-0.604   C222.086,327.85,222.67,327.882,223.245,327.945z M221.29,358.073c1.963-0.097,3.622-1.375,4.977-3.835   c0.981-1.641,1.6-4.053,1.854-7.236c0.051-4.053-0.703-7.373-2.26-9.963c-1.27-1.801-2.675-2.805-4.215-3.015   c-2.031,0.097-3.724,1.359-5.078,3.787c-0.965,1.704-1.591,4.149-1.879,7.333c-0.034,4.053,0.736,7.365,2.311,9.938   C218.252,356.883,219.682,357.881,221.29,358.073z"
   id="path51" />
	<path
   d="M253.62,327.945c4.926,0.805,8.15,3.595,9.674,8.371l0.229,1.182l-6.424,1.278c-0.525-2.058-1.422-3.425-2.691-4.101   s-2.759-0.611-4.469,0.193c-1.134,0.916-2.078,2.17-2.831,3.763c-0.753,1.592-1.249,3.747-1.485,6.464   c-0.102,2.895,0.296,5.408,1.193,7.538c0.897,2.131,1.984,3.542,3.263,4.233c1.278,0.691,2.585,0.788,3.923,0.289   c1.337-0.321,2.403-1.631,3.199-3.932l6.424,1.882c-0.863,3.231-2.531,5.571-5.002,7.019c-1.812,1.094-3.944,1.713-6.398,1.857   c-4.621-0.096-8.074-1.889-10.359-5.379c-2.404-3.795-3.64-7.902-3.707-12.326c0.034-5.531,1.286-10.058,3.758-13.58   c1.557-1.945,3.301-3.287,5.23-4.027c1.456-0.547,3.038-0.82,4.748-0.82C252.452,327.85,253.027,327.882,253.62,327.945z"
   id="path53" />
	<path
   d="M265.662,328.355h7.439l6.678,13.412l6.424-13.412h7.287l-10.436,21.252v14.135h-6.932v-14.015L265.662,328.355z"
   id="path55" />
	<path
   d="M308.503,327.945c4.926,0.805,8.15,3.595,9.674,8.371l0.229,1.182l-6.424,1.278c-0.524-2.058-1.422-3.425-2.691-4.101   s-2.759-0.611-4.469,0.193c-1.134,0.916-2.078,2.17-2.831,3.763c-0.753,1.592-1.248,3.747-1.485,6.464   c-0.102,2.895,0.296,5.408,1.193,7.538c0.897,2.131,1.984,3.542,3.263,4.233s2.586,0.788,3.923,0.289   c1.337-0.321,2.403-1.631,3.199-3.932l6.424,1.882c-0.863,3.231-2.53,5.571-5.002,7.019c-1.812,1.094-3.944,1.713-6.398,1.857   c-4.621-0.096-8.074-1.889-10.359-5.379c-2.403-3.795-3.64-7.902-3.707-12.326c0.034-5.531,1.286-10.058,3.758-13.58   c1.558-1.945,3.301-3.287,5.23-4.027c1.456-0.547,3.038-0.82,4.748-0.82C307.335,327.85,307.91,327.882,308.503,327.945z"
   id="path57" />
	<path
   d="M328.492,328.332l0.025,29.09h14.396l-0.025,6.32h-21.43v-35.41H328.492z"
   id="path59" />
	<path
   d="M353.942,328.381v35.361h-7.059v-35.361H353.942z"
   id="path61" />
	<path
   d="M357.909,356.529v-0.048c0-0.177,0.194-0.298,0.584-0.362c2.996-0.916,4.942-1.576,5.84-1.978   c0.457,0.595,1.058,1.134,1.803,1.616c1.202,0.676,2.488,1.086,3.859,1.23c1.456,0.031,2.361,0,2.717-0.098   c1.676-0.449,2.708-0.908,3.098-1.374c0.39-0.321,0.728-1.102,1.016-2.34c0.067-0.482,0-1.021-0.203-1.616   c-0.254-0.402-0.524-0.739-0.813-1.014l-0.863-0.627l-0.965-0.41c-5.366-1.592-8.319-2.523-8.861-2.797   c-2.488-0.949-4.342-2.518-5.561-4.704c-0.796-1.464-1.151-3.24-1.066-5.331c0.321-2.605,1.447-4.671,3.377-6.199   c2.167-1.495,4.427-2.307,6.779-2.436h0.66c1.676,0,3.063,0.12,4.164,0.361c2.234,0.596,3.978,1.424,5.23,2.484   c1.253,0.98,2.285,2.316,3.098,4.004l-0.076,0.266l-5.23,2.389l-0.254-0.121c-0.321-0.98-1.228-1.777-2.717-2.389   c-1.676-0.594-3.64-0.61-5.891-0.048c-0.965,0.306-1.642,0.7-2.031,1.183c-0.136,0.129-0.313,0.53-0.533,1.205   c-0.034,0.789,0,1.246,0.102,1.375c0.22,0.547,0.66,1.037,1.32,1.472l0.66,0.265c4.808,1.352,8.065,2.332,9.775,2.943   c1.473,0.644,2.599,1.352,3.377,2.123l1.422,1.833c1.05,1.656,1.608,3.466,1.676,5.427c0.017,0.129,0.025,0.281,0.025,0.459   c0,0.627-0.102,1.471-0.305,2.532c-0.423,1.495-0.931,2.597-1.523,3.305c-1.016,1.19-1.752,1.905-2.209,2.147   c-2.488,1.624-5.053,2.5-7.693,2.629h-2.311c-1.727-0.16-3.183-0.482-4.367-0.965c-1.896-0.836-3.428-1.77-4.596-2.799   C359.458,359.287,358.62,358.09,357.909,356.529z"
   id="path63" />
	<path
   d="M408.927,328.355v6.803h-7.439v28.584h-6.906v-28.656h-7.947v-6.73H408.927z"
   id="path65" />
	<path
   d="M434.604,328.404v6.465h-15.387v7.719h11.273v6.537h-11.273v8.08h16.047v6.537h-23.207l0.025-35.338H434.604z"
   id="path67" />
	<path
   d="M438.268,356.529v-0.048c0-0.177,0.194-0.298,0.584-0.362c2.996-0.916,4.942-1.576,5.84-1.978   c0.457,0.595,1.058,1.134,1.803,1.616c1.202,0.676,2.488,1.086,3.859,1.23c1.456,0.031,2.361,0,2.717-0.098   c1.676-0.449,2.708-0.908,3.098-1.374c0.39-0.321,0.728-1.102,1.016-2.34c0.067-0.482,0-1.021-0.203-1.616   c-0.254-0.402-0.524-0.739-0.813-1.014l-0.863-0.627l-0.965-0.41c-5.366-1.592-8.319-2.523-8.861-2.797   c-2.488-0.949-4.342-2.518-5.561-4.704c-0.796-1.464-1.151-3.24-1.066-5.331c0.321-2.605,1.447-4.671,3.377-6.199   c2.167-1.495,4.427-2.307,6.779-2.436h0.66c1.676,0,3.063,0.12,4.164,0.361c2.234,0.596,3.978,1.424,5.23,2.484   c1.253,0.98,2.285,2.316,3.098,4.004l-0.076,0.266l-5.23,2.389l-0.254-0.121c-0.321-0.98-1.228-1.777-2.717-2.389   c-1.676-0.594-3.64-0.61-5.891-0.048c-0.965,0.306-1.642,0.7-2.031,1.183c-0.136,0.129-0.313,0.53-0.533,1.205   c-0.034,0.789,0,1.246,0.102,1.375c0.22,0.547,0.66,1.037,1.32,1.472l0.66,0.265c4.808,1.352,8.065,2.332,9.775,2.943   c1.473,0.644,2.599,1.352,3.377,2.123l1.422,1.833c1.05,1.656,1.608,3.466,1.676,5.427c0.017,0.129,0.025,0.281,0.025,0.459   c0,0.627-0.102,1.471-0.305,2.532c-0.423,1.495-0.931,2.597-1.523,3.305c-1.016,1.19-1.752,1.905-2.209,2.147   c-2.488,1.624-5.053,2.5-7.693,2.629h-2.311c-1.727-0.16-3.183-0.482-4.367-0.965c-1.896-0.836-3.428-1.77-4.596-2.799   C439.817,359.287,438.979,358.09,438.268,356.529z"
   id="path69" />
</g>
</svg>