<?xml version="1.0" encoding="UTF-8" standalone="no"?>
<!-- Generator: Adobe Illustrator 13.0.0, SVG Export Plug-In . SVG Version: 6.00 Build 14948)  -->

<svg
   xmlns:dc="http://purl.org/dc/elements/1.1/"
   xmlns:cc="http://creativecommons.org/ns#"
   xmlns:rdf="http://www.w3.org/1999/02/22-rdf-syntax-ns#"
   xmlns:svg="http://www.w3.org/2000/svg"
   xmlns="http://www.w3.org/2000/svg"
   xmlns:sodipodi="http://sodipodi.sourceforge.net/DTD/sodipodi-0.dtd"
   xmlns:inkscape="http://www.inkscape.org/namespaces/inkscape"
   version="1.1"
   id="Layer_1"
   x="0px"
   y="0px"
   width="576"
   height="576"
   viewBox="-0.943 -0.943 576 576"
   enable-background="new -0.943 -0.943 576 576"
   xml:space="preserve"
   inkscape:version="0.48.1 "
   sodipodi:docname="B21e.svg"
   inkscape:export-filename="C:\Documents and Settings\bertrand.bouteilles\Bureau\Panneaux\A - Route\4_obligation\B21e.png"
   inkscape:export-xdpi="150"
   inkscape:export-ydpi="150"><metadata
   id="metadata13"><rdf:RDF><cc:Work
       rdf:about=""><dc:format>image/svg+xml</dc:format><dc:type
         rdf:resource="http://purl.org/dc/dcmitype/StillImage" /><dc:title></dc:title></cc:Work></rdf:RDF></metadata><defs
   id="defs11" /><sodipodi:namedview
   pagecolor="#ffffff"
   bordercolor="#666666"
   borderopacity="1"
   objecttolerance="10"
   gridtolerance="10"
   guidetolerance="10"
   inkscape:pageopacity="0"
   inkscape:pageshadow="2"
   inkscape:window-width="1920"
   inkscape:window-height="1174"
   id="namedview9"
   showgrid="false"
   fit-margin-top="0.1"
   fit-margin-left="0.1"
   fit-margin-right="0.1"
   fit-margin-bottom="0.1"
   inkscape:zoom="0.81944444"
   inkscape:cx="250.28108"
   inkscape:cy="400.6316"
   inkscape:window-x="1276"
   inkscape:window-y="-4"
   inkscape:window-maximized="1"
   inkscape:current-layer="Layer_1" />
<circle
   cx="287.05701"
   cy="287.05701"
   r="286.96899"
   id="circle3"
   style="fill:#ffffff;stroke:#000000;stroke-width:2.00325692;stroke-linecap:round;stroke-linejoin:round;stroke-miterlimit:4;stroke-opacity:1;stroke-dasharray:none"
   sodipodi:cx="287.05701"
   sodipodi:cy="287.05701"
   sodipodi:rx="286.96899"
   sodipodi:ry="286.96899"
   transform="matrix(0.99837419,0,0,0.99837419,0.46669332,0.46669332)" />
<circle
   cx="287.05701"
   cy="287.05701"
   r="261.66599"
   id="circle5"
   style="fill:#0000ff;fill-opacity:1;stroke:none"
   sodipodi:cx="287.05701"
   sodipodi:cy="287.05701"
   sodipodi:rx="261.66599"
   sodipodi:ry="261.66599"
   transform="matrix(0.99837419,0,0,0.99837419,0.46669332,0.46669332)" />
<path
   d="m 287.0565,481.24212 h 24.55602 V 314.82508 c -2.24335,-12.6484 0.94146,-25.65514 8.77471,-35.83762 7.83224,-10.17941 19.58909,-16.59401 32.38925,-17.66722 h 78.43727 l -59.55601,64.27932 h 55.86502 l 86.00295,-94.51204 -86.32143,-94.21563 h -54.67397 l 58.79426,70.47028 h -78.54709 c -33.20892,0 -61.29618,24.56395 -65.71998,57.47335 -4.42678,-32.91042 -32.51305,-57.47335 -65.71997,-57.47335 h -78.5471 l 58.79326,-70.47028 h -54.67396 l -86.321436,94.21563 86.001956,94.51204 h 55.86502 l -59.55701,-64.27932 h 78.43927 c 12.80015,1.07423 24.55701,7.48781 32.38825,17.66722 7.83424,10.18043 11.01805,23.19024 8.77472,35.83762 v 166.41704 h 24.556 z"
   id="path7"
   inkscape:connector-curvature="0"
   style="fill:#ffffff;stroke:none" />
</svg>