<?xml version="1.0" encoding="UTF-8" standalone="no"?>
<!-- Generator: Adobe Illustrator 13.0.0, SVG Export Plug-In . SVG Version: 6.00 Build 14948)  -->

<svg
   xmlns:dc="http://purl.org/dc/elements/1.1/"
   xmlns:cc="http://creativecommons.org/ns#"
   xmlns:rdf="http://www.w3.org/1999/02/22-rdf-syntax-ns#"
   xmlns:svg="http://www.w3.org/2000/svg"
   xmlns="http://www.w3.org/2000/svg"
   xmlns:sodipodi="http://sodipodi.sourceforge.net/DTD/sodipodi-0.dtd"
   xmlns:inkscape="http://www.inkscape.org/namespaces/inkscape"
   version="1.1"
   id="Layer_1"
   x="0px"
   y="0px"
   width="576"
   height="576"
   viewBox="-0.943 -0.943 575.99951 575.9995"
   enable-background="new -0.943 -0.943 576 576"
   xml:space="preserve"
   inkscape:version="0.48.1 "
   sodipodi:docname="B22b.svg"
   inkscape:export-filename="C:\Documents and Settings\bertrand.bouteilles\Bureau\Panneaux\A - Route\4_obligation\B22b.png"
   inkscape:export-xdpi="150"
   inkscape:export-ydpi="150"><metadata
   id="metadata51"><rdf:RDF><cc:Work
       rdf:about=""><dc:format>image/svg+xml</dc:format><dc:type
         rdf:resource="http://purl.org/dc/dcmitype/StillImage" /><dc:title></dc:title></cc:Work></rdf:RDF></metadata><defs
   id="defs49" /><sodipodi:namedview
   pagecolor="#ffffff"
   bordercolor="#666666"
   borderopacity="1"
   objecttolerance="10"
   gridtolerance="10"
   guidetolerance="10"
   inkscape:pageopacity="0"
   inkscape:pageshadow="2"
   inkscape:window-width="1920"
   inkscape:window-height="1174"
   id="namedview47"
   showgrid="false"
   fit-margin-top="0"
   fit-margin-left="0"
   fit-margin-right="0"
   fit-margin-bottom="0"
   inkscape:zoom="0.57943473"
   inkscape:cx="-11.528538"
   inkscape:cy="417.52552"
   inkscape:window-x="1276"
   inkscape:window-y="-4"
   inkscape:window-maximized="1"
   inkscape:current-layer="Layer_1" />
<circle
   cx="287.05701"
   cy="287.05701"
   r="286.96899"
   id="circle3"
   style="fill:#ffffff;stroke:#000000;stroke-width:2.00325521;stroke-linecap:round;stroke-linejoin:round;stroke-miterlimit:4;stroke-opacity:1;stroke-dasharray:none"
   sodipodi:cx="287.05701"
   sodipodi:cy="287.05701"
   sodipodi:rx="286.96899"
   sodipodi:ry="286.96899"
   transform="matrix(0.99837419,0,0,0.99837419,0.4609637,0.4609565)" />
<circle
   cx="287.05701"
   cy="287.05701"
   r="261.66599"
   id="circle5"
   style="fill:#0000ff;fill-opacity:1;stroke:none"
   sodipodi:cx="287.05701"
   sodipodi:cy="287.05701"
   sodipodi:rx="261.66599"
   sodipodi:ry="261.66599"
   transform="matrix(0.99837419,0,0,0.99837419,0.4609637,0.4609565)" />
<g
   id="g7"
   transform="matrix(0.99837419,0,0,0.99837419,0.4609637,0.4609565)">
	<g
   id="g9"
   style="fill:#008080"
   transform="translate(541.83051,92.745761)">
		<path
   d="m -385.96271,213.02728 c -8.36,0 -12.83591,0 -21.19591,0 1.357,-27.729 -0.7228,-55.62751 0.18791,-83.186 0.3569,-10.79988 1.84644,-22.17369 7.058,-31.639642 5.0612,-9.19286 11.56718,-14.55909 22.29818,-22.22409 6.865,-4.903 17.42482,-6.40127 20.82082,-13.21727 0.849,-1.704 1.358,-3.579 1.414,-5.679 0.51768,-11.11191 -13.49079,-20.63433 -13.975,-36.55208 -0.48421,-15.9177503 5.91578,-32.011312 26.70898,-32.200073 20.7932,-0.188761 26.913,13.6703067 27.20628,29.013623 0.29327,15.34332 -7.91526,20.49153 -12.91526,38.49153 -3,8 10,12 17.396,17.725 1.85,1.155 3.695,2.31 5.542,3.464 1.846,1.155 3.691,2.31 5.538,3.464 7.456,4.664 9.36,8.173 14.01,15.786 16.914,27.687002 33.828,55.374002 50.742,83.061002 1.906,3.12 3.29355,9.63191 5.18455,12.85491 1.893,3.223 4.28945,3.15909 6.49445,6.06709 7.094,22.578 39.094,27.578 52.094,14.578 3.906,-3.349 0.648,-8.852 -1.949,-13.705 -2.058,-3.842 -3.702,-12.434 -1.051,-17.294 6,-10 20,-9 27,-1 5.97426,7.55876 1.07896,16.83799 -2.189,21.888 -1.805,2.787 -3.646,5.492 -4.811,8.111 -3,8 8.17536,11.27418 17.41236,17.49318 6.65203,7.48408 10.5378,11.95422 16.09864,18.20237 1.321,2.047 21.96838,24.74883 21.96838,24.74883 l -7.42066,6.93989 c 0,0 -12.43972,-12.96027 -19.73772,-19.55027 -3.75873,-3.38864 -7.44266,-6.71784 -10.938,-9.871 0.638,2.752 1.93,8.272 1.93,8.272 l 25.23428,57.985 c 0,0 -21.20328,-0.582 -25.98028,-0.873 -0.267,12.854 -0.532,25.706 -0.8,38.559 -0.125,6.008 -0.25,12.015 -0.374,18.022 -1.77182,4.14855 -10.52436,4.85209 -13.949,0.969 -0.55032,-0.62399 -0.401,-33.494 -0.401,-36.438 0,-6.473 0.15254,-21.17224 0.15254,-21.17224 0,0 -9.58754,0.0632 -12.69154,0.0632 0.397,19.183 0.796,38.365 1.194,57.549 -2.78281,3.02018 -11.07709,3.00754 -16.32555,-0.0974 -0.116,-11.438 -0.66345,-26.32364 -0.78245,-37.76064 -0.022,-2.18 0.0818,-20.587 0.0818,-20.587 0,0 -20.8508,-0.565 -30.7448,-0.85 7.613,-19.401 15.228,-38.802 22.84,-58.202 1.27,-3.232 2.536,-6.468 3.739,-9.699 1.494,-2.703 2.494,-6.703 3.494,-9.703 -11,-1 -21,-2 -31.982,-1.654 -3.063,-0.207 -5.848,-0.951 -7.193,-3.27 -4.681,-8.053 -8.06364,-18.69273 -12.74364,-26.74473 -3.008,-5.179 -10.71336,-4.61027 -14.02936,-9.38527 -17.336,-24.958 -34.775,-49.846 -51.88,-74.964 0.764,93.29 1.474,186.58 2.393,279.868 -4.76068,1.74151 -18.4008,2.92493 -22.697,-1.026 0.29072,-4.21072 -0.385,-9.135 -0.577,-13.702 -0.969,-22.961 -1.937,-45.922 -2.904,-68.883 -0.993,-23.556 -1.986,-47.11 -2.979,-70.668 -0.224,-5.312 -0.447,-10.621 -0.672,-15.933 -0.061,-1.451 -18.822,-0.612 -21.521,-0.612 0.246,29.06 0.492,58.118 0.736,87.177 0.133,15.604 0.265,31.204 0.396,46.808 0.006,0.723 0.425,7.192 -0.22,7.219 -6.81337,3.49039 -13.4742,3.31976 -21.813,0.86 -1.944,-53.062 -3.888,-106.123 -5.832,-159.186 -0.85,-23.196 -1.541,-46.399 -2.305,-69.599 -0.214,-6.497 -0.427,-12.995 -0.642,-19.492 -0.052,-1.567 -0.104,-3.133 -0.154,-4.7 -0.041,-1.241 -5.399,-1.199 -5.992,-0.636 -0.945,0.896 -0.23,7.446 -0.27,8.672 -0.239,7.748 -0.479,15.496 -0.719,23.244 -0.672,21.601 -1.341,43.2 -2.009,64.8"
   id="path11"
   style="fill:#ffffff;stroke:none"
   inkscape:connector-curvature="0"
   sodipodi:nodetypes="ccsacsczzzcccccscccccccccccccccccccssccccccccccccccccccccccccccsscccccc" />
	</g>
	
</g>



</svg>