<?xml version="1.0" encoding="UTF-8" standalone="no"?>
<!-- Generator: Adobe Illustrator 13.0.0, SVG Export Plug-In . SVG Version: 6.00 Build 14948)  -->

<svg
   xmlns:dc="http://purl.org/dc/elements/1.1/"
   xmlns:cc="http://creativecommons.org/ns#"
   xmlns:rdf="http://www.w3.org/1999/02/22-rdf-syntax-ns#"
   xmlns:svg="http://www.w3.org/2000/svg"
   xmlns="http://www.w3.org/2000/svg"
   xmlns:sodipodi="http://sodipodi.sourceforge.net/DTD/sodipodi-0.dtd"
   xmlns:inkscape="http://www.inkscape.org/namespaces/inkscape"
   version="1.1"
   id="Layer_1"
   x="0px"
   y="0px"
   width="576"
   height="576"
   viewBox="-0.943 -0.943 576 576"
   enable-background="new -0.943 -0.943 576 576"
   xml:space="preserve"
   inkscape:version="0.48.1 "
   sodipodi:docname="B22c.svg"
   inkscape:export-filename="C:\Documents and Settings\bertrand.bouteilles\Bureau\Panneaux\A - Route\4_obligation\B22c.png"
   inkscape:export-xdpi="150"
   inkscape:export-ydpi="150"><metadata
   id="metadata15"><rdf:RDF><cc:Work
       rdf:about=""><dc:format>image/svg+xml</dc:format><dc:type
         rdf:resource="http://purl.org/dc/dcmitype/StillImage" /><dc:title></dc:title></cc:Work></rdf:RDF></metadata><defs
   id="defs13" /><sodipodi:namedview
   pagecolor="#ffffff"
   bordercolor="#666666"
   borderopacity="1"
   objecttolerance="10"
   gridtolerance="10"
   guidetolerance="10"
   inkscape:pageopacity="0"
   inkscape:pageshadow="2"
   inkscape:window-width="1920"
   inkscape:window-height="1174"
   id="namedview11"
   showgrid="false"
   fit-margin-top="0.1"
   fit-margin-left="0.1"
   fit-margin-right="0.1"
   fit-margin-bottom="0.1"
   inkscape:zoom="0.81944444"
   inkscape:cx="76.253316"
   inkscape:cy="228.75726"
   inkscape:window-x="1276"
   inkscape:window-y="-4"
   inkscape:window-maximized="1"
   inkscape:current-layer="Layer_1" />
<circle
   cx="287.05701"
   cy="287.05701"
   r="286.96899"
   id="circle3"
   style="fill:#ffffff;stroke:#000000;stroke-width:2.00325692;stroke-linecap:round;stroke-linejoin:round;stroke-miterlimit:4;stroke-opacity:1;stroke-dasharray:none"
   sodipodi:cx="287.05701"
   sodipodi:cy="287.05701"
   sodipodi:rx="286.96899"
   sodipodi:ry="286.96899"
   transform="matrix(0.99837419,0,0,0.99837419,0.46669332,0.46669332)" />
<circle
   cx="287.05701"
   cy="287.05701"
   r="261.66599"
   id="circle5"
   style="fill:#0000ff;fill-opacity:1;stroke:none"
   sodipodi:cx="287.05701"
   sodipodi:cy="287.05701"
   sodipodi:rx="261.66599"
   sodipodi:ry="261.66599"
   transform="matrix(0.99837419,0,0,0.99837419,0.46669332,0.46669332)" />
<path
   d="m 102.59789,234.10499 c 4.61848,-11.03304 8.20663,-23.18325 13.53895,-33.82093 3.77585,-7.53173 7.55071,-15.06447 11.32755,-22.5972 2.28927,-4.56756 1.56944,-12.15221 2.10558,-17.23793 3.17882,2.31923 6.80292,6.17595 10.44099,7.61959 4.37787,1.73817 11.1099,1.15812 15.80126,1.64732 8.7198,0.90952 18.20936,8.68186 25.8559,12.7742 16.10477,8.61896 23.41287,24.54703 30.55524,40.18456 9.38871,-5.2205 18.77842,-10.441 28.16813,-15.66249 0.88256,-0.4912 8.57104,-4.07936 8.26154,-4.98089 -1.81005,-5.28639 -3.6221,-10.57278 -5.43215,-15.86017 -1.03132,-3.0111 3.28864,-11.15284 4.25707,-14.23582 0.91551,-2.91426 -7.26118,-5.99823 -9.66626,-7.45985 -2.43204,-1.4786 -3.59914,-11.25967 -4.39984,-13.98323 -1.46761,-4.99986 -3.27866,-4.97191 -8.13874,-7.1883 4.98288,-5.81852 9.08321,-11.62806 15.66249,-15.55666 4.08834,-2.44103 5.82152,-2.94121 10.58576,-3.32759 3.55721,-0.28853 3.71595,4.03144 4.94097,7.08247 1.11119,2.7665 4.64843,8.16071 4.48469,11.16682 -0.16573,3.04703 -4.96692,5.87543 -5.6558,8.88952 -0.55709,2.43903 -0.1178,8.52811 2.31823,9.41766 2.58479,0.94247 11.01306,2.3991 12.51861,4.61848 10.29224,15.1673 20.58348,30.3356 30.87572,45.5039 4.39486,6.47745 8.79069,12.95491 13.18554,19.43136 2.47496,3.64806 -2.98015,15.20324 -4.08435,19.44733 18.08355,-3.4983 33.85986,-6.68212 52.31681,-4.75825 9.07621,0.94646 17.91881,2.26631 25.33873,7.88017 2.41807,1.83002 5.78259,5.97726 8.99036,5.59588 5.7746,-0.68688 11.5492,-1.37276 17.32579,-2.05864 17.25988,-2.05066 38.90165,-4.48171 46.54719,15.55666 3.30562,8.6589 2.93522,20.49463 4.25608,29.70163 1.16509,8.13576 4.43477,16.34738 6.63619,24.27148 -7.25219,1.48059 -14.50338,2.96317 -21.75557,4.44376 -1.39373,-7.53173 -2.78946,-15.06247 -4.1832,-22.5942 -1.0962,-5.90938 1.39873,-16.1497 -1.47359,-21.21745 -1.5974,-2.81941 -14.91672,-12.47968 -18.09154,-12.71829 -8.32844,-0.62798 -16.65787,-1.25695 -24.98431,-1.88593 0,7.65054 0,15.30108 0,22.95163 0,3.99449 -1.91488,13.68571 0.48122,17.10414 10.56379,15.06247 21.12859,30.12395 31.69338,45.18642 1.844,2.62972 5.60887,6.05813 5.72568,9.42066 0.28154,8.13974 0.56308,16.28248 0.84662,24.42322 0.57506,16.60197 1.15113,33.20593 1.72618,49.80889 -3.18382,0 -12.08931,2.0277 -12.26403,-1.74615 -0.33945,-7.35503 -0.68088,-14.70805 -1.01934,-22.06607 -0.43428,-9.38072 3.13989,-29.30628 -5.04478,-35.27855 -11.16283,-8.14474 -25.18498,-15.62156 -34.86523,-25.46952 -9.53746,-9.70021 -19.07294,-19.39941 -28.61041,-29.09862 2.65867,11.92358 5.31635,23.85116 7.97502,35.77574 2.28727,10.2583 4.98288,14.72003 0.10682,23.60956 -7.80129,14.23481 -15.60658,28.46764 -23.40888,42.70146 -2.83039,5.16359 -5.66078,10.32618 -8.49117,15.48877 -1.86396,3.40047 -6.52238,1.79708 -10.12351,1.79708 9.79704,-18.52583 19.59509,-37.05166 29.39213,-55.57849 2.73655,-5.17458 -3.06001,-9.84897 -6.05314,-14.44848 -7.58165,-11.65202 -15.16331,-23.30305 -22.74296,-34.95407 -1.26395,-1.94184 -8.80266,-16.54706 -11.15084,-16.22159 -11.94255,1.65331 -23.8861,3.30861 -35.82865,4.96591 -17.86391,2.47497 -36.13916,0.53014 -54.13585,0.021 2.49993,17.46556 3.03905,35.54212 10.09955,51.78068 9.25293,21.27835 18.50387,42.55769 27.75681,63.83405 -3.25969,0.60801 -14.28974,4.67838 -16.97037,3.17583 -2.30725,-1.2929 -4.71832,-9.5814 -5.83949,-11.85869 -7.25918,-14.74499 -14.51836,-29.48898 -21.77754,-44.23397 -9.99073,-20.29295 -18.51186,-41.37263 -27.64498,-62.06393 -10.23334,6.34766 -20.46667,12.69932 -30.70001,19.04798 -4.45075,2.7625 -20.12523,9.04727 -20.24902,13.07371 -0.41233,13.40417 -0.82466,26.80934 -1.23699,40.21052 -0.15275,4.95792 -0.3065,9.91485 -0.45725,14.87178 -0.0549,1.75115 -11.49727,4.77922 -13.50301,5.53499 -0.7977,-11.85769 -1.5954,-23.71638 -2.3921,-35.57407 -0.54911,-8.15273 -1.09821,-16.30445 -1.64532,-24.45717 -0.15275,-2.26731 -1.86896,-9.03429 -0.74778,-11.1169 1.30188,-2.42006 7.77933,-5.04479 10.01168,-6.49043 7.04554,-4.56756 14.09006,-9.13513 21.13659,-13.70369 6.30274,-4.08734 12.60747,-8.17369 18.91121,-12.25903 4.67039,-3.02707 4.93296,-2.35217 3.79582,-7.88816 -1.39573,-6.79493 -2.79246,-13.58787 -4.18918,-20.38181 -1.03632,-5.04179 1.17508,-12.41777 1.68525,-17.51248 0.43929,-4.38486 1.64532,-7.53473 -0.6759,-11.20276 -4.295,-6.78594 -8.59002,-13.57189 -12.88501,-20.35684 -3.693,-5.8375 -7.38797,-11.67399 -11.08296,-17.51149 -1.90789,-3.01409 -5.67975,0.25359 -8.60498,1.41769 -7.70046,3.06701 -15.40192,6.13401 -23.10338,9.20102 -7.21425,2.87532 -6.86682,3.78683 -12.32992,-2.01871"
   id="path7"
   style="fill:#ffffff;stroke:none"
   inkscape:connector-curvature="0" />
<polygon
   points="260.511,213.122 266.247,231.146 249.039,232.786 232.979,236.063 228.39,224.592 "
   id="polygon9"
   style="fill:#0000ff;fill-opacity:1;stroke:none"
   transform="matrix(0.99837419,0,0,0.99837419,40.140593,62.829645)" />
</svg>