<?xml version="1.0" encoding="UTF-8" standalone="no"?>
<!-- Generator: Adobe Illustrator 16.0.2, SVG Export Plug-In . SVG Version: 6.00 Build 0)  -->

<svg
   xmlns:dc="http://purl.org/dc/elements/1.1/"
   xmlns:cc="http://creativecommons.org/ns#"
   xmlns:rdf="http://www.w3.org/1999/02/22-rdf-syntax-ns#"
   xmlns:svg="http://www.w3.org/2000/svg"
   xmlns="http://www.w3.org/2000/svg"
   xmlns:sodipodi="http://sodipodi.sourceforge.net/DTD/sodipodi-0.dtd"
   xmlns:inkscape="http://www.inkscape.org/namespaces/inkscape"
   version="1.1"
   id="Layer_1"
   sodipodi:docname="B25.svg"
   inkscape:version="0.48.1 "
   x="0px"
   y="0px"
   width="576"
   height="576"
   viewBox="0 0 575.99998 575.99998"
   enable-background="new 0 0 577.137 577.137"
   xml:space="preserve"
   inkscape:export-filename="C:\Documents and Settings\bertrand.bouteilles\Bureau\Panneaux\A - Route\4_obligation\B25.png"
   inkscape:export-xdpi="150"
   inkscape:export-ydpi="150"><metadata
   id="metadata16"><rdf:RDF><cc:Work
       rdf:about=""><dc:format>image/svg+xml</dc:format><dc:type
         rdf:resource="http://purl.org/dc/dcmitype/StillImage" /><dc:title></dc:title></cc:Work></rdf:RDF></metadata><defs
   id="defs14">
	
	
	
</defs>
<sodipodi:namedview
   id="namedview11"
   inkscape:current-layer="Layer_1"
   inkscape:window-y="-4"
   inkscape:window-x="1276"
   fit-margin-bottom="0.1"
   fit-margin-right="0.1"
   inkscape:window-height="1174"
   inkscape:window-width="1920"
   inkscape:pageshadow="2"
   inkscape:pageopacity="0"
   inkscape:window-maximized="1"
   objecttolerance="10"
   fit-margin-top="0.1"
   inkscape:cy="158.39319"
   borderopacity="1"
   showgrid="false"
   inkscape:cx="389.60559"
   bordercolor="#666666"
   pagecolor="#ffffff"
   inkscape:zoom="0.81944444"
   guidetolerance="10"
   fit-margin-left="0.1"
   gridtolerance="10">
	</sodipodi:namedview>
<circle
   id="circle3"
   sodipodi:cy="287.62"
   sodipodi:cx="287.62"
   sodipodi:rx="286.96899"
   sodipodi:ry="286.96899"
   cx="287.62"
   cy="287.62"
   r="286.96899"
   transform="matrix(1.000102,0,0,1.000102,0.84822767,-0.14690108)"
   style="fill:#ffffff;stroke:#000000;stroke-width:2.00325704;stroke-linecap:round;stroke-linejoin:round;stroke-miterlimit:4;stroke-dasharray:none">
</circle>
<circle
   id="circle5"
   sodipodi:cy="287.62"
   sodipodi:cx="287.62"
   sodipodi:rx="261.66599"
   sodipodi:ry="261.66599"
   cx="287.62"
   cy="287.62"
   r="261.66599"
   transform="matrix(1.000102,0,0,1.000102,0.84822767,-0.14690108)"
   style="fill:#0000ff">
</circle>
<g
   id="g2996"
   transform="matrix(1.000102,0,0,1.000102,-537.16812,-51.0868)"><path
     d="m 733.21947,218.8392 c 8.95,1.839 17.465,5.405 25.544,10.699 l 11.135,9.402 c 4.912,5.836 8.077,9.944 9.497,12.32 l 5.076,10.051 c 2.837,8.214 4.365,16.591 4.585,25.127 l -0.819,12.32 -2.784,9.078 c -3.167,7.781 -8.08,15.671 -14.737,23.668 l 0.819,2.107 7.86,8.592 5.076,7.619 4.585,11.348 c 2.51,7.891 3.766,15.618 3.766,23.182 0,15.348 -5.186,29.938 -15.556,43.77 -15.719,18.698 -36.081,28.479 -61.077,29.342 -9.063,0 -16.539,-0.539 -22.434,-1.621 -7.642,-2.052 -13.046,-3.781 -16.211,-5.188 l -9.825,-4.863 -8.351,-5.998 -7.532,-6.646 -7.696,-9.889 c -4.478,-7.239 -7.643,-14.104 -9.497,-20.588 l -0.164,-1.459 43.065,-11.672 c 2.072,8.105 7.259,14.266 15.556,18.48 5.13,2.055 12.716,3.189 22.761,3.404 l 7.696,-0.811 6.222,-1.945 4.749,-2.756 c 3.275,-2.16 6.223,-5.35 8.842,-9.564 1.31,-2.7 2.292,-6.375 2.948,-11.023 0.217,-3.781 0,-5.942 -0.655,-6.484 0.218,-1.728 -0.547,-4.377 -2.292,-7.943 l -4.094,-5.674 c -2.947,-2.918 -5.514,-4.916 -7.696,-5.998 -2.73,-1.512 -6.386,-2.756 -10.971,-3.729 l -17.848,-0.486 v -43.932 c 2.4,0.218 7.148,-0.106 14.246,-0.973 l 0.328,0.324 c 12.99,-1.512 21.177,-8.536 24.562,-21.074 l -0.328,-7.295 0.328,-1.135 -0.655,-2.27 -3.111,-5.998 c -3.058,-3.782 -5.841,-6.267 -8.351,-7.457 -0.438,-0.324 -4.15,-1.297 -11.135,-2.918 l -10.316,0.324 v -0.324 l -10.152,1.621 -7.205,3.08 -2.947,2.27 -3.275,4.701 -2.457,5.998 -42.574,-12.645 2.784,-7.295 0.982,-0.973 c -0.22,-0.54 1.036,-3.242 3.766,-8.105 l 4.585,-7.295 6.55,-7.457 c 2.4,-1.297 3.603,-2.27 3.603,-2.918 l 3.438,-2.432 c 8.515,-6.267 18.447,-10.266 29.802,-11.996 5.675,-0.864 12.499,-1.297 20.469,-1.297 5.784,0.002 11.625,0.435 17.52,1.299 z"
     id="path10"
     inkscape:connector-curvature="0"
     style="fill:#ffffff" /><path
     d="m 842.13047,363.7652 c -0.328,-6.051 -0.491,-11.996 -0.491,-17.832 0,-2.918 0.054,-5.836 0.163,-8.754 0.328,-11.454 1.254,-22.586 2.784,-33.395 v -1.135 l 0.654,-1.459 1.146,-11.186 0.819,-1.621 1.637,-9.078 0.655,-0.973 c 1.638,-7.781 5.184,-16.535 10.644,-26.262 l 4.749,-7.133 9.17,-9.24 c 9.715,-7.781 22.323,-13.346 37.825,-16.697 4.912,-0.864 9.988,-1.297 15.229,-1.297 h 1.31 c 8.188,0.218 16.756,1.568 25.709,4.053 3.709,0.433 9.66,2.865 17.848,7.295 8.405,5.188 16.048,12.267 22.925,21.236 l 5.24003,7.943 4.257,8.916 1.802,6.484 0.491,0.486 v 1.621 c 1.09,2.27 1.745,4.053 1.965,5.35 l 0.655,0.811 2.783,14.428 0.491,0.324 -0.327,2.107 0.654,1.297 1.638,17.346 0.655,1.621 -0.491,0.162 1.146,10.213 -0.328,0.324 c 0.436,1.082 0.436,1.73 0,1.945 l 0.491,1.621 -0.327,0.486 0.818,11.023 -0.327,0.324 0.491,4.701 -0.164,0.324 v 6.484 c -0.109,4 -0.438,8.81 -0.982,14.428 l -0.818,5.998 0.327,0.324 -0.818,1.621 c -0.327,4 -1.256,8.754 -2.784,14.266 l -0.982,3.08 -0.163,1.783 -4.258,11.996 -0.818,0.648 c 0,1.082 -1.42,4.377 -4.258,9.889 l -7.85903,11.186 c -8.625,9.836 -18.177,17.021 -28.656,21.561 -6.877,2.703 -13.811,4.483 -20.796,5.35 l -12.608,0.811 -2.947,-0.162 c -24.89,-0.648 -44.977,-8.645 -60.259,-23.992 -7.532,-8.32 -13.21,-17.994 -17.029,-29.018 -4.368,-11.238 -7.042,-23.072 -8.024,-35.502 l -0.657,-7.13 z m 81.546,48.957 c 6.767,0.434 10.971,0.324 12.608,-0.324 l 0.163,0.324 9.007,-1.945 c 7.204,-2.376 12.716,-7.51 16.538,-15.4 2.947,-7.888 5.13,-17.29 6.55,-28.207 l 0.818,-36.637 -0.491,-17.184 -1.637,-12.807 -0.655,-0.648 -2.129,-9.078 -0.655,-0.324 c -1.637,-6.484 -4.748,-12.482 -9.333,-17.994 -3.495,-2.809 -6.278,-4.646 -8.352,-5.512 l -9.497,-2.27 -9.988,-0.486 c -4.478,-0.106 -9.443,0.811 -14.901,2.756 -5.022,2.378 -9.226,6.646 -12.608,12.807 -2.402,5.729 -4.585,12.916 -6.55,21.561 l 0.327,0.973 c -0.654,0.542 -1.038,2.325 -1.146,5.35 -1.53,12.645 -1.694,31.181 -0.491,55.604 l 2.619,17.67 3.439,12.482 c 2.51,6.484 5.948,11.186 10.315,14.104 3.932,2.484 9.279,4.212 16.049,5.185 z"
     id="path12"
     inkscape:connector-curvature="0"
     style="fill:#ffffff" /></g>
</svg>