<?xml version="1.0" encoding="UTF-8" standalone="no"?>
<!-- Generator: Adobe Illustrator 13.0.0, SVG Export Plug-In  -->

<svg
   xmlns:dc="http://purl.org/dc/elements/1.1/"
   xmlns:cc="http://creativecommons.org/ns#"
   xmlns:rdf="http://www.w3.org/1999/02/22-rdf-syntax-ns#"
   xmlns:svg="http://www.w3.org/2000/svg"
   xmlns="http://www.w3.org/2000/svg"
   xmlns:sodipodi="http://sodipodi.sourceforge.net/DTD/sodipodi-0.dtd"
   xmlns:inkscape="http://www.inkscape.org/namespaces/inkscape"
   version="1.1"
   x="0px"
   y="0px"
   width="576"
   height="576"
   viewBox="-0.178 -0.451 575.99999 575.99999"
   enable-background="new -0.178 -0.451 598 598"
   xml:space="preserve"
   id="svg2"
   inkscape:version="0.48.1 "
   sodipodi:docname="B26.svg"
   inkscape:export-filename="C:\Documents and Settings\bertrand.bouteilles\Bureau\Panneaux\A - Route\4_obligation\B26.png"
   inkscape:export-xdpi="150"
   inkscape:export-ydpi="150"><metadata
   id="metadata138"><rdf:RDF><cc:Work
       rdf:about=""><dc:format>image/svg+xml</dc:format><dc:type
         rdf:resource="http://purl.org/dc/dcmitype/StillImage" /><dc:title></dc:title></cc:Work></rdf:RDF></metadata><sodipodi:namedview
   pagecolor="#ffffff"
   bordercolor="#666666"
   borderopacity="1"
   objecttolerance="10"
   gridtolerance="10"
   guidetolerance="10"
   inkscape:pageopacity="0"
   inkscape:pageshadow="2"
   inkscape:window-width="1920"
   inkscape:window-height="1174"
   id="namedview136"
   showgrid="false"
   fit-margin-top="0"
   fit-margin-left="0"
   fit-margin-right="0"
   fit-margin-bottom="0"
   inkscape:zoom="0.55811773"
   inkscape:cx="-81.637283"
   inkscape:cy="187.62224"
   inkscape:window-x="1276"
   inkscape:window-y="-4"
   inkscape:window-maximized="1"
   inkscape:current-layer="svg2" />
<defs
   id="defs4">
</defs>
<path
   d="M 574.82045,287.549 C 574.82045,129.04392 446.32708,0.55054856 287.822,0.55054856 129.31692,0.55054856 0.8235448,129.04392 0.8235448,287.549 c 0,158.50508 128.4933752,286.99844 286.9984552,286.99844 158.50508,0 286.99845,-128.49336 286.99845,-286.99844 l 0,0 0,0 z"
   id="path6"
   style="fill:#ffffff;fill-opacity:1;stroke:#000000;stroke-width:2.00309205;stroke-linecap:round;stroke-linejoin:round;stroke-miterlimit:4;stroke-opacity:1;stroke-dasharray:none"
   inkscape:connector-curvature="0" />
<path
   d="m 549.51472,287.54899 c 0,-144.52887 -117.16482,-261.692723 -261.69272,-261.692723 -144.52887,0 -261.69273,117.163853 -261.69273,261.692723 0,144.52887 117.16386,261.69273 261.69273,261.69273 144.52887,0 261.69272,-117.16386 261.69272,-261.69273 l 0,0 0,0 z"
   id="path8"
   style="fill:#0000ff;fill-opacity:1;stroke:none"
   inkscape:connector-curvature="0" />






























































<g
   id="g3046"
   transform="matrix(1.001546,0,0,1.001546,-3.6019259,-1.2808149)"><path
     inkscape:connector-curvature="0"
     style="fill:#ffffff;stroke:none"
     id="path10"
     d="m 314.08734,91.513808 c 77.12224,0 139.64267,88.246462 139.64267,197.105142 0,108.85868 -62.52043,197.10515 -139.64267,197.10515 l -55.20893,-2.00412 C 185.9416,477.22226 128.21814,392.13943 128.21814,288.13743 c 0,-105.51015 59.4088,-191.545442 133.84027,-195.814662 l 52.02893,-0.80896 z" /><path
     inkscape:connector-curvature="0"
     style="fill:none;stroke:none"
     id="path12"
     d="m 340.63486,163.79478 c 0.44974,0.12038 0.89852,0.24847 1.34538,0.38426" /><path
     inkscape:connector-curvature="0"
     style="fill:none;stroke:none"
     id="path14"
     d="m 342.76224,164.1617 c 32.07062,9.90885 57.46825,61.95705 58.94461,125.25755 1.65645,70.98663 -27.39692,129.2417 -64.89243,130.11615 -37.49646,0.87541 -69.23579,-55.96108 -70.89128,-126.94771 -1.65645,-70.98662 27.39693,-129.24169 64.89339,-130.11711 3.59893,-0.0838 7.14682,0.36404 10.61766,1.30494" /><path
     inkscape:connector-curvature="0"
     style="fill:#0000ff;fill-opacity:1;stroke:none"
     id="path16"
     d="M 352.10578,416.56534 C 380.02179,397.71069 399.15958,348.7356 397.83153,291.75851 396.21264,222.51597 364.9529,166.48555 326.86416,162.3502 l 6.96576,0.58746 c 38.08682,4.01208 69.31477,58.63644 70.89129,126.16667 1.29627,55.56526 -17.87041,103.33943 -45.79605,121.74337 l -6.81938,5.71764 z" /><path
     inkscape:connector-curvature="0"
     style="fill:none;stroke:#0000ff;stroke-width:2.88915873;stroke-linecap:round;stroke-linejoin:round;stroke-opacity:1;stroke-dasharray:11.55663449"
     id="path18"
     d="m 324.9785,479.30246 c -69.45633,-1.30879 -125.49445,-86.1759 -125.49445,-190.67773 0,-105.31561 56.91546,-190.691212 127.12298,-190.691212" /><path
     inkscape:connector-curvature="0"
     style="fill:none;stroke:none"
     id="path20"
     d="m 314.07482,170.57467 c -29.59943,21.54157 -50.0643,67.73633 -50.0643,121.25606 0,50.02964 17.88485,93.65882 44.39673,116.73261 24.08499,-27.708 39.70956,-72.26268 39.70956,-122.51285 -9.6e-4,-46.1909 -13.20345,-87.5704 -34.04199,-115.47582 z" /><path
     inkscape:connector-curvature="0"
     style="opacity:0.27999998;fill:#ffffff;stroke:none"
     id="path22"
     d="m 314.07482,170.57467 c -29.59943,21.54157 -50.0643,67.73633 -50.0643,121.25606 0,50.02964 17.88485,93.65882 44.39673,116.73261 24.08499,-27.708 39.70956,-72.26268 39.70956,-122.51285 -9.6e-4,-46.1909 -13.20345,-87.5704 -34.04199,-115.47582 z" /><path
     inkscape:connector-curvature="0"
     style="fill:#0000ff;fill-opacity:1;stroke:none"
     id="path24"
     d="m 314.07482,166.08011 c -30.73872,21.94797 -51.99041,69.01525 -51.99041,123.5462 0,50.97535 18.57248,95.42794 46.10423,118.93703" /><path
     inkscape:connector-curvature="0"
     style="fill:#0000ff;fill-opacity:1;stroke:none"
     id="path26"
     d="m 307.12254,409.20473 c 27.58858,-28.23093 45.48691,-73.62732 45.48691,-124.8261 0,-47.06343 -15.12378,-89.223 -38.99401,-117.65617" /><path
     inkscape:connector-curvature="0"
     style="opacity:0.98999999;fill:#0000ff;fill-opacity:1;stroke:none"
     id="path28"
     d="m 190.81657,136.45564 h 6.84827 l 0.85616,-1.28375 -1.92611,-5.13596 -19.26106,-1.92611 -12.19899,6.42067 -3.85221,16.05121 20.54481,1.28374 8.98817,-5.13596 0.74925,-1.12388 h -0.74925 v -9.14996 z m -6.19917,6.44378 -3.88303,2.21888 -8.87453,-0.55472 1.66415,-6.93398 5.26983,-2.7736 8.32078,0.83208 0.83207,2.21888 -3.32927,4.99246 z" /><path
     inkscape:connector-curvature="0"
     style="fill:#0000ff;fill-opacity:1;stroke:none"
     id="path30"
     d="m 236.08006,130.99898 -19.26106,-1.92611 -12.19899,6.42068 -0.23113,0.96305 h -6.725 -6.84827 v 9.149 h 0.74925 10.62826 l -1.42532,5.93915 20.5448,1.28375 8.98818,-5.13596 7.70442,-11.55664 -1.92514,-5.13692 z m -11.97749,12.8635 -3.88303,2.21887 -8.87453,-0.55472 1.66415,-6.93398 5.26983,-2.77359 8.32077,0.83208 0.83208,2.21887 -3.32927,4.99247 z" /><path
     inkscape:connector-curvature="0"
     style="opacity:0.98999999;fill:#0000ff;fill-opacity:1;stroke:none"
     id="path32"
     d="m 156.95371,219.41397 6.40911,-0.33803 0.72422,-1.49947 -2.11005,-5.73306 -18.14295,-1.23559 -11.03274,7.8874 -2.6455,18.4049 19.30536,0.44301 8.10601,-6.27236 0.63369,-1.31168 -0.7011,0.0366 -0.54605,-10.38171 z m -5.41621,7.61775 -3.50166,2.70907 -8.33908,-0.19165 1.14218,-7.95 4.76615,-3.40728 7.83733,0.53353 0.91104,2.47697 -2.81596,5.82936 z" /><path
     inkscape:connector-curvature="0"
     style="fill:#0000ff;fill-opacity:1;stroke:none"
     id="path34"
     d="m 198.99096,210.98726 -18.14295,-1.2356 -11.03273,7.88741 -0.15891,1.10366 -6.29451,0.33129 -6.40912,0.33803 0.54702,10.38267 0.7011,-0.0366 9.94737,-0.52486 -0.97846,6.80975 19.30536,0.443 8.10505,-6.27236 6.51987,-13.4943 -2.10909,-5.73209 z m -10.44045,15.18927 -3.50166,2.71003 -8.33908,-0.19165 1.14218,-7.95096 4.76615,-3.40728 7.83829,0.53353 0.91105,2.47697 -2.81693,5.82936 z" /><path
     inkscape:connector-curvature="0"
     style="opacity:0.98999999;fill:#0000ff;fill-opacity:1;stroke:none"
     id="path36"
     d="m 190.1328,430.23684 h 0.74926 l -0.74926,-1.12292 -8.98817,-5.13692 -20.5448,1.28471 3.85221,16.05024 12.19899,6.41971 19.26105,-1.92611 1.92611,-5.13499 -0.85615,-1.28472 h -6.84827 v -9.149 z m -2.87086,7.69768 -0.83207,2.21888 -8.32078,0.83207 -5.26983,-2.77359 -1.66415,-6.93398 8.87453,-0.55472 3.88303,2.21888 3.32927,4.99246 z" /><path
     inkscape:connector-curvature="0"
     style="opacity:0.98999999;fill:#0000ff;fill-opacity:1;stroke:none"
     id="path38"
     d="m 156.18808,342.30048 0.70014,0.052 -0.60672,-1.3242 -7.97312,-6.43897 -19.31017,0.0424 2.26221,18.45499 10.86709,8.11468 18.16414,-0.85904 2.2285,-5.68683 -0.6934,-1.51488 -6.40044,-0.46997 0.76177,-10.37016 z m -3.32446,8.52687 -0.96209,2.45868 -7.84695,0.36981 -4.69489,-3.50455 -0.97749,-7.97215 8.34196,-0.0193 3.44484,2.78129 2.69462,5.88618 z" /><path
     inkscape:connector-curvature="0"
     style="fill:#0000ff;fill-opacity:1;stroke:none"
     id="path40"
     d="m 199.50812,356.27823 -6.23865,-13.62623 -7.97312,-6.43994 -19.31113,0.0433 0.83785,6.82805 -9.93389,-0.73096 -0.70014,-0.052 -0.76273,10.37016 6.40044,0.46997 6.28585,0.46226 0.13579,1.10751 10.86613,8.11372 18.16414,-0.85808 2.22946,-5.68779 z m -9.65749,-3.82717 -0.96209,2.45771 -7.84695,0.37078 -4.69489,-3.50552 -0.9775,-7.97215 8.34197,-0.0202 3.44484,2.78226 2.69462,5.88714 z" /><polygon
     transform="matrix(0.96305287,0,0,0.96305287,0.30352419,0.03052724)"
     style="fill:#0000ff;fill-opacity:1;stroke:none"
     id="polygon42"
     points="295.822,171.659 289.822,165.659 335.822,137.659 336.489,146.326 " /><polygon
     transform="matrix(0.96305287,0,0,0.96305287,0.30352419,0.03052724)"
     style="fill:#0000ff;fill-opacity:1;stroke:none"
     id="polygon44"
     points="285.156,188.326 276.039,183.386 251.822,238.326 259.822,240.326 " /><polyline
     transform="matrix(0.96305287,0,0,0.96305287,0.30352419,0.03052724)"
     style="fill:#0000ff;fill-opacity:1;stroke:none"
     id="polyline46"
     points="  249.943,255.356 247.822,340.992 254.489,339.659 255.822,260.326 " /><polygon
     transform="matrix(0.96305287,0,0,0.96305287,0.30352419,0.03052724)"
     style="fill:#0000ff;fill-opacity:1;stroke:none"
     id="polygon48"
     points="258.489,359.659 251.822,362.326 272.372,417.748 280.489,414.992 " /><polyline
     transform="matrix(0.96305287,0,0,0.96305287,0.30352419,0.03052724)"
     style="fill:#0000ff;fill-opacity:1;stroke:none"
     id="polyline50"
     points="287.822,433.659 332.489,462.992 334.489,453.659 293.822,428.326 " /><polygon
     transform="matrix(0.96305287,0,0,0.96305287,0.30352419,0.03052724)"
     style="fill:#0000ff;fill-opacity:1;stroke:none"
     id="polygon52"
     points="441.156,260.993 435.392,260.03 433.822,338.992 441.156,343.659 " /><polygon
     transform="matrix(0.96305287,0,0,0.96305287,0.30352419,0.03052724)"
     style="fill:#0000ff;fill-opacity:1;stroke:none"
     id="polygon54"
     points="411.822,177.659 406.111,179.019 432.489,244.993 440.489,242.993 " /><polyline
     transform="matrix(0.96305287,0,0,0.96305287,0.30352419,0.03052724)"
     style="fill:#0000ff;fill-opacity:1;stroke:none"
     id="polyline56"
     points="394.489,170.325 353.156,144.993 353.156,136.993 396.489,165.659 " /><path
     inkscape:connector-curvature="0"
     style="fill:#0000ff;fill-opacity:1;stroke:none"
     id="path58"
     d="m 235.117,438.05298 -7.70442,-11.55664 -8.98817,-5.13692 -20.54481,1.28471 1.42532,5.93819 h -10.62825 -0.74926 v 9.149 h 6.84827 6.725 l 0.23113,0.96305 12.19899,6.41971 19.26106,-1.9261 1.92514,-5.135 z m -10.57528,-2.73604 -0.83208,2.21888 -8.32077,0.83208 -5.26983,-2.7736 -1.66415,-6.93398 8.87453,-0.55472 3.88303,2.21888 3.32927,4.99246 z" /><path
     inkscape:connector-curvature="0"
     style="fill:#0000ff;fill-opacity:1;stroke:none"
     id="path60"
     d="m 230.30174,474.00567 c 13.20923,16.03964 33.80219,13.40473 53.2809,14.41208 9.41095,0.48731 51.17567,5.23709 55.54407,-5.26308 -16.35167,3.11259 -34.76139,2.14183 -51.26523,0.87156 -19.20038,-1.47636 -40.83344,0.0154 -57.55974,-10.02056" /><path
     inkscape:connector-curvature="0"
     style="fill:#0000ff;fill-opacity:1;stroke:none"
     id="path62"
     d="m 224.84508,335.48592 c -6.17028,-4.97898 -15.83355,1.32516 -21.18716,3.85221 -4.52153,5.71283 -5.37287,17.30221 1.9261,22.15022 6.86272,4.55909 16.52021,-2.789 21.88923,-5.89677 4.56584,-2.64358 0.17046,-17.84634 -2.62817,-20.10566 z m -2.43652,17.18375 c -3.22045,1.86544 -9.01418,6.27333 -13.13315,3.53826 -4.379,-2.90938 -3.86859,-9.86262 -1.15567,-13.29109 3.21178,-1.51585 9.01033,-5.29872 12.7123,-2.31037 1.68053,1.35502 4.31737,10.47706 1.57652,12.0632 z" /><path
     inkscape:connector-curvature="0"
     style="fill:#0000ff;fill-opacity:1;stroke:none"
     id="path64"
     d="m 252.73124,327.79209 c -4.99632,-4.91253 -13.97293,-0.10112 -18.86717,1.70749 -4.42523,4.70163 -6.11731,14.90903 -0.12231,19.79845 5.63772,4.59472 14.69427,-1.14219 19.64821,-3.46507 4.21528,-1.97618 1.60733,-15.81236 -0.65873,-18.04087 z m -3.53633,15.04289 c -2.97198,1.39257 -8.40649,4.83549 -11.78873,2.0773 -3.597,-2.93249 -2.58194,-9.05847 0.0742,-11.88022 2.93538,-1.0844 8.3227,-3.97163 11.31972,-1.02372 1.35983,1.33768 2.92383,9.64016 0.39485,10.82664 z" /><polygon
     transform="matrix(0.96305287,0,0,0.96305287,0.30352419,0.03052724)"
     style="fill:#0000ff;fill-opacity:1;stroke:none"
     id="polygon66"
     points="235.489,361.326 233.822,354.992 240.822,351.326 243.156,358.992 " /><path
     inkscape:connector-curvature="0"
     style="fill:#0000ff;fill-opacity:1;stroke:none"
     id="path68"
     d="m 255.26792,410.29683 c -7.17474,-3.3755 -15.06889,5.03869 -19.67132,8.76282 -3.03939,6.62099 -1.12003,18.08228 7.11985,21.06293 7.74776,2.80345 15.38863,-6.62292 19.86875,-10.91524 3.80887,-3.64997 -4.06312,-17.37925 -7.31728,-18.91051 z m 1.70461,17.27043 c -2.68692,2.5752 -7.27105,8.23025 -11.92067,6.54972 -4.94335,-1.78839 -6.09516,-8.66555 -4.2721,-12.6391 2.76107,-2.23332 7.49929,-7.28261 11.80317,-5.25635 1.95307,0.91875 6.67685,9.15575 4.3896,11.34573 z" /><path
     inkscape:connector-curvature="0"
     style="fill:#0000ff;fill-opacity:1;stroke:none"
     id="path70"
     d="m 280.53747,396.21411 c -6.01812,-3.58834 -13.59927,3.21274 -17.92531,6.12983 -3.18578,5.61556 -2.40955,15.93371 4.57258,19.26298 6.56513,3.12896 14.00471,-4.59087 18.26815,-8.02126 3.62589,-2.91902 -2.18613,-15.74303 -4.91542,-17.37155 z m 0.12905,15.45315 c -2.55691,2.05708 -7.02162,6.6884 -10.96147,4.81141 -4.18832,-1.99641 -4.65444,-8.18884 -2.74374,-11.55953 2.59543,-1.7489 7.14489,-5.83128 10.75538,-3.67597 1.63815,0.97557 5.12536,8.67133 2.94983,10.42409 z" /><polygon
     transform="matrix(0.96305287,0,0,0.96305287,0.30352419,0.03052724)"
     style="fill:#0000ff;fill-opacity:1;stroke:none"
     id="polygon72"
     points="270.093,438.084 266.973,432.325 272.905,427.104 276.989,434 " /><path
     inkscape:connector-curvature="0"
     style="fill:#0000ff;fill-opacity:1;stroke:none"
     id="path74"
     d="m 321.00399,459.38267 c -6.74426,4.16906 -4.00149,15.37611 -3.3938,21.26421 3.8888,6.16065 14.54017,10.80931 21.53482,5.53178 6.57765,-4.96165 2.84968,-16.51058 1.69883,-22.60671 -0.97943,-5.18411 -16.78024,-6.08071 -19.83985,-4.18928 z m 15.40306,7.99623 c 0.69148,3.65768 2.92672,10.58588 -1.01891,13.56364 -4.19698,3.16748 -10.5878,0.37848 -12.92224,-3.31772 -0.365,-3.53344 -2.00989,-10.25844 2.03782,-12.75949 1.83558,-1.13544 11.31491,-0.59709 11.90333,2.51357 z" /><path
     inkscape:connector-curvature="0"
     style="fill:#0000ff;fill-opacity:1;stroke:none"
     id="path76"
     d="m 322.99654,430.52287 c -6.29162,3.08369 -4.73148,13.1476 -4.64769,18.36445 2.96716,5.73498 12.03623,10.71686 18.637,6.68263 6.20495,-3.79347 3.79732,-14.24067 3.24934,-19.68577 -0.46708,-4.63036 -14.38512,-6.75967 -17.23865,-5.36131 z m 13.01855,8.32559 c 0.3284,3.26571 1.77298,9.5323 -1.95114,11.81088 -3.95911,2.42015 -9.40229,-0.57013 -11.18201,-4.01015 -0.0501,-3.12992 -0.98617,-9.16923 2.789,-11.01829 1.71134,-0.84171 10.0639,0.43819 10.34415,3.21756 z" /><polygon
     transform="matrix(0.96305287,0,0,0.96305287,0.30352419,0.03052724)"
     style="fill:#0000ff;fill-opacity:1;stroke:none"
     id="polygon78"
     points="346.043,479.086 339.515,478.558 338.379,470.738 346.385,471.079 " /><path
     inkscape:connector-curvature="0"
     style="fill:none;stroke:none"
     id="path80"
     d="m 392.48947,414.94356 c 1.21634,-3.27245 -2.78996,-6.50253 -4.61109,-8.39397 -1.54955,-1.60926 -7.43573,1.71327 -8.09735,3.08755 -1.46095,3.02976 2.11294,6.36578 3.69234,8.31115 2.82079,1.28375 7.72176,0.47382 9.0161,-3.00473 z" /><path
     inkscape:connector-curvature="0"
     style="fill:none;stroke:none"
     id="path82"
     d="m 402.22883,424.30444 c -1.90781,-1.66801 -8.1378,2.67825 -8.73104,4.30003 -1.30879,3.57389 3.04999,6.99176 5.02617,9.0344 3.29557,1.17107 8.69252,-0.23403 9.76825,-4.301 1.00928,-3.82236 -3.82236,-7.07555 -6.06338,-9.03343 z" /><path
     inkscape:connector-curvature="0"
     style="fill:#0000ff;fill-opacity:1;stroke:none"
     id="path84"
     d="m 403.13699,419.71453 c -1.35309,-1.18263 -4.01304,-0.54509 -6.69804,0.78296 l -1.10365,-1.53607 c 0.58938,-0.69051 1.08343,-1.47058 1.41954,-2.37296 2.02722,-5.45377 -4.64962,-10.83435 -7.68517,-13.98931 -2.58387,-2.6821 -12.38967,2.85738 -13.49429,5.14944 -2.43364,5.04929 3.52092,10.60803 6.15294,13.8487 2.40763,1.09596 5.72054,1.26931 8.67326,0.40738 l 1.45709,1.38487 c -1.68534,1.31264 -2.95657,2.63491 -3.27149,3.49588 -2.18131,5.95648 5.083,11.65101 8.37568,15.0554 5.49132,1.95307 14.48913,-0.38907 16.2804,-7.16511 1.68342,-6.37348 -6.36866,-11.79451 -10.10627,-15.06118 z m -19.66362,-1.76624 c -1.5794,-1.94537 -5.15329,-5.28139 -3.69234,-8.31115 0.66258,-1.37428 6.5478,-4.69681 8.09735,-3.08755 1.82113,1.89144 5.82743,5.12055 4.61109,8.39397 -1.29434,3.47855 -6.19531,4.28848 -9.0161,3.00473 z m 24.81788,15.38958 c -1.07477,4.06697 -6.47268,5.47207 -9.76825,4.301 -1.97618,-2.04264 -6.33496,-5.46051 -5.02617,-9.0344 0.59324,-1.62178 6.82323,-5.96804 8.73104,-4.30003 2.24198,1.95788 7.07362,5.21107 6.06338,9.03343 z" /><path
     inkscape:connector-curvature="0"
     style="fill:#0000ff;fill-opacity:1;stroke:none"
     id="path86"
     d="m 423.79158,347.35844 c 0.0193,6.34266 8.80808,9.16537 13.07633,11.21667 5.82744,-0.0722 13.45482,-5.3902 12.78549,-12.36656 -0.62887,-6.56128 -10.06197,-8.85431 -14.701,-10.62151 -3.9437,-1.50236 -11.16852,8.89476 -11.16082,11.7714 z m 11.90141,-7.15067 c 2.7813,1.05936 8.44212,2.4346 8.81867,6.37156 0.4016,4.18639 -4.17387,7.37506 -7.67167,7.41936 -2.56076,-1.22982 -7.83444,-2.92383 -7.84503,-6.72982 -0.006,-1.72675 4.32988,-7.96444 6.69803,-7.0611 z" /><path
     inkscape:connector-curvature="0"
     style="fill:#0000ff;fill-opacity:1;stroke:none"
     id="path88"
     d="m 404.95234,333.92096 c -0.53257,5.57993 6.98117,8.72815 10.57336,10.85457 5.1533,0.37848 12.34441,-3.72027 12.35789,-9.90693 0.0116,-5.81972 -8.11757,-8.54998 -12.05934,-10.45682 -3.35432,-1.6189 -10.63115,6.97635 -10.87191,9.50918 z m 11.12519,-5.38924 c 2.36333,1.14218 7.24119,2.78226 7.23638,6.27332 -0.01,3.71257 -4.32507,6.17125 -7.41551,5.94589 -2.15531,-1.27701 -6.66433,-3.16748 -6.34555,-6.51601 0.14445,-1.51874 4.5119,-6.67589 6.52468,-5.7032 z" /><polygon
     transform="matrix(0.96305287,0,0,0.96305287,0.30352419,0.03052724)"
     style="fill:#0000ff;fill-opacity:1;stroke:none"
     id="polygon90"
     points="446.633,352.649 443.539,356.879 437.732,354.38 441.317,349.064 " /><path
     inkscape:connector-curvature="0"
     style="fill:#0000ff;fill-opacity:1;stroke:none"
     id="path92"
     d="m 223.56037,102.76227 c 13.20923,-16.039652 33.80316,-13.404742 53.27994,-14.412092 9.41095,-0.4873 51.17663,-5.23708 55.54503,5.26309 -16.35167,-3.11259 -34.76139,-2.14183 -51.26523,-0.87157 -19.20038,1.47636 -40.83344,-0.0154 -57.55974,10.020572" /><path
     inkscape:connector-curvature="0"
     style="fill:#0000ff;fill-opacity:1;stroke:none"
     id="path94"
     d="m 231.00381,223.39331 c -5.36902,-3.10874 -15.02556,-10.45587 -21.88923,-5.89677 -7.29898,4.848 -6.44764,16.43738 -1.92611,22.15021 5.35361,2.52705 15.01688,8.8312 21.18716,3.85221 2.7996,-2.25836 7.19497,-17.46207 2.62818,-20.10565 z m -6.63929,14.98606 c -3.70198,2.98739 -9.50052,-0.79452 -12.7123,-2.31036 -2.71292,-3.42847 -3.22334,-10.38171 1.15566,-13.29109 4.11802,-2.73507 9.91271,1.67282 13.13316,3.53825 2.73988,1.58615 0.10304,10.70723 -1.57652,12.0632 z" /><path
     inkscape:connector-curvature="0"
     style="fill:#0000ff;fill-opacity:1;stroke:none"
     id="path96"
     d="m 256.92148,233.15192 c -4.9549,-2.32288 -14.01049,-8.05979 -19.6482,-3.46506 -5.995,4.88845 -4.30292,15.09682 0.12231,19.79748 4.89423,1.80957 13.87085,6.62098 18.86717,1.70749 2.26606,-2.22851 4.87401,-16.06276 0.65872,-18.03991 z m -4.58991,13.82366 c -2.99702,2.94983 -8.38433,0.0616 -11.31972,-1.02372 -2.65514,-2.82175 -3.67116,-8.94773 -0.0742,-11.87926 3.3832,-2.75722 8.81674,0.68473 11.78873,2.07731 2.52897,1.18744 0.96498,9.48992 -0.39486,10.82567 z" /><polygon
     transform="matrix(0.96305287,0,0,0.96305287,0.30352419,0.03052724)"
     style="fill:#0000ff;fill-opacity:1;stroke:none"
     id="polygon98"
     points="239.156,239.808 237.489,246.142 244.489,249.808 246.823,242.142 " /><path
     inkscape:connector-curvature="0"
     style="fill:#0000ff;fill-opacity:1;stroke:none"
     id="path100"
     d="m 266.11671,149.77851 c -4.48012,-4.29233 -12.12098,-13.71869 -19.86874,-10.91524 -8.23892,2.98065 -10.15925,14.44194 -7.11985,21.06293 4.60243,3.72316 12.49754,12.13832 19.67132,8.76282 3.25415,-1.53126 11.12615,-15.26054 7.31727,-18.91051 z m -10.00226,12.98484 c -4.30389,2.02626 -9.04211,-3.02302 -11.80318,-5.25634 -1.82306,-3.97356 -0.67125,-10.85072 4.2721,-12.63911 4.64962,-1.68052 9.23375,3.97452 11.92067,6.54973 2.28725,2.18998 -2.43652,10.42697 -4.38959,11.34572 z" /><path
     inkscape:connector-curvature="0"
     style="fill:#0000ff;fill-opacity:1;stroke:none"
     id="path102"
     d="m 288.98344,165.39923 c -4.26247,-3.43136 -11.70109,-11.15023 -18.26815,-8.02127 -6.98213,3.32927 -7.75739,13.64742 -4.57161,19.26298 4.32603,2.91709 11.90718,9.71817 17.92434,6.12983 2.72929,-1.62852 8.54228,-14.45157 4.91542,-17.37154 z m -7.73428,12.34345 c -3.61048,2.15434 -8.15994,-1.92707 -10.75537,-3.67598 -1.9107,-3.37068 -1.44554,-9.56311 2.74277,-11.55952 3.94082,-1.87699 8.40457,2.75433 10.96243,4.81141 2.17458,1.75179 -1.31167,9.44755 -2.94983,10.42409 z" /><polygon
     transform="matrix(0.96305287,0,0,0.96305287,0.30352419,0.03052724)"
     style="fill:#0000ff;fill-opacity:1;stroke:none"
     id="polygon104"
     points="273.76,163.05 270.64,168.809 276.572,174.03 280.655,167.134 " /><path
     inkscape:connector-curvature="0"
     style="fill:#0000ff;fill-opacity:1;stroke:none"
     id="path106"
     d="m 344.37439,115.41293 c 1.15085,-6.09612 4.87883,-17.644092 -1.69883,-22.606702 -6.99561,-5.27657 -17.64601,-0.62888 -21.53482,5.53177 -0.60769,5.888112 -3.35046,17.095152 3.3938,21.264212 3.06058,1.8924 18.86139,0.99483 19.83985,-4.18928 z m -16.33819,-1.29338 c -4.04771,-2.50105 -2.40282,-9.22605 -2.03782,-12.75949 2.33444,-3.696192 8.72526,-6.485202 12.92224,-3.317712 3.94563,2.977762 1.70942,9.905962 1.01891,13.563632 -0.58939,3.11066 -10.06872,3.64901 -11.90333,2.51357 z" /><path
     inkscape:connector-curvature="0"
     style="fill:#0000ff;fill-opacity:1;stroke:none"
     id="path108"
     d="m 343.7667,143.1007 c 0.54798,-5.4451 2.95561,-15.8923 -3.24934,-19.68576 -6.60076,-4.03327 -15.66983,0.94764 -18.637,6.68262 -0.0838,5.21686 -1.64393,15.28076 4.6477,18.36446 2.85352,1.39931 16.77156,-0.73 17.23864,-5.36132 z m -14.56425,0.25425 c -3.77613,-1.84907 -2.83908,-7.88837 -2.789,-11.01829 1.78069,-3.44003 7.2229,-6.43031 11.18201,-4.01015 3.72413,2.27762 2.27955,8.54516 1.95115,11.81088 -0.28025,2.77937 -8.63281,4.0583 -10.34416,3.21756 z" /><polygon
     transform="matrix(0.96305287,0,0,0.96305287,0.30352419,0.03052724)"
     style="fill:#0000ff;fill-opacity:1;stroke:none"
     id="polygon110"
     points="349.71,122.048 343.182,122.577 342.046,130.396 350.052,130.055 " /><path
     inkscape:connector-curvature="0"
     style="fill:#0000ff;fill-opacity:1;stroke:none"
     id="path112"
     d="m 406.6685,159.27036 c 3.73761,-3.26668 11.7897,-8.6877 10.10532,-15.06022 -1.79128,-6.77604 -10.78909,-9.11915 -16.28041,-7.16512 -3.29268,3.4044 -10.55699,9.09893 -8.37567,15.05541 0.99001,2.70136 11.37172,9.94737 14.55076,7.16993 z m -9.64016,-8.88898 c -1.30879,-3.57389 3.04999,-6.99176 5.02618,-9.0344 3.29556,-1.17107 8.69251,0.23402 9.76824,4.301 1.01121,3.82235 -3.82139,7.07554 -6.06242,9.03343 -1.90877,1.66801 -8.13779,-2.67921 -8.732,-4.30003 z" /><path
     inkscape:connector-curvature="0"
     style="fill:#0000ff;fill-opacity:1;stroke:none"
     id="path114"
     d="m 392.60119,176.3867 c 3.03554,-3.15496 9.71335,-8.53554 7.68516,-13.98931 -2.15724,-5.79854 -10.32585,-7.14874 -15.02748,-5.00787 -2.63106,3.24067 -8.58658,8.79941 -6.15294,13.8487 1.10462,2.2911 10.91139,7.83058 13.49526,5.14848 z m -9.28865,-7.03896 c -1.46095,-3.02976 2.11294,-6.36578 3.69235,-8.31114 2.82078,-1.28375 7.72176,-0.47382 9.0161,3.00472 1.21634,3.27246 -2.78996,6.50254 -4.6111,8.39397 -1.54955,1.60926 -7.43477,-1.71327 -8.09735,-3.08755 z" /><polygon
     transform="matrix(0.96305287,0,0,0.96305287,0.30352419,0.03052724)"
     style="fill:#0000ff;fill-opacity:1;stroke:none"
     id="polygon116"
     points="416.092,163.019 411.723,160.125 407.144,164.483 412.349,168.225 " /><path
     inkscape:connector-curvature="0"
     style="fill:#0000ff;fill-opacity:1;stroke:none"
     id="path118"
     d="m 438.48488,243.39784 c 4.63806,-1.76816 14.07117,-4.06023 14.701,-10.62247 0.66836,-6.97636 -6.95902,-12.29433 -12.78549,-12.36656 -4.26921,2.05226 -13.05803,4.87497 -13.07633,11.21667 -0.009,2.87761 7.21616,13.27569 11.16082,11.77236 z m -5.95841,-11.68087 c 0.0116,-3.80598 5.28427,-5.49999 7.84503,-6.72981 3.49781,0.0443 8.07327,3.23297 7.67168,7.41936 -0.37752,3.93696 -6.03834,5.31316 -8.81868,6.37156 -2.36814,0.90238 -6.70381,-5.33435 -6.69803,-7.06111 z" /><path
     inkscape:connector-curvature="0"
     style="fill:#0000ff;fill-opacity:1;stroke:none"
     id="path120"
     d="m 419.3548,254.57311 c 3.94274,-1.90685 12.0709,-4.63614 12.05935,-10.45587 -0.0135,-6.18665 -7.2046,-10.2854 -12.3579,-9.90789 -3.59122,2.12739 -11.10496,5.27561 -10.57336,10.85554 0.24173,2.5309 7.51856,11.12711 10.87191,9.50822 z m -6.2714,-9.82314 c -0.31877,-3.34854 4.19024,-5.23805 6.34555,-6.51505 3.09044,-0.22536 7.40588,2.23235 7.41551,5.94492 0.005,3.49107 -4.87305,5.13115 -7.23638,6.27333 -2.01182,0.97268 -6.37926,-4.18447 -6.52468,-5.7032 z" /><polygon
     transform="matrix(0.96305287,0,0,0.96305287,0.30352419,0.03052724)"
     style="fill:#0000ff;fill-opacity:1;stroke:none"
     id="polygon122"
     points="450.3,248.485 447.206,244.255 441.399,246.754 444.984,252.069 " /><polygon
     transform="matrix(0.96305287,0,0,0.96305287,0.30352419,0.03052724)"
     style="fill:#0000ff;fill-opacity:1;stroke:none"
     id="polygon124"
     points="351.822,456.992 351.156,463.659 399.156,436.992 392.489,432.326 " /><polyline
     transform="matrix(0.96305287,0,0,0.96305287,0.30352419,0.03052724)"
     style="fill:#0000ff;fill-opacity:1;stroke:none"
     id="polyline126"
     points="407.489,425.326 440.155,354.66 431.484,356.387 404.014,419.4 407.489,425.326 " /><polygon
     transform="matrix(0.96305287,0,0,0.96305287,0.30352419,0.03052724)"
     style="fill:#0000ff;fill-opacity:1;stroke:none"
     id="polygon128"
     points="238.822,150.159 241.822,144.659 252.822,150.659 249.322,154.159 " /><polygon
     transform="matrix(0.96305287,0,0,0.96305287,0.30352419,0.03052724)"
     style="fill:#0000ff;fill-opacity:1;stroke:none"
     id="polygon130"
     points="202.322,236.159 203.822,230.159 215.322,232.159 213.322,237.159 " /><polygon
     transform="matrix(0.96305287,0,0,0.96305287,0.30352419,0.03052724)"
     style="fill:#0000ff;fill-opacity:1;stroke:none"
     id="polygon132"
     points="201.322,363.659 211.322,362.159 212.322,369.159 201.822,369.159 " /><polygon
     transform="matrix(0.96305287,0,0,0.96305287,0.30352419,0.03052724)"
     style="fill:#0000ff;fill-opacity:1;stroke:none"
     id="polygon134"
     points="239.822,452.659 235.322,447.159 244.822,443.159 248.322,450.659 " /></g>
</svg>