<?xml version="1.0" encoding="UTF-8" standalone="no"?>
<!-- Generator: Adobe Illustrator 13.0.0, SVG Export Plug-In . SVG Version: 6.00 Build 14948)  -->

<svg
   xmlns:dc="http://purl.org/dc/elements/1.1/"
   xmlns:cc="http://creativecommons.org/ns#"
   xmlns:rdf="http://www.w3.org/1999/02/22-rdf-syntax-ns#"
   xmlns:svg="http://www.w3.org/2000/svg"
   xmlns="http://www.w3.org/2000/svg"
   xmlns:sodipodi="http://sodipodi.sourceforge.net/DTD/sodipodi-0.dtd"
   xmlns:inkscape="http://www.inkscape.org/namespaces/inkscape"
   version="1.1"
   id="Layer_1"
   x="0px"
   y="0px"
   width="576"
   height="576"
   viewBox="-0.933 -0.933 576 576"
   enable-background="new -0.933 -0.933 576 576"
   xml:space="preserve"
   inkscape:version="0.48.1 "
   sodipodi:docname="B27a.svg"
   inkscape:export-filename="C:\Documents and Settings\bertrand.bouteilles\Bureau\Panneaux\A - Route\4_obligation\B27a.png"
   inkscape:export-xdpi="150"
   inkscape:export-ydpi="150"><metadata
   id="metadata31"><rdf:RDF><cc:Work
       rdf:about=""><dc:format>image/svg+xml</dc:format><dc:type
         rdf:resource="http://purl.org/dc/dcmitype/StillImage" /><dc:title></dc:title></cc:Work></rdf:RDF></metadata><defs
   id="defs29" /><sodipodi:namedview
   pagecolor="#ffffff"
   bordercolor="#666666"
   borderopacity="1"
   objecttolerance="10"
   gridtolerance="10"
   guidetolerance="10"
   inkscape:pageopacity="0"
   inkscape:pageshadow="2"
   inkscape:window-width="1920"
   inkscape:window-height="1174"
   id="namedview27"
   showgrid="false"
   fit-margin-top="0.1"
   fit-margin-left="0.1"
   fit-margin-right="0.1"
   fit-margin-bottom="0.1"
   inkscape:zoom="1.1588694"
   inkscape:cx="168.69197"
   inkscape:cy="276.83945"
   inkscape:window-x="1276"
   inkscape:window-y="-4"
   inkscape:window-maximized="1"
   inkscape:current-layer="Layer_1" />
<circle
   cx="287.06699"
   cy="287.06699"
   r="286.979"
   id="circle3"
   style="fill:#ffffff;stroke:#000000;stroke-width:2.00332642;stroke-linecap:round;stroke-linejoin:round;stroke-miterlimit:4;stroke-opacity:1;stroke-dasharray:none"
   sodipodi:cx="287.06699"
   sodipodi:cy="287.06699"
   sodipodi:rx="286.979"
   sodipodi:ry="286.979"
   transform="matrix(1.0000671,0,0,1.0000671,-0.01924828,-0.01924828)" />
<circle
   cx="287.06699"
   cy="287.06699"
   r="259.96899"
   id="circle5"
   style="fill:#0000ff;fill-opacity:1;stroke:#0000ff;stroke-width:0.17640001;stroke-linecap:round;stroke-linejoin:round"
   sodipodi:cx="287.06699"
   sodipodi:cy="287.06699"
   sodipodi:rx="259.96899"
   sodipodi:ry="259.96899"
   transform="matrix(1.0000671,0,0,1.0000671,-0.01924828,-0.01924828)" />









<g
   id="g2993"
   transform="matrix(1.0017305,0,0,1.0017305,11.442628,4.0639351)"><line
     style="fill:none;stroke:none"
     id="line7"
     y2="218.62645"
     x2="87.604149"
     y1="218.47969"
     x1="87.648079" /><line
     style="fill:none;stroke:none"
     id="line9"
     y2="216.81047"
     x2="81.768852"
     y1="215.47667"
     x1="81.867691" /><circle
     transform="matrix(0.99833955,0,0,0.99833955,0.57090541,0.39140319)"
     sodipodi:ry="27.486"
     sodipodi:rx="27.486"
     sodipodi:cy="342.077"
     sodipodi:cx="161.215"
     style="fill:#ffffff;stroke:none"
     id="circle11"
     r="27.486"
     cy="342.077"
     cx="161.215"
     d="m 188.701,342.077 c 0,15.18009 -12.3059,27.486 -27.486,27.486 -15.1801,0 -27.486,-12.30591 -27.486,-27.486 0,-15.1801 12.3059,-27.486 27.486,-27.486 15.1801,0 27.486,12.3059 27.486,27.486 z" /><circle
     transform="matrix(0.99833955,0,0,0.99833955,0.57090541,0.39140319)"
     sodipodi:ry="27.486"
     sodipodi:rx="27.486"
     sodipodi:cy="342.077"
     sodipodi:cx="376.03299"
     style="fill:#ffffff;stroke:none"
     id="circle13"
     r="27.486"
     cy="342.077"
     cx="376.03299"
     d="m 403.51899,342.077 c 0,15.18009 -12.3059,27.486 -27.486,27.486 -15.1801,0 -27.486,-12.30591 -27.486,-27.486 0,-15.1801 12.3059,-27.486 27.486,-27.486 15.1801,0 27.486,12.3059 27.486,27.486 z" /><path
     inkscape:connector-curvature="0"
     style="fill:#ffffff;stroke:none"
     id="path15"
     d="m 81.768856,216.81045 5.836293,1.81598 -12.344469,41.1875 -7.013335,3.52713 -4.209998,5.2333 -1.206992,70.6445 9.243626,6.87357 h 54.492369 c -1.58237,-13.20504 4.40966,-26.17147 15.49123,-33.52424 11.08057,-7.35077 25.35683,-7.83297 36.90862,-1.24293 11.55178,6.59004 18.40239,19.12319 17.71154,32.4041 h 144.14725 c -0.67588,-12.99239 5.87124,-25.29792 17.02169,-32.00177 11.15145,-6.70186 25.09027,-6.70685 36.24671,-0.014 11.15745,6.69287 17.71155,18.99341 17.04765,31.9868 H 487.4661 V 198.79642 l -1.08919,-1.77306 -0.8416,-0.81764 -0.98037,-0.40931 -1.48853,-0.001 H 86.723615 l -1.835946,-0.10782 -0.687856,0.16772 -0.804662,1.00533 -0.22862,1.33977 -0.133777,1.50649 -1.165062,15.77077" /><rect
     style="fill:#0000ff;fill-opacity:1;stroke:none"
     id="rect17"
     height="38.684658"
     width="81.545372"
     y="224.0634"
     x="390.97058" /><rect
     style="fill:#0000ff;fill-opacity:1;stroke:none"
     id="rect19"
     height="38.684658"
     width="88.70047"
     y="224.0634"
     x="297.59686" /><rect
     style="fill:#0000ff;fill-opacity:1;stroke:none"
     id="rect21"
     height="38.684658"
     width="86.177666"
     y="224.0634"
     x="206.746" /><rect
     style="fill:#0000ff;fill-opacity:1;stroke:none"
     id="rect23"
     height="38.684658"
     width="78.42057"
     y="224.0634"
     x="123.65419" /><polygon
     transform="matrix(0.99833955,0,0,0.99833955,0.57090541,0.39140319)"
     style="fill:#0000ff;fill-opacity:1;stroke:none"
     id="polygon25"
     points="92.695,224.044 118.607,224.044 118.607,262.793 82.631,262.793 " /></g>
</svg>