<?xml version="1.0" encoding="UTF-8" standalone="no"?>
<!-- Generator: Adobe Illustrator 13.0.0, SVG Export Plug-In  -->

<svg
   xmlns:dc="http://purl.org/dc/elements/1.1/"
   xmlns:cc="http://creativecommons.org/ns#"
   xmlns:rdf="http://www.w3.org/1999/02/22-rdf-syntax-ns#"
   xmlns:svg="http://www.w3.org/2000/svg"
   xmlns="http://www.w3.org/2000/svg"
   xmlns:sodipodi="http://sodipodi.sourceforge.net/DTD/sodipodi-0.dtd"
   xmlns:inkscape="http://www.inkscape.org/namespaces/inkscape"
   version="1.1"
   x="0px"
   y="0px"
   width="576"
   height="576"
   viewBox="-0.901 -0.901 576 576"
   enable-background="new -0.901 -0.901 572 572"
   xml:space="preserve"
   id="svg2"
   inkscape:version="0.48.1 "
   sodipodi:docname="B27b.svg"
   inkscape:export-filename="C:\Documents and Settings\bertrand.bouteilles\Bureau\Panneaux\A - Route\4_obligation\B27b.png"
   inkscape:export-xdpi="150"
   inkscape:export-ydpi="150"><metadata
   id="metadata26"><rdf:RDF><cc:Work
       rdf:about=""><dc:format>image/svg+xml</dc:format><dc:type
         rdf:resource="http://purl.org/dc/dcmitype/StillImage" /><dc:title></dc:title></cc:Work></rdf:RDF></metadata><sodipodi:namedview
   pagecolor="#ffffff"
   bordercolor="#666666"
   borderopacity="1"
   objecttolerance="10"
   gridtolerance="10"
   guidetolerance="10"
   inkscape:pageopacity="0"
   inkscape:pageshadow="2"
   inkscape:window-width="1920"
   inkscape:window-height="1174"
   id="namedview24"
   showgrid="false"
   fit-margin-top="0.1"
   fit-margin-left="0.1"
   fit-margin-right="0.1"
   fit-margin-bottom="0.1"
   inkscape:zoom="1.1669734"
   inkscape:cx="392.26407"
   inkscape:cy="242.57905"
   inkscape:window-x="1276"
   inkscape:window-y="-4"
   inkscape:window-maximized="1"
   inkscape:current-layer="svg2" />
<defs
   id="defs4">
</defs>
<circle
   cx="285.099"
   cy="285.099"
   r="284.099"
   id="circle6"
   style="fill:#ffffff;stroke:#000000;stroke-width:1.98332637;stroke-linecap:round;stroke-linejoin:round;stroke-miterlimit:4;stroke-opacity:1;stroke-dasharray:none"
   sodipodi:cx="285.099"
   sodipodi:cy="285.099"
   sodipodi:rx="284.099"
   sodipodi:ry="284.099"
   transform="matrix(1.0084069,0,0,1.0084069,-0.3967978,-0.3967978)" />
<circle
   cx="285.099"
   cy="285.099"
   r="254.804"
   id="circle8"
   style="opacity:0.98999999;fill:#0000ff;fill-opacity:1;stroke:none"
   sodipodi:cx="285.099"
   sodipodi:cy="285.099"
   sodipodi:rx="254.804"
   sodipodi:ry="254.804"
   transform="matrix(1.0084069,0,0,1.0084069,-0.3967978,-0.3967978)" />






<g
   id="g3774"
   transform="matrix(0.96219703,0,0,1,12.502637,2.3062448)"><path
     inkscape:connector-curvature="0"
     style="fill:#ffffff;fill-opacity:1;stroke:none"
     id="path10"
     d="m 451.51569,340.33329 c -6.8259,-17.39301 -13.6508,-34.78702 -20.47671,-52.18002 -0.68067,-1.73446 -3.41446,-0.92874 -5.10859,-0.92874 -5.61481,0 -11.23062,0 -16.84644,0 -49.21026,0 -98.41951,0 -147.62876,0 -39.51442,0 -79.02784,0 -118.54226,0 -0.86824,0 -1.73749,0 -2.60673,0 -0.51126,0 -2.3506,5.55935 -2.55934,6.06657 -4.88069,11.80946 -9.76239,23.61891 -14.64308,35.42836 -1.22723,2.96976 -2.45547,5.94053 -3.6827,8.91029 -0.44269,1.07193 -0.006,3.24303 -0.006,4.3785 0,3.10589 0,6.21078 0,9.31566 0,0.74219 -0.0494,11.19534 0.0454,11.19534 0.76336,0 1.52673,0 2.29009,0 36.41055,0 72.8211,0 109.23165,0 53.44354,0 106.88609,0 160.32963,0 16.85653,0 33.71306,0 50.56758,0 3.11799,0 6.23598,0 9.35297,0 0.59194,-10e-4 0.28336,-19.79604 0.28336,-22.18596 z m -287.06016,-9.07567 -6.72305,6.05045 h -21.51336 l -5.04203,-6.38625 15.1261,-34.95844 h 12.43669 l 5.71464,5.37884 v 29.9154 z m 94.28604,0 -6.05044,6.05045 h -75.63052 l -7.05885,-5.54624 v -29.74801 l 4.53783,-6.05044 h 78.65574 l 5.54624,6.05044 v 29.2438 z m 40.84048,7.05885 h -28.908 l -5.88204,-5.37783 v -31.93322 l 4.87363,-5.04204 h 30.25221 l 5.41111,4.32808 0.28135,32.28415 -6.02826,5.74086 z m 101.34489,-7.05885 -6.05044,6.05045 h -75.63051 l -7.05885,-5.54624 v -29.74801 l 4.53783,-6.05044 h 78.65574 l 5.54623,6.05044 v 29.2438 z m 33.27743,6.05045 h -21.51335 l -6.72204,-6.05045 v -29.9154 l 5.71363,-5.37884 h 12.43769 l 15.12611,34.95844 -5.04204,6.38625 z" /><polygon
     transform="matrix(1.0300099,0,0,1.0084069,-5.4321956,-12.708961)"
     style="fill:#ffffff;fill-opacity:1;stroke:none"
     id="polygon12"
     points="286.099,291.433 275.379,291.433 295.433,260.099 259.627,209.588 521.433,209.588 521.433,203.944 45.433,203.944 45.433,209.588 249.168,209.588 285.433,260.099 249.086,291.433 237.433,291.433 237.433,298.766 286.099,298.766 " /><polygon
     transform="matrix(1.0462504,0,0,1.0084069,-13.295546,-12.708961)"
     style="fill:#ffffff;fill-opacity:1;stroke:none"
     id="polygon14"
     points="514.599,386.099 55.6,386.099 50.099,378.099 519.599,378.099 " /><path
     inkscape:connector-curvature="0"
     style="fill:#ffffff;fill-opacity:1;stroke:none"
     id="path16"
     d="m 163.2404,363.52664 c 1.89983,3.15733 6.39229,5.37784 11.636,5.37784 5.24372,0 9.73617,-2.22051 11.63601,-5.37784 H 163.2404 z" /><path
     inkscape:connector-curvature="0"
     style="fill:#ffffff;fill-opacity:1;stroke:none"
     id="path18"
     d="m 195.84522,363.52664 c 1.89983,3.15733 6.39229,5.37784 11.636,5.37784 5.24372,0 9.73617,-2.22051 11.63601,-5.37784 h -23.27201 z" /><path
     inkscape:connector-curvature="0"
     style="fill:#ffffff;fill-opacity:1;stroke:none"
     id="path20"
     d="m 350.80408,363.52664 c 1.90085,3.15733 6.3933,5.37784 11.63601,5.37784 5.2427,0 9.73516,-2.22051 11.636,-5.37784 h -23.27201 z" /><path
     inkscape:connector-curvature="0"
     style="fill:#ffffff;fill-opacity:1;stroke:none"
     id="path22"
     d="m 383.74571,363.52664 c 1.90084,3.15733 6.3933,5.37784 11.636,5.37784 5.24271,0 9.73516,-2.22051 11.63601,-5.37784 h -23.27201 z" /></g>
</svg>