<?xml version="1.0" encoding="UTF-8" standalone="no"?>
<!-- Generator: Adobe Illustrator 16.0.2, SVG Export Plug-In . SVG Version: 6.00 Build 0)  -->

<svg
   xmlns:dc="http://purl.org/dc/elements/1.1/"
   xmlns:cc="http://creativecommons.org/ns#"
   xmlns:rdf="http://www.w3.org/1999/02/22-rdf-syntax-ns#"
   xmlns:svg="http://www.w3.org/2000/svg"
   xmlns="http://www.w3.org/2000/svg"
   xmlns:sodipodi="http://sodipodi.sourceforge.net/DTD/sodipodi-0.dtd"
   xmlns:inkscape="http://www.inkscape.org/namespaces/inkscape"
   version="1.1"
   id="Layer_1"
   sodipodi:docname="B29.svg"
   inkscape:version="0.48.1 "
   x="0px"
   y="0px"
   width="576"
   height="576"
   viewBox="0 0 575.99948 575.99948"
   xml:space="preserve"
   inkscape:export-filename="C:\Documents and Settings\bertrand.bouteilles\Bureau\Panneaux\A - Route\4_obligation\B29.png"
   inkscape:export-xdpi="150"
   inkscape:export-ydpi="150"><metadata
   id="metadata42"><rdf:RDF><cc:Work
       rdf:about=""><dc:format>image/svg+xml</dc:format><dc:type
         rdf:resource="http://purl.org/dc/dcmitype/StillImage" /><dc:title></dc:title></cc:Work></rdf:RDF></metadata><defs
   id="defs40" />
<sodipodi:namedview
   id="namedview37"
   inkscape:window-height="1174"
   inkscape:window-width="1920"
   inkscape:pageshadow="2"
   inkscape:pageopacity="0"
   inkscape:window-x="1276"
   fit-margin-bottom="0"
   fit-margin-right="0"
   inkscape:current-layer="Layer_1"
   inkscape:window-y="-4"
   inkscape:window-maximized="1"
   inkscape:zoom="0.81944444"
   inkscape:cx="51.169148"
   bordercolor="#666666"
   fit-margin-left="0"
   showgrid="false"
   gridtolerance="10"
   pagecolor="#ffffff"
   guidetolerance="10"
   objecttolerance="10"
   fit-margin-top="0"
   inkscape:cy="279.28435"
   borderopacity="1">
	</sodipodi:namedview>
<circle
   id="circle3"
   sodipodi:ry="286.96899"
   sodipodi:rx="286.96899"
   sodipodi:cy="287.62"
   sodipodi:cx="287.62"
   style="fill:#ffffff;stroke:#000000;stroke-width:2.00325513;stroke-linecap:round;stroke-linejoin:round;stroke-miterlimit:4;stroke-dasharray:none"
   cx="287.62"
   cy="287.62"
   r="286.96899"
   transform="matrix(1.0001011,0,0,1.0001011,0.3506665,0.3506665)">
</circle>
<circle
   id="circle5"
   sodipodi:ry="259.95999"
   sodipodi:rx="259.95999"
   sodipodi:cy="287.62"
   sodipodi:cx="287.62"
   style="fill:#0000ff"
   cx="287.62"
   cy="287.62"
   r="259.95999"
   transform="matrix(1.0001011,0,0,1.0001011,0.3506665,0.3506665)">
</circle>


<g
   id="g3019"
   transform="matrix(1.0001011,0,0,1.0001011,-0.0728812,-10.913977)"><g
     id="g6">
	<path
   id="path8"
   d="m 133.802,137.269 17.291,63.665 h -13.128 l -2.882,-10.821 h -18.526 l -2.928,10.821 h -13.266 l 17.108,-63.665 h 16.331 z m -14.73,40.719 h 13.22 l -6.404,-24.857 -6.816,24.857 z"
   style="fill:#ffffff"
   inkscape:connector-curvature="0" />
	<path
   id="path10"
   d="m 171.607,137.269 0.045,52.409 h 25.937 l -0.046,11.386 h -38.608 v -63.795 h 12.672 z"
   style="fill:#ffffff"
   inkscape:connector-curvature="0" />
	<path
   id="path12"
   d="m 218.698,137.269 0.045,52.409 h 25.937 l -0.046,11.386 h -38.608 v -63.795 h 12.672 z"
   style="fill:#ffffff"
   inkscape:connector-curvature="0" />
	<path
   id="path14"
   d="m 266.612,137.442 v 43.109 c 0.579,5.505 3.842,8.576 9.789,9.213 5.855,-0.608 9.149,-3.635 9.881,-9.083 v -43.24 h 12.945 v 46.456 c -1.129,5.679 -3.949,10.097 -8.463,13.254 -4.025,2.694 -8.142,4.113 -12.351,4.259 -0.671,0.058 -1.326,0.087 -1.967,0.087 -6.252,0 -11.421,-1.723 -15.507,-5.171 -4.666,-4.287 -7.136,-8.662 -7.411,-13.124 v -45.76 h 13.084 z"
   style="fill:#ffffff"
   inkscape:connector-curvature="0" />
	<path
   id="path16"
   d="m 309.586,137.269 h 17.245 l 13.494,33.766 13.815,-33.766 h 17.199 v 63.795 h -12.763 v -40.285 l -16.696,40.285 h -3.34 l -16.559,-39.937 0.137,39.937 h -12.533 v -63.795 z"
   style="fill:#ffffff"
   inkscape:connector-curvature="0" />
	<path
   id="path18"
   d="m 421.405,137.399 v 11.646 h -27.721 v 13.906 h 20.311 v 11.777 h -20.311 v 14.558 h 28.91 v 11.777 h -41.811 l 0.046,-63.665 h 40.576 z"
   style="fill:#ffffff"
   inkscape:connector-curvature="0" />
	<path
   id="path20"
   d="m 474.946,137.442 -0.046,12.298 -28.819,39.372 h 29.643 v 11.951 h -45.332 v -12.776 l 28.133,-38.546 H 431.81 v -12.298 h 43.136 z"
   style="fill:#ffffff"
   inkscape:connector-curvature="0" />
</g><g
     id="g22">
	<path
   id="path24"
   d="m 220.302,270.311 13.533,45.805 11.619,-45.805 H 258.44 L 242.265,334.02 H 225.36 l -17.907,-63.709 h 12.849 z"
   style="fill:#ffffff"
   inkscape:connector-curvature="0" />
	<path
   id="path26"
   d="m 293.225,269.573 c 7.351,1.072 12.787,5.215 16.312,12.429 3.008,5.331 4.511,11.879 4.511,19.643 v 0.782 c 0,9.706 -2.476,17.963 -7.427,24.771 -3.524,4.578 -8.506,7.142 -14.945,7.692 -0.668,0.058 -1.321,0.086 -1.959,0.086 -6.683,0 -12.287,-2.693 -16.813,-8.082 -4.678,-7.186 -7.048,-14.559 -7.108,-22.12 -0.03,-0.637 -0.045,-1.274 -0.045,-1.912 0,-10.227 2.384,-18.687 7.154,-25.379 3.189,-3.65 6.516,-5.982 9.978,-6.997 2.399,-0.724 4.8,-1.086 7.199,-1.086 1.062,-10e-4 2.11,0.058 3.143,0.173 z m -3.509,54.277 c 3.523,-0.174 6.5,-2.477 8.931,-6.909 1.762,-2.955 2.87,-7.301 3.326,-13.037 0.091,-7.301 -1.261,-13.283 -4.056,-17.948 -2.277,-3.244 -4.8,-5.055 -7.563,-5.432 -3.645,0.174 -6.683,2.448 -9.113,6.822 -1.731,3.071 -2.855,7.475 -3.372,13.211 -0.061,7.301 1.321,13.27 4.146,17.904 2.248,3.246 4.815,5.041 7.701,5.389 z"
   style="fill:#ffffff"
   inkscape:connector-curvature="0" />
	<path
   id="path28"
   d="m 322.041,321.069 v -0.086 c 0,-0.319 0.349,-0.536 1.048,-0.652 5.377,-1.651 8.869,-2.839 10.479,-3.563 0.82,1.072 1.898,2.042 3.235,2.911 2.156,1.217 4.465,1.956 6.926,2.217 2.612,0.059 4.237,0 4.875,-0.174 3.008,-0.811 4.86,-1.637 5.56,-2.477 0.698,-0.58 1.306,-1.984 1.822,-4.216 0.121,-0.869 0,-1.84 -0.364,-2.911 -0.456,-0.725 -0.942,-1.333 -1.458,-1.826 l -1.55,-1.129 -1.731,-0.739 c -9.63,-2.868 -14.93,-4.548 -15.901,-5.041 -4.466,-1.709 -7.792,-4.534 -9.979,-8.474 -1.429,-2.637 -2.066,-5.838 -1.914,-9.604 0.576,-4.693 2.597,-8.416 6.06,-11.169 3.889,-2.693 7.943,-4.156 12.166,-4.389 h 1.185 c 3.008,0 5.498,0.217 7.473,0.652 4.01,1.071 7.138,2.563 9.386,4.476 2.248,1.768 4.102,4.172 5.56,7.214 l -0.137,0.479 -9.387,4.302 -0.455,-0.218 c -0.578,-1.767 -2.203,-3.2 -4.876,-4.302 -3.007,-1.071 -6.531,-1.101 -10.57,-0.087 -1.731,0.551 -2.947,1.26 -3.646,2.129 -0.243,0.232 -0.563,0.957 -0.957,2.174 -0.061,1.419 0,2.245 0.183,2.477 0.395,0.985 1.185,1.869 2.369,2.65 l 1.185,0.479 c 8.627,2.434 14.474,4.201 17.542,5.302 2.644,1.159 4.663,2.434 6.061,3.824 l 2.552,3.303 c 1.883,2.984 2.885,6.243 3.007,9.778 0.03,0.231 0.046,0.507 0.046,0.825 0,1.13 -0.183,2.651 -0.547,4.563 -0.76,2.693 -1.671,4.679 -2.734,5.953 -1.822,2.145 -3.144,3.434 -3.964,3.867 -4.465,2.927 -9.067,4.505 -13.806,4.737 h -4.146 c -3.099,-0.289 -5.711,-0.869 -7.837,-1.738 -3.402,-1.506 -6.151,-3.187 -8.247,-5.041 -1.734,-1.506 -3.238,-3.666 -4.514,-6.476 z"
   style="fill:#ffffff"
   inkscape:connector-curvature="0" />
</g><g
     id="g30">
	<path
   id="path32"
   d="m 230.662,396.268 v 11.646 h -27.483 v 13.906 h 20.136 v 11.82 h -20.136 l -0.045,26.335 h -12.79 l 0.045,-63.708 h 40.273 z"
   style="fill:#ffffff"
   inkscape:connector-curvature="0" />
	<path
   id="path34"
   d="m 278.303,396.399 v 11.646 h -27.484 v 13.906 h 20.137 v 11.776 h -20.137 v 14.558 h 28.663 v 11.777 H 238.03 l 0.045,-63.664 h 40.228 z"
   style="fill:#ffffff"
   inkscape:connector-curvature="0" />
	<path
   id="path36"
   d="m 301.498,396.442 v 43.109 c 0.573,5.505 3.81,8.576 9.705,9.213 5.806,-0.608 9.07,-3.636 9.796,-9.082 v -43.24 h 12.835 v 46.455 c -1.118,5.679 -3.916,10.098 -8.39,13.255 -3.991,2.694 -8.073,4.113 -12.245,4.259 -0.666,0.058 -1.315,0.087 -1.95,0.087 -6.199,0 -11.323,-1.724 -15.375,-5.171 -4.626,-4.288 -7.075,-8.663 -7.347,-13.125 v -45.76 h 12.971 z"
   style="fill:#ffffff"
   inkscape:connector-curvature="0" />
	<path
   id="path38"
   d="m 358.028,396.311 12.29,19.643 12.291,-19.555 h 14.649 l -20.364,31.549 20.545,32.028 h -14.604 l -12.698,-19.425 -12.019,19.381 -16.101,0.044 20.5,-32.071 -20.454,-31.594 h 15.965 z"
   style="fill:#ffffff"
   inkscape:connector-curvature="0" />
</g></g>
</svg>