<?xml version="1.0" encoding="UTF-8" standalone="no"?>
<!-- Generator: Adobe Illustrator 13.0.0, SVG Export Plug-In  -->

<svg
   xmlns:dc="http://purl.org/dc/elements/1.1/"
   xmlns:cc="http://creativecommons.org/ns#"
   xmlns:rdf="http://www.w3.org/1999/02/22-rdf-syntax-ns#"
   xmlns:svg="http://www.w3.org/2000/svg"
   xmlns="http://www.w3.org/2000/svg"
   xmlns:sodipodi="http://sodipodi.sourceforge.net/DTD/sodipodi-0.dtd"
   xmlns:inkscape="http://www.inkscape.org/namespaces/inkscape"
   version="1.1"
   x="0px"
   y="0px"
   width="576px"
   height="576px"
   viewBox="-0.943 -0.943 576 576"
   enable-background="new -0.943 -0.943 576 576"
   xml:space="preserve"
   id="svg2"
   inkscape:version="0.48.1 "
   sodipodi:docname="B2a.svg"
   inkscape:export-filename="C:\Documents and Settings\bertrand.bouteilles\Bureau\Panneaux\A - Route\3_interdiction\B2a.png"
   inkscape:export-xdpi="150"
   inkscape:export-ydpi="150"><metadata
   id="metadata22"><rdf:RDF><cc:Work
       rdf:about=""><dc:format>image/svg+xml</dc:format><dc:type
         rdf:resource="http://purl.org/dc/dcmitype/StillImage" /><dc:title /></cc:Work></rdf:RDF></metadata><sodipodi:namedview
   pagecolor="#ffffff"
   bordercolor="#666666"
   borderopacity="1"
   objecttolerance="10"
   gridtolerance="10"
   guidetolerance="10"
   inkscape:pageopacity="0"
   inkscape:pageshadow="2"
   inkscape:window-width="1280"
   inkscape:window-height="964"
   id="namedview20"
   showgrid="false"
   inkscape:zoom="1.0173611"
   inkscape:cx="232.17531"
   inkscape:cy="184.65058"
   inkscape:window-x="-4"
   inkscape:window-y="-4"
   inkscape:window-maximized="1"
   inkscape:current-layer="svg2" />
<defs
   id="defs4">
</defs>
<circle
   fill="#FFFFFF"
   stroke="#000000"
   stroke-width="0.1764"
   stroke-linecap="round"
   stroke-linejoin="round"
   cx="287.057"
   cy="287.057"
   r="286.969"
   id="circle6"
   style="stroke-width:2;stroke-miterlimit:4;stroke-dasharray:none" />
<circle
   cx="287.057"
   cy="287.057"
   r="273.982"
   id="circle8"
   style="fill:#ff0000;stroke-width:2;stroke-miterlimit:4;stroke-dasharray:none"
   stroke-linejoin="round"
   stroke-linecap="round"
   stroke-width="0.1764"
   stroke="#FF0000"
   fill="#EA190E" />
<path
   d="M444.894,397.147  c56.203-80.579,42.686-190.557-31.359-255.127c-74.045-64.569-184.839-62.997-257.021,3.649l283.008,246.793L444.894,397.147z"
   id="path10"
   stroke-linejoin="round"
   stroke-linecap="round"
   stroke-width="0.1764"
   stroke="#FF0000"
   fill="#FFFFFF" />
<path
   fill="#FFFFFF"
   stroke="#FF0000"
   stroke-width="0.1764"
   stroke-linecap="round"
   stroke-linejoin="round"
   d="M417.433,428.6  c-72.261,66.561-183.057,68.002-257.025,3.345c-73.968-64.657-87.356-174.651-31.057-255.164l282.715,247.128L417.433,428.6z"
   id="path12" />
<polygon
   points="189.028,228.952 165.96,228.952 165.96,215.487 128.67,246.265 166.257,281.375 166.257,260.801 225.514,260.801 "
   id="polygon14"
   style="fill:#000000;fill-opacity:1;stroke:#000000;stroke-width:10;stroke-linecap:square;stroke-linejoin:miter;stroke-miterlimit:4;stroke-opacity:1;stroke-dasharray:none"
   transform="translate(-7.692834,-3.620562e-8)" />
<path
   d="m 259.10208,228.952 36.524,31.85 c 14.815,0.055 27.344,10.98 29.414,25.651 l 36.766,32.06 V 287.17 c 0,-17.066 -7.413,-33.291 -20.313,-44.463 -12.9,-11.172 -30.018,-16.191 -46.909,-13.754 h -35.482 z"
   id="path16"
   style="fill:#000000;fill-opacity:1;stroke:#000000;stroke-width:10;stroke-linecap:square;stroke-linejoin:miter;stroke-miterlimit:4;stroke-opacity:1;stroke-dasharray:none"
   inkscape:connector-curvature="0" />
<polygon
   points="318.949,341.236 318.956,437.926 355.417,437.926 355.417,373.072 "
   id="polygon18"
   style="fill:#000000;fill-opacity:1;stroke:#000000;stroke-width:10;stroke-linecap:square;stroke-linejoin:miter;stroke-miterlimit:4;stroke-opacity:1;stroke-dasharray:none"
   transform="translate(6.38908,12.286689)" />
</svg>