<?xml version="1.0" encoding="UTF-8" standalone="no"?>
<!-- Generator: Adobe Illustrator 13.0.0, SVG Export Plug-In  -->

<svg
   xmlns:dc="http://purl.org/dc/elements/1.1/"
   xmlns:cc="http://creativecommons.org/ns#"
   xmlns:rdf="http://www.w3.org/1999/02/22-rdf-syntax-ns#"
   xmlns:svg="http://www.w3.org/2000/svg"
   xmlns="http://www.w3.org/2000/svg"
   xmlns:sodipodi="http://sodipodi.sourceforge.net/DTD/sodipodi-0.dtd"
   xmlns:inkscape="http://www.inkscape.org/namespaces/inkscape"
   version="1.1"
   x="0px"
   y="0px"
   width="576px"
   height="576px"
   viewBox="-0.943 -0.943 576 576"
   enable-background="new -0.943 -0.943 576 576"
   xml:space="preserve"
   id="svg2"
   inkscape:version="0.48.1 "
   sodipodi:docname="B2b.svg"
   inkscape:export-filename="C:\Documents and Settings\bertrand.bouteilles\Bureau\Panneaux\A - Route\3_interdiction\B2b.png"
   inkscape:export-xdpi="150"
   inkscape:export-ydpi="150"><metadata
   id="metadata20"><rdf:RDF><cc:Work
       rdf:about=""><dc:format>image/svg+xml</dc:format><dc:type
         rdf:resource="http://purl.org/dc/dcmitype/StillImage" /><dc:title /></cc:Work></rdf:RDF></metadata><sodipodi:namedview
   pagecolor="#ffffff"
   bordercolor="#666666"
   borderopacity="1"
   objecttolerance="10"
   gridtolerance="10"
   guidetolerance="10"
   inkscape:pageopacity="0"
   inkscape:pageshadow="2"
   inkscape:window-width="1280"
   inkscape:window-height="964"
   id="namedview18"
   showgrid="false"
   inkscape:zoom="0.17984574"
   inkscape:cx="-830.10969"
   inkscape:cy="-939.60775"
   inkscape:window-x="-4"
   inkscape:window-y="-4"
   inkscape:window-maximized="1"
   inkscape:current-layer="svg2" />
<defs
   id="defs4">

</defs>





<g
   id="g3806"><circle
     id="circle6"
     r="286.969"
     cy="287.057"
     cx="287.057"
     stroke-linejoin="round"
     stroke-linecap="round"
     stroke-width="0.1764"
     stroke="#000000"
     fill="#FFFFFF" /><circle
     style="fill:#ff0000"
     id="circle8"
     r="273.982"
     cy="287.057"
     cx="287.057"
     stroke-linejoin="round"
     stroke-linecap="round"
     stroke-width="0.1764"
     stroke="#FF0000"
     fill="#EA190E" /><path
     id="path10"
     d="M417.433,428.6  c-72.261,66.561-183.057,68.002-257.025,3.345c-73.968-64.657-87.356-174.651-31.057-255.164l282.715,247.128L417.433,428.6z"
     stroke-linejoin="round"
     stroke-linecap="round"
     stroke-width="0.1764"
     stroke="#FF0000"
     fill="#FFFFFF" /><path
     id="path12"
     d="M444.894,397.147  c56.203-80.579,42.686-190.557-31.359-255.127c-74.045-64.569-184.839-62.997-257.021,3.649l283.008,246.793L444.894,397.147z"
     stroke-linejoin="round"
     stroke-linecap="round"
     stroke-width="0.1764"
     stroke="#FF0000"
     fill="#FFFFFF" /><path
     sodipodi:nodetypes="cccccccccccc"
     inkscape:connector-curvature="0"
     style="stroke:#000000;stroke-width:5;stroke-linecap:square;stroke-linejoin:miter;stroke-miterlimit:4;stroke-dasharray:none"
     id="path14"
     d="m 293.251,262.813 -34.72047,-30.70807 61.72147,-1.15393 67.274,0 18.187,0 0,-13.464 37.289,30.778 -37.586,35.11 0,-20.574 -51.68,0 -7.577,0 z" /><path
     sodipodi:nodetypes="ccccccccc"
     inkscape:connector-curvature="0"
     style="stroke:#000000;stroke-width:5;stroke-linecap:square;stroke-linejoin:miter;stroke-miterlimit:4;stroke-dasharray:none"
     id="path16"
     d="m 250.5148,285.95347 c -1.68669,19.91643 -1.01614,40.86825 -1.235,61.113 l -0.006,94.672 -36.462,0 0,-60.619 0,-62.234 0,-27.904 c 0,-10.754 2.948,-21.303 8.524,-30.499 z" /></g>
</svg>