<?xml version="1.0" encoding="UTF-8" standalone="no"?>
<!-- Generator: Adobe Illustrator 13.0.0, SVG Export Plug-In  -->

<svg
   xmlns:dc="http://purl.org/dc/elements/1.1/"
   xmlns:cc="http://creativecommons.org/ns#"
   xmlns:rdf="http://www.w3.org/1999/02/22-rdf-syntax-ns#"
   xmlns:svg="http://www.w3.org/2000/svg"
   xmlns="http://www.w3.org/2000/svg"
   xmlns:sodipodi="http://sodipodi.sourceforge.net/DTD/sodipodi-0.dtd"
   xmlns:inkscape="http://www.inkscape.org/namespaces/inkscape"
   version="1.1"
   x="0px"
   y="0px"
   width="576px"
   height="576px"
   viewBox="-0.943 -0.943 576 576"
   enable-background="new -0.943 -0.943 576 576"
   xml:space="preserve"
   id="svg2"
   inkscape:version="0.48.1 "
   sodipodi:docname="B2c.svg"
   inkscape:export-filename="C:\Documents and Settings\bertrand.bouteilles\Bureau\Panneaux\A - Route\3_interdiction\B2c.png"
   inkscape:export-xdpi="150"
   inkscape:export-ydpi="150"><metadata
   id="metadata22"><rdf:RDF><cc:Work
       rdf:about=""><dc:format>image/svg+xml</dc:format><dc:type
         rdf:resource="http://purl.org/dc/dcmitype/StillImage" /><dc:title></dc:title></cc:Work></rdf:RDF></metadata><sodipodi:namedview
   pagecolor="#ffffff"
   bordercolor="#666666"
   borderopacity="1"
   objecttolerance="10"
   gridtolerance="10"
   guidetolerance="10"
   inkscape:pageopacity="0"
   inkscape:pageshadow="2"
   inkscape:window-width="1920"
   inkscape:window-height="1174"
   id="namedview20"
   showgrid="false"
   inkscape:zoom="1.0173611"
   inkscape:cx="324.73766"
   inkscape:cy="294.23653"
   inkscape:window-x="1276"
   inkscape:window-y="-4"
   inkscape:window-maximized="1"
   inkscape:current-layer="svg2" />
<defs
   id="defs4">
</defs>
<circle
   fill="#FFFFFF"
   stroke="#000000"
   stroke-width="0.1764"
   stroke-linecap="round"
   stroke-linejoin="round"
   cx="287.057"
   cy="287.057"
   r="286.969"
   id="circle6" />
<circle
   fill="#EA190E"
   stroke="#FF0000"
   stroke-width="0.1764"
   stroke-linecap="round"
   stroke-linejoin="round"
   cx="287.057"
   cy="287.057"
   r="273.982"
   id="circle8"
   style="fill:#ff0000" />
<path
   fill="#FFFFFF"
   stroke="#FF0000"
   stroke-width="0.1764"
   stroke-linecap="round"
   stroke-linejoin="round"
   d="M417.433,428.6  c-72.261,66.561-183.057,68.002-257.025,3.345c-73.968-64.657-87.356-174.651-31.057-255.164l282.715,247.128L417.433,428.6z"
   id="path10" />
<path
   fill="#FFFFFF"
   stroke="#FF0000"
   stroke-width="0.1764"
   stroke-linecap="round"
   stroke-linejoin="round"
   d="M444.894,397.147  c56.203-80.579,42.686-190.557-31.359-255.127c-74.045-64.569-184.839-62.997-257.021,3.649l283.008,246.793L444.894,397.147z"
   id="path12" />
<path
   stroke="#000000"
   stroke-width="0.1764"
   stroke-linecap="round"
   stroke-linejoin="round"
   d="M210.692,192.308  c20.057-33.975,60.366-50.33,98.426-39.934c38.059,10.396,64.457,44.972,64.457,84.425v97.548l-36.462-31.796v-65.752  c0-24.303-17.131-45.237-40.953-50.046c-23.822-4.809-47.732,7.84-57.16,30.24L210.692,192.308z"
   id="path14" />
<polygon
   stroke="#000000"
   stroke-width="0.1764"
   stroke-linecap="round"
   stroke-linejoin="round"
   points="178.682,326.844   215.1,362.076 254.299,327.003 235.009,327.988 235.009,269.318 198.547,237.489 198.547,326.75 193.365,326.431 "
   id="polygon16" />
<polygon
   stroke="#000000"
   stroke-width="0.1764"
   stroke-linecap="round"
   stroke-linejoin="round"
   points="373.453,390.171   373.453,418.271 337.275,418.271 337.113,358.449 "
   id="polygon18" />
</svg>