<?xml version="1.0" encoding="UTF-8" standalone="no"?>
<!-- Generator: Adobe Illustrator 13.0.0, SVG Export Plug-In  -->

<svg
   xmlns:dc="http://purl.org/dc/elements/1.1/"
   xmlns:cc="http://creativecommons.org/ns#"
   xmlns:rdf="http://www.w3.org/1999/02/22-rdf-syntax-ns#"
   xmlns:svg="http://www.w3.org/2000/svg"
   xmlns="http://www.w3.org/2000/svg"
   xmlns:sodipodi="http://sodipodi.sourceforge.net/DTD/sodipodi-0.dtd"
   xmlns:inkscape="http://www.inkscape.org/namespaces/inkscape"
   version="1.1"
   x="0px"
   y="0px"
   width="576px"
   height="576px"
   viewBox="-0.943 -0.943 576 576"
   enable-background="new -0.943 -0.943 576 576"
   xml:space="preserve"
   id="svg2"
   inkscape:version="0.48.1 "
   sodipodi:docname="B3.svg"
   inkscape:export-filename="C:\Documents and Settings\bertrand.bouteilles\Bureau\Panneaux\A - Route\3_interdiction\B3.png"
   inkscape:export-xdpi="150"
   inkscape:export-ydpi="150"><metadata
   id="metadata30"><rdf:RDF><cc:Work
       rdf:about=""><dc:format>image/svg+xml</dc:format><dc:type
         rdf:resource="http://purl.org/dc/dcmitype/StillImage" /><dc:title></dc:title></cc:Work></rdf:RDF></metadata><sodipodi:namedview
   pagecolor="#ffffff"
   bordercolor="#666666"
   borderopacity="1"
   objecttolerance="10"
   gridtolerance="10"
   guidetolerance="10"
   inkscape:pageopacity="0"
   inkscape:pageshadow="2"
   inkscape:window-width="1920"
   inkscape:window-height="1174"
   id="namedview28"
   showgrid="false"
   inkscape:zoom="1.4387659"
   inkscape:cx="495.66379"
   inkscape:cy="436.06952"
   inkscape:window-x="1276"
   inkscape:window-y="-4"
   inkscape:window-maximized="1"
   inkscape:current-layer="svg2" />
<defs
   id="defs4">
</defs>
<circle
   cx="287.05701"
   cy="287.05701"
   r="286.96899"
   id="circle6"
   sodipodi:cx="287.05701"
   sodipodi:cy="287.05701"
   sodipodi:rx="286.96899"
   sodipodi:ry="286.96899"
   transform="translate(-6.8359375e-6,-6.8359375e-6)"
   style="fill:#ffffff;stroke:#000000;stroke-width:2;stroke-linecap:round;stroke-linejoin:round;stroke-miterlimit:4;stroke-dasharray:none" />
<circle
   cx="287.05701"
   cy="287.05701"
   r="274.77499"
   id="circle8"
   style="fill:#ff0000;stroke:#ff0000;stroke-width:0.17640001;stroke-linecap:round;stroke-linejoin:round"
   sodipodi:cx="287.05701"
   sodipodi:cy="287.05701"
   sodipodi:rx="274.77499"
   sodipodi:ry="274.77499"
   transform="translate(-6.8359375e-6,-6.8359375e-6)" />
<circle
   cx="287.05701"
   cy="287.05701"
   r="192.438"
   id="circle10"
   sodipodi:cx="287.05701"
   sodipodi:cy="287.05701"
   sodipodi:rx="192.438"
   sodipodi:ry="192.438"
   transform="translate(-6.8359375e-6,-6.8359375e-6)"
   style="fill:#ffffff;stroke:#ff0000;stroke-width:0.17640001;stroke-linecap:round;stroke-linejoin:round" />







<g
   id="g3017"
   transform="translate(-5.248,-12.2555)"><polygon
     style="fill:#ff0000;stroke:#ff0000;stroke-width:0.17640001;stroke-linecap:round;stroke-linejoin:round"
     id="polygon12"
     points="261.772,261.637 267.505,281.731 277.059,291.219 277.823,317.453 267.123,326.941 267.123,349.267 253.747,349.267 253.747,327.499 171.201,327.499 171.201,349.267 157.061,349.267 157.061,327.499 147.889,318.011 147.889,291.219 157.825,282.289 163.175,261.637 176.168,249.358 248.015,249.358 " /><polygon
     id="polygon14"
     points="420.67,261.637 426.403,281.731 435.957,291.219 436.721,317.453 426.021,326.941 426.021,349.267 412.645,349.267 412.645,327.499 330.099,327.499 330.099,349.267 315.958,349.267 315.958,327.499 306.787,318.011 306.787,291.219 316.723,282.289 322.074,261.637 335.067,249.358 406.913,249.358 "
     style="stroke:#000000;stroke-width:0.17640001;stroke-linecap:round;stroke-linejoin:round" /><polygon
     id="polygon16"
     points="414.938,282.847 327.042,282.847 333.156,258.289 409.97,257.73 "
     style="fill:#ffffff;stroke:#000000;stroke-width:0.17640001;stroke-linecap:round;stroke-linejoin:round" /><circle
     id="circle18"
     r="6.4790001"
     cy="305.78101"
     cx="326.996"
     sodipodi:cx="326.996"
     sodipodi:cy="305.78101"
     sodipodi:rx="6.4790001"
     sodipodi:ry="6.4790001"
     style="fill:#ffffff;stroke:#000000;stroke-width:0.17640001;stroke-linecap:round;stroke-linejoin:round"
     d="m 333.475,305.78101 c 0,3.57825 -2.90074,6.479 -6.479,6.479 -3.57825,0 -6.479,-2.90075 -6.479,-6.479 0,-3.57826 2.90075,-6.479 6.479,-6.479 3.57826,0 6.479,2.90074 6.479,6.479 z" /><circle
     id="circle20"
     r="6.3990002"
     cy="305.78101"
     cx="416.22198"
     sodipodi:cx="416.22198"
     sodipodi:cy="305.78101"
     sodipodi:rx="6.3990002"
     sodipodi:ry="6.3990002"
     style="fill:#ffffff;stroke:#000000;stroke-width:0.17640001;stroke-linecap:round;stroke-linejoin:round"
     d="m 422.62099,305.78101 c 0,3.53407 -2.86493,6.399 -6.39901,6.399 -3.53407,0 -6.399,-2.86493 -6.399,-6.399 0,-3.53407 2.86493,-6.399 6.399,-6.399 3.53408,0 6.39901,2.86493 6.39901,6.399 z" /><circle
     id="circle22"
     r="6.3990002"
     cy="305.78101"
     cx="257.32401"
     sodipodi:cx="257.32401"
     sodipodi:cy="305.78101"
     sodipodi:rx="6.3990002"
     sodipodi:ry="6.3990002"
     style="fill:#ffffff;stroke:#ff0000;stroke-width:0.17640001;stroke-linecap:round;stroke-linejoin:round"
     d="m 263.72301,305.78101 c 0,3.53407 -2.86493,6.399 -6.399,6.399 -3.53408,0 -6.39901,-2.86493 -6.39901,-6.399 0,-3.53407 2.86493,-6.399 6.39901,-6.399 3.53407,0 6.399,2.86493 6.399,6.399 z" /><circle
     id="circle24"
     r="6.4790001"
     cy="305.78101"
     cx="168.097"
     sodipodi:cx="168.097"
     sodipodi:cy="305.78101"
     sodipodi:rx="6.4790001"
     sodipodi:ry="6.4790001"
     style="fill:#ffffff;stroke:#ff0000;stroke-width:0.17640001;stroke-linecap:round;stroke-linejoin:round"
     d="m 174.576,305.78101 c 0,3.57825 -2.90075,6.479 -6.479,6.479 -3.57825,0 -6.479,-2.90075 -6.479,-6.479 0,-3.57826 2.90075,-6.479 6.479,-6.479 3.57825,0 6.479,2.90074 6.479,6.479 z" /><polygon
     id="polygon26"
     points="256.04,282.847 168.143,282.847 174.258,258.289 251.072,257.73 "
     style="fill:#ffffff;stroke:#ff0000;stroke-width:0.17640001;stroke-linecap:round;stroke-linejoin:round" /></g>
</svg>