<?xml version="1.0" encoding="UTF-8" standalone="no"?>
<!-- Generator: Adobe Illustrator 13.0.0, SVG Export Plug-In  -->

<svg
   xmlns:dc="http://purl.org/dc/elements/1.1/"
   xmlns:cc="http://creativecommons.org/ns#"
   xmlns:rdf="http://www.w3.org/1999/02/22-rdf-syntax-ns#"
   xmlns:svg="http://www.w3.org/2000/svg"
   xmlns="http://www.w3.org/2000/svg"
   xmlns:sodipodi="http://sodipodi.sourceforge.net/DTD/sodipodi-0.dtd"
   xmlns:inkscape="http://www.inkscape.org/namespaces/inkscape"
   version="1.1"
   x="0px"
   y="0px"
   width="576px"
   height="576px"
   viewBox="-0.944 -0.944 576 576"
   enable-background="new -0.944 -0.944 576 576"
   xml:space="preserve"
   id="svg2"
   inkscape:version="0.48.1 "
   sodipodi:docname="B31.svg"
   inkscape:export-filename="C:\Documents and Settings\bertrand.bouteilles\Bureau\Panneaux\A - Route\3_interdiction\B31.png"
   inkscape:export-xdpi="150"
   inkscape:export-ydpi="150"><metadata
   id="metadata14"><rdf:RDF><cc:Work
       rdf:about=""><dc:format>image/svg+xml</dc:format><dc:type
         rdf:resource="http://purl.org/dc/dcmitype/StillImage" /><dc:title></dc:title></cc:Work></rdf:RDF></metadata><sodipodi:namedview
   pagecolor="#ffffff"
   bordercolor="#666666"
   borderopacity="1"
   objecttolerance="10"
   gridtolerance="10"
   guidetolerance="10"
   inkscape:pageopacity="0"
   inkscape:pageshadow="2"
   inkscape:window-width="1920"
   inkscape:window-height="1174"
   id="namedview12"
   showgrid="false"
   inkscape:zoom="0.71938294"
   inkscape:cx="-118.26905"
   inkscape:cy="279.65104"
   inkscape:window-x="1276"
   inkscape:window-y="-4"
   inkscape:window-maximized="1"
   inkscape:current-layer="svg2" />
<defs
   id="defs4">
</defs>


<g
   id="g2991"
   transform="translate(-0.94381179,0.94381412)"><circle
     style="stroke:#000000;stroke-width:0.17640001;stroke-linecap:round;stroke-linejoin:round"
     transform="matrix(1.0032879,0,0,1.0032879,6.1584923e-7,-1.8876253)"
     sodipodi:ry="286.96799"
     sodipodi:rx="286.96799"
     sodipodi:cy="287.056"
     sodipodi:cx="287.056"
     id="circle6"
     r="286.96799"
     cy="287.056"
     cx="287.056"
     d="m 574.02399,287.056 c 0,158.48804 -128.47995,286.96799 -286.96799,286.96799 C 128.56796,574.02399 0.0880127,445.54404 0.0880127,287.056 0.0880127,128.56796 128.56796,0.0880127 287.056,0.0880127 c 158.48804,0 286.96799,128.4799473 286.96799,286.9679873 z" /><path
     style="fill:#ffffff;stroke:#000000;stroke-width:0.17697999;stroke-linecap:round;stroke-linejoin:round"
     inkscape:connector-curvature="0"
     id="path8"
     d="m 126.14941,377.78561 219.23947,-219.2485 99.2633,-97.668074 C 335.82554,-14.819003 188.44556,-1.8735792 94.478619,91.626834 0.51167745,185.12825 -13.166147,332.44101 61.980117,441.64388 l 64.169293,-63.85827 z" /><path
     style="fill:#ffffff;stroke:#000000;stroke-width:0.17697999;stroke-linecap:round;stroke-linejoin:round"
     inkscape:connector-curvature="0"
     id="path10"
     d="m 513.56903,129.92936 -71.50834,71.6197 -212.51945,212.68099 -97.84164,97.3721 c 109.00321,75.5556 256.4464,62.32223 350.25282,-31.43602 93.80742,-93.75826 107.11704,-241.19543 31.61661,-350.23677 z" /></g>
</svg>