<?xml version="1.0" encoding="UTF-8" standalone="no"?>
<!-- Generator: Adobe Illustrator 16.0.2, SVG Export Plug-In . SVG Version: 6.00 Build 0)  -->

<svg
   xmlns:dc="http://purl.org/dc/elements/1.1/"
   xmlns:cc="http://creativecommons.org/ns#"
   xmlns:rdf="http://www.w3.org/1999/02/22-rdf-syntax-ns#"
   xmlns:svg="http://www.w3.org/2000/svg"
   xmlns="http://www.w3.org/2000/svg"
   xmlns:sodipodi="http://sodipodi.sourceforge.net/DTD/sodipodi-0.dtd"
   xmlns:inkscape="http://www.inkscape.org/namespaces/inkscape"
   version="1.1"
   id="Ebene_1"
   x="0px"
   y="0px"
   width="576"
   height="576"
   viewBox="0 0 576 576"
   xml:space="preserve"
   inkscape:version="0.48.1 "
   sodipodi:docname="B33_15.svg"
   inkscape:export-filename="C:\Documents and Settings\bertrand.bouteilles\Bureau\Panneaux\A - Route\3_interdiction\B33_15.png"
   inkscape:export-xdpi="150"
   inkscape:export-ydpi="150"><metadata
   id="metadata43"><rdf:RDF><cc:Work
       rdf:about=""><dc:format>image/svg+xml</dc:format><dc:type
         rdf:resource="http://purl.org/dc/dcmitype/StillImage" /><dc:title></dc:title></cc:Work></rdf:RDF></metadata><defs
   id="defs41">
	
	
	

	
	

	
	
</defs><sodipodi:namedview
   pagecolor="#ffffff"
   bordercolor="#666666"
   borderopacity="1"
   objecttolerance="10"
   gridtolerance="10"
   guidetolerance="10"
   inkscape:pageopacity="0"
   inkscape:pageshadow="2"
   inkscape:window-width="1920"
   inkscape:window-height="1174"
   id="namedview39"
   showgrid="false"
   fit-margin-top="0"
   fit-margin-left="0"
   fit-margin-right="0"
   fit-margin-bottom="0"
   inkscape:zoom="0.79584614"
   inkscape:cx="443.33989"
   inkscape:cy="294.07702"
   inkscape:window-x="1276"
   inkscape:window-y="-4"
   inkscape:window-maximized="1"
   inkscape:current-layer="Ebene_1" />










<circle
   d="M 596.96799,372.979 C 596.96799,531.46705 468.48804,659.94699 310,659.94699 151.51196,659.94699 23.032013,531.46705 23.032013,372.979 23.032013,214.49096 151.51196,86.011017 310,86.011017 c 158.48804,0 286.96799,128.479943 286.96799,286.967983 z"
   style="stroke:#000000;stroke-width:0.17640001;stroke-linecap:round;stroke-linejoin:round"
   cx="310"
   cy="372.979"
   r="286.96799"
   id="circle3"
   sodipodi:cx="310"
   sodipodi:cy="372.979"
   sodipodi:rx="286.96799"
   sodipodi:ry="286.96799"
   transform="matrix(1.0032879,0,0,1.0032879,-23.019249,-86.205322)" /><path
   style="fill:#ffffff;stroke:#000000;stroke-width:0.17697999;stroke-linecap:round;stroke-linejoin:round"
   d="M 131.03159,510.14499 C 240.03481,585.7016 387.476,572.46623 481.28341,478.70998 575.09083,384.95272 588.40145,237.51555 512.90103,128.47321 l -44.16975,44.24098 H 328.83281 L 443.98217,59.413891 C 335.15453,-16.274148 187.77555,-3.3297279 93.808611,90.171688 -0.15532104,183.6721 -13.834148,330.98486 61.312115,440.18773 L 105.4929,396.21965 H 245.50775 L 131.03159,510.14499 z"
   id="path5"
   inkscape:connector-curvature="0" />
<path
   inkscape:connector-curvature="0"
   id="path16-5-6"
   d="m 491.37647,153.34353 -25.30178,28.22195 -181.30115,15.07829 90.93323,25.68297 c 7.98642,-2.17349 16.43087,-3.09824 25.33087,-2.77178 8.32777,-0.21723 16.82932,0.65167 25.50217,2.60917 12.54937,3.80578 23.73086,10.49009 33.54444,20.05294 13.57716,14.13201 21.28055,29.78335 23.10524,46.95527 0.11296,2.50242 0.17254,4.94775 0.17254,7.33722 0,10.43423 -1.42748,19.45836 -4.2787,27.06494 -5.24938,11.63207 -12.43889,22.0663 -21.56481,31.30393 -15.06173,13.47786 -33.43521,20.21678 -55.11174,20.21678 l -3.42222,0 -15.74692,-0.97813 c -16.43087,-1.73655 -30.6957,-7.22675 -42.78828,-16.4681 -15.63397,-13.69508 -25.27377,-27.77 -28.92563,-42.22722 l 49.29261,-11.90267 c 1.48085,6.41495 5.3611,12.17575 11.63827,17.28363 9.46975,6.63094 22.81975,7.9889 40.05001,4.07513 14.2611,-5.54357 20.93673,-15.21689 20.02438,-29.0212 0.3426,-12.49724 -5.59198,-21.35753 -17.8,-26.57464 -8.44569,-2.39071 -17.9713,-3.04239 -28.58179,-1.95626 -8.10186,1.6298 -15.34723,4.6213 -21.73612,8.96703 l -85.33881,-39.33214 62.92579,-86.13016 z"
   style="fill:#ffffff;stroke:none"
   sodipodi:nodetypes="ccccccccsccscccccccccccccc" /><path
   inkscape:connector-curvature="0"
   id="path16-5-2"
   d="m 242.14665,205.60977 -0.17129,45.81329 h -84.54878 l -5.81914,40.76126 c 7.98642,-2.17348 16.43087,-3.09824 25.33087,-2.77178 8.32777,-0.21723 16.82932,0.65167 25.50217,2.60918 12.54937,3.80577 23.73086,10.49008 33.54444,20.05293 13.57716,14.13201 21.28056,29.78335 23.10525,46.95527 0.11296,2.50242 0.17254,4.94775 0.17254,7.33722 0,10.43423 -1.42748,19.45836 -4.2787,27.06495 -5.24939,11.63206 -12.4389,22.06629 -21.56482,31.30392 -15.06173,13.47786 -33.43521,20.21679 -55.11174,20.21679 h -3.42222 l -15.74692,-0.97814 c -16.43087,-1.73655 -30.6957,-7.22675 -42.78828,-16.4681 C 100.71606,413.81148 91.07626,399.73657 87.4244,385.27934 l 49.29261,-11.90267 c 1.48085,6.41495 5.3611,12.17575 11.63827,17.28363 9.46975,6.63094 22.81975,7.9889 40.05001,4.07513 14.2611,-5.54357 20.93673,-15.21689 20.02438,-29.0212 0.3426,-12.49724 -5.59198,-21.35752 -17.8,-26.57464 -8.44569,-2.39071 -17.9713,-3.04238 -28.58179,-1.95626 -8.10186,1.6298 -15.34723,4.6213 -21.73612,8.96703 l -42.61698,-31.79299 12.66481,-108.7476 h 131.78706 z"
   style="fill:#ffffff" /><g
   id="g2998"
   transform="matrix(1.2412834,0,0,1.2412834,-66.147132,-77.216354)"><path
     style="fill:#000000"
     d="m 226.338,200.522 v 192.95 h -38.469 l 0.138,-136.208 h -0.552 c -0.275,1.14 -3.585,3.635 -9.927,7.487 l -11.996,6.042 -10.755,3.94 c -4.322,0.876 -6.666,1.533 -7.032,1.97 v -40.717 l 8.549,-3.81 c 14.248,-8.669 24.496,-19.22 30.748,-31.655 h 39.296 z"
     id="path14-4"
     inkscape:connector-curvature="0" /><path
     style="fill:#000000"
     d="m 417.121,200.391 -0.138,36.908 h -68.114 l -4.688,32.838 c 6.434,-1.751 13.237,-2.496 20.407,-2.233 6.709,-0.175 13.558,0.525 20.545,2.102 10.11,3.066 19.118,8.451 27.024,16.155 10.938,11.385 17.144,23.994 18.614,37.828 0.091,2.016 0.139,3.986 0.139,5.911 0,8.406 -1.15,15.676 -3.447,21.804 -4.229,9.371 -10.021,17.777 -17.373,25.219 -12.134,10.858 -26.936,16.287 -44.399,16.287 h -2.757 l -12.686,-0.788 c -13.237,-1.399 -24.729,-5.822 -34.471,-13.267 -12.595,-11.033 -20.361,-22.372 -23.303,-34.019 l 39.711,-9.589 c 1.193,5.168 4.319,9.809 9.376,13.924 7.629,5.342 18.384,6.436 32.265,3.283 11.489,-4.466 16.867,-12.259 16.132,-23.38 0.276,-10.068 -4.505,-17.206 -14.34,-21.409 -6.804,-1.926 -14.478,-2.451 -23.026,-1.576 -6.527,1.313 -12.364,3.723 -17.511,7.224 L 300.748,288 310.951,200.391 h 106.17 z"
     id="path16-5"
     inkscape:connector-curvature="0" /></g></svg>