<?xml version="1.0" encoding="UTF-8" standalone="no"?>
<!-- Generator: Adobe Illustrator 16.0.2, SVG Export Plug-In . SVG Version: 6.00 Build 0)  -->

<svg
   xmlns:dc="http://purl.org/dc/elements/1.1/"
   xmlns:cc="http://creativecommons.org/ns#"
   xmlns:rdf="http://www.w3.org/1999/02/22-rdf-syntax-ns#"
   xmlns:svg="http://www.w3.org/2000/svg"
   xmlns="http://www.w3.org/2000/svg"
   xmlns:sodipodi="http://sodipodi.sourceforge.net/DTD/sodipodi-0.dtd"
   xmlns:inkscape="http://www.inkscape.org/namespaces/inkscape"
   version="1.1"
   id="Ebene_1"
   x="0px"
   y="0px"
   width="576"
   height="576"
   viewBox="0 0 576 576"
   xml:space="preserve"
   inkscape:version="0.48.1 "
   sodipodi:docname="B33_30.svg"
   inkscape:export-filename="C:\Documents and Settings\bertrand.bouteilles\Bureau\Panneaux\A - Route\3_interdiction\B33_30.png"
   inkscape:export-xdpi="150"
   inkscape:export-ydpi="150"><metadata
   id="metadata43"><rdf:RDF><cc:Work
       rdf:about=""><dc:format>image/svg+xml</dc:format><dc:type
         rdf:resource="http://purl.org/dc/dcmitype/StillImage" /><dc:title></dc:title></cc:Work></rdf:RDF></metadata><defs
   id="defs41">
	
	
	

	
	

	
	
</defs><sodipodi:namedview
   pagecolor="#ffffff"
   bordercolor="#666666"
   borderopacity="1"
   objecttolerance="10"
   gridtolerance="10"
   guidetolerance="10"
   inkscape:pageopacity="0"
   inkscape:pageshadow="2"
   inkscape:window-width="1920"
   inkscape:window-height="1174"
   id="namedview39"
   showgrid="false"
   fit-margin-top="0"
   fit-margin-left="0"
   fit-margin-right="0"
   fit-margin-bottom="0"
   inkscape:zoom="0.79584614"
   inkscape:cx="451.57478"
   inkscape:cy="415.87238"
   inkscape:window-x="1276"
   inkscape:window-y="-4"
   inkscape:window-maximized="1"
   inkscape:current-layer="Ebene_1" />










<circle
   d="M 596.96799,372.979 C 596.96799,531.46705 468.48804,659.94699 310,659.94699 151.51196,659.94699 23.032013,531.46705 23.032013,372.979 23.032013,214.49096 151.51196,86.011017 310,86.011017 c 158.48804,0 286.96799,128.479943 286.96799,286.967983 z"
   style="stroke:#000000;stroke-width:0.17640001;stroke-linecap:round;stroke-linejoin:round"
   cx="310"
   cy="372.979"
   r="286.96799"
   id="circle3"
   sodipodi:cx="310"
   sodipodi:cy="372.979"
   sodipodi:rx="286.96799"
   sodipodi:ry="286.96799"
   transform="matrix(1.0032879,0,0,1.0032879,-23.019249,-86.205322)" /><path
   style="fill:#ffffff;stroke:#000000;stroke-width:0.17697999;stroke-linecap:round;stroke-linejoin:round"
   d="M 131.03159,510.14499 C 240.03481,585.7016 387.476,572.46623 481.28341,478.70998 575.09083,384.95272 588.40145,237.51555 512.90103,128.47321 l -44.16975,44.24098 H 328.83281 L 443.98217,59.413891 C 335.15453,-16.274148 187.77555,-3.3297279 93.808611,90.171688 -0.15532104,183.6721 -13.834148,330.98486 61.312115,440.18773 L 105.4929,396.21965 H 245.50775 L 131.03159,510.14499 z"
   id="path5"
   inkscape:connector-curvature="0" />
<path
   inkscape:connector-curvature="0"
   id="path14-8"
   d="m 195.55561,198.06715 c 9.33433,1.84556 18.21531,5.42397 26.64296,10.7377 l 11.61341,9.43589 c 5.12422,5.85749 8.42517,9.97966 9.90658,12.36402 l 5.29391,10.08742 c 2.95909,8.24309 4.55197,16.64968 4.78111,25.2173 l -0.85341,12.36401 -2.90335,9.11014 c -3.30343,7.80957 -8.42765,15.7269 -15.37142,23.75199 l 0.85342,2.11559 8.1985,8.62335 5.29391,7.64607 4.78112,11.38798 c 2.61846,7.91857 3.9277,15.67364 3.9277,23.26521 0,15.40239 -5.40911,30.04425 -16.22484,43.92559 -16.39576,18.76527 -37.6321,28.58019 -63.70405,29.44723 -9.452,0 -17.24919,-0.54252 -23.39775,-1.62632 -7.9706,-2.05861 -13.60637,-3.79517 -16.90732,-5.20597 l -10.2472,-4.88021 -8.71006,-6.01975 -7.85664,-6.67003 -8.02633,-9.92392 c -4.66964,-7.26581 -7.97059,-14.15508 -9.90534,-20.66285 l -0.17093,-1.46406 44.9165,-11.71374 c 2.16141,8.13286 7.57051,14.31734 16.22483,18.54603 5.34965,2.06232 13.26327,3.20063 23.73961,3.41739 l 8.02633,-0.81378 6.49043,-1.95209 4.95329,-2.76462 c 3.41615,-2.16885 6.49043,-5.36823 9.22285,-9.5994 1.36621,-2.71012 2.39056,-6.39753 3.07428,-11.06345 0.22667,-3.79393 0,-5.96278 -0.68372,-6.50777 0.22667,-1.73285 -0.57101,-4.39219 -2.39056,-7.97184 l -4.26956,-5.69522 c -3.07429,-2.92689 -5.75097,-4.93347 -8.02633,-6.01851 -2.84762,-1.51857 -6.66013,-2.76463 -11.44248,-3.74191 l -18.61539,-0.48802 v -44.08909 c 2.50327,0.218 7.45656,-0.10776 14.85862,-0.97728 l 0.34186,0.327 c 13.54815,-1.51856 22.08728,-8.56761 25.61738,-21.15087 l -0.34063,-7.32031 0.34063,-1.13954 -0.68249,-2.27661 -3.24521,-6.01975 c -3.18948,-3.79516 -6.09283,-6.28853 -8.71006,-7.48381 -0.45705,-0.32576 -4.32902,-1.3018 -11.61341,-2.92812 l -10.75999,0.32576 v -0.32576 l -10.58782,1.62632 -7.51478,3.09163 -3.07428,2.2766 -3.41615,4.71919 -2.56149,6.01975 -44.40494,-12.69102 2.90335,-7.32032 1.02435,-0.97604 c -0.23038,-0.54128 1.08133,-3.25388 3.9277,-8.13409 l 4.78112,-7.32155 6.83229,-7.48381 c 2.50328,-1.3018 3.75677,-2.27785 3.75677,-2.92813 l 3.58708,-2.4401 c 8.88099,-6.28977 19.2409,-10.30294 31.08346,-12.0395 5.91818,-0.86704 13.03535,-1.3018 21.34781,-1.3018 6.03461,0 12.1262,0.43476 18.27477,1.3018 z"
   style="fill:#ffffff" /><path
   inkscape:connector-curvature="0"
   id="path16-2"
   d="m 303.43449,275.72407 c -0.38516,-6.07301 -0.57845,-12.0395 -0.57845,-17.89575 0,-2.92812 0.063,-5.85748 0.19329,-8.78561 0.38516,-11.4945 1.47903,-22.66819 3.283,-33.51489 v -1.1383 l 0.77313,-1.4653 1.35157,-11.22572 0.96502,-1.62632 1.93142,-9.11014 0.77313,-0.97728 c 1.93143,-7.80957 6.1122,-16.5927 12.55215,-26.3556 l 5.601,-7.15805 10.81541,-9.27363 c 11.45689,-7.80957 26.32703,-13.39333 44.61043,-16.75745 5.79427,-0.86704 11.78043,-1.3018 17.95987,-1.3018 h 1.54625 c 9.65572,0.218 19.76104,1.5743 30.31874,4.06767 4.37547,0.43476 11.39386,2.87486 21.04958,7.32155 9.91203,5.20596 18.92628,12.31075 27.03714,21.31313 l 6.17944,7.97183 5.02113,8.94787 2.12472,6.50777 0.57984,0.48926 v 1.62633 c 1.28574,2.27908 2.05748,4.06766 2.31659,5.36946 l 0.77313,0.81379 3.283,14.47836 0.57985,0.32576 -0.38657,2.11558 0.77313,1.3018 1.93142,17.40773 0.77314,1.62632 -0.57986,0.16226 1.35298,10.24968 -0.38656,0.32576 c 0.51262,1.08504 0.51262,1.73532 0,1.95208 l 0.57985,1.62632 -0.38657,0.48926 0.96502,11.06346 -0.38517,0.32452 0.57985,4.71919 -0.19468,0.32576 v 6.50777 c -0.12886,4.01316 -0.51543,8.84135 -1.1583,14.47836 l -0.96501,6.01975 0.38656,0.32576 -0.965,1.62632 c -0.38658,4.01317 -1.48324,8.78562 -3.2844,14.31735 l -1.1583,3.09038 -0.19328,1.78982 -5.02115,12.0395 -0.965,0.65028 c 0,1.08504 -1.67373,4.39219 -5.02115,9.92516 l -9.26916,11.22571 c -10.17253,9.87066 -21.43755,17.08197 -33.79642,21.63766 -8.11085,2.7126 -16.28894,4.49995 -24.52586,5.36947 l -14.87015,0.81378 -3.47628,-0.1635 c -29.35372,-0.65028 -53.04343,-8.67662 -71.06772,-24.07776 -8.88259,-8.35085 -15.57885,-18.05801 -20.08457,-29.12147 -5.15139,-11.27897 -8.30414,-23.15621 -9.46243,-35.63047 l -0.77874,-7.16053 z m 96.17343,49.1328 c 7.98061,0.43476 12.93873,0.32576 14.87015,-0.32576 l 0.19328,0.32576 10.62213,-1.95209 c 8.49603,-2.38436 14.9962,-7.53707 19.50473,-15.45564 3.47628,-7.91733 6.05057,-17.35323 7.72569,-28.30892 l 0.96501,-36.76754 -0.57984,-17.2467 -1.93143,-12.85204 -0.77173,-0.65028 -2.51126,-9.11014 -0.77314,-0.32576 c -1.93142,-6.50777 -5.59959,-12.52628 -11.00729,-18.05925 -4.12057,-2.81788 -7.40497,-4.66221 -9.8476,-5.53049 l -11.20199,-2.27908 -11.77902,-0.48802 c -5.28166,-0.10652 -11.13756,0.81378 -17.5747,2.76587 -5.92313,2.38684 -10.88124,6.67003 -14.87015,12.85204 -2.832,5.75096 -5.4063,12.96227 -7.72429,21.63889 l 0.38516,0.9748 c -0.77313,0.54376 -1.22552,2.33482 -1.35157,5.36947 -1.80537,12.68978 -1.99865,31.29278 -0.57985,55.80282 l 3.08972,17.73349 4.05613,12.52752 c 2.95946,6.50777 7.01559,11.22572 12.16699,14.15384 4.63317,2.49708 10.94007,4.23117 18.92487,5.20721 z"
   style="fill:#ffffff" /><g
   id="g3760"
   transform="matrix(1.2386315,0,0,1.2386315,-72.6833,-68.725872)"><path
     style="fill:#000000"
     d="m 213.724,191.8545 c 7.536,1.49 14.706,4.379 21.51,8.669 l 9.376,7.618 c 4.137,4.729 6.802,8.057 7.998,9.982 l 4.274,8.144 c 2.389,6.655 3.675,13.442 3.86,20.359 l -0.689,9.982 -2.344,7.355 c -2.667,6.305 -6.804,12.697 -12.41,19.176 l 0.689,1.708 6.619,6.962 4.274,6.173 3.86,9.194 c 2.114,6.393 3.171,12.654 3.171,18.783 0,12.435 -4.367,24.256 -13.099,35.463 -13.237,15.15 -30.382,23.074 -51.431,23.774 -7.631,0 -13.926,-0.438 -18.89,-1.313 -6.435,-1.662 -10.985,-3.064 -13.65,-4.203 l -8.273,-3.94 -7.032,-4.86 -6.343,-5.385 -6.48,-8.012 c -3.77,-5.866 -6.435,-11.428 -7.997,-16.682 l -0.138,-1.182 36.263,-9.457 c 1.745,6.566 6.112,11.559 13.099,14.973 4.319,1.665 10.708,2.584 19.166,2.759 l 6.48,-0.657 5.24,-1.576 3.999,-2.232 c 2.758,-1.751 5.24,-4.334 7.446,-7.75 1.103,-2.188 1.93,-5.165 2.482,-8.932 0.183,-3.063 0,-4.814 -0.552,-5.254 0.183,-1.399 -0.461,-3.546 -1.93,-6.436 l -3.447,-4.598 c -2.482,-2.363 -4.643,-3.983 -6.48,-4.859 -2.299,-1.226 -5.377,-2.232 -9.238,-3.021 l -15.029,-0.394 v -35.595 c 2.021,0.176 6.02,-0.087 11.996,-0.789 l 0.276,0.264 c 10.938,-1.226 17.832,-6.917 20.682,-17.076 l -0.275,-5.91 0.275,-0.92 -0.551,-1.838 -2.62,-4.86 c -2.575,-3.064 -4.919,-5.077 -7.032,-6.042 -0.369,-0.263 -3.495,-1.051 -9.376,-2.364 l -8.687,0.263 v -0.263 l -8.548,1.313 -6.067,2.496 -2.482,1.838 -2.758,3.81 -2.068,4.86 -35.85,-10.246 2.344,-5.91 0.827,-0.788 c -0.186,-0.437 0.873,-2.627 3.171,-6.567 l 3.86,-5.911 5.516,-6.042 c 2.021,-1.051 3.033,-1.839 3.033,-2.364 l 2.896,-1.97 c 7.17,-5.078 15.534,-8.318 25.095,-9.72 4.778,-0.7 10.524,-1.051 17.235,-1.051 4.872,0 9.79,0.351 14.754,1.051 z"
     id="path14"
     inkscape:connector-curvature="0" /><path
     style="fill:#000000"
     d="m 304.823,308.358 c -0.275,-4.903 -0.413,-9.72 -0.413,-14.448 0,-2.364 0.045,-4.729 0.138,-7.093 0.275,-9.28 1.056,-18.301 2.344,-27.058 v -0.919 l 0.552,-1.183 0.965,-9.063 0.689,-1.313 1.379,-7.355 0.552,-0.789 c 1.379,-6.305 4.364,-13.396 8.962,-21.278 l 3.999,-5.779 7.722,-7.487 c 8.18,-6.305 18.797,-10.813 31.851,-13.529 4.137,-0.7 8.411,-1.051 12.823,-1.051 h 1.104 c 6.894,0.176 14.109,1.271 21.647,3.284 3.124,0.351 8.135,2.321 15.029,5.911 7.077,4.203 13.513,9.939 19.304,17.207 l 4.412,6.436 3.585,7.224 1.517,5.254 0.414,0.395 v 1.313 c 0.918,1.84 1.469,3.284 1.654,4.335 l 0.552,0.657 2.344,11.689 0.414,0.263 -0.276,1.708 0.552,1.051 1.379,14.054 0.552,1.313 -0.414,0.131 0.966,8.275 -0.276,0.263 c 0.366,0.876 0.366,1.401 0,1.576 l 0.414,1.313 -0.276,0.395 0.689,8.932 -0.275,0.262 0.414,3.81 -0.139,0.263 v 5.254 c -0.092,3.24 -0.368,7.138 -0.827,11.689 l -0.689,4.86 0.276,0.263 -0.689,1.313 c -0.276,3.24 -1.059,7.093 -2.345,11.559 l -0.827,2.495 -0.138,1.445 -3.585,9.72 -0.689,0.525 c 0,0.876 -1.195,3.546 -3.585,8.013 l -6.618,9.063 c -7.263,7.969 -15.306,13.791 -24.13,17.469 -5.791,2.19 -11.63,3.633 -17.511,4.335 l -10.617,0.657 -2.482,-0.132 c -20.958,-0.525 -37.872,-7.005 -50.741,-19.439 -6.342,-6.742 -11.123,-14.579 -14.34,-23.511 -3.678,-9.106 -5.929,-18.695 -6.756,-28.766 l -0.556,-5.781 z m 68.666,39.667 c 5.698,0.351 9.238,0.263 10.617,-0.263 l 0.138,0.263 7.584,-1.576 c 6.066,-1.925 10.707,-6.085 13.926,-12.478 2.482,-6.392 4.32,-14.01 5.516,-22.855 l 0.689,-29.684 -0.414,-13.924 -1.379,-10.376 -0.551,-0.525 -1.793,-7.355 -0.552,-0.263 c -1.379,-5.254 -3.998,-10.113 -7.859,-14.58 -2.942,-2.275 -5.287,-3.764 -7.031,-4.465 l -7.998,-1.84 -8.41,-0.394 c -3.771,-0.086 -7.952,0.657 -12.548,2.233 -4.229,1.927 -7.769,5.385 -10.617,10.376 -2.022,4.643 -3.86,10.465 -5.515,17.47 l 0.275,0.787 c -0.552,0.439 -0.875,1.885 -0.965,4.335 -1.289,10.245 -1.427,25.264 -0.414,45.052 l 2.206,14.317 2.896,10.114 c 2.113,5.254 5.009,9.063 8.687,11.427 3.308,2.016 7.811,3.416 13.512,4.204 z"
     id="path16"
     inkscape:connector-curvature="0" /></g></svg>