<?xml version="1.0" encoding="UTF-8" standalone="no"?>
<!-- Generator: Adobe Illustrator 16.0.2, SVG Export Plug-In . SVG Version: 6.00 Build 0)  -->

<svg
   xmlns:dc="http://purl.org/dc/elements/1.1/"
   xmlns:cc="http://creativecommons.org/ns#"
   xmlns:rdf="http://www.w3.org/1999/02/22-rdf-syntax-ns#"
   xmlns:svg="http://www.w3.org/2000/svg"
   xmlns="http://www.w3.org/2000/svg"
   xmlns:sodipodi="http://sodipodi.sourceforge.net/DTD/sodipodi-0.dtd"
   xmlns:inkscape="http://www.inkscape.org/namespaces/inkscape"
   version="1.1"
   id="Ebene_1"
   x="0px"
   y="0px"
   width="576"
   height="576"
   viewBox="0 0 576 576"
   xml:space="preserve"
   inkscape:version="0.48.1 "
   sodipodi:docname="B33_90.svg"
   inkscape:export-filename="C:\Documents and Settings\bertrand.bouteilles\Bureau\Panneaux\A - Route\3_interdiction\B33_90.png"
   inkscape:export-xdpi="150"
   inkscape:export-ydpi="150"><metadata
   id="metadata43"><rdf:RDF><cc:Work
       rdf:about=""><dc:format>image/svg+xml</dc:format><dc:type
         rdf:resource="http://purl.org/dc/dcmitype/StillImage" /><dc:title></dc:title></cc:Work></rdf:RDF></metadata><defs
   id="defs41">
	
	
	

	
	

	
	
</defs><sodipodi:namedview
   pagecolor="#ffffff"
   bordercolor="#666666"
   borderopacity="1"
   objecttolerance="10"
   gridtolerance="10"
   guidetolerance="10"
   inkscape:pageopacity="0"
   inkscape:pageshadow="2"
   inkscape:window-width="1920"
   inkscape:window-height="1174"
   id="namedview39"
   showgrid="false"
   fit-margin-top="0"
   fit-margin-left="0"
   fit-margin-right="0"
   fit-margin-bottom="0"
   inkscape:zoom="0.79584614"
   inkscape:cx="463.97204"
   inkscape:cy="347.32259"
   inkscape:window-x="1276"
   inkscape:window-y="-4"
   inkscape:window-maximized="1"
   inkscape:current-layer="Ebene_1" />










<circle
   d="M 596.96799,372.979 C 596.96799,531.46705 468.48804,659.94699 310,659.94699 151.51196,659.94699 23.032013,531.46705 23.032013,372.979 23.032013,214.49096 151.51196,86.011017 310,86.011017 c 158.48804,0 286.96799,128.479943 286.96799,286.967983 z"
   style="stroke:#000000;stroke-width:0.17640001;stroke-linecap:round;stroke-linejoin:round"
   cx="310"
   cy="372.979"
   r="286.96799"
   id="circle3"
   sodipodi:cx="310"
   sodipodi:cy="372.979"
   sodipodi:rx="286.96799"
   sodipodi:ry="286.96799"
   transform="matrix(1.0032879,0,0,1.0032879,-23.019249,-86.205322)" /><path
   style="fill:#ffffff;stroke:#000000;stroke-width:0.17697999;stroke-linecap:round;stroke-linejoin:round"
   d="M 131.03159,510.14499 C 240.03481,585.7016 387.476,572.46623 481.28341,478.70998 575.09083,384.95272 588.40145,237.51555 512.90103,128.47321 l -44.16975,44.24098 H 328.83281 L 443.98217,59.413891 C 335.15453,-16.274148 187.77555,-3.3297279 93.808611,90.171688 -0.15532104,183.6721 -13.834148,330.98486 61.312115,440.18773 L 105.4929,396.21965 H 245.50775 L 131.03159,510.14499 z"
   id="path5"
   inkscape:connector-curvature="0" /><path
   inkscape:connector-curvature="0"
   id="path27"
   d="m 298.78115,269.01384 c -0.35765,-5.67522 -0.53586,-11.2508 -0.53586,-16.72364 0,-2.73693 0.0586,-5.47282 0.17821,-8.20976 0.35765,-10.74224 1.36835,-21.18244 3.03944,-31.31958 v -1.06385 l 0.71529,-1.36795 1.25118,-10.49002 0.89352,-1.52052 1.78827,-8.51387 0.7153,-0.91231 c 1.78827,-7.29746 5.6602,-15.50722 11.62188,-24.62931 l 5.18536,-6.68924 10.01305,-8.66644 c 10.60751,-7.29745 24.37654,-12.51704 41.30461,-15.65979 5.36479,-0.80956 10.90781,-1.21641 16.62903,-1.21641 h 1.4306 c 8.94009,0.20447 18.29643,1.4707 28.07269,3.80077 4.05014,0.40687 10.55014,2.68712 19.49023,6.84182 9.17813,4.86567 17.52255,11.50509 25.03325,19.91621 l 5.72244,7.45003 4.64949,8.36233 1.96649,6.08104 0.53586,0.45563 v 1.52053 c 1.19013,2.12872 1.90545,3.80077 2.14591,5.01719 l 0.71531,0.75974 3.03943,13.53106 0.53587,0.30411 -0.35765,1.97615 0.71531,1.21642 1.78827,16.268 0.71529,1.52051 -0.53586,0.15154 1.25117,9.57875 -0.35765,0.30411 c 0.47484,1.01505 0.47484,1.62222 0,1.82462 l 0.53587,1.52052 -0.35765,0.45563 0.89352,10.33849 -0.35766,0.30411 0.53587,4.40899 -0.17821,0.30411 v 6.08103 c -0.12085,3.75096 -0.4785,8.2627 -1.07296,13.53107 l -0.89352,5.62539 0.35765,0.30411 -0.89352,1.52052 c -0.35766,3.75096 -1.37202,8.20977 -3.03944,13.37953 l -1.07295,2.88846 -0.17823,1.67206 -4.64948,11.2508 -0.89352,0.60821 c 0,1.01506 -1.55145,4.10489 -4.64948,9.27465 l -8.58244,10.49003 c -9.4186,9.22482 -19.8479,15.96389 -31.29156,20.2203 -7.50949,2.53455 -15.08123,4.20452 -22.70912,5.0172 l -13.7678,0.75975 -3.21887,-0.15154 c -27.17916,-0.60821 -49.11316,-8.10805 -65.80078,-22.50161 -8.22478,-7.80395 -14.4245,-16.87621 -18.59548,-27.2147 -4.76912,-10.53984 -7.68893,-21.63911 -8.76189,-33.29573 l -0.71408,-6.68925 z m 89.04576,45.91448 c 7.38985,0.40687 11.97952,0.30411 13.76779,-0.30409 l 0.17822,0.30409 9.83483,-1.82462 c 7.86713,-2.22733 13.88499,-7.04317 18.05962,-14.44337 3.21889,-7.39709 5.60161,-16.21507 7.15184,-26.45392 l 0.89353,-34.35958 -0.53588,-16.11543 -1.78825,-12.01054 -0.71531,-0.60822 -2.32413,-8.51386 -0.71531,-0.30411 c -1.78826,-6.08103 -5.18536,-11.70644 -10.1925,-16.8762 -3.81698,-2.63418 -6.85643,-4.35709 -9.11953,-5.16873 l -10.37071,-2.12873 -10.90778,-0.45563 c -4.88996,-0.0996 -10.31213,0.75974 -16.27138,2.58436 -5.48441,2.23044 -10.0753,6.23361 -13.7678,12.01054 -2.62318,5.3732 -5.00714,12.1133 -7.15182,20.22032 l 0.35765,0.91231 c -0.7153,0.50856 -1.13521,2.18062 -1.25118,5.01719 -1.67108,11.85901 -1.85052,29.24379 -0.53587,52.1481 l 2.86123,16.5721 3.75473,11.70645 c 2.74038,6.08103 6.49513,10.49002 11.26545,13.22695 4.29062,2.3332 10.12903,3.95231 17.52256,4.86462 z"
   style="fill:#ffffff" /><path
   inkscape:connector-curvature="0"
   id="path35-1"
   d="m 240.64514,213.59285 -0.16855,47.49163 -83.49161,0 -5.74684,42.25247 c 7.88484,-2.25239 16.22518,-3.21153 25.01398,-2.87242 8.22295,-0.22574 16.61846,0.67622 25.18252,2.70386 12.39362,3.94493 23.4338,10.87464 33.12656,20.78813 13.40694,14.64901 21.01287,30.87317 22.81678,48.67551 0.11036,2.5935 0.16855,5.12881 0.16855,7.60593 0,10.81645 -1.41062,20.1701 -4.22485,28.05494 -5.18398,12.05952 -12.28225,22.87597 -21.29578,32.45034 -14.87274,13.9738 -33.0152,20.95768 -54.42135,20.95768 l -3.38008,0 -15.54895,-1.01332 c -16.22517,-1.8009 -30.31134,-7.49255 -42.25247,-17.07094 -15.43859,-14.19651 -24.957792,-28.78634 -28.562605,-43.77345 12.932845,-40.42525 16.474975,-33.43515 10.14023,-73.51993 L 110.50767,213.59285 z"
   style="fill:#ffffff"
   sodipodi:nodetypes="ccccccccsccsccccccc" />
<rect
   id="rect12"
   height="266.448"
   width="384.875"
   style="fill:none"
   y="243.51414"
   x="-362.06827" /><g
   id="g3016"
   transform="translate(6.8780695,-0.70161)"><path
     style="fill:#000000"
     d="m 299.17047,314.20374 c -0.33911,-6.30766 -0.50767,-12.50597 -0.50767,-18.58991 0,-3.04298 0.0562,-6.08395 0.16856,-9.12793 0.33911,-11.94112 1.29424,-23.54817 2.87341,-34.81509 v -1.18388 l 0.67622,-1.52098 1.18287,-11.66221 0.84578,-1.69054 1.69054,-9.46502 0.67621,-1.01432 c 1.69054,-8.1126 5.35054,-17.2395 10.985,-27.37973 l 4.90207,-7.43637 9.46501,-9.63357 c 10.02686,-8.1126 23.04151,-13.9146 39.04095,-17.40805 5.07162,-0.89995 10.30978,-1.35244 15.71851,-1.35244 h 1.35243 c 8.45069,0.22774 17.29468,1.63435 26.53496,4.22485 3.82855,0.45147 9.97067,2.98679 18.42137,7.60592 8.67442,5.40872 16.56328,12.78991 23.66154,22.14057 l 5.40872,8.28112 4.39441,9.29548 1.85909,6.76015 0.50766,0.50666 v 1.69054 c 1.12469,2.36575 1.8009,4.22485 2.02765,5.57728 l 0.67621,0.84477 2.87242,15.04129 0.50766,0.33911 -0.33811,2.19619 0.67622,1.35244 1.69054,18.08426 0.67621,1.68954 -0.50766,0.16956 1.18388,10.64689 -0.33811,0.33912 c 0.44847,1.12669 0.44847,1.80291 0,2.02764 l 0.50666,1.68954 -0.3371,0.50767 0.84477,11.49266 -0.33811,0.3381 0.50666,4.90207 -0.16855,0.33711 v 6.76015 c -0.11338,4.16966 -0.45148,9.1851 -1.01433,15.04229 l -0.84577,6.2535 0.33911,0.3371 -0.84577,1.69155 c -0.33811,4.16966 -1.29625,9.1259 -2.87342,14.87274 l -1.01332,3.21052 -0.16955,1.85909 -4.3944,12.50799 -0.84477,0.67621 c 0,1.12669 -1.46581,4.56295 -4.39541,10.30878 l -8.11258,11.66121 c -8.90117,10.25461 -18.75948,17.74616 -29.57593,22.47867 -7.09826,2.81824 -14.25471,4.67432 -21.46434,5.57828 l -13.01465,0.84477 -3.04197,-0.16855 c -25.68918,-0.67622 -46.42313,-9.01354 -62.19582,-25.01398 -7.77448,-8.67442 -13.63468,-18.76048 -17.57761,-30.25314 -4.50777,-11.7174 -7.26781,-24.05583 -8.28113,-37.0143 l -0.67722,-7.43336 z m 84.16682,51.04227 c 6.9859,0.45049 11.32411,0.33712 13.01465,-0.33911 l 0.16956,0.33911 9.29546,-2.02764 c 7.43637,-2.47712 13.12501,-7.83067 17.07094,-16.05662 3.04097,-8.22295 5.29435,-18.02608 6.76016,-29.40838 l 0.84477,-38.19617 -0.50767,-17.91471 -1.68953,-13.35176 -0.67622,-0.67621 -2.1972,-9.46502 -0.67622,-0.33811 c -1.69054,-6.76015 -4.90206,-13.01365 -9.63457,-18.76048 -3.60682,-2.9286 -6.48024,-4.84287 -8.61925,-5.74683 l -9.80312,-2.36575 -10.30879,-0.50667 c -4.62114,-0.11036 -9.74794,0.84477 -15.3804,2.87342 -5.18399,2.48013 -9.5222,6.92971 -13.01365,13.35176 -2.48012,5.97357 -4.73251,13.46512 -6.76015,22.47866 l 0.3371,1.01433 c -0.67621,0.56485 -1.07151,2.42494 -1.18287,5.57828 -1.57918,13.1822 -1.74773,32.50753 -0.50666,57.96997 l 2.70386,18.42237 3.54863,13.01365 c 2.59049,6.76016 6.14012,11.66122 10.64789,14.70419 4.0573,2.59149 9.57639,4.39239 16.56328,5.40772 z"
     id="path37"
     inkscape:connector-curvature="0" /><path
     style="fill:#000000"
     d="m 151.22568,164.16101 v 0.34139 c 6.47327,-0.68149 12.60676,-1.02288 18.39924,-1.02288 19.08128,0 34.3557,3.69561 45.82943,11.08294 14.87779,9.66285 25.0146,21.54152 30.41045,35.63469 5.39336,14.09447 8.77395,30.63321 10.13681,49.61492 0.56714,7.84296 0.85133,15.85726 0.85133,24.0416 0,11.59439 -0.56962,23.58728 -1.70389,35.97478 -1.93247,20.91455 -6.92921,39.21477 -14.9927,54.90068 -15.22129,23.87026 -35.66543,37.39877 -61.33243,40.57904 -2.15858,0.11164 -4.20349,0.17135 -6.13349,0.17135 -49.52139,0 -79.449956,-19.94878 -89.784469,-59.84633 l 47.362799,-12.61727 2.72572,5.11441 c 5.45269,11.70861 17.03761,17.56162 34.7548,17.56162 15.55984,-0.79442 25.95119,-7.2744 31.17776,-19.43863 2.72572,-5.34027 5.50828,-21.48181 8.34767,-48.422 -23.73947,16.48292 -48.89618,20.00719 -75.47381,10.5728 -25.10234,-10.5728 -40.377991,-26.76885 -45.829427,-48.59334 -1.021841,-6.36445 -1.533375,-12.50304 -1.533375,-18.41446 0,-19.54897 5.848071,-36.59915 17.547912,-51.14925 12.83411,-14.88889 29.07477,-23.58468 48.72566,-26.08606 h 0.51401 z m 11.41441,102.64118 c 24.19172,0.90995 37.76349,-8.0143 40.71779,-26.76885 -0.34103,-18.18469 -10.16647,-28.4148 -29.47388,-30.69032 -24.30661,-2.04577 -38.05012,6.30863 -41.22931,25.06318 -0.5696,19.43734 9.42759,30.2373 29.9854,32.39599 z"
     id="path14"
     inkscape:connector-curvature="0" /></g></svg>