<?xml version="1.0" encoding="UTF-8" standalone="no"?>
<!-- Generator: Adobe Illustrator 16.0.2, SVG Export Plug-In . SVG Version: 6.00 Build 0)  -->

<svg
   xmlns:dc="http://purl.org/dc/elements/1.1/"
   xmlns:cc="http://creativecommons.org/ns#"
   xmlns:rdf="http://www.w3.org/1999/02/22-rdf-syntax-ns#"
   xmlns:svg="http://www.w3.org/2000/svg"
   xmlns="http://www.w3.org/2000/svg"
   xmlns:sodipodi="http://sodipodi.sourceforge.net/DTD/sodipodi-0.dtd"
   xmlns:inkscape="http://www.inkscape.org/namespaces/inkscape"
   version="1.1"
   id="Ebene_1"
   x="0px"
   y="0px"
   width="576"
   height="576"
   viewBox="0 0 576 576"
   xml:space="preserve"
   inkscape:version="0.48.1 "
   sodipodi:docname="B33_130.svg"
   inkscape:export-filename="C:\Documents and Settings\bertrand.bouteilles\Bureau\Panneaux\A - Route\3_interdiction\B33_130.png"
   inkscape:export-xdpi="150"
   inkscape:export-ydpi="150"><metadata
   id="metadata43"><rdf:RDF><cc:Work
       rdf:about=""><dc:format>image/svg+xml</dc:format><dc:type
         rdf:resource="http://purl.org/dc/dcmitype/StillImage" /><dc:title></dc:title></cc:Work></rdf:RDF></metadata><defs
   id="defs41">
	
	
	

	
	

	
	
</defs><sodipodi:namedview
   pagecolor="#ffffff"
   bordercolor="#666666"
   borderopacity="1"
   objecttolerance="10"
   gridtolerance="10"
   guidetolerance="10"
   inkscape:pageopacity="0"
   inkscape:pageshadow="2"
   inkscape:window-width="1920"
   inkscape:window-height="1174"
   id="namedview39"
   showgrid="false"
   fit-margin-top="0"
   fit-margin-left="0"
   fit-margin-right="0"
   fit-margin-bottom="0"
   inkscape:zoom="0.79584614"
   inkscape:cx="463.97204"
   inkscape:cy="347.32259"
   inkscape:window-x="1276"
   inkscape:window-y="-4"
   inkscape:window-maximized="1"
   inkscape:current-layer="g3020" />










<circle
   d="M 596.96799,372.979 C 596.96799,531.46705 468.48804,659.94699 310,659.94699 151.51196,659.94699 23.032013,531.46705 23.032013,372.979 23.032013,214.49096 151.51196,86.011017 310,86.011017 c 158.48804,0 286.96799,128.479943 286.96799,286.967983 z"
   style="stroke:#000000;stroke-width:0.17640001;stroke-linecap:round;stroke-linejoin:round"
   cx="310"
   cy="372.979"
   r="286.96799"
   id="circle3"
   sodipodi:cx="310"
   sodipodi:cy="372.979"
   sodipodi:rx="286.96799"
   sodipodi:ry="286.96799"
   transform="matrix(1.0032879,0,0,1.0032879,-23.019249,-86.205322)" /><path
   style="fill:#ffffff;stroke:#000000;stroke-width:0.17697999;stroke-linecap:round;stroke-linejoin:round"
   d="M 131.03159,510.14499 C 240.03481,585.7016 387.476,572.46623 481.28341,478.70998 575.09083,384.95272 588.40145,237.51555 512.90103,128.47321 l -44.16975,44.24098 H 328.83281 L 443.98217,59.413891 C 335.15453,-16.274148 187.77555,-3.3297279 93.808611,90.171688 -0.15532104,183.6721 -13.834148,330.98486 61.312115,440.18773 L 105.4929,396.21965 H 245.50775 L 131.03159,510.14499 z"
   id="path5"
   inkscape:connector-curvature="0" />
<rect
   id="rect12"
   height="266.448"
   width="384.875"
   style="fill:none"
   y="243.51414"
   x="-362.06827" /><path
   inkscape:connector-curvature="0"
   id="path18-9"
   d="m 304.00822,277.42573 c -0.41079,-5.86471 -0.61795,-11.62545 -0.61795,-17.28221 0,-2.82838 0.0667,-5.65536 0.20539,-8.48374 0.41081,-11.09996 1.57647,-21.8894 3.50229,-32.36411 v -1.09876 l 0.8251,-1.41489 1.44305,-10.84143 1.0305,-1.56945 2.06099,-8.79848 0.82334,-0.94419 c 2.061,-7.54095 6.52355,-16.02469 13.3947,-25.45123 l 5.97583,-6.91289 11.53911,-8.95584 c 12.22551,-7.54094 28.09197,-12.93496 47.60117,-16.18205 6.18121,-0.83742 12.56958,-1.25753 19.16336,-1.25753 h 1.64851 c 10.30147,0.21076 21.08561,1.52027 32.35265,3.92714 4.66802,0.42011 12.15702,2.77639 22.46024,7.07025 10.57711,5.0273 20.1939,11.8882 28.85049,20.58129 l 6.59378,7.69832 5.35783,8.64111 2.26635,6.28482 0.61972,0.4721 v 1.56945 c 1.37113,2.20032 2.19614,3.92854 2.47176,5.18467 l 0.82513,0.78683 3.5023,13.98173 0.61972,0.31474 -0.41082,2.04295 0.82338,1.25753 2.06095,16.81011 0.82512,1.57086 -0.61797,0.15596 1.44135,9.89864 -0.41081,0.31473 c 0.54775,1.04817 0.54775,1.67623 0,1.88559 l 0.61797,1.57085 -0.41082,0.4721 1.03041,10.68406 -0.41244,0.31333 0.6196,4.55661 -0.20541,0.31473 v 6.28482 c -0.13868,3.87656 -0.54937,8.53714 -1.23581,13.98174 l -1.03054,5.81413 0.41081,0.31473 -1.03053,1.57086 c -0.41082,3.87655 -1.57991,8.48374 -3.5023,13.82577 l -1.23756,2.98434 -0.20541,1.72822 -5.35796,11.62546 -1.03041,0.62806 c 0,1.04817 -1.78719,4.24187 -5.35796,9.5839 l -9.89066,10.84002 c -10.85435,9.53192 -22.87281,16.49539 -36.06211,20.89462 -8.65472,2.61903 -17.37966,4.34585 -26.16969,5.18467 l -15.86647,0.78683 -3.70945,-0.15737 c -31.32212,-0.62806 -56.60003,-8.37836 -75.83188,-23.2523 -9.47811,-8.06363 -16.62312,-17.43818 -21.42976,-28.12224 -5.49657,-10.89342 -8.86193,-22.3615 -10.09782,-34.40707 l -0.83036,-6.91289 z m 102.62133,47.44742 c 8.51603,0.42011 13.80552,0.31473 15.86647,-0.31474 l 0.20541,0.31474 11.33363,-1.88559 c 9.06741,-2.30289 16.00178,-7.27961 20.81186,-14.92453 3.70946,-7.64492 6.45684,-16.75813 8.24229,-27.33822 l 1.03041,-35.50582 -0.61972,-16.65556 -2.06095,-12.41088 -0.82338,-0.62806 -2.67891,-8.79847 -0.82513,-0.31474 c -2.06095,-6.28482 -5.97581,-12.09614 -11.74445,-17.43958 -4.39939,-2.723 -7.90169,-4.50181 -10.50864,-5.34063 l -11.95336,-2.19891 -12.56958,-0.4707 c -5.63358,-0.10257 -11.88501,0.78543 -18.75266,2.67102 -6.3199,2.3043 -11.60927,6.44079 -15.86647,12.41088 -3.02301,5.55279 -5.76865,12.51626 -8.24216,20.89602 l 0.41257,0.94139 c -0.82513,0.5255 -1.30791,2.25372 -1.4431,5.18467 -1.92588,12.25492 -2.13117,30.21858 -0.61797,53.8882 l 3.29688,17.12484 4.32743,12.09756 c 3.1582,6.28482 7.48737,10.84002 12.98214,13.6684 4.94877,2.41249 11.67773,4.08591 20.19739,5.02871 z"
   style="fill:#ffffff" /><path
   inkscape:connector-curvature="0"
   id="path16-0"
   d="m 243.418,213.34702 0,216.97037 -172.074371,0 0.620029,-153.16504 -2.469516,0 -1.849438,-63.80666 175.773296,0 z"
   style="fill:#ffffff"
   sodipodi:nodetypes="cccccccc" /><g
   id="g3020"
   transform="matrix(1.4050582,0,0,1.4050582,-113.45555,-117.35672)"><g
     id="g3074"
     transform="translate(367.83482,-14.408605)"><path
       style="fill:#000000"
       d="m -185.75874,222.26668 v 161.06154 h -32.11171 l 0.11573,-113.69755 h -0.46086 c -0.23042,0.95112 -2.9926,3.03478 -8.28752,6.24997 l -10.01327,5.0439 -8.97783,3.28873 c -3.60741,0.73149 -5.56359,1.2796 -5.86951,1.64436 v -33.98845 l 7.13636,-3.1799 c 11.89199,-7.23638 20.44719,-16.04359 25.66661,-26.42359 h 32.802 z"
       id="path14"
       inkscape:connector-curvature="0" /><path
       style="fill:#000000"
       d="m -91.839673,221.93819 c 6.291147,1.24431 12.276372,3.65643 17.955661,7.23638 l 7.826666,6.35881 c 3.452487,3.94667 5.677333,6.72553 6.675515,8.33263 l 3.568188,6.79808 c 1.994423,5.55575 3.068104,11.22032 3.223028,16.99472 l -0.575568,8.33263 -1.957156,6.14015 c -2.226815,5.26255 -5.679289,10.59865 -10.357447,16.00633 l 0.575568,1.4257 5.524365,5.81166 3.568188,5.15274 3.223042,7.67469 c 1.763986,5.3361 2.646468,10.56238 2.646468,15.67883 0,10.37902 -3.645642,20.2462 -10.933015,29.60154 -11.049708,12.64601 -25.36069,19.26172 -42.93099,19.84514 -6.37057,0 -11.6243,-0.36477 -15.76807,-1.09625 -5.37237,-1.38746 -9.17001,-2.55725 -11.39485,-3.50837 l -6.90594,-3.28873 -5.86951,-4.05747 -5.29394,-4.4948 -5.40965,-6.68728 c -3.14655,-4.89681 -5.37237,-9.53967 -6.67551,-13.92465 l -0.11476,-0.98642 30.27025,-7.89433 c 1.4561,5.48122 5.10175,9.64852 10.934,12.49797 3.60544,1.38942 8.93763,2.15718 15.99849,2.30328 l 5.409646,-0.54911 4.373201,-1.31588 3.337765,-1.86302 c 2.302301,-1.46101 4.374193,-3.61722 6.215648,-6.4696 0.919735,-1.82578 1.611018,-4.31144 2.070899,-7.45603 0.152954,-2.55725 0,-4.01924 -0.460859,-4.38596 0.152967,-1.16782 -0.384369,-2.96024 -1.611032,-5.37238 l -2.877883,-3.83783 c -2.071878,-1.97285 -3.876066,-3.32501 -5.409629,-4.05649 -1.918924,-1.02271 -4.488915,-1.86303 -7.711956,-2.52195 l -12.54503,-0.32849 v -29.71036 c 1.68751,0.14611 5.02528,-0.0726 10.01328,-0.65892 l 0.23043,0.22061 c 9.13078,-1.02368 14.88459,-5.77439 17.26436,-14.25411 l -0.229445,-4.93309 0.229445,-0.76776 -0.460846,-1.53356 -2.186615,-4.05748 c -2.148355,-2.55725 -4.10551,-4.2379 -5.86951,-5.0439 -0.307892,-0.21964 -2.917107,-0.87758 -7.826669,-1.97383 l -7.25109,0.21965 v -0.21965 l -7.13638,1.09625 -5.06448,2.08266 -2.07188,1.53455 -2.30232,3.17989 -1.72673,4.05748 -29.92509,-8.55326 1.95716,-4.93309 0.69029,-0.65794 c -0.15493,-0.36477 0.72855,-2.1925 2.64746,-5.48221 l 3.22304,-4.93407 4.60364,-5.0439 c 1.68751,-0.87758 2.53272,-1.53454 2.53272,-1.97382 l 2.41704,-1.64438 c 5.98521,-4.23788 12.96666,-6.94319 20.94727,-8.11298 3.98885,-0.5844 8.78466,-0.87758 14.38748,-0.87758 4.0653,9.8e-4 8.170828,0.29416 12.313606,0.87856 z"
       id="path16"
       inkscape:connector-curvature="0" /><path
       style="fill:#000000"
       d="m -35.558627,319.95592 c -0.229445,-4.09278 -0.345146,-8.113 -0.345146,-12.06065 0,-1.97382 0.0372,-3.94667 0.114764,-5.9205 0.229445,-7.74626 0.880526,-15.27584 1.956178,-22.58576 v -0.76678 l 0.460845,-0.9874 0.806006,-7.56585 0.575582,-1.09527 1.15115,-6.14013 0.459882,-0.65892 c 1.15115,-5.26256 3.643686,-11.18306 7.48152,-17.76152 l 3.337751,-4.82425 6.445093,-6.24996 c 6.828483,-5.26256 15.6905988,-9.02685 26.587339,-11.29288 3.452487,-0.5844 7.020675,-0.87758 10.703585,-0.87758 h 0.920727 c 5.753796,0.14707 11.777267,1.06094 18.070369,2.74061 2.607259,0.29318 6.790238,1.93755 12.545026,4.93407 5.907756,3.50838 11.279153,8.29636 16.114192,14.36296 l 3.68291,5.37238 2.992606,6.03032 1.265886,4.38595 0.346124,0.32946 v 1.09527 c 0.765803,1.53552 1.226662,2.74158 1.380608,3.61818 l 0.460846,0.5491 1.956178,9.75736 0.346137,0.21965 -0.229445,1.4257 0.459868,0.87758 1.151151,11.73118 0.460859,1.09625 -0.345159,0.10884 0.805027,6.90791 -0.229445,0.21963 c 0.305936,0.73149 0.305936,1.16979 0,1.31589 l 0.345146,1.09624 -0.229445,0.32946 0.575582,7.45603 -0.230423,0.21866 0.346123,3.17989 -0.114763,0.21965 v 4.38594 c -0.07743,2.70531 -0.306914,5.95777 -0.690305,9.75736 l -0.575568,4.05748 0.229445,0.21964 -0.575582,1.09625 c -0.229445,2.70531 -0.882483,5.9205 -1.956178,9.64851 l -0.691283,2.08267 -0.114763,1.20606 -2.992605,8.11299 -0.575569,0.4383 c 0,0.73147 -0.998196,2.96025 -2.992619,6.68826 l -5.524351,7.56486 c -6.06268,6.65199 -12.775463,11.51155 -20.142261,14.58162 -4.834061,1.82772 -9.707345,3.03281 -14.616904,3.61819 l -8.86213,0.5491 -2.071878,-0.1098 c -17.4948002,-0.4383 -31.6135909,-5.84696 -42.355407,-16.22696 -5.293942,-5.62732 -9.28473,-12.16948 -11.969458,-19.62551 -3.07006,-7.60212 -4.949761,-15.60529 -5.640065,-24.01146 l -0.463795,-4.82426 z m 57.318449,33.11186 c 4.756605,0.29318 7.710965,0.21963 8.862129,-0.21965 l 0.114764,0.21965 6.330356,-1.31589 c 5.064498,-1.6071 8.937629,-5.08019 11.624312,-10.41529 2.071878,-5.33513 3.60642,-11.69491 4.603624,-19.07838 l 0.575582,-24.77825 -0.346123,-11.62332 -1.151164,-8.6611 -0.459868,-0.43831 -1.49631,-6.14013 -0.460846,-0.21965 c -1.15115,-4.38596 -3.337764,-8.44148 -6.559815,-12.17047 -2.457239,-1.90028 -4.413416,-3.14165 -5.86951,-3.72702 l -6.676508,-1.53455 -7.02066,-0.32848 c -3.146552,-0.0717 -6.638262,0.54812 -10.474126,1.864 -3.5299427,1.60809 -6.4843166,4.4948 -8.8621301,8.66111 -1.6884873,3.8751 -3.2220503,8.73465 -4.60362378,14.5826 l 0.23042298,0.65696 c -0.46085973,0.36672 -0.73050628,1.57279 -0.8060051,3.61819 -1.0756517,8.55227 -1.1903741,21.08847 -0.3451454,37.60665 l 1.84145502,11.95082 2.41702338,8.44245 c 1.7639998,4.38596 4.1820013,7.56487 7.251098,9.5387 2.76316,1.68358 6.521569,2.85142 11.281109,3.50936 z"
       id="path18-4"
       inkscape:connector-curvature="0" /></g></g></svg>