<?xml version="1.0" encoding="UTF-8" standalone="no"?>
<!-- Generator: Adobe Illustrator 16.0.2, SVG Export Plug-In . SVG Version: 6.00 Build 0)  -->

<svg
   xmlns:dc="http://purl.org/dc/elements/1.1/"
   xmlns:cc="http://creativecommons.org/ns#"
   xmlns:rdf="http://www.w3.org/1999/02/22-rdf-syntax-ns#"
   xmlns:svg="http://www.w3.org/2000/svg"
   xmlns="http://www.w3.org/2000/svg"
   xmlns:sodipodi="http://sodipodi.sourceforge.net/DTD/sodipodi-0.dtd"
   xmlns:inkscape="http://www.inkscape.org/namespaces/inkscape"
   version="1.1"
   id="Ebene_1"
   x="0px"
   y="0px"
   width="576"
   height="576"
   viewBox="0 0 576 576"
   xml:space="preserve"
   inkscape:version="0.48.1 "
   sodipodi:docname="B33_110.svg"
   inkscape:export-filename="C:\Documents and Settings\bertrand.bouteilles\Bureau\Panneaux\A - Route\3_interdiction\B33_110.png"
   inkscape:export-xdpi="150"
   inkscape:export-ydpi="150"><metadata
   id="metadata43"><rdf:RDF><cc:Work
       rdf:about=""><dc:format>image/svg+xml</dc:format><dc:type
         rdf:resource="http://purl.org/dc/dcmitype/StillImage" /><dc:title></dc:title></cc:Work></rdf:RDF></metadata><defs
   id="defs41">
	
	
	

	
	

	
	
</defs><sodipodi:namedview
   pagecolor="#ffffff"
   bordercolor="#666666"
   borderopacity="1"
   objecttolerance="10"
   gridtolerance="10"
   guidetolerance="10"
   inkscape:pageopacity="0"
   inkscape:pageshadow="2"
   inkscape:window-width="1920"
   inkscape:window-height="1174"
   id="namedview39"
   showgrid="false"
   fit-margin-top="0"
   fit-margin-left="0"
   fit-margin-right="0"
   fit-margin-bottom="0"
   inkscape:zoom="0.79584614"
   inkscape:cx="463.97204"
   inkscape:cy="347.32259"
   inkscape:window-x="1276"
   inkscape:window-y="-4"
   inkscape:window-maximized="1"
   inkscape:current-layer="Ebene_1" />










<circle
   d="M 596.96799,372.979 C 596.96799,531.46705 468.48804,659.94699 310,659.94699 151.51196,659.94699 23.032013,531.46705 23.032013,372.979 23.032013,214.49096 151.51196,86.011017 310,86.011017 c 158.48804,0 286.96799,128.479943 286.96799,286.967983 z"
   style="stroke:#000000;stroke-width:0.17640001;stroke-linecap:round;stroke-linejoin:round"
   cx="310"
   cy="372.979"
   r="286.96799"
   id="circle3"
   sodipodi:cx="310"
   sodipodi:cy="372.979"
   sodipodi:rx="286.96799"
   sodipodi:ry="286.96799"
   transform="matrix(1.0032879,0,0,1.0032879,-23.019249,-86.205322)" /><path
   style="fill:#ffffff;stroke:#000000;stroke-width:0.17697999;stroke-linecap:round;stroke-linejoin:round"
   d="M 131.03159,510.14499 C 240.03481,585.7016 387.476,572.46623 481.28341,478.70998 575.09083,384.95272 588.40145,237.51555 512.90103,128.47321 l -44.16975,44.24098 H 328.83281 L 443.98217,59.413891 C 335.15453,-16.274148 187.77555,-3.3297279 93.808611,90.171688 -0.15532104,183.6721 -13.834148,330.98486 61.312115,440.18773 L 105.4929,396.21965 H 245.50775 L 131.03159,510.14499 z"
   id="path5"
   inkscape:connector-curvature="0" />
<rect
   id="rect12"
   height="266.448"
   width="384.875"
   style="fill:none"
   y="243.51414"
   x="-362.06827" /><path
   inkscape:connector-curvature="0"
   id="path18-9"
   d="m 304.00822,277.42573 c -0.41079,-5.86471 -0.61795,-11.62545 -0.61795,-17.28221 0,-2.82838 0.0667,-5.65536 0.20539,-8.48374 0.41081,-11.09996 1.57647,-21.8894 3.50229,-32.36411 v -1.09876 l 0.8251,-1.41489 1.44305,-10.84143 1.0305,-1.56945 2.06099,-8.79848 0.82334,-0.94419 c 2.061,-7.54095 6.52355,-16.02469 13.3947,-25.45123 l 5.97583,-6.91289 11.53911,-8.95584 c 12.22551,-7.54094 28.09197,-12.93496 47.60117,-16.18205 6.18121,-0.83742 12.56958,-1.25753 19.16336,-1.25753 h 1.64851 c 10.30147,0.21076 21.08561,1.52027 32.35265,3.92714 4.66802,0.42011 12.15702,2.77639 22.46024,7.07025 10.57711,5.0273 20.1939,11.8882 28.85049,20.58129 l 6.59378,7.69832 5.35783,8.64111 2.26635,6.28482 0.61972,0.4721 v 1.56945 c 1.37113,2.20032 2.19614,3.92854 2.47176,5.18467 l 0.82513,0.78683 3.5023,13.98173 0.61972,0.31474 -0.41082,2.04295 0.82338,1.25753 2.06095,16.81011 0.82512,1.57086 -0.61797,0.15596 1.44135,9.89864 -0.41081,0.31473 c 0.54775,1.04817 0.54775,1.67623 0,1.88559 l 0.61797,1.57085 -0.41082,0.4721 1.03041,10.68406 -0.41244,0.31333 0.6196,4.55661 -0.20541,0.31473 v 6.28482 c -0.13868,3.87656 -0.54937,8.53714 -1.23581,13.98174 l -1.03054,5.81413 0.41081,0.31473 -1.03053,1.57086 c -0.41082,3.87655 -1.57991,8.48374 -3.5023,13.82577 l -1.23756,2.98434 -0.20541,1.72822 -5.35796,11.62546 -1.03041,0.62806 c 0,1.04817 -1.78719,4.24187 -5.35796,9.5839 l -9.89066,10.84002 c -10.85435,9.53192 -22.87281,16.49539 -36.06211,20.89462 -8.65472,2.61903 -17.37966,4.34585 -26.16969,5.18467 l -15.86647,0.78683 -3.70945,-0.15737 c -31.32212,-0.62806 -56.60003,-8.37836 -75.83188,-23.2523 -9.47811,-8.06363 -16.62312,-17.43818 -21.42976,-28.12224 -5.49657,-10.89342 -8.86193,-22.3615 -10.09782,-34.40707 l -0.83036,-6.91289 z m 102.62133,47.44742 c 8.51603,0.42011 13.80552,0.31473 15.86647,-0.31474 l 0.20541,0.31474 11.33363,-1.88559 c 9.06741,-2.30289 16.00178,-7.27961 20.81186,-14.92453 3.70946,-7.64492 6.45684,-16.75813 8.24229,-27.33822 l 1.03041,-35.50582 -0.61972,-16.65556 -2.06095,-12.41088 -0.82338,-0.62806 -2.67891,-8.79847 -0.82513,-0.31474 c -2.06095,-6.28482 -5.97581,-12.09614 -11.74445,-17.43958 -4.39939,-2.723 -7.90169,-4.50181 -10.50864,-5.34063 l -11.95336,-2.19891 -12.56958,-0.4707 c -5.63358,-0.10257 -11.88501,0.78543 -18.75266,2.67102 -6.3199,2.3043 -11.60927,6.44079 -15.86647,12.41088 -3.02301,5.55279 -5.76865,12.51626 -8.24216,20.89602 l 0.41257,0.94139 c -0.82513,0.5255 -1.30791,2.25372 -1.4431,5.18467 -1.92588,12.25492 -2.13117,30.21858 -0.61797,53.8882 l 3.29688,17.12484 4.32743,12.09756 c 3.1582,6.28482 7.48737,10.84002 12.98214,13.6684 4.94877,2.41249 11.67773,4.08591 20.19739,5.02871 z"
   style="fill:#ffffff" /><path
   inkscape:connector-curvature="0"
   id="path16-0"
   d="m 243.418,213.34702 0,216.97037 -172.074371,0 0.620029,-153.16504 -2.469516,0 -1.849438,-63.80666 175.773296,0 z"
   style="fill:#ffffff"
   sodipodi:nodetypes="cccccccc" /><g
   id="g3020"
   transform="matrix(1.4050582,0,0,1.4050582,-113.45555,-117.35672)"><path
     style="fill:#000000"
     d="m 190.768,208.271 v 164.258 h -32.749 l 0.118,-115.954 h -0.47 c -0.235,0.97 -3.052,3.095 -8.452,6.374 l -10.212,5.144 -9.156,3.354 c -3.679,0.746 -5.674,1.305 -5.986,1.677 v -34.663 l 7.278,-3.243 c 12.128,-7.38 20.853,-16.362 26.176,-26.948 h 33.453 z"
     id="path14-1"
     inkscape:connector-curvature="0" /><path
     style="fill:#000000"
     d="m 291.74,208.271 v 164.258 h -32.75 l 0.118,-115.954 h -0.47 c -0.235,0.97 -3.052,3.095 -8.452,6.374 l -10.212,5.144 -9.156,3.354 c -3.679,0.746 -5.674,1.305 -5.986,1.677 v -34.663 l 7.278,-3.243 c 12.128,-7.38 20.853,-16.362 26.176,-26.948 h 33.454 z"
     id="path16"
     inkscape:connector-curvature="0" /><path
     style="fill:#000000"
     d="m 327.413,307.899 c -0.234,-4.174 -0.352,-8.274 -0.352,-12.3 0,-2.013 0.038,-4.025 0.117,-6.038 0.234,-7.9 0.898,-15.579 1.995,-23.034 v -0.782 l 0.47,-1.007 0.822,-7.716 0.587,-1.117 1.174,-6.262 0.469,-0.672 c 1.174,-5.367 3.716,-11.405 7.63,-18.114 l 3.404,-4.92 6.573,-6.374 c 6.964,-5.367 16.002,-9.206 27.115,-11.517 3.521,-0.596 7.16,-0.895 10.916,-0.895 h 0.939 c 5.868,0.15 12.011,1.082 18.429,2.795 2.659,0.299 6.925,1.976 12.794,5.032 6.025,3.578 11.503,8.461 16.434,14.648 l 3.756,5.479 3.052,6.15 1.291,4.473 0.353,0.336 v 1.117 c 0.781,1.566 1.251,2.796 1.408,3.69 l 0.47,0.56 1.995,9.951 0.353,0.224 -0.234,1.454 0.469,0.895 1.174,11.964 0.47,1.118 -0.352,0.111 0.821,7.045 -0.234,0.224 c 0.312,0.746 0.312,1.193 0,1.342 l 0.352,1.118 -0.234,0.336 0.587,7.604 -0.235,0.223 0.353,3.243 -0.117,0.224 v 4.473 c -0.079,2.759 -0.313,6.076 -0.704,9.951 l -0.587,4.138 0.234,0.224 -0.587,1.118 c -0.234,2.759 -0.9,6.038 -1.995,9.84 l -0.705,2.124 -0.117,1.23 -3.052,8.274 -0.587,0.447 c 0,0.746 -1.018,3.019 -3.052,6.821 l -5.634,7.715 c -6.183,6.784 -13.029,11.74 -20.542,14.871 -4.93,1.864 -9.9,3.093 -14.907,3.69 l -9.038,0.56 -2.113,-0.112 c -17.842,-0.447 -32.241,-5.963 -43.196,-16.549 -5.399,-5.739 -9.469,-12.411 -12.207,-20.015 -3.131,-7.753 -5.048,-15.915 -5.752,-24.488 l -0.473,-4.92 z m 58.456,33.769 c 4.851,0.299 7.864,0.224 9.038,-0.224 l 0.117,0.224 6.456,-1.342 c 5.165,-1.639 9.115,-5.181 11.855,-10.622 2.113,-5.441 3.678,-11.927 4.695,-19.457 l 0.587,-25.27 -0.353,-11.854 -1.174,-8.833 -0.469,-0.447 -1.526,-6.262 -0.47,-0.224 c -1.174,-4.473 -3.404,-8.609 -6.69,-12.412 -2.506,-1.938 -4.501,-3.204 -5.986,-3.801 l -6.809,-1.565 -7.16,-0.335 c -3.209,-0.073 -6.77,0.559 -10.682,1.901 -3.6,1.64 -6.613,4.584 -9.038,8.833 -1.722,3.952 -3.286,8.908 -4.695,14.872 l 0.235,0.67 c -0.47,0.374 -0.745,1.604 -0.822,3.69 -1.097,8.722 -1.214,21.507 -0.352,38.353 l 1.878,12.188 2.465,8.61 c 1.799,4.473 4.265,7.715 7.395,9.728 2.819,1.717 6.652,2.908 11.505,3.579 z"
     id="path18"
     inkscape:connector-curvature="0" /></g></svg>