<?xml version="1.0" encoding="UTF-8" standalone="no"?>
<!-- Generator: Adobe Illustrator 13.0.0, SVG Export Plug-In  -->

<svg
   xmlns:dc="http://purl.org/dc/elements/1.1/"
   xmlns:cc="http://creativecommons.org/ns#"
   xmlns:rdf="http://www.w3.org/1999/02/22-rdf-syntax-ns#"
   xmlns:svg="http://www.w3.org/2000/svg"
   xmlns="http://www.w3.org/2000/svg"
   xmlns:sodipodi="http://sodipodi.sourceforge.net/DTD/sodipodi-0.dtd"
   xmlns:inkscape="http://www.inkscape.org/namespaces/inkscape"
   version="1.1"
   x="0px"
   y="0px"
   width="576px"
   height="576px"
   viewBox="-0.944 -0.944 576 576"
   enable-background="new -0.944 -0.944 576 576"
   xml:space="preserve"
   id="svg2"
   inkscape:version="0.48.1 "
   sodipodi:docname="B34.svg"
   inkscape:export-filename="C:\Documents and Settings\bertrand.bouteilles\Bureau\Panneaux\A - Route\3_interdiction\B34.png"
   inkscape:export-xdpi="150"
   inkscape:export-ydpi="150"><metadata
   id="metadata28"><rdf:RDF><cc:Work
       rdf:about=""><dc:format>image/svg+xml</dc:format><dc:type
         rdf:resource="http://purl.org/dc/dcmitype/StillImage" /><dc:title></dc:title></cc:Work></rdf:RDF></metadata><sodipodi:namedview
   pagecolor="#ffffff"
   bordercolor="#666666"
   borderopacity="1"
   objecttolerance="10"
   gridtolerance="10"
   guidetolerance="10"
   inkscape:pageopacity="0"
   inkscape:pageshadow="2"
   inkscape:window-width="1920"
   inkscape:window-height="1174"
   id="namedview26"
   showgrid="false"
   inkscape:zoom="0.50868056"
   inkscape:cx="-111.07167"
   inkscape:cy="288"
   inkscape:window-x="1276"
   inkscape:window-y="-4"
   inkscape:window-maximized="1"
   inkscape:current-layer="svg2" />
<defs
   id="defs4">
</defs>
<circle
   cx="287.056"
   cy="287.056"
   r="286.96799"
   id="circle6"
   sodipodi:cx="287.056"
   sodipodi:cy="287.056"
   sodipodi:rx="286.96799"
   sodipodi:ry="286.96799"
   transform="matrix(1.0032879,0,0,1.0032879,6.1584923e-7,-1.8876253)"
   style="stroke:#000000;stroke-width:0.17640001;stroke-linecap:round;stroke-linejoin:round" />
<path
   d="m 131.6996,511.60215 c 109.00321,75.5556 256.4464,62.32223 350.25282,-31.43602 93.80742,-93.75726 107.11704,-241.19443 31.61661,-350.23677 l -71.50834,71.6197 -15.40047,15.41151 H 286.96743 l 58.42145,-58.42346 99.2633,-97.668074 C 335.82554,-14.819003 188.44556,-1.8735792 94.478619,91.626834 0.51167745,185.12825 -13.166147,332.44101 61.980117,441.64388 L 127.09952,376.8345 h 139.80817 l -37.36645,37.39454 -97.84164,97.37311 z"
   id="path8"
   inkscape:connector-curvature="0"
   style="fill:#ffffff;stroke:#000000;stroke-width:0.17697999;stroke-linecap:round;stroke-linejoin:round" />
<path
   d="m 336.16666,248.28924 c 20.7791,0 41.55819,0 62.33729,0 3.10016,0 6.19932,0 9.29847,0 2.49919,0 7.35009,6.16219 9.15601,7.77347 3.25165,2.90352 4.92213,3.94694 6.07892,8.00022 1.57215,5.51507 3.14631,11.03015 4.71946,16.54422 0.83875,2.93963 6.82236,6.89058 9.02157,9.07474 2.06176,2.0467 0.86584,9.39579 0.9451,12.12473 0.14246,4.88902 0.28493,9.77804 0.4274,14.66707 0.0592,2.02262 -8.83797,7.97513 -10.54958,9.49311 -1.54004,1.36647 -0.18159,10.99603 -0.18159,13.03471 0,5.21008 2.21727,9.52522 -3.4794,9.52522 -3.63491,0 -9.94158,2.0748 -9.94158,-2.27145 0,-6.08092 0,-12.16185 0,-18.24278 0,-2.90051 -14.95903,-1.32635 -17.60771,-1.32635 -13.39289,0 -26.78578,0 -40.17867,0 -8.28414,0 -16.56829,0 -24.85244,0 -2.08584,0 3.13126,21.84058 -2.09587,21.84058 -1.68552,0 -12.26921,0.72036 -12.26921,-0.611 0,-5.93847 0,-11.87793 0,-17.81639 0,-4.69138 -2.39284,-5.88729 -5.74081,-9.35064 -3.89175,-4.0262 -3.46134,-4.86996 -3.46134,-10.55058 0,-5.97257 0,-11.94515 0,-17.91872 0,-4.11148 5.5231,-6.95479 8.41156,-9.5503 5.796,-5.20907 2.08784,-17.54751 7.48654,-22.64922 4.15863,-3.93089 8.31826,-7.86076 12.47588,-11.79064"
   id="path10"
   inkscape:connector-curvature="0"
   style="stroke:#000000;stroke-width:0.17697999;stroke-linecap:round;stroke-linejoin:round" />
<path
   d="m 176.74622,248.28924 c 12.38158,0 24.76315,0 37.14373,0 8.02831,0 16.05661,0 24.08593,0 2.03567,0 9.46602,-1.23706 11.08432,0.20768 4.03523,3.6028 10.71411,7.55776 13.57048,12.11169 3.24362,5.17195 3.98204,13.95674 5.66757,19.8661 1.02135,3.57873 9.57136,6.44914 9.67571,10.04893 0.22072,7.58787 0.44144,15.17473 0.66317,22.7626 0.16655,5.68664 -5.40772,8.20389 -9.5212,11.85184 -3.40215,3.01789 -1.11666,15.08644 -1.11666,19.46078 0,6.86549 -6.97285,3.92887 -12.95947,3.92887 -0.95814,0 -0.46051,-17.43614 -0.46051,-19.56913 0,-3.62087 -2.36575,-2.27144 -5.72978,-2.27144 -7.52466,0 -15.04831,0 -22.57297,0 -16.26129,0 -32.52359,0 -48.78488,0 -6.12407,0 -5.72977,-0.7926 -5.72977,5.66255 0,4.63519 0,9.27139 0,13.90658 0,3.46937 -1.61329,2.27144 -4.99337,2.27144 -0.93908,0 -9.19212,0.32206 -9.19212,-0.27791 0,-3.90981 0,-7.82163 0,-11.73145 0,-10.06498 -0.90898,-10.77029 -8.04135,-18.14847 -3.60783,-3.73223 -1.16181,-16.13889 -1.16181,-21.11118 0,-8.6955 2.96973,-9.63859 9.62655,-15.6212 3.48943,-3.13627 4.25093,-15.39746 5.44885,-20.02061 1.22903,-4.74154 9.73691,-9.96265 13.29758,-13.32767"
   id="path12"
   inkscape:connector-curvature="0"
   style="stroke:#000000;stroke-width:0.17697999;stroke-linecap:round;stroke-linejoin:round" />
<circle
   cx="416.21899"
   cy="305.77899"
   r="6.3990002"
   id="circle14"
   sodipodi:cx="416.21899"
   sodipodi:cy="305.77899"
   sodipodi:rx="6.3990002"
   sodipodi:ry="6.3990002"
   transform="matrix(1.0032879,0,0,1.0032879,6.1584923e-7,-1.8876253)"
   style="fill:#ffffff;stroke:#ffffff;stroke-width:0.17640001;stroke-linecap:round;stroke-linejoin:round" />
<polygon
   points="409.969,257.729 414.936,282.846 327.04,282.846 333.154,258.287 "
   id="polygon16"
   transform="matrix(1.0032879,0,0,1.0032879,6.1584923e-7,-1.8876253)"
   style="fill:#ffffff;stroke:#ffffff;stroke-width:0.17640001;stroke-linecap:round;stroke-linejoin:round" />
<circle
   cx="326.99399"
   cy="305.77899"
   r="6.4790001"
   id="circle18"
   sodipodi:cx="326.99399"
   sodipodi:cy="305.77899"
   sodipodi:rx="6.4790001"
   sodipodi:ry="6.4790001"
   transform="matrix(1.0032879,0,0,1.0032879,6.1584923e-7,-1.8876253)"
   style="fill:#ffffff;stroke:#ffffff;stroke-width:0.17640001;stroke-linecap:round;stroke-linejoin:round" />
<circle
   cx="168.097"
   cy="305.77899"
   r="6.4790001"
   id="circle20"
   sodipodi:cx="168.097"
   sodipodi:cy="305.77899"
   sodipodi:rx="6.4790001"
   sodipodi:ry="6.4790001"
   transform="matrix(1.0032879,0,0,1.0032879,6.1584923e-7,-1.8876253)"
   style="fill:#ffffff;stroke:#ffffff;stroke-width:0.17640001;stroke-linecap:round;stroke-linejoin:round" />
<polygon
   points="251.071,257.729 256.039,282.846 168.143,282.846 174.257,258.287 "
   id="polygon22"
   transform="matrix(1.0032879,0,0,1.0032879,6.1584923e-7,-1.8876253)"
   style="fill:#ffffff;stroke:#ffffff;stroke-width:0.17640001;stroke-linecap:round;stroke-linejoin:round" />
<circle
   cx="257.323"
   cy="305.77899"
   r="6.3990002"
   id="circle24"
   sodipodi:cx="257.323"
   sodipodi:cy="305.77899"
   sodipodi:rx="6.3990002"
   sodipodi:ry="6.3990002"
   transform="matrix(1.0032879,0,0,1.0032879,6.1584923e-7,-1.8876253)"
   style="fill:#ffffff;stroke:#ffffff;stroke-width:0.17640001;stroke-linecap:round;stroke-linejoin:round" />
</svg>