<?xml version="1.0" encoding="UTF-8" standalone="no"?>
<!-- Generator: Adobe Illustrator 13.0.0, SVG Export Plug-In  -->

<svg
   xmlns:dc="http://purl.org/dc/elements/1.1/"
   xmlns:cc="http://creativecommons.org/ns#"
   xmlns:rdf="http://www.w3.org/1999/02/22-rdf-syntax-ns#"
   xmlns:svg="http://www.w3.org/2000/svg"
   xmlns="http://www.w3.org/2000/svg"
   xmlns:sodipodi="http://sodipodi.sourceforge.net/DTD/sodipodi-0.dtd"
   xmlns:inkscape="http://www.inkscape.org/namespaces/inkscape"
   version="1.1"
   x="0px"
   y="0px"
   width="576px"
   height="576px"
   viewBox="-0.944 -0.944 576 576"
   enable-background="new -0.944 -0.944 576 576"
   xml:space="preserve"
   id="svg2"
   inkscape:version="0.48.1 "
   sodipodi:docname="B34a.svg"
   inkscape:export-filename="C:\Documents and Settings\bertrand.bouteilles\Bureau\Panneaux\A - Route\3_interdiction\B34a.png"
   inkscape:export-xdpi="150"
   inkscape:export-ydpi="150"><metadata
   id="metadata22"><rdf:RDF><cc:Work
       rdf:about=""><dc:format>image/svg+xml</dc:format><dc:type
         rdf:resource="http://purl.org/dc/dcmitype/StillImage" /><dc:title></dc:title></cc:Work></rdf:RDF></metadata><sodipodi:namedview
   pagecolor="#ffffff"
   bordercolor="#666666"
   borderopacity="1"
   objecttolerance="10"
   gridtolerance="10"
   guidetolerance="10"
   inkscape:pageopacity="0"
   inkscape:pageshadow="2"
   inkscape:window-width="1920"
   inkscape:window-height="1174"
   id="namedview20"
   showgrid="false"
   inkscape:zoom="0.50868056"
   inkscape:cx="-111.07167"
   inkscape:cy="288"
   inkscape:window-x="1276"
   inkscape:window-y="-4"
   inkscape:window-maximized="1"
   inkscape:current-layer="svg2" />
<defs
   id="defs4">
</defs>
<circle
   cx="287.056"
   cy="287.056"
   r="286.96799"
   id="circle6"
   sodipodi:cx="287.056"
   sodipodi:cy="287.056"
   sodipodi:rx="286.96799"
   sodipodi:ry="286.96799"
   transform="matrix(1.0032879,0,0,1.0032879,6.1584923e-7,-1.8876253)"
   style="stroke:#000000;stroke-width:0.17640001;stroke-linecap:round;stroke-linejoin:round" />
<path
   d="m 116.79174,387.09813 140.41014,-0.5498 -27.65964,27.68172 -97.84164,97.3721 c 109.00322,75.5556 256.44641,62.32223 350.25282,-31.43602 93.80742,-93.75726 107.11704,-241.19443 31.61662,-350.23677 l -71.50835,71.6197 -15.40047,15.41151 H 286.96743 l 58.42145,-58.42346 99.2633,-97.668074 C 335.82554,-14.819003 188.44556,-1.8735792 94.478619,91.626834 0.51167745,185.12825 -13.166147,332.44101 61.980117,441.64388 l 54.811623,-54.54575 z"
   id="path8"
   inkscape:connector-curvature="0"
   style="fill:#ffffff;stroke:#000000;stroke-width:0.17697999;stroke-linecap:round;stroke-linejoin:round" />
<path
   d="m 256.22769,154.52295 h -113.9735 c -8.70654,4.89203 -14.24168,16.73685 -13.84237,29.62007 v 137.93604 c 0,2.51524 0.72939,4.92815 2.02765,6.70798 1.29825,1.77682 3.05902,2.7781 4.89404,2.7781 h 1.43369 v 35.22845 c 0,0.50365 0.14648,0.98623 0.40533,1.3414 0.25985,0.35516 0.611,0.55582 0.97921,0.55582 h 12.47388 c 0.3672,0 0.71936,-0.19966 0.97921,-0.55582 0.25885,-0.35517 0.40533,-0.83775 0.40533,-1.3414 v -24.95378 c 0,-2.55437 0.75146,-5.00038 2.08483,-6.78523 1.33437,-1.78385 3.13628,-2.75704 4.99938,-2.69684 l 40.14657,1.29524 40.14857,-1.29524 c 1.8621,-0.0602 3.66501,0.91299 4.99838,2.69684 1.33337,1.78384 2.08584,4.23086 2.08584,6.78523 v 24.95378 c 0,0.50365 0.14547,0.98623 0.40532,1.3414 0.25986,0.35516 0.61201,0.55582 0.97921,0.55582 h 12.47388 c 0.36721,0 0.71936,-0.19966 0.97921,-0.55582 0.25985,-0.35517 0.40533,-0.83775 0.40533,-1.3414 v -35.22845 h 1.4347 c 1.83602,0 3.59478,-1.00028 4.89404,-2.7781 1.29625,-1.77883 2.02664,-4.19274 2.02664,-6.70798 V 184.14302 c 0.3963,-12.88322 -5.13784,-24.72804 -13.84437,-29.62007 z"
   id="path10"
   inkscape:connector-curvature="0"
   style="stroke:#000000;stroke-width:0.17697999;stroke-linecap:round;stroke-linejoin:round" />
<path
   d="m 321.29693,255.20791 c 25.83868,0 51.67736,0 77.51503,0 3.04197,0 10.02786,8.9092 12.28927,10.98901 4.60208,4.23087 4.97731,10.01683 6.64076,16.02251 1.93234,6.97686 2.68882,9.28844 7.70225,14.41624 5.74884,5.87927 5.23315,7.27986 5.46792,15.60213 0.13745,4.82381 2.38381,14.48046 0.53675,18.97318 -1.72264,4.18973 -11.597,6.84243 -11.597,11.57794 0,6.99794 0,13.99587 0,20.9938 0,4.08339 -11.63513,4.73954 -13.93768,2.36676 -2.88144,-2.96973 -0.55582,-15.94726 -0.55582,-19.8049 0,-5.08768 -0.55883,-3.91885 -5.43381,-3.91885 -16.05962,0 -32.12026,0 -48.17989,0 -10.1322,0 -20.26441,0 -30.39661,0 -8.40454,0 -5.43381,3.94393 -5.43381,12.28727 0,2.33967 1.35845,9.46602 -0.55582,11.43648 -1.39357,1.44273 -11.41742,1.4337 -12.87218,0.57187 -5.22814,0 0.43241,-21.81649 -2.17312,-24.59359 -3.12725,-3.33192 -6.2535,-6.66484 -9.38175,-9.99676 -1.48788,-1.5862 -0.27791,-8.76874 -0.27791,-10.82347 0,-5.42177 0,-10.84555 0,-16.26832 0,-4.3021 2.10991,-5.06359 5.38264,-8.09252 7.40928,-6.86048 7.80157,-14.60486 10.27367,-24.43206 1.82799,-7.2598 9.73089,-12.18895 14.98711,-17.30672"
   id="path12"
   inkscape:connector-curvature="0"
   style="stroke:#000000;stroke-width:0.17697999;stroke-linecap:round;stroke-linejoin:round" />
<path
   d="m 416.16884,318.18329 c 0,-9.17908 -13.86544,-9.17908 -13.86544,0 0,9.17908 13.86544,9.18008 13.86544,0"
   id="path14"
   inkscape:connector-curvature="0"
   style="fill:#ffffff;stroke:#000000;stroke-width:0.17697999;stroke-linecap:round;stroke-linejoin:round" />
<path
   d="m 319.57429,318.18329 c 0,-9.29446 -14.04302,-9.29546 -14.04302,0 0,9.29646 14.04302,9.29546 14.04302,0"
   id="path16"
   inkscape:connector-curvature="0"
   style="fill:#ffffff;stroke:#000000;stroke-width:0.17697999;stroke-linecap:round;stroke-linejoin:round" />
<path
   d="m 319.22715,266.62131 c 20.98778,-0.15751 41.97656,-0.31403 62.96434,-0.47154 1.48286,-0.011 20.12596,-0.90798 20.30956,0.0512 1.78083,9.2764 3.56267,18.5538 5.34351,27.8302 -31.74804,0 -63.49508,0 -95.24312,0 2.20823,-9.13594 4.41647,-18.27288 6.62571,-27.40983"
   id="path18"
   inkscape:connector-curvature="0"
   style="fill:#ffffff;stroke:#000000;stroke-width:0.17697999;stroke-linecap:round;stroke-linejoin:round" />
</svg>