<?xml version="1.0" encoding="UTF-8" standalone="no"?>
<!-- Generator: Adobe Illustrator 13.0.0, SVG Export Plug-In  -->

<svg
   xmlns:dc="http://purl.org/dc/elements/1.1/"
   xmlns:cc="http://creativecommons.org/ns#"
   xmlns:rdf="http://www.w3.org/1999/02/22-rdf-syntax-ns#"
   xmlns:svg="http://www.w3.org/2000/svg"
   xmlns="http://www.w3.org/2000/svg"
   xmlns:sodipodi="http://sodipodi.sourceforge.net/DTD/sodipodi-0.dtd"
   xmlns:inkscape="http://www.inkscape.org/namespaces/inkscape"
   version="1.1"
   x="0px"
   y="0px"
   width="576.0127"
   height="576.0127"
   viewBox="-0.944 -0.944 576.0127 576.0127"
   enable-background="new -0.944 -0.944 576 576"
   xml:space="preserve"
   id="svg2"
   inkscape:version="0.48.1 "
   sodipodi:docname="B35.svg"
   inkscape:export-filename="C:\Documents and Settings\bertrand.bouteilles\Bureau\Panneaux\A - Route\3_interdiction\B35.png"
   inkscape:export-xdpi="150"
   inkscape:export-ydpi="150"><metadata
   id="metadata14"><rdf:RDF><cc:Work
       rdf:about=""><dc:format>image/svg+xml</dc:format><dc:type
         rdf:resource="http://purl.org/dc/dcmitype/StillImage" /><dc:title></dc:title></cc:Work></rdf:RDF></metadata><sodipodi:namedview
   pagecolor="#ffffff"
   bordercolor="#666666"
   borderopacity="1"
   objecttolerance="10"
   gridtolerance="10"
   guidetolerance="10"
   inkscape:pageopacity="0"
   inkscape:pageshadow="2"
   inkscape:window-width="1280"
   inkscape:window-height="964"
   id="namedview12"
   showgrid="false"
   fit-margin-top="0"
   fit-margin-left="0"
   fit-margin-right="0"
   fit-margin-bottom="0"
   inkscape:zoom="0.50868056"
   inkscape:cx="-112.01567"
   inkscape:cy="287.06904"
   inkscape:window-x="-4"
   inkscape:window-y="-4"
   inkscape:window-maximized="1"
   inkscape:current-layer="svg2" />
<defs
   id="defs4">
</defs>
<circle
   cx="287.056"
   cy="287.056"
   r="286.96799"
   id="circle6"
   sodipodi:cx="287.056"
   sodipodi:cy="287.056"
   sodipodi:rx="286.96799"
   sodipodi:ry="286.96799"
   transform="matrix(1.0032879,0,0,1.0032879,-0.944,-0.944)"
   style="stroke:#000000;stroke-width:0.17640001;stroke-linecap:round;stroke-linejoin:round" />
<path
   d="m 130.30913,512.23375 c 108.85774,75.77533 256.33605,62.82991 350.32707,-30.75177 93.99102,-93.58269 107.57955,-241.0028 32.27778,-350.18962 l -71.81736,71.02375 -33.568,22.94721 -20.03265,7.91293 -17.32678,1.58218 -66.59424,5.53915 -36.27488,-3.16437 L 442.45608,60.946824 C 333.4027,-14.003799 186.38992,-0.4363363 92.896527,93.20855 -0.59686239,186.85244 -13.928552,333.88629 61.196642,442.82028 l 22.107449,-20.60152 24.280569,-21.54761 23.80502,-13.90156 52.37263,-25.71828 44.2771,-16.68267 39.5165,-6.94978 41.42174,-2.78011 -178.66852,177.595 z"
   id="path8"
   inkscape:connector-curvature="0"
   style="fill:#ffffff;stroke:#000000;stroke-width:0.17697999;stroke-linecap:round;stroke-linejoin:round" />
<path
   d="m 117.44899,198.009 c 6.8966,5.32846 13.7922,10.65692 20.6878,15.98539 6.8966,5.32846 13.79219,10.65692 20.68779,15.98538 5.69767,4.40243 11.87993,7.43938 18.33108,9.99275 6.45114,2.55437 13.17016,4.62516 19.94335,7.09625 15.57203,5.68162 31.47114,9.14096 47.57592,11.76757 16.10578,2.62661 32.41924,4.42048 48.81998,6.77219 5.42077,0.77655 10.90574,0.61301 16.39373,0.13143 5.48798,-0.48158 10.97798,-1.28019 16.41078,-1.7718 10.12618,-0.91701 20.25137,-1.83301 30.37554,-2.74901 10.12619,-0.91701 20.25237,-1.83301 30.37655,-2.75002 5.14787,-0.46552 11.11443,-1.72966 16.85123,-3.58976 5.7368,-1.8601 11.24284,-4.31514 15.4717,-7.16347 4.05428,-2.73095 8.10757,-5.4609 12.16085,-8.19085 4.05328,-2.73095 8.10657,-5.46089 12.15985,-8.19184 2.72092,-1.83301 6.09297,-2.43498 9.58842,-2.62862 3.49345,-0.19363 7.1103,0.0221 10.31481,-0.17256 0.12039,19.64738 0.23978,39.29377 0.36018,58.94115 0.12039,19.64739 0.23978,39.29378 0.36018,58.94116 -2.06477,0 -6.0418,0.54579 -9.89644,0.78859 -3.85463,0.24279 -7.58786,0.1846 -9.16102,-1.02436 -3.80246,-2.92057 -7.60492,-5.84114 -11.40638,-8.76272 -3.80246,-2.92057 -7.60492,-5.84114 -11.40738,-8.76171 -4.20177,-3.22858 -9.49913,-5.9816 -15.06638,-8.06041 -5.56724,-2.07982 -11.40337,-3.48643 -16.68267,-4.01918 -9.93756,-1.00429 -19.87714,-2.00858 -29.81571,-3.01287 -9.93756,-1.00429 -19.87613,-2.00858 -29.8147,-3.01287 -5.9485,-0.60198 -12.01839,-1.58921 -18.08828,-2.21627 -6.06989,-0.62705 -12.1438,-0.89192 -18.0953,-0.0462 -16.8432,2.39385 -33.45062,4.12352 -49.78114,6.87654 -16.33052,2.75302 -32.38212,6.52438 -48.11468,13.0006 -6.32172,2.60253 -13.14207,4.86695 -19.77179,7.49557 -6.62973,2.62761 -13.06983,5.62042 -18.63006,9.67771 -7.21665,5.26726 -14.4343,10.53352 -21.65195,15.79978 -7.21766,5.26726 -14.43531,10.53452 -21.65196,15.80078 0.36018,-29.82173 0.72137,-59.64145 1.08155,-89.46318 0.36419,-29.82273 0.72437,-59.64446 1.08455,-89.46519"
   id="path10"
   inkscape:connector-curvature="0"
   style="stroke:#000000;stroke-width:0.17697999;stroke-linecap:round;stroke-linejoin:round" />
</svg>