<?xml version="1.0" encoding="UTF-8" standalone="no"?>
<!-- Generator: Adobe Illustrator 16.0.2, SVG Export Plug-In . SVG Version: 6.00 Build 0)  -->

<svg
   xmlns:dc="http://purl.org/dc/elements/1.1/"
   xmlns:cc="http://creativecommons.org/ns#"
   xmlns:rdf="http://www.w3.org/1999/02/22-rdf-syntax-ns#"
   xmlns:svg="http://www.w3.org/2000/svg"
   xmlns="http://www.w3.org/2000/svg"
   xmlns:sodipodi="http://sodipodi.sourceforge.net/DTD/sodipodi-0.dtd"
   xmlns:inkscape="http://www.inkscape.org/namespaces/inkscape"
   version="1.1"
   id="Ebene_1"
   x="0px"
   y="0px"
   width="576.01068"
   height="576.01068"
   viewBox="0 0 576.01068 576.01068"
   xml:space="preserve"
   inkscape:version="0.48.1 "
   sodipodi:docname="B39.svg"
   inkscape:export-filename="C:\Documents and Settings\bertrand.bouteilles\Bureau\Panneaux\A - Route\3_interdiction\B39.png"
   inkscape:export-xdpi="150"
   inkscape:export-ydpi="150"><metadata
   id="metadata95"><rdf:RDF><cc:Work
       rdf:about=""><dc:format>image/svg+xml</dc:format><dc:type
         rdf:resource="http://purl.org/dc/dcmitype/StillImage" /><dc:title></dc:title></cc:Work></rdf:RDF></metadata><defs
   id="defs93">
	
	
	
	
	
	
	
	
	
	
	
	
	
	
	
</defs><sodipodi:namedview
   pagecolor="#ffffff"
   bordercolor="#666666"
   borderopacity="1"
   objecttolerance="10"
   gridtolerance="10"
   guidetolerance="10"
   inkscape:pageopacity="0"
   inkscape:pageshadow="2"
   inkscape:window-width="1280"
   inkscape:window-height="964"
   id="namedview91"
   showgrid="false"
   inkscape:zoom="0.71938294"
   inkscape:cx="-153.7514"
   inkscape:cy="222.78172"
   inkscape:window-x="1525"
   inkscape:window-y="125"
   inkscape:window-maximized="1"
   inkscape:current-layer="Ebene_1"
   fit-margin-top="0"
   fit-margin-left="0"
   fit-margin-right="0"
   fit-margin-bottom="0" />
<circle
   style="stroke:#000000;stroke-width:0.17640001;stroke-linecap:round;stroke-linejoin:round"
   cx="287.05701"
   cy="287.05701"
   r="286.96899"
   id="circle3"
   sodipodi:cx="287.05701"
   sodipodi:cy="287.05701"
   sodipodi:rx="286.96899"
   sodipodi:ry="286.96899"
   transform="scale(1.0032844,1.0032844)" />
<circle
   style="fill:#ffffff;stroke:#000000;stroke-width:0.17640001;stroke-linecap:round;stroke-linejoin:round"
   cx="287.05701"
   cy="287.05701"
   r="273.465"
   id="circle5"
   sodipodi:cx="287.05701"
   sodipodi:cy="287.05701"
   sodipodi:rx="273.465"
   sodipodi:ry="273.465"
   transform="scale(1.0032844,1.0032844)" />
<g
   id="g7"
   transform="scale(1.0032844,1.0032844)">
	<rect
   x="2.427"
   y="99.068001"
   style="fill:none"
   width="571.14801"
   height="269.43201"
   id="rect9" />
	<path
   d="m 273.781,99.156 v 7.852 h -19.352 v 9.375 h 14.179 v 7.969 h -14.179 l -0.032,17.754 h -9.005 l 0.032,-42.949 h 28.357 z"
   id="path11"
   inkscape:connector-curvature="0" />
	<path
   d="m 288.734,99.214 v 42.949 h -8.877 V 99.214 h 8.877 z"
   id="path13"
   inkscape:connector-curvature="0" />
	<path
   d="m 309.916,99.156 11.751,22.91 v -22.91 h 8.687 l 0.031,43.008 h -8.526 l -14.273,-27.1 -0.032,27.129 h -8.782 V 99.156 h 11.144 z"
   id="path15"
   inkscape:connector-curvature="0" />
</g>
<g
   id="g17"
   transform="scale(1.0032844,1.0032844)">
	<rect
   x="2.427"
   y="197.438"
   style="fill:none"
   width="571.14801"
   height="269.43301"
   id="rect19" />
	<path
   d="m 83.137,197.438 c 3.066,0.333 5.668,1.455 7.808,3.369 2.139,1.915 3.688,4.18 4.646,6.797 0.447,1.153 0.777,2.666 0.99,4.541 v 13.184 c -0.319,4.453 -1.847,8.047 -4.583,10.781 -2.736,2.735 -6.063,4.189 -9.979,4.365 H 63.498 l 0.032,-43.037 h 19.607 z m -10.474,34.57 h 7.473 c 1.511,-0.215 2.799,-0.728 3.864,-1.538 1.064,-0.81 1.969,-2.231 2.714,-4.263 0.404,-1.25 0.521,-5.801 0.351,-13.652 -1,-4.062 -3.311,-6.396 -6.929,-7.002 h -7.473 v 26.455 z"
   id="path21"
   inkscape:connector-curvature="0" />
	<path
   d="m 115.656,197.497 -3.034,9.17 H 101.86 l 3.162,-9.17 h 10.634 z"
   id="path23"
   inkscape:connector-curvature="0" />
	<path
   d="m 133.167,197.584 v 42.949 h -8.877 v -42.949 h 8.877 z"
   id="path25"
   inkscape:connector-curvature="0" />
	<path
   d="m 153.041,197.526 11.752,22.91 v -22.91 h 8.686 l 0.032,43.008 h -8.526 l -14.274,-27.1 -0.032,27.129 h -8.782 v -43.037 h 11.144 z"
   id="path27"
   inkscape:connector-curvature="0" />
	<path
   d="m 209.447,197.555 v 8.262 h -9.356 v 34.717 h -8.686 v -34.805 h -9.995 v -8.174 h 28.037 z"
   id="path29"
   inkscape:connector-curvature="0" />
	<path
   d="m 244.553,197.614 v 7.852 h -19.352 v 9.375 h 14.179 v 7.939 h -14.179 v 9.814 h 20.182 v 7.939 h -29.188 l 0.032,-42.92 h 28.326 z"
   id="path31"
   inkscape:connector-curvature="0" />
	<path
   d="m 267.908,197.438 c 4.917,0 8.76,1.622 11.528,4.863 2.427,2.852 3.641,6.064 3.641,9.639 0,0.645 -0.043,1.406 -0.128,2.285 -0.511,4.355 -2.885,7.959 -7.121,10.811 l 7.792,15.469 h -10.091 l -6.674,-12.803 h -5.78 v 12.891 h -8.846 l 0.032,-43.154 h 15.647 z m -1.277,22.002 2.619,-0.293 c 1.49,-0.371 2.735,-1.143 3.736,-2.314 0.852,-1.152 1.362,-2.529 1.533,-4.131 0.084,-1.992 -0.554,-3.73 -1.916,-5.215 -1.15,-1.211 -2.821,-1.894 -5.014,-2.051 h -6.419 v 14.004 h 5.461 z"
   id="path33"
   inkscape:connector-curvature="0" />
	<path
   d="m 309.21,197.438 c 3.065,0.333 5.668,1.455 7.808,3.369 2.14,1.915 3.688,4.18 4.646,6.797 0.446,1.153 0.776,2.666 0.989,4.541 v 13.184 c -0.319,4.453 -1.847,8.047 -4.582,10.781 -2.736,2.735 -6.063,4.189 -9.979,4.365 h -18.521 l 0.032,-43.037 h 19.607 z m -10.474,34.57 h 7.473 c 1.511,-0.215 2.799,-0.728 3.863,-1.538 1.064,-0.81 1.97,-2.231 2.715,-4.263 0.404,-1.25 0.521,-5.801 0.352,-13.652 -1.001,-4.062 -3.311,-6.396 -6.93,-7.002 h -7.473 v 26.455 z"
   id="path35"
   inkscape:connector-curvature="0" />
	<path
   d="m 339.398,197.584 v 42.949 h -8.877 v -42.949 h 8.877 z"
   id="path37"
   inkscape:connector-curvature="0" />
	<path
   d="m 366.777,197.057 c 6.195,0.977 10.251,4.365 12.167,10.166 l 0.287,1.436 -8.079,1.553 c -0.66,-2.5 -1.788,-4.16 -3.385,-4.98 -1.597,-0.82 -3.471,-0.742 -5.62,0.234 -1.427,1.113 -2.614,2.637 -3.561,4.57 -0.948,1.934 -1.57,4.551 -1.868,7.852 -0.128,3.516 0.372,6.567 1.501,9.155 1.128,2.588 2.495,4.302 4.104,5.142 1.606,0.84 3.251,0.957 4.934,0.352 1.682,-0.391 3.022,-1.982 4.023,-4.775 l 8.079,2.285 c -1.086,3.926 -3.183,6.768 -6.291,8.525 -2.278,1.329 -4.961,2.08 -8.047,2.256 -5.813,-0.117 -10.155,-2.295 -13.029,-6.533 -3.023,-4.609 -4.577,-9.599 -4.662,-14.971 0.042,-6.719 1.617,-12.217 4.727,-16.494 1.958,-2.363 4.15,-3.994 6.578,-4.893 1.83,-0.664 3.82,-0.996 5.972,-0.996 0.701,-0.001 1.424,0.038 2.17,0.116 z"
   id="path39"
   inkscape:connector-curvature="0" />
	<path
   d="m 413.731,197.555 v 8.262 h -9.356 v 34.717 h -8.687 v -34.805 h -9.995 v -8.174 h 28.038 z"
   id="path41"
   inkscape:connector-curvature="0" />
	<path
   d="m 430.507,197.584 v 42.949 h -8.877 v -42.949 h 8.877 z"
   id="path43"
   inkscape:connector-curvature="0" />
	<path
   d="m 457.917,197.057 c 5.151,0.723 8.962,3.516 11.432,8.379 2.108,3.594 3.162,8.008 3.162,13.242 v 0.527 c 0,6.543 -1.735,12.11 -5.205,16.699 -2.47,3.086 -5.961,4.814 -10.475,5.186 -0.469,0.039 -0.926,0.059 -1.373,0.059 -4.684,0 -8.611,-1.816 -11.783,-5.449 -3.279,-4.844 -4.939,-9.814 -4.982,-14.912 -0.021,-0.429 -0.031,-0.859 -0.031,-1.289 0,-6.895 1.671,-12.598 5.014,-17.109 2.235,-2.461 4.566,-4.033 6.993,-4.717 1.682,-0.488 3.363,-0.732 5.046,-0.732 0.743,-0.001 1.479,0.038 2.202,0.116 z m -2.459,36.592 c 2.47,-0.117 4.556,-1.67 6.259,-4.658 1.234,-1.992 2.012,-4.922 2.331,-8.789 0.064,-4.922 -0.884,-8.955 -2.842,-12.1 -1.597,-2.187 -3.364,-3.408 -5.301,-3.662 -2.555,0.117 -4.684,1.651 -6.387,4.6 -1.214,2.07 -2.002,5.039 -2.363,8.906 -0.043,4.922 0.926,8.946 2.906,12.07 1.576,2.188 3.375,3.399 5.397,3.633 z"
   id="path45"
   inkscape:connector-curvature="0" />
	<path
   d="m 491.427,197.526 11.751,22.91 v -22.91 h 8.687 l 0.031,43.008 h -8.525 l -14.274,-27.1 -0.032,27.129 h -8.782 v -43.037 h 11.144 z"
   id="path47"
   inkscape:connector-curvature="0" />
</g>
<g
   id="g49"
   transform="scale(1.0032844,1.0032844)">
	<rect
   x="2.427"
   y="288"
   style="fill:none"
   width="571.14801"
   height="269.43201"
   id="rect51" />
	<path
   d="m 252.706,288.087 12.071,42.92 h -9.165 l -2.012,-7.295 h -12.933 l -2.044,7.295 h -9.261 l 11.943,-42.92 h 11.401 z m -10.283,27.452 h 9.229 l -4.471,-16.758 -4.758,16.758 z"
   id="path53"
   inkscape:connector-curvature="0" />
	<path
   d="m 279.41,288.205 v 29.063 c 0.404,3.711 2.683,5.781 6.834,6.211 4.087,-0.41 6.387,-2.451 6.898,-6.123 v -29.151 h 9.037 v 31.319 c -0.787,3.828 -2.757,6.807 -5.907,8.936 -2.811,1.816 -5.685,2.772 -8.623,2.871 -0.469,0.039 -0.926,0.059 -1.374,0.059 -4.364,0 -7.973,-1.162 -10.825,-3.486 -3.257,-2.891 -4.982,-5.84 -5.173,-8.848 v -30.85 h 9.133 z"
   id="path55"
   inkscape:connector-curvature="0" />
	<path
   d="m 318.952,288.117 8.654,13.243 8.654,-13.184 h 10.314 l -14.339,21.27 14.466,21.592 H 336.42 l -8.941,-13.096 -8.462,13.066 -11.337,0.029 14.434,-21.621 -14.401,-21.299 h 11.239 z"
   id="path57"
   inkscape:connector-curvature="0" />
</g>
<path
   inkscape:connector-curvature="0"
   id="path63"
   d="m 78.520045,383.41115 12.110646,43.06096 H 81.43559 l -2.018608,-7.31896 H 66.441505 l -2.050714,7.31896 h -9.290413 l 11.982225,-43.06096 h 11.437442 z m -10.31577,27.54116 h 9.259312 l -4.485685,-16.81304 -4.773627,16.81304 z"
   style="fill:#000000" /><path
   inkscape:connector-curvature="0"
   id="path65"
   d="m 104.00046,383.52853 v 29.15845 c 0.40533,3.72319 2.69181,5.79999 6.85645,6.2314 4.10042,-0.41134 6.40797,-2.45905 6.91965,-6.14311 v -29.24574 h 9.06768 v 31.42086 c -0.79059,3.84058 -2.76605,6.82936 -5.9274,8.96535 -2.82023,1.82197 -5.70367,2.78111 -8.65032,2.88043 -0.47054,0.0391 -0.92904,0.0592 -1.37851,0.0592 -4.37834,0 -7.99919,-1.16582 -10.86056,-3.49745 -3.267695,-2.9005 -4.99836,-5.85918 -5.189987,-8.87706 v -30.95133 h 9.162997 z"
   style="fill:#000000" /><path
   inkscape:connector-curvature="0"
   id="path67"
   d="m 159.82019,383.44124 v 8.28914 h -9.38673 v 34.83102 h -8.71452 v -34.91931 h -10.02783 v -8.20085 h 28.12908 z"
   style="fill:#000000" /><path
   inkscape:connector-curvature="0"
   id="path69"
   d="m 183.18568,382.94161 c 5.16892,0.72537 8.99144,3.52755 11.46955,8.40652 2.11392,3.6058 3.17239,8.0343 3.17239,13.28549 v 0.52873 c 0,6.56449 -1.7407,12.14877 -5.2231,16.75385 -2.47812,3.09613 -5.98058,4.82981 -10.5084,5.20303 -0.46954,0.0391 -0.92905,0.0592 -1.37751,0.0592 -4.69939,0 -8.64029,-1.82196 -11.82271,-5.46689 -3.28876,-4.85991 -4.95522,-9.84624 -4.99736,-14.96098 -0.0211,-0.43141 -0.0321,-0.86182 -0.0321,-1.29323 0,-6.91765 1.67649,-12.63938 5.02946,-17.1652 2.24234,-2.46908 4.582,-4.04624 7.01697,-4.73249 1.68753,-0.4896 3.37405,-0.7344 5.06157,-0.7344 0.74845,-0.002 1.48487,0.0371 2.21124,0.11638 z m -2.46707,36.71118 c 2.47711,-0.11739 4.57096,-1.67549 6.27955,-4.6733 1.23906,-1.99854 2.01861,-4.93817 2.33966,-8.81787 0.0632,-4.93816 -0.8869,-8.98441 -2.85133,-12.13974 -1.60225,-2.19518 -3.37505,-3.41919 -5.31841,-3.67403 -2.56339,0.11739 -4.69939,1.65542 -6.40798,4.61511 -1.21799,2.0768 -2.00757,5.05555 -2.37076,8.93525 -0.0431,4.93817 0.92904,8.97438 2.91554,12.10965 1.57917,2.19518 3.38408,3.41016 5.41373,3.64493 z"
   style="fill:#000000" /><path
   inkscape:connector-curvature="0"
   id="path71"
   d="m 203.25137,383.41115 h 12.07854 l 9.45094,22.83876 9.67567,-22.83876 h 12.04644 v 43.14925 h -8.93826 v -27.2472 l -11.69428,27.2472 h -2.33866 l -11.59797,-27.01243 0.0963,27.01243 h -8.77874 v -43.14925 z"
   style="fill:#000000" /><path
   inkscape:connector-curvature="0"
   id="path73"
   d="m 270.95802,382.94161 c 5.16892,0.72537 8.99143,3.52755 11.46954,8.40652 2.11392,3.6058 3.17239,8.0343 3.17239,13.28549 v 0.52873 c 0,6.56449 -1.7407,12.14877 -5.2231,16.75385 -2.47811,3.09613 -5.98058,4.82981 -10.5084,5.20303 -0.46954,0.0391 -0.92904,0.0592 -1.37751,0.0592 -4.69938,0 -8.64028,-1.82196 -11.8227,-5.46689 -3.28877,-4.85991 -4.95522,-9.84624 -4.99736,-14.96098 -0.0211,-0.43141 -0.0321,-0.86182 -0.0321,-1.29323 0,-6.91765 1.67649,-12.63938 5.02947,-17.1652 2.24234,-2.46908 4.582,-4.04624 7.01697,-4.73249 1.68752,-0.4896 3.37404,-0.7344 5.06157,-0.7344 0.74745,-0.002 1.48386,0.0371 2.21124,0.11638 z m -2.46708,36.71118 c 2.47711,-0.11739 4.57096,-1.67549 6.27956,-4.6733 1.23905,-1.99854 2.01861,-4.93817 2.33966,-8.81787 0.0632,-4.93816 -0.88691,-8.98441 -2.85134,-12.13974 -1.60224,-2.19518 -3.37505,-3.41919 -5.31841,-3.67403 -2.56339,0.11739 -4.69938,1.65542 -6.40797,4.61511 -1.21799,2.0768 -2.00758,5.05555 -2.37077,8.93525 -0.0431,4.93817 0.92905,8.97438 2.91555,12.10965 1.57917,2.19518 3.38408,3.41016 5.41372,3.64493 z"
   style="fill:#000000" /><path
   inkscape:connector-curvature="0"
   id="path75"
   d="m 307.07525,383.47034 c 4.8268,0.47054 8.3403,2.45905 10.54051,5.96653 1.75073,3.05701 2.27545,6.30966 1.56913,9.75895 -0.76851,2.05774 -2.03967,3.73322 -3.81248,5.02645 3.37405,2.27345 5.191,5.497 5.44683,9.67066 0.0432,0.31403 0.0642,0.62705 0.0642,0.94108 0,1.23404 -0.31101,2.52828 -0.93004,3.8797 -1.92229,4.54588 -6.16217,7.16245 -12.71964,7.84769 h -17.04379 v -43.09006 h 16.88527 z m -8.23395,35.62462 7.97711,-0.0291 c 2.30756,-0.52873 3.77034,-1.81294 4.38937,-3.85061 0.34212,-3.54661 -1.14274,-5.62341 -4.45258,-6.2314 h -7.9139 v 10.1111 z m 0.0632,-18.89987 h 6.56851 c 3.37404,-0.0201 5.09367,-1.46981 5.15888,-4.35024 0.10535,-2.99781 -1.51796,-4.52682 -4.86994,-4.58501 h -6.85644 v 8.93525 z"
   style="fill:#000000" /><path
   inkscape:connector-curvature="0"
   id="path77"
   d="m 335.30968,383.47034 v 43.09006 h -8.90615 v -43.09006 h 8.90615 z"
   style="fill:#000000" /><path
   inkscape:connector-curvature="0"
   id="path79"
   d="m 349.92854,383.41115 0.0321,35.44804 h 18.16547 l -0.0321,7.70121 h -27.04052 v -43.14925 h 8.87506 z"
   style="fill:#000000" /><path
   inkscape:connector-curvature="0"
   id="path81"
   d="m 382.04066,383.47034 v 43.09006 h -8.90716 v -43.09006 h 8.90716 z"
   style="fill:#000000" /><path
   inkscape:connector-curvature="0"
   id="path83"
   d="m 387.04805,417.77163 v -0.0592 c 0,-0.21571 0.2448,-0.36219 0.73641,-0.44045 3.78138,-1.11665 6.23642,-1.92028 7.36913,-2.40989 0.57689,0.72538 1.33437,1.38153 2.27545,1.96945 1.51696,0.82269 3.14028,1.32233 4.86994,1.49891 1.83701,0.0391 2.97975,0 3.42822,-0.11739 2.11392,-0.54879 3.41719,-1.10762 3.9088,-1.67548 0.4906,-0.39228 0.918,-1.3424 1.28119,-2.85133 0.0843,-0.58793 0,-1.24408 -0.25684,-1.96945 -0.32005,-0.4896 -0.66217,-0.90095 -1.02435,-1.23404 l -1.08957,-0.7645 -1.21799,-0.49964 c -6.77116,-1.94035 -10.49836,-3.07607 -11.1816,-3.40916 -3.14028,-1.15578 -5.47894,-3.06704 -7.01597,-5.73176 -1.00429,-1.78284 -1.45275,-3.94893 -1.34641,-6.49627 0.40533,-3.17439 1.82598,-5.69264 4.26095,-7.55373 2.73496,-1.82196 5.58529,-2.8122 8.55401,-2.96872 h 0.83272 c 2.11492,0 3.86666,0.14648 5.2542,0.44044 2.82023,0.72538 5.01943,1.73468 6.59961,3.02792 1.58017,1.19491 2.88344,2.82224 3.90879,4.87897 l -0.0963,0.32306 -6.60061,2.90952 -0.31905,-0.14648 c -0.40633,-1.19491 -1.54907,-2.16509 -3.42822,-2.90952 -2.11492,-0.72538 -4.59303,-0.74444 -7.43333,-0.0592 -1.21699,0.37222 -2.07178,0.85279 -2.56339,1.44072 -0.17157,0.15651 -0.3953,0.64712 -0.6722,1.46981 -0.0432,0.96014 0,1.51897 0.12741,1.67549 0.27691,0.66618 0.83273,1.26413 1.66646,1.79287 l 0.83272,0.32305 c 6.06586,1.64639 10.17732,2.8413 12.33438,3.58574 1.85909,0.78357 3.27974,1.64639 4.26195,2.58647 l 1.79388,2.23431 c 1.32333,2.01861 2.02864,4.22283 2.11392,6.61365 0.0211,0.15652 0.0321,0.34313 0.0321,0.55883 0,0.76451 -0.12842,1.79287 -0.38526,3.08611 -0.53375,1.82196 -1.17484,3.16435 -1.92229,4.02718 -1.2812,1.44975 -2.21024,2.3216 -2.78713,2.61556 -3.13927,1.97948 -6.37486,3.04597 -9.70778,3.20349 h -2.91554 c -2.17813,-0.19564 -4.01514,-0.58793 -5.51004,-1.17585 -2.39283,-1.01934 -4.32516,-2.15506 -5.79898,-3.40916 -1.21498,-1.01934 -2.27244,-2.47912 -3.16938,-4.38034 z"
   style="fill:#000000" /><path
   inkscape:connector-curvature="0"
   id="path85"
   d="m 451.42279,383.44124 v 8.28914 h -9.38773 v 34.83102 h -8.71453 V 391.64209 H 423.2927 v -8.20085 h 28.13009 z"
   style="fill:#000000" /><path
   inkscape:connector-curvature="0"
   id="path87"
   d="m 483.82286,383.49943 v 7.87779 H 464.4073 v 9.40579 h 14.22557 v 7.96508 H 464.4073 v 9.84623 h 20.24929 v 7.96508 h -29.28387 l 0.0311,-43.06097 h 28.41904 z"
   style="fill:#000000" /><path
   inkscape:connector-curvature="0"
   id="path89"
   d="m 488.44599,417.77163 v -0.0592 c 0,-0.21571 0.2448,-0.36219 0.73641,-0.44045 3.78138,-1.11665 6.23642,-1.92028 7.36913,-2.40989 0.57689,0.72538 1.33437,1.38153 2.27545,1.96945 1.51696,0.82269 3.14028,1.32233 4.86994,1.49891 1.83701,0.0391 2.97975,0 3.42822,-0.11739 2.11392,-0.54879 3.41719,-1.10762 3.9088,-1.67548 0.4906,-0.39228 0.918,-1.3424 1.28119,-2.85133 0.0843,-0.58793 0,-1.24408 -0.25684,-1.96945 -0.32005,-0.4896 -0.66217,-0.90095 -1.02435,-1.23404 l -1.08957,-0.7645 -1.21799,-0.49964 c -6.77116,-1.94035 -10.49836,-3.07607 -11.1816,-3.40916 -3.14028,-1.15578 -5.47894,-3.06704 -7.01597,-5.73176 -1.00429,-1.78284 -1.45275,-3.94893 -1.34641,-6.49627 0.40533,-3.17439 1.82598,-5.69264 4.26095,-7.55373 2.73496,-1.82196 5.58529,-2.8122 8.554,-2.96872 h 0.83273 c 2.11492,0 3.86666,0.14648 5.2542,0.44044 2.82023,0.72538 5.01943,1.73468 6.59961,3.02792 1.58017,1.19491 2.88344,2.82224 3.90879,4.87897 l -0.0963,0.32306 -6.60061,2.90952 -0.31905,-0.14648 c -0.40633,-1.19491 -1.54907,-2.16509 -3.42822,-2.90952 -2.11492,-0.72538 -4.59303,-0.74444 -7.43333,-0.0592 -1.21699,0.37222 -2.07178,0.85279 -2.56339,1.44072 -0.17157,0.15651 -0.3953,0.64712 -0.6722,1.46981 -0.0432,0.96014 0,1.51897 0.12741,1.67549 0.27691,0.66618 0.83273,1.26413 1.66646,1.79287 l 0.83272,0.32305 c 6.06586,1.64639 10.17732,2.8413 12.33438,3.58574 1.85909,0.78357 3.27974,1.64639 4.26195,2.58647 l 1.79388,2.23431 c 1.32333,2.01861 2.02864,4.22283 2.11392,6.61365 0.0211,0.15652 0.0321,0.34313 0.0321,0.55883 0,0.76451 -0.12842,1.79287 -0.38526,3.08611 -0.53375,1.82196 -1.17485,3.16435 -1.92229,4.02718 -1.2812,1.44975 -2.21024,2.3216 -2.78713,2.61556 -3.13927,1.97948 -6.37487,3.04597 -9.70778,3.20349 h -2.91554 c -2.17813,-0.19564 -4.01514,-0.58793 -5.51004,-1.17585 -2.39283,-1.01934 -4.32516,-2.15506 -5.79898,-3.40916 -1.21498,-1.01934 -2.27244,-2.47912 -3.16938,-4.38034 z"
   style="fill:#000000" />
</svg>