<?xml version="1.0" encoding="UTF-8" standalone="no"?>
<!-- Generator: Adobe Illustrator 13.0.0, SVG Export Plug-In  -->

<svg
   xmlns:dc="http://purl.org/dc/elements/1.1/"
   xmlns:cc="http://creativecommons.org/ns#"
   xmlns:rdf="http://www.w3.org/1999/02/22-rdf-syntax-ns#"
   xmlns:svg="http://www.w3.org/2000/svg"
   xmlns="http://www.w3.org/2000/svg"
   xmlns:sodipodi="http://sodipodi.sourceforge.net/DTD/sodipodi-0.dtd"
   xmlns:inkscape="http://www.inkscape.org/namespaces/inkscape"
   version="1.1"
   x="0px"
   y="0px"
   width="576px"
   height="576px"
   viewBox="-0.031 -0.031 576 576"
   enable-background="new -0.031 -0.031 576 576"
   xml:space="preserve"
   id="svg2"
   inkscape:version="0.48.1 "
   sodipodi:docname="B3a.svg"
   inkscape:export-filename="C:\Documents and Settings\bertrand.bouteilles\Bureau\Panneaux\A - Route\3_interdiction\B3a.png"
   inkscape:export-xdpi="150"
   inkscape:export-ydpi="150"><metadata
   id="metadata24"><rdf:RDF><cc:Work
       rdf:about=""><dc:format>image/svg+xml</dc:format><dc:type
         rdf:resource="http://purl.org/dc/dcmitype/StillImage" /><dc:title></dc:title></cc:Work></rdf:RDF></metadata><sodipodi:namedview
   pagecolor="#ffffff"
   bordercolor="#666666"
   borderopacity="1"
   objecttolerance="10"
   gridtolerance="10"
   guidetolerance="10"
   inkscape:pageopacity="0"
   inkscape:pageshadow="2"
   inkscape:window-width="1280"
   inkscape:window-height="964"
   id="namedview22"
   showgrid="false"
   inkscape:zoom="0.50868056"
   inkscape:cx="-111.07167"
   inkscape:cy="288"
   inkscape:window-x="-4"
   inkscape:window-y="-4"
   inkscape:window-maximized="1"
   inkscape:current-layer="svg2" />
<defs
   id="defs4">
</defs>
<circle
   cx="287.96899"
   cy="287.96899"
   r="286.96899"
   id="circle6"
   sodipodi:cx="287.96899"
   sodipodi:cy="287.96899"
   sodipodi:rx="286.96899"
   sodipodi:ry="286.96899"
   transform="translate(5.859375e-6,5.8593754e-6)"
   style="fill:#ffffff;stroke:#000000;stroke-width:2;stroke-linecap:round;stroke-linejoin:round" />
<circle
   cx="287.96899"
   cy="287.96899"
   r="274.77499"
   id="circle8"
   style="fill:#ff0000;stroke:#ff0000;stroke-width:0.17640001;stroke-linecap:round;stroke-linejoin:round"
   sodipodi:cx="287.96899"
   sodipodi:cy="287.96899"
   sodipodi:rx="274.77499"
   sodipodi:ry="274.77499"
   transform="translate(5.859375e-6,5.8593754e-6)" />
<circle
   cx="287.96899"
   cy="287.96899"
   r="192.438"
   id="circle10"
   sodipodi:cx="287.96899"
   sodipodi:cy="287.96899"
   sodipodi:rx="192.438"
   sodipodi:ry="192.438"
   transform="translate(5.859375e-6,5.8593754e-6)"
   style="fill:#ffffff;stroke:#ff0000;stroke-width:0.17640001;stroke-linecap:round;stroke-linejoin:round" />




<g
   id="g3001"
   transform="translate(0.543,5.668)"><path
     id="path12"
     d="m 338.452,296.479 h 55.479 l 10.624,9.482 4.427,15.516 7.377,7.327 0.59,20.257 -8.263,7.327 v 15.889 c 0,0.358 -0.143,0.702 -0.396,0.955 -0.254,0.253 -0.597,0.396 -0.955,0.396 h -7.627 c -0.358,0 -0.702,-0.143 -0.955,-0.396 -0.254,-0.253 -0.396,-0.597 -0.396,-0.955 v -15.458 h -63.741 v 15.458 c 0,0.358 -0.142,0.702 -0.396,0.955 -0.253,0.253 -0.597,0.396 -0.955,0.396 h -8.218 c -0.358,0 -0.701,-0.143 -0.955,-0.396 -0.253,-0.253 -0.396,-0.597 -0.396,-0.955 v -15.458 l -7.082,-7.327 v -20.688 l 7.673,-6.896 4.131,-15.946 10.034,-9.483 z"
     inkscape:connector-curvature="0"
     style="stroke:#000000;stroke-width:0.17640001;stroke-linecap:round;stroke-linejoin:round" /><path
     style="fill:#ff0000;stroke:#ff0000;stroke-width:0.17640001;stroke-linecap:round;stroke-linejoin:round"
     id="path14"
     d="m 164.655,348.16 h 1.398 v 25.08 c 0,0.357 0.142,0.701 0.396,0.954 0.253,0.254 0.597,0.396 0.955,0.396 h 12.168 c 0.358,0 0.702,-0.142 0.955,-0.396 0.253,-0.253 0.396,-0.597 0.396,-0.954 v -17.766 c 0,-1.818 0.734,-3.56 2.034,-4.83 1.301,-1.271 3.06,-1.963 4.877,-1.92 l 39.166,0.922 39.166,-0.922 c 1.818,-0.043 3.576,0.649 4.877,1.92 1.301,1.271 2.034,3.012 2.034,4.83 v 17.766 c 0,0.357 0.142,0.701 0.396,0.954 0.253,0.254 0.597,0.396 0.955,0.396 h 12.169 c 0.358,0 0.702,-0.142 0.955,-0.396 0.253,-0.253 0.396,-0.597 0.396,-0.954 v -25.08 h 1.399 c 1.79,0 3.508,-0.712 4.774,-1.978 1.267,-1.267 1.978,-2.983 1.978,-4.774 V 206.892 c 0,-4.477 -1.778,-8.771 -4.944,-11.936 -3.166,-3.166 -7.459,-4.944 -11.936,-4.944 H 227 174.783 c -4.477,0 -8.771,1.778 -11.936,4.944 -3.166,3.166 -4.944,7.459 -4.944,11.936 v 134.516 c 0,1.791 0.712,3.508 1.978,4.774 1.266,1.266 2.983,1.978 4.774,1.978 z"
     inkscape:connector-curvature="0" /><polygon
     id="polygon16"
     points="400.128,322.34 332.255,322.34 336.978,303.375 396.292,302.944 "
     style="fill:#ffffff;stroke:#000000;stroke-width:0.17640001;stroke-linecap:round;stroke-linejoin:round" /><circle
     id="circle18"
     r="5.0029998"
     cy="340.048"
     cx="332.22"
     sodipodi:cx="332.22"
     sodipodi:cy="340.048"
     sodipodi:rx="5.0029998"
     sodipodi:ry="5.0029998"
     style="fill:#ffffff;stroke:#000000;stroke-width:0.17640001;stroke-linecap:round;stroke-linejoin:round"
     d="m 337.223,340.048 c 0,2.76308 -2.23992,5.003 -5.003,5.003 -2.76308,0 -5.003,-2.23992 -5.003,-5.003 0,-2.76308 2.23992,-5.003 5.003,-5.003 2.76308,0 5.003,2.23992 5.003,5.003 z" /><circle
     id="circle20"
     r="4.941"
     cy="340.048"
     cx="401.11899"
     sodipodi:cx="401.11899"
     sodipodi:cy="340.048"
     sodipodi:rx="4.941"
     sodipodi:ry="4.941"
     style="fill:#ffffff;stroke:#000000;stroke-width:0.17640001;stroke-linecap:round;stroke-linejoin:round"
     d="m 406.05999,340.048 c 0,2.72884 -2.21216,4.941 -4.941,4.941 -2.72884,0 -4.941,-2.21216 -4.941,-4.941 0,-2.72883 2.21216,-4.941 4.941,-4.941 2.72884,0 4.941,2.21217 4.941,4.941 z" /></g>
</svg>