<?xml version="1.0" encoding="UTF-8" standalone="no"?>
<!-- Generator: Adobe Illustrator 13.0.0, SVG Export Plug-In . SVG Version: 6.00 Build 14948)  -->

<svg
   xmlns:dc="http://purl.org/dc/elements/1.1/"
   xmlns:cc="http://creativecommons.org/ns#"
   xmlns:rdf="http://www.w3.org/1999/02/22-rdf-syntax-ns#"
   xmlns:svg="http://www.w3.org/2000/svg"
   xmlns="http://www.w3.org/2000/svg"
   xmlns:sodipodi="http://sodipodi.sourceforge.net/DTD/sodipodi-0.dtd"
   xmlns:inkscape="http://www.inkscape.org/namespaces/inkscape"
   version="1.1"
   id="Layer_1"
   x="0px"
   y="0px"
   width="576px"
   height="576px"
   viewBox="-0.933 -0.933 576 576"
   enable-background="new -0.933 -0.933 576 576"
   xml:space="preserve"
   inkscape:version="0.48.1 "
   sodipodi:docname="B42.svg"
   inkscape:export-filename="C:\Documents and Settings\bertrand.bouteilles\Bureau\Panneaux\A - Route\4_obligation\B42.png"
   inkscape:export-xdpi="150"
   inkscape:export-ydpi="150"><metadata
   id="metadata21"><rdf:RDF><cc:Work
       rdf:about=""><dc:format>image/svg+xml</dc:format><dc:type
         rdf:resource="http://purl.org/dc/dcmitype/StillImage" /><dc:title></dc:title></cc:Work></rdf:RDF></metadata><defs
   id="defs19" /><sodipodi:namedview
   pagecolor="#ffffff"
   bordercolor="#666666"
   borderopacity="1"
   objecttolerance="10"
   gridtolerance="10"
   guidetolerance="10"
   inkscape:pageopacity="0"
   inkscape:pageshadow="2"
   inkscape:window-width="1920"
   inkscape:window-height="1174"
   id="namedview17"
   showgrid="false"
   inkscape:zoom="0.50868056"
   inkscape:cx="532.75085"
   inkscape:cy="329.28328"
   inkscape:window-x="1276"
   inkscape:window-y="-4"
   inkscape:window-maximized="1"
   inkscape:current-layer="Layer_1" />
<circle
   cx="287.06699"
   cy="287.06699"
   r="286.979"
   id="circle3"
   sodipodi:cx="287.06699"
   sodipodi:cy="287.06699"
   sodipodi:rx="286.979"
   sodipodi:ry="286.979"
   transform="matrix(1.0000729,0,0,1.0000729,6.6493777e-5,-0.04192569)"
   style="fill:#ffffff;stroke:#000000;stroke-width:1.99985421;stroke-linecap:round;stroke-linejoin:round;stroke-miterlimit:4;stroke-dasharray:none" />
<circle
   cx="287.06699"
   cy="287.06699"
   r="261.61401"
   id="circle5"
   sodipodi:cx="287.06699"
   sodipodi:cy="287.06699"
   sodipodi:rx="261.61401"
   sodipodi:ry="261.61401"
   transform="matrix(1.0000729,0,0,1.0000729,6.6493777e-5,-0.04192569)"
   style="fill:#0000ff;stroke:#0000ff;stroke-width:0.17640001;stroke-linecap:round;stroke-linejoin:round" />

<polygon
   points="90.31,458.598 115.263,483.877 128.462,494.333 496.829,131.774 490.717,123.787 479.647,111.433 462.772,94.266 445.659,79.813 77.315,442.35 "
   id="polygon9"
   transform="matrix(1.0000729,0,0,1.0000729,6.6493777e-5,-0.04192569)"
   style="fill:#ff0000;stroke:#ff0000;stroke-width:0.17640001;stroke-linecap:round;stroke-linejoin:round" />


<g
   id="g3756"><polygon
     style="fill:#ffffff;stroke:#0000ff;stroke-width:0.17640001;stroke-linecap:round;stroke-linejoin:round"
     transform="matrix(1.0000729,0,0,1.0000729,6.6493777e-5,-0.04192569)"
     id="polygon7"
     points="124.916,344.336 179.847,308.727 174.618,283.286 177.232,257.208 150.652,215.211 112.306,230.483 107.554,225.432 117.14,202.536 119.754,194.267 132.827,168.19 134.57,151.654 145.028,159.287 163.329,161.194 189.474,175.187 207.775,192.995 217.362,213.984 253.964,193.631 248.3,177.095 253.093,161.831 242.635,155.47 237.406,137.662 230.434,134.482 241.328,121.761 250.914,116.037 258.758,115.401 266.165,133.846 260.5,142.75 261.372,151.654 275.316,156.742 311.843,210.573 196.556,324.042 195.968,322.709 161.1,344.344 144.965,353.881 144.3,375.475 128.084,391.434 " /><polygon
     style="fill:#0000ff;stroke:#0000ff;stroke-width:0.17640001;stroke-linecap:round;stroke-linejoin:round"
     transform="matrix(1.0000729,0,0,1.0000729,6.6493777e-5,-0.04192569)"
     id="polygon11"
     points="256.717,213.346 263.821,230.637 230.669,237.553 220.014,228.908 " /><polygon
     style="fill:#ffffff;stroke:#0000ff;stroke-width:0.17640001;stroke-linecap:round;stroke-linejoin:round"
     transform="matrix(1.0000729,0,0,1.0000729,6.6493777e-5,-0.04192569)"
     id="polygon13"
     points="268.318,437.881 251.32,441.063 229.2,396.131 243.882,381.68 " /><polygon
     style="fill:#ffffff;stroke:#0000ff;stroke-width:0.17640001;stroke-linecap:round;stroke-linejoin:round"
     transform="matrix(1.0000729,0,0,1.0000729,6.6493777e-5,-0.04192569)"
     id="polygon15"
     points="389.048,241.325 400.813,250.229 438.287,245.777 457.46,250.865 466.175,263.585 470.548,294.114 477.086,317.646 455.294,322.098 450.935,298.566 449.628,278.213 431.758,265.493 406.478,263.585 406.478,303.018 444.397,357.08 447.021,432.758 434.817,432.758 432.202,376.152 393.847,348.168 365.082,318.912 376.849,371.701 340.238,438.483 331.086,438.483 362.03,379.969 321.06,317.003 307.717,318.854 387.104,240.716 " /></g>
</svg>