<?xml version="1.0" encoding="UTF-8" standalone="no"?>
<!-- Generator: Adobe Illustrator 16.0.2, SVG Export Plug-In . SVG Version: 6.00 Build 0)  -->

<svg
   xmlns:dc="http://purl.org/dc/elements/1.1/"
   xmlns:cc="http://creativecommons.org/ns#"
   xmlns:rdf="http://www.w3.org/1999/02/22-rdf-syntax-ns#"
   xmlns:svg="http://www.w3.org/2000/svg"
   xmlns="http://www.w3.org/2000/svg"
   xmlns:sodipodi="http://sodipodi.sourceforge.net/DTD/sodipodi-0.dtd"
   xmlns:inkscape="http://www.inkscape.org/namespaces/inkscape"
   version="1.1"
   id="Layer_1"
   sodipodi:docname="B43.svg"
   inkscape:version="0.48.1 "
   x="0px"
   y="0px"
   width="576"
   height="576"
   viewBox="0 0 575.99998 575.99998"
   xml:space="preserve"
   inkscape:export-filename="C:\Documents and Settings\bertrand.bouteilles\Bureau\Panneaux\A - Route\4_obligation\B43.png"
   inkscape:export-xdpi="150"
   inkscape:export-ydpi="150"><metadata
   id="metadata15"><rdf:RDF><cc:Work
       rdf:about=""><dc:format>image/svg+xml</dc:format><dc:type
         rdf:resource="http://purl.org/dc/dcmitype/StillImage" /><dc:title></dc:title></cc:Work></rdf:RDF></metadata><defs
   id="defs13" />
<sodipodi:namedview
   id="namedview13"
   inkscape:window-height="1174"
   inkscape:window-width="1920"
   inkscape:pageshadow="2"
   inkscape:pageopacity="0"
   inkscape:window-x="1276"
   fit-margin-bottom="0.1"
   fit-margin-right="0.1"
   inkscape:current-layer="Layer_1"
   inkscape:window-y="-4"
   inkscape:window-maximized="1"
   inkscape:zoom="0.40972222"
   inkscape:cx="337.88535"
   bordercolor="#666666"
   fit-margin-left="0.1"
   showgrid="false"
   gridtolerance="10"
   pagecolor="#ffffff"
   guidetolerance="10"
   objecttolerance="10"
   fit-margin-top="0.1"
   inkscape:cy="111.79863"
   borderopacity="1">
	</sodipodi:namedview>
<circle
   id="circle3"
   sodipodi:ry="286.96899"
   sodipodi:rx="286.96899"
   sodipodi:cy="287.62"
   sodipodi:cx="287.62"
   style="fill:#ffffff;stroke:#000000;stroke-width:2.00325704;stroke-linecap:round;stroke-linejoin:round;stroke-miterlimit:4;stroke-dasharray:none"
   cx="287.62"
   cy="287.62"
   r="286.96899"
   transform="matrix(1.000102,0,0,1.000102,0.35065764,0.35065764)">
</circle>
<circle
   id="circle5"
   sodipodi:ry="261.66599"
   sodipodi:rx="261.66599"
   sodipodi:cy="287.62"
   sodipodi:cx="287.62"
   style="fill:#0000ff"
   cx="287.62"
   cy="287.62"
   r="261.66599"
   transform="matrix(1.000102,0,0,1.000102,0.35065764,0.35065764)">
</circle>
<g
   id="g6"
   transform="matrix(1.000102,0,0,1.000102,-5.0488979,-4.5768368)">
	<path
   style="fill:#ffffff"
   d="m 197.994,166.336 c 9.833,1.938 19.187,5.698 28.063,11.279 l 12.233,9.912 c 5.396,6.152 8.874,10.483 10.434,12.988 l 5.577,10.596 c 3.117,8.66 4.795,17.49 5.037,26.489 l -0.899,12.988 -3.058,9.57 c -3.48,8.203 -8.877,16.521 -16.19,24.951 l 0.899,2.222 8.635,9.058 5.577,8.032 5.037,11.963 c 2.757,8.318 4.138,16.465 4.138,24.438 0,16.179 -5.698,31.56 -17.09,46.143 -17.27,19.712 -39.639,30.022 -67.1,30.933 -9.956,0 -18.169,-0.568 -24.646,-1.709 -8.396,-2.163 -14.333,-3.986 -17.81,-5.469 l -10.793,-5.127 -9.175,-6.323 -8.275,-7.007 -8.455,-10.425 C 95.214,374.206 91.737,366.97 89.699,360.134 l -0.18,-1.538 47.312,-12.305 c 2.277,8.545 7.975,15.039 17.09,19.482 5.636,2.165 13.97,3.362 25.005,3.589 l 8.455,-0.854 6.836,-2.051 5.217,-2.905 c 3.598,-2.277 6.836,-5.64 9.714,-10.083 1.439,-2.847 2.519,-6.722 3.238,-11.621 0.239,-3.987 0,-6.265 -0.72,-6.836 0.239,-1.821 -0.602,-4.614 -2.519,-8.374 l -4.497,-5.981 c -3.238,-3.076 -6.057,-5.183 -8.455,-6.323 -2.999,-1.594 -7.016,-2.905 -12.053,-3.931 l -19.608,-0.513 v -46.313 c 2.637,0.229 7.854,-0.112 15.651,-1.025 l 0.36,0.342 c 14.271,-1.594 23.265,-8.999 26.984,-22.217 l -0.36,-7.69 0.36,-1.196 -0.72,-2.393 -3.418,-6.323 c -3.359,-3.987 -6.417,-6.606 -9.174,-7.861 -0.481,-0.342 -4.56,-1.367 -12.233,-3.076 l -11.333,0.342 v -0.342 l -11.153,1.709 -7.915,3.247 -3.238,2.393 -3.598,4.956 -2.699,6.323 -46.772,-13.33 3.058,-7.69 1.08,-1.025 c -0.242,-0.569 1.138,-3.418 4.137,-8.545 l 5.037,-7.69 7.196,-7.861 c 2.637,-1.367 3.958,-2.393 3.958,-3.076 l 3.778,-2.563 c 9.354,-6.606 20.266,-10.823 32.741,-12.646 6.234,-0.911 13.731,-1.367 22.486,-1.367 6.354,-0.004 12.771,0.453 19.247,1.363 z"
   id="path8"
   inkscape:connector-curvature="0" />
	<path
   style="fill:#ffffff"
   d="m 304.75,319.12 c -0.359,-6.379 -0.54,-12.646 -0.54,-18.799 0,-3.076 0.06,-6.152 0.181,-9.229 0.359,-12.075 1.377,-23.811 3.058,-35.205 v -1.196 l 0.72,-1.538 1.259,-11.792 0.899,-1.709 1.799,-9.57 0.72,-1.025 c 1.8,-8.203 5.694,-17.432 11.693,-27.686 l 5.217,-7.52 10.074,-9.741 c 10.673,-8.203 24.524,-14.07 41.556,-17.603 5.396,-0.911 10.973,-1.367 16.729,-1.367 h 1.438 c 8.995,0.229 18.408,1.653 28.244,4.272 4.076,0.457 10.613,3.02 19.607,7.69 9.234,5.469 17.631,12.932 25.186,22.388 l 5.757,8.374 4.677,9.399 1.979,6.836 0.541,0.513 v 1.709 c 1.197,2.393 1.916,4.272 2.158,5.64 l 0.719,0.854 3.059,15.21 0.54,0.342 -0.36,2.222 0.721,1.367 1.799,18.286 0.719,1.709 -0.539,0.171 1.259,10.767 -0.36,0.342 c 0.479,1.14 0.479,1.824 0,2.051 l 0.541,1.709 -0.36,0.513 0.899,11.621 -0.359,0.342 0.539,4.956 -0.18,0.342 v 6.836 c -0.121,4.217 -0.48,9.287 -1.08,15.21 l -0.898,6.323 0.359,0.342 -0.899,1.709 c -0.36,4.217 -1.38,9.229 -3.058,15.039 l -1.08,3.247 -0.18,1.88 -4.678,12.646 -0.898,0.684 c 0,1.141 -1.561,4.614 -4.678,10.425 l -8.635,11.792 c -9.476,10.369 -19.969,17.944 -31.481,22.729 -7.556,2.849 -15.173,4.727 -22.847,5.64 l -13.852,0.854 -3.238,-0.171 c -27.344,-0.684 -49.411,-9.113 -66.2,-25.293 -8.275,-8.771 -14.513,-18.97 -18.709,-30.591 -4.798,-11.849 -7.735,-24.323 -8.815,-37.427 l -0.722,-7.519 z m 89.586,51.611 c 7.436,0.457 12.053,0.342 13.853,-0.342 l 0.18,0.342 9.894,-2.051 c 7.916,-2.505 13.971,-7.918 18.17,-16.235 3.238,-8.315 5.636,-18.228 7.195,-29.736 l 0.9,-38.623 -0.541,-18.115 -1.799,-13.501 -0.719,-0.684 -2.339,-9.57 -0.72,-0.342 c -1.799,-6.836 -5.217,-13.159 -10.254,-18.97 -3.84,-2.961 -6.897,-4.897 -9.174,-5.811 l -10.435,-2.393 -10.974,-0.513 c -4.918,-0.112 -10.375,0.854 -16.37,2.905 -5.518,2.507 -10.136,7.007 -13.852,13.501 -2.64,6.04 -5.037,13.616 -7.196,22.729 l 0.36,1.025 c -0.72,0.571 -1.142,2.451 -1.259,5.64 -1.682,13.33 -1.861,32.871 -0.54,58.618 l 2.878,18.628 3.777,13.159 c 2.758,6.836 6.535,11.792 11.334,14.868 4.32,2.624 10.194,4.446 17.631,5.471 z"
   id="path10"
   inkscape:connector-curvature="0" />
</g>
<polygon
   id="polygon11"
   style="fill:#ff0000"
   points="499.087,133.651 492.598,125.17 483.53,115.049 473.395,104.538 464.594,95.585 446.987,80.715 77.782,444.1 91.179,460.85 116.185,486.184 129.883,497.036 "
   transform="matrix(1.000102,0,0,1.000102,-0.46393032,-0.9049753)" />
</svg>