<?xml version="1.0" encoding="UTF-8" standalone="no"?>
<!-- Generator: Adobe Illustrator 13.0.0, SVG Export Plug-In  -->

<svg
   xmlns:dc="http://purl.org/dc/elements/1.1/"
   xmlns:cc="http://creativecommons.org/ns#"
   xmlns:rdf="http://www.w3.org/1999/02/22-rdf-syntax-ns#"
   xmlns:svg="http://www.w3.org/2000/svg"
   xmlns="http://www.w3.org/2000/svg"
   xmlns:sodipodi="http://sodipodi.sourceforge.net/DTD/sodipodi-0.dtd"
   xmlns:inkscape="http://www.inkscape.org/namespaces/inkscape"
   version="1.1"
   x="0px"
   y="0px"
   width="576"
   height="576"
   viewBox="-0.178 -0.451 576 576"
   enable-background="new -0.178 -0.451 598 598"
   xml:space="preserve"
   id="svg2"
   inkscape:version="0.48.1 "
   sodipodi:docname="B44.svg"
   inkscape:export-filename="C:\Documents and Settings\bertrand.bouteilles\Bureau\Panneaux\A - Route\4_obligation\B44.png"
   inkscape:export-xdpi="150"
   inkscape:export-ydpi="150"><metadata
   id="metadata140"><rdf:RDF><cc:Work
       rdf:about=""><dc:format>image/svg+xml</dc:format><dc:type
         rdf:resource="http://purl.org/dc/dcmitype/StillImage" /><dc:title></dc:title></cc:Work></rdf:RDF></metadata><sodipodi:namedview
   pagecolor="#ffffff"
   bordercolor="#666666"
   borderopacity="1"
   objecttolerance="10"
   gridtolerance="10"
   guidetolerance="10"
   inkscape:pageopacity="0"
   inkscape:pageshadow="2"
   inkscape:window-width="1280"
   inkscape:window-height="964"
   id="namedview138"
   showgrid="false"
   inkscape:zoom="0.69291735"
   inkscape:cx="-33.664943"
   inkscape:cy="177.61471"
   inkscape:window-x="1518"
   inkscape:window-y="100"
   inkscape:window-maximized="1"
   inkscape:current-layer="svg2"
   fit-margin-top="0"
   fit-margin-left="0"
   fit-margin-right="0"
   fit-margin-bottom="0" />
<defs
   id="defs4">
</defs>
<path
   d="M 574.85733,287.55325 C 574.85733,129.0278 446.34745,0.517916 287.822,0.517916 129.29655,0.517916 0.78666577,129.0278 0.78666577,287.55325 c 0,158.52545 128.50988423,287.03533 287.03533423,287.03533 158.52545,0 287.03533,-128.50988 287.03533,-287.03533 l 0,0 0,0 z"
   id="path6"
   inkscape:connector-curvature="0"
   style="fill:#ffffff;stroke:#000000;stroke-width:1.92933154;stroke-linecap:round;stroke-linejoin:round" />
<path
   d="m 549.54836,287.55325 c 0,-144.54745 -117.17988,-261.726363 -261.72636,-261.726363 -144.54745,0 -261.726363,117.178913 -261.726363,261.726363 0,144.54745 117.178913,261.72636 261.726363,261.72636 144.54745,0 261.72636,-117.17891 261.72636,-261.72636 l 0,0 0,0 z"
   id="path8"
   inkscape:connector-curvature="0"
   style="fill:#0000ff;stroke:#0000ff;stroke-width:0.68365866;stroke-linecap:round;stroke-linejoin:round" />






























































<g
   id="g3047"
   transform="translate(-0.178,-21.54475)"><path
     style="fill:#ffffff;stroke:#0000ff;stroke-width:0.68365866;stroke-linecap:round;stroke-linejoin:round"
     inkscape:connector-curvature="0"
     id="path10"
     d="m 314.30933,112.7345 c 77.2514,0 139.87654,88.39425 139.87654,197.43524 0,109.041 -62.62514,197.43525 -139.87654,197.43525 l -55.30139,-2.00747 c -73.05897,-6.5086 -130.8791,-91.73392 -130.8791,-195.91011 0,-105.68685 59.5083,-191.86623 134.06442,-196.1426 l 52.11607,-0.81031 z" /><path
     style="fill:none;stroke:#0000ff;stroke-width:0.68365866;stroke-linecap:round;stroke-linejoin:round"
     inkscape:connector-curvature="0"
     id="path12"
     d="m 340.90131,185.13652 c 0.45049,0.12058 0.90003,0.24888 1.34763,0.3849" /><path
     style="fill:none;stroke:#0000ff;stroke-width:0.68365866;stroke-linecap:round;stroke-linejoin:round"
     inkscape:connector-curvature="0"
     id="path14"
     d="m 343.03225,185.50406 c 32.12434,9.92544 57.5645,62.0608 59.04334,125.46732 1.65922,71.10551 -27.44282,129.45815 -65.00111,130.33406 -37.55926,0.87688 -69.35175,-56.0548 -71.01001,-127.16031 -1.65923,-71.10551 27.44281,-129.45814 65.00207,-130.33503 3.60495,-0.0839 7.15878,0.36465 10.63544,1.30713" /><path
     style="fill:#0000ff;stroke:#0000ff;stroke-width:0.68365866;stroke-linecap:round;stroke-linejoin:round"
     inkscape:connector-curvature="0"
     id="path16"
     d="m 352.39144,438.33041 c 27.96277,-18.88622 47.1326,-67.94334 45.80233,-125.01586 -1.6216,-69.3585 -32.93369,-125.48275 -71.08622,-129.62503 l 6.97743,0.58845 c 38.1506,4.01879 69.43085,58.73464 71.01001,126.37797 1.29844,55.65832 -17.90034,103.51249 -45.87275,121.94725 l -6.8308,5.72722 z" /><path
     style="fill:none;stroke:#0000ff;stroke-width:2.89399719;stroke-linecap:round;stroke-linejoin:round;stroke-dasharray:11.5759892"
     inkscape:connector-curvature="0"
     id="path18"
     d="M 325.21873,501.1726 C 255.64607,499.86162 199.5141,414.85238 199.5141,310.17553 c 0,-105.49199 57.01079,-191.01057 127.33588,-191.01057" /><path
     style="fill:none"
     inkscape:connector-curvature="0"
     id="path20"
     d="m 314.29679,191.92777 c -29.649,21.57764 -50.14815,67.84976 -50.14815,121.45913 0,50.11343 17.91481,93.81568 44.47109,116.92811 24.12533,-27.7544 39.77606,-72.3837 39.77606,-122.71803 -9.6e-4,-46.26826 -13.22556,-87.71706 -34.099,-115.66921 z" /><path
     style="opacity:0.27999998;fill:#ffffff;stroke:#0000ff;stroke-width:0.68365866;stroke-linecap:round;stroke-linejoin:round"
     inkscape:connector-curvature="0"
     id="path22"
     d="m 314.29679,191.92777 c -29.649,21.57764 -50.14815,67.84976 -50.14815,121.45913 0,50.11343 17.91481,93.81568 44.47109,116.92811 24.12533,-27.7544 39.77606,-72.3837 39.77606,-122.71803 -9.6e-4,-46.26826 -13.22556,-87.71706 -34.099,-115.66921 z" /><path
     style="fill:#0000ff"
     inkscape:connector-curvature="0"
     id="path24"
     d="m 314.29679,187.42567 c -30.7902,21.98473 -52.07748,69.13084 -52.07748,123.75311 0,51.06073 18.60358,95.58777 46.18144,119.13623" /><path
     style="fill:#0000ff"
     inkscape:connector-curvature="0"
     id="path26"
     d="m 307.33287,430.95747 c 27.63478,-28.27821 45.56309,-73.75062 45.56309,-125.03515 0,-47.14225 -15.14911,-89.37242 -39.05932,-117.85322" /><path
     style="opacity:0.98999999;fill:#0000ff;stroke:#ffffff;stroke-width:0.96466577"
     inkscape:connector-curvature="0"
     id="path28"
     d="m 190.83211,157.75159 h 6.85974 l 0.85759,-1.2859 -1.92933,-5.14456 -19.29332,-1.92934 -12.21942,6.43143 -3.85866,16.07809 20.57921,1.28589 9.00323,-5.14456 0.75051,-1.12576 h -0.75051 v -9.16529 z m -6.20955,6.45458 -3.88953,2.22259 -8.8894,-0.55565 1.66694,-6.94559 5.27865,-2.77824 8.33472,0.83347 0.83347,2.22259 -3.33485,5.00083 z" /><path
     style="fill:#0000ff;stroke:#0000ff;stroke-width:0.96466577"
     inkscape:connector-curvature="0"
     id="path30"
     d="m 236.1714,152.28579 -19.29331,-1.92933 -12.21942,6.43143 -0.23152,0.96466 h -6.73627 -6.85973 v 9.16433 h 0.75051 10.64605 l -1.42771,5.94909 20.57922,1.2859 9.00322,-5.14456 7.71733,-11.57599 -1.92837,-5.14553 z m -11.99755,12.88504 -3.88953,2.22259 -8.88939,-0.55565 1.66694,-6.94559 5.27865,-2.77824 8.33471,0.83348 0.83347,2.22258 -3.33485,5.00083 z" /><path
     style="opacity:0.98999999;fill:#0000ff;stroke:#ffffff;stroke-width:0.96466577"
     inkscape:connector-curvature="0"
     id="path32"
     d="m 156.91253,240.84886 6.41985,-0.3386 0.72543,-1.50198 -2.11358,-5.74266 -18.17334,-1.23766 -11.05121,7.90061 -2.64994,18.43573 19.33769,0.44374 8.1196,-6.28286 0.63475,-1.31388 -0.70228,0.0367 -0.54697,-10.3991 z m -5.42528,7.63051 -3.50752,2.7136 -8.35304,-0.19197 1.14409,-7.96331 4.77413,-3.41299 7.85045,0.53443 0.91258,2.48112 -2.82069,5.83912 z" /><path
     style="fill:#0000ff;stroke:#0000ff;stroke-width:0.96466577"
     inkscape:connector-curvature="0"
     id="path34"
     d="m 199.02019,232.40804 -18.17333,-1.23767 -11.05122,7.90061 -0.15916,1.10551 -6.30506,0.33184 -6.41985,0.3386 0.54793,10.40006 0.70228,-0.0367 9.96403,-0.52575 -0.9801,6.82116 19.33769,0.44374 8.11863,-6.28287 6.53078,-13.51689 -2.11262,-5.74169 z m -10.45794,15.2147 -3.50752,2.71457 -8.35304,-0.19196 1.14409,-7.96428 4.77413,-3.41299 7.85142,0.53442 0.91257,2.48112 -2.82165,5.83912 z" /><path
     style="opacity:0.98999999;fill:#0000ff;stroke:#ffffff;stroke-width:0.96466577"
     inkscape:connector-curvature="0"
     id="path36"
     d="m 190.1472,452.02481 h 0.75051 l -0.75051,-1.1248 -9.00323,-5.14553 -20.57921,1.28687 3.85866,16.07712 12.21942,6.43046 19.29332,-1.92933 1.92933,-5.1436 -0.85759,-1.28687 h -6.85974 v -9.16432 z m -2.87567,7.71057 -0.83347,2.22259 -8.33471,0.83347 -5.27865,-2.77823 -1.66695,-6.9456 8.8894,-0.55564 3.88953,2.22259 3.33485,5.00082 z" /><path
     style="opacity:0.98999999;fill:#0000ff;stroke:#ffffff;stroke-width:0.96466577"
     inkscape:connector-curvature="0"
     id="path38"
     d="m 156.14562,363.94118 0.70132,0.0521 -0.60774,-1.32642 -7.98647,-6.44975 -19.34251,0.0424 2.266,18.48589 10.88528,8.12828 18.19457,-0.86048 2.23223,-5.69635 -0.69456,-1.51742 -6.41117,-0.47076 0.76305,-10.38752 z m -3.33002,8.54115 -0.9637,2.46279 -7.8601,0.37043 -4.70275,-3.51042 -0.97913,-7.9855 8.35593,-0.0193 3.45061,2.78595 2.69914,5.89604 z" /><path
     style="fill:#0000ff;stroke:#0000ff;stroke-width:0.96466577"
     inkscape:connector-curvature="0"
     id="path40"
     d="m 199.53822,377.94234 -6.2491,-13.64906 -7.98647,-6.45072 -19.34348,0.0434 0.83926,6.83948 -9.95053,-0.73218 -0.70131,-0.0521 -0.76402,10.38752 6.41117,0.47076 6.29638,0.46304 0.13601,1.10936 10.88433,8.12731 18.19456,-0.85952 2.2332,-5.69731 z m -9.67367,-3.83358 -0.9637,2.46182 -7.8601,0.3714 -4.70274,-3.51138 -0.97914,-7.98551 8.35594,-0.0203 3.45061,2.78692 2.69913,5.89701 z" /><polygon
     style="fill:#0000ff;stroke:#0000ff;stroke-width:0.7087;stroke-linecap:round;stroke-linejoin:round"
     transform="matrix(0.96466577,0,0,0.96466577,0,21.098)"
     id="polygon42"
     points="289.822,165.659 335.822,137.659 336.489,146.326 295.822,171.659 " /><polygon
     style="fill:#0000ff;stroke:#0000ff;stroke-width:0.7087;stroke-linecap:round;stroke-linejoin:round"
     transform="matrix(0.96466577,0,0,0.96466577,0,21.098)"
     id="polygon44"
     points="276.039,183.386 251.822,238.326 259.822,240.326 285.156,188.326 " /><polyline
     style="fill:#0000ff;stroke:#0000ff;stroke-width:0.7087;stroke-linecap:round;stroke-linejoin:round"
     transform="matrix(0.96466577,0,0,0.96466577,0,21.098)"
     id="polyline46"
     points="  249.943,255.356 247.822,340.992 254.489,339.659 255.822,260.326 " /><polygon
     style="fill:#0000ff;stroke:#0000ff;stroke-width:0.7087;stroke-linecap:round;stroke-linejoin:round"
     transform="matrix(0.96466577,0,0,0.96466577,0,21.098)"
     id="polygon48"
     points="251.822,362.326 272.372,417.748 280.489,414.992 258.489,359.659 " /><polyline
     style="fill:#0000ff"
     transform="matrix(0.96466577,0,0,0.96466577,0,21.098)"
     id="polyline50"
     points="287.822,433.659 332.489,462.992 334.489,453.659 293.822,428.326 " /><polygon
     style="fill:#0000ff;stroke:#0000ff;stroke-width:0.7087;stroke-linecap:round;stroke-linejoin:round"
     transform="matrix(0.96466577,0,0,0.96466577,0,21.098)"
     id="polygon52"
     points="435.392,260.03 433.822,338.992 441.156,343.659 441.156,260.993 " /><polygon
     style="fill:#0000ff;stroke:#0000ff;stroke-width:0.7087;stroke-linecap:round;stroke-linejoin:round"
     transform="matrix(0.96466577,0,0,0.96466577,0,21.098)"
     id="polygon54"
     points="406.111,179.019 432.489,244.993 440.489,242.993 411.822,177.659 " /><polyline
     style="fill:#0000ff"
     transform="matrix(0.96466577,0,0,0.96466577,0,21.098)"
     id="polyline56"
     points="394.489,170.325 353.156,144.993 353.156,136.993 396.489,165.659 " /><path
     style="fill:#0000ff;stroke:#0000ff;stroke-width:0.96466577"
     inkscape:connector-curvature="0"
     id="path58"
     d="m 235.20674,459.85404 -7.71733,-11.57599 -9.00323,-5.14553 -20.57921,1.28686 1.42771,5.94813 h -10.64606 -0.75051 v 9.16433 h 6.85974 6.73626 l 0.23152,0.96466 12.21942,6.43047 19.29332,-1.92934 1.92837,-5.14359 z m -10.593,-2.74062 -0.83347,2.22259 -8.33471,0.83347 -5.27865,-2.77824 -1.66695,-6.94559 8.8894,-0.55565 3.88953,2.22259 3.33485,5.00083 z" /><path
     style="fill:#0000ff;stroke:#ffffff;stroke-width:0.68365866;stroke-linecap:round;stroke-linejoin:round"
     inkscape:connector-curvature="0"
     id="path60"
     d="m 230.38341,495.86694 c 13.23135,16.06651 33.8588,13.42718 53.37013,14.43622 9.42672,0.48812 51.26138,5.24585 55.6371,-5.2719 -16.37906,3.1178 -34.81961,2.14542 -51.35109,0.87303 -19.23254,-1.47884 -40.90183,0.0154 -57.65614,-10.03735" /><path
     style="fill:#0000ff;stroke:#0000ff;stroke-width:0.68365866;stroke-linecap:round;stroke-linejoin:round"
     inkscape:connector-curvature="0"
     id="path62"
     d="m 224.91761,357.1152 c -6.18061,-4.98732 -15.86007,1.32738 -21.22265,3.85867 -4.5291,5.72239 -5.38187,17.33118 1.92934,22.18731 6.8742,4.56673 16.54787,-2.79367 21.92588,-5.90665 4.57348,-2.64801 0.17075,-17.87622 -2.63257,-20.13933 z m -2.4406,17.21253 c -3.22585,1.86856 -9.02927,6.28384 -13.15515,3.54419 -4.38634,-2.91426 -3.87506,-9.87915 -1.1576,-13.31336 3.21716,-1.51838 9.02541,-5.30759 12.73359,-2.31423 1.68334,1.35729 4.3246,10.4946 1.57916,12.0834 z" /><path
     style="fill:#0000ff;stroke:#0000ff;stroke-width:0.68365866;stroke-linecap:round;stroke-linejoin:round"
     inkscape:connector-curvature="0"
     id="path64"
     d="m 252.85047,349.40849 c -5.00468,-4.92076 -13.99633,-0.10129 -18.89876,1.71035 -4.43264,4.7095 -6.12756,14.93399 -0.12252,19.8316 5.64716,4.60242 14.71887,-1.14409 19.68111,-3.47087 4.22235,-1.97949 1.61003,-15.83885 -0.65983,-18.07108 z m -3.54225,15.06808 c -2.97696,1.3949 -8.42057,4.84358 -11.80847,2.08078 -3.60303,-2.93741 -2.58627,-9.07364 0.0743,-11.90012 2.9403,-1.08621 8.33664,-3.97828 11.33868,-1.02543 1.36211,1.33992 2.92872,9.6563 0.39551,10.84477 z" /><polygon
     style="fill:#0000ff"
     transform="matrix(0.96466577,0,0,0.96466577,0,21.098)"
     id="polygon66"
     points="233.822,354.992 240.822,351.326 243.156,358.992 235.489,361.326 " /><path
     style="fill:#0000ff;stroke:#0000ff;stroke-width:0.68365866;stroke-linecap:round;stroke-linejoin:round"
     inkscape:connector-curvature="0"
     id="path68"
     d="m 255.3914,432.0514 c -7.18676,-3.38115 -15.09412,5.04714 -19.70426,8.7775 -3.04449,6.63208 -1.12191,18.11256 7.13177,21.0982 7.76074,2.80815 15.4144,-6.634 19.90202,-10.93352 3.81526,-3.65608 -4.06992,-17.40836 -7.32953,-18.94218 z m 1.70746,17.29936 c -2.69142,2.57951 -7.28323,8.24403 -11.94063,6.56069 -4.95163,-1.79139 -6.10537,-8.68006 -4.27926,-12.66028 2.7657,-2.23706 7.51185,-7.2948 11.82294,-5.26514 1.95635,0.92029 6.68803,9.17108 4.39695,11.36473 z" /><path
     style="fill:#0000ff;stroke:#0000ff;stroke-width:0.68365866;stroke-linecap:round;stroke-linejoin:round"
     inkscape:connector-curvature="0"
     id="path70"
     d="m 280.70327,417.9451 c -6.0282,-3.59435 -13.62205,3.21812 -17.95533,6.14009 -3.19111,5.62497 -2.41359,15.9604 4.58024,19.29525 6.57612,3.1342 14.02817,-4.59856 18.29874,-8.0347 3.63197,-2.9239 -2.18979,-15.76939 -4.92365,-17.40064 z m 0.12926,15.47902 c -2.56118,2.06053 -7.03337,6.69961 -10.97982,4.81947 -4.19533,-1.99975 -4.66223,-8.20255 -2.74834,-11.57888 2.59978,-1.75183 7.15686,-5.84105 10.77339,-3.68213 1.6409,0.97721 5.13395,8.68585 2.95477,10.44154 z" /><polygon
     style="fill:#0000ff"
     transform="matrix(0.96466577,0,0,0.96466577,0,21.098)"
     id="polygon72"
     points="266.973,432.325 272.905,427.104 276.989,434 270.093,438.084 " /><path
     style="fill:#0000ff;stroke:#0000ff;stroke-width:0.68365866;stroke-linecap:round;stroke-linejoin:round"
     inkscape:connector-curvature="0"
     id="path74"
     d="m 321.23756,481.21945 c -6.75556,4.17604 -4.00819,15.40186 -3.39948,21.29982 3.89532,6.17097 14.56452,10.82741 21.57089,5.54104 6.58867,-4.96995 2.85444,-16.53823 1.70167,-22.64456 -0.98107,-5.1928 -16.80834,-6.0909 -19.87308,-4.1963 z m 15.42886,8.00962 c 0.69263,3.6638 2.93162,10.60361 -1.02061,13.58636 -4.20402,3.17278 -10.60554,0.37911 -12.94389,-3.32328 -0.36561,-3.53936 -2.01326,-10.27562 2.04123,-12.78085 1.83866,-1.13734 11.33386,-0.5981 11.92327,2.51777 z" /><path
     style="fill:#0000ff;stroke:#0000ff;stroke-width:0.68365866;stroke-linecap:round;stroke-linejoin:round"
     inkscape:connector-curvature="0"
     id="path76"
     d="m 323.23345,452.31132 c -6.30216,3.08885 -4.7394,13.16961 -4.65547,18.39521 2.97213,5.74458 12.05639,10.7348 18.66821,6.69381 6.21534,-3.79982 3.80367,-14.26451 3.25478,-19.71873 -0.46786,-4.63811 -14.40921,-6.77099 -17.26752,-5.37029 z m 13.04035,8.33953 c 0.32896,3.27118 1.77595,9.54826 -1.95441,11.83066 -3.96574,2.42421 -9.41803,-0.57108 -11.20073,-4.01687 -0.0502,-3.13516 -0.98782,-9.18458 2.79367,-11.03674 1.71421,-0.84312 10.08076,0.43893 10.36147,3.22295 z" /><polygon
     style="fill:#0000ff"
     transform="matrix(0.96466577,0,0,0.96466577,0,21.098)"
     id="polygon78"
     points="339.515,478.558 338.379,470.738 346.385,471.079 346.043,479.086 " /><path
     style="fill:none;stroke:#ffffff;stroke-width:0.96466577"
     inkscape:connector-curvature="0"
     id="path80"
     d="m 392.84277,436.70592 c 1.21837,-3.27794 -2.79464,-6.51343 -4.61882,-8.40803 -1.55215,-1.61196 -7.44818,1.71614 -8.11091,3.09272 -1.4634,3.03484 2.11648,6.37644 3.69853,8.32506 2.8255,1.2859 7.73469,0.47462 9.0312,-3.00975 z" /><path
     style="fill:none;stroke:#ffffff;stroke-width:0.96466577"
     inkscape:connector-curvature="0"
     id="path82"
     d="m 402.59843,446.08247 c -1.911,-1.6708 -8.15142,2.68273 -8.74566,4.30723 -1.31098,3.57988 3.0551,7.00347 5.0346,9.04953 3.30108,1.17303 8.70707,-0.23441 9.7846,-4.3082 1.01097,-3.82876 -3.82876,-7.0874 -6.07354,-9.04856 z" /><path
     style="fill:#0000ff;stroke:#ffffff;stroke-width:0.96466577"
     inkscape:connector-curvature="0"
     id="path84"
     d="m 403.50811,441.48487 c -1.35535,-1.18461 -4.01976,-0.546 -6.70925,0.78427 l -1.1055,-1.53864 c 0.59037,-0.69166 1.08525,-1.47304 1.42191,-2.37693 2.03063,-5.46291 -4.6574,-10.85249 -7.69803,-14.01274 -2.5882,-2.68659 -12.41042,2.86216 -13.5169,5.15807 -2.43771,5.05774 3.52682,10.62579 6.16325,13.87189 2.41167,1.09779 5.73012,1.27143 8.68778,0.40806 l 1.45954,1.38719 c -1.68816,1.31484 -2.96152,2.63932 -3.27697,3.50173 -2.18496,5.96646 5.09151,11.67053 8.3897,15.08062 5.50053,1.95634 14.5134,-0.38972 16.30768,-7.17711 1.68623,-6.38416 -6.37934,-11.81426 -10.12321,-15.08641 z m -19.69654,-1.7692 c -1.58205,-1.94862 -5.16193,-5.29022 -3.69853,-8.32506 0.66369,-1.37658 6.55876,-4.70468 8.11091,-3.09272 1.82418,1.8946 5.83719,5.12913 4.61882,8.40803 -1.29651,3.48437 -6.2057,4.29565 -9.0312,3.00975 z m 24.85944,15.41536 c -1.07657,4.07379 -6.48352,5.48123 -9.78461,4.3082 -1.97949,-2.04606 -6.34557,-5.46965 -5.03459,-9.04953 0.59423,-1.6245 6.83466,-5.97803 8.74566,-4.30723 2.24574,1.96116 7.08547,5.2198 6.07354,9.04856 z" /><path
     style="fill:#0000ff;stroke:#ffffff;stroke-width:0.68365866;stroke-linecap:round;stroke-linejoin:round"
     inkscape:connector-curvature="0"
     id="path86"
     d="m 424.1973,369.0076 c 0.0193,6.35329 8.82283,9.18073 13.09823,11.23546 5.8372,-0.0723 13.47735,-5.39923 12.80691,-12.38727 -0.62993,-6.57227 -10.07883,-8.86914 -14.72563,-10.6393 -3.9503,-1.50488 -11.18723,8.90966 -11.17951,11.79111 z m 11.92134,-7.16264 c 2.78596,1.06113 8.45626,2.43867 8.83344,6.38223 0.40227,4.1934 -4.18086,7.38741 -7.68452,7.43178 -2.56505,-1.23187 -7.84756,-2.92872 -7.85817,-6.74108 -0.006,-1.72965 4.33714,-7.97779 6.70925,-7.07293 z" /><path
     style="fill:#0000ff;stroke:#0000ff;stroke-width:0.68365866;stroke-linecap:round;stroke-linejoin:round"
     inkscape:connector-curvature="0"
     id="path88"
     d="m 405.32651,355.54762 c -0.53346,5.58927 6.99286,8.74277 10.59106,10.87275 5.16193,0.37911 12.36509,-3.7265 12.3786,-9.92352 0.0116,-5.82947 -8.13117,-8.5643 -12.07955,-10.47434 -3.35993,-1.6216 -10.64894,6.98804 -10.89011,9.52511 z m 11.14382,-5.39827 c 2.36729,1.1441 7.25332,2.78692 7.2485,6.28383 -0.01,3.71879 -4.33232,6.18158 -7.42793,5.95585 -2.15892,-1.27915 -6.67549,-3.17278 -6.35618,-6.52693 0.1447,-1.52128 4.51946,-6.68706 6.53561,-5.71275 z" /><polygon
     style="fill:#0000ff"
     transform="matrix(0.96466577,0,0,0.96466577,0,21.098)"
     id="polygon90"
     points="443.539,356.879 437.732,354.38 441.317,349.064 446.633,352.649 " /><path
     style="fill:#0000ff;stroke:#ffffff;stroke-width:0.68365866;stroke-linecap:round;stroke-linejoin:round"
     inkscape:connector-curvature="0"
     id="path92"
     d="m 223.63075,124.00179 c 13.23135,-16.06651 33.85977,-13.42718 53.36917,-14.43622 9.42671,-0.48812 51.26234,-5.24585 55.63806,5.2719 -16.37906,-3.1178 -34.81961,-2.14542 -51.35109,-0.87303 -19.23254,1.47884 -40.90183,-0.0154 -57.65614,10.03735" /><path
     style="fill:#0000ff;stroke:#0000ff;stroke-width:0.68365866;stroke-linecap:round;stroke-linejoin:round"
     inkscape:connector-curvature="0"
     id="path94"
     d="m 231.08665,244.83486 c -5.37801,-3.11394 -15.05072,-10.47338 -21.92589,-5.90665 -7.3112,4.85613 -6.45844,16.46492 -1.92933,22.18731 5.36258,2.53129 15.04203,8.84599 21.22265,3.85867 2.80428,-2.26214 7.20701,-17.49132 2.63257,-20.13933 z m -6.65041,15.01116 c -3.70817,2.9924 -9.51642,-0.79584 -12.73358,-2.31423 -2.71747,-3.43421 -3.22874,-10.3991 1.15759,-13.31335 4.12491,-2.73965 9.92931,1.67562 13.15515,3.54418 2.74448,1.58881 0.10322,10.72516 -1.57916,12.0834 z" /><path
     style="fill:#0000ff;stroke:#0000ff;stroke-width:0.68365866;stroke-linecap:round;stroke-linejoin:round"
     inkscape:connector-curvature="0"
     id="path96"
     d="m 257.04773,254.60982 c -4.9632,-2.32677 -14.03395,-8.07329 -19.68111,-3.47087 -6.00504,4.89664 -4.31012,15.1221 0.12252,19.83064 4.90243,1.8126 13.89408,6.63207 18.89876,1.71035 2.26986,-2.23224 4.88218,-16.08966 0.65983,-18.07012 z m -4.59759,13.84681 c -3.00204,2.95477 -8.39838,0.0617 -11.33868,-1.02544 -2.65959,-2.82647 -3.67731,-8.96271 -0.0743,-11.89915 3.38887,-2.76184 8.83151,0.68588 11.80847,2.08078 2.53321,1.18944 0.9666,9.50582 -0.39551,10.84381 z" /><polygon
     style="fill:#0000ff"
     transform="matrix(0.96466577,0,0,0.96466577,0,21.098)"
     id="polygon98"
     points="237.489,246.142 244.489,249.808 246.823,242.142 239.156,239.808 " /><path
     style="fill:#0000ff;stroke:#0000ff;stroke-width:0.68365866;stroke-linecap:round;stroke-linejoin:round"
     inkscape:connector-curvature="0"
     id="path100"
     d="m 266.25836,171.09677 c -4.48762,-4.29951 -12.14128,-13.74166 -19.90202,-10.93352 -8.25271,2.98564 -10.17626,14.46613 -7.13177,21.09821 4.61014,3.7294 12.51847,12.15864 19.70426,8.77749 3.25961,-1.53382 11.14479,-15.28609 7.32953,-18.94218 z m -10.01902,13.00659 c -4.31109,2.02966 -9.05724,-3.02808 -11.82294,-5.26514 -1.82611,-3.98021 -0.67237,-10.86889 4.27926,-12.66028 4.6574,-1.68334 9.24921,3.98118 11.94063,6.5607 2.29108,2.19365 -2.4406,10.44443 -4.39695,11.36472 z" /><path
     style="fill:#0000ff;stroke:#0000ff;stroke-width:0.68365866;stroke-linecap:round;stroke-linejoin:round"
     inkscape:connector-curvature="0"
     id="path102"
     d="m 289.16339,186.74365 c -4.26961,-3.4371 -11.72069,-11.1689 -18.29875,-8.0347 -6.99382,3.33485 -7.77038,13.67028 -4.57927,19.29525 4.33328,2.92197 11.92713,9.73444 17.95436,6.14009 2.73387,-1.63125 8.55659,-14.47577 4.92366,-17.40064 z m -7.74723,12.36412 c -3.61654,2.15796 -8.17362,-1.93029 -10.77339,-3.68213 -1.9139,-3.37633 -1.44796,-9.57913 2.74737,-11.57888 3.94741,-1.88013 8.41864,2.75895 10.98079,4.81947 2.17821,1.75473 -1.31388,9.46337 -2.95477,10.44154 z" /><polygon
     style="fill:#0000ff"
     transform="matrix(0.96466577,0,0,0.96466577,0,21.098)"
     id="polygon104"
     points="270.64,168.809 276.572,174.03 280.655,167.134 273.76,163.05 " /><path
     style="fill:#0000ff;stroke:#ffffff;stroke-width:0.68365866;stroke-linecap:round;stroke-linejoin:round"
     inkscape:connector-curvature="0"
     id="path106"
     d="m 344.6471,136.67364 c 1.15278,-6.10633 4.887,-17.67364 -1.70167,-22.64456 -7.00733,-5.28541 -17.67557,-0.62993 -21.57089,5.54104 -0.6087,5.89796 -3.35607,17.12378 3.39948,21.29982 3.06571,1.89557 18.89298,0.9965 19.87308,-4.1963 z m -16.36555,-1.29555 c -4.05449,-2.50523 -2.40684,-9.24149 -2.04123,-12.78085 2.33835,-3.70239 8.73987,-6.49606 12.94388,-3.32328 3.95224,2.98275 1.71228,9.92256 1.02062,13.58636 -0.59038,3.11587 -10.08558,3.65512 -11.92327,2.51777 z" /><path
     style="fill:#0000ff;stroke:#0000ff;stroke-width:0.68365866;stroke-linecap:round;stroke-linejoin:round"
     inkscape:connector-curvature="0"
     id="path108"
     d="m 344.0384,164.40778 c 0.54889,-5.45422 2.96056,-15.91891 -3.25478,-19.71873 -6.61182,-4.04002 -15.69608,0.94923 -18.66822,6.69381 -0.0839,5.2256 -1.64668,15.30636 4.65548,18.39522 2.85831,1.40166 16.79966,-0.73122 17.26752,-5.3703 z m -14.58864,0.25467 c -3.78246,-1.85215 -2.84384,-7.90157 -2.79367,-11.03674 1.78366,-3.44578 7.23499,-6.44107 11.20073,-4.01687 3.73036,2.28144 2.28336,8.55948 1.95441,11.83067 -0.28071,2.78402 -8.64726,4.0651 -10.36147,3.22294 z" /><polygon
     style="fill:#0000ff"
     transform="matrix(0.96466577,0,0,0.96466577,0,21.098)"
     id="polygon110"
     points="343.182,122.577 342.046,130.396 350.052,130.055 349.71,122.048 " /><path
     style="fill:#0000ff;stroke:#ffffff;stroke-width:0.68365866;stroke-linecap:round;stroke-linejoin:round"
     inkscape:connector-curvature="0"
     id="path112"
     d="m 407.04554,180.60452 c 3.74387,-3.27215 11.80944,-8.70225 10.12224,-15.08544 -1.79428,-6.78739 -10.80715,-9.13442 -16.30767,-7.17712 -3.2982,3.4101 -10.57467,9.11417 -8.3897,15.08062 0.99167,2.70589 11.39077,9.96404 14.57513,7.18194 z m -9.6563,-8.90387 c -1.31098,-3.57987 3.0551,-7.00347 5.03459,-9.04952 3.30109,-1.17304 8.70707,0.23441 9.7846,4.30819 1.0129,3.82876 -3.82779,7.0874 -6.07257,9.04857 -1.91196,1.6708 -8.15142,-2.6837 -8.74662,-4.30724 z" /><path
     style="fill:#0000ff;stroke:#0000ff;stroke-width:0.68365866;stroke-linecap:round;stroke-linejoin:round"
     inkscape:connector-curvature="0"
     id="path114"
     d="m 392.95467,197.74952 c 3.04063,-3.16024 9.72962,-8.54983 7.69803,-14.01273 -2.16085,-5.80825 -10.34314,-7.16071 -15.05264,-5.01626 -2.63547,3.2461 -8.60096,8.81415 -6.16325,13.87189 1.10647,2.29494 10.92966,7.8437 13.51786,5.1571 z m -9.3042,-7.05074 c -1.4634,-3.03484 2.11648,-6.37644 3.69853,-8.32506 2.8255,-1.2859 7.73469,-0.47462 9.0312,3.00975 1.21837,3.27794 -2.79464,6.51343 -4.61882,8.40803 -1.55215,1.61196 -7.44722,-1.71614 -8.11091,-3.09272 z" /><polygon
     style="fill:#0000ff"
     transform="matrix(0.96466577,0,0,0.96466577,0,21.098)"
     id="polygon116"
     points="411.723,160.125 407.144,164.483 412.349,168.225 416.092,163.019 " /><path
     style="fill:#0000ff;stroke:#ffffff;stroke-width:0.68365866;stroke-linecap:round;stroke-linejoin:round"
     inkscape:connector-curvature="0"
     id="path118"
     d="m 438.91521,264.8729 c 4.64583,-1.77113 14.09473,-4.06703 14.72562,-10.64027 0.66948,-6.98803 -6.97068,-12.31492 -12.8069,-12.38727 -4.27637,2.0557 -13.07991,4.88314 -13.09824,11.23546 -0.009,2.88242 7.22825,13.29792 11.17952,11.79208 z m -5.96839,-11.70043 c 0.0116,-3.81236 5.29312,-5.50921 7.85817,-6.74109 3.50366,0.0444 8.08679,3.23839 7.68452,7.43179 -0.37814,3.94355 -6.04845,5.32206 -8.83344,6.38223 -2.37211,0.90389 -6.71504,-5.34329 -6.70925,-7.07293 z" /><path
     style="fill:#0000ff;stroke:#0000ff;stroke-width:0.68365866;stroke-linecap:round;stroke-linejoin:round"
     inkscape:connector-curvature="0"
     id="path120"
     d="m 419.75309,276.06688 c 3.94934,-1.91004 12.09112,-4.6439 12.07954,-10.47338 -0.0135,-6.19701 -7.21666,-10.30263 -12.37859,-9.92448 -3.59724,2.13095 -11.12356,5.28444 -10.59107,10.87371 0.24214,2.53515 7.53115,11.14575 10.89012,9.52415 z m -6.28191,-9.83959 c -0.3193,-3.35414 4.19726,-5.24682 6.35619,-6.52597 3.09561,-0.22573 7.41827,2.2361 7.42792,5.95489 0.005,3.49691 -4.88121,5.13974 -7.2485,6.28383 -2.01518,0.97431 -6.38994,-4.19147 -6.53561,-5.71275 z" /><polygon
     style="fill:#0000ff"
     transform="matrix(0.96466577,0,0,0.96466577,0,21.098)"
     id="polygon122"
     points="447.206,244.255 441.399,246.754 444.984,252.069 450.3,248.485 " /><polygon
     style="fill:#0000ff"
     transform="matrix(0.96466577,0,0,0.96466577,0,21.098)"
     id="polygon124"
     points="351.156,463.659 399.156,436.992 392.489,432.326 351.822,456.992 " /><polyline
     style="fill:#0000ff"
     transform="matrix(0.96466577,0,0,0.96466577,0,21.098)"
     id="polyline126"
     points="407.489,425.326 440.155,354.66 431.484,356.387 404.014,419.4 407.489,425.326 " /><polygon
     style="fill:#0000ff"
     transform="matrix(0.96466577,0,0,0.96466577,0,21.098)"
     id="polygon128"
     points="241.822,144.659 252.822,150.659 249.322,154.159 238.822,150.159 " /><polygon
     style="fill:#0000ff"
     transform="matrix(0.96466577,0,0,0.96466577,0,21.098)"
     id="polygon130"
     points="203.822,230.159 215.322,232.159 213.322,237.159 202.322,236.159 " /><polygon
     style="fill:#0000ff;stroke:#0000ff"
     transform="matrix(0.96466577,0,0,0.96466577,0,21.098)"
     id="polygon132"
     points="211.322,362.159 212.322,369.159 201.822,369.159 201.322,363.659 " /><polygon
     style="fill:#0000ff;stroke:#0000ff"
     transform="matrix(0.96466577,0,0,0.96466577,0,21.098)"
     id="polygon134"
     points="235.322,447.159 244.822,443.159 248.322,450.659 239.822,452.659 " /></g>
<polygon
   points="518.208,138.204 511.44,129.396 501.984,118.887 491.417,107.972 482.241,98.674 463.881,83.233 78.902,460.583 92.872,477.977 118.945,504.284 133.23,515.553 "
   id="polygon136"
   transform="matrix(0.96466577,0,0,0.96466577,-0.178,-0.44675)"
   style="fill:#ff0000;stroke:#ff0000;stroke-width:0.17640001;stroke-linecap:round;stroke-linejoin:round" />
</svg>