<?xml version="1.0" encoding="UTF-8" standalone="no"?>
<!-- Generator: Adobe Illustrator 13.0.0, SVG Export Plug-In . SVG Version: 6.00 Build 14948)  -->

<svg
   xmlns:dc="http://purl.org/dc/elements/1.1/"
   xmlns:cc="http://creativecommons.org/ns#"
   xmlns:rdf="http://www.w3.org/1999/02/22-rdf-syntax-ns#"
   xmlns:svg="http://www.w3.org/2000/svg"
   xmlns="http://www.w3.org/2000/svg"
   xmlns:sodipodi="http://sodipodi.sourceforge.net/DTD/sodipodi-0.dtd"
   xmlns:inkscape="http://www.inkscape.org/namespaces/inkscape"
   version="1.1"
   id="Layer_1"
   x="0px"
   y="0px"
   width="576px"
   height="576px"
   viewBox="-0.933 -0.933 576 576"
   enable-background="new -0.933 -0.933 576 576"
   xml:space="preserve"
   inkscape:version="0.48.1 "
   sodipodi:docname="B45a.svg"
   inkscape:export-filename="C:\Documents and Settings\bertrand.bouteilles\Bureau\Panneaux\A - Route\4_obligation\B45a.png"
   inkscape:export-xdpi="150"
   inkscape:export-ydpi="150"><metadata
   id="metadata33"><rdf:RDF><cc:Work
       rdf:about=""><dc:format>image/svg+xml</dc:format><dc:type
         rdf:resource="http://purl.org/dc/dcmitype/StillImage" /><dc:title></dc:title></cc:Work></rdf:RDF></metadata><defs
   id="defs31" /><sodipodi:namedview
   pagecolor="#ffffff"
   bordercolor="#666666"
   borderopacity="1"
   objecttolerance="10"
   gridtolerance="10"
   guidetolerance="10"
   inkscape:pageopacity="0"
   inkscape:pageshadow="2"
   inkscape:window-width="1280"
   inkscape:window-height="964"
   id="namedview29"
   showgrid="false"
   inkscape:zoom="0.50868056"
   inkscape:cx="288"
   inkscape:cy="276.20478"
   inkscape:window-x="-4"
   inkscape:window-y="-4"
   inkscape:window-maximized="1"
   inkscape:current-layer="Layer_1" />
<circle
   cx="287.06699"
   cy="287.06699"
   r="286.979"
   id="circle3"
   sodipodi:cx="287.06699"
   sodipodi:cy="287.06699"
   sodipodi:rx="286.979"
   sodipodi:ry="286.979"
   transform="matrix(1.0000729,0,0,1.0000729,-0.02091327,-0.02091327)"
   style="fill:#ffffff;stroke:#000000;stroke-width:2;stroke-linecap:round;stroke-linejoin:round" />
<circle
   cx="287.06699"
   cy="287.06699"
   r="259.96899"
   id="circle5"
   sodipodi:cx="287.06699"
   sodipodi:cy="287.06699"
   sodipodi:rx="259.96899"
   sodipodi:ry="259.96899"
   transform="matrix(1.0000729,0,0,1.0000729,-0.02091327,-0.02091327)"
   style="fill:#0000ff;stroke:#0000ff;stroke-width:0.17640001;stroke-linecap:round;stroke-linejoin:round" />









<g
   id="g3778"
   transform="translate(12.012883,4.4963243)"><line
     style="fill:none;stroke:#0000ff;stroke-width:0.17641287;stroke-linecap:round;stroke-linejoin:round"
     id="line7"
     y2="218.57202"
     x2="87.184425"
     y1="218.425"
     x1="87.228424" /><line
     style="fill:none;stroke:#0000ff;stroke-width:0.17641287;stroke-linecap:round;stroke-linejoin:round"
     id="line9"
     y2="216.75288"
     x2="81.338997"
     y1="215.41678"
     x1="81.438004" /><circle
     style="fill:#ffffff;stroke:#ffffff;stroke-width:0.17640001;stroke-linecap:round;stroke-linejoin:round"
     transform="matrix(1.0000729,0,0,1.0000729,6.6493777e-5,-0.04192569)"
     sodipodi:ry="27.486"
     sodipodi:rx="27.486"
     sodipodi:cy="342.077"
     sodipodi:cx="161.215"
     id="circle11"
     r="27.486"
     cy="342.077"
     cx="161.215"
     d="m 188.701,342.077 c 0,15.18009 -12.3059,27.486 -27.486,27.486 -15.1801,0 -27.486,-12.30591 -27.486,-27.486 0,-15.1801 12.3059,-27.486 27.486,-27.486 15.1801,0 27.486,12.3059 27.486,27.486 z" /><circle
     style="fill:#ffffff;stroke:#ffffff;stroke-width:0.17640001;stroke-linecap:round;stroke-linejoin:round"
     transform="matrix(1.0000729,0,0,1.0000729,6.6493777e-5,-0.04192569)"
     sodipodi:ry="27.486"
     sodipodi:rx="27.486"
     sodipodi:cy="342.077"
     sodipodi:cx="376.03299"
     id="circle13"
     r="27.486"
     cy="342.077"
     cx="376.03299"
     d="m 403.51899,342.077 c 0,15.18009 -12.3059,27.486 -27.486,27.486 -15.1801,0 -27.486,-12.30591 -27.486,-27.486 0,-15.1801 12.3059,-27.486 27.486,-27.486 15.1801,0 27.486,12.3059 27.486,27.486 z" /><path
     style="fill:#ffffff;stroke:#ffffff;stroke-width:0.17641287;stroke-linecap:round;stroke-linejoin:round"
     inkscape:connector-curvature="0"
     id="path15"
     d="m 81.338996,216.75288 5.846427,1.81913 -12.365902,41.25901 -7.025512,3.53326 -4.217308,5.24238 -1.209088,70.76716 9.259675,6.8855 h 54.586982 c -1.58512,-13.22796 4.41732,-26.21691 15.51813,-33.58245 11.09981,-7.36353 25.40085,-7.84657 36.97269,-1.24509 11.57185,6.60148 18.43435,19.1564 17.7423,32.46037 h 144.39753 c -0.67705,-13.01495 5.88142,-25.34185 17.05124,-32.05734 11.17081,-6.71349 25.13383,-6.71849 36.30965,-0.014 11.17681,6.70449 17.74229,19.02639 17.07724,32.04234 h 76.45757 V 198.70756 l -1.09108,-1.77613 -0.84306,-0.81906 -0.98207,-0.41003 -1.49111,-0.001 H 86.302358 l -1.839134,-0.108 -0.68905,0.16801 -0.806059,1.00707 -0.229017,1.3421 -0.134009,1.50911 -1.167085,15.79815" /><rect
     style="fill:#0000ff;stroke:#0000ff;stroke-width:0.17641287;stroke-linecap:round;stroke-linejoin:round"
     id="rect17"
     height="38.751827"
     width="81.686958"
     y="224.01842"
     x="391.07758" /><rect
     style="fill:#0000ff;stroke:#0000ff;stroke-width:0.17641287;stroke-linecap:round;stroke-linejoin:round"
     id="rect19"
     height="38.751827"
     width="88.854477"
     y="224.01842"
     x="297.54175" /><rect
     style="fill:#0000ff;stroke:#0000ff;stroke-width:0.17641287;stroke-linecap:round;stroke-linejoin:round"
     id="rect21"
     height="38.751827"
     width="86.327293"
     y="224.01842"
     x="206.53313" /><rect
     style="fill:#0000ff;stroke:#0000ff;stroke-width:0.17641287;stroke-linecap:round;stroke-linejoin:round"
     id="rect23"
     height="38.751827"
     width="78.556732"
     y="224.01842"
     x="123.29706" /><polygon
     style="fill:#0000ff;stroke:#0000ff;stroke-width:0.17640001;stroke-linecap:round;stroke-linejoin:round"
     transform="matrix(1.0000729,0,0,1.0000729,6.6493777e-5,-0.04192569)"
     id="polygon25"
     points="82.631,262.793 92.695,224.044 118.607,224.044 118.607,262.793 " /></g>
<polygon
   points="128.418,493.427 495.923,131.716 490.189,124.224 479.149,111.901 462.307,94.768 445.688,80.733 78.23,442.399 90.822,458.143 115.72,483.368 "
   id="polygon27"
   transform="matrix(1.0000729,0,0,1.0000729,-0.03042788,-0.03392813)"
   style="fill:#ff0000;stroke:#ff0000;stroke-width:0.17640001;stroke-linecap:round;stroke-linejoin:round" />
</svg>