<?xml version="1.0" encoding="UTF-8" standalone="no"?>
<!-- Generator: Adobe Illustrator 16.0.2, SVG Export Plug-In . SVG Version: 6.00 Build 0)  -->

<svg
   xmlns:dc="http://purl.org/dc/elements/1.1/"
   xmlns:cc="http://creativecommons.org/ns#"
   xmlns:rdf="http://www.w3.org/1999/02/22-rdf-syntax-ns#"
   xmlns:svg="http://www.w3.org/2000/svg"
   xmlns="http://www.w3.org/2000/svg"
   xmlns:sodipodi="http://sodipodi.sourceforge.net/DTD/sodipodi-0.dtd"
   xmlns:inkscape="http://www.inkscape.org/namespaces/inkscape"
   version="1.1"
   id="Layer_1"
   sodipodi:docname="B49.svg"
   inkscape:version="0.48.1 "
   x="0px"
   y="0px"
   width="576"
   height="576"
   viewBox="0 0 575.99949 575.99948"
   xml:space="preserve"
   inkscape:export-filename="C:\Documents and Settings\bertrand.bouteilles\Bureau\Panneaux\A - Route\4_obligation\B49.png"
   inkscape:export-xdpi="150"
   inkscape:export-ydpi="150"><metadata
   id="metadata52"><rdf:RDF><cc:Work
       rdf:about=""><dc:format>image/svg+xml</dc:format><dc:type
         rdf:resource="http://purl.org/dc/dcmitype/StillImage" /><dc:title></dc:title></cc:Work></rdf:RDF></metadata><defs
   id="defs50">
	
	
	
	
	
	
	
	
	
	
	
	
	
	
	
	
	
	
	
	
	
</defs>
<sodipodi:namedview
   id="namedview55"
   inkscape:window-height="1174"
   inkscape:window-width="1920"
   inkscape:pageshadow="2"
   inkscape:pageopacity="0"
   inkscape:window-x="1276"
   fit-margin-bottom="0"
   fit-margin-right="0"
   inkscape:current-layer="Layer_1"
   inkscape:window-y="-4"
   inkscape:window-maximized="1"
   inkscape:zoom="0.83758318"
   inkscape:cx="195.64754"
   bordercolor="#666666"
   fit-margin-left="0"
   showgrid="false"
   gridtolerance="10"
   pagecolor="#ffffff"
   guidetolerance="10"
   objecttolerance="10"
   fit-margin-top="0"
   inkscape:cy="215.22734"
   borderopacity="1">
	</sodipodi:namedview>


<circle
   d="m 574.58899,287.62 c 0,158.48859 -128.4804,286.96899 -286.96899,286.96899 C 129.1314,574.58899 0.65100098,446.10859 0.65100098,287.62 0.65100098,129.1314 129.1314,0.65100098 287.62,0.65100098 446.10859,0.65100098 574.58899,129.1314 574.58899,287.62 z"
   id="circle3"
   sodipodi:ry="286.96899"
   sodipodi:rx="286.96899"
   sodipodi:cy="287.62"
   sodipodi:cx="287.62"
   style="fill:#ffffff;stroke:#000000;stroke-width:2.00325522;stroke-linecap:round;stroke-linejoin:round;stroke-miterlimit:4;stroke-dasharray:none"
   cx="287.62"
   cy="287.62"
   r="286.96899"
   transform="matrix(0.99837415,0,0,0.99837415,0.84237819,0.84237319)">
</circle><circle
   d="m 547.57999,287.62 c 0,143.57193 -116.38806,259.95999 -259.95999,259.95999 -143.57194,0 -259.959996,-116.38806 -259.959996,-259.95999 0,-143.57194 116.388056,-259.959996 259.959996,-259.959996 143.57193,0 259.95999,116.388056 259.95999,259.959996 z"
   id="circle5"
   sodipodi:ry="259.95999"
   sodipodi:rx="259.95999"
   sodipodi:cy="287.62"
   sodipodi:cx="287.62"
   style="fill:#0000ff"
   cx="287.62"
   cy="287.62"
   r="259.95999"
   transform="matrix(0.99837415,0,0,0.99837415,0.84237819,0.84237319)">
</circle><g
   id="g3100"
   transform="translate(-0.093345,-0.50090548)"><path
     inkscape:connector-curvature="0"
     style="fill:#ffffff"
     d="m 270.74884,130.22168 v 9.43264 h -23.63352 v 11.26266 h 17.3158 v 9.57341 h -17.3158 l -0.0389,21.32926 H 236.0793 l 0.0389,-51.59897 h 34.63061 z"
     id="path10" /><path
     inkscape:connector-curvature="0"
     style="fill:#ffffff"
     d="m 290.60849,130.29256 v 51.59798 h -10.84134 v -51.59798 h 10.84134 z"
     id="path12" /><path
     inkscape:connector-curvature="0"
     style="fill:#ffffff"
     d="m 314.63936,130.22168 14.35163,27.52418 v -27.52418 h 10.60772 l 0.0389,51.66886 h -10.41304 l -17.43261,-32.55698 -0.0389,32.59192 h -10.72453 v -51.7038 h 13.61083 z"
     id="path14" /><path
     inkscape:connector-curvature="0"
     style="fill:#ffffff"
     d="m 75.940082,224.96239 c 3.743903,0.39935 6.922726,1.74816 9.535471,4.04741 2.612745,2.30026 4.504664,5.02183 5.674759,8.16571 0.546111,1.38474 0.948455,3.20278 1.209031,5.45511 v 15.83821 c -0.390364,5.35029 -2.255327,9.66825 -5.595887,12.95291 -3.341558,3.28564 -7.403943,5.0328 -12.187153,5.24445 H 51.95614 l 0.03894,-51.7038 h 23.945006 z m -12.79117,41.53137 h 9.126138 c 1.845994,-0.25758 3.418433,-0.87358 4.719315,-1.84799 1.299883,-0.97341 2.405083,-2.68063 3.314602,-5.12066 0.494195,-1.50156 0.636963,-6.96865 0.429301,-16.40129 -1.22201,-4.88005 -4.043415,-7.68449 -8.463218,-8.4123 h -9.126138 v 31.78224 z"
     id="path16" /><path
     inkscape:connector-curvature="0"
     style="fill:#ffffff"
     d="m 115.4158,225.03228 -3.70497,11.01706 H 98.568232 l 3.860708,-11.01706 h 12.98686 z"
     id="path18" /><path
     inkscape:connector-curvature="0"
     style="fill:#ffffff"
     d="m 176.37952,225.06722 14.74199,51.56303 h -11.19277 l -2.457,-8.76373 h -15.79428 l -2.49594,8.76373 h -11.30958 l 14.58525,-51.56303 h 13.92233 z m -12.55855,32.9803 h 11.27064 l -5.4601,-20.13322 -5.81054,20.13322 z"
     id="path20" /><path
     inkscape:connector-curvature="0"
     style="fill:#ffffff"
     d="m 209.88695,225.06722 0.0389,42.44788 h 22.11199 l -0.0389,9.22098 h -32.9154 v -51.66886 h 10.80341 z"
     id="path22" /><path
     inkscape:connector-curvature="0"
     style="fill:#ffffff"
     d="m 251.31249,225.06722 0.0389,42.44788 h 22.112 l -0.0389,9.22098 h -32.9154 v -51.66886 h 10.80341 z"
     id="path24" /><path
     inkscape:connector-curvature="0"
     style="fill:#ffffff"
     d="m 293.43889,225.20799 v 34.91515 c 0.49319,4.45774 3.27566,6.94568 8.3454,7.46184 4.99188,-0.49319 7.8003,-2.9442 8.42429,-7.35602 v -35.02097 h 11.03702 v 37.62573 c -0.96243,4.59951 -3.36751,8.17768 -7.21525,10.73452 -3.43241,2.18245 -6.94169,3.33157 -10.52985,3.44938 -0.57207,0.0459 -1.13116,0.0699 -1.67727,0.0699 -5.33032,0 -9.73714,-1.39573 -13.22047,-4.18818 -3.97752,-3.47235 -6.08409,-7.01558 -6.31771,-10.62869 V 225.208 h 11.15384 z"
     id="path26" /><path
     inkscape:connector-curvature="0"
     style="fill:#ffffff"
     d="m 331.35514,225.06722 h 14.70306 l 11.50426,27.34847 11.77782,-27.34847 h 14.66412 v 51.66886 h -10.88028 v -32.62687 l -14.23482,32.62687 h -2.84736 l -14.11801,-32.34532 0.11681,32.34532 h -10.6856 v -51.66886 z"
     id="path28" /><path
     inkscape:connector-curvature="0"
     style="fill:#ffffff"
     d="m 420.86537,225.06722 14.74199,51.56303 h -11.19277 l -2.457,-8.76373 h -15.79428 l -2.49593,8.76373 H 392.3578 l 14.58524,-51.56303 h 13.92233 z m -12.55755,32.9803 h 11.27065 l -5.46011,-20.13322 -5.81054,20.13322 z"
     id="path30" /><path
     inkscape:connector-curvature="0"
     style="fill:#ffffff"
     d="m 462.64234,224.43425 c 7.46185,0.70386 12.76521,5.17358 15.91209,13.41017 l -10.13949,2.3931 c -1.82004,-3.61312 -3.89965,-5.78358 -6.23984,-6.5114 -3.04205,-1.03232 -5.98026,0.41033 -8.81365,4.32895 -1.76812,2.62872 -2.86034,6.46448 -3.27566,11.50926 -0.0779,5.56094 0.89055,9.87891 2.90527,12.95191 2.01471,3.07399 4.38785,4.7862 7.1174,5.13863 4.60151,-0.0699 7.85122,-3.20278 9.75013,-9.3977 h -9.24295 v -9.39769 h 20.35785 v 0.42231 c 0.025,0.56308 0.0389,1.13815 0.0389,1.72519 0,8.18966 -2.17146,14.82985 -6.51239,19.92156 -2.91226,3.61411 -7.17632,5.63183 -12.79217,6.05314 h -0.8576 c -12.47968,0 -19.52621,-8.00097 -21.13758,-24.00391 -0.026,-0.46923 -0.0389,-0.95045 -0.0389,-1.44265 0,-8.23659 2.06664,-15.13435 6.2009,-20.6953 2.44303,-2.81541 5.08273,-4.63345 7.91711,-5.45511 2.23536,-0.65693 4.57555,-0.9854 7.01957,-0.9854 0.59603,0 1.20703,0.012 1.83102,0.0349 z"
     id="path32" /><path
     inkscape:connector-curvature="0"
     style="fill:#ffffff"
     d="m 523.21569,225.17305 v 9.43264 h -23.63351 v 11.26266 h 17.3158 v 9.53847 h -17.3158 v 11.79079 h 24.64786 v 9.53847 h -35.64495 l 0.0389,-51.56303 h 34.59166 z"
     id="path34" /><path
     inkscape:connector-curvature="0"
     style="fill:#ffffff"
     d="m 246.74493,319.80794 c 3.7439,0.39835 6.92272,1.74815 9.53547,4.04741 2.61274,2.30025 4.50466,5.02182 5.67476,8.1667 0.54611,1.38474 0.94845,3.20278 1.20903,5.45511 v 15.83821 c -0.39037,5.34929 -2.25533,9.66826 -5.59589,12.95291 -3.34156,3.28565 -7.40394,5.0328 -12.18715,5.24446 h -22.62017 l 0.0389,-51.7038 h 23.94501 z m -12.79117,41.53136 h 9.12613 c 1.846,-0.25857 3.41844,-0.87357 4.71932,-1.84799 1.29988,-0.97441 2.40508,-2.68163 3.3146,-5.12166 0.4942,-1.50155 0.63696,-6.96865 0.4293,-16.40129 -1.22201,-4.88105 -4.04341,-7.68448 -8.46322,-8.4123 h -9.12613 v 31.78324 z"
     id="path36" /><path
     inkscape:connector-curvature="0"
     style="fill:#ffffff"
     d="m 305.75882,320.01959 v 9.43164 h -23.63351 v 11.26266 h 17.3158 v 9.53847 h -17.3158 v 11.7918 h 24.64786 v 9.53846 h -35.64495 l 0.0389,-51.56203 h 34.59167 z"
     id="path38" /><path
     inkscape:connector-curvature="0"
     style="fill:#ffffff"
     d="m 314.58046,361.05776 v -0.0699 c 0,-0.25858 0.29851,-0.4343 0.89654,-0.52814 4.6015,-1.33683 7.59163,-2.29926 8.96939,-2.8863 0.70186,0.86858 1.62435,1.6543 2.76849,2.35816 1.846,0.98539 3.82178,1.58342 5.92835,1.79507 2.23536,0.0479 3.62709,0 4.1732,-0.14077 2.57381,-0.65693 4.15923,-1.32584 4.75825,-2.00673 0.59803,-0.46923 1.11718,-1.60638 1.56046,-3.41444 0.10383,-0.70385 0,-1.48957 -0.31249,-2.35816 -0.39036,-0.58604 -0.80669,-1.07824 -1.24797,-1.47759 l -1.32584,-0.91451 -1.48159,-0.59903 c -8.24257,-2.32321 -12.77919,-3.683 -13.61083,-4.08335 -3.82178,-1.38374 -6.66914,-3.67202 -8.54109,-6.86282 -1.22301,-2.13552 -1.76812,-4.7273 -1.63833,-7.77833 0.49319,-3.80181 2.22338,-6.8159 5.18655,-9.04627 3.32758,-2.18245 6.79893,-3.36652 10.41304,-3.55521 h 1.01435 c 2.57381,0 4.70534,0.17671 6.39559,0.52814 3.43241,0.86758 6.10905,2.07562 8.03391,3.62509 1.92387,1.43167 3.51029,3.3785 4.75825,5.84249 l -0.11681,0.38737 -8.03391,3.48432 -0.39037,-0.17571 c -0.49419,-1.43167 -1.88593,-2.59278 -4.1732,-3.48433 -2.57381,-0.86758 -5.5909,-0.89154 -9.04827,-0.0699 -1.48158,0.44527 -2.52189,1.02034 -3.11992,1.72519 -0.20866,0.18769 -0.48121,0.77374 -0.81866,1.76013 -0.0529,1.14913 0,1.81804 0.15574,2.00574 0.33745,0.7987 1.01435,1.51453 2.0277,2.1475 l 1.01435,0.38737 c 7.38398,1.97079 12.38783,3.40146 15.01455,4.29401 2.26231,0.93847 3.9905,1.97079 5.18655,3.09795 l 2.18445,2.67464 c 1.61137,2.41707 2.46997,5.05677 2.5738,7.92011 0.025,0.18769 0.0389,0.41033 0.0389,0.66891 0,0.91451 -0.15575,2.1465 -0.46824,3.69498 -0.64994,2.18245 -1.43067,3.78983 -2.34019,4.82215 -1.56045,1.73617 -2.69061,2.78047 -3.39247,3.1329 -3.82178,2.37014 -7.76036,3.64805 -11.81676,3.83675 h -3.54922 c -2.65168,-0.23462 -4.88804,-0.70386 -6.70807,-1.40771 -2.91226,-1.22001 -5.26443,-2.5818 -7.05851,-4.08335 -1.48059,-1.22201 -2.76749,-2.96917 -3.85971,-5.24646 z"
     id="path40" /><path
     inkscape:connector-curvature="0"
     style="fill:#ffffff"
     d="m 232.40927,414.75831 v 9.43264 h -23.63351 v 11.26266 h 17.3158 v 9.57341 h -17.3158 l -0.0389,21.32926 h -10.99809 l 0.0389,-51.59897 h 34.6316 z"
     id="path42" /><path
     inkscape:connector-curvature="0"
     style="fill:#ffffff"
     d="m 274.65348,414.86514 v 9.43164 h -23.63352 v 11.26266 h 17.31581 v 9.53846 h -17.31581 v 11.7918 h 24.64787 v 9.53847 h -35.64496 l 0.0389,-51.56203 h 34.59167 z"
     id="path44" /><path
     inkscape:connector-curvature="0"
     style="fill:#ffffff"
     d="m 295.87692,414.90008 v 34.91514 c 0.49319,4.45874 3.27566,6.94569 8.3454,7.46185 4.99188,-0.4922 7.8003,-2.94421 8.42429,-7.35602 v -35.01997 h 11.03702 v 37.62573 c -0.96243,4.59851 -3.36751,8.17668 -7.21525,10.73451 -3.43241,2.18245 -6.94169,3.33158 -10.52985,3.44939 -0.57207,0.0469 -1.13116,0.0699 -1.67727,0.0699 -5.33032,0 -9.73714,-1.39572 -13.22047,-4.18818 -3.97752,-3.47234 -6.08409,-7.01557 -6.31771,-10.62869 V 414.9021 h 11.15384 z"
     id="path46" /><path
     inkscape:connector-curvature="0"
     style="fill:#ffffff"
     d="m 345.76467,414.79326 10.56879,15.91009 10.56879,-15.83821 h 12.59649 l -17.51049,25.55239 17.66623,25.93975 h -12.55755 l -10.92021,-15.73337 -10.33517,15.69843 -13.84446,0.0349 17.6273,-25.9757 -17.58836,-25.58832 h 13.72864 z"
     id="path48" /></g>
</svg>