<?xml version="1.0" encoding="UTF-8" standalone="no"?>
<!-- Generator: Adobe Illustrator 16.0.2, SVG Export Plug-In . SVG Version: 6.00 Build 0)  -->

<svg
   xmlns:dc="http://purl.org/dc/elements/1.1/"
   xmlns:cc="http://creativecommons.org/ns#"
   xmlns:rdf="http://www.w3.org/1999/02/22-rdf-syntax-ns#"
   xmlns:svg="http://www.w3.org/2000/svg"
   xmlns="http://www.w3.org/2000/svg"
   xmlns:sodipodi="http://sodipodi.sourceforge.net/DTD/sodipodi-0.dtd"
   xmlns:inkscape="http://www.inkscape.org/namespaces/inkscape"
   version="1.1"
   id="Ebene_1"
   x="0px"
   y="0px"
   width="576px"
   height="576px"
   viewBox="0 0 576 576"
   enable-background="new 0 0 576 576"
   xml:space="preserve"
   inkscape:version="0.48.1 "
   sodipodi:docname="B5a.svg"
   inkscape:export-filename="C:\Documents and Settings\bertrand.bouteilles\Bureau\Panneaux\A - Route\3_interdiction\B5a.png"
   inkscape:export-xdpi="150"
   inkscape:export-ydpi="150"><metadata
   id="metadata59"><rdf:RDF><cc:Work
       rdf:about=""><dc:format>image/svg+xml</dc:format><dc:type
         rdf:resource="http://purl.org/dc/dcmitype/StillImage" /><dc:title></dc:title></cc:Work></rdf:RDF></metadata><defs
   id="defs57">
	
	
	
	
	
	
	
	
	
	
	
	

	
	
	
	
	
	
</defs><sodipodi:namedview
   pagecolor="#ffffff"
   bordercolor="#666666"
   borderopacity="1"
   objecttolerance="10"
   gridtolerance="10"
   guidetolerance="10"
   inkscape:pageopacity="0"
   inkscape:pageshadow="2"
   inkscape:window-width="1920"
   inkscape:window-height="1174"
   id="namedview55"
   showgrid="false"
   inkscape:zoom="0.50868056"
   inkscape:cx="288"
   inkscape:cy="288"
   inkscape:window-x="1276"
   inkscape:window-y="-4"
   inkscape:window-maximized="1"
   inkscape:current-layer="Ebene_1" />
<circle
   cx="287.46899"
   cy="287.46899"
   r="286.96899"
   id="circle3"
   sodipodi:cx="287.46899"
   sodipodi:cy="287.46899"
   sodipodi:rx="286.96899"
   sodipodi:ry="286.96899"
   transform="translate(0.53100586,0.53100586)"
   style="fill:#ffffff;stroke:#000000;stroke-linecap:round;stroke-linejoin:round" />
<circle
   cx="290.46899"
   cy="287.46899"
   r="273.98001"
   id="circle5"
   sodipodi:cx="290.46899"
   sodipodi:cy="287.46899"
   sodipodi:rx="273.98001"
   sodipodi:ry="273.98001"
   transform="translate(-2.4689941,0.53100586)"
   style="fill:#ff0000;stroke:#ff0000;stroke-width:0.17640001000000000;stroke-linecap:round;stroke-linejoin:round" />
<circle
   cx="290.46899"
   cy="287.46899"
   r="192.438"
   id="circle7"
   style="fill:#ffffff;stroke:none"
   sodipodi:cx="290.46899"
   sodipodi:cy="287.46899"
   sodipodi:rx="192.438"
   sodipodi:ry="192.438"
   transform="translate(-2.4689941,0.53100586)" />

<g
   id="g11">
	<g
   enable-background="new    "
   id="g13">
	</g>
</g>

<rect
   style="fill:none"
   id="rect31"
   height="85.355003"
   width="421.194"
   y="245.32249"
   x="77.403" /><g
   id="g3054"
   transform="translate(-637.96072,-62.227824)"><path
     style="stroke:#000000;stroke-width:0.17640001;stroke-linecap:round;stroke-linejoin:round"
     inkscape:connector-curvature="0"
     id="path9"
     d="M 1033.8872,332.83733 H 827.53724 c -12.42,0 -22.84,9.371 -24.15,21.722 -1.313,12.351 6.906,23.701 19.049,26.312 h 213.71896 c 8.871,0 17.021,-4.879 21.214,-12.697 4.191,-7.817 3.743,-17.306 -1.166,-24.694 -4.912,-7.39 -13.486,-11.479 -22.316,-10.643" /><rect
     x="795.23523"
     y="257.01932"
     width="261.367"
     height="80.524002"
     id="rect17"
     style="fill:none" /><path
     d="m 828.39624,257.20433 v 21.783 h 16.081 v -21.746 h 11.212 v 54.365 h -11.212 v -22.488 h -16.081 v 22.488 h -11.212 v -54.402 h 11.212 z"
     id="path19"
     inkscape:connector-curvature="0" /><path
     d="m 894.65524,257.12933 15.083,54.365 h -11.452 l -2.514,-9.24 h -16.161 l -2.554,9.24 h -11.572 l 14.923,-54.365 h 14.247 z m -12.849,34.772 h 11.532 l -5.586,-21.227 -5.946,21.227 z"
     id="path21"
     inkscape:connector-curvature="0" /><path
     d="m 931.14524,257.12933 0.04,44.754 h 22.625 l -0.04,9.723 h -33.678 v -54.477 h 11.053 z"
     id="path23"
     inkscape:connector-curvature="0" /><path
     d="m 988.82424,257.16733 v 10.465 h -11.691 v 43.975 h -10.854 v -44.086 h -12.489 v -10.354 h 35.034 z"
     id="path25"
     inkscape:connector-curvature="0" /><path
     d="m 1034.6522,257.24133 v 9.945 h -24.181 v 11.875 h 17.717 v 10.057 h -17.717 v 12.432 h 25.219 v 10.057 h -36.47196 l 0.04,-54.365 h 35.39396 z"
     id="path27"
     inkscape:connector-curvature="0" /><path
     d="m 780.82224,404.02633 c 5.123,0.528 8.765,3.881 10.925,10.058 l -6.962,1.795 c -1.25,-2.71 -2.678,-4.338 -4.284,-4.884 -2.089,-0.773 -4.106,0.309 -6.052,3.247 -1.214,1.971 -1.964,4.849 -2.249,8.632 -0.054,4.171 0.611,7.408 1.995,9.714 1.384,2.306 3.013,3.59 4.887,3.854 3.16,-0.053 5.391,-2.401 6.694,-7.048 h -6.346 v -7.048 h 13.978 v 0.317 c 0.018,0.422 0.027,0.854 0.027,1.293 0,6.142 -1.491,11.122 -4.472,14.94 -2,2.71 -4.927,4.224 -8.783,4.54 h -0.589 c -8.568,0 -13.406,-6 -14.513,-18.002 -0.018,-0.353 -0.027,-0.713 -0.027,-1.082 0,-6.177 1.419,-11.351 4.257,-15.521 1.678,-2.112 3.49,-3.476 5.436,-4.092 1.535,-0.492 3.142,-0.739 4.82,-0.739 0.41,0 0.83,0.009 1.258,0.026 z"
     id="path33"
     inkscape:connector-curvature="0" /><path
     d="m 820.98624,404.58133 v 7.074 h -16.227 v 8.447 h 11.889 v 7.153 h -11.889 v 8.843 h 16.923 v 7.153 h -24.474 l 0.027,-38.671 h 23.751 z"
     id="path35"
     inkscape:connector-curvature="0" /><path
     d="m 835.73824,404.50133 9.854,20.642 v -20.642 h 7.283 l 0.027,38.75 h -7.149 l -11.969,-24.417 -0.027,24.443 h -7.363 v -38.776 h 9.344 z"
     id="path37"
     inkscape:connector-curvature="0" /><path
     d="m 874.08224,404.42233 c 2.571,0.299 4.753,1.312 6.547,3.035 1.794,1.726 3.092,3.767 3.896,6.124 0.375,1.039 0.651,2.402 0.83,4.092 v 11.878 c -0.268,4.013 -1.549,7.251 -3.843,9.714 -2.294,2.465 -5.083,3.775 -8.368,3.934 h -15.53 l 0.026,-38.776 h 16.442 z m -8.783,31.148 h 6.266 c 1.267,-0.193 2.347,-0.655 3.24,-1.386 0.893,-0.729 1.651,-2.01 2.276,-3.841 0.339,-1.126 0.438,-5.227 0.295,-12.301 -0.839,-3.66 -2.776,-5.763 -5.811,-6.309 h -6.266 v 23.837 z"
     id="path39"
     inkscape:connector-curvature="0" /><path
     d="m 904.76724,404.50133 10.122,38.671 h -7.685 l -1.687,-6.573 h -10.845 l -1.714,6.573 h -7.765 l 10.015,-38.671 h 9.559 z m -8.622,24.734 h 7.739 l -3.749,-15.099 -3.99,15.099 z"
     id="path41"
     inkscape:connector-curvature="0" /><path
     d="m 931.67624,404.42233 c 4.124,0 7.346,1.461 9.667,4.382 2.035,2.569 3.053,5.464 3.053,8.685 0,0.58 -0.036,1.267 -0.107,2.059 -0.429,3.925 -2.419,7.171 -5.972,9.74 l 6.534,13.938 h -8.462 l -5.596,-11.535 h -4.847 v 11.614 h -7.417 l 0.027,-38.882 h 13.12 z m -1.07,19.824 2.195,-0.264 c 1.249,-0.334 2.294,-1.029 3.133,-2.085 0.714,-1.038 1.143,-2.279 1.285,-3.722 0.071,-1.796 -0.464,-3.361 -1.606,-4.699 -0.964,-1.091 -2.365,-1.706 -4.204,-1.848 h -5.382 v 12.617 h 4.579 z"
     id="path43"
     inkscape:connector-curvature="0" /><path
     d="m 949.26924,404.50133 h 10.095 l 7.899,20.51 8.087,-20.51 h 10.067 v 38.75 h -7.471 v -24.47 l -9.773,24.47 h -1.954 l -9.693,-24.259 0.08,24.259 h -7.337 v -38.75 z"
     id="path45"
     inkscape:connector-curvature="0" /><path
     d="m 1014.1752,404.58133 v 7.074 h -16.22696 v 8.447 h 11.88896 v 7.153 h -11.88896 v 8.843 h 16.92296 v 7.153 h -24.47396 l 0.026,-38.671 h 23.75196 z"
     id="path47"
     inkscape:connector-curvature="0" /><path
     d="m 1032.1672,404.42233 c 4.124,0 7.346,1.461 9.667,4.382 2.035,2.569 3.053,5.464 3.053,8.685 0,0.58 -0.036,1.267 -0.107,2.059 -0.429,3.925 -2.419,7.171 -5.972,9.74 l 6.534,13.938 h -8.462 l -5.596,-11.535 h -4.847 v 11.614 h -7.417 l 0.026,-38.882 h 13.121 z m -1.07,19.824 2.195,-0.264 c 1.249,-0.334 2.294,-1.029 3.133,-2.085 0.714,-1.038 1.143,-2.279 1.285,-3.722 0.071,-1.796 -0.464,-3.361 -1.606,-4.699 -0.964,-1.091 -2.365,-1.706 -4.204,-1.848 h -5.382 v 12.617 h 4.579 z"
     id="path49"
     inkscape:connector-curvature="0" /><path
     d="m 1057.2302,404.55433 v 38.697 h -7.443 v -38.697 h 7.443 z"
     id="path51"
     inkscape:connector-curvature="0" /><path
     d="m 1086.1742,404.58133 v 7.074 h -16.227 v 8.447 h 11.889 v 7.153 h -11.889 v 8.843 h 16.923 v 7.153 h -24.474 l 0.026,-38.671 h 23.752 z"
     id="path53"
     inkscape:connector-curvature="0" /></g>
</svg>