<?xml version="1.0" encoding="UTF-8" standalone="no"?>
<!-- Generator: Adobe Illustrator 16.0.2, SVG Export Plug-In . SVG Version: 6.00 Build 0)  -->

<svg
   xmlns:dc="http://purl.org/dc/elements/1.1/"
   xmlns:cc="http://creativecommons.org/ns#"
   xmlns:rdf="http://www.w3.org/1999/02/22-rdf-syntax-ns#"
   xmlns:svg="http://www.w3.org/2000/svg"
   xmlns="http://www.w3.org/2000/svg"
   xmlns:sodipodi="http://sodipodi.sourceforge.net/DTD/sodipodi-0.dtd"
   xmlns:inkscape="http://www.inkscape.org/namespaces/inkscape"
   version="1.1"
   id="Ebene_1"
   x="0px"
   y="0px"
   width="576px"
   height="576px"
   viewBox="0 0 576 576"
   style="enable-background:new 0 0 576 576;"
   xml:space="preserve"
   inkscape:version="0.48.1 "
   sodipodi:docname="B5b.svg"
   inkscape:export-filename="C:\Documents and Settings\bertrand.bouteilles\Bureau\Panneaux\A - Route\3_interdiction\B5b.png"
   inkscape:export-xdpi="150"
   inkscape:export-ydpi="150"><metadata
   id="metadata45"><rdf:RDF><cc:Work
       rdf:about=""><dc:format>image/svg+xml</dc:format><dc:type
         rdf:resource="http://purl.org/dc/dcmitype/StillImage" /><dc:title></dc:title></cc:Work></rdf:RDF></metadata><defs
   id="defs43">
	
	
	
	
	
	

	
	
	
	
	
	
	
</defs><sodipodi:namedview
   pagecolor="#ffffff"
   bordercolor="#666666"
   borderopacity="1"
   objecttolerance="10"
   gridtolerance="10"
   guidetolerance="10"
   inkscape:pageopacity="0"
   inkscape:pageshadow="2"
   inkscape:window-width="1280"
   inkscape:window-height="964"
   id="namedview41"
   showgrid="false"
   inkscape:zoom="0.50868056"
   inkscape:cx="288"
   inkscape:cy="288"
   inkscape:window-x="-4"
   inkscape:window-y="-4"
   inkscape:window-maximized="1"
   inkscape:current-layer="Ebene_1" />
<circle
   style="fill:#ffffff;stroke:#000000;stroke-linecap:round;stroke-linejoin:round"
   cx="287.47"
   cy="287.46899"
   r="286.96899"
   id="circle3"
   sodipodi:cx="287.47"
   sodipodi:cy="287.46899"
   sodipodi:rx="286.96899"
   sodipodi:ry="286.96899"
   transform="translate(0.52999878,0.53100586)" />
<circle
   style="fill:#ff0000;stroke:#ff0000;stroke-width:0.17640001000000000;stroke-linecap:round;stroke-linejoin:round"
   cx="287.47"
   cy="287.46899"
   r="273.98001"
   id="circle5"
   sodipodi:cx="287.47"
   sodipodi:cy="287.46899"
   sodipodi:rx="273.98001"
   sodipodi:ry="273.98001"
   transform="translate(0.52999878,0.53100586)" />
<circle
   style="fill:#ffffff;stroke:#ff0000;stroke-width:0.17640001;stroke-linecap:round;stroke-linejoin:round"
   cx="287.47"
   cy="287.46899"
   r="192.438"
   id="circle7"
   sodipodi:cx="287.47"
   sodipodi:cy="287.46899"
   sodipodi:rx="192.438"
   sodipodi:ry="192.438"
   transform="translate(0.52999878,0.53100586)" />


<g
   id="g3035"
   transform="translate(-2.5844075,-0.5625)"><path
     id="path9"
     d="m 392.735,262.614 h -206.35 c -12.42,0 -22.841,9.371 -24.152,21.722 -1.313,12.352 6.906,23.702 19.051,26.311 h 213.72 c 8.869,0 17.021,-4.879 21.213,-12.694 4.19,-7.816 3.744,-17.307 -1.165,-24.695 -4.91,-7.39 -13.486,-11.48 -22.317,-10.644"
     style="stroke:#000000;stroke-width:0.17640001;stroke-linecap:round;stroke-linejoin:round"
     inkscape:connector-curvature="0" /><path
     d="m 196.505,191.4 v 20.083 h 15.152 v -20.049 h 10.565 v 50.124 h -10.565 v -20.733 h -15.152 v 20.733 H 185.94 V 191.4 h 10.565 z"
     id="path15"
     inkscape:connector-curvature="0" /><path
     d="m 258.474,191.332 14.212,50.124 h -10.791 l -2.369,-8.52 H 244.3 l -2.406,8.52 H 230.99 l 14.062,-50.124 h 13.422 z m -12.106,32.058 h 10.866 l -5.264,-19.57 -5.602,19.57 z"
     id="path17"
     inkscape:connector-curvature="0" /><path
     d="m 292.395,191.332 0.038,41.262 h 21.317 l -0.037,8.964 h -31.732 v -50.226 h 10.414 z"
     id="path19"
     inkscape:connector-curvature="0" /><path
     d="m 346.28,191.366 v 9.648 h -11.017 v 40.543 h -10.227 v -40.646 h -11.768 v -9.546 h 33.012 z"
     id="path21"
     inkscape:connector-curvature="0" /><path
     d="m 388.999,191.434 v 9.169 h -22.784 v 10.949 h 16.693 v 9.272 h -16.693 v 11.461 h 23.762 v 9.272 h -34.364 l 0.038,-50.124 h 33.348 z"
     id="path23"
     inkscape:connector-curvature="0" /><path
     d="m 188.605,336.887 c 3.208,0.307 6.047,1.313 8.516,3.021 2.469,1.708 4.242,3.635 5.32,5.781 1.354,2.299 2.03,4.763 2.03,7.39 0,1.227 -0.013,2.025 -0.038,2.397 -0.201,3.022 -0.915,5.541 -2.143,7.555 -1.229,2.015 -2.569,3.559 -4.023,4.632 -3.158,2.518 -6.479,3.799 -9.963,3.843 h -10.452 v 13.499 H 167.55 v -48.118 h 21.055 z m -10.602,25.028 h 8.497 c 1.303,-0.132 2.381,-0.416 3.233,-0.854 2.306,-1.204 3.685,-3.295 4.136,-6.273 0.075,-2.693 -0.552,-4.74 -1.88,-6.142 -1.329,-1.401 -3.096,-2.201 -5.301,-2.398 h -8.685 v 15.667 z"
     id="path29"
     inkscape:connector-curvature="0" /><path
     d="m 236.551,336.361 c 6.065,0.811 10.552,3.941 13.46,9.394 2.481,4.029 3.722,8.978 3.722,14.846 v 0.592 c 0,7.336 -2.043,13.576 -6.128,18.722 -2.908,3.46 -7.019,5.397 -12.332,5.813 -0.552,0.044 -1.09,0.065 -1.617,0.065 -5.515,0 -10.139,-2.036 -13.874,-6.109 -3.86,-5.43 -5.815,-11.003 -5.865,-16.718 -0.025,-0.481 -0.038,-0.963 -0.038,-1.445 0,-7.729 1.967,-14.123 5.903,-19.182 2.632,-2.759 5.376,-4.521 8.234,-5.288 1.98,-0.547 3.96,-0.821 5.94,-0.821 0.877,-0.001 1.742,0.043 2.595,0.131 z m -2.895,41.024 c 2.907,-0.131 5.364,-1.872 7.369,-5.223 1.454,-2.233 2.369,-5.518 2.745,-9.854 0.075,-5.518 -1.041,-10.039 -3.346,-13.564 -1.88,-2.452 -3.96,-3.821 -6.241,-4.106 -3.008,0.132 -5.515,1.851 -7.52,5.157 -1.429,2.321 -2.356,5.649 -2.782,9.984 -0.05,5.519 1.09,10.029 3.421,13.533 1.854,2.453 3.972,3.81 6.354,4.073 z"
     id="path31"
     inkscape:connector-curvature="0" /><path
     d="m 274.457,336.887 0.038,39.611 h 21.317 l -0.037,8.605 h -31.732 v -48.217 h 10.414 z"
     id="path33"
     inkscape:connector-curvature="0" /><path
     d="m 316.837,336.952 v 48.151 h -10.452 v -48.151 h 10.452 z"
     id="path35"
     inkscape:connector-curvature="0" /><path
     d="m 350.457,336.361 c 7.294,1.095 12.068,4.894 14.324,11.397 l 0.339,1.609 -9.513,1.74 c -0.776,-2.803 -2.105,-4.664 -3.985,-5.583 -1.88,-0.92 -4.085,-0.832 -6.617,0.263 -1.679,1.248 -3.076,2.956 -4.191,5.123 -1.116,2.168 -1.849,5.103 -2.2,8.803 -0.15,3.941 0.438,7.363 1.768,10.265 1.328,2.901 2.938,4.823 4.831,5.764 1.893,0.942 3.829,1.073 5.809,0.395 1.98,-0.438 3.56,-2.222 4.737,-5.354 l 9.513,2.562 c -1.278,4.401 -3.747,7.588 -7.407,9.559 -2.682,1.489 -5.84,2.332 -9.475,2.528 -6.843,-0.131 -11.956,-2.572 -15.34,-7.324 -3.559,-5.167 -5.389,-10.762 -5.489,-16.784 0.051,-7.532 1.905,-13.696 5.564,-18.491 2.307,-2.649 4.888,-4.479 7.745,-5.485 2.156,-0.744 4.499,-1.117 7.031,-1.117 0.827,-0.002 1.678,0.042 2.556,0.13 z"
     id="path37"
     inkscape:connector-curvature="0" /><path
     d="m 407.162,336.985 v 8.803 h -22.784 v 10.51 h 16.693 v 8.901 h -16.693 v 11.003 h 23.762 v 8.901 h -34.364 l 0.038,-48.118 h 33.348 z"
     id="path39"
     inkscape:connector-curvature="0" /></g>
</svg>