<?xml version="1.0" encoding="UTF-8" standalone="no"?>
<!-- Generator: Adobe Illustrator 16.0.2, SVG Export Plug-In . SVG Version: 6.00 Build 0)  -->

<svg
   xmlns:dc="http://purl.org/dc/elements/1.1/"
   xmlns:cc="http://creativecommons.org/ns#"
   xmlns:rdf="http://www.w3.org/1999/02/22-rdf-syntax-ns#"
   xmlns:svg="http://www.w3.org/2000/svg"
   xmlns="http://www.w3.org/2000/svg"
   xmlns:sodipodi="http://sodipodi.sourceforge.net/DTD/sodipodi-0.dtd"
   xmlns:inkscape="http://www.inkscape.org/namespaces/inkscape"
   version="1.1"
   id="Ebene_1"
   x="0px"
   y="0px"
   width="576px"
   height="576px"
   viewBox="0 0 576 576"
   enable-background="new 0 0 576 576"
   xml:space="preserve"
   inkscape:version="0.48.1 "
   sodipodi:docname="B5c.svg"
   inkscape:export-filename="C:\Documents and Settings\bertrand.bouteilles\Bureau\Panneaux\A - Route\3_interdiction\B5c.png"
   inkscape:export-xdpi="150"
   inkscape:export-ydpi="150"><metadata
   id="metadata47"><rdf:RDF><cc:Work
       rdf:about=""><dc:format>image/svg+xml</dc:format><dc:type
         rdf:resource="http://purl.org/dc/dcmitype/StillImage" /><dc:title></dc:title></cc:Work></rdf:RDF></metadata><defs
   id="defs45" /><sodipodi:namedview
   pagecolor="#ffffff"
   bordercolor="#666666"
   borderopacity="1"
   objecttolerance="10"
   gridtolerance="10"
   guidetolerance="10"
   inkscape:pageopacity="0"
   inkscape:pageshadow="2"
   inkscape:window-width="1280"
   inkscape:window-height="964"
   id="namedview43"
   showgrid="false"
   inkscape:zoom="0.50868056"
   inkscape:cx="467.70628"
   inkscape:cy="288"
   inkscape:window-x="-4"
   inkscape:window-y="-4"
   inkscape:window-maximized="1"
   inkscape:current-layer="Ebene_1" />
<circle
   cx="287.46899"
   cy="287.46899"
   r="286.96899"
   id="circle3"
   sodipodi:cx="287.46899"
   sodipodi:cy="287.46899"
   sodipodi:rx="286.96899"
   sodipodi:ry="286.96899"
   transform="translate(0.53100586,0.53100586)"
   style="fill:#ffffff;stroke:#000000;stroke-linecap:round;stroke-linejoin:round" />
<circle
   cx="290.46899"
   cy="287.46899"
   r="273.98001"
   id="circle5"
   sodipodi:cx="290.46899"
   sodipodi:cy="287.46899"
   sodipodi:rx="273.98001"
   sodipodi:ry="273.98001"
   transform="translate(-2.4689941,0.53100586)"
   style="fill:#ff0000;stroke:#ff0000;stroke-width:0.17640001000000000;stroke-linecap:round;stroke-linejoin:round" />
<circle
   cx="290.46899"
   cy="287.46899"
   r="192.438"
   id="circle7"
   sodipodi:cx="290.46899"
   sodipodi:cy="287.46899"
   sodipodi:rx="192.438"
   sodipodi:ry="192.438"
   transform="translate(-2.4689941,0.53100586)"
   style="fill:#ffffff;stroke:#ff0000;stroke-width:0.17640001;stroke-linecap:round;stroke-linejoin:round" />

<g
   id="g11">
	<g
   enable-background="new    "
   id="g13">
	</g>
</g>

<g
   id="g3024"
   transform="translate(-6.7637604,-11.859009)"><path
     id="path9"
     d="m 400.877,262.066 h -206.35 c -12.42,0 -22.84,9.371 -24.15,21.722 -1.313,12.351 6.906,23.701 19.049,26.312 h 213.719 c 8.871,0 17.021,-4.879 21.214,-12.697 4.191,-7.817 3.743,-17.306 -1.166,-24.694 -4.912,-7.39 -13.486,-11.479 -22.316,-10.643"
     inkscape:connector-curvature="0"
     style="stroke:#000000;stroke-width:0.17640001;stroke-linecap:round;stroke-linejoin:round" /><g
     id="g15">
	<rect
   id="rect17"
   height="80.524002"
   width="261.367"
   y="186.248"
   x="162.22501"
   style="fill:none" />
	<path
   id="path19"
   d="m 195.386,186.433 v 21.783 h 16.081 V 186.47 h 11.212 v 54.365 h -11.212 v -22.488 h -16.081 v 22.488 h -11.212 v -54.402 h 11.212 z"
   inkscape:connector-curvature="0" />
	<path
   id="path21"
   d="m 261.645,186.358 15.083,54.365 h -11.452 l -2.514,-9.24 h -16.161 l -2.554,9.24 h -11.572 l 14.923,-54.365 h 14.247 z m -12.849,34.772 h 11.532 l -5.586,-21.227 -5.946,21.227 z"
   inkscape:connector-curvature="0" />
	<path
   id="path23"
   d="m 298.135,186.358 0.04,44.754 H 320.8 l -0.04,9.723 h -33.678 v -54.477 h 11.053 z"
   inkscape:connector-curvature="0" />
	<path
   id="path25"
   d="m 355.814,186.396 v 10.465 h -11.691 v 43.975 H 333.269 V 196.75 H 320.78 v -10.354 h 35.034 z"
   inkscape:connector-curvature="0" />
	<path
   id="path27"
   d="m 401.642,186.47 v 9.945 h -24.181 v 11.875 h 17.717 v 10.057 h -17.717 v 12.432 h 25.219 v 10.057 h -36.472 l 0.04,-54.365 h 35.394 z"
   inkscape:connector-curvature="0" />
</g><g
     id="g29">
	<rect
   id="rect31"
   height="80.524002"
   width="261.36801"
   y="332.94601"
   x="162.224"
   style="fill:none" />
	<path
   id="path33"
   d="m 198.219,333.057 c 3.405,0.347 6.417,1.484 9.038,3.414 2.62,1.93 4.502,4.107 5.646,6.531 1.437,2.598 2.155,5.381 2.155,8.35 0,1.386 -0.014,2.289 -0.04,2.709 -0.213,3.414 -0.971,6.26 -2.274,8.535 -1.304,2.276 -2.727,4.021 -4.27,5.232 -3.352,2.846 -6.877,4.293 -10.574,4.342 h -11.093 v 15.252 h -10.933 v -54.365 h 22.345 z m -11.252,28.277 h 9.018 c 1.383,-0.148 2.527,-0.47 3.432,-0.965 2.447,-1.36 3.91,-3.723 4.389,-7.088 0.08,-3.043 -0.585,-5.355 -1.995,-6.939 -1.41,-1.583 -3.286,-2.486 -5.626,-2.709 h -9.217 v 17.701 z"
   inkscape:connector-curvature="0" />
	<path
   id="path35"
   d="m 260.846,333.168 v 9.945 h -24.181 v 11.875 h 17.717 v 10.057 h -17.717 v 12.432 h 25.218 v 10.057 h -36.471 v -54.365 h 35.434 z m -8.419,-13.619 -6.185,11.281 h -12.33 l 5.068,-11.281 h 13.447 z"
   inkscape:connector-curvature="0" />
	<path
   id="path37"
   d="m 300.569,333.057 15.084,54.365 h -11.451 l -2.516,-9.24 h -16.16 l -2.554,9.24 H 271.4 l 14.923,-54.365 h 14.246 z m -12.848,34.771 h 11.531 l -5.586,-21.227 -5.945,21.227 z"
   inkscape:connector-curvature="0" />
	<path
   id="path39"
   d="m 345.52,332.389 c 7.635,0.742 13.061,5.455 16.279,14.139 l -10.375,2.523 c -1.861,-3.81 -3.99,-6.098 -6.383,-6.865 -3.113,-1.088 -6.119,0.434 -9.02,4.564 -1.809,2.771 -2.926,6.816 -3.352,12.135 -0.08,5.863 0.912,10.416 2.973,13.656 2.063,3.241 4.49,5.047 7.283,5.418 4.707,-0.074 8.033,-3.377 9.975,-9.908 h -9.457 v -9.908 h 20.83 v 0.445 c 0.025,0.594 0.039,1.2 0.039,1.818 0,8.635 -2.221,15.636 -6.664,21.004 -2.979,3.811 -7.342,5.938 -13.088,6.383 h -0.877 c -12.77,0 -19.979,-8.436 -21.627,-25.309 -0.027,-0.494 -0.041,-1.002 -0.041,-1.521 0,-8.684 2.115,-15.957 6.346,-21.82 2.5,-2.969 5.199,-4.886 8.1,-5.752 2.287,-0.692 4.682,-1.039 7.182,-1.039 0.613,0 1.238,0.012 1.877,0.037 z"
   inkscape:connector-curvature="0" />
	<path
   id="path41"
   d="m 409.703,333.168 v 9.945 h -24.182 v 11.875 h 17.717 v 10.057 h -17.717 v 12.432 h 25.219 v 10.057 h -36.47 l 0.039,-54.365 h 35.394 z"
   inkscape:connector-curvature="0" />
</g></g>
</svg>