<?xml version="1.0" encoding="UTF-8" standalone="no"?>
<!-- Generator: Adobe Illustrator 16.0.2, SVG Export Plug-In . SVG Version: 6.00 Build 0)  -->

<svg
   xmlns:dc="http://purl.org/dc/elements/1.1/"
   xmlns:cc="http://creativecommons.org/ns#"
   xmlns:rdf="http://www.w3.org/1999/02/22-rdf-syntax-ns#"
   xmlns:svg="http://www.w3.org/2000/svg"
   xmlns="http://www.w3.org/2000/svg"
   xmlns:sodipodi="http://sodipodi.sourceforge.net/DTD/sodipodi-0.dtd"
   xmlns:inkscape="http://www.inkscape.org/namespaces/inkscape"
   version="1.1"
   id="Ebene_1"
   x="0px"
   y="0px"
   width="576px"
   height="576px"
   viewBox="0 0 576 576"
   style="enable-background:new 0 0 576 576;"
   xml:space="preserve"
   inkscape:version="0.48.1 "
   sodipodi:docname="B6a2.svg"
   inkscape:export-filename="C:\Documents and Settings\bertrand.bouteilles\Bureau\Panneaux\A - Route\3_interdiction\B6a2.png"
   inkscape:export-xdpi="150"
   inkscape:export-ydpi="150"><metadata
   id="metadata35"><rdf:RDF><cc:Work
       rdf:about=""><dc:format>image/svg+xml</dc:format><dc:type
         rdf:resource="http://purl.org/dc/dcmitype/StillImage" /><dc:title></dc:title></cc:Work></rdf:RDF></metadata><defs
   id="defs33" /><sodipodi:namedview
   pagecolor="#ffffff"
   bordercolor="#666666"
   borderopacity="1"
   objecttolerance="10"
   gridtolerance="10"
   guidetolerance="10"
   inkscape:pageopacity="0"
   inkscape:pageshadow="2"
   inkscape:window-width="1920"
   inkscape:window-height="1174"
   id="namedview31"
   showgrid="false"
   inkscape:zoom="0.71938294"
   inkscape:cx="13.398876"
   inkscape:cy="160.88539"
   inkscape:window-x="1276"
   inkscape:window-y="-4"
   inkscape:window-maximized="1"
   inkscape:current-layer="Ebene_1" />
<circle
   style="fill:#ffffff;stroke:#000000;stroke-linecap:round;stroke-linejoin:round;stroke-width:1.99631241;stroke-miterlimit:4;stroke-dasharray:none"
   cx="287.47"
   cy="287.46899"
   r="286.96899"
   id="circle3"
   sodipodi:cx="287.47"
   sodipodi:cy="287.46899"
   sodipodi:rx="286.96899"
   sodipodi:ry="286.96899"
   transform="matrix(1.0018472,0,0,1.0018472,-1.8602543e-6,-1.0620117)" />
<circle
   style="fill:#ff0000;stroke:#ff0000;stroke-width:0.17640001;stroke-linecap:round;stroke-linejoin:round"
   cx="287.47"
   cy="287.46899"
   r="273.98199"
   id="circle5"
   sodipodi:cx="287.47"
   sodipodi:cy="287.46899"
   sodipodi:rx="273.98199"
   sodipodi:ry="273.98199"
   transform="matrix(1.0018472,0,0,1.0018472,-1.8602543e-6,-1.0620117)" />
<path
   style="fill:#0000ff;stroke:#ff0000;stroke-width:0.17672585;stroke-linecap:round;stroke-linejoin:round"
   d="M 418.61783,428.74245 C 346.22335,495.4284 235.22169,496.87006 161.11806,432.09563 87.013431,367.31719 73.600701,257.12002 130.0037,176.45829 l 283.23722,247.58449 5.37691,4.69967 z"
   id="path7"
   inkscape:connector-curvature="0" />
<path
   style="fill:none;stroke:#0000ff;stroke-width:0.17672585;stroke-linecap:round;stroke-linejoin:round"
   d="m 417.60396,428.75547 c -72.1901,65.97164 -182.41332,67.18688 -256.04108,2.82621 C 87.93513,367.22402 74.402179,257.82331 130.12692,177.46415 l 282.66718,247.08857 4.80986,4.20275 z"
   id="path9"
   inkscape:connector-curvature="0" />
<path
   style="fill:none;stroke:#0000ff;stroke-width:0.17672585;stroke-linecap:round;stroke-linejoin:round"
   d="M 446.00533,396.2255 C 501.6349,315.80021 487.97271,206.41753 414.26781,142.14303 340.56392,77.870522 230.33869,79.219008 158.22974,145.2748 l 282.96171,246.75296 4.81388,4.19774 z"
   id="path11"
   inkscape:connector-curvature="0" />
<path
   style="fill:#0000ff;stroke:#ff0000;stroke-width:0.17672585;stroke-linecap:round;stroke-linejoin:round"
   d="M 446.12956,397.23135 C 502.43638,316.50451 488.89441,206.32236 414.71263,141.63509 340.53086,76.94782 229.5322,78.521722 157.21687,145.29083 l 283.53077,247.24887 5.38192,4.69165 z"
   id="path13"
   inkscape:connector-curvature="0" />


<g
   id="g21"
   transform="matrix(1.0018472,0,0,1.0018472,-1.8602543e-6,-1.0620117)">
	<path
   style="fill:#ffffff"
   d="m 273.82,153.691 v 64.556 h -13.119 l 0.047,-45.571 h -0.188 c -0.094,0.381 -1.223,1.216 -3.385,2.505 l -4.091,2.021 -3.667,1.318 c -1.474,0.293 -2.273,0.513 -2.398,0.659 v -13.623 l 2.915,-1.274 c 4.859,-2.9 8.354,-6.431 10.486,-10.591 h 13.4 z"
   id="path23"
   inkscape:connector-curvature="0" />
	<path
   style="fill:#ffffff"
   d="m 292.534,204.976 h 14.106 v 13.271 h -14.106 v -13.271 z"
   id="path25"
   inkscape:connector-curvature="0" />
	<path
   style="fill:#ffffff"
   d="m 343.811,153.691 v 64.556 h -13.119 l 0.047,-45.571 h -0.188 c -0.094,0.381 -1.223,1.216 -3.387,2.505 l -4.09,2.021 -3.668,1.318 c -1.474,0.293 -2.273,0.513 -2.398,0.659 v -13.623 l 2.916,-1.274 c 4.858,-2.9 8.354,-6.431 10.485,-10.591 h 13.402 z"
   id="path27"
   inkscape:connector-curvature="0" />
	<path
   style="fill:#ffffff"
   d="m 404.988,153.647 -0.047,12.349 h -23.229 l -1.599,10.986 c 2.193,-0.586 4.514,-0.835 6.959,-0.747 2.287,-0.059 4.623,0.176 7.006,0.703 3.448,1.026 6.52,2.828 9.217,5.405 3.73,3.809 5.846,8.027 6.348,12.656 0.031,0.674 0.047,1.333 0.047,1.978 0,2.813 -0.393,5.245 -1.176,7.295 -1.441,3.135 -3.417,5.948 -5.924,8.438 -4.139,3.633 -9.186,5.449 -15.142,5.449 h -0.94 l -4.326,-0.264 c -4.514,-0.468 -8.433,-1.948 -11.755,-4.438 -4.296,-3.691 -6.944,-7.485 -7.946,-11.382 l 13.541,-3.208 c 0.408,1.729 1.474,3.281 3.198,4.658 2.602,1.787 6.269,2.153 11.003,1.099 3.918,-1.494 5.752,-4.102 5.502,-7.822 0.094,-3.369 -1.537,-5.757 -4.891,-7.163 -2.32,-0.644 -4.938,-0.82 -7.853,-0.527 -2.226,0.439 -4.217,1.246 -5.972,2.417 l -11.709,-8.569 3.48,-29.312 h 36.208 z"
   id="path29"
   inkscape:connector-curvature="0" />
</g>
</svg>