<?xml version="1.0" encoding="UTF-8" standalone="no"?>
<!-- Generator: Adobe Illustrator 16.0.2, SVG Export Plug-In . SVG Version: 6.00 Build 0)  -->

<svg
   xmlns:dc="http://purl.org/dc/elements/1.1/"
   xmlns:cc="http://creativecommons.org/ns#"
   xmlns:rdf="http://www.w3.org/1999/02/22-rdf-syntax-ns#"
   xmlns:svg="http://www.w3.org/2000/svg"
   xmlns="http://www.w3.org/2000/svg"
   xmlns:sodipodi="http://sodipodi.sourceforge.net/DTD/sodipodi-0.dtd"
   xmlns:inkscape="http://www.inkscape.org/namespaces/inkscape"
   version="1.1"
   id="Ebene_1"
   x="0px"
   y="0px"
   width="575.99951"
   height="575.99951"
   viewBox="0 0 575.99951 575.99951"
   xml:space="preserve"
   inkscape:version="0.48.1 "
   sodipodi:docname="B6a3.svg"
   inkscape:export-filename="C:\Documents and Settings\bertrand.bouteilles\Bureau\Panneaux\A - Route\3_interdiction\B6a3.png"
   inkscape:export-xdpi="150"
   inkscape:export-ydpi="150"><metadata
   id="metadata37"><rdf:RDF><cc:Work
       rdf:about=""><dc:format>image/svg+xml</dc:format><dc:type
         rdf:resource="http://purl.org/dc/dcmitype/StillImage" /><dc:title></dc:title></cc:Work></rdf:RDF></metadata><defs
   id="defs35" /><sodipodi:namedview
   pagecolor="#ffffff"
   bordercolor="#666666"
   borderopacity="1"
   objecttolerance="10"
   gridtolerance="10"
   guidetolerance="10"
   inkscape:pageopacity="0"
   inkscape:pageshadow="2"
   inkscape:window-width="1920"
   inkscape:window-height="1174"
   id="namedview33"
   showgrid="false"
   inkscape:zoom="0.71938294"
   inkscape:cx="-38.993853"
   inkscape:cy="195.07606"
   inkscape:window-x="1276"
   inkscape:window-y="-4"
   inkscape:window-maximized="1"
   inkscape:current-layer="Ebene_1"
   fit-margin-top="0"
   fit-margin-left="0"
   fit-margin-right="0"
   fit-margin-bottom="0" />
<circle
   style="fill:#ffffff;stroke:#000000;stroke-linecap:round;stroke-linejoin:round;stroke-width:1.99631241;stroke-miterlimit:4;stroke-dasharray:none"
   cx="287.47"
   cy="287.46899"
   r="286.96899"
   id="circle3"
   sodipodi:cx="287.47"
   sodipodi:cy="287.46899"
   sodipodi:rx="286.96899"
   sodipodi:ry="286.96899"
   transform="scale(1.0018472,1.0018472)" />







<g
   id="g3081"
   transform="scale(1.0018472,1.0018472)"><circle
     id="circle5"
     r="273.98199"
     cy="287.46899"
     cx="287.47"
     style="fill:#ff0000;stroke:#ff0000;stroke-width:0.17640001;stroke-linecap:round;stroke-linejoin:round"
     sodipodi:cx="287.47"
     sodipodi:cy="287.46899"
     sodipodi:rx="273.98199"
     sodipodi:ry="273.98199"
     d="m 561.452,287.46899 c 0,151.31608 -122.66592,273.982 -273.982,273.982 -151.31608,0 -273.981993,-122.66592 -273.981993,-273.982 C 13.488007,136.15292 136.15392,13.487 287.47,13.487 c 151.31608,0 273.982,122.66592 273.982,273.98199 z" /><path
     id="path7"
     d="M 417.846,429.012 C 345.585,495.575 234.788,497.014 160.821,432.359 86.853,367.7 73.465,257.706 129.764,177.193 l 282.715,247.128 5.367,4.691 z"
     style="fill:#0000ff;stroke:#ff0000;stroke-width:0.17640001;stroke-linecap:round;stroke-linejoin:round"
     inkscape:connector-curvature="0" /><path
     id="path9"
     d="m 416.834,429.025 c -72.057,65.85 -182.077,67.063 -255.569,2.821 -73.492,-64.239 -87,-173.438 -31.378,-253.649 l 282.146,246.633 4.801,4.195 z"
     style="fill:none;stroke:#0000ff;stroke-width:0.17640001;stroke-linecap:round;stroke-linejoin:round"
     inkscape:connector-curvature="0" /><path
     id="path11"
     d="M 445.183,396.555 C 500.71,316.278 487.073,207.097 413.504,142.941 339.936,78.787 229.914,80.133 157.938,146.067 l 282.44,246.298 4.805,4.19 z"
     style="fill:none;stroke:#0000ff;stroke-width:0.17640001;stroke-linecap:round;stroke-linejoin:round"
     inkscape:connector-curvature="0" /><path
     id="path13"
     d="M 445.307,397.559 C 501.51,316.981 487.993,207.002 413.948,142.434 339.903,77.866 229.109,79.437 156.927,146.083 l 283.008,246.793 5.372,4.683 z"
     style="fill:#0000ff;stroke:#ff0000;stroke-width:0.17640001;stroke-linecap:round;stroke-linejoin:round"
     inkscape:connector-curvature="0" /><circle
     id="circle15"
     r="12.136"
     cy="392.418"
     cx="225.75301"
     style="fill:#0000ff;stroke:#000000;stroke-width:0.17640001;stroke-linecap:round;stroke-linejoin:round"
     sodipodi:cx="225.75301"
     sodipodi:cy="392.418"
     sodipodi:rx="12.136"
     sodipodi:ry="12.136"
     d="m 237.88901,392.418 c 0,6.70253 -5.43348,12.136 -12.136,12.136 -6.70253,0 -12.136,-5.43347 -12.136,-12.136 0,-6.70253 5.43347,-12.136 12.136,-12.136 6.70252,0 12.136,5.43347 12.136,12.136 z" /><g
     id="g17">
	<rect
   id="rect19"
   height="167.99001"
   width="274"
   style="fill:none"
   y="274.5"
   x="127.5" />
</g><g
     id="g21">
	<path
   id="path23"
   d="m 180.82,371.754 v 49.493 h -10.058 l 0.036,-34.938 h -0.144 c -0.072,0.293 -0.938,0.933 -2.596,1.921 l -3.136,1.55 -2.812,1.011 c -1.13,0.225 -1.743,0.394 -1.838,0.505 v -10.443 l 2.235,-0.978 c 3.725,-2.224 6.405,-4.931 8.039,-8.12 h 10.274 z"
   style="fill:#ffffff"
   inkscape:connector-curvature="0" />
	<path
   id="path25"
   d="m 218.384,371.822 c 7.233,1.01 11.884,4.817 13.951,11.421 l -10.058,2.595 c -0.962,-2.471 -2.728,-3.863 -5.299,-4.178 -4.422,-0.518 -7.307,0.449 -8.652,2.896 -0.889,1.348 -1.586,4.717 -2.091,10.107 5.047,-3.279 10.514,-3.885 16.403,-1.818 4.687,1.908 7.69,5.031 9.012,9.365 0.264,1.303 0.396,2.561 0.396,3.773 0,3.617 -1.178,6.807 -3.533,9.568 -2.788,3.258 -6.682,5.088 -11.68,5.492 -0.914,0.067 -1.802,0.102 -2.667,0.102 -11.32,0 -17.412,-6.289 -18.277,-18.867 -0.096,-1.662 -0.144,-3.257 -0.144,-4.785 0,-4.918 0.456,-9.152 1.37,-12.701 1.226,-4.672 3.689,-8.164 7.39,-10.479 2.884,-1.818 6.333,-2.729 10.347,-2.729 1.153,0.002 2.33,0.081 3.532,0.238 z m -5.155,40.328 c 5.071,0.202 7.955,-1.438 8.652,-4.919 0.192,-3.773 -1.898,-5.896 -6.272,-6.368 -5.143,-0.18 -8.016,1.572 -8.616,5.256 0.047,3.639 2.126,5.65 6.236,6.031 z"
   style="fill:#ffffff"
   inkscape:connector-curvature="0" />
	<path
   id="path27"
   d="m 237.67,411.072 h 10.815 v 10.175 H 237.67 v -10.175 z"
   style="fill:#ffffff"
   inkscape:connector-curvature="0" />
	<path
   id="path29"
   d="m 278.587,371.653 c 1.97,0.382 3.845,1.124 5.624,2.224 l 2.451,1.954 c 1.082,1.213 1.778,2.067 2.091,2.561 l 1.118,2.089 c 0.624,1.707 0.961,3.448 1.009,5.223 l -0.181,2.561 -0.612,1.887 c -0.697,1.617 -1.779,3.256 -3.245,4.918 l 0.18,0.438 1.73,1.786 1.118,1.583 1.009,2.358 c 0.553,1.64 0.829,3.246 0.829,4.818 0,3.189 -1.142,6.221 -3.425,9.096 -3.46,3.887 -7.943,5.919 -13.446,6.099 -1.995,0 -3.641,-0.112 -4.939,-0.337 -1.683,-0.426 -2.872,-0.786 -3.569,-1.078 l -2.163,-1.011 -1.838,-1.247 -1.658,-1.381 -1.694,-2.055 c -0.986,-1.505 -1.683,-2.932 -2.091,-4.279 l -0.036,-0.303 9.481,-2.426 c 0.456,1.684 1.598,2.965 3.425,3.84 1.129,0.428 2.799,0.663 5.011,0.708 l 1.694,-0.169 1.37,-0.404 1.045,-0.572 c 0.721,-0.449 1.37,-1.111 1.947,-1.988 0.288,-0.561 0.504,-1.324 0.649,-2.291 0.048,-0.785 0,-1.234 -0.145,-1.348 0.048,-0.358 -0.121,-0.909 -0.504,-1.65 l -0.901,-1.18 c -0.649,-0.605 -1.214,-1.021 -1.694,-1.246 -0.601,-0.314 -1.406,-0.572 -2.416,-0.775 l -3.929,-0.101 v -9.13 c 0.528,0.045 1.574,-0.022 3.136,-0.203 l 0.072,0.068 c 2.859,-0.314 4.662,-1.774 5.407,-4.381 l -0.072,-1.516 0.072,-0.236 -0.144,-0.471 -0.685,-1.247 c -0.673,-0.786 -1.286,-1.302 -1.838,-1.55 -0.097,-0.067 -0.914,-0.27 -2.452,-0.606 l -2.271,0.067 v -0.067 l -2.235,0.337 -1.586,0.641 -0.649,0.471 -0.721,0.978 -0.541,1.247 -9.373,-2.629 0.613,-1.516 0.216,-0.202 c -0.048,-0.112 0.228,-0.674 0.829,-1.685 l 1.01,-1.516 1.442,-1.551 c 0.528,-0.27 0.793,-0.471 0.793,-0.605 l 0.757,-0.506 c 1.875,-1.303 4.061,-2.134 6.561,-2.493 1.249,-0.18 2.751,-0.27 4.506,-0.27 1.275,0 2.56,0.09 3.858,0.269 z"
   style="fill:#ffffff"
   inkscape:connector-curvature="0" />
	<path
   id="path31"
   d="m 326.461,371.754 v 49.493 h -10.059 l 0.037,-34.938 h -0.145 c -0.072,0.293 -0.938,0.933 -2.596,1.921 l -3.137,1.55 -2.812,1.011 c -1.13,0.225 -1.743,0.394 -1.839,0.505 v -10.443 l 2.235,-0.978 c 3.726,-2.224 6.405,-4.931 8.039,-8.12 h 10.277 z"
   style="fill:#ffffff"
   inkscape:connector-curvature="0" />
</g></g>
</svg>