<?xml version="1.0" encoding="UTF-8" standalone="no"?>
<!--Generator: Xara Xtreme (www.xara.com), SVG filter version: 1.0.0.13-->

<svg
   xmlns:dc="http://purl.org/dc/elements/1.1/"
   xmlns:cc="http://creativecommons.org/ns#"
   xmlns:rdf="http://www.w3.org/1999/02/22-rdf-syntax-ns#"
   xmlns:svg="http://www.w3.org/2000/svg"
   xmlns="http://www.w3.org/2000/svg"
   xmlns:sodipodi="http://sodipodi.sourceforge.net/DTD/sodipodi-0.dtd"
   xmlns:inkscape="http://www.inkscape.org/namespaces/inkscape"
   version="1.1"
   overflow="visible"
   width="576px"
   height="576px"
   viewBox="0 0 459.86998 459.87002"
   id="svg2"
   inkscape:version="0.48.1 "
   sodipodi:docname="B6d.svg"
   style="fill-rule:evenodd;stroke-width:0.50099999;stroke-linejoin:bevel;overflow:visible"
   inkscape:export-filename="C:\Documents and Settings\bertrand.bouteilles\Bureau\Panneaux\A - Route\3_interdiction\B6d.png"
   inkscape:export-xdpi="150"
   inkscape:export-ydpi="150">
  <metadata
     id="metadata98">
    <rdf:RDF>
      <cc:Work
         rdf:about="">
        <dc:format>image/svg+xml</dc:format>
        <dc:type
           rdf:resource="http://purl.org/dc/dcmitype/StillImage" />
        <dc:title></dc:title>
      </cc:Work>
    </rdf:RDF>
  </metadata>
  <sodipodi:namedview
     pagecolor="#ffffff"
     bordercolor="#666666"
     borderopacity="1"
     objecttolerance="10"
     gridtolerance="10"
     guidetolerance="10"
     inkscape:pageopacity="0"
     inkscape:pageshadow="2"
     inkscape:window-width="1920"
     inkscape:window-height="1174"
     id="namedview96"
     showgrid="false"
     inkscape:zoom="0.70710678"
     inkscape:cx="-17.250232"
     inkscape:cy="307.35192"
     inkscape:window-x="1276"
     inkscape:window-y="-4"
     inkscape:window-maximized="1"
     inkscape:current-layer="Group"
     fit-margin-top="0.2"
     fit-margin-left="0.2"
     fit-margin-right="0.2"
     fit-margin-bottom="0.2" />
  <defs
     id="defs4">
    <marker
       id="DefaultArrow2"
       markerUnits="strokeWidth"
       viewBox="0 0 1 1"
       markerWidth="1"
       markerHeight="1"
       overflow="visible"
       orient="auto"
       style="overflow:visible">
      <!-- REF_ARROW_STRAIGHT (-2) -->
      <g
         transform="scale(0.00925926,0.00925926)"
         id="g7">
        <!-- 1/108 -->
        <path
           d="M -9,54 -9,-54 117,0 z"
           id="path9"
           inkscape:connector-curvature="0" />
      </g>
    </marker>
    <marker
       id="DefaultArrow3"
       markerUnits="strokeWidth"
       viewBox="0 0 1 1"
       markerWidth="1"
       markerHeight="1"
       overflow="visible"
       orient="auto"
       style="overflow:visible">
      <!-- REF_ARROW_ANGLED -->
      <g
         transform="scale(0.00925926,0.00925926)"
         id="g12">
        <path
           d="M -27,54 -9,0 -27,-54 135,0 z"
           id="path14"
           inkscape:connector-curvature="0" />
      </g>
    </marker>
    <marker
       id="DefaultArrow4"
       markerUnits="strokeWidth"
       viewBox="0 0 1 1"
       markerWidth="1"
       markerHeight="1"
       overflow="visible"
       orient="auto"
       style="overflow:visible">
      <!-- REF_ARROW_ROUNDED -->
      <g
         transform="scale(0.00925926,0.00925926)"
         id="g17">
        <path
           d="m -9,0 0,-45 c 0,-6.708 11.808,-11.58 18,-9 l 108,45 c 3.916,1.631 9,4.758 9,9 0,4.242 -5.084,7.369 -9,9 L 9,54 C 2.808,56.58 -9,51.708 -9,45 z"
           id="path19"
           inkscape:connector-curvature="0" />
      </g>
    </marker>
    <marker
       id="DefaultArrow5"
       markerUnits="strokeWidth"
       viewBox="0 0 1 1"
       markerWidth="1"
       markerHeight="1"
       overflow="visible"
       orient="auto"
       style="overflow:visible">
      <!-- REF_ARROW_SPOT -->
      <g
         transform="scale(0.00925926,0.00925926)"
         id="g22">
        <path
           d="M -54,0 C -54,29.807 -29.807,54 0,54 29.807,54 54,29.807 54,0 54,-29.807 29.807,-54 0,-54 -29.807,-54 -54,-29.807 -54,0 z"
           id="path24"
           inkscape:connector-curvature="0" />
      </g>
    </marker>
    <marker
       id="DefaultArrow6"
       markerUnits="strokeWidth"
       viewBox="0 0 1 1"
       markerWidth="1"
       markerHeight="1"
       overflow="visible"
       orient="auto"
       style="overflow:visible">
      <!-- REF_ARROW_DIAMOND -->
      <g
         transform="scale(0.00925926,0.00925926)"
         id="g27">
        <path
           d="M -63,0 0,63 63,0 0,-63 z"
           id="path29"
           inkscape:connector-curvature="0" />
      </g>
    </marker>
    <marker
       id="DefaultArrow7"
       markerUnits="strokeWidth"
       viewBox="0 0 1 1"
       markerWidth="1"
       markerHeight="1"
       overflow="visible"
       orient="auto"
       style="overflow:visible">
      <!-- REF_ARROW_FEATHER -->
      <g
         transform="scale(0.00925926,0.00925926)"
         id="g32">
        <path
           d="m 18,-54 90,0 L 63,0 108,54 18,54 -36,0 z"
           id="path34"
           inkscape:connector-curvature="0" />
      </g>
    </marker>
    <marker
       id="DefaultArrow8"
       markerUnits="strokeWidth"
       viewBox="0 0 1 1"
       markerWidth="1"
       markerHeight="1"
       overflow="visible"
       orient="auto"
       style="overflow:visible">
      <!-- REF_ARROW_FEATHER2 -->
      <g
         transform="scale(0.00925926,0.00925926)"
         id="g37">
        <path
           d="m -36,0 54,-54 36,0 -36,36 9,0 36,-36 36,0 -36,36 9,0 36,-36 36,0 -54,54 54,54 -36,0 -36,-36 -9,0 36,36 -36,0 -36,-36 -9,0 36,36 -36,0 z"
           id="path39"
           inkscape:connector-curvature="0" />
      </g>
    </marker>
    <marker
       id="DefaultArrow9"
       markerUnits="strokeWidth"
       viewBox="0 0 1 1"
       markerWidth="1"
       markerHeight="1"
       overflow="visible"
       orient="auto"
       style="overflow:visible">
      <!-- REF_ARROW_HOLLOWDIAMOND -->
      <g
         transform="scale(0.00925926,0.00925926)"
         id="g42">
        <path
           d="M 0,45 -45,0 0,-45 45,0 z M 0,63 -63,0 0,-63 63,0 z"
           id="path44"
           inkscape:connector-curvature="0" />
      </g>
    </marker>
    <filter
       id="StainedFilter"
       color-interpolation-filters="sRGB">
      <feBlend
         mode="multiply"
         in2="BackgroundImage"
         in="SourceGraphic"
         result="blend"
         id="feBlend47" />
      <feComposite
         in="blend"
         in2="SourceAlpha"
         operator="in"
         result="comp"
         id="feComposite49" />
    </filter>
    <filter
       id="BleachFilter"
       color-interpolation-filters="sRGB">
      <feBlend
         mode="screen"
         in2="BackgroundImage"
         in="SourceGraphic"
         result="blend"
         id="feBlend52" />
      <feComposite
         in="blend"
         in2="SourceAlpha"
         operator="in"
         result="comp"
         id="feComposite54" />
    </filter>
    <filter
       id="InvertTransparencyBitmapFilter"
       color-interpolation-filters="sRGB">
      <feComponentTransfer
         id="feComponentTransfer57">
        <feFuncR
           type="gamma"
           amplitude="1.055"
           exponent=".416666666"
           offset="-0.055"
           id="feFuncR59" />
        <feFuncG
           type="gamma"
           amplitude="1.055"
           exponent=".416666666"
           offset="-0.055"
           id="feFuncG61" />
        <feFuncB
           type="gamma"
           amplitude="1.055"
           exponent=".416666666"
           offset="-0.055"
           id="feFuncB63" />
      </feComponentTransfer>
      <feComponentTransfer
         id="feComponentTransfer65">
        <feFuncR
           type="linear"
           slope="-1"
           intercept="1"
           id="feFuncR67" />
        <feFuncG
           type="linear"
           slope="-1"
           intercept="1"
           id="feFuncG69" />
        <feFuncB
           type="linear"
           slope="-1"
           intercept="1"
           id="feFuncB71" />
        <feFuncA
           type="linear"
           slope="1"
           intercept="0"
           id="feFuncA73" />
      </feComponentTransfer>
      <feComponentTransfer
         id="feComponentTransfer75">
        <feFuncR
           type="gamma"
           amplitude="1"
           exponent="2.4"
           offset="0"
           id="feFuncR77" />
        <feFuncG
           type="gamma"
           amplitude="1"
           exponent="2.4"
           offset="0"
           id="feFuncG79" />
        <feFuncB
           type="gamma"
           amplitude="1"
           exponent="2.4"
           offset="0"
           id="feFuncB81" />
      </feComponentTransfer>
    </filter>
  </defs>
  <g
     id="Document"
     font-size="16"
     transform="matrix(1,0,0,-1,8.8060356,-678.91918)"
     style="font-size:16px;fill:none;stroke:#000000;font-family:Times New Roman">
    <g
       id="Spread"
       transform="translate(0,-1185.85)">
      <g
         id="Layer 1">
        <g
           id="Group">
          <circle
             transform="matrix(0.80055503,0,0,-0.80055503,-8.8461947,507.2898)"
             sodipodi:ry="286.96899"
             sodipodi:rx="286.96899"
             sodipodi:cy="287.46899"
             sodipodi:cx="287.47"
             style="fill:#ffffff;stroke:#000000;stroke-linecap:round;stroke-linejoin:round;stroke-width:1.99457981;stroke-miterlimit:4;stroke-dasharray:none"
             cx="287.47"
             cy="287.46899"
             r="286.96899"
             id="circle3"
             d="m 574.439,287.46899 c 0,158.4886 -128.4804,286.969 -286.969,286.969 -158.4886,0 -286.96899292,-128.4804 -286.96899292,-286.969 C 0.50100708,128.9804 128.9814,0.5 287.47,0.5 c 158.4886,0 286.969,128.4804 286.969,286.96899 z" />
          <circle
             transform="matrix(0.80055503,0,0,-0.80055503,-8.8461947,507.2898)"
             sodipodi:ry="273.98199"
             sodipodi:rx="273.98199"
             sodipodi:cy="287.46899"
             sodipodi:cx="287.47"
             style="fill:#ff0000;stroke:#ff0000;stroke-width:0.17640001;stroke-linecap:round;stroke-linejoin:round"
             cx="287.47"
             cy="287.46899"
             r="273.98199"
             id="circle5"
             d="m 561.452,287.46899 c 0,151.31608 -122.66592,273.982 -273.982,273.982 -151.31608,0 -273.981993,-122.66592 -273.981993,-273.982 C 13.488007,136.15292 136.15392,13.487 287.47,13.487 c 151.31608,0 273.982,122.66592 273.982,273.98199 z" />
          <g
             id="g4004"
             transform="matrix(1.0006938,0,0,1.0006938,-542.07617,-150.25994)"
             style="fill:#0000ff">
            <path
               inkscape:connector-curvature="0"
               id="path7"
               d="M 762.82814,408.95814 666.3573,312.42071 c 0.19615,-0.15756 0.39863,-0.30914 0.59534,-0.46561 0.21513,-0.17157 0.42593,-0.34878 0.64186,-0.51896 0.5502,-0.4331 1.11337,-0.86455 1.66782,-1.28895 1.85403,-1.41939 3.7394,-2.78668 5.63873,-4.10984 0.0888,-0.0635 0.17381,-0.13128 0.26271,-0.19288 0.52525,-0.36426 1.05253,-0.7258 1.58138,-1.08282 0.574,-0.38762 1.14988,-0.76369 1.72772,-1.14261 0.9044,-0.59324 1.80204,-1.16275 2.71548,-1.73478 1.01803,-0.63758 2.05241,-1.27313 3.08126,-1.88442 2.0577,-1.22268 4.13276,-2.38018 6.23084,-3.49798 1.04901,-0.55881 2.11432,-1.1073 3.17275,-1.63997 0.79352,-0.39935 1.57772,-0.80128 2.37626,-1.18596 0.5001,-0.24085 1.0046,-0.46677 1.50658,-0.70193 0.11508,-0.0538 0.22412,-0.11946 0.33929,-0.17298 1.001,-0.46503 2.00741,-0.91146 3.01645,-1.35397 1.0671,-0.46796 2.14048,-0.92453 3.21606,-1.3673 1.07557,-0.44274 2.16239,-0.8766 3.246,-1.2941 0.96414,-0.37207 1.93883,-0.74447 2.90844,-1.09624 0.52911,-0.19163 1.06053,-0.37154 1.59139,-0.55728 0.531,-0.18606 1.05888,-0.37719 1.59143,-0.55726 0.63583,-0.21459 1.27423,-0.42266 1.91239,-0.6288 0.36906,-0.1196 0.73431,-0.23283 1.10417,-0.34929 0.2446,-0.0761 0.49173,-0.1489 0.73664,-0.2246 1.07984,-0.3339 2.15689,-0.65851 3.24267,-0.96819 0.12272,-0.0346 0.24652,-0.0641 0.36919,-0.10001 0.78451,-0.22189 1.57429,-0.44969 2.36136,-0.65879 0.22882,-0.061 0.46103,-0.11138 0.69013,-0.17137 0.89393,-0.23311 1.78864,-0.46381 2.68563,-0.68041 0.97087,-0.23456 1.93764,-0.45522 2.9118,-0.67054 0.23027,-0.051 0.46136,-0.0961 0.69176,-0.14638 0.51837,-0.11177 1.03718,-0.22274 1.55651,-0.32941 0.54201,-0.11192 1.08843,-0.229 1.63135,-0.33447 0.21409,-0.0428 0.42926,-0.0773 0.64358,-0.11744 1.13135,-0.21479 2.25714,-0.41302 3.3924,-0.60241 2.27053,-0.3786 4.56631,-0.7069 6.84974,-0.98347 2.28338,-0.27668 4.55215,-0.50807 6.84473,-0.68254 0.94839,-0.0727 1.89442,-0.13526 2.84358,-0.19041 0.79962,-0.0418 1.5983,-0.0776 2.39806,-0.1096 0.52433,-0.0236 1.05023,-0.039 1.57478,-0.0559 0.0249,-7.8e-4 0.0501,-9.3e-4 0.075,-8.8e-4 0.94915,-0.0328 1.90237,-0.0507 2.85196,-0.066 2.29996,-0.0278 4.59672,-0.007 6.89469,0.0659 0.92261,0.0303 1.84212,0.0699 2.76391,0.1161 0.34418,0.0174 0.68698,0.0367 1.03103,0.0565 1.03025,0.0586 2.06588,0.11514 3.09482,0.1942 1.14619,0.0881 2.28336,0.18371 3.42743,0.2974 2.2883,0.22736 4.56938,0.51627 6.84658,0.84571 1.13482,0.16388 2.28545,0.33415 3.41746,0.52347 0.21903,0.0356 0.43958,0.0676 0.65851,0.10637 0.91897,0.15784 1.82394,0.34395 2.74065,0.51857 1.13121,0.21565 2.2757,0.43371 3.40256,0.6748 1.12681,0.24112 2.23565,0.4865 3.35761,0.75299 2.22603,0.52873 4.4511,1.1069 6.65536,1.73546 0.0174,0.006 0.0327,0.0154 0.0503,0.0211 0.23837,0.0682 0.47704,0.13357 0.71509,0.20278 0.86919,0.25295 1.7419,0.50935 2.60764,0.77805 0.24631,0.077 0.49571,0.14845 0.74163,0.22606 0.86109,0.27201 1.70549,0.56853 2.56276,0.85616 0.2481,0.084 0.49573,0.16664 0.74341,0.25103 0.84732,0.28912 1.69606,0.57836 2.53943,0.88279 0.25622,0.0922 0.51423,0.18059 0.77008,0.2743 0.82988,0.30457 1.66695,0.61653 2.49288,0.936 0.26645,0.10294 0.53223,0.2181 0.79824,0.32255 0.82271,0.32357 1.62798,0.65085 2.44635,0.98921 0.2661,0.10984 0.53259,0.21113 0.79822,0.32254 0.79983,0.33596 1.60432,0.6922 2.3998,1.04243 0.28187,0.12389 0.5702,0.24345 0.85151,0.3691 0.30282,0.13548 0.6025,0.27806 0.90466,0.41568 0.77097,0.35102 1.53519,0.7095 2.30173,1.07402 1.06689,0.5074 2.12837,1.03263 3.1864,1.56618 0.74407,0.37528 1.49069,0.74077 2.23011,1.12891 0.30962,0.16233 0.62597,0.32435 0.93465,0.48888 0.26116,0.13933 0.51944,0.28291 0.78002,0.42395 0.78557,0.42519 1.56158,0.85689 2.34158,1.29681 0.70518,0.39784 1.41002,0.80227 2.1104,1.21212 0.32917,0.19237 0.66323,0.39035 0.99127,0.58527 0.68609,0.40844 1.38084,0.82029 2.06217,1.24037 0.34255,0.2109 0.67836,0.41968 1.01943,0.6335 0.6554,0.41121 1.31174,0.82495 1.96249,1.24708 0.35836,0.23225 0.71759,0.46938 1.07431,0.70494 0.63202,0.41738 1.26194,0.84914 1.88927,1.277 0.37096,0.2529 0.73518,0.52166 1.10438,0.77818 0.99458,0.69093 1.98944,1.38932 2.97192,2.10657 0.96348,0.70348 1.92251,1.40954 2.87378,2.13839 0.0179,0.0156 0.0359,0.0309 0.0541,0.0462 0.55765,0.42761 1.11138,0.8556 1.66477,1.292 0.40677,0.32116 0.81319,0.64522 1.21735,0.971 l -4.01403,4.05139 -92.47347,92.41616 z"
               style="fill:#0000ff;stroke:#ff0000;stroke-width:0.14112;stroke-linecap:round;stroke-linejoin:round" />
            <path
               inkscape:connector-curvature="0"
               id="path13"
               d="m 774.59475,575.32575 c -1.14626,0.0871 -2.29587,0.14747 -3.44372,0.20969 -2.09846,0.1123 -4.2009,0.17738 -6.3007,0.20402 -0.86468,0.0105 -1.71634,0.004 -2.58095,5e-4 -1.43502,-0.008 -2.87981,-0.011 -4.31386,-0.0565 -0.9225,-0.0294 -1.84221,-0.0662 -2.76402,-0.11207 -0.30144,-0.015 -0.60335,-0.0219 -0.9047,-0.0386 -0.12606,-0.006 -0.25152,-0.0167 -0.37753,-0.0247 -0.94694,-0.0553 -1.89987,-0.13441 -2.84565,-0.20692 -1.012,-0.078 -2.015,-0.17233 -3.02537,-0.26986 -0.20075,-0.0195 -0.40297,-0.0156 -0.6037,-0.0343 -0.40536,-0.0406 -0.80739,-0.099 -1.21257,-0.14285 -0.67225,-0.073 -1.34778,-0.13142 -2.01917,-0.21317 -0.20286,-0.0246 -0.4043,-0.0584 -0.6071,-0.0844 -0.9382,-0.11799 -1.87153,-0.24968 -2.80769,-0.38489 -0.84383,-0.12168 -1.6893,-0.24292 -2.5316,-0.3787 -0.38861,-0.0628 -0.77782,-0.13043 -1.16605,-0.19612 -0.11771,-0.0199 -0.23659,-0.0308 -0.35428,-0.0509 -0.9235,-0.15849 -1.84542,-0.33769 -2.76632,-0.51305 -0.71502,-0.13615 -1.42092,-0.28451 -2.13424,-0.43083 -0.41519,-0.0849 -0.82966,-0.15233 -1.24427,-0.24093 -0.22106,-0.0473 -0.44118,-0.10712 -0.66208,-0.15533 -0.96482,-0.21064 -1.93998,-0.42487 -2.90121,-0.65419 -0.16177,-0.0386 -0.32243,-0.0785 -0.48413,-0.11733 -2.02092,-0.48904 -4.01954,-1.02263 -6.02236,-1.59407 -0.23886,-0.0682 -0.47679,-0.13246 -0.71538,-0.20183 -1.93885,-0.5633 -3.86748,-1.17002 -5.78653,-1.81064 -0.043,-0.0146 -0.0856,-0.0271 -0.12812,-0.041 -0.0426,-0.0146 -0.0857,-0.0272 -0.12812,-0.0413 -0.20621,-0.0699 -0.40963,-0.13831 -0.61561,-0.20857 -0.84953,-0.28922 -1.69716,-0.59978 -2.54239,-0.90417 -0.25573,-0.0924 -0.51501,-0.17962 -0.77036,-0.27325 -0.83342,-0.30518 -1.66528,-0.61257 -2.49419,-0.93251 -0.68058,-0.26269 -1.35769,-0.54087 -2.03506,-0.81347 -0.40098,-0.16137 -0.80984,-0.30398 -1.20968,-0.46883 -0.26964,-0.11136 -0.53127,-0.23336 -0.80041,-0.34634 -0.80495,-0.33727 -1.60116,-0.68763 -2.40124,-1.03909 -0.80401,-0.35375 -1.60527,-0.72069 -2.40464,-1.08897 -0.44113,-0.20292 -0.88012,-0.40438 -1.31965,-0.61169 -0.28312,-0.13366 -0.57121,-0.25727 -0.85371,-0.39283 -0.89443,-0.42916 -1.78297,-0.87378 -2.67107,-1.32137 -1.05809,-0.5333 -2.12005,-1.07879 -3.16874,-1.63827 -1.04872,-0.55948 -2.08514,-1.13081 -3.12399,-1.71651 -1.03883,-0.58568 -2.07564,-1.18108 -3.10415,-1.793 -1.02848,-0.61191 -2.04163,-1.23313 -3.05936,-1.87125 -1.01769,-0.63817 -2.03306,-1.28335 -3.03949,-1.94778 -2.01291,-1.32888 -4.00619,-2.71937 -5.97134,-4.15348 -0.76301,-0.55715 -1.51616,-1.12674 -2.27084,-1.69949 -0.39961,-0.30297 -0.79299,-0.61379 -1.19042,-0.92115 -0.78633,-0.60818 -1.57827,-1.21845 -2.3559,-1.84406 l 96.48762,-96.46099 92.42889,92.47755 4.03387,4.03499 c -0.40502,0.32559 -0.80521,0.63883 -1.21259,0.9597 -0.55135,0.43486 -1.10997,0.86495 -1.66603,1.29129 -0.39611,0.30339 -0.79272,0.60913 -1.19098,0.90813 -0.57917,0.43522 -1.15683,0.87034 -1.74083,1.2964 -0.38255,0.27892 -0.76185,0.55495 -1.14619,0.82989 -0.60385,0.43207 -1.20869,0.85417 -1.8174,1.27657 -0.995,0.69036 -2.01198,1.37096 -3.01866,2.03502 -1.00659,0.66403 -2.0074,1.29745 -3.02529,1.93523 -1.01791,0.63781 -2.05004,1.27725 -3.07864,1.88879 -1.02874,0.6115 -2.07145,1.20539 -3.11048,1.79069 -0.75796,0.427 -1.50645,0.84427 -2.26972,1.25729 -0.28103,0.15184 -0.564,0.30862 -0.8458,0.45861 -0.31228,0.16646 -0.63056,0.32613 -0.9438,0.49032 -0.0233,0.013 -0.0494,0.0177 -0.0729,0.0304 -1.00591,0.52585 -2.01251,1.03218 -3.02767,1.53448 -0.01,0.004 -0.0129,0.0219 -0.0228,0.0271 -0.75933,0.37549 -1.51563,0.74532 -2.27986,1.10761 -0.28942,0.13743 -0.58413,0.2749 -0.87411,0.41042 -0.17005,0.0793 -0.33997,0.15659 -0.51023,0.23525 -0.88924,0.41073 -1.77831,0.81665 -2.6739,1.20966 -0.80154,0.35171 -1.60346,0.70383 -2.40981,1.04129 -0.26723,0.11217 -0.53662,0.21999 -0.80434,0.3305 -0.81755,0.33678 -1.64084,0.67263 -2.463,0.99484 -0.26116,0.10235 -0.51964,0.2028 -0.78115,0.3038 -0.11306,0.0436 -0.2293,0.0802 -0.34246,0.12357 -1.80581,0.69136 -3.62687,1.3542 -5.45324,1.97548 -0.25191,0.0864 -0.50735,0.16782 -0.75958,0.25225 -0.0154,0.006 -0.0344,-0.002 -0.0499,0.004 -1.08288,0.36172 -2.1469,0.71045 -3.23626,1.04753 -0.87037,0.26936 -1.75205,0.55186 -2.6263,0.80552 -0.23822,0.0692 -0.47463,0.13095 -0.7131,0.19896 -0.033,0.009 -0.0646,0.0224 -0.0984,0.0313 -1.07826,0.30647 -2.16448,0.59037 -3.24815,0.87297 -1.11685,0.29122 -2.22917,0.564 -3.35131,0.82986 -3.3664,0.79754 -6.75372,1.47704 -10.15939,2.0457 -2.27046,0.37915 -4.54003,0.71427 -6.82336,0.99138 -0.94311,0.11458 -1.89003,0.2215 -2.8349,0.31864 -0.54826,0.0559 -1.09411,0.11209 -1.64282,0.16172 -0.7964,0.0732 -1.59366,0.15226 -2.39105,0.21312 z"
               style="fill:#0000ff;stroke:#ff0000;stroke-width:0.14112;stroke-linecap:round;stroke-linejoin:round" />
            <path
               inkscape:connector-curvature="0"
               id="path7-4"
               d="m 780.99683,427.11054 96.53743,-96.47084 c 0.15756,0.19615 0.30914,0.39863 0.46561,0.59534 0.17157,0.21513 0.34878,0.42593 0.51896,0.64186 0.4331,0.5502 0.86455,1.11337 1.28895,1.66782 1.41939,1.85403 2.78668,3.7394 4.10984,5.63873 0.0635,0.0888 0.13128,0.17381 0.19288,0.26271 0.36426,0.52525 0.7258,1.05253 1.08282,1.58138 0.38762,0.574 0.76369,1.14988 1.14261,1.72772 0.59324,0.9044 1.16275,1.80204 1.73478,2.71548 0.63758,1.01803 1.27313,2.05241 1.88442,3.08126 1.22268,2.0577 2.38018,4.13276 3.49798,6.23084 0.55881,1.04901 1.1073,2.11432 1.63997,3.17275 0.39935,0.79352 0.80128,1.57772 1.18596,2.37626 0.24085,0.5001 0.46677,1.0046 0.70193,1.50658 0.0538,0.11508 0.11946,0.22412 0.17298,0.33929 0.46503,1.001 0.91146,2.00741 1.35397,3.01645 0.46796,1.0671 0.92453,2.14048 1.3673,3.21606 0.44274,1.07557 0.8766,2.16239 1.2941,3.246 0.37207,0.96414 0.74447,1.93883 1.09624,2.90844 0.19163,0.52911 0.37154,1.06053 0.55728,1.59139 0.18606,0.531 0.37719,1.05888 0.55726,1.59143 0.21459,0.63583 0.42266,1.27423 0.6288,1.91239 0.1196,0.36906 0.23283,0.73431 0.34929,1.10417 0.0761,0.2446 0.1489,0.49173 0.2246,0.73664 0.3339,1.07984 0.65851,2.15689 0.96819,3.24267 0.0346,0.12272 0.0641,0.24652 0.10001,0.36919 0.22189,0.78451 0.44969,1.57429 0.65879,2.36136 0.061,0.22882 0.11138,0.46103 0.17137,0.69013 0.23311,0.89393 0.46381,1.78864 0.68041,2.68563 0.23456,0.97087 0.45522,1.93764 0.67054,2.9118 0.051,0.23027 0.0961,0.46136 0.14638,0.69176 0.11177,0.51837 0.22274,1.03718 0.32941,1.55651 0.11192,0.54201 0.229,1.08843 0.33447,1.63135 0.0428,0.21409 0.0773,0.42926 0.11744,0.64358 0.21479,1.13135 0.41302,2.25714 0.60241,3.3924 0.3786,2.27053 0.7069,4.56631 0.98347,6.84974 0.27668,2.28337 0.50807,4.55215 0.68254,6.84473 0.0727,0.94839 0.13526,1.89442 0.19041,2.84358 0.0418,0.79962 0.0776,1.5983 0.1096,2.39806 0.0236,0.52432 0.039,1.05023 0.0559,1.57478 7.8e-4,0.0249 8e-4,0.0501 8e-4,0.075 0.0328,0.94914 0.0507,1.90237 0.066,2.85196 0.0278,2.29996 0.007,4.59672 -0.0659,6.89469 -0.0303,0.92261 -0.0699,1.84212 -0.1161,2.76391 -0.0174,0.34418 -0.0367,0.68698 -0.0565,1.03103 -0.0586,1.03025 -0.11513,2.06588 -0.1942,3.09482 -0.0881,1.14619 -0.18371,2.28336 -0.2974,3.42743 -0.22736,2.2883 -0.51627,4.56938 -0.84571,6.84658 -0.16388,1.13482 -0.33414,2.28545 -0.52346,3.41746 -0.0356,0.21903 -0.0676,0.43958 -0.10638,0.65851 -0.15784,0.91897 -0.34394,1.82394 -0.51857,2.74065 -0.21564,1.13121 -0.43371,2.2757 -0.6748,3.40256 -0.24112,1.12681 -0.48649,2.23565 -0.75299,3.35761 -0.52873,2.22603 -1.10689,4.4511 -1.73545,6.65536 -0.006,0.0174 -0.0154,0.0327 -0.0211,0.0503 -0.0682,0.23838 -0.13357,0.47704 -0.20278,0.7151 -0.25295,0.86918 -0.50935,1.74189 -0.77805,2.60764 -0.077,0.2463 -0.14845,0.4957 -0.22606,0.74162 -0.27201,0.8611 -0.56853,1.7055 -0.85616,2.56276 -0.084,0.24811 -0.16664,0.49574 -0.25103,0.74342 -0.28912,0.84732 -0.57836,1.69605 -0.88279,2.53942 -0.0922,0.25623 -0.18059,0.51423 -0.2743,0.77008 -0.30457,0.82988 -0.61653,1.66695 -0.936,2.49288 -0.10294,0.26646 -0.2181,0.53223 -0.32255,0.79824 -0.32357,0.82271 -0.65085,1.62799 -0.98921,2.44635 -0.10984,0.26611 -0.21113,0.5326 -0.32254,0.79823 -0.33596,0.79982 -0.6922,1.60432 -1.04243,2.3998 -0.12389,0.28186 -0.24345,0.5702 -0.3691,0.8515 -0.13548,0.30283 -0.27806,0.60251 -0.41568,0.90467 -0.35102,0.77096 -0.7095,1.53519 -1.07402,2.30172 -0.5074,1.06689 -1.03263,2.12837 -1.56618,3.1864 -0.37528,0.74408 -0.74077,1.49069 -1.12891,2.23012 -0.16233,0.30961 -0.32435,0.62596 -0.48888,0.93464 -0.13933,0.26116 -0.28291,0.51944 -0.42395,0.78003 -0.42519,0.78557 -0.85689,1.56157 -1.29681,2.34157 -0.39784,0.70519 -0.80227,1.41003 -1.21212,2.1104 -0.19237,0.32917 -0.39035,0.66324 -0.58527,0.99128 -0.40844,0.68608 -0.82029,1.38084 -1.24037,2.06216 -0.2109,0.34256 -0.41968,0.67836 -0.6335,1.01944 -0.41121,0.6554 -0.82495,1.31173 -1.24708,1.96248 -0.23225,0.35836 -0.46938,0.7176 -0.70494,1.07432 -0.41738,0.63201 -0.84914,1.26193 -1.277,1.88927 -0.2529,0.37096 -0.52166,0.73517 -0.77818,1.10437 -0.69093,0.99459 -1.38932,1.98944 -2.10657,2.97192 -0.70348,0.96348 -1.40954,1.92252 -2.13839,2.87379 -0.0156,0.0179 -0.0309,0.0359 -0.0462,0.0541 -0.42761,0.55765 -0.8556,1.11138 -1.292,1.66477 -0.32116,0.40677 -0.64522,0.81319 -0.971,1.21735 l -4.05139,-4.01403 -92.41616,-92.47347 z"
               style="font-size:16px;fill:#0000ff;fill-rule:evenodd;stroke:#ff0000;stroke-width:0.14112;stroke-linecap:round;stroke-linejoin:round;overflow:visible;font-family:Times New Roman" />
            <path
               inkscape:connector-curvature="0"
               id="path13-5"
               d="m 614.62922,438.87715 c -0.0871,-1.14626 -0.14747,-2.29587 -0.20969,-3.44372 -0.1123,-2.09846 -0.17738,-4.2009 -0.20402,-6.3007 -0.0105,-0.86468 -0.004,-1.71635 -5e-4,-2.58095 0.008,-1.43502 0.011,-2.87981 0.0565,-4.31386 0.0294,-0.9225 0.0662,-1.84222 0.11207,-2.76402 0.015,-0.30144 0.0219,-0.60336 0.0386,-0.9047 0.006,-0.12606 0.0167,-0.25152 0.0247,-0.37754 0.0553,-0.94693 0.13441,-1.89986 0.20692,-2.84564 0.078,-1.012 0.17233,-2.015 0.26986,-3.02537 0.0195,-0.20075 0.0156,-0.40297 0.0343,-0.60371 0.0406,-0.40536 0.099,-0.80738 0.14285,-1.21256 0.073,-0.67225 0.13142,-1.34778 0.21317,-2.01917 0.0246,-0.20286 0.0584,-0.4043 0.0844,-0.6071 0.11799,-0.9382 0.24968,-1.87153 0.38489,-2.80769 0.12168,-0.84383 0.24292,-1.6893 0.3787,-2.5316 0.0628,-0.38861 0.13043,-0.77782 0.19612,-1.16605 0.0199,-0.11771 0.0308,-0.23659 0.0509,-0.35428 0.15849,-0.9235 0.33769,-1.84542 0.51305,-2.76632 0.13615,-0.71502 0.28451,-1.42092 0.43083,-2.13424 0.0849,-0.41519 0.15233,-0.82966 0.24093,-1.24427 0.0473,-0.22106 0.10712,-0.44118 0.15533,-0.66208 0.21064,-0.96482 0.42487,-1.93998 0.65419,-2.90121 0.0386,-0.16177 0.0785,-0.32243 0.11733,-0.48413 0.48904,-2.02092 1.02263,-4.01954 1.59407,-6.02236 0.0682,-0.23886 0.13246,-0.47679 0.20183,-0.71538 0.5633,-1.93885 1.17002,-3.86748 1.81064,-5.78653 0.0146,-0.043 0.0271,-0.0856 0.041,-0.12812 0.0146,-0.0426 0.0272,-0.0857 0.0413,-0.12812 0.0699,-0.20621 0.13831,-0.40963 0.20857,-0.61561 0.28922,-0.84953 0.59978,-1.69716 0.90417,-2.54239 0.0924,-0.25573 0.17962,-0.51501 0.27325,-0.77036 0.30518,-0.83342 0.61257,-1.66528 0.93251,-2.49419 0.26269,-0.68058 0.54087,-1.35769 0.81347,-2.03506 0.16137,-0.40098 0.30398,-0.80984 0.46883,-1.20968 0.11136,-0.26964 0.23336,-0.53127 0.34634,-0.80041 0.33727,-0.80495 0.68763,-1.60116 1.03909,-2.40124 0.35375,-0.80401 0.72069,-1.60527 1.08897,-2.40464 0.20292,-0.44113 0.40438,-0.88012 0.61169,-1.31965 0.13366,-0.28312 0.25727,-0.57121 0.39283,-0.85371 0.42916,-0.89443 0.87378,-1.78297 1.32137,-2.67107 0.5333,-1.05809 1.07879,-2.12005 1.63827,-3.16874 0.55948,-1.04872 1.13081,-2.08514 1.71651,-3.12399 0.58568,-1.03883 1.18108,-2.07564 1.793,-3.10415 0.61191,-1.02848 1.23313,-2.04163 1.87125,-3.05936 0.63817,-1.01769 1.28335,-2.03306 1.94778,-3.03949 1.32888,-2.01291 2.71937,-4.00619 4.15348,-5.97134 0.55715,-0.76301 1.12674,-1.51616 1.69949,-2.27084 0.30297,-0.39961 0.61379,-0.79299 0.92115,-1.19042 0.60818,-0.78633 1.21845,-1.57827 1.84406,-2.3559 l 96.46099,96.48761 -92.47755,92.4289 -4.03499,4.03387 c -0.32559,-0.40502 -0.63883,-0.80521 -0.9597,-1.21259 -0.43486,-0.55135 -0.86495,-1.10997 -1.29129,-1.66603 -0.30339,-0.39611 -0.60913,-0.79272 -0.90813,-1.19098 -0.43522,-0.57917 -0.87034,-1.15683 -1.2964,-1.74083 -0.27892,-0.38255 -0.55495,-0.76185 -0.82989,-1.14619 -0.43207,-0.60385 -0.85417,-1.20869 -1.27657,-1.8174 -0.69036,-0.995 -1.37096,-2.01198 -2.03502,-3.01866 -0.66403,-1.00659 -1.29745,-2.0074 -1.93523,-3.02529 -0.63781,-1.01791 -1.27725,-2.05004 -1.88879,-3.07864 -0.6115,-1.02874 -1.20539,-2.07145 -1.79069,-3.11048 -0.427,-0.75796 -0.84427,-1.50645 -1.25729,-2.26972 -0.15184,-0.28103 -0.30862,-0.564 -0.45861,-0.8458 -0.16646,-0.31228 -0.32613,-0.63056 -0.49032,-0.9438 -0.013,-0.0233 -0.0177,-0.0494 -0.0304,-0.0729 -0.52585,-1.00591 -1.03218,-2.01251 -1.53448,-3.02767 -0.004,-0.01 -0.0219,-0.0129 -0.0271,-0.0228 -0.37548,-0.75933 -0.74532,-1.51563 -1.1076,-2.27987 -0.13744,-0.28941 -0.2749,-0.58412 -0.41042,-0.8741 -0.0793,-0.17006 -0.1566,-0.33998 -0.23526,-0.51023 -0.41072,-0.88924 -0.81664,-1.77831 -1.20966,-2.67391 -0.3517,-0.80153 -0.70382,-1.60345 -1.04128,-2.4098 -0.11218,-0.26724 -0.22,-0.53662 -0.3305,-0.80434 -0.33678,-0.81755 -0.67264,-1.64084 -0.99484,-2.463 -0.10236,-0.26116 -0.2028,-0.51964 -0.3038,-0.78115 -0.0436,-0.11307 -0.0802,-0.22931 -0.12358,-0.34247 -0.69136,-1.8058 -1.3542,-3.62686 -1.97548,-5.45324 -0.0864,-0.2519 -0.16782,-0.50734 -0.25224,-0.75957 -0.006,-0.0154 0.002,-0.0344 -0.004,-0.0499 -0.36173,-1.08288 -0.71046,-2.1469 -1.04754,-3.23626 -0.26936,-0.87037 -0.55186,-1.75205 -0.80552,-2.6263 -0.0692,-0.23822 -0.13095,-0.47463 -0.19896,-0.7131 -0.009,-0.033 -0.0224,-0.0646 -0.0313,-0.0984 -0.30647,-1.07826 -0.59037,-2.16448 -0.87297,-3.24815 -0.29122,-1.11685 -0.564,-2.22917 -0.82986,-3.35131 -0.79754,-3.3664 -1.47704,-6.75372 -2.0457,-10.15939 -0.37915,-2.27046 -0.71427,-4.54003 -0.99138,-6.82336 -0.11458,-0.94311 -0.2215,-1.89003 -0.31864,-2.8349 -0.0559,-0.54826 -0.11209,-1.09411 -0.16172,-1.64282 -0.0732,-0.7964 -0.15226,-1.59366 -0.21312,-2.39105 z"
               style="font-size:16px;fill:#0000ff;fill-rule:evenodd;stroke:#ff0000;stroke-width:0.14112;stroke-linecap:round;stroke-linejoin:round;overflow:visible;font-family:Times New Roman" />
          </g>
        </g>
      </g>
      <g
         id="Layer_1" />
    </g>
  </g>
</svg>
