<?xml version="1.0" encoding="UTF-8" standalone="no"?>
<!-- Generator: Adobe Illustrator 13.0.0, SVG Export Plug-In  -->

<svg
   xmlns:dc="http://purl.org/dc/elements/1.1/"
   xmlns:cc="http://creativecommons.org/ns#"
   xmlns:rdf="http://www.w3.org/1999/02/22-rdf-syntax-ns#"
   xmlns:svg="http://www.w3.org/2000/svg"
   xmlns="http://www.w3.org/2000/svg"
   xmlns:sodipodi="http://sodipodi.sourceforge.net/DTD/sodipodi-0.dtd"
   xmlns:inkscape="http://www.inkscape.org/namespaces/inkscape"
   version="1.1"
   x="0px"
   y="0px"
   width="576px"
   height="576px"
   viewBox="-0.031 -0.031 576 576"
   enable-background="new -0.031 -0.031 576 576"
   xml:space="preserve"
   id="svg2"
   inkscape:version="0.48.1 "
   sodipodi:docname="B7a.svg"
   inkscape:export-filename="C:\Documents and Settings\bertrand.bouteilles\Bureau\Panneaux\A - Route\3_interdiction\B7a.png"
   inkscape:export-xdpi="150"
   inkscape:export-ydpi="150"><metadata
   id="metadata34"><rdf:RDF><cc:Work
       rdf:about=""><dc:format>image/svg+xml</dc:format><dc:type
         rdf:resource="http://purl.org/dc/dcmitype/StillImage" /><dc:title></dc:title></cc:Work></rdf:RDF></metadata><sodipodi:namedview
   pagecolor="#ffffff"
   bordercolor="#666666"
   borderopacity="1"
   objecttolerance="10"
   gridtolerance="10"
   guidetolerance="10"
   inkscape:pageopacity="0"
   inkscape:pageshadow="2"
   inkscape:window-width="1280"
   inkscape:window-height="964"
   id="namedview32"
   showgrid="false"
   inkscape:zoom="0.50868056"
   inkscape:cx="288"
   inkscape:cy="288"
   inkscape:window-x="-4"
   inkscape:window-y="-4"
   inkscape:window-maximized="1"
   inkscape:current-layer="svg2" />
<defs
   id="defs4">
</defs>
<circle
   fill="#FFFFFF"
   stroke="#000000"
   stroke-width="2"
   stroke-linecap="round"
   stroke-linejoin="round"
   cx="287.969"
   cy="287.969"
   r="286.969"
   id="circle6" />
<circle
   fill="#FF0000"
   stroke="#FF0000"
   stroke-width="0.1764"
   stroke-linecap="round"
   stroke-linejoin="round"
   cx="287.969"
   cy="287.969"
   r="273.98"
   id="circle8"
   style="fill:#ff0000" />
<path
   fill="#FFFFFF"
   stroke="#FF0000"
   stroke-width="0.1764"
   stroke-linecap="round"
   stroke-linejoin="round"
   d="M445.806,398.059  c56.203-80.579,42.686-190.557-31.359-255.127c-74.045-64.569-184.839-62.997-257.021,3.649l283.008,246.793L445.806,398.059z"
   id="path10" />
<path
   fill="#FFFFFF"
   stroke="#FF0000"
   stroke-width="0.1764"
   stroke-linecap="round"
   stroke-linejoin="round"
   d="M418.345,429.512  c-72.261,66.561-183.057,68.002-257.025,3.345c-73.968-64.657-87.356-174.651-31.057-255.164L412.978,424.82L418.345,429.512z"
   id="path12" />
<polygon
   stroke="#000000"
   stroke-width="0.1764"
   stroke-linecap="round"
   stroke-linejoin="round"
   points="340.467,171.822   412.313,171.822 426.07,184.101 431.803,204.194 441.356,213.683 442.121,239.916 431.421,249.404 431.421,271.73 418.046,271.73   418.046,249.963 335.499,249.963 335.499,271.73 321.359,271.73 321.359,249.963 312.187,240.475 312.187,213.683 322.123,204.752   327.474,184.101 "
   id="polygon14" />
<path
   stroke="#000000"
   stroke-width="0.1764"
   stroke-linecap="round"
   stroke-linejoin="round"
   d="M188.758,340.052l2.989-11.145  l13.619,0.97l6.311-9.69l3.321-2.907l6.311-0.484l-0.332,2.907l-3.653,0.484l-3.322,2.423l-5.314,7.752l17.936,1.454l18.268,5.329  l43.844-3.392l4.245,14.966c10.391,2.688,17.612,12.111,17.507,22.845l2.417,0.353l-1.201,9.598l-3.153-0.864  c-4.141,9.522-14.071,15.168-24.373,13.856c-10.301-1.312-18.499-9.266-20.122-19.522l-10.196,2.86l-34.543-1.938l-7.308-2.423  l-0.665-7.267l5.646-5.814l-16.939-11.629l-5.61,4.546c9.066,8.847,9.743,23.2,1.548,32.86c-8.195,9.659-22.466,11.333-32.673,3.83  s-12.867-21.624-6.093-32.327c6.775-10.704,20.677-14.341,31.826-8.326l3.362-4.459L188.758,340.052z"
   id="path16" />
<path
   fill="#FFFFFF"
   stroke="#000000"
   stroke-width="0.1764"
   stroke-linecap="round"
   stroke-linejoin="round"
   d="M300.727,378.474  l-7.187-2c-2.042,2.547-5.397,3.644-8.549,2.795c-3.152-0.85-5.502-3.483-5.989-6.711l-7.213-1.976  c-0.353,7.197,4.347,13.673,11.299,15.568C290.041,388.047,297.376,384.854,300.727,378.474z"
   id="path18" />
<path
   fill="#FFFFFF"
   stroke="#000000"
   stroke-width="0.1764"
   stroke-linecap="round"
   stroke-linejoin="round"
   d="M280.073,367.12  l-7.364-1.075c2.501-6.82,9.439-10.955,16.628-9.91c7.188,1.045,12.662,6.983,13.119,14.233l-7.373-1.097  c-0.831-3.208-3.509-5.603-6.789-6.073C285.015,362.729,281.772,364.275,280.073,367.12z"
   id="path20" />
<line
   fill="none"
   stroke="#000000"
   stroke-width="0.1764"
   stroke-linecap="round"
   stroke-linejoin="round"
   x1="309.139"
   y1="380.812"
   x2="309.782"
   y2="380.987"
   id="line22" />
<path
   fill="#FFFFFF"
   stroke="#000000"
   stroke-width="0.1764"
   stroke-linecap="round"
   stroke-linejoin="round"
   d="M183.68,356.336  c-7.276-3.105-15.723-0.229-19.59,6.673s-1.913,15.607,4.534,20.192c6.447,4.586,15.313,3.575,20.563-2.343  c5.25-5.919,5.195-14.842-0.126-20.695l-4.685,6.216c1.955,3.152,1.477,7.237-1.152,9.854c-2.63,2.616-6.717,3.073-9.859,1.102  c-3.143-1.971-4.511-5.849-3.3-9.354c1.21-3.507,4.679-5.716,8.368-5.328L183.68,356.336z"
   id="path24" />
<circle
   fill="#FFFFFF"
   stroke="#000000"
   stroke-width="0.1764"
   stroke-linecap="round"
   stroke-linejoin="round"
   cx="332.396"
   cy="228.244"
   r="6.479"
   id="circle26" />
<circle
   fill="#FFFFFF"
   stroke="#000000"
   stroke-width="0.1764"
   stroke-linecap="round"
   stroke-linejoin="round"
   cx="421.622"
   cy="228.244"
   r="6.399"
   id="circle28" />
<polygon
   fill="#FFFFFF"
   stroke="#000000"
   stroke-width="0.1764"
   stroke-linecap="round"
   stroke-linejoin="round"
   points="  338.557,180.752 415.37,180.194 420.338,205.311 332.441,205.311 "
   id="polygon30" />
</svg>