<?xml version="1.0" encoding="UTF-8" standalone="no"?>
<!-- Generator: Adobe Illustrator 13.0.0, SVG Export Plug-In . SVG Version: 6.00 Build 14948)  -->

<svg
   xmlns:dc="http://purl.org/dc/elements/1.1/"
   xmlns:cc="http://creativecommons.org/ns#"
   xmlns:rdf="http://www.w3.org/1999/02/22-rdf-syntax-ns#"
   xmlns:svg="http://www.w3.org/2000/svg"
   xmlns="http://www.w3.org/2000/svg"
   xmlns:sodipodi="http://sodipodi.sourceforge.net/DTD/sodipodi-0.dtd"
   xmlns:inkscape="http://www.inkscape.org/namespaces/inkscape"
   version="1.1"
   id="Layer_1"
   x="0px"
   y="0px"
   width="576px"
   height="576px"
   viewBox="-0.943 -0.943 576 576"
   enable-background="new -0.943 -0.943 576 576"
   xml:space="preserve"
   inkscape:version="0.48.1 "
   sodipodi:docname="B7b.svg"
   inkscape:export-filename="C:\Documents and Settings\bertrand.bouteilles\Bureau\Panneaux\A - Route\3_interdiction\B7b.png"
   inkscape:export-xdpi="150"
   inkscape:export-ydpi="150"><metadata
   id="metadata43"><rdf:RDF><cc:Work
       rdf:about=""><dc:format>image/svg+xml</dc:format><dc:type
         rdf:resource="http://purl.org/dc/dcmitype/StillImage" /><dc:title></dc:title></cc:Work></rdf:RDF></metadata><defs
   id="defs41" /><sodipodi:namedview
   pagecolor="#ffffff"
   bordercolor="#666666"
   borderopacity="1"
   objecttolerance="10"
   gridtolerance="10"
   guidetolerance="10"
   inkscape:pageopacity="0"
   inkscape:pageshadow="2"
   inkscape:window-width="1280"
   inkscape:window-height="964"
   id="namedview39"
   showgrid="false"
   inkscape:zoom="0.50868056"
   inkscape:cx="-111.07167"
   inkscape:cy="288"
   inkscape:window-x="-4"
   inkscape:window-y="-4"
   inkscape:window-maximized="1"
   inkscape:current-layer="Layer_1" />
<circle
   fill="#FFFFFF"
   stroke="#000000"
   stroke-linecap="round"
   stroke-linejoin="round"
   cx="287.057"
   cy="287.057"
   r="286.969"
   id="circle3" />
<circle
   fill="#FF0000"
   stroke="#FF0000"
   stroke-width="0.1764"
   stroke-linecap="round"
   stroke-linejoin="round"
   cx="287.057"
   cy="287.057"
   r="273.982"
   id="circle5"
   style="fill:#ff0000" />
<path
   fill="#FFFFFF"
   stroke="#FF0000"
   stroke-width="0.1764"
   stroke-linecap="round"
   stroke-linejoin="round"
   d="M444.894,397.146  c56.203-80.578,42.686-190.557-31.359-255.126c-74.045-64.569-184.839-62.997-257.021,3.649l283.008,246.793L444.894,397.146z"
   id="path7" />
<path
   fill="#FFFFFF"
   stroke="#FF0000"
   stroke-width="0.1764"
   stroke-linecap="round"
   stroke-linejoin="round"
   d="M417.433,428.6  c-72.261,66.562-183.058,68.002-257.025,3.346c-73.968-64.657-87.355-174.651-31.057-255.164l282.715,247.128L417.433,428.6z"
   id="path9" />







<g
   id="g3035"><path
     id="path13"
     d="M235.082,298.438  c6.196,3.414,10.414,9.559,11.375,16.568l-1.854,0.166c1.464,10.359-5.098,20.164-15.232,22.762  c-10.136,2.598-20.604-2.845-24.301-12.633l-14.121-1.258l-12.169-2.633l-1.903-12.702l-24.894-17.544l-3.023,5.896  c9.828,5.073,15.369,15.813,13.81,26.764l-3.48-0.074c-2.346,9.9-11.589,16.589-21.726,15.723  c-10.139-0.867-18.111-9.027-18.742-19.184c-0.631-10.154,6.271-19.239,16.223-21.354l0.068-3.191  c4.027,0.021,8.047,0.326,12.031,0.914l3.235-6.715l-5.101-2.877l-4.888-0.104l0.432-7.509l13.339-1.299l1.714-3.92l-1.809-4.391  l-1.036-2.396l0.373-4.74l2.987,0.063l4.403-2.677l0.781,1.6l-4.684,3.066l-1.629-0.035l0.449,4.362l2.632,4.012l-2.604,7.463  l19.225,15.839l12.968,3.441l10.378-2.549l1.008-9.079l-5.321-5.258l19.288,0.014l-7.169,4.991l0.739,3.578l32.044,0.681  l-3.755,6.25"
     stroke-linejoin="round"
     stroke-linecap="round"
     stroke-width="0.1764"
     stroke="#000000" /><path
     id="path23"
     d="M206.041,324.301  c2.979,8.68,11.663,14.059,20.76,12.854c9.098-1.201,16.087-8.649,16.707-17.805c0.621-9.156-5.297-17.479-14.148-19.9  c-8.853-2.42-18.184,1.734-22.306,9.933l11.197,3.284c2.321-2.6,6.047-3.416,9.243-2.025c3.195,1.39,5.139,4.672,4.821,8.142  c-0.318,3.47-2.826,6.345-6.221,7.13s-6.91-0.695-8.721-3.673L206.041,324.301z"
     stroke-linejoin="round"
     stroke-linecap="round"
     stroke-width="5"
     stroke="#000000"
     fill="#FFFFFF" /><path
     id="path25"
     d="M145.533,301.789  c-9.431-3.278-19.758,1.544-23.302,10.879c-3.543,9.335,0.984,19.794,10.216,23.6c9.231,3.807,19.814-0.424,23.879-9.543  c4.065-9.121,0.136-19.818-8.865-24.141l-7.17,17.174l-1.979-0.624L145.533,301.789z"
     stroke-linejoin="round"
     stroke-linecap="round"
     stroke-width="3"
     stroke="#000000"
     fill="#FFFFFF" /></g>


<g
   id="g3026"><path
     id="path11"
     d="M218.915,380.823l2.989-11.144  l13.619,0.969l6.311-9.689l3.321-2.907l6.311-0.483l-0.332,2.906l-3.652,0.484l-3.322,2.423l-5.313,7.752l17.936,1.453l18.268,5.33  l43.845-3.392l4.245,14.966c10.391,2.688,17.611,12.11,17.507,22.844l2.417,0.353l-1.201,9.599l-3.153-0.863  c-4.142,9.522-14.07,15.168-24.371,13.855c-10.303-1.313-18.501-9.267-20.123-19.522l-10.195,2.861l-34.544-1.939l-7.308-2.422  l-0.665-7.268l5.646-5.813l-16.939-11.629l-5.609,4.546c9.065,8.846,9.743,23.197,1.551,32.857  c-8.193,9.66-22.464,11.334-32.67,3.832c-10.207-7.502-12.869-21.621-6.096-32.325c6.773-10.703,20.675-14.341,31.823-8.327  l3.361-4.459L218.915,380.823z"
     stroke-linejoin="round"
     stroke-linecap="round"
     stroke-width="0.1764"
     stroke="#000000" /><path
     id="path17"
     d="M310.23,407.893  l-7.363-1.076c2.501-6.819,9.439-10.955,16.628-9.909c7.189,1.045,12.662,6.983,13.119,14.233l-7.373-1.099  c-0.831-3.208-3.509-5.603-6.789-6.071C315.171,403.5,311.929,405.046,310.23,407.893z"
     stroke-linejoin="round"
     stroke-linecap="round"
     stroke-width="0.1764"
     stroke="#000000"
     fill="#FFFFFF" /><path
     id="path19"
     d="M330.884,419.246  l-7.188-2c-2.042,2.547-5.396,3.645-8.55,2.794c-3.151-0.849-5.502-3.481-5.988-6.711l-7.213-1.976  c-0.353,7.197,4.348,13.673,11.299,15.568C320.197,428.818,327.533,425.625,330.884,419.246z"
     stroke-linejoin="round"
     stroke-linecap="round"
     stroke-width="0.1764"
     stroke="#000000"
     fill="#FFFFFF" /><path
     id="path21"
     d="M213.837,397.107  c-7.275-3.105-15.723-0.229-19.59,6.672c-3.868,6.902-1.913,15.609,4.534,20.193c6.447,4.585,15.313,3.574,20.563-2.344  s5.194-14.842-0.127-20.695l-4.685,6.217c1.955,3.151,1.478,7.235-1.152,9.853c-2.629,2.615-6.715,3.072-9.857,1.103  c-3.143-1.971-4.51-5.849-3.3-9.354s4.679-5.715,8.366-5.328L213.837,397.107z"
     stroke-linejoin="round"
     stroke-linecap="round"
     stroke-width="0.1764"
     stroke="#000000"
     fill="#FFFFFF" /><line
     id="line27"
     y2="403.1"
     x2="331.824"
     y1="403.141"
     x1="332.09"
     stroke-linejoin="round"
     stroke-linecap="round"
     stroke-width="0.1764"
     stroke="#000000"
     fill="none" /><polyline
     id="polyline29"
     points="  346.166,414.441 348.729,415.145 349.931,405.547 347.527,405.195 347.368,409.994 346.166,414.441 "
     stroke-linejoin="round"
     stroke-linecap="round"
     stroke-width="0.1764"
     stroke="#000000"
     fill="none" /><polyline
     id="polyline31"
     points="  331.824,403.1 332.303,404.846 332.063,406.833 331.342,409.059 329.938,411 334.322,412.033 337.431,412.803 338.393,410.697   339.194,408.355 339.595,405.195 339.422,404.229 332.09,403.141 "
     stroke-linejoin="round"
     stroke-linecap="round"
     stroke-width="0.1764"
     stroke="#000000"
     fill="none" /></g>


<g
   id="g3020"><polygon
     stroke="#000000"
     stroke-width="0.1764"
     stroke-linecap="round"
     stroke-linejoin="round"
     id="polygon15"
     points="330.801,161.684   402.647,161.684 416.405,173.964 422.136,194.057 431.691,203.546 432.456,229.779 421.755,239.267 421.755,261.593   408.379,261.593 408.379,239.826 325.834,239.826 325.834,261.593 311.693,261.593 311.693,239.826 302.521,230.336   302.521,203.546 312.459,194.616 317.807,173.964 " /><polygon
     id="polygon33"
     points="  328.89,170.615 405.704,170.057 410.673,195.173 322.776,195.173 "
     stroke-linejoin="round"
     stroke-linecap="round"
     stroke-width="0.1764"
     stroke="#000000"
     fill="#FFFFFF" /><circle
     id="circle35"
     r="6.399"
     cy="218.106"
     cx="411.956"
     stroke-linejoin="round"
     stroke-linecap="round"
     stroke-width="0.1764"
     stroke="#000000"
     fill="#FFFFFF" /><circle
     id="circle37"
     r="6.479"
     cy="218.106"
     cx="322.73"
     stroke-linejoin="round"
     stroke-linecap="round"
     stroke-width="0.1764"
     stroke="#000000"
     fill="#FFFFFF" /></g>
</svg>