<?xml version="1.0" encoding="UTF-8" standalone="no"?>
<!-- Generator: Adobe Illustrator 13.0.0, SVG Export Plug-In  -->

<svg
   xmlns:dc="http://purl.org/dc/elements/1.1/"
   xmlns:cc="http://creativecommons.org/ns#"
   xmlns:rdf="http://www.w3.org/1999/02/22-rdf-syntax-ns#"
   xmlns:svg="http://www.w3.org/2000/svg"
   xmlns="http://www.w3.org/2000/svg"
   xmlns:sodipodi="http://sodipodi.sourceforge.net/DTD/sodipodi-0.dtd"
   xmlns:inkscape="http://www.inkscape.org/namespaces/inkscape"
   version="1.1"
   x="0px"
   y="0px"
   width="576px"
   height="576px"
   viewBox="-0.031 -0.031 576 576"
   enable-background="new -0.031 -0.031 576 576"
   xml:space="preserve"
   id="svg2"
   inkscape:version="0.48.1 "
   sodipodi:docname="B9b.svg"
   inkscape:export-filename="C:\Documents and Settings\bertrand.bouteilles\Bureau\Panneaux\A - Route\3_interdiction\B9b.png"
   inkscape:export-xdpi="150"
   inkscape:export-ydpi="150"><metadata
   id="metadata44"><rdf:RDF><cc:Work
       rdf:about=""><dc:format>image/svg+xml</dc:format><dc:type
         rdf:resource="http://purl.org/dc/dcmitype/StillImage" /><dc:title></dc:title></cc:Work></rdf:RDF></metadata><sodipodi:namedview
   pagecolor="#ffffff"
   bordercolor="#666666"
   borderopacity="1"
   objecttolerance="10"
   gridtolerance="10"
   guidetolerance="10"
   inkscape:pageopacity="0"
   inkscape:pageshadow="2"
   inkscape:window-width="1920"
   inkscape:window-height="1174"
   id="namedview42"
   showgrid="false"
   inkscape:zoom="1.0173611"
   inkscape:cx="107.08377"
   inkscape:cy="212.95402"
   inkscape:window-x="1276"
   inkscape:window-y="-4"
   inkscape:window-maximized="1"
   inkscape:current-layer="svg2" />
<defs
   id="defs4">
</defs>

<circle
   d="m 574.93799,287.96899 c 0,158.4886 -128.4804,286.969 -286.969,286.969 C 129.4804,574.93799 1,446.45759 1,287.96899 1,129.4804 129.4804,1 287.96899,1 c 158.4886,0 286.969,128.4804 286.969,286.96899 z"
   style="fill:#ffffff;stroke:#000000;stroke-width:2;stroke-linecap:round;stroke-linejoin:round"
   sodipodi:ry="286.96899"
   sodipodi:rx="286.96899"
   sodipodi:cy="287.96899"
   sodipodi:cx="287.96899"
   cx="287.96899"
   cy="287.96899"
   r="286.96899"
   id="circle6"
   transform="translate(5.859375e-6,5.8593754e-6)" /><circle
   d="m 562.74399,287.96899 c 0,151.75404 -123.02096,274.775 -274.775,274.775 C 136.21496,562.74399 13.194,439.72303 13.194,287.96899 13.194,136.21496 136.21496,13.194 287.96899,13.194 c 151.75404,0 274.775,123.02096 274.775,274.77499 z"
   style="fill:#ff0000;stroke:#ff0000;stroke-width:0.17640001000000000;stroke-linecap:round;stroke-linejoin:round"
   sodipodi:ry="274.77499"
   sodipodi:rx="274.77499"
   sodipodi:cy="287.96899"
   sodipodi:cx="287.96899"
   cx="287.96899"
   cy="287.96899"
   r="274.77499"
   id="circle8"
   transform="translate(5.859375e-6,5.8593754e-6)" />
<circle
   cx="287.96899"
   cy="287.96899"
   r="192.438"
   id="circle10"
   sodipodi:cx="287.96899"
   sodipodi:cy="287.96899"
   sodipodi:rx="192.438"
   sodipodi:ry="192.438"
   transform="translate(5.859375e-6,0)"
   style="fill:#ffffff;stroke:#ff0000;stroke-width:0.17640001;stroke-linecap:round;stroke-linejoin:round" />















<g
   id="g3901"
   transform="matrix(0.67545569,0,0,0.67545569,-275.6059,109.72355)"><path
     id="ellipse9"
     d="m 694.98752,230.218 c -46.10197,0 -83.5,36.67413 -83.5,81.90625 0,45.23212 37.39803,81.875 83.5,81.875 46.10197,0 83.46875,-36.64288 83.46875,-81.875 0,-45.23212 -37.36678,-81.90625 -83.46875,-81.90625 z m 0,12.6875 c 38.37109,0 69.46875,30.5081 69.46875,68.15625 0,37.64815 -31.09766,68.15625 -69.46875,68.15625 -38.37109,0 -69.5,-30.5081 -69.5,-68.15625 0,-37.64815 31.12891,-68.15625 69.5,-68.15625 z"
     style="fill:#000000"
     inkscape:connector-curvature="0" /><path
     id="ellipse13"
     d="m 973.73747,229.68675 c -46.10192,0 -83.4687,36.67413 -83.4687,81.90625 0,45.23212 37.36678,81.90625 83.4687,81.90625 46.10203,0 83.50003,-36.67413 83.50003,-81.90625 0,-45.23212 -37.398,-81.90625 -83.50003,-81.90625 z m 0,12.6875 c 38.37113,0 69.50003,30.5081 69.50003,68.15625 0,37.64815 -31.1289,68.1875 -69.50003,68.1875 -38.37104,0 -69.4687,-30.53935 -69.4687,-68.1875 0,-37.64815 31.09766,-68.15625 69.4687,-68.15625 z"
     style="fill:#000000"
     inkscape:connector-curvature="0" /><ellipse
     transform="translate(545.43615,-13.139135)"
     style="fill:#000000"
     sodipodi:ry="24.15"
     sodipodi:rx="25.725"
     sodipodi:cy="336.27701"
     sodipodi:cx="302.31601"
     d="m 328.04101,336.27701 c 0,13.33767 -11.51748,24.15 -25.725,24.15 -14.20753,0 -25.725,-10.81233 -25.725,-24.15 0,-13.33768 11.51747,-24.15 25.725,-24.15 14.20752,0 25.725,10.81232 25.725,24.15 z"
     cx="302.31601"
     cy="336.27701"
     rx="25.725"
     ry="24.15"
     id="ellipse17" /><path
     style="fill:#000000"
     inkscape:connector-curvature="0"
     d="m 773.46815,134.13887 c -14.692,-0.4 -37.32,-2.17 -44.367,8.4 -12.555,18.828 3.646,28.709 19.95,33.6 -8.318,26.558 -16.634,53.117 -24.952,79.675 -6.825,21.798 -11.921,37.11 -29.648,52.625 24.794,10.625 35.641,-35.757 41.369,-51.481 10.711,-29.39 21.42,-58.779 32.131,-88.169 -8.929,-2.976 -17.856,-5.949 -26.781,-8.925 -4.975,-1.659 -0.396,-12.075 5.109,-12.075 8.624,0 17.249,0 25.873,0 v 1.05 h 9.45 v -14.7 h -8.134 z"
     id="path19" /><rect
     style="fill:#000000"
     x="754.30212"
     y="184.53786"
     width="147"
     height="13.65"
     id="rect21" /><polygon
     transform="translate(545.43615,-13.139135)"
     style="fill:#000000"
     points="392.616,169.327 389.466,161.977 385.266,159.877 330.666,160.927 323.316,166.177 326.466,173.528 352.716,187.177 308.616,326.827 318.066,334.177 367.416,189.278 375.816,185.077 387.366,181.927 393.666,174.577 "
     id="polygon23" /><polygon
     transform="translate(545.43615,-13.139135)"
     style="fill:#000000"
     points="355.866,197.677 432.516,320.528 425.166,323.677 347.466,216.577 "
     id="polygon25" /><polygon
     transform="translate(545.43615,-13.139135)"
     style="fill:#000000"
     points="307.566,329.978 419.916,321.577 426.216,331.028 312.816,343.627 "
     id="polygon27" /><ellipse
     transform="translate(545.43615,-13.139135)"
     style="fill:#000000"
     sodipodi:ry="14.175"
     sodipodi:rx="14.7"
     sodipodi:cy="323.677"
     sodipodi:cx="428.31601"
     d="m 443.01601,323.677 c 0,7.82864 -6.58141,14.175 -14.7,14.175 -8.11859,0 -14.7,-6.34636 -14.7,-14.175 0,-7.82863 6.58141,-14.175 14.7,-14.175 8.11859,0 14.7,6.34637 14.7,14.175 z"
     cx="428.31601"
     cy="323.677"
     rx="14.7"
     ry="14.175"
     id="ellipse29" /><ellipse
     transform="translate(545.43615,-13.139135)"
     style="fill:#000000"
     sodipodi:ry="14.175"
     sodipodi:rx="14.7"
     sodipodi:cy="321.577"
     sodipodi:cx="149.01601"
     d="m 163.71601,321.577 c 0,7.82863 -6.58142,14.175 -14.7,14.175 -8.11859,0 -14.7,-6.34637 -14.7,-14.175 0,-7.82864 6.58141,-14.175 14.7,-14.175 8.11858,0 14.7,6.34636 14.7,14.175 z"
     cx="149.01601"
     cy="321.577"
     rx="14.7"
     ry="14.175"
     id="ellipse31" /><polygon
     transform="translate(545.43615,-13.139135)"
     style="fill:#000000"
     points="200.702,218.327 297.765,325.627 290.612,336.977 196.616,233.802 "
     id="polygon33" /><rect
     style="fill:#000000"
     x="-817.09015"
     y="-481.07065"
     transform="matrix(-0.99215742,0.12499464,-0.12499464,-0.99215742,0,0)"
     width="24.150036"
     height="7.6143265"
     id="rect35" /><rect
     style="fill:#000000"
     x="-809.90436"
     y="-378.8334"
     transform="matrix(-0.99216981,0.1248962,-0.1248962,-0.99216981,0,0)"
     width="24.149734"
     height="7.6142316"
     id="rect39" /><path
     inkscape:connector-curvature="0"
     id="rect3130"
     d="m 835.96628,275.38299 6.11867,-1.36254 19.86971,97.93542 -6.11867,1.36254 z"
     style="color:#000000;fill:#000000;fill-opacity:1;fill-rule:nonzero;stroke:none;stroke-width:3;marker:none;visibility:visible;display:inline;overflow:visible;enable-background:accumulate" /></g></svg>