<?xml version="1.0" encoding="UTF-8" standalone="no"?>
<!-- Generator: Adobe Illustrator 13.0.0, SVG Export Plug-In  -->

<svg
   xmlns:dc="http://purl.org/dc/elements/1.1/"
   xmlns:cc="http://creativecommons.org/ns#"
   xmlns:rdf="http://www.w3.org/1999/02/22-rdf-syntax-ns#"
   xmlns:svg="http://www.w3.org/2000/svg"
   xmlns="http://www.w3.org/2000/svg"
   xmlns:sodipodi="http://sodipodi.sourceforge.net/DTD/sodipodi-0.dtd"
   xmlns:inkscape="http://www.inkscape.org/namespaces/inkscape"
   version="1.1"
   x="0px"
   y="0px"
   width="576px"
   height="576px"
   viewBox="-0.031 -0.031 576 576"
   enable-background="new -0.031 -0.031 576 576"
   xml:space="preserve"
   id="svg2"
   inkscape:version="0.48.1 "
   sodipodi:docname="B9c.svg"
   inkscape:export-filename="C:\Documents and Settings\bertrand.bouteilles\Bureau\Panneaux\A - Route\3_interdiction\B9c.png"
   inkscape:export-xdpi="150"
   inkscape:export-ydpi="150"><metadata
   id="metadata18"><rdf:RDF><cc:Work
       rdf:about=""><dc:format>image/svg+xml</dc:format><dc:type
         rdf:resource="http://purl.org/dc/dcmitype/StillImage" /><dc:title></dc:title></cc:Work></rdf:RDF></metadata><sodipodi:namedview
   pagecolor="#ffffff"
   bordercolor="#666666"
   borderopacity="1"
   objecttolerance="10"
   gridtolerance="10"
   guidetolerance="10"
   inkscape:pageopacity="0"
   inkscape:pageshadow="2"
   inkscape:window-width="1280"
   inkscape:window-height="964"
   id="namedview16"
   showgrid="false"
   inkscape:zoom="0.50868056"
   inkscape:cx="-111.07167"
   inkscape:cy="288"
   inkscape:window-x="-4"
   inkscape:window-y="-4"
   inkscape:window-maximized="1"
   inkscape:current-layer="svg2" />
<defs
   id="defs4">
</defs>
<circle
   cx="287.96899"
   cy="287.96899"
   r="286.96899"
   id="circle6"
   sodipodi:cx="287.96899"
   sodipodi:cy="287.96899"
   sodipodi:rx="286.96899"
   sodipodi:ry="286.96899"
   transform="translate(5.859375e-6,5.8593752e-6)"
   style="fill:#ffffff;stroke:#000000;stroke-width:2;stroke-linecap:round;stroke-linejoin:round" />
<circle
   cx="287.96899"
   cy="287.96899"
   r="273.98199"
   id="circle8"
   sodipodi:cx="287.96899"
   sodipodi:cy="287.96899"
   sodipodi:rx="273.98199"
   sodipodi:ry="273.98199"
   transform="translate(5.859375e-6,5.8593752e-6)"
   style="fill:#ff0000;stroke:#ff0000;stroke-width:0.17640001;stroke-linecap:round;stroke-linejoin:round" />
<circle
   cx="287.96899"
   cy="287.96899"
   r="192.438"
   id="circle10"
   sodipodi:cx="287.96899"
   sodipodi:cy="287.96899"
   sodipodi:rx="192.438"
   sodipodi:ry="192.438"
   transform="translate(5.859375e-6,5.8593752e-6)"
   style="fill:#ffffff;stroke:#ff0000;stroke-width:0.17640001;stroke-linecap:round;stroke-linejoin:round" />

<g
   id="g2999"
   transform="translate(6.9355,-13.669002)"><polygon
     id="polygon12"
     points="162.601,291.968 158.671,274.756 142.955,267.38 128.361,279.674 122.749,276.396 125.555,264.921 123.31,259.184 128.361,250.168 129.483,241.152 134.536,244.431 149.69,241.152 154.181,242.791 162.601,243.611 168.213,247.709 177.755,249.348 188.419,254.266 194.594,259.184 209.188,259.184 218.168,260.823 227.149,257.544 233.885,255.905 241.743,255.905 251.285,260.823 258.582,269.838 266.44,270.658 272.053,273.117 275.42,277.215 278.228,286.231 280.473,299.345 291.698,305.901 292.821,294.428 301.802,294.428 303.485,287.051 324.253,287.051 325.376,281.313 311.904,281.313 312.466,278.035 325.938,274.756 326.498,268.199 332.111,262.462 330.989,254.266 333.234,248.528 336.602,246.069 341.093,246.069 342.776,249.348 343.338,253.446 340.53,260.823 345.583,266.561 345.583,297.705 354.563,300.164 374.209,272.297 425.286,280.494 430.338,305.082 438.197,305.901 439.318,340.325 388.241,341.146 385.435,330.49 382.066,323.934 371.963,318.195 362.982,315.737 352.879,318.195 345.583,323.113 339.408,329.671 336.04,341.146 292.26,341.146 292.821,316.557 269.246,305.901 270.369,310.819 268.685,348.522 261.95,348.522 260.827,317.376 243.426,307.541 244.549,319.835 229.956,346.883 220.414,346.883 232.762,319.016 223.22,293.607 192.91,298.525 190.665,345.243 182.807,344.424 182.807,316.557 170.458,301.804 156.426,310.819 162.039,323.934 157.548,335.408 145.2,308.36 "
     style="stroke:#000000;stroke-width:0.17640001;stroke-linecap:round;stroke-linejoin:round" /><circle
     id="circle14"
     r="21.533001"
     cy="340.591"
     cx="363.11499"
     sodipodi:cx="363.11499"
     sodipodi:cy="340.591"
     sodipodi:rx="21.533001"
     sodipodi:ry="21.533001"
     style="stroke:#000000;stroke-width:0.17640001;stroke-linecap:round;stroke-linejoin:round"
     d="m 384.64799,340.591 c 0,11.89235 -9.64065,21.533 -21.533,21.533 -11.89235,0 -21.533,-9.64065 -21.533,-21.533 0,-11.89234 9.64065,-21.533 21.533,-21.533 11.89235,0 21.533,9.64066 21.533,21.533 z" /></g>
</svg>