<?xml version="1.0" encoding="UTF-8" standalone="no"?>
<!-- Generator: Adobe Illustrator 13.0.0, SVG Export Plug-In  -->

<svg
   xmlns:dc="http://purl.org/dc/elements/1.1/"
   xmlns:cc="http://creativecommons.org/ns#"
   xmlns:rdf="http://www.w3.org/1999/02/22-rdf-syntax-ns#"
   xmlns:svg="http://www.w3.org/2000/svg"
   xmlns="http://www.w3.org/2000/svg"
   xmlns:sodipodi="http://sodipodi.sourceforge.net/DTD/sodipodi-0.dtd"
   xmlns:inkscape="http://www.inkscape.org/namespaces/inkscape"
   version="1.1"
   x="0px"
   y="0px"
   width="576px"
   height="576px"
   viewBox="-0.031 -0.031 576 576"
   enable-background="new -0.031 -0.031 576 576"
   xml:space="preserve"
   id="svg2"
   inkscape:version="0.48.1 "
   sodipodi:docname="B9d.svg"
   inkscape:export-filename="C:\Documents and Settings\bertrand.bouteilles\Bureau\Panneaux\A - Route\3_interdiction\B9d.png"
   inkscape:export-xdpi="150"
   inkscape:export-ydpi="150"><metadata
   id="metadata18"><rdf:RDF><cc:Work
       rdf:about=""><dc:format>image/svg+xml</dc:format><dc:type
         rdf:resource="http://purl.org/dc/dcmitype/StillImage" /><dc:title></dc:title></cc:Work></rdf:RDF></metadata><sodipodi:namedview
   pagecolor="#ffffff"
   bordercolor="#666666"
   borderopacity="1"
   objecttolerance="10"
   gridtolerance="10"
   guidetolerance="10"
   inkscape:pageopacity="0"
   inkscape:pageshadow="2"
   inkscape:window-width="1280"
   inkscape:window-height="964"
   id="namedview16"
   showgrid="false"
   inkscape:zoom="0.50868056"
   inkscape:cx="-111.07167"
   inkscape:cy="288"
   inkscape:window-x="-4"
   inkscape:window-y="-4"
   inkscape:window-maximized="1"
   inkscape:current-layer="svg2" />
<defs
   id="defs4">
</defs>




<circle
   style="fill:#ffffff;stroke:#000000;stroke-width:2;stroke-linecap:round;stroke-linejoin:round"
   sodipodi:ry="286.96899"
   sodipodi:rx="286.96899"
   sodipodi:cy="287.96899"
   sodipodi:cx="287.96899"
   cx="287.96899"
   cy="287.96899"
   r="286.96899"
   id="circle6"
   transform="translate(5.859375e-6,0)" /><circle
   style="fill:#ff0000;stroke:#ff0000;stroke-width:0.17640001000000000;stroke-linecap:round;stroke-linejoin:round"
   sodipodi:ry="273.98199"
   sodipodi:rx="273.98199"
   sodipodi:cy="287.96899"
   sodipodi:cx="287.96899"
   cx="287.96899"
   cy="287.96899"
   r="273.98199"
   id="circle8"
   transform="translate(5.859375e-6,0)" /><circle
   style="fill:#ffffff;stroke:#ff0000;stroke-width:0.17640001;stroke-linecap:round;stroke-linejoin:round"
   sodipodi:ry="192.438"
   sodipodi:rx="192.438"
   sodipodi:cy="287.96899"
   sodipodi:cx="287.96899"
   cx="287.96899"
   cy="287.96899"
   r="192.438"
   id="circle10"
   transform="translate(5.859375e-6,0)" /><g
   id="g3011"
   transform="translate(0.6045,6.8048673)"><path
     id="path12"
     d="m 276.099,307.048 -84.063,-2.169 c 14.737,4.412 24.098,18.862 22.101,34.115 -1.997,15.253 -14.762,26.806 -30.138,27.275 -15.376,0.469 -28.823,-10.283 -31.747,-25.386 -2.924,-15.103 5.537,-30.097 19.977,-35.399 l -24.575,-1.889 -0.792,-61.257 138.523,1.156 18.998,-17.337 4.75,-5.779 -3.168,-12.713 3.168,-12.713 6.332,-4.623 6.332,1.155 6.333,3.468 1.582,11.558 -4.748,8.09 -2.375,4.623 8.707,5.779 2.351,14.875 c 36.277,-4.849 69.63,20.592 74.543,56.86 l 10.97,-1.232 0.792,-18.493 3.166,-5.779 3.957,5.779 0.792,27.74 -19.076,1.21 c -0.173,36.311 -29.5,65.737 -65.81,66.035 -36.31,0.297 -66.115,-28.646 -66.882,-64.949 z"
     inkscape:connector-curvature="0"
     style="stroke:#000000;stroke-width:0.17640001;stroke-linecap:round;stroke-linejoin:round" /><circle
     id="circle14"
     r="34.886002"
     cy="305.33801"
     cx="343.039"
     sodipodi:cx="343.039"
     sodipodi:cy="305.33801"
     sodipodi:rx="34.886002"
     sodipodi:ry="34.886002"
     style="fill:#ffffff;stroke:#000000;stroke-width:0.17640001;stroke-linecap:round;stroke-linejoin:round"
     d="m 377.925,305.33801 c 0,19.26701 -15.61899,34.886 -34.886,34.886 -19.26701,0 -34.886,-15.61899 -34.886,-34.886 0,-19.267 15.61899,-34.886 34.886,-34.886 19.26701,0 34.886,15.619 34.886,34.886 z" /></g>
</svg>