<?xml version="1.0" encoding="UTF-8" standalone="no"?>
<!-- Generator: Adobe Illustrator 13.0.0, SVG Export Plug-In  -->

<svg
   xmlns:dc="http://purl.org/dc/elements/1.1/"
   xmlns:cc="http://creativecommons.org/ns#"
   xmlns:rdf="http://www.w3.org/1999/02/22-rdf-syntax-ns#"
   xmlns:svg="http://www.w3.org/2000/svg"
   xmlns="http://www.w3.org/2000/svg"
   xmlns:sodipodi="http://sodipodi.sourceforge.net/DTD/sodipodi-0.dtd"
   xmlns:inkscape="http://www.inkscape.org/namespaces/inkscape"
   version="1.1"
   x="0px"
   y="0px"
   width="576px"
   height="576px"
   viewBox="-0.031 -0.031 576 576"
   enable-background="new -0.031 -0.031 576 576"
   xml:space="preserve"
   id="svg2"
   inkscape:version="0.48.1 "
   sodipodi:docname="B9e.svg"
   inkscape:export-filename="C:\Documents and Settings\bertrand.bouteilles\Bureau\Panneaux\A - Route\3_interdiction\B9e.png"
   inkscape:export-xdpi="150"
   inkscape:export-ydpi="150"><metadata
   id="metadata36"><rdf:RDF><cc:Work
       rdf:about=""><dc:format>image/svg+xml</dc:format><dc:type
         rdf:resource="http://purl.org/dc/dcmitype/StillImage" /><dc:title></dc:title></cc:Work></rdf:RDF></metadata><sodipodi:namedview
   pagecolor="#ffffff"
   bordercolor="#666666"
   borderopacity="1"
   objecttolerance="10"
   gridtolerance="10"
   guidetolerance="10"
   inkscape:pageopacity="0"
   inkscape:pageshadow="2"
   inkscape:window-width="1280"
   inkscape:window-height="964"
   id="namedview34"
   showgrid="false"
   inkscape:zoom="0.50868056"
   inkscape:cx="-111.07167"
   inkscape:cy="288"
   inkscape:window-x="-4"
   inkscape:window-y="-4"
   inkscape:window-maximized="1"
   inkscape:current-layer="svg2" />
<defs
   id="defs4">
</defs>
<circle
   cx="287.96899"
   cy="287.96899"
   r="286.96899"
   id="circle6"
   sodipodi:cx="287.96899"
   sodipodi:cy="287.96899"
   sodipodi:rx="286.96899"
   sodipodi:ry="286.96899"
   transform="translate(5.859375e-6,5.8593752e-6)"
   style="fill:#ffffff;stroke:#000000;stroke-width:2;stroke-linecap:round;stroke-linejoin:round" />
<circle
   cx="287.96899"
   cy="287.96899"
   r="273.98199"
   id="circle8"
   sodipodi:cx="287.96899"
   sodipodi:cy="287.96899"
   sodipodi:rx="273.98199"
   sodipodi:ry="273.98199"
   transform="translate(5.859375e-6,5.8593752e-6)"
   style="fill:#ff0000;stroke:#ff0000;stroke-width:0.17640001000000000;stroke-linecap:round;stroke-linejoin:round" />
<circle
   cx="287.96899"
   cy="287.96899"
   r="192.438"
   id="circle10"
   sodipodi:cx="287.96899"
   sodipodi:cy="287.96899"
   sodipodi:rx="192.438"
   sodipodi:ry="192.438"
   transform="translate(5.859375e-6,5.8593752e-6)"
   style="fill:#ffffff;stroke:#ff0000;stroke-width:0.17640001;stroke-linecap:round;stroke-linejoin:round" />










<g
   id="g3013"
   transform="translate(-4.1695,8.671)"><polygon
     id="polygon12"
     points="426.22,344.868 412.18,318.23 402.352,272.127 382.696,239.342 371.464,220.9 363.742,217.827 356.021,216.803 358.126,207.582 356.723,198.361 350.404,190.165 340.576,188.116 331.45,191.189 328.643,200.41 328.643,207.582 332.152,217.827 345.49,221.925 339.874,243.44 320.219,275.2 270.378,282.372 253.529,271.102 239.489,268.028 220.536,268.028 208.602,272.127 196.681,280.209 189.282,290.177 186.84,293.642 151.74,298.765 153.145,309.01 184.032,304.911 182.453,317.59 184.032,331.549 189.282,344.171 198.072,355.113 210.708,363.309 230.363,368.432 248.616,366.382 262.655,359.211 274.59,345.892 281.479,330.05 283.014,313.107 280.205,299.788 275.993,292.617 326.536,286.47 347.597,249.587 352.617,246.982 367.954,288.519 350.404,317.205 349.702,356.137 348.298,358.187 344.086,359.211 341.98,364.334 348.298,370.48 367.954,370.48 367.954,323.353 384.1,299.788 391.119,302.862 396.034,327.451 412.18,353.063 412.882,357.162 410.073,364.334 418.497,370.48 432.537,360.235 "
     style="stroke:#000000;stroke-width:0.17640001;stroke-linecap:round;stroke-linejoin:round" /><path
     id="path14"
     d="m 219.993,330.194 c -2.018,-1.964 -3.513,-4.4 -4.35,-7.088 l -23.515,4.059 c 2.029,8.855 6.964,16.777 14.018,22.503 l 13.847,-19.474 z"
     inkscape:connector-curvature="0"
     style="fill:#ffffff;stroke:#000000;stroke-width:0.17640001;stroke-linecap:round;stroke-linejoin:round" /><path
     id="path16"
     d="m 232.744,334.966 c -2.943,0.165 -5.88,-0.442 -8.518,-1.762 l -13.848,19.474 c 8.047,4.98 17.577,7 26.951,5.713 l -4.585,-23.425 z"
     inkscape:connector-curvature="0"
     style="fill:#ffffff;stroke:#000000;stroke-width:0.17640001;stroke-linecap:round;stroke-linejoin:round" /><path
     id="path18"
     d="m 244.199,329.58 c -2.094,2.258 -4.765,3.9 -7.724,4.752 l 4.818,23.313 c 9.024,-2.166 17.038,-7.352 22.712,-14.697 L 244.199,329.58 z"
     inkscape:connector-curvature="0"
     style="fill:#ffffff;stroke:#000000;stroke-width:0.17640001;stroke-linecap:round;stroke-linejoin:round" /><path
     id="path20"
     d="m 248.662,327.063 -1.816,-1.258 c 1.432,-2.786 2.062,-5.916 1.819,-9.039 l 23.542,-3.507 c 1.085,9.107 -0.939,18.314 -5.743,26.128 l -17.802,-12.324 z"
     inkscape:connector-curvature="0"
     style="fill:#ffffff;stroke:#000000;stroke-width:0.17640001;stroke-linecap:round;stroke-linejoin:round" /><path
     id="path22"
     d="m 271.421,308.794 -23.447,4.323 c -0.718,-2.344 -1.937,-4.503 -3.57,-6.329 l 5.972,-11.369 13.961,-1.787 c 3.386,4.509 5.798,9.672 7.084,15.162 z"
     inkscape:connector-curvature="0"
     style="fill:#ffffff;stroke:#000000;stroke-width:0.17640001;stroke-linecap:round;stroke-linejoin:round" /><path
     id="path24"
     d="m 214.879,318.334 -23.471,4.737 c -0.814,-6.58 -0.009,-13.26 2.347,-19.458 l 10.2,-1.566 13.196,7.553 c -1.534,2.651 -2.319,5.671 -2.272,8.734 z"
     inkscape:connector-curvature="0"
     style="fill:#ffffff;stroke:#000000;stroke-width:0.17640001;stroke-linecap:round;stroke-linejoin:round" /><path
     id="path26"
     d="m 227.586,287.277 -1.259,-9.532 c 9.438,-1.28 19.027,0.791 27.096,5.853 l -25.837,3.679 z"
     inkscape:connector-curvature="0"
     style="fill:#ffffff;stroke:#000000;stroke-width:0.17640001;stroke-linecap:round;stroke-linejoin:round" /><path
     id="path28"
     d="m 223.272,287.892 -21.865,3.113 c 5.277,-5.926 12.173,-10.179 19.837,-12.236 l 2.028,9.123 z"
     inkscape:connector-curvature="0"
     style="fill:#ffffff;stroke:#000000;stroke-width:0.17640001;stroke-linecap:round;stroke-linejoin:round" /><polygon
     id="polygon30"
     points="229.976,304.302 239.309,305.636 241.976,296.302 228.642,296.302 "
     style="stroke:#000000;stroke-width:0.17640001;stroke-linecap:round;stroke-linejoin:round" /><polygon
     id="polygon32"
     points="220.642,307.636 227.309,305.636 223.976,298.302 212.642,300.302 "
     style="stroke:#000000;stroke-width:0.17640001;stroke-linecap:round;stroke-linejoin:round" /></g>
</svg>