<?xml version="1.0" encoding="UTF-8" standalone="no"?>
<!-- Generator: Adobe Illustrator 13.0.0, SVG Export Plug-In  -->

<svg
   xmlns:dc="http://purl.org/dc/elements/1.1/"
   xmlns:cc="http://creativecommons.org/ns#"
   xmlns:rdf="http://www.w3.org/1999/02/22-rdf-syntax-ns#"
   xmlns:svg="http://www.w3.org/2000/svg"
   xmlns="http://www.w3.org/2000/svg"
   xmlns:sodipodi="http://sodipodi.sourceforge.net/DTD/sodipodi-0.dtd"
   xmlns:inkscape="http://www.inkscape.org/namespaces/inkscape"
   version="1.1"
   x="0px"
   y="0px"
   width="576px"
   height="576px"
   viewBox="-0.031 -0.031 576 576"
   enable-background="new -0.031 -0.031 576 576"
   xml:space="preserve"
   id="svg2"
   inkscape:version="0.48.1 "
   sodipodi:docname="B9g.svg"
   inkscape:export-filename="C:\Documents and Settings\bertrand.bouteilles\Bureau\Panneaux\A - Route\3_interdiction\B9g.png"
   inkscape:export-xdpi="150"
   inkscape:export-ydpi="150"><metadata
   id="metadata20"><rdf:RDF><cc:Work
       rdf:about=""><dc:format>image/svg+xml</dc:format><dc:type
         rdf:resource="http://purl.org/dc/dcmitype/StillImage" /><dc:title></dc:title></cc:Work></rdf:RDF></metadata><sodipodi:namedview
   pagecolor="#ffffff"
   bordercolor="#666666"
   borderopacity="1"
   objecttolerance="10"
   gridtolerance="10"
   guidetolerance="10"
   inkscape:pageopacity="0"
   inkscape:pageshadow="2"
   inkscape:window-width="1280"
   inkscape:window-height="964"
   id="namedview18"
   showgrid="false"
   inkscape:zoom="0.50868056"
   inkscape:cx="-111.07167"
   inkscape:cy="288"
   inkscape:window-x="-4"
   inkscape:window-y="-4"
   inkscape:window-maximized="1"
   inkscape:current-layer="svg2" />
<defs
   id="defs4">
</defs>
<circle
   cx="287.96899"
   cy="287.96899"
   r="286.96899"
   id="circle6"
   sodipodi:cx="287.96899"
   sodipodi:cy="287.96899"
   sodipodi:rx="286.96899"
   sodipodi:ry="286.96899"
   transform="translate(5.859375e-6,5.8593754e-6)"
   style="fill:#ffffff;stroke:#000000;stroke-width:2;stroke-linecap:round;stroke-linejoin:round" />
<circle
   cx="287.96899"
   cy="287.96899"
   r="273.98199"
   id="circle8"
   sodipodi:cx="287.96899"
   sodipodi:cy="287.96899"
   sodipodi:rx="273.98199"
   sodipodi:ry="273.98199"
   transform="translate(5.859375e-6,5.8593754e-6)"
   style="fill:#ff0000;stroke:#ff0000;stroke-width:0.17640001000000000;stroke-linecap:round;stroke-linejoin:round" />
<circle
   cx="287.96899"
   cy="287.96899"
   r="192.438"
   id="circle10"
   sodipodi:cx="287.96899"
   sodipodi:cy="287.96899"
   sodipodi:rx="192.438"
   sodipodi:ry="192.438"
   transform="translate(5.859375e-6,5.8593754e-6)"
   style="fill:#ffffff;stroke:#ff0000;stroke-width:0.17640001;stroke-linecap:round;stroke-linejoin:round" />


<g
   id="g2997"
   transform="translate(-2.326465,0.93495163)"><path
     id="path12"
     d="m 405.856,283.987 c 13.649,7.522 22.938,21.055 25.055,36.495 l -4.083,0.366 c 3.226,22.82 -11.227,44.415 -33.552,50.136 -22.326,5.721 -45.382,-6.264 -53.527,-27.823 l -31.104,-2.772 -26.805,-5.799 -4.192,-27.979 -54.832,-38.642 -6.66,12.986 c 21.649,11.178 33.853,34.832 30.417,58.953 l -7.667,-0.163 c -5.167,21.808 -25.526,36.54 -47.856,34.631 -22.33,-1.909 -39.892,-19.885 -41.282,-42.253 -1.39,-22.368 13.813,-42.379 35.734,-47.038 l 0.149,-7.03 c 8.87,0.046 17.726,0.719 26.5,2.014 l 7.129,-14.79 -11.235,-6.34 -10.767,-0.229 0.95,-16.54 29.383,-2.862 3.774,-8.635 -3.98,-9.673 -2.282,-5.278 0.821,-10.441 6.58,0.14 9.699,-5.895 1.721,3.523 -10.317,6.753 -3.589,-0.076 0.993,9.608 5.797,8.839 -5.735,16.438 42.344,34.89 28.563,7.581 22.86,-5.616 2.22,-19.999 -11.723,-11.579 42.487,0.031 -15.793,10.995 1.628,7.879 70.581,1.5 -8.271,13.768"
     inkscape:connector-curvature="0"
     style="stroke:#000000;stroke-width:0.17640001;stroke-linecap:round;stroke-linejoin:round" /><path
     id="path14"
     d="m 341.889,340.958 c 6.56,19.118 25.687,30.963 45.726,28.314 20.038,-2.647 35.432,-19.054 36.801,-39.22 1.368,-20.166 -11.668,-38.501 -31.165,-43.832 -19.496,-5.332 -40.048,3.819 -49.131,21.877 l 24.665,7.233 c 5.112,-5.725 13.32,-7.525 20.359,-4.464 7.039,3.06 11.32,10.29 10.619,17.934 -0.7,7.644 -6.225,13.976 -13.702,15.705 -7.479,1.73 -15.223,-1.531 -19.208,-8.091 l -24.964,4.544 z"
     inkscape:connector-curvature="0"
     style="fill:#ffffff;stroke:#000000;stroke-width:0.17640001;stroke-linecap:round;stroke-linejoin:round" /><path
     id="path16"
     d="m 208.611,291.369 c -20.772,-7.218 -43.517,3.401 -51.32,23.961 -7.803,20.561 2.17,43.597 22.501,51.977 20.331,8.381 43.64,-0.937 52.592,-21.021 8.952,-20.087 0.297,-43.649 -19.527,-53.166 l -15.792,37.827 -4.361,-1.373 15.907,-38.205 z"
     inkscape:connector-curvature="0"
     style="fill:#ffffff;stroke:#000000;stroke-width:0.17640001;stroke-linecap:round;stroke-linejoin:round" /></g>
</svg>