<?xml version="1.0" encoding="UTF-8" standalone="no"?>
<!-- Generator: Adobe Illustrator 13.0.0, SVG Export Plug-In  -->

<svg
   xmlns:dc="http://purl.org/dc/elements/1.1/"
   xmlns:cc="http://creativecommons.org/ns#"
   xmlns:rdf="http://www.w3.org/1999/02/22-rdf-syntax-ns#"
   xmlns:svg="http://www.w3.org/2000/svg"
   xmlns="http://www.w3.org/2000/svg"
   xmlns:sodipodi="http://sodipodi.sourceforge.net/DTD/sodipodi-0.dtd"
   xmlns:inkscape="http://www.inkscape.org/namespaces/inkscape"
   version="1.1"
   x="0px"
   y="0px"
   width="576px"
   height="576px"
   viewBox="-0.031 -0.031 576 576"
   enable-background="new -0.031 -0.031 576 576"
   xml:space="preserve"
   id="svg2"
   inkscape:version="0.48.1 "
   sodipodi:docname="B9h.svg"
   inkscape:export-filename="C:\Documents and Settings\bertrand.bouteilles\Bureau\Panneaux\A - Route\3_interdiction\B9h.png"
   inkscape:export-xdpi="150"
   inkscape:export-ydpi="150"><metadata
   id="metadata38"><rdf:RDF><cc:Work
       rdf:about=""><dc:format>image/svg+xml</dc:format><dc:type
         rdf:resource="http://purl.org/dc/dcmitype/StillImage" /><dc:title></dc:title></cc:Work></rdf:RDF></metadata><sodipodi:namedview
   pagecolor="#ffffff"
   bordercolor="#666666"
   borderopacity="1"
   objecttolerance="10"
   gridtolerance="10"
   guidetolerance="10"
   inkscape:pageopacity="0"
   inkscape:pageshadow="2"
   inkscape:window-width="1280"
   inkscape:window-height="964"
   id="namedview36"
   showgrid="false"
   inkscape:zoom="0.50868056"
   inkscape:cx="-111.07167"
   inkscape:cy="288"
   inkscape:window-x="-4"
   inkscape:window-y="-4"
   inkscape:window-maximized="1"
   inkscape:current-layer="svg2" />
<defs
   id="defs4">
</defs>
<circle
   cx="287.96899"
   cy="287.96899"
   r="286.96899"
   id="circle6"
   sodipodi:cx="287.96899"
   sodipodi:cy="287.96899"
   sodipodi:rx="286.96899"
   sodipodi:ry="286.96899"
   transform="translate(5.859375e-6,5.8593752e-6)"
   style="fill:#ffffff;stroke:#000000;stroke-width:2;stroke-linecap:round;stroke-linejoin:round" />
<circle
   cx="287.96899"
   cy="287.96899"
   r="273.98199"
   id="circle8"
   sodipodi:cx="287.96899"
   sodipodi:cy="287.96899"
   sodipodi:rx="273.98199"
   sodipodi:ry="273.98199"
   transform="translate(5.859375e-6,5.8593752e-6)"
   style="fill:#ff0000;stroke:#ff0000;stroke-width:0.17640001000000000;stroke-linecap:round;stroke-linejoin:round" />
<circle
   cx="287.96899"
   cy="287.96899"
   r="192.438"
   id="circle10"
   sodipodi:cx="287.96899"
   sodipodi:cy="287.96899"
   sodipodi:rx="192.438"
   sodipodi:ry="192.438"
   transform="translate(5.859375e-6,5.8593752e-6)"
   style="fill:#ffffff;stroke:#ff0000;stroke-width:0.17640001;stroke-linecap:round;stroke-linejoin:round" />











<g
   id="g3015"
   transform="translate(0.50000293,1)"><path
     id="path12"
     d="m 168.719,268.969 c -29.961,0 -54.25,23.617 -54.25,52.75 0,29.133 24.289,52.75 54.25,52.75 29.961,0 54.25,-23.617 54.25,-52.75 0,-29.133 -24.289,-52.75 -54.25,-52.75 z m 0,89 c -20.297,0 -36.75,-16.175 -36.75,-36.13 0,-19.954 16.453,-36.13 36.75,-36.13 20.297,0 36.75,16.176 36.75,36.13 0,19.955 -16.453,36.13 -36.75,36.13 z"
     inkscape:connector-curvature="0"
     style="stroke:#000000" /><path
     id="path14"
     d="m 398.719,269.969 c -29.961,0 -54.25,23.617 -54.25,52.75 0,29.133 24.289,52.75 54.25,52.75 29.961,0 54.25,-23.617 54.25,-52.75 0,-29.133 -24.289,-52.75 -54.25,-52.75 z m 0,89 c -20.297,0 -36.75,-16.175 -36.75,-36.13 0,-19.954 16.453,-36.13 36.75,-36.13 20.297,0 36.75,16.176 36.75,36.13 0,19.955 -16.453,36.13 -36.75,36.13 z"
     inkscape:connector-curvature="0" /><ellipse
     id="ellipse16"
     ry="18"
     rx="18.75"
     cy="321.46899"
     cx="169.21899"
     d="m 187.96899,321.46899 c 0,9.94113 -8.39466,18 -18.75,18 -10.35533,0 -18.75,-8.05887 -18.75,-18 0,-9.94112 8.39467,-18 18.75,-18 10.35534,0 18.75,8.05888 18.75,18 z"
     sodipodi:cx="169.21899"
     sodipodi:cy="321.46899"
     sodipodi:rx="18.75"
     sodipodi:ry="18"
     style="stroke:#ff0000;stroke-width:0.17640001;stroke-linecap:round;stroke-linejoin:round" /><ellipse
     id="ellipse18"
     ry="18"
     rx="18.75"
     cy="321.96899"
     cx="397.96899"
     d="m 416.71899,321.96899 c 0,9.94113 -8.39466,18 -18.75,18 -10.35533,0 -18.75,-8.05887 -18.75,-18 0,-9.94112 8.39467,-18 18.75,-18 10.35534,0 18.75,8.05888 18.75,18 z"
     sodipodi:cx="397.96899"
     sodipodi:cy="321.96899"
     sodipodi:rx="18.75"
     sodipodi:ry="18"
     style="stroke:#ff0000;stroke-width:0.17640001;stroke-linecap:round;stroke-linejoin:round" /><polygon
     id="polygon20"
     points="234.969,242.469 217.469,234.969 167.469,311.969 177.969,318.469 " /><path
     id="path22"
     d="m 265.654,329.965 c 3.17,1.29 19.07,0.916 22.788,-0.996 h 60.027 l 59.5,-91 h -129.5 v 43.116 c -0.823,-0.074 -1.656,-0.116 -2.5,-0.116 -14.636,0 -26.5,11.417 -26.5,25.5 0,10.562 6.674,19.625 16.185,23.496"
     inkscape:connector-curvature="0"
     style="opacity:0.98999999" /><rect
     id="rect24"
     height="13.5"
     width="104"
     y="316.96899"
     x="356.96899" /><polygon
     id="polygon26"
     points="401.469,307.469 389.969,274.969 375.969,281.969 389.469,310.469 " /><polygon
     id="polygon28"
     points="255.969,287.469 255.469,279.969 249.469,278.969 241.969,278.469 234.469,275.469 228.969,270.469 221.969,258.469 217.469,251.969 212.469,249.469 198.469,249.969 193.969,244.469 191.969,237.969 191.969,231.469 192.469,225.969 194.469,219.469 198.469,215.969 209.969,216.469 217.969,220.469 224.469,225.969 227.969,221.469 232.969,209.469 236.969,204.469 240.969,202.969 246.969,201.469 253.469,200.469 264.469,198.469 267.969,200.969 269.469,204.969 242.969,211.969 238.469,219.469 249.969,224.469 276.969,226.469 286.469,227.469 294.969,230.469 303.969,235.969 309.969,244.969 265.469,290.969 " /><polygon
     id="polygon30"
     points="412.719,262.969 423.219,266.469 430.219,270.469 436.719,274.969 443.719,281.969 448.219,287.969 452.719,298.469 453.719,303.969 439.219,305.969 402.719,277.969 378.719,279.469 367.219,248.469 399.219,239.469 407.219,237.969 " /><rect
     id="rect32"
     height="15"
     width="19.5"
     y="272.46899"
     x="272.46899" /><rect
     id="rect34"
     height="12.75"
     width="95"
     y="317.46899"
     x="268.71899" /></g>
</svg>