<?xml version="1.0" encoding="UTF-8" standalone="no"?>
<!-- Generator: Adobe Illustrator 13.0.0, SVG Export Plug-In . SVG Version: 6.00 Build 14948)  -->

<svg
   xmlns:dc="http://purl.org/dc/elements/1.1/"
   xmlns:cc="http://creativecommons.org/ns#"
   xmlns:rdf="http://www.w3.org/1999/02/22-rdf-syntax-ns#"
   xmlns:svg="http://www.w3.org/2000/svg"
   xmlns="http://www.w3.org/2000/svg"
   xmlns:sodipodi="http://sodipodi.sourceforge.net/DTD/sodipodi-0.dtd"
   xmlns:inkscape="http://www.inkscape.org/namespaces/inkscape"
   version="1.1"
   id="svg2816"
   x="0px"
   y="0px"
   width="575.99994"
   height="576.00006"
   viewBox="0 0 575.99995 576.00007"
   enable-background="new 0 0 574.938 574.938"
   xml:space="preserve"
   inkscape:version="0.48.1 "
   sodipodi:docname="C108.svg"
   inkscape:export-filename="C:\Documents and Settings\bertrand.bouteilles\Bureau\Panneaux\A - Route\5_indication\C108.png"
   inkscape:export-xdpi="150"
   inkscape:export-ydpi="150"><metadata
   id="metadata20"><rdf:RDF><cc:Work
       rdf:about=""><dc:format>image/svg+xml</dc:format><dc:type
         rdf:resource="http://purl.org/dc/dcmitype/StillImage" /><dc:title></dc:title></cc:Work></rdf:RDF></metadata><defs
   id="defs18" /><sodipodi:namedview
   pagecolor="#ffffff"
   bordercolor="#666666"
   borderopacity="1"
   objecttolerance="10"
   gridtolerance="10"
   guidetolerance="10"
   inkscape:pageopacity="0"
   inkscape:pageshadow="2"
   inkscape:window-width="1920"
   inkscape:window-height="1174"
   id="namedview16"
   showgrid="false"
   fit-margin-top="0"
   fit-margin-left="0"
   fit-margin-right="0"
   fit-margin-bottom="0"
   inkscape:zoom="0.50962018"
   inkscape:cx="-135.84509"
   inkscape:cy="288.00004"
   inkscape:window-x="1276"
   inkscape:window-y="-4"
   inkscape:window-maximized="1"
   inkscape:current-layer="svg2816" />








<path
   d="M 42.000342,575.00008 H 534.00047 c 10.8732,0 21.3023,-4.3185 28.9912,-12.0083 7.6888,-7.6889 12.0083,-18.117 12.0083,-28.9912 V 42.000427 c 0,-10.87417 -4.3194,-21.3023 -12.0083,-28.99114 -7.6899,-7.68982 -18.119,-12.00929998 -28.9922,-12.00929998 H 42.000342 c -10.87413,0 -21.30227,4.31947998 -28.99113,12.00829998 -7.68985,7.68884 -12.00922998,18.11797 -12.00922998,28.99214 V 534.00058 c 0,10.8742 4.31937998,21.3023 12.00822998,28.9912 7.68886,7.6888 18.118,12.0083 28.99213,12.0083 z"
   id="path6-1-1-1-1"
   inkscape:connector-curvature="0"
   style="fill:#ffffff;stroke:#000000;stroke-width:1.99998808;stroke-linecap:round;stroke-linejoin:round;stroke-miterlimit:4;stroke-dasharray:none" /><polygon
   points="36.576,36.576 36.576,538.362 538.362,538.362 538.362,538.362 538.362,36.576 538.362,36.576 36.576,36.576 "
   id="polygon8-7-7-7-7"
   transform="matrix(1.0000749,0,0,1.0000749,0.50944357,0.50950357)"
   style="fill:#0000ff;stroke:#0000ff;stroke-width:0.17640001;stroke-linecap:round;stroke-linejoin:round" /><g
   id="g2990"
   transform="translate(2.514945,-0.720665)"><path
     style="fill:#ffffff;fill-opacity:1;stroke:#ffffff;stroke-width:6;stroke-linejoin:round;stroke-miterlimit:4;stroke-opacity:1;stroke-dasharray:none"
     id="path253"
     d="m 438.34344,248.84928 -28.56671,-101.00762 -9.81224,-5.31619 -217.50475,-1.77206 -13.083,7.08825 -34.95775,101.00762 c -14.48636,2.2568 -19.97153,9.01419 -23.91899,16.54043 l 0,96.87161 27.80135,0 0,72.65461 49.06123,0 0,-72.65461 201.15102,0 0,74.42667 49.06122,0 0,-74.42667 22.89524,0 0,-95.69141 c -4.43579,-11.03152 -12.36985,-16.71902 -22.12662,-17.72063 z m -270.66095,0 24.59276,-81.51492 196.2449,3.54412 19.37264,77.9708 -240.2103,0 z"
     inkscape:connector-curvature="0" /><circle
     style="fill:#0000ff;fill-opacity:1"
     id="circle257"
     transform="matrix(3.1818776,0,0,3.1818776,-536.79265,-51.186889)"
     r="5.8330002"
     cy="110.579"
     cx="220.57899"
     d="m 226.41199,110.579 c 0,3.22148 -2.61152,5.833 -5.833,5.833 -3.22147,0 -5.833,-2.61152 -5.833,-5.833 0,-3.22147 2.61153,-5.833 5.833,-5.833 3.22148,0 5.833,2.61153 5.833,5.833 z"
     sodipodi:cx="220.57899"
     sodipodi:cy="110.579"
     sodipodi:rx="5.8330002"
     sodipodi:ry="5.8330002" /><circle
     style="fill:#0000ff;fill-opacity:1"
     id="circle259"
     transform="matrix(3.1818776,0,0,3.1818776,-536.79265,-51.186889)"
     r="5.8330002"
     cy="110.412"
     cx="297.745"
     d="m 303.578,110.412 c 0,3.22148 -2.61153,5.833 -5.833,5.833 -3.22148,0 -5.83301,-2.61152 -5.83301,-5.833 0,-3.22147 2.61153,-5.833 5.83301,-5.833 3.22147,0 5.833,2.61153 5.833,5.833 z"
     sodipodi:cx="297.745"
     sodipodi:cy="110.412"
     sodipodi:rx="5.8330002"
     sodipodi:ry="5.8330002" /></g><polygon
   style="fill:#ff0000;stroke:#ff0000;stroke-width:0.7087;stroke-linecap:round;stroke-linejoin:round"
   points="103.894,554.011 553.541,104.363 553.541,43.927 499.106,43.927 43.458,499.575 43.458,554.011 "
   id="polygon27"
   transform="matrix(0.98278619,0,0,0.98278619,-5.3612113,-5.8225694)" /></svg>