<?xml version="1.0" encoding="UTF-8" standalone="no"?>
<!-- Generator: Adobe Illustrator 13.0.0, SVG Export Plug-In  -->

<svg
   xmlns:dc="http://purl.org/dc/elements/1.1/"
   xmlns:cc="http://creativecommons.org/ns#"
   xmlns:rdf="http://www.w3.org/1999/02/22-rdf-syntax-ns#"
   xmlns:svg="http://www.w3.org/2000/svg"
   xmlns="http://www.w3.org/2000/svg"
   xmlns:sodipodi="http://sodipodi.sourceforge.net/DTD/sodipodi-0.dtd"
   xmlns:inkscape="http://www.inkscape.org/namespaces/inkscape"
   version="1.1"
   x="0px"
   y="0px"
   width="575.99988"
   height="576.00006"
   viewBox="-0.322 -0.549 575.99988 576.00006"
   enable-background="new -0.322 -0.549 576 576"
   xml:space="preserve"
   id="svg2"
   inkscape:version="0.48.1 "
   sodipodi:docname="C112.svg"
   inkscape:export-filename="C:\Documents and Settings\bertrand.bouteilles\Bureau\Panneaux\A - Route\5_indication\C112.png"
   inkscape:export-xdpi="150"
   inkscape:export-ydpi="150"><metadata
   id="metadata36"><rdf:RDF><cc:Work
       rdf:about=""><dc:format>image/svg+xml</dc:format><dc:type
         rdf:resource="http://purl.org/dc/dcmitype/StillImage" /><dc:title></dc:title></cc:Work></rdf:RDF></metadata><sodipodi:namedview
   pagecolor="#ffffff"
   bordercolor="#666666"
   borderopacity="1"
   objecttolerance="10"
   gridtolerance="10"
   guidetolerance="10"
   inkscape:pageopacity="0"
   inkscape:pageshadow="2"
   inkscape:window-width="1920"
   inkscape:window-height="1174"
   id="namedview34"
   showgrid="false"
   fit-margin-top="0"
   fit-margin-left="0"
   fit-margin-right="0"
   fit-margin-bottom="0"
   inkscape:zoom="0.50868056"
   inkscape:cx="-111.07172"
   inkscape:cy="288.00002"
   inkscape:window-x="1276"
   inkscape:window-y="-4"
   inkscape:window-maximized="1"
   inkscape:current-layer="svg2" />
<defs
   id="defs4">
</defs>














<path
   d="M 41.678354,574.45105 H 533.67851 c 10.87309,0 21.30219,-4.31848 28.99109,-12.0083 7.6888,-7.68884 12.0083,-18.11698 12.0083,-28.99115 V 41.451434 c 0,-10.87417 -4.31939,-21.3023 -12.0083,-28.99114 C 554.9797,4.770474 544.5506,0.45099404 533.67751,0.45099404 H 41.678354 c -10.87413,0 -21.30227,4.31947996 -28.99113,12.00829996 -7.68985,7.68884 -12.00922996,18.11797 -12.00922996,28.99214 V 533.4516 c 0,10.87417 4.31937996,21.30231 12.00822996,28.99115 7.68886,7.68883 18.118,12.0083 28.99213,12.0083 z"
   id="path6-1-1-1-1"
   inkscape:connector-curvature="0"
   style="fill:#ffffff;stroke:#000000;stroke-width:1.99998808;stroke-linecap:round;stroke-linejoin:round;stroke-miterlimit:4;stroke-dasharray:none" /><polygon
   points="538.362,36.576 36.576,36.576 36.576,36.576 36.576,538.362 538.362,538.362 538.362,538.362 538.362,36.576 "
   id="polygon8-7-7-7-7"
   transform="matrix(1.0000749,0,0,1.0000749,0.18741761,-0.03951239)"
   style="fill:#0000ff;stroke:#0000ff;stroke-width:0.17640001;stroke-linecap:round;stroke-linejoin:round" /><g
   id="g3011"
   transform="translate(-3.3500394,9.2135204)"><path
     id="path10"
     d="m 179.773,454.456 h -0.092 v -144 h 0.054 c -0.033,-0.997 -0.054,-1.996 -0.054,-3 0,-54.677 48.801,-99 109,-99 60.2,0 109,44.323 109,99 0,1.004 -0.021,2.003 -0.055,3 h 0.555 v 144 h -0.919 v 2 h 100.419 l -2,-208 -90,-132 h -230 l -98,130 2,210 h 100.092 v -2 z"
     inkscape:connector-curvature="0"
     style="fill:#ffffff" /><line
     id="line12"
     y2="391.504"
     x2="531.76398"
     y1="391.504"
     x1="63.786999"
     style="fill:none;stroke:#0000ff;stroke-width:4" /><line
     id="line14"
     y2="321.00699"
     x2="513.77002"
     y1="321.00699"
     x1="50.292"
     style="fill:none;stroke:#0000ff;stroke-width:4" /><line
     id="line16"
     y2="288.01001"
     x2="195.78"
     y1="240.01199"
     x1="74.286003"
     style="fill:none;stroke:#0000ff;stroke-width:4" /><line
     id="line18"
     y2="253.511"
     x2="212.27901"
     y1="177.015"
     x1="116.284"
     style="fill:none;stroke:#0000ff;stroke-width:4" /><line
     id="line20"
     y2="232.513"
     x2="242.27699"
     y1="111.019"
     x1="167.282"
     style="fill:none;stroke:#0000ff;stroke-width:4" /><line
     id="line22"
     y2="219.013"
     x2="270.77701"
     y1="105.019"
     x1="248.27699"
     style="fill:none;stroke:#0000ff;stroke-width:4" /><line
     id="line24"
     y2="217.513"
     x2="306.77499"
     y1="102.019"
     x1="327.77301"
     style="fill:none;stroke:#0000ff;stroke-width:4" /><line
     id="line26"
     y2="232.513"
     x2="339.77301"
     y1="102.019"
     x1="414.76999"
     style="fill:none;stroke:#0000ff;stroke-width:4" /><line
     id="line28"
     y2="255.011"
     x2="366.771"
     y1="177.015"
     x1="464.26801"
     style="fill:none;stroke:#0000ff;stroke-width:4" /><line
     id="line30"
     y2="286.51001"
     x2="384.771"
     y1="243.01199"
     x1="500.26599"
     style="fill:none;stroke:#0000ff;stroke-width:4" /></g><polygon
   style="fill:#ff0000;stroke:#ff0000;stroke-width:0.7087;stroke-linecap:round;stroke-linejoin:round"
   points="43.458,499.575 43.458,554.011 103.894,554.011 553.541,104.363 553.541,43.927 499.106,43.927 "
   id="polygon27"
   transform="matrix(0.98278617,0,0,0.98278617,-5.6832314,-6.3715795)" /></svg>