<?xml version="1.0" encoding="UTF-8" standalone="no"?>
<!-- Generator: Adobe Illustrator 13.0.0, SVG Export Plug-In . SVG Version: 6.00 Build 14948)  -->

<svg
   xmlns:dc="http://purl.org/dc/elements/1.1/"
   xmlns:cc="http://creativecommons.org/ns#"
   xmlns:rdf="http://www.w3.org/1999/02/22-rdf-syntax-ns#"
   xmlns:svg="http://www.w3.org/2000/svg"
   xmlns="http://www.w3.org/2000/svg"
   xmlns:sodipodi="http://sodipodi.sourceforge.net/DTD/sodipodi-0.dtd"
   xmlns:inkscape="http://www.inkscape.org/namespaces/inkscape"
   version="1.1"
   id="Calque_1"
   x="0px"
   y="0px"
   width="576px"
   height="576px"
   viewBox="-0.322 -0.549 576 576"
   enable-background="new -0.322 -0.549 576 576"
   xml:space="preserve"
   inkscape:version="0.48.1 "
   sodipodi:docname="C114.svg"
   inkscape:export-filename="C:\Documents and Settings\bertrand.bouteilles\Bureau\Panneaux\A - Route\5_indication\C114.png"
   inkscape:export-xdpi="150"
   inkscape:export-ydpi="150"><metadata
   id="metadata47"><rdf:RDF><cc:Work
       rdf:about=""><dc:format>image/svg+xml</dc:format><dc:type
         rdf:resource="http://purl.org/dc/dcmitype/StillImage" /><dc:title></dc:title></cc:Work></rdf:RDF></metadata><defs
   id="defs45" /><sodipodi:namedview
   pagecolor="#ffffff"
   bordercolor="#666666"
   borderopacity="1"
   objecttolerance="10"
   gridtolerance="10"
   guidetolerance="10"
   inkscape:pageopacity="0"
   inkscape:pageshadow="2"
   inkscape:window-width="1920"
   inkscape:window-height="1174"
   id="namedview43"
   showgrid="false"
   inkscape:zoom="0.50868056"
   inkscape:cx="288"
   inkscape:cy="288"
   inkscape:window-x="1276"
   inkscape:window-y="-4"
   inkscape:window-maximized="1"
   inkscape:current-layer="Calque_1" />




<path
   d="M 41.678395,574.45102 H 533.67857 c 10.8731,0 21.3022,-4.31848 28.99109,-12.0083 7.68881,-7.68884 12.0083,-18.11698 12.0083,-28.99114 V 41.451417 c 0,-10.87417 -4.3194,-21.3023 -12.0083,-28.99114 C 554.97978,4.7704575 544.55067,0.4509775 533.67757,0.4509775 H 41.678395 c -10.87413,0 -21.30227,4.31948 -28.99113,12.0082995 -7.68985,7.68884 -12.00923,18.11797 -12.00923,28.99214 V 533.45158 c 0,10.87417 4.31938,21.30231 12.00823,28.99114 7.68886,7.68884 18.118,12.0083 28.99213,12.0083 z"
   id="path6-1-1-1-1"
   inkscape:connector-curvature="0"
   style="fill:#ffffff;stroke:#000000;stroke-width:1.99998808;stroke-linecap:round;stroke-linejoin:round;stroke-miterlimit:4;stroke-dasharray:none" /><polygon
   points="538.362,538.362 538.362,538.362 538.362,36.576 538.362,36.576 36.576,36.576 36.576,36.576 36.576,538.362 "
   id="polygon8-7-7-7-7"
   transform="matrix(1.0000749,0,0,1.0000749,0.18746857,-0.03953143)"
   style="fill:#0000ff;stroke:#0000ff;stroke-width:0.17640001;stroke-linecap:round;stroke-linejoin:round" /><g
   id="g3022"
   transform="translate(-1.2505049,10.415877)"><g
     id="g7"><ellipse
       id="ellipse9"
       ry="81.900002"
       rx="83.474998"
       cy="325.25201"
       cx="149.541"
       sodipodi:cx="149.541"
       sodipodi:cy="325.25201"
       sodipodi:rx="83.474998"
       sodipodi:ry="81.900002"
       style="fill:#ffffff"
       d="m 233.016,325.25201 c 0,45.23213 -37.37303,81.90001 -83.475,81.90001 -46.10197,0 -83.474998,-36.66788 -83.474998,-81.90001 0,-45.23212 37.373028,-81.9 83.474998,-81.9 46.10197,0 83.475,36.66788 83.475,81.9 z" /><ellipse
       id="ellipse11"
       ry="68.167999"
       rx="69.476997"
       cy="324.202"
       cx="149.539"
       sodipodi:cx="149.539"
       sodipodi:cy="324.202"
       sodipodi:rx="69.476997"
       sodipodi:ry="68.167999"
       style="fill:#0000ff"
       d="m 219.016,324.202 c 0,37.64814 -31.10591,68.168 -69.477,68.168 -38.37108,0 -69.476996,-30.51986 -69.476996,-68.168 0,-37.64815 31.105916,-68.168 69.476996,-68.168 38.37109,0 69.477,30.51985 69.477,68.168 z" /><ellipse
       id="ellipse13"
       ry="81.900002"
       rx="83.474998"
       cy="324.72699"
       cx="428.31601"
       sodipodi:cx="428.31601"
       sodipodi:cy="324.72699"
       sodipodi:rx="83.474998"
       sodipodi:ry="81.900002"
       style="fill:#ffffff"
       d="m 511.79101,324.72699 c 0,45.23212 -37.37303,81.9 -83.475,81.9 -46.10197,0 -83.475,-36.66788 -83.475,-81.9 0,-45.23212 37.37303,-81.9 83.475,-81.9 46.10197,0 83.475,36.66788 83.475,81.9 z" /><ellipse
       id="ellipse15"
       ry="68.167999"
       rx="69.476997"
       cy="323.677"
       cx="428.314"
       sodipodi:cx="428.314"
       sodipodi:cy="323.677"
       sodipodi:rx="69.476997"
       sodipodi:ry="68.167999"
       style="fill:#0000ff"
       d="m 497.79099,323.677 c 0,37.64815 -31.10591,68.168 -69.47699,68.168 -38.37109,0 -69.477,-30.51985 -69.477,-68.168 0,-37.64814 31.10591,-68.168 69.477,-68.168 38.37108,0 69.47699,30.51986 69.47699,68.168 z" /><ellipse
       id="ellipse17"
       ry="24.15"
       rx="25.725"
       cy="336.27701"
       cx="302.31601"
       sodipodi:cx="302.31601"
       sodipodi:cy="336.27701"
       sodipodi:rx="25.725"
       sodipodi:ry="24.15"
       style="fill:#ffffff"
       d="m 328.04101,336.27701 c 0,13.33767 -11.51748,24.15 -25.725,24.15 -14.20753,0 -25.725,-10.81233 -25.725,-24.15 0,-13.33768 11.51747,-24.15 25.725,-24.15 14.20752,0 25.725,10.81232 25.725,24.15 z" /><path
       id="path19"
       d="m 228.032,147.278 c -14.692,-0.4 -37.32,-2.17 -44.367,8.4 -12.555,18.828 3.646,28.709 19.95,33.6 -8.318,26.558 -16.634,53.117 -24.952,79.675 -6.825,21.798 -11.921,37.11 -29.648,52.625 24.794,10.625 35.641,-35.757 41.369,-51.481 10.711,-29.39 21.42,-58.779 32.131,-88.169 -8.929,-2.976 -17.856,-5.949 -26.781,-8.925 -4.975,-1.659 -0.396,-12.075 5.109,-12.075 8.624,0 17.249,0 25.873,0 v 1.05 h 9.45 v -14.7 h -8.134 z"
       inkscape:connector-curvature="0"
       style="fill:#ffffff" /><rect
       id="rect21"
       height="13.65"
       width="147"
       y="197.677"
       x="208.866"
       style="fill:#ffffff" /><polygon
       id="polygon23"
       points="326.466,173.528 352.716,187.177 308.616,326.827 318.066,334.177 367.416,189.278 375.816,185.077 387.366,181.927 393.666,174.577 392.616,169.327 389.466,161.977 385.266,159.877 330.666,160.927 323.316,166.177 "
       style="fill:#ffffff" /><polygon
       id="polygon25"
       points="355.866,197.677 432.516,320.528 425.166,323.677 347.466,216.577 "
       style="fill:#ffffff" /><polygon
       id="polygon27"
       points="307.566,329.978 419.916,321.577 426.216,331.028 312.816,343.627 "
       style="fill:#ffffff" /><ellipse
       id="ellipse29"
       ry="14.175"
       rx="14.7"
       cy="323.677"
       cx="428.31601"
       sodipodi:cx="428.31601"
       sodipodi:cy="323.677"
       sodipodi:rx="14.7"
       sodipodi:ry="14.175"
       style="fill:#ffffff"
       d="m 443.01601,323.677 c 0,7.82864 -6.58141,14.175 -14.7,14.175 -8.11859,0 -14.7,-6.34636 -14.7,-14.175 0,-7.82863 6.58141,-14.175 14.7,-14.175 8.11859,0 14.7,6.34637 14.7,14.175 z" /><ellipse
       id="ellipse31"
       ry="14.175"
       rx="14.7"
       cy="321.577"
       cx="149.01601"
       sodipodi:cx="149.01601"
       sodipodi:cy="321.577"
       sodipodi:rx="14.7"
       sodipodi:ry="14.175"
       style="fill:#ffffff"
       d="m 163.71601,321.577 c 0,7.82863 -6.58142,14.175 -14.7,14.175 -8.11859,0 -14.7,-6.34637 -14.7,-14.175 0,-7.82864 6.58141,-14.175 14.7,-14.175 8.11858,0 14.7,6.34636 14.7,14.175 z" /><polygon
       id="polygon33"
       points="200.702,218.327 297.765,325.627 290.612,336.977 196.616,233.802 "
       style="fill:#ffffff" /><rect
       id="rect35"
       height="7.6139998"
       width="24.149"
       transform="matrix(-0.9922,0.125,-0.125,-0.9922,671.6719,729.9599)"
       y="382.24399"
       x="300.86099"
       style="fill:#ffffff" /><line
       id="line37"
       y2="384.577"
       x2="312.81601"
       y1="286.927"
       x1="293.91599"
       style="fill:none;stroke:#ffffff;stroke-width:5" /><rect
       id="rect39"
       height="7.6139998"
       width="24.149"
       transform="matrix(-0.9922,0.1249,-0.1249,-0.9922,619.3608,532.358)"
       y="281.79001"
       x="280.91501"
       style="fill:#ffffff" /></g></g><polygon
   style="fill:#ff0000;stroke:#ff0000;stroke-width:0.7087;stroke-linecap:round;stroke-linejoin:round"
   points="553.541,104.363 553.541,43.927 499.106,43.927 43.458,499.575 43.458,554.011 103.894,554.011 "
   id="polygon27-1"
   transform="matrix(0.98278617,0,0,0.98278617,-5.6831804,-6.3715985)" /></svg>