<?xml version="1.0" encoding="UTF-8" standalone="no"?>
<svg
   xmlns:dc="http://purl.org/dc/elements/1.1/"
   xmlns:cc="http://creativecommons.org/ns#"
   xmlns:rdf="http://www.w3.org/1999/02/22-rdf-syntax-ns#"
   xmlns:svg="http://www.w3.org/2000/svg"
   xmlns="http://www.w3.org/2000/svg"
   xmlns:sodipodi="http://sodipodi.sourceforge.net/DTD/sodipodi-0.dtd"
   xmlns:inkscape="http://www.inkscape.org/namespaces/inkscape"
   version="1.1"
   xml:space="preserve"
   height="576.00006"
   width="576"
   enable-background="new -0.063 -0.031 598 600"
   y="0px"
   x="0px"
   viewBox="-0.063 -0.031 576 576.00006"
   id="svg2"
   inkscape:version="0.48.1 "
   sodipodi:docname="C116.svg"
   inkscape:export-filename="C:\Documents and Settings\bertrand.bouteilles\Bureau\Panneaux\A - Route\5_indication\C116.png"
   inkscape:export-xdpi="150"
   inkscape:export-ydpi="150"><metadata
   id="metadata26"><rdf:RDF><cc:Work
       rdf:about=""><dc:format>image/svg+xml</dc:format><dc:type
         rdf:resource="http://purl.org/dc/dcmitype/StillImage" /><dc:title></dc:title></cc:Work></rdf:RDF></metadata><defs
   id="defs24" /><sodipodi:namedview
   pagecolor="#ffffff"
   bordercolor="#666666"
   borderopacity="1"
   objecttolerance="10"
   gridtolerance="10"
   guidetolerance="10"
   inkscape:pageopacity="0"
   inkscape:pageshadow="2"
   inkscape:window-width="1920"
   inkscape:window-height="1174"
   id="namedview22"
   showgrid="false"
   fit-margin-top="0"
   fit-margin-left="0"
   fit-margin-right="0"
   fit-margin-bottom="0"
   inkscape:zoom="0.48833333"
   inkscape:cx="-127.69966"
   inkscape:cy="288.00002"
   inkscape:window-x="1276"
   inkscape:window-y="-4"
   inkscape:window-maximized="1"
   inkscape:current-layer="svg2" />


<path
   d="M 41.937354,574.96905 H 533.93749 c 10.8732,0 21.3023,-4.31848 28.9912,-12.0083 7.6888,-7.68884 12.0083,-18.11698 12.0083,-28.99115 V 41.969434 c 0,-10.87417 -4.3194,-21.3023 -12.0083,-28.99114 -7.6899,-7.68982 -18.119,-12.00929996 -28.9922,-12.00929996 H 41.937354 c -10.87413,0 -21.30227,4.31947996 -28.99113,12.00829996 -7.68985,7.68884 -12.00922996,18.11797 -12.00922996,28.99214 V 533.9696 c 0,10.87417 4.31937996,21.30231 12.00822996,28.99115 7.68886,7.68883 18.118,12.00829 28.99213,12.00829 z"
   id="path6-1-1-1-1"
   inkscape:connector-curvature="0"
   style="fill:#ffffff;stroke:#000000;stroke-width:1.99998808;stroke-linecap:round;stroke-linejoin:round;stroke-miterlimit:4;stroke-dasharray:none" /><polygon
   points="538.362,538.362 538.362,538.362 538.362,36.576 538.362,36.576 36.576,36.576 36.576,36.576 36.576,538.362 "
   id="polygon8-7-7-7-7"
   transform="matrix(1.0000749,0,0,1.0000749,0.44646304,0.47848804)"
   style="fill:#0000ff;stroke:#0000ff;stroke-width:0.17640001;stroke-linecap:round;stroke-linejoin:round" />
  <g
   id="g3019"
   transform="translate(-13.380209,-13.595981)"><path
     id="path8"
     d="m 58.8,64 c 0,109 151,184 162,243 10.6,52.7 -34.5,174 -60.4,233 89.1,0 256,-1.39 382,-2.87 6.72,-227 0,-215 -108,-351 -39,-45 -151,-50 -156,-123 -88,0 -220,0 -220,0 z"
     style="fill:#35b135"
     inkscape:connector-curvature="0" /><g
     id="g10">
    <path
   id="path12"
   d="m 199,179 2.15,-2.58 28,-12.5 12.1,-25.4 2.15,-2.58 3.44,-2.15 2.15,-0.861 0.364,-6.55 c -6.24,-2.18 -10.7,-7.87 -10.7,-14.5 0,-8.56 7.32,-15.5 16.4,-15.5 9.03,0 16.4,6.94 16.4,15.5 0,5.57 -3.1,10.4 -7.75,13.2 v 5.33 l 5.17,1.72 4.31,0.861 3.01,1.29 1.72,2.15 22,22.4 2.15,1.72 10.8,32.7 v 6.89 l -2.58,1.29 -3.44,1.29 -3.01,-0.431 -2.15,-2.15 -13.8,-35.3 -13.8,-10.8 3.87,27.6 43.9,82.2 -16.4,9.47 h -4.74 l -3.01,-1.29 -1.72,-3.44 v -3.01 l 1.29,-3.44 3.01,-2.15 -32.3,-58.1 h -3.44 l -37,71 -19.8,-9.47 -0.861,-2.58 v -5.17 l 1.29,-2.15 1.72,-0.861 h 5.6 l 1.72,0.431 34.9,-68.9 -2.58,-25 -2.58,0.431 -6.03,13.8 -29.7,13.8 -3.44,1.29 h -5.17 l -2.58,-2.58 -1.29,-3.44 0.43,-3.44 z"
   style="fill:#ffffff"
   inkscape:connector-curvature="0" />
    <path
   id="path14"
   d="m 456,400 -43.2,-58.3 -7.92,-2.16 -0.632,0.278 c 3.62,-6.34 3.11,-14.7 -1.89,-20.9 -6.47,-8.07 -18,-9.55 -25.8,-3.33 -7.75,6.22 -8.79,17.9 -2.32,25.9 4.78,5.96 12.3,8.33 19,6.64 v 5.14 l -51.1,45.4 -6.48,5.04 v 8.64 l 2.16,2.88 5.76,1.44 7.2,-1.44 39.6,-38.2 5.76,0.72 23.8,34.6 -48.3,7.2 -7.2,2.88 -3.6,2.88 -0.72,5.76 25.2,28.1 h 7.2 l 5.04,-5.04 1.44,-5.76 -8.64,-9.36 v -2.88 l 22.3,0.72 -9.36,13.7 -2.16,42.5 0.72,7.92 2.16,4.32 4.32,2.16 h 6.48 l 4.32,-2.16 2.16,-5.04 v -40.3 l 33.9,-35.3 3.6,-9.36 v -7.2 l -2.88,-7.92 z"
   style="fill:#ffffff"
   inkscape:connector-curvature="0" />
    <ellipse
   id="ellipse16"
   transform="matrix(1.4404744,0,0,1.4404744,-157.44482,134.03534)"
   ry="32.5"
   rx="34"
   cy="238"
   cx="337"
   style="fill:#ffffff"
   sodipodi:cx="337"
   sodipodi:cy="238"
   sodipodi:rx="34"
   sodipodi:ry="32.5"
   d="m 371,238 c 0,17.94925 -15.22232,32.5 -34,32.5 -18.77768,0 -34,-14.55075 -34,-32.5 0,-17.94925 15.22232,-32.5 34,-32.5 18.77768,0 34,14.55075 34,32.5 z" />
    <ellipse
   id="ellipse18"
   transform="matrix(1.4404744,0,0,1.4404744,-157.44482,134.03535)"
   ry="32.5"
   rx="34"
   cy="237"
   cx="451"
   style="fill:#ffffff"
   sodipodi:cx="451"
   sodipodi:cy="237"
   sodipodi:rx="34"
   sodipodi:ry="32.5"
   d="m 485,237 c 0,17.94925 -15.22232,32.5 -34,32.5 -18.77768,0 -34,-14.55075 -34,-32.5 0,-17.94925 15.22232,-32.5 34,-32.5 18.77768,0 34,14.55075 34,32.5 z" />
  </g></g>
  
<polygon
   style="fill:#ff0000;stroke:#ff0000;stroke-width:0.7087;stroke-linecap:round;stroke-linejoin:round"
   points="43.458,554.011 103.894,554.011 553.541,104.363 553.541,43.927 499.106,43.927 43.458,499.575 "
   id="polygon27"
   transform="matrix(0.98278617,0,0,0.98278617,-5.4241864,-5.8535795)" /></svg>