<?xml version="1.0" encoding="UTF-8" standalone="no"?>
<!-- Generator: Adobe Illustrator 16.0.2, SVG Export Plug-In . SVG Version: 6.00 Build 0)  -->

<svg
   xmlns:dc="http://purl.org/dc/elements/1.1/"
   xmlns:cc="http://creativecommons.org/ns#"
   xmlns:rdf="http://www.w3.org/1999/02/22-rdf-syntax-ns#"
   xmlns:svg="http://www.w3.org/2000/svg"
   xmlns="http://www.w3.org/2000/svg"
   xmlns:sodipodi="http://sodipodi.sourceforge.net/DTD/sodipodi-0.dtd"
   xmlns:inkscape="http://www.inkscape.org/namespaces/inkscape"
   version="1.1"
   id="Ebene_1"
   x="0px"
   y="0px"
   width="576.06085"
   height="744.93408"
   viewBox="0 0 576.06085 744.93409"
   xml:space="preserve"
   inkscape:version="0.48.1 "
   sodipodi:docname="C14_2.svg"
   inkscape:export-filename="C:\Documents and Settings\bertrand.bouteilles\Bureau\Panneaux\A - Route\5_indication\C14_2.png"
   inkscape:export-xdpi="150"
   inkscape:export-ydpi="150"><metadata
   id="metadata227"><rdf:RDF><cc:Work
       rdf:about=""><dc:format>image/svg+xml</dc:format><dc:type
         rdf:resource="http://purl.org/dc/dcmitype/StillImage" /><dc:title></dc:title></cc:Work></rdf:RDF></metadata><defs
   id="defs225">
	
	
	
	
	
	
	
	
	
	
	
	
	
	

	
	
	
	
	
	
	

	
	
	
	
	
	
	
	
	
	
	

	
	
	
	
	
	
</defs><sodipodi:namedview
   pagecolor="#ffffff"
   bordercolor="#666666"
   borderopacity="1"
   objecttolerance="10"
   gridtolerance="10"
   guidetolerance="10"
   inkscape:pageopacity="0"
   inkscape:pageshadow="2"
   inkscape:window-width="1280"
   inkscape:window-height="964"
   id="namedview223"
   showgrid="false"
   fit-margin-top="0"
   fit-margin-left="0"
   fit-margin-right="0"
   fit-margin-bottom="0"
   inkscape:zoom="0.35455254"
   inkscape:cx="585.09805"
   inkscape:cy="398.08627"
   inkscape:window-x="1469"
   inkscape:window-y="13"
   inkscape:window-maximized="1"
   inkscape:current-layer="Ebene_1" />
<polygon
   style="fill:#ffffff;stroke:#000000;stroke-width:2;stroke-linecap:round;stroke-linejoin:round"
   points="1.385,21.926 2.527,17.662 4.393,13.662 6.924,10.046 10.045,6.924 13.662,4.393 17.662,2.527 21.926,1.385 26.323,1 570.774,1 575.172,1.385 579.436,2.527 583.437,4.393 587.052,6.924 590.174,10.046 592.704,13.662 594.57,17.662 595.713,21.926 596.098,26.323 596.098,798.685 595.713,803.082 594.57,807.346 592.704,811.347 590.174,814.962 587.052,818.083 583.437,820.615 579.436,822.48 575.172,823.623 570.774,824.008 26.323,824.008 21.926,823.623 17.662,822.48 13.662,820.615 10.045,818.083 6.924,814.962 4.393,811.347 2.527,807.346 1.385,803.082 1,798.685 1,26.323 "
   id="polygon3"
   transform="matrix(0.96477098,0,0,0.90294798,-9.8630802e-4,9.9245445e-4)" />
<polyline
   style="fill:#0000ff;stroke:#0000ff;stroke-width:0.7087;stroke-linecap:round;stroke-linejoin:round"
   points="  26.007,20.309 26.007,804.698 571.092,804.698 571.092,20.309 26.007,20.309 "
   id="polyline5"
   transform="matrix(0.96477098,0,0,0.90294798,-0.00146869,0.00144344)" />
<polyline
   style="fill:#00ff00;stroke:#000000;stroke-width:0.7087;stroke-linecap:round;stroke-linejoin:round"
   points="  97.468,200.223 97.468,325.701 494.181,325.701 494.181,200.223 97.468,200.223 "
   id="polyline7"
   transform="matrix(0.99897318,0,0,0.99997443,-7.4882667,-43.87428)" />
<polyline
   style="fill:#ffffff;stroke:#0000ff;stroke-width:0.7087;stroke-linecap:round;stroke-linejoin:round"
   points="  97.468,576.235 493.284,576.235 493.284,748.193 97.468,748.193 97.468,576.235 "
   id="polyline9"
   transform="matrix(0.99897318,0,0,0.99997443,-7.0402274,-43.87428)" />
































































<g
   id="g3218"
   style="fill:#ffffff"
   transform="matrix(1.0000352,0,0,0.99997373,-10.878063,-26.00753)"><path
     style="fill:#ffffff"
     d="m 114.527,89.199 c 6.474,1.031 10.445,4.963 11.914,11.795 l 0.3,2.481 -8.576,0.645 c -0.29,-3.395 -1.502,-5.554 -3.638,-6.478 -2.136,-0.923 -4.45,-0.698 -6.941,0.677 -1.668,1.01 -2.993,2.165 -3.971,3.464 -0.979,1.3 -2.024,3.84 -3.137,7.622 -1.38,5.329 -1.413,10.055 -0.1,14.18 0.979,3.008 3.326,4.233 7.041,3.674 4.004,-0.988 6.529,-3.244 7.575,-6.768 h 8.843 c -0.823,4.533 -3.226,8.293 -7.208,11.279 -2.025,1.913 -5.062,3.19 -9.11,3.835 -0.534,0.021 -1.057,0.032 -1.568,0.032 -5.005,0 -8.888,-1.901 -11.646,-5.704 -2.247,-3.523 -3.37,-7.659 -3.37,-12.407 0,-2.083 0.222,-4.297 0.667,-6.639 1.246,-6.982 3.704,-12.396 7.375,-16.242 1.891,-2.083 4.126,-3.598 6.708,-4.544 2.024,-0.688 4.093,-1.031 6.207,-1.031 h 0.367 c 0.732,0 1.489,0.044 2.268,0.129 z"
     id="path143"
     inkscape:connector-curvature="0" /><path
     style="fill:#ffffff"
     d="m 154.638,108.857 c 0.823,1.826 1.235,4.018 1.235,6.574 0,1.182 -0.089,2.438 -0.267,3.771 -0.734,4.92 -2.314,8.701 -4.739,11.344 -2.736,3.008 -5.773,4.673 -9.11,4.995 -0.689,0.043 -1.257,0.064 -1.702,0.064 -0.601,0 -1.235,-0.032 -1.902,-0.097 -2.759,-0.193 -5.217,-1.848 -7.375,-4.963 -1.18,-1.89 -1.769,-4.383 -1.769,-7.477 0,-0.902 0.056,-1.858 0.167,-2.868 0.534,-5.586 2.503,-10.001 5.907,-13.245 2.336,-2.17 4.572,-3.373 6.708,-3.609 0.934,-0.15 1.846,-0.226 2.736,-0.226 h 0.3 c 4.316,10e-4 7.586,1.914 9.811,5.737 z m -13.849,21.173 c 1.78,0.064 3.248,-0.73 4.405,-2.385 1.09,-1.654 1.979,-4.039 2.669,-7.154 0.712,-3.545 0.656,-6.563 -0.167,-9.056 -0.712,-1.998 -1.847,-2.868 -3.404,-2.61 -1.935,-0.258 -3.648,0.838 -5.139,3.287 -1.113,2.042 -1.88,4.362 -2.303,6.961 -0.378,3.115 -0.4,5.5 -0.067,7.154 0.581,2.944 1.915,4.211 4.006,3.803 z"
     id="path145"
     inkscape:connector-curvature="0" /><path
     style="fill:#ffffff"
     d="m 174.46,90.327 -8.81,44.795 h -7.875 l 8.91,-44.795 h 7.775 z"
     id="path147"
     inkscape:connector-curvature="0" /><path
     style="fill:#ffffff"
     d="m 218.343,135.509 h -7.575 l 0.701,-4.157 c -1.224,2.32 -2.781,3.771 -4.672,4.351 -0.979,0.258 -2.181,0.43 -3.604,0.516 -2.136,-0.279 -3.571,-0.967 -4.305,-2.063 -2.025,-1.955 -3.204,-4.791 -3.538,-8.508 -0.066,-0.859 -0.1,-1.708 -0.1,-2.546 0,-2.664 0.467,-5.414 1.402,-8.25 1.112,-3.094 2.524,-5.5 4.238,-7.219 2.514,-2.792 4.872,-4.21 7.075,-4.254 4.026,-0.365 6.641,1.246 7.842,4.834 l 3.137,-16.758 h 7.909 l -8.51,44.054 z m -7.709,-26.426 c -2.692,0.15 -5.25,3.996 -7.675,11.537 -0.134,6.08 1.034,9.26 3.504,9.539 4.205,-0.645 6.641,-4.329 7.308,-11.054 1.09,-6.423 0.044,-9.764 -3.137,-10.022 z"
     id="path149"
     inkscape:connector-curvature="0" /><path
     style="fill:#ffffff"
     d="m 242.537,102.831 c 3.692,0 6.329,0.87 7.909,2.61 1.69,1.547 2.603,3.996 2.736,7.348 0.022,0.451 0.033,0.892 0.033,1.321 -0.044,2.557 -0.345,4.984 -0.901,7.283 h -17.386 c -0.846,3.953 -0.378,6.574 1.402,7.863 1.179,0.73 2.447,0.688 3.804,-0.129 1.513,-1.117 2.547,-2.771 3.104,-4.963 h 8.509 c -1.001,3.953 -3.148,7.058 -6.44,9.313 -2.136,1.225 -4.394,1.837 -6.774,1.837 -2.002,0 -4.105,-0.43 -6.307,-1.289 -3.716,-2.191 -5.573,-5.725 -5.573,-10.603 0,-0.43 0.011,-0.87 0.034,-1.321 0.689,-6.553 2.447,-11.461 5.272,-14.728 2.468,-2.855 5.994,-4.37 10.578,-4.542 z m -6.474,12.472 h 9.478 c 0.311,-2.879 0.111,-4.866 -0.601,-5.962 -1.802,-1.912 -3.993,-1.783 -6.574,0.387 -1.269,1.418 -2.036,3.276 -2.303,5.575 z"
     id="path151"
     inkscape:connector-curvature="0" /><path
     style="fill:#ffffff"
     d="m 307.742,89.296 -1.301,7.348 -15.618,0.032 -1.936,10.667 h 14.817 l -1.234,7.283 -15.084,0.032 -4.171,20.561 h -8.61 l 9.043,-45.923 h 24.094 z"
     id="path153"
     inkscape:connector-curvature="0" /><path
     style="fill:#ffffff"
     d="m 333.504,108.857 c 0.823,1.826 1.235,4.018 1.235,6.574 0,1.182 -0.09,2.438 -0.268,3.771 -0.733,4.92 -2.313,8.701 -4.738,11.344 -2.736,3.008 -5.773,4.673 -9.11,4.995 -0.689,0.043 -1.257,0.064 -1.702,0.064 -0.601,0 -1.234,-0.032 -1.901,-0.097 -2.759,-0.193 -5.218,-1.848 -7.375,-4.963 -1.18,-1.89 -1.77,-4.383 -1.77,-7.477 0,-0.902 0.057,-1.858 0.168,-2.868 0.533,-5.586 2.502,-10.001 5.906,-13.245 2.336,-2.17 4.571,-3.373 6.707,-3.609 0.935,-0.15 1.847,-0.226 2.736,-0.226 h 0.301 c 4.316,10e-4 7.587,1.914 9.811,5.737 z m -13.848,21.173 c 1.78,0.064 3.248,-0.73 4.405,-2.385 1.09,-1.654 1.979,-4.039 2.67,-7.154 0.711,-3.545 0.655,-6.563 -0.167,-9.056 -0.713,-1.998 -1.847,-2.868 -3.404,-2.61 -1.936,-0.258 -3.648,0.838 -5.139,3.287 -1.113,2.042 -1.881,4.362 -2.303,6.961 -0.379,3.115 -0.4,5.5 -0.066,7.154 0.578,2.944 1.913,4.211 4.004,3.803 z"
     id="path155"
     inkscape:connector-curvature="0" /><path
     style="fill:#ffffff"
     d="m 360.034,135.251 h -7.676 l 0.634,-5.382 c -2.425,3.202 -4.86,5.039 -7.308,5.511 -0.623,0.064 -1.201,0.097 -1.735,0.097 -1.558,0 -2.715,-0.258 -3.471,-0.773 -1.535,-0.881 -2.514,-2.18 -2.937,-3.899 -0.334,-1.246 -0.5,-2.61 -0.5,-4.093 0,-1.096 0.1,-2.256 0.3,-3.48 l 3.671,-19.884 h 8.209 l -3.838,19.529 c -0.423,2.191 -0.155,3.814 0.802,4.866 1.646,1.246 3.414,1.053 5.306,-0.58 1.445,-1.332 2.58,-3.685 3.403,-7.058 l 3.204,-16.758 h 7.742 l -5.34,28.037 -0.466,3.867 z"
     id="path157"
     inkscape:connector-curvature="0" /><path
     style="fill:#ffffff"
     d="m 373.482,103.25 h 7.676 l -0.634,4.479 c 1.646,-2.406 3.281,-3.888 4.905,-4.447 0.734,-0.193 1.423,-0.29 2.069,-0.29 0.533,0 1.223,0.086 2.068,0.258 l -2.002,8.347 c -1.802,-0.601 -3.37,-0.419 -4.705,0.548 -1.691,0.946 -3.159,3.276 -4.405,6.993 l -3.037,16.017 h -7.741 l 5.806,-31.905 z"
     id="path159"
     inkscape:connector-curvature="0" /><path
     style="fill:#ffffff"
     d="m 406.386,103.25 c 3.471,0.129 6.084,1.063 7.842,2.804 2.425,2.127 3.638,5.027 3.638,8.701 0,0.495 -0.022,1.01 -0.066,1.547 h -7.542 c 0.4,-5.156 -0.746,-7.552 -3.438,-7.187 -3.648,-0.236 -6.14,2.986 -7.475,9.668 -0.935,7.734 0.233,11.419 3.504,11.054 2.848,-0.129 4.816,-1.848 5.906,-5.156 h 7.809 c -1.49,4.834 -4.816,8.314 -9.978,10.441 -1.713,0.279 -3.215,0.419 -4.505,0.419 -1.514,0 -2.715,-0.193 -3.604,-0.58 -4.649,-1.354 -7.097,-5.36 -7.341,-12.021 0.2,-6.445 1.924,-11.365 5.172,-14.76 3.07,-3.05 6.43,-4.693 10.078,-4.93 z"
     id="path161"
     inkscape:connector-curvature="0" /><path
     style="fill:#ffffff"
     d="m 428.744,90.263 h 7.876 l -3.371,17.982 c 2.447,-3.266 4.917,-5.135 7.408,-5.607 2.491,-0.236 4.249,-0.011 5.272,0.677 1.558,0.902 2.559,2.224 3.004,3.964 0.334,1.268 0.5,2.654 0.5,4.157 0,1.117 -0.1,2.299 -0.3,3.545 l -3.737,20.174 h -8.343 l 3.904,-19.819 c 0.444,-2.234 0.178,-3.878 -0.801,-4.931 -1.669,-1.268 -3.471,-1.074 -5.406,0.58 -1.446,1.354 -2.592,3.738 -3.438,7.154 l -3.236,17.016 H 420.2 l 8.544,-44.892 z"
     id="path163"
     inkscape:connector-curvature="0" /><path
     style="fill:#ffffff"
     d="m 468.722,102.831 c 3.693,0 6.329,0.87 7.909,2.61 1.69,1.547 2.603,3.996 2.736,7.348 0.021,0.451 0.033,0.892 0.033,1.321 -0.045,2.557 -0.345,4.984 -0.9,7.283 h -17.387 c -0.846,3.953 -0.378,6.574 1.401,7.863 1.18,0.73 2.447,0.688 3.805,-0.129 1.513,-1.117 2.547,-2.771 3.104,-4.963 h 8.51 c -1.001,3.953 -3.148,7.058 -6.44,9.313 -2.136,1.225 -4.395,1.837 -6.774,1.837 -2.003,0 -4.104,-0.43 -6.308,-1.289 -3.715,-2.191 -5.572,-5.725 -5.572,-10.603 0,-0.43 0.011,-0.87 0.033,-1.321 0.689,-6.553 2.447,-11.461 5.272,-14.728 2.47,-2.855 5.995,-4.37 10.578,-4.542 z m -6.474,12.472 h 9.478 c 0.312,-2.879 0.111,-4.866 -0.601,-5.962 -1.803,-1.912 -3.994,-1.783 -6.574,0.387 -1.269,1.418 -2.036,3.276 -2.303,5.575 z"
     id="path165"
     inkscape:connector-curvature="0" /><path
     style="fill:#ffffff"
     d="m 481.637,124.971 h 7.308 c -0.467,1.826 -0.189,3.234 0.834,4.222 1.202,0.859 2.781,1.01 4.739,0.451 1.957,-0.559 2.858,-1.793 2.703,-3.706 0.021,-1.246 -0.891,-2.363 -2.736,-3.352 -2.381,-1.01 -4.572,-2.341 -6.574,-3.996 -2.069,-1.611 -2.814,-4.157 -2.236,-7.638 0.423,-2.191 1.603,-4.049 3.538,-5.575 1.423,-1.16 3.214,-1.869 5.372,-2.127 1.046,-0.064 1.98,-0.097 2.804,-0.097 1.379,0 2.424,0.097 3.137,0.29 1.802,0.366 3.281,1.149 4.438,2.353 1.268,1.418 1.901,3.298 1.901,5.64 0,0.495 -0.033,1.021 -0.1,1.579 h -7.742 c 0.622,-2.105 0.301,-3.523 -0.968,-4.254 -2.314,-0.601 -3.949,-0.269 -4.905,0.999 -1.313,1.826 -1.102,3.276 0.634,4.351 5.139,2.535 8.164,4.426 9.077,5.672 1.112,1.268 1.657,2.944 1.635,5.027 -0.089,1.676 -0.423,3.137 -1.001,4.383 -0.823,1.439 -1.914,2.75 -3.271,3.932 -1.69,1.289 -3.415,2.063 -5.172,2.32 -0.913,0.107 -1.78,0.161 -2.604,0.161 -1.49,0 -2.903,-0.108 -4.238,-0.322 -1.757,-0.559 -3.326,-1.568 -4.705,-3.029 -1.224,-1.225 -1.868,-3.062 -1.936,-5.511 l 0.068,-1.773 z"
     id="path167"
     inkscape:connector-curvature="0" /></g>
<g
   id="g3240"
   transform="matrix(1.0000352,0,0,0.99997373,-7.7189524,-43.60108)"
   style="fill:#ffffff"><path
     style="fill:#ffffff"
     d="m 143.778,226.775 c 8.415,1.181 14.639,5.742 18.673,13.686 3.442,5.87 5.164,13.08 5.164,21.629 v 0.861 c 0,10.688 -2.834,19.779 -8.502,27.275 -4.034,5.041 -9.736,7.863 -17.108,8.47 -0.765,0.063 -1.513,0.096 -2.243,0.096 -7.65,0 -14.066,-2.967 -19.247,-8.9 -5.355,-7.911 -8.067,-16.03 -8.137,-24.356 -0.035,-0.701 -0.052,-1.403 -0.052,-2.105 0,-11.261 2.729,-20.576 8.189,-27.945 3.651,-4.02 7.458,-6.587 11.423,-7.704 2.747,-0.797 5.494,-1.196 8.241,-1.196 1.217,-0.002 2.416,0.062 3.599,0.189 z m -4.016,59.767 c 4.033,-0.191 7.44,-2.728 10.223,-7.608 2.016,-3.254 3.286,-8.039 3.807,-14.355 0.104,-8.039 -1.443,-14.626 -4.642,-19.763 -2.608,-3.572 -5.494,-5.566 -8.658,-5.981 -4.172,0.191 -7.65,2.696 -10.432,7.513 -1.982,3.382 -3.269,8.23 -3.859,14.547 -0.07,8.039 1.512,14.611 4.746,19.715 2.573,3.572 5.511,5.549 8.815,5.932 z"
     id="path173"
     inkscape:connector-curvature="0" /><path
     style="fill:#ffffff"
     d="m 195.488,227.732 v 47.469 c 0.66,6.062 4.381,9.443 11.162,10.145 6.676,-0.67 10.432,-4.003 11.266,-10.001 v -47.612 h 14.761 v 51.153 c -1.287,6.253 -4.503,11.118 -9.649,14.595 -4.59,2.967 -9.284,4.529 -14.083,4.689 -0.765,0.063 -1.513,0.096 -2.243,0.096 -7.129,0 -13.022,-1.897 -17.682,-5.694 -5.32,-4.721 -8.137,-9.538 -8.45,-14.451 v -50.388 h 14.918 z"
     id="path175"
     inkscape:connector-curvature="0" /><path
     style="fill:#ffffff"
     d="m 258.672,227.589 15.491,50.436 13.3,-50.436 h 14.866 l -18.517,70.15 h -19.351 l -20.498,-70.15 h 14.709 z"
     id="path177"
     inkscape:connector-curvature="0" /><path
     style="fill:#ffffff"
     d="m 358.994,227.685 v 12.824 h -31.607 v 15.313 h 23.158 v 12.968 h -23.158 v 16.03 h 32.964 v 12.968 h -47.673 l 0.052,-70.103 h 46.264 z"
     id="path179"
     inkscape:connector-curvature="0" /><path
     style="fill:#ffffff"
     d="m 397.246,227.397 c 8.032,0 14.309,2.648 18.829,7.943 3.964,4.658 5.946,9.905 5.946,15.743 0,1.053 -0.07,2.297 -0.209,3.732 -0.834,7.114 -4.712,13 -11.631,17.657 l 12.727,25.266 h -16.482 l -10.9,-20.911 h -9.44 v 21.055 h -14.448 l 0.052,-70.485 h 25.556 z m -2.086,35.937 4.277,-0.479 c 2.433,-0.605 4.467,-1.866 6.103,-3.78 1.39,-1.882 2.225,-4.131 2.503,-6.747 0.139,-3.254 -0.904,-6.093 -3.129,-8.518 -1.878,-1.978 -4.608,-3.094 -8.189,-3.35 h -10.483 v 22.873 h 8.918 z"
     id="path181"
     inkscape:connector-curvature="0" /><path
     style="fill:#ffffff"
     d="m 479.156,227.589 v 13.494 h -15.282 v 56.704 h -14.188 v -56.848 h -16.325 v -13.351 h 45.795 z"
     id="path183"
     inkscape:connector-curvature="0" /></g>

<g
   id="g3347"
   transform="matrix(0.99897318,0,0,0.99997443,-578.39735,-46.693319)"><polyline
     transform="translate(573.68942,2.8191126)"
     id="polyline11"
     points="  95.968,349.337 491.294,349.337 491.294,551.373 95.968,551.373 95.968,349.337 "
     style="fill:#ffffff;stroke:#0000ff;stroke-width:0.7087;stroke-linecap:round;stroke-linejoin:round" /><g
     transform="translate(571.57509,7.0101126)"
     id="g3248"><path
       inkscape:connector-curvature="0"
       style="fill:#0000ff;stroke:#0000ff;stroke-width:0.7087;stroke-linecap:round;stroke-linejoin:round"
       d="m 248.568,446.164 c 0,-38.359 -31.097,-69.456 -69.456,-69.456 -38.358,0 -69.456,31.097 -69.456,69.456 0,38.359 31.098,69.456 69.456,69.456 38.36,0 69.456,-31.097 69.456,-69.456 l 0,0 0,0 z"
       id="path13" /><path
       inkscape:connector-curvature="0"
       style="fill:#ffffff;stroke:#0000ff;stroke-width:0.7087;stroke-linecap:round;stroke-linejoin:round"
       d="m 186.094,394.054 c 20.501,0 37.12,23.458 37.12,52.395 0,28.937 -16.619,52.395 -37.12,52.395 l -14.676,-0.532 c -19.389,-1.728 -34.732,-24.345 -34.732,-51.989 0,-28.047 15.792,-50.917 35.578,-52.052 l 13.83,-0.217 z"
       id="path15" /><path
       inkscape:connector-curvature="0"
       style="fill:none;stroke:#0000ff;stroke-width:0.7087;stroke-linecap:round;stroke-linejoin:round"
       d="m 193.15,413.268 c 0.12,0.032 0.24,0.066 0.357,0.102"
       id="path17" /><path
       inkscape:connector-curvature="0"
       style="fill:none;stroke:#0000ff;stroke-width:0.7087;stroke-linecap:round;stroke-linejoin:round"
       d="m 193.716,413.365 c 8.525,2.634 15.277,16.469 15.668,33.296 0.441,18.87 -7.282,34.354 -17.249,34.588 -9.968,0.232 -18.405,-14.876 -18.845,-33.746 -0.44,-18.869 7.283,-34.354 17.25,-34.587 0.958,-0.022 1.899,0.097 2.821,0.347"
       id="path19" /><path
       inkscape:connector-curvature="0"
       style="fill:#0000ff;stroke:#0000ff;stroke-width:0.7087;stroke-linecap:round;stroke-linejoin:round"
       d="m 196.2,480.459 c 7.42,-5.012 12.508,-18.03 12.154,-33.176 -0.43,-18.406 -8.74,-33.301 -18.863,-34.399 l 1.851,0.156 c 10.124,1.065 18.425,15.587 18.844,33.538 0.345,14.77 -4.75,27.469 -12.173,32.361 l -1.813,1.52 z"
       id="path21" /><path
       inkscape:connector-curvature="0"
       style="fill:none;stroke:#0000ff;stroke-width:3;stroke-linecap:round;stroke-linejoin:round;stroke-dasharray:12"
       d="m 188.989,497.136 c -18.463,-0.349 -33.358,-22.907 -33.358,-50.686 0,-27.995 15.129,-50.69 33.792,-50.69"
       id="path23" /><path
       inkscape:connector-curvature="0"
       style="fill:none"
       d="m 186.091,415.068 c -7.869,5.728 -13.308,18.007 -13.308,32.233 0,13.298 4.754,24.896 11.801,31.029 6.401,-7.365 10.557,-19.209 10.557,-32.566 -0.002,-12.277 -3.511,-23.277 -9.05,-30.696 z"
       id="path25" /><path
       inkscape:connector-curvature="0"
       style="opacity:0.27999998;fill:#ffffff;stroke:#0000ff;stroke-width:0.7087;stroke-linecap:round;stroke-linejoin:round;enable-background:new"
       d="m 186.091,415.068 c -7.869,5.728 -13.308,18.007 -13.308,32.233 0,13.298 4.754,24.896 11.801,31.029 6.401,-7.365 10.557,-19.209 10.557,-32.566 -0.002,-12.277 -3.511,-23.277 -9.05,-30.696 z"
       id="path27" /><path
       inkscape:connector-curvature="0"
       style="fill:#0000ff"
       d="m 186.091,413.875 c -8.171,5.834 -13.82,18.346 -13.82,32.841 0,13.551 4.938,25.367 12.255,31.616"
       id="path29" /><path
       inkscape:connector-curvature="0"
       style="fill:#0000ff"
       d="m 184.243,478.503 c 7.333,-7.505 12.09,-19.571 12.09,-33.182 0,-12.512 -4.021,-23.719 -10.365,-31.275"
       id="path31" /><path
       inkscape:connector-curvature="0"
       style="opacity:0.98999999;fill:#0000ff;stroke:#ffffff;enable-background:new"
       d="m 153.326,406 h 1.819 l 0.229,-0.341 -0.513,-1.365 -5.119,-0.512 -3.243,1.706 -1.023,4.268 5.461,0.341 2.391,-1.365 0.198,-0.299 h -0.198 l -0.002,-2.433 0,0 z m -1.648,1.713 -1.033,0.59 -2.358,-0.147 0.441,-1.843 1.401,-0.737 2.212,0.221 0.221,0.59 -0.884,1.326 z"
       id="path33" /><path
       inkscape:connector-curvature="0"
       style="fill:#0000ff;stroke:#0000ff"
       d="m 165.358,404.55 -5.12,-0.512 -3.242,1.707 -0.063,0.256 h -1.788 -1.819 v 2.432 h 0.198 2.825 l -0.38,1.579 5.462,0.341 2.389,-1.365 2.049,-3.072 -0.511,-1.366 z m -3.185,3.419 -1.031,0.59 -2.358,-0.146 0.441,-1.844 1.4,-0.737 2.212,0.221 0.221,0.59 -0.885,1.326 z"
       id="path35" /><path
       inkscape:connector-curvature="0"
       style="opacity:0.98999999;fill:#0000ff;stroke:#ffffff;enable-background:new"
       d="m 144.324,428.053 1.703,-0.09 0.192,-0.397 -0.561,-1.523 -4.823,-0.33 -2.934,2.097 -0.702,4.894 5.132,0.118 2.154,-1.668 0.168,-0.349 -0.186,0.011 -0.143,-2.763 z m -1.439,2.024 -0.931,0.72 -2.218,-0.051 0.305,-2.113 1.268,-0.905 2.083,0.143 0.242,0.659 -0.749,1.547 z"
       id="path37" /><path
       inkscape:connector-curvature="0"
       style="fill:#0000ff;stroke:#0000ff"
       d="m 155.499,425.813 -4.823,-0.327 -2.932,2.096 -0.042,0.294 -1.673,0.089 -1.704,0.09 0.146,2.761 0.186,-0.011 2.646,-0.141 -0.26,1.811 5.132,0.118 2.154,-1.668 1.732,-3.587 -0.562,-1.525 z m -2.775,4.037 -0.931,0.722 -2.217,-0.053 0.304,-2.111 1.267,-0.906 2.083,0.143 0.242,0.657 -0.748,1.548 z"
       id="path39" /><path
       inkscape:connector-curvature="0"
       style="opacity:0.98999999;fill:#0000ff;stroke:#ffffff;enable-background:new"
       d="m 153.144,484.094 h 0.199 l -0.199,-0.299 -2.389,-1.365 -5.461,0.343 1.023,4.266 3.243,1.707 5.12,-0.512 0.512,-1.365 -0.228,-0.342 h -1.821 v -2.433 l 0.001,0 z m -0.764,2.046 -0.221,0.591 -2.211,0.221 -1.401,-0.737 -0.442,-1.843 2.359,-0.147 1.032,0.591 0.884,1.324 z"
       id="path41" /><path
       inkscape:connector-curvature="0"
       style="opacity:0.98999999;fill:#0000ff;stroke:#ffffff;enable-background:new"
       d="m 144.121,460.718 0.186,0.016 -0.161,-0.353 -2.119,-1.713 -5.133,0.012 0.603,4.905 2.888,2.157 4.829,-0.229 0.592,-1.512 -0.184,-0.402 -1.702,-0.125 0.201,-2.756 z m -0.884,2.267 -0.255,0.651 -2.086,0.1 -1.248,-0.932 -0.26,-2.12 2.217,-0.004 0.916,0.738 0.716,1.567 z"
       id="path43" /><path
       inkscape:connector-curvature="0"
       style="fill:#0000ff;stroke:#0000ff"
       d="m 155.636,464.435 -1.658,-3.622 -2.12,-1.713 -5.133,0.013 0.224,1.813 -2.643,-0.192 -0.186,-0.016 -0.203,2.757 1.702,0.125 1.67,0.123 0.036,0.295 2.888,2.156 4.829,-0.229 0.594,-1.51 z m -2.567,-1.019 -0.256,0.654 -2.085,0.098 -1.248,-0.932 -0.259,-2.119 2.217,-0.005 0.916,0.738 0.715,1.566 z"
       id="path45" /><polygon
       style="fill:#0000ff;stroke:#0000ff;stroke-width:0.7087;stroke-linecap:round;stroke-linejoin:round"
       points="176.878,412.145 188.654,404.976 188.825,407.195 178.414,413.682 "
       id="polygon47" /><polygon
       style="fill:#0000ff;stroke:#0000ff;stroke-width:0.7087;stroke-linecap:round;stroke-linejoin:round"
       points="173.349,416.682 167.15,430.747 169.198,431.26 175.683,417.947 "
       id="polygon49" /><polyline
       style="fill:#0000ff;stroke:#0000ff;stroke-width:0.7087;stroke-linecap:round;stroke-linejoin:round"
       points="  166.669,435.106 166.125,457.029 167.833,456.688 168.173,436.379 "
       id="polyline51" /><polygon
       style="fill:#0000ff;stroke:#0000ff;stroke-width:0.7087;stroke-linecap:round;stroke-linejoin:round"
       points="167.15,462.49 172.411,476.679 174.489,475.974 168.857,461.808 "
       id="polygon53" /><polyline
       style="fill:#0000ff"
       points="176.366,480.752 187.8,488.261 188.313,485.872 177.902,479.388 "
       id="polyline55" /><polygon
       style="fill:#0000ff;stroke:#0000ff;stroke-width:0.7087;stroke-linecap:round;stroke-linejoin:round"
       points="214.144,436.303 213.742,456.518 215.619,457.713 215.619,436.55 "
       id="polygon57" /><polygon
       style="fill:#0000ff;stroke:#0000ff;stroke-width:0.7087;stroke-linecap:round;stroke-linejoin:round"
       points="206.648,415.564 213.4,432.454 215.449,431.942 208.11,415.217 "
       id="polygon59" /><polyline
       style="fill:#0000ff"
       points="203.673,413.339 193.091,406.854 193.091,404.806 204.185,412.145 "
       id="polyline61" /><path
       inkscape:connector-curvature="0"
       style="fill:#0000ff;stroke:#0000ff"
       d="m 165.102,486.171 -2.048,-3.071 -2.389,-1.365 -5.462,0.342 0.379,1.578 h -2.826 -0.199 v 2.432 h 1.82 1.787 l 0.062,0.257 3.243,1.706 5.12,-0.512 0.513,-1.367 z m -2.811,-0.728 -0.222,0.59 -2.212,0.223 -1.4,-0.738 -0.441,-1.844 2.358,-0.146 1.031,0.59 0.886,1.325 z"
       id="path63" /><path
       inkscape:connector-curvature="0"
       style="fill:#0000ff;stroke:#ffffff;stroke-width:0.7087;stroke-linecap:round;stroke-linejoin:round"
       d="m 163.822,495.729 c 3.512,4.265 8.985,3.563 14.163,3.831 2.502,0.131 13.604,1.393 14.766,-1.398 -4.348,0.827 -9.24,0.569 -13.627,0.231 -5.105,-0.394 -10.856,0.003 -15.302,-2.664"
       id="path65" /><path
       inkscape:connector-curvature="0"
       style="fill:#0000ff;stroke:#0000ff;stroke-width:0.7087;stroke-linecap:round;stroke-linejoin:round"
       d="m 162.371,458.907 c -1.642,-1.324 -4.208,0.353 -5.633,1.023 -1.201,1.519 -1.429,4.6 0.513,5.888 1.824,1.212 4.392,-0.741 5.817,-1.567 1.216,-0.702 0.048,-4.744 -0.697,-5.344 z m -0.647,4.568 c -0.854,0.496 -2.396,1.668 -3.491,0.941 -1.164,-0.774 -1.027,-2.623 -0.308,-3.534 0.854,-0.403 2.395,-1.408 3.379,-0.614 0.447,0.36 1.149,2.785 0.42,3.207 z"
       id="path67" /><path
       inkscape:connector-curvature="0"
       style="fill:#0000ff;stroke:#0000ff;stroke-width:0.7087;stroke-linecap:round;stroke-linejoin:round"
       d="m 169.784,456.861 c -1.328,-1.307 -3.715,-0.027 -5.016,0.454 -1.177,1.25 -1.626,3.963 -0.033,5.263 1.499,1.222 3.906,-0.303 5.224,-0.921 1.121,-0.525 0.427,-4.203 -0.175,-4.796 z m -0.94,3.999 c -0.79,0.37 -2.234,1.284 -3.133,0.552 -0.957,-0.779 -0.688,-2.407 0.02,-3.158 0.781,-0.288 2.212,-1.056 3.01,-0.271 0.36,0.355 0.775,2.562 0.103,2.877 z"
       id="path69" /><polygon
       style="fill:#0000ff"
       points="162.542,460.613 164.333,459.675 164.931,461.638 162.969,462.235 "
       id="polygon71" /><path
       inkscape:connector-curvature="0"
       style="fill:#0000ff;stroke:#0000ff;stroke-width:0.7087;stroke-linecap:round;stroke-linejoin:round"
       d="m 170.458,478.793 c -1.908,-0.896 -4.005,1.339 -5.229,2.329 -0.808,1.76 -0.298,4.807 1.894,5.599 2.059,0.746 4.091,-1.76 5.281,-2.899 1.012,-0.972 -1.081,-4.622 -1.946,-5.029 z m 0.454,4.592 c -0.715,0.685 -1.934,2.188 -3.168,1.74 -1.314,-0.475 -1.62,-2.304 -1.137,-3.359 0.734,-0.594 1.994,-1.937 3.139,-1.396 0.518,0.242 1.774,2.432 1.166,3.015 z"
       id="path73" /><path
       inkscape:connector-curvature="0"
       style="fill:#0000ff;stroke:#0000ff;stroke-width:0.7087;stroke-linecap:round;stroke-linejoin:round"
       d="m 177.175,475.05 c -1.6,-0.954 -3.615,0.854 -4.765,1.629 -0.848,1.493 -0.642,4.236 1.215,5.121 1.746,0.831 3.723,-1.221 4.855,-2.133 0.965,-0.776 -0.58,-4.185 -1.305,-4.617 z m 0.035,4.107 c -0.681,0.547 -1.867,1.777 -2.915,1.277 -1.112,-0.529 -1.237,-2.176 -0.729,-3.071 0.69,-0.465 1.899,-1.55 2.858,-0.979 0.437,0.262 1.364,2.306 0.786,2.773 z"
       id="path75" /><polygon
       style="fill:#0000ff"
       points="171.029,480.41 172.547,479.074 173.593,480.84 171.827,481.885 "
       id="polygon77" /><path
       inkscape:connector-curvature="0"
       style="fill:#0000ff;stroke:#0000ff;stroke-width:0.7087;stroke-linecap:round;stroke-linejoin:round"
       d="m 187.933,491.841 c -1.793,1.108 -1.063,4.087 -0.902,5.653 1.033,1.637 3.865,2.873 5.725,1.47 1.749,-1.317 0.758,-4.389 0.452,-6.009 -0.263,-1.379 -4.462,-1.617 -5.275,-1.114 z m 4.094,2.126 c 0.185,0.974 0.778,2.813 -0.271,3.605 -1.115,0.842 -2.813,0.101 -3.436,-0.882 -0.097,-0.939 -0.533,-2.729 0.542,-3.393 0.489,-0.3 3.009,-0.156 3.165,0.67 z"
       id="path79" /><path
       inkscape:connector-curvature="0"
       style="fill:#0000ff;stroke:#0000ff;stroke-width:0.7087;stroke-linecap:round;stroke-linejoin:round"
       d="m 188.462,484.17 c -1.672,0.819 -1.257,3.494 -1.235,4.881 0.789,1.524 3.199,2.851 4.954,1.777 1.65,-1.01 1.01,-3.786 0.864,-5.233 -0.125,-1.231 -3.825,-1.797 -4.583,-1.425 z m 3.461,2.213 c 0.086,0.868 0.471,2.533 -0.521,3.14 -1.052,0.645 -2.499,-0.151 -2.972,-1.065 -0.014,-0.832 -0.262,-2.438 0.742,-2.929 0.456,-0.226 2.676,0.115 2.751,0.854 z"
       id="path81" /><polygon
       style="fill:#0000ff"
       points="189.599,492.246 189.309,490.244 191.358,490.331 191.271,492.381 "
       id="polygon83" /><path
       inkscape:connector-curvature="0"
       style="fill:none;stroke:#ffffff"
       d="m 206.935,480.028 c 0.323,-0.87 -0.742,-1.729 -1.227,-2.231 -0.411,-0.428 -1.977,0.455 -2.152,0.821 -0.389,0.805 0.563,1.691 0.981,2.209 0.751,0.341 2.054,0.126 2.398,-0.799 z"
       id="path85" /><path
       inkscape:connector-curvature="0"
       style="fill:none;stroke:#ffffff"
       d="m 209.523,482.517 c -0.506,-0.443 -2.163,0.712 -2.319,1.144 -0.349,0.95 0.811,1.857 1.335,2.4 0.876,0.313 2.312,-0.062 2.597,-1.143 0.268,-1.016 -1.016,-1.881 -1.613,-2.401 z"
       id="path87" /><path
       inkscape:connector-curvature="0"
       style="fill:#0000ff;stroke:#ffffff"
       d="m 209.765,481.296 c -0.359,-0.313 -1.067,-0.145 -1.78,0.209 l -0.294,-0.409 c 0.157,-0.184 0.289,-0.391 0.378,-0.63 0.539,-1.45 -1.235,-2.881 -2.043,-3.719 -0.687,-0.713 -3.293,0.759 -3.586,1.368 -0.646,1.343 0.937,2.819 1.636,3.682 0.64,0.291 1.521,0.338 2.306,0.108 l 0.387,0.367 c -0.448,0.35 -0.786,0.701 -0.869,0.931 -0.58,1.583 1.352,3.097 2.227,4.002 1.46,0.52 3.852,-0.104 4.328,-1.905 0.443,-1.694 -1.696,-3.134 -2.69,-4.004 z m -5.227,-0.469 c -0.42,-0.518 -1.37,-1.404 -0.981,-2.209 0.176,-0.366 1.741,-1.249 2.152,-0.821 0.483,0.503 1.549,1.361 1.227,2.231 -0.345,0.925 -1.648,1.14 -2.398,0.799 z m 6.598,4.091 c -0.286,1.081 -1.721,1.454 -2.597,1.143 -0.525,-0.543 -1.685,-1.45 -1.335,-2.4 0.157,-0.432 1.813,-1.587 2.319,-1.144 0.597,0.52 1.881,1.385 1.613,2.401 z"
       id="path89" /><path
       inkscape:connector-curvature="0"
       style="fill:#0000ff;stroke:#ffffff;stroke-width:0.7087;stroke-linecap:round;stroke-linejoin:round"
       d="m 215.255,462.063 c 0.005,1.687 2.342,2.438 3.477,2.981 1.549,-0.019 3.576,-1.433 3.398,-3.287 -0.167,-1.744 -2.675,-2.354 -3.908,-2.823 -1.049,-0.4 -2.969,2.364 -2.967,3.129 z m 3.164,-1.901 c 0.739,0.281 2.244,0.646 2.344,1.693 0.107,1.111 -1.109,1.96 -2.04,1.973 -0.681,-0.327 -2.082,-0.778 -2.085,-1.789 0,-0.459 1.152,-2.117 1.781,-1.877 z"
       id="path91" /><path
       inkscape:connector-curvature="0"
       style="fill:#0000ff;stroke:#0000ff;stroke-width:0.7087;stroke-linecap:round;stroke-linejoin:round"
       d="m 210.248,458.49 c -0.144,1.483 1.854,2.319 2.81,2.886 1.37,0.101 3.282,-0.988 3.285,-2.633 0.003,-1.548 -2.158,-2.272 -3.205,-2.78 -0.892,-0.43 -2.826,1.854 -2.89,2.527 z m 2.957,-1.432 c 0.628,0.306 1.925,0.74 1.924,1.668 -0.003,0.987 -1.15,1.641 -1.971,1.581 -0.573,-0.34 -1.772,-0.843 -1.688,-1.731 0.039,-0.406 1.2,-1.776 1.735,-1.518 z"
       id="path93" /><polygon
       style="fill:#0000ff"
       points="216.229,461.097 214.743,460.457 215.661,459.096 217.022,460.014 "
       id="polygon95" /><path
       inkscape:connector-curvature="0"
       style="fill:#0000ff;stroke:#0000ff;stroke-width:0.7087;stroke-linecap:round;stroke-linejoin:round"
       d="m 164.008,429.11 c -1.426,-0.826 -3.994,-2.779 -5.818,-1.567 -1.939,1.288 -1.714,4.369 -0.512,5.888 1.422,0.672 3.992,2.349 5.632,1.024 0.744,-0.601 1.912,-4.642 0.698,-5.345 z m -1.764,3.984 c -0.984,0.794 -2.525,-0.211 -3.379,-0.613 -0.722,-0.911 -0.856,-2.76 0.308,-3.532 1.094,-0.729 2.635,0.442 3.491,0.939 0.727,0.421 0.026,2.844 -0.42,3.206 z"
       id="path97" /><path
       inkscape:connector-curvature="0"
       style="fill:#0000ff;stroke:#0000ff;stroke-width:0.7087;stroke-linecap:round;stroke-linejoin:round"
       d="m 170.898,431.704 c -1.316,-0.617 -3.725,-2.144 -5.223,-0.921 -1.594,1.3 -1.146,4.013 0.033,5.262 1.301,0.481 3.687,1.761 5.015,0.455 0.602,-0.593 1.295,-4.27 0.175,-4.796 z m -1.22,3.675 c -0.798,0.783 -2.229,0.018 -3.009,-0.271 -0.706,-0.75 -0.977,-2.379 -0.021,-3.157 0.9,-0.733 2.346,0.182 3.135,0.552 0.672,0.314 0.256,2.52 -0.105,2.876 z"
       id="path99" /><polygon
       style="fill:#0000ff"
       points="163.48,432.748 165.273,433.686 165.87,431.725 163.908,431.126 "
       id="polygon101" /><path
       inkscape:connector-curvature="0"
       style="fill:#0000ff;stroke:#0000ff;stroke-width:0.7087;stroke-linecap:round;stroke-linejoin:round"
       d="m 173.342,409.542 c -1.191,-1.142 -3.222,-3.647 -5.282,-2.901 -2.189,0.792 -2.701,3.838 -1.893,5.599 1.224,0.989 3.321,3.227 5.229,2.328 0.866,-0.406 2.959,-4.056 1.946,-5.026 z m -2.659,3.452 c -1.144,0.538 -2.403,-0.805 -3.138,-1.398 -0.484,-1.056 -0.178,-2.884 1.136,-3.359 1.236,-0.446 2.454,1.057 3.169,1.741 0.608,0.582 -0.647,2.771 -1.167,3.016 z"
       id="path103" /><path
       inkscape:connector-curvature="0"
       style="fill:#0000ff;stroke:#0000ff;stroke-width:0.7087;stroke-linecap:round;stroke-linejoin:round"
       d="m 179.42,413.693 c -1.132,-0.911 -3.11,-2.964 -4.855,-2.132 -1.855,0.886 -2.062,3.628 -1.216,5.121 1.15,0.775 3.166,2.584 4.765,1.629 0.726,-0.432 2.271,-3.84 1.306,-4.618 z m -2.055,3.282 c -0.961,0.573 -2.17,-0.512 -2.859,-0.977 -0.507,-0.896 -0.383,-2.542 0.729,-3.073 1.049,-0.498 2.234,0.732 2.914,1.28 0.578,0.465 -0.349,2.511 -0.784,2.77 z"
       id="path105" /><polygon
       style="fill:#0000ff"
       points="171.967,412.951 173.486,414.287 174.531,412.521 172.766,411.477 "
       id="polygon107" /><path
       inkscape:connector-curvature="0"
       style="fill:#0000ff;stroke:#ffffff;stroke-width:0.7087;stroke-linecap:round;stroke-linejoin:round"
       d="m 194.145,400.407 c 0.307,-1.621 1.297,-4.69 -0.452,-6.009 -1.858,-1.403 -4.688,-0.167 -5.724,1.471 -0.161,1.564 -0.891,4.544 0.902,5.652 0.814,0.502 5.014,0.264 5.274,-1.114 z m -4.343,-0.344 c -1.076,-0.665 -0.639,-2.453 -0.542,-3.392 0.621,-0.982 2.32,-1.724 3.435,-0.882 1.05,0.792 0.455,2.633 0.271,3.605 -0.156,0.828 -2.676,0.971 -3.164,0.669 z"
       id="path109" /><path
       inkscape:connector-curvature="0"
       style="fill:#0000ff;stroke:#0000ff;stroke-width:0.7087;stroke-linecap:round;stroke-linejoin:round"
       d="m 193.983,407.767 c 0.146,-1.447 0.786,-4.225 -0.862,-5.233 -1.756,-1.072 -4.167,0.252 -4.955,1.776 -0.022,1.387 -0.438,4.062 1.234,4.881 0.76,0.372 4.459,-0.193 4.583,-1.424 z m -3.871,0.067 c -1.004,-0.491 -0.755,-2.097 -0.74,-2.929 0.473,-0.914 1.92,-1.709 2.973,-1.066 0.99,0.605 0.605,2.271 0.519,3.139 -0.077,0.74 -2.297,1.08 -2.752,0.856 z"
       id="path111" /><polygon
       style="fill:#0000ff"
       points="190.538,401.115 190.248,403.117 192.297,403.03 192.209,400.979 "
       id="polygon113" /><path
       inkscape:connector-curvature="0"
       style="fill:#0000ff;stroke:#ffffff;stroke-width:0.7087;stroke-linecap:round;stroke-linejoin:round"
       d="m 210.704,412.064 c 0.995,-0.867 3.134,-2.309 2.687,-4.003 -0.477,-1.802 -2.868,-2.424 -4.327,-1.904 -0.876,0.904 -2.808,2.419 -2.228,4.001 0.263,0.719 3.023,2.645 3.868,1.906 z m -2.563,-2.362 c -0.347,-0.95 0.812,-1.858 1.336,-2.401 0.876,-0.312 2.312,0.062 2.596,1.143 0.271,1.017 -1.016,1.881 -1.61,2.402 -0.508,0.442 -2.164,-0.713 -2.322,-1.144 z"
       id="path115" /><path
       inkscape:connector-curvature="0"
       style="fill:#0000ff;stroke:#0000ff;stroke-width:0.7087;stroke-linecap:round;stroke-linejoin:round"
       d="m 206.965,416.615 c 0.806,-0.84 2.582,-2.27 2.042,-3.719 -0.574,-1.542 -2.744,-1.9 -3.994,-1.332 -0.7,0.862 -2.283,2.34 -1.636,3.682 0.293,0.609 2.901,2.082 3.588,1.369 z m -2.469,-1.871 c -0.39,-0.807 0.561,-1.692 0.98,-2.21 0.75,-0.341 2.053,-0.126 2.397,0.799 0.322,0.87 -0.742,1.729 -1.227,2.231 -0.41,0.428 -1.974,-0.455 -2.15,-0.82 z"
       id="path117" /><polygon
       style="fill:#0000ff"
       points="208.085,410.728 206.913,411.843 208.245,412.801 209.203,411.469 "
       id="polygon119" /><path
       inkscape:connector-curvature="0"
       style="fill:#0000ff;stroke:#ffffff;stroke-width:0.7087;stroke-linecap:round;stroke-linejoin:round"
       d="m 219.161,434.428 c 1.232,-0.47 3.74,-1.08 3.907,-2.824 0.179,-1.854 -1.85,-3.268 -3.398,-3.285 -1.135,0.545 -3.47,1.295 -3.477,2.979 -0.001,0.765 1.92,3.529 2.968,3.13 z m -1.583,-3.106 c 0.002,-1.013 1.403,-1.462 2.085,-1.788 0.93,0.011 2.146,0.857 2.04,1.972 -0.102,1.047 -1.605,1.412 -2.346,1.694 -0.628,0.239 -1.781,-1.418 -1.779,-1.878 z"
       id="path121" /><path
       inkscape:connector-curvature="0"
       style="fill:#0000ff;stroke:#0000ff;stroke-width:0.7087;stroke-linecap:round;stroke-linejoin:round"
       d="m 214.076,437.397 c 1.048,-0.507 3.208,-1.231 3.206,-2.778 -0.004,-1.646 -1.915,-2.734 -3.285,-2.634 -0.955,0.564 -2.952,1.401 -2.812,2.886 0.065,0.673 2,2.957 2.891,2.526 z m -1.667,-2.61 c -0.084,-0.891 1.113,-1.393 1.687,-1.731 0.822,-0.061 1.97,0.595 1.972,1.579 10e-4,0.93 -1.295,1.365 -1.923,1.668 -0.536,0.26 -1.697,-1.113 -1.736,-1.516 z"
       id="path123" /><polygon
       style="fill:#0000ff"
       points="217.168,432.266 215.682,432.904 216.599,434.266 217.96,433.348 "
       id="polygon125" /><polygon
       style="fill:#0000ff"
       points="192.58,488.432 204.867,481.605 203.161,480.411 192.75,486.725 "
       id="polygon127" /><polyline
       style="fill:#0000ff"
       points="207,478.619 215.363,460.528 213.143,460.971 206.111,477.103 207,478.619 "
       id="polyline129" /><polygon
       style="fill:#0000ff"
       points="164.59,406.769 167.406,408.305 166.51,409.2 163.822,408.176 "
       id="polygon131" /><polygon
       style="fill:#0000ff"
       points="154.862,428.656 157.806,429.168 157.294,430.447 154.478,430.192 "
       id="polygon133" /><polygon
       style="fill:#0000ff;stroke:#0000ff"
       points="156.782,462.447 157.038,464.24 154.35,464.24 154.222,462.832 "
       id="polygon135" /><polygon
       style="fill:#0000ff;stroke:#0000ff"
       points="162.925,484.208 165.358,483.185 166.253,485.104 164.078,485.615 "
       id="polygon137" /></g><g
     transform="translate(575.09897,0.11416636)"
     id="g3330"><path
       inkscape:connector-curvature="0"
       id="path189"
       d="m 268.184,414.115 c 1.594,0.178 3.004,0.762 4.231,1.752 1.227,0.99 2.107,2.107 2.643,3.352 0.673,1.333 1.009,2.762 1.009,4.285 0,0.711 -0.006,1.174 -0.019,1.39 -0.1,1.752 -0.455,3.212 -1.065,4.38 -0.61,1.168 -1.277,2.063 -1.999,2.686 -1.569,1.46 -3.22,2.202 -4.951,2.228 h -5.193 v 7.827 h -5.119 v -27.898 h 10.463 z m -5.268,14.511 h 4.222 c 0.647,-0.076 1.183,-0.241 1.607,-0.495 1.146,-0.698 1.831,-1.91 2.055,-3.637 0.038,-1.563 -0.274,-2.749 -0.934,-3.562 -0.66,-0.813 -1.538,-1.276 -2.634,-1.39 h -4.315 v 9.084 z" /><path
       inkscape:connector-curvature="0"
       id="path191"
       d="m 286.833,414.115 6.875,14.892 v -14.892 h 5.082 l 0.019,27.955 h -4.988 l -8.35,-17.615 -0.019,17.635 h -5.137 v -27.975 h 6.518 z" /><path
       inkscape:connector-curvature="0"
       id="path193"
       d="m 319.773,414.172 v 5.104 h -11.321 v 6.094 h 8.295 v 5.161 h -8.295 v 6.38 h 11.807 v 5.16 h -17.074 l 0.019,-27.898 h 16.569 z" /><path
       inkscape:connector-curvature="0"
       id="path195"
       d="m 329.977,414.191 v 18.891 c 0.236,2.412 1.569,3.758 3.998,4.037 2.391,-0.267 3.736,-1.593 4.035,-3.98 v -18.947 h 5.286 v 20.357 c -0.461,2.488 -1.612,4.424 -3.456,5.808 -1.644,1.181 -3.325,1.803 -5.044,1.866 -0.273,0.025 -0.541,0.038 -0.803,0.038 -2.554,0 -4.664,-0.755 -6.333,-2.267 -1.905,-1.878 -2.914,-3.795 -3.026,-5.75 v -20.053 h 5.343 z" /><path
       inkscape:connector-curvature="0"
       id="path197"
       d="m 347.373,436.377 v -0.039 c 0,-0.139 0.143,-0.234 0.43,-0.285 2.204,-0.724 3.637,-1.244 4.297,-1.562 0.336,0.47 0.777,0.896 1.326,1.276 0.884,0.533 1.831,0.856 2.84,0.971 1.07,0.025 1.737,0 1.998,-0.076 1.233,-0.355 1.993,-0.717 2.279,-1.086 0.286,-0.253 0.535,-0.869 0.747,-1.847 0.05,-0.381 0,-0.806 -0.149,-1.276 -0.187,-0.316 -0.386,-0.583 -0.598,-0.799 l -0.635,-0.496 -0.71,-0.323 c -3.948,-1.257 -6.121,-1.993 -6.52,-2.209 -1.831,-0.749 -3.195,-1.986 -4.092,-3.714 -0.585,-1.154 -0.847,-2.558 -0.784,-4.208 0.236,-2.057 1.064,-3.688 2.484,-4.894 1.594,-1.182 3.257,-1.822 4.988,-1.924 h 0.485 c 1.233,0 2.254,0.096 3.063,0.285 1.645,0.471 2.927,1.124 3.849,1.962 0.922,0.774 1.682,1.828 2.279,3.161 l -0.057,0.209 -3.848,1.886 -0.188,-0.095 c -0.236,-0.774 -0.902,-1.403 -1.998,-1.886 -1.233,-0.47 -2.679,-0.482 -4.335,-0.038 -0.709,0.241 -1.208,0.553 -1.494,0.934 -0.1,0.102 -0.23,0.418 -0.393,0.951 -0.024,0.623 0,0.984 0.075,1.086 0.161,0.432 0.485,0.818 0.972,1.162 l 0.485,0.209 c 3.537,1.066 5.935,1.841 7.192,2.323 1.083,0.508 1.911,1.066 2.484,1.676 l 1.046,1.447 c 0.772,1.308 1.184,2.736 1.233,4.284 0.012,0.103 0.019,0.223 0.019,0.362 0,0.495 -0.075,1.161 -0.225,1.999 -0.311,1.182 -0.685,2.051 -1.12,2.609 -0.747,0.939 -1.289,1.504 -1.626,1.695 -1.83,1.282 -3.717,1.974 -5.66,2.075 h -1.7 c -1.27,-0.127 -2.341,-0.381 -3.213,-0.762 -1.395,-0.66 -2.521,-1.396 -3.381,-2.209 -0.705,-0.657 -1.322,-1.603 -1.845,-2.834 z" /><path
       inkscape:connector-curvature="0"
       id="path199"
       d="m 390.368,414.115 6.874,14.892 v -14.892 h 5.082 l 0.019,27.955 h -4.988 l -8.351,-17.615 -0.019,17.635 h -5.137 v -27.975 h 6.52 z" /><path
       inkscape:connector-curvature="0"
       id="path201"
       d="m 423.308,414.172 v 5.104 h -11.321 v 6.094 h 8.295 v 5.161 h -8.295 v 6.38 h 11.807 v 5.16 H 406.72 l 0.019,-27.898 h 16.569 z" /><path
       inkscape:connector-curvature="0"
       id="path203"
       d="m 433.588,414.153 v 27.917 h -5.193 v -27.917 h 5.193 z" /><path
       inkscape:connector-curvature="0"
       id="path205"
       d="m 449.135,413.772 c 3.574,0.381 6.114,2.8 7.621,7.255 l -4.856,1.295 c -0.872,-1.954 -1.868,-3.129 -2.989,-3.522 -1.457,-0.559 -2.864,0.223 -4.222,2.343 -0.848,1.422 -1.37,3.497 -1.569,6.227 -0.037,3.009 0.427,5.411 1.392,7.208 0.965,1.796 2.102,2.79 3.409,2.979 2.093,-0.101 3.649,-2.005 4.67,-5.713 h -4.427 v -5.084 h 9.751 v 0.229 c 0.013,0.305 0.02,0.616 0.02,0.934 0,4.583 -1.04,8.315 -3.12,11.197 -1.396,1.955 -3.438,3.047 -6.128,3.275 h -0.41 c -5.979,0 -9.354,-4.393 -10.126,-13.178 -0.012,-0.254 -0.019,-0.515 -0.019,-0.781 0,-4.456 0.99,-8.188 2.971,-11.197 1.17,-1.523 2.435,-2.507 3.792,-2.951 1.071,-0.355 2.192,-0.533 3.362,-0.533 0.286,-10e-4 0.578,0.005 0.878,0.017 z" /><path
       inkscape:connector-curvature="0"
       id="path207"
       d="m 478.189,414.172 v 5.104 h -11.321 v 6.094 h 8.295 v 5.161 h -8.295 v 6.38 h 11.807 v 5.16 H 461.6 l 0.019,-27.898 h 16.57 z" /><path
       inkscape:connector-curvature="0"
       id="path213"
       d="m 327.106,464.298 7.062,27.898 h -5.361 l -1.177,-4.742 h -7.565 l -1.196,4.742 h -5.417 l 6.986,-27.898 h 6.668 z m -6.015,17.844 h 5.398 l -2.615,-10.893 -2.783,10.893 z" /><path
       inkscape:connector-curvature="0"
       id="path215"
       d="m 349.173,464.241 c 1.794,0.216 3.316,0.945 4.567,2.189 1.252,1.244 2.158,2.717 2.719,4.418 0.261,0.749 0.454,1.732 0.579,2.951 v 8.57 c -0.188,2.895 -1.081,5.23 -2.681,7.008 -1.601,1.777 -3.547,2.723 -5.838,2.837 h -10.835 l 0.019,-27.974 h 11.47 z m -6.127,22.471 h 4.371 c 0.884,-0.14 1.638,-0.474 2.261,-1 0.622,-0.527 1.151,-1.45 1.588,-2.771 0.236,-0.812 0.305,-3.77 0.205,-8.873 -0.586,-2.641 -1.937,-4.158 -4.054,-4.552 h -4.371 v 17.196 z" /><path
       inkscape:connector-curvature="0"
       id="path217"
       d="m 361.545,464.298 h 7.043 l 5.511,14.797 5.643,-14.797 h 7.023 v 27.955 h -5.212 v -17.652 l -6.818,17.652 h -1.364 l -6.762,-17.5 0.056,17.5 h -5.119 v -27.955 z" /><path
       inkscape:connector-curvature="0"
       id="path219"
       d="m 397.138,464.336 v 27.917 h -5.193 v -27.917 h 5.193 z" /><path
       inkscape:connector-curvature="0"
       id="path221"
       d="m 401.625,486.56 v -0.039 c 0,-0.139 0.143,-0.234 0.43,-0.285 2.204,-0.724 3.637,-1.244 4.297,-1.562 0.336,0.47 0.777,0.896 1.326,1.276 0.884,0.533 1.831,0.856 2.84,0.971 1.07,0.025 1.737,0 1.998,-0.076 1.233,-0.355 1.993,-0.717 2.279,-1.086 0.286,-0.253 0.535,-0.869 0.747,-1.847 0.05,-0.381 0,-0.806 -0.149,-1.276 -0.187,-0.316 -0.386,-0.583 -0.598,-0.799 l -0.635,-0.496 -0.71,-0.323 c -3.948,-1.257 -6.121,-1.993 -6.52,-2.209 -1.831,-0.749 -3.195,-1.986 -4.092,-3.714 -0.585,-1.154 -0.847,-2.558 -0.784,-4.208 0.236,-2.057 1.064,-3.688 2.484,-4.894 1.594,-1.182 3.257,-1.822 4.988,-1.924 h 0.485 c 1.233,0 2.254,0.096 3.063,0.285 1.645,0.471 2.927,1.124 3.849,1.962 0.922,0.774 1.682,1.828 2.279,3.161 l -0.057,0.209 -3.848,1.886 -0.188,-0.095 c -0.236,-0.774 -0.902,-1.403 -1.998,-1.886 -1.233,-0.47 -2.679,-0.482 -4.335,-0.038 -0.709,0.241 -1.208,0.553 -1.494,0.934 -0.1,0.102 -0.23,0.418 -0.393,0.951 -0.024,0.623 0,0.984 0.075,1.086 0.161,0.432 0.485,0.818 0.972,1.162 l 0.485,0.209 c 3.537,1.066 5.935,1.841 7.192,2.323 1.083,0.508 1.911,1.066 2.484,1.676 l 1.046,1.447 c 0.772,1.308 1.184,2.736 1.233,4.284 0.012,0.103 0.019,0.223 0.019,0.362 0,0.495 -0.075,1.161 -0.225,1.999 -0.311,1.182 -0.685,2.051 -1.12,2.609 -0.747,0.939 -1.289,1.504 -1.626,1.695 -1.83,1.282 -3.717,1.974 -5.66,2.075 h -1.7 c -1.27,-0.127 -2.341,-0.381 -3.213,-0.762 -1.395,-0.66 -2.521,-1.396 -3.381,-2.209 -0.705,-0.658 -1.322,-1.603 -1.845,-2.834 z" /></g></g>
</svg>