<?xml version="1.0" encoding="UTF-8" standalone="no"?>
<!-- Generator: Adobe Illustrator 16.0.2, SVG Export Plug-In . SVG Version: 6.00 Build 0)  -->

<svg
   xmlns:dc="http://purl.org/dc/elements/1.1/"
   xmlns:cc="http://creativecommons.org/ns#"
   xmlns:rdf="http://www.w3.org/1999/02/22-rdf-syntax-ns#"
   xmlns:svg="http://www.w3.org/2000/svg"
   xmlns="http://www.w3.org/2000/svg"
   xmlns:sodipodi="http://sodipodi.sourceforge.net/DTD/sodipodi-0.dtd"
   xmlns:inkscape="http://www.inkscape.org/namespaces/inkscape"
   version="1.1"
   id="Ebene_1"
   x="0px"
   y="0px"
   width="576.06085"
   height="744.93408"
   viewBox="0 0 576.06085 744.93408"
   xml:space="preserve"
   inkscape:version="0.48.1 "
   sodipodi:docname="C14_1.svg"
   inkscape:export-filename="C:\Documents and Settings\bertrand.bouteilles\Bureau\Panneaux\A - Route\5_indication\C14_1.png"
   inkscape:export-xdpi="150"
   inkscape:export-ydpi="150"><metadata
   id="metadata101"><rdf:RDF><cc:Work
       rdf:about=""><dc:format>image/svg+xml</dc:format><dc:type
         rdf:resource="http://purl.org/dc/dcmitype/StillImage" /><dc:title></dc:title></cc:Work></rdf:RDF></metadata><defs
   id="defs99">
	
	
	
	
	
	
	
	
	
	
	
	

	
	
	
	
	
	

	
	
	
	
	
	
</defs><sodipodi:namedview
   pagecolor="#ffffff"
   bordercolor="#666666"
   borderopacity="1"
   objecttolerance="10"
   gridtolerance="10"
   guidetolerance="10"
   inkscape:pageopacity="0"
   inkscape:pageshadow="2"
   inkscape:window-width="1920"
   inkscape:window-height="1174"
   id="namedview97"
   showgrid="false"
   fit-margin-top="0"
   fit-margin-left="0"
   fit-margin-right="0"
   fit-margin-bottom="0"
   inkscape:zoom="0.50165203"
   inkscape:cx="-112.69944"
   inkscape:cy="343.9768"
   inkscape:window-x="1276"
   inkscape:window-y="-4"
   inkscape:window-maximized="1"
   inkscape:current-layer="Ebene_1" />









<g
   id="g3284"
   transform="translate(-11.467532,14.443338)"><polygon
     transform="matrix(0.96477097,0,0,0.90294797,11.468592,-14.442346)"
     id="polygon3-1"
     points="575.172,1.385 579.436,2.527 583.437,4.393 587.052,6.924 590.174,10.046 592.704,13.662 594.57,17.662 595.713,21.926 596.098,26.323 596.098,798.685 595.713,803.082 594.57,807.346 592.704,811.347 590.174,814.962 587.052,818.083 583.437,820.615 579.436,822.48 575.172,823.623 570.774,824.008 26.323,824.008 21.926,823.623 17.662,822.48 13.662,820.615 10.045,818.083 6.924,814.962 4.393,811.347 2.527,807.346 1.385,803.082 1,798.685 1,26.323 1.385,21.926 2.527,17.662 4.393,13.662 6.924,10.046 10.045,6.924 13.662,4.393 17.662,2.527 21.926,1.385 26.323,1 570.774,1 "
     style="fill:#ffffff;stroke:#000000;stroke-width:2;stroke-linecap:round;stroke-linejoin:round" /><polyline
     transform="matrix(0.96477097,0,0,0.90294797,11.468109,-14.441895)"
     id="polyline5-7"
     points="  26.007,20.309 26.007,804.698 571.092,804.698 571.092,20.309 26.007,20.309 "
     style="fill:#0000ff;stroke:#0000ff;stroke-width:0.7087;stroke-linecap:round;stroke-linejoin:round" /><g
     transform="translate(618.0952,28)"
     id="g3269"><path
       id="path17-9"
       d="m -502.9682,16.639638 c 6.474,1.031 10.445,4.963 11.914,11.795 l 0.3,2.481 -8.576,0.645 c -0.29,-3.395 -1.502,-5.554 -3.638,-6.478 -2.136,-0.923 -4.45,-0.698 -6.941,0.677 -1.668,1.01 -2.993,2.165 -3.971,3.464 -0.979,1.3 -2.024,3.84 -3.137,7.622 -1.38,5.329 -1.413,10.055 -0.1,14.18 0.979,3.008 3.326,4.233 7.041,3.674 4.004,-0.988 6.529,-3.244 7.575,-6.768 h 8.843 c -0.823,4.533 -3.226,8.293 -7.208,11.279 -2.025,1.913 -5.062,3.19 -9.11,3.835 -0.534,0.021 -1.057,0.032 -1.568,0.032 -5.005,0 -8.888,-1.901 -11.646,-5.704 -2.247,-3.523 -3.37,-7.659 -3.37,-12.407 0,-2.083 0.222,-4.297 0.667,-6.639 1.246,-6.982 3.704,-12.396 7.375,-16.242 1.891,-2.083 4.126,-3.598 6.708,-4.544 2.024,-0.688 4.093,-1.031 6.207,-1.031 h 0.367 c 0.732,0 1.489,0.044 2.268,0.129 z"
       style="fill:#ffffff"
       inkscape:connector-curvature="0" /><path
       id="path19-4"
       d="m -462.8572,36.297638 c 0.823,1.826 1.235,4.018 1.235,6.574 0,1.182 -0.089,2.438 -0.267,3.771 -0.734,4.92 -2.314,8.701 -4.739,11.344 -2.736,3.008 -5.773,4.673 -9.11,4.995 -0.689,0.043 -1.257,0.064 -1.702,0.064 -0.601,0 -1.235,-0.032 -1.902,-0.097 -2.759,-0.193 -5.217,-1.848 -7.375,-4.963 -1.18,-1.89 -1.769,-4.383 -1.769,-7.477 0,-0.902 0.056,-1.858 0.167,-2.868 0.534,-5.586 2.503,-10.001 5.907,-13.245 2.336,-2.17 4.572,-3.373 6.708,-3.609 0.934,-0.15 1.846,-0.226 2.736,-0.226 h 0.3 c 4.316,10e-4 7.586,1.914 9.811,5.737 z m -13.849,21.173 c 1.78,0.064 3.248,-0.73 4.405,-2.385 1.09,-1.654 1.979,-4.039 2.669,-7.154 0.712,-3.545 0.656,-6.563 -0.167,-9.056 -0.712,-1.998 -1.847,-2.868 -3.404,-2.61 -1.935,-0.258 -3.648,0.838 -5.139,3.287 -1.113,2.042 -1.88,4.362 -2.303,6.961 -0.378,3.115 -0.4,5.5 -0.067,7.154 0.581,2.944 1.915,4.211 4.006,3.803 z"
       style="fill:#ffffff"
       inkscape:connector-curvature="0" /><path
       id="path21-8"
       d="m -443.0352,17.767638 -8.81,44.795 h -7.875 l 8.91,-44.795 h 7.775 z"
       style="fill:#ffffff"
       inkscape:connector-curvature="0" /><path
       id="path23-8"
       d="m -399.1522,62.949638 h -7.575 l 0.701,-4.157 c -1.224,2.32 -2.781,3.771 -4.672,4.351 -0.979,0.258 -2.181,0.43 -3.604,0.516 -2.136,-0.279 -3.571,-0.967 -4.305,-2.063 -2.025,-1.955 -3.204,-4.791 -3.538,-8.508 -0.066,-0.859 -0.1,-1.708 -0.1,-2.546 0,-2.664 0.467,-5.414 1.402,-8.25 1.112,-3.094 2.524,-5.5 4.238,-7.219 2.514,-2.792 4.872,-4.21 7.075,-4.254 4.026,-0.365 6.641,1.246 7.842,4.834 l 3.137,-16.758 h 7.909 l -8.51,44.054 z m -7.709,-26.426 c -2.692,0.15 -5.25,3.996 -7.675,11.537 -0.134,6.08 1.034,9.26 3.504,9.539 4.205,-0.645 6.641,-4.329 7.308,-11.054 1.09,-6.423 0.044,-9.764 -3.137,-10.022 z"
       style="fill:#ffffff"
       inkscape:connector-curvature="0" /><path
       id="path25-2"
       d="m -374.9582,30.271638 c 3.692,0 6.329,0.87 7.909,2.61 1.69,1.547 2.603,3.996 2.736,7.348 0.022,0.451 0.033,0.892 0.033,1.321 -0.044,2.557 -0.345,4.984 -0.901,7.283 h -17.386 c -0.846,3.953 -0.378,6.574 1.402,7.863 1.179,0.73 2.447,0.688 3.804,-0.129 1.513,-1.117 2.547,-2.771 3.104,-4.963 h 8.509 c -1.001,3.953 -3.148,7.058 -6.44,9.313 -2.136,1.225 -4.394,1.837 -6.774,1.837 -2.002,0 -4.105,-0.43 -6.307,-1.289 -3.716,-2.191 -5.573,-5.725 -5.573,-10.603 0,-0.43 0.011,-0.87 0.034,-1.321 0.689,-6.553 2.447,-11.461 5.272,-14.728 2.468,-2.855 5.994,-4.37 10.578,-4.542 z m -6.474,12.472 h 9.478 c 0.311,-2.879 0.111,-4.866 -0.601,-5.962 -1.802,-1.912 -3.993,-1.783 -6.574,0.387 -1.269,1.417 -2.036,3.276 -2.303,5.575 z"
       style="fill:#ffffff"
       inkscape:connector-curvature="0" /><path
       id="path27-4"
       d="m -309.7532,16.736638 -1.301,7.348 -15.618,0.032 -1.936,10.667 h 14.817 l -1.234,7.283 -15.084,0.032 -4.171,20.561 h -8.61 l 9.043,-45.923 h 24.094 z"
       style="fill:#ffffff"
       inkscape:connector-curvature="0" /><path
       id="path29-5"
       d="m -283.9912,36.297638 c 0.823,1.826 1.235,4.018 1.235,6.574 0,1.182 -0.09,2.438 -0.268,3.771 -0.733,4.92 -2.313,8.701 -4.738,11.344 -2.736,3.008 -5.773,4.673 -9.11,4.995 -0.689,0.043 -1.257,0.064 -1.702,0.064 -0.601,0 -1.234,-0.032 -1.901,-0.097 -2.759,-0.193 -5.218,-1.848 -7.375,-4.963 -1.18,-1.89 -1.77,-4.383 -1.77,-7.477 0,-0.902 0.057,-1.858 0.168,-2.868 0.533,-5.586 2.502,-10.001 5.906,-13.245 2.336,-2.17 4.571,-3.373 6.707,-3.609 0.935,-0.15 1.847,-0.226 2.736,-0.226 h 0.301 c 4.316,10e-4 7.587,1.914 9.811,5.737 z m -13.848,21.173 c 1.78,0.064 3.248,-0.73 4.405,-2.385 1.09,-1.654 1.979,-4.039 2.67,-7.154 0.711,-3.545 0.655,-6.563 -0.167,-9.056 -0.713,-1.998 -1.847,-2.868 -3.404,-2.61 -1.936,-0.258 -3.648,0.838 -5.139,3.287 -1.113,2.042 -1.881,4.362 -2.303,6.961 -0.379,3.115 -0.4,5.5 -0.066,7.154 0.578,2.944 1.913,4.211 4.004,3.803 z"
       style="fill:#ffffff"
       inkscape:connector-curvature="0" /><path
       id="path31-5"
       d="m -257.4612,62.691638 h -7.676 l 0.634,-5.382 c -2.425,3.202 -4.86,5.039 -7.308,5.511 -0.623,0.064 -1.201,0.097 -1.735,0.097 -1.558,0 -2.715,-0.258 -3.471,-0.773 -1.535,-0.881 -2.514,-2.18 -2.937,-3.899 -0.334,-1.246 -0.5,-2.61 -0.5,-4.093 0,-1.096 0.1,-2.256 0.3,-3.48 l 3.671,-19.884 h 8.209 l -3.838,19.529 c -0.423,2.191 -0.155,3.814 0.802,4.866 1.646,1.246 3.414,1.053 5.306,-0.58 1.445,-1.332 2.58,-3.685 3.403,-7.058 l 3.204,-16.758 h 7.742 l -5.34,28.037 -0.466,3.867 z"
       style="fill:#ffffff"
       inkscape:connector-curvature="0" /><path
       id="path33-1"
       d="m -244.0132,30.690638 h 7.676 l -0.634,4.479 c 1.646,-2.406 3.281,-3.888 4.905,-4.447 0.734,-0.193 1.423,-0.29 2.069,-0.29 0.533,0 1.223,0.086 2.068,0.258 l -2.002,8.347 c -1.802,-0.601 -3.37,-0.419 -4.705,0.548 -1.691,0.946 -3.159,3.276 -4.405,6.993 l -3.037,16.017 h -7.741 l 5.806,-31.905 z"
       style="fill:#ffffff"
       inkscape:connector-curvature="0" /><path
       id="path35-7"
       d="m -211.1092,30.690638 c 3.471,0.129 6.084,1.063 7.842,2.804 2.425,2.127 3.638,5.027 3.638,8.701 0,0.495 -0.022,1.01 -0.066,1.547 h -7.542 c 0.4,-5.156 -0.746,-7.552 -3.438,-7.187 -3.648,-0.236 -6.14,2.986 -7.475,9.668 -0.935,7.734 0.233,11.419 3.504,11.054 2.848,-0.129 4.816,-1.848 5.906,-5.156 h 7.809 c -1.49,4.834 -4.816,8.314 -9.978,10.441 -1.713,0.279 -3.215,0.419 -4.505,0.419 -1.514,0 -2.715,-0.193 -3.604,-0.58 -4.649,-1.354 -7.097,-5.36 -7.341,-12.021 0.2,-6.445 1.924,-11.365 5.172,-14.76 3.07,-3.05 6.43,-4.693 10.078,-4.93 z"
       style="fill:#ffffff"
       inkscape:connector-curvature="0" /><path
       id="path37-1"
       d="m -188.7512,17.703638 h 7.876 l -3.371,17.982 c 2.447,-3.266 4.917,-5.135 7.408,-5.607 2.491,-0.236 4.249,-0.011 5.272,0.677 1.558,0.902 2.559,2.224 3.004,3.964 0.334,1.268 0.5,2.654 0.5,4.157 0,1.117 -0.1,2.299 -0.3,3.545 l -3.737,20.174 h -8.343 l 3.904,-19.819 c 0.444,-2.234 0.178,-3.878 -0.801,-4.931 -1.669,-1.268 -3.471,-1.074 -5.406,0.58 -1.446,1.354 -2.592,3.738 -3.438,7.154 l -3.236,17.016 h -7.876 l 8.544,-44.892 z"
       style="fill:#ffffff"
       inkscape:connector-curvature="0" /><path
       id="path39-1"
       d="m -148.7732,30.271638 c 3.693,0 6.329,0.87 7.909,2.61 1.69,1.547 2.603,3.996 2.736,7.348 0.021,0.451 0.033,0.892 0.033,1.321 -0.045,2.557 -0.345,4.984 -0.9,7.283 h -17.387 c -0.846,3.953 -0.378,6.574 1.401,7.863 1.18,0.73 2.447,0.688 3.805,-0.129 1.513,-1.117 2.547,-2.771 3.104,-4.963 h 8.51 c -1.001,3.953 -3.148,7.058 -6.44,9.313 -2.136,1.225 -4.395,1.837 -6.774,1.837 -2.003,0 -4.104,-0.43 -6.308,-1.289 -3.715,-2.191 -5.572,-5.725 -5.572,-10.603 0,-0.43 0.011,-0.87 0.033,-1.321 0.689,-6.553 2.447,-11.461 5.272,-14.728 2.47,-2.855 5.995,-4.37 10.578,-4.542 z m -6.474,12.472 h 9.478 c 0.312,-2.879 0.111,-4.866 -0.601,-5.962 -1.803,-1.912 -3.994,-1.783 -6.574,0.387 -1.269,1.417 -2.036,3.276 -2.303,5.575 z"
       style="fill:#ffffff"
       inkscape:connector-curvature="0" /><path
       id="path41-5"
       d="m -135.8582,52.411638 h 7.308 c -0.467,1.826 -0.189,3.234 0.834,4.222 1.202,0.859 2.781,1.01 4.739,0.451 1.957,-0.559 2.858,-1.793 2.703,-3.706 0.021,-1.246 -0.891,-2.363 -2.736,-3.352 -2.381,-1.01 -4.572,-2.341 -6.574,-3.996 -2.069,-1.611 -2.814,-4.157 -2.236,-7.638 0.423,-2.191 1.603,-4.049 3.538,-5.575 1.423,-1.16 3.214,-1.869 5.372,-2.127 1.046,-0.064 1.98,-0.097 2.804,-0.097 1.379,0 2.424,0.097 3.137,0.29 1.802,0.366 3.281,1.149 4.438,2.353 1.268,1.418 1.901,3.298 1.901,5.64 0,0.495 -0.033,1.021 -0.1,1.579 h -7.742 c 0.622,-2.105 0.301,-3.523 -0.968,-4.254 -2.314,-0.601 -3.949,-0.269 -4.905,0.999 -1.313,1.826 -1.102,3.276 0.634,4.351 5.139,2.535 8.164,4.426 9.077,5.672 1.112,1.268 1.657,2.944 1.635,5.027 -0.089,1.676 -0.423,3.137 -1.001,4.383 -0.823,1.439 -1.914,2.75 -3.271,3.932 -1.69,1.289 -3.415,2.063 -5.172,2.32 -0.913,0.107 -1.78,0.161 -2.604,0.161 -1.49,0 -2.903,-0.108 -4.238,-0.322 -1.757,-0.559 -3.326,-1.568 -4.705,-3.029 -1.224,-1.225 -1.868,-3.062 -1.936,-5.511 l 0.068,-1.773 z"
       style="fill:#ffffff"
       inkscape:connector-curvature="0" /></g><g
     transform="translate(4.4255,-75.749719)"
     id="g3165"><polyline
       style="fill:#ffffff;stroke:#0000ff;stroke-width:0.7087;stroke-linecap:round;stroke-linejoin:round"
       points="  97.468,576.235 493.284,576.235 493.284,748.193 97.468,748.193 97.468,576.235 "
       id="polyline9" /><g
       id="g3156"><polyline
         id="polyline7"
         points="  97.468,200.223 97.468,325.701 494.181,325.701 494.181,200.223 97.468,200.223 "
         style="fill:#ff0000;stroke:#000000;stroke-width:0.7087;stroke-linecap:round;stroke-linejoin:round" /><g
         id="g3111"><path
           inkscape:connector-curvature="0"
           id="path47"
           d="m 208.119,238.61 v 9.814 H 183.93 v 11.719 h 17.723 v 9.961 H 183.93 l -0.04,22.192 h -11.256 l 0.04,-53.687 h 35.445 z"
           style="fill:#ffffff" /><path
           inkscape:connector-curvature="0"
           id="path49"
           d="m 254.137,238.72 v 9.814 h -24.19 v 11.719 h 17.723 v 9.924 h -17.723 v 12.268 h 25.228 v 9.924 h -36.484 l 0.04,-53.65 h 35.406 z"
           style="fill:#ffffff" /><path
           inkscape:connector-curvature="0"
           id="path51"
           d="m 285.865,238.5 c 6.147,0 10.95,2.027 14.411,6.079 3.033,3.565 4.551,7.581 4.551,12.048 0,0.806 -0.054,1.758 -0.16,2.856 -0.639,5.444 -3.606,9.949 -8.902,13.513 l 9.741,19.336 H 292.89 l -8.343,-16.003 h -7.225 v 16.113 h -11.057 l 0.04,-53.943 h 19.56 z m -1.597,27.502 3.273,-0.366 c 1.862,-0.463 3.419,-1.428 4.67,-2.893 1.064,-1.44 1.703,-3.162 1.916,-5.164 0.106,-2.49 -0.692,-4.663 -2.395,-6.519 -1.438,-1.514 -3.527,-2.368 -6.268,-2.563 h -8.023 v 17.505 h 6.827 z"
           style="fill:#ffffff" /><path
           inkscape:connector-curvature="0"
           id="path53"
           d="m 316.994,238.61 h 15.049 l 11.775,28.455 12.055,-28.455 h 15.009 v 53.76 h -11.137 v -33.948 l -14.569,33.948 h -2.914 l -14.45,-33.655 0.12,33.655 h -10.938 v -53.76 z"
           style="fill:#ffffff" /><path
           inkscape:connector-curvature="0"
           id="path55"
           d="m 418.656,238.72 v 9.814 h -24.189 v 11.719 h 17.724 v 9.924 h -17.724 v 12.268 h 25.228 v 9.924 H 383.21 v -53.65 h 35.446 z m -8.421,-13.44 -6.188,11.133 h -12.334 l 5.069,-11.133 h 13.453 z"
           style="fill:#ffffff" /></g></g><g
       id="g3136"><polyline
         id="polyline11"
         points="  95.968,349.337 491.294,349.337 491.294,551.373 95.968,551.373 95.968,349.337 "
         style="fill:#ffffff;stroke:#0000ff;stroke-width:0.7087;stroke-linecap:round;stroke-linejoin:round" /><g
         id="g3118"><path
           inkscape:connector-curvature="0"
           id="path61"
           d="m 226.211,393.956 11.065,39.343 h -8.401 l -1.844,-6.687 h -11.855 l -1.874,6.687 h -8.489 l 10.948,-39.343 h 10.45 z m -9.426,25.163 h 8.459 l -4.098,-15.361 -4.361,15.361 z" /><path
           inkscape:connector-curvature="0"
           id="path63"
           d="m 261.596,393.956 c 2.498,0.251 4.708,1.074 6.63,2.471 1.922,1.396 3.303,2.972 4.142,4.727 1.054,1.88 1.581,3.894 1.581,6.042 0,1.003 -0.01,1.656 -0.029,1.96 -0.156,2.471 -0.712,4.529 -1.668,6.177 -0.957,1.647 -2,2.909 -3.132,3.786 -2.459,2.06 -5.045,3.107 -7.757,3.143 h -8.138 v 11.037 h -8.021 v -39.343 h 16.392 z m -8.254,20.464 h 6.616 c 1.015,-0.107 1.854,-0.34 2.518,-0.698 1.795,-0.984 2.869,-2.694 3.22,-5.129 0.059,-2.202 -0.429,-3.876 -1.463,-5.022 -1.035,-1.146 -2.411,-1.799 -4.127,-1.96 h -6.762 v 12.809 z" /><path
           inkscape:connector-curvature="0"
           id="path65"
           d="m 296.339,393.875 c 4.508,0 8.031,1.486 10.568,4.458 2.225,2.614 3.337,5.559 3.337,8.835 0,0.591 -0.039,1.289 -0.117,2.095 -0.469,3.993 -2.645,7.296 -6.527,9.91 l 7.142,14.18 h -9.25 l -6.118,-11.736 h -5.299 v 11.816 h -8.108 l 0.029,-39.558 h 14.343 z m -1.171,20.169 2.4,-0.269 c 1.365,-0.34 2.507,-1.047 3.425,-2.122 0.78,-1.056 1.248,-2.318 1.405,-3.787 0.077,-1.826 -0.508,-3.419 -1.757,-4.78 -1.054,-1.11 -2.586,-1.736 -4.596,-1.88 h -5.884 v 12.837 h 5.007 z" /><path
           inkscape:connector-curvature="0"
           id="path67"
           d="m 344.136,394.037 v 7.197 h -17.739 v 8.594 h 12.997 v 7.278 h -12.997 v 8.996 h 18.501 v 7.278 h -26.756 v -39.343 h 25.994 z m -8.869,-9.856 3.864,8.164 h -9.426 l -4.742,-8.164 h 10.304 z" /><path
           inkscape:connector-curvature="0"
           id="path69"
           d="m 352.796,425.35 v -0.053 c 0,-0.197 0.224,-0.332 0.673,-0.403 3.454,-1.021 5.698,-1.755 6.732,-2.202 0.527,0.662 1.22,1.262 2.079,1.799 1.385,0.752 2.868,1.209 4.449,1.37 1.678,0.036 2.722,0 3.132,-0.107 1.932,-0.501 3.122,-1.011 3.571,-1.53 0.449,-0.358 0.839,-1.227 1.171,-2.605 0.078,-0.537 0,-1.137 -0.234,-1.799 -0.292,-0.447 -0.604,-0.824 -0.937,-1.129 l -0.995,-0.697 -1.112,-0.457 c -6.187,-1.772 -9.592,-2.811 -10.216,-3.115 -2.869,-1.056 -5.006,-2.802 -6.411,-5.237 -0.917,-1.629 -1.327,-3.607 -1.229,-5.935 0.37,-2.9 1.669,-5.201 3.894,-6.902 2.497,-1.665 5.103,-2.569 7.815,-2.712 h 0.761 c 1.933,0 3.532,0.134 4.801,0.403 2.576,0.663 4.586,1.584 6.03,2.766 1.444,1.092 2.635,2.578 3.571,4.458 l -0.088,0.295 -6.03,2.659 -0.292,-0.134 c -0.371,-1.092 -1.415,-1.978 -3.133,-2.659 -1.932,-0.662 -4.195,-0.68 -6.791,-0.054 -1.112,0.34 -1.893,0.779 -2.342,1.316 -0.156,0.144 -0.361,0.591 -0.614,1.343 -0.04,0.877 0,1.388 0.117,1.531 0.253,0.609 0.761,1.155 1.521,1.638 l 0.762,0.295 c 5.542,1.504 9.298,2.596 11.27,3.276 1.698,0.716 2.995,1.504 3.894,2.363 l 1.639,2.041 c 1.21,1.844 1.854,3.858 1.933,6.043 0.019,0.143 0.029,0.313 0.029,0.51 0,0.698 -0.117,1.639 -0.352,2.82 -0.488,1.664 -1.073,2.891 -1.757,3.679 -1.171,1.325 -2.02,2.122 -2.546,2.39 -2.869,1.809 -5.825,2.784 -8.87,2.928 h -2.664 c -1.99,-0.179 -3.669,-0.537 -5.034,-1.074 -2.187,-0.931 -3.952,-1.969 -5.299,-3.115 -1.113,-0.933 -2.079,-2.267 -2.898,-4.004 z" /><path
           inkscape:connector-curvature="0"
           id="path75"
           d="m 116.942,475.079 0.027,29.443 h 15.088 l -0.026,6.396 h -22.46 v -35.84 h 7.371 z" /><path
           inkscape:connector-curvature="0"
           id="path77"
           d="m 162.923,475.152 v 6.543 h -16.127 v 7.813 h 11.815 v 6.616 h -11.815 v 8.179 h 16.818 v 6.616 h -24.322 l 0.026,-35.767 h 23.605 z" /><path
           inkscape:connector-curvature="0"
           id="path79"
           d="m 193.038,475.079 h 10.032 l 7.851,18.97 8.037,-18.97 h 10.006 v 35.84 h -7.424 v -22.632 l -9.713,22.632 h -1.943 l -9.633,-22.437 0.08,22.437 h -7.292 v -35.84 z" /><path
           inkscape:connector-curvature="0"
           id="path81"
           d="m 253.308,474.688 c 4.293,0.603 7.468,2.93 9.526,6.982 1.757,2.995 2.635,6.673 2.635,11.035 v 0.439 c 0,5.452 -1.446,10.091 -4.338,13.916 -2.058,2.571 -4.967,4.012 -8.729,4.321 -0.39,0.032 -0.771,0.049 -1.144,0.049 -3.903,0 -7.176,-1.514 -9.82,-4.541 -2.732,-4.036 -4.116,-8.179 -4.151,-12.427 -0.018,-0.358 -0.026,-0.716 -0.026,-1.074 0,-5.745 1.393,-10.498 4.178,-14.258 1.863,-2.051 3.806,-3.36 5.828,-3.931 1.401,-0.406 2.803,-0.61 4.205,-0.61 0.621,0.002 1.233,0.034 1.836,0.099 z m -2.049,30.494 c 2.058,-0.098 3.796,-1.392 5.216,-3.882 1.029,-1.66 1.676,-4.102 1.943,-7.324 0.053,-4.102 -0.737,-7.462 -2.369,-10.083 -1.331,-1.822 -2.803,-2.84 -4.417,-3.052 -2.129,0.098 -3.903,1.376 -5.322,3.833 -1.011,1.726 -1.668,4.199 -1.969,7.422 -0.036,4.102 0.772,7.455 2.421,10.059 1.312,1.823 2.811,2.831 4.497,3.027 z" /><path
           inkscape:connector-curvature="0"
           id="path83"
           d="m 282.923,475.079 9.793,19.092 v -19.092 h 7.238 l 0.026,35.84 h -7.105 l -11.896,-22.583 -0.026,22.607 h -7.318 v -35.864 h 9.288 z" /><path
           inkscape:connector-curvature="0"
           id="path85"
           d="m 331.644,475.152 v 6.543 h -16.126 v 7.813 h 11.815 v 6.616 h -11.815 v 8.179 h 16.818 v 6.616 h -24.323 l 0.027,-35.767 h 23.604 z" /><path
           inkscape:connector-curvature="0"
           id="path87"
           d="m 339.516,503.619 v -0.049 c 0,-0.179 0.204,-0.301 0.612,-0.366 3.141,-0.928 5.18,-1.595 6.121,-2.002 0.479,0.603 1.108,1.147 1.889,1.636 1.26,0.684 2.608,1.099 4.045,1.245 1.525,0.032 2.475,0 2.848,-0.098 1.756,-0.456 2.838,-0.919 3.246,-1.392 0.408,-0.325 0.763,-1.115 1.064,-2.368 0.071,-0.488 0,-1.033 -0.213,-1.636 -0.266,-0.406 -0.55,-0.748 -0.852,-1.025 l -0.904,-0.635 -1.012,-0.415 c -5.624,-1.611 -8.72,-2.556 -9.287,-2.832 -2.607,-0.96 -4.551,-2.547 -5.828,-4.761 -0.834,-1.48 -1.206,-3.279 -1.117,-5.396 0.337,-2.637 1.517,-4.728 3.539,-6.274 2.271,-1.514 4.64,-2.336 7.105,-2.466 h 0.691 c 1.757,0 3.211,0.122 4.365,0.366 2.342,0.603 4.168,1.44 5.481,2.515 1.313,0.993 2.396,2.344 3.247,4.053 l -0.08,0.269 -5.482,2.417 -0.266,-0.122 c -0.338,-0.992 -1.287,-1.799 -2.848,-2.417 -1.756,-0.603 -3.814,-0.618 -6.174,-0.049 -1.012,0.31 -1.721,0.708 -2.129,1.196 -0.143,0.131 -0.328,0.537 -0.559,1.221 -0.036,0.798 0,1.262 0.106,1.392 0.23,0.554 0.691,1.05 1.384,1.489 l 0.691,0.269 c 5.038,1.367 8.453,2.36 10.246,2.979 1.543,0.651 2.723,1.367 3.539,2.148 l 1.49,1.855 c 1.1,1.677 1.685,3.508 1.756,5.493 0.018,0.131 0.027,0.285 0.027,0.464 0,0.635 -0.107,1.489 -0.32,2.563 -0.443,1.514 -0.976,2.629 -1.596,3.345 -1.064,1.204 -1.837,1.929 -2.315,2.173 -2.608,1.645 -5.296,2.531 -8.063,2.661 h -2.422 c -1.81,-0.163 -3.335,-0.488 -4.577,-0.977 -1.987,-0.847 -3.593,-1.79 -4.816,-2.832 -1.008,-0.846 -1.887,-2.058 -2.632,-3.637 z" /><path
           inkscape:connector-curvature="0"
           id="path89"
           d="m 397.019,475.104 v 6.885 h -7.797 v 28.931 h -7.238 v -29.004 h -8.33 v -6.812 h 23.365 z" /><path
           inkscape:connector-curvature="0"
           id="path91"
           d="m 412.69,475.128 v 35.791 h -7.398 v -35.791 h 7.398 z" /><path
           inkscape:connector-curvature="0"
           id="path93"
           d="m 444.724,475.152 v 6.543 h -16.126 v 7.813 h 11.815 v 6.616 h -11.815 v 8.179 h 16.818 v 6.616 h -24.323 l 0.027,-35.767 h 23.604 z" /><path
           inkscape:connector-curvature="0"
           id="path95"
           d="m 465.876,475.006 c 4.098,0 7.3,1.352 9.606,4.053 2.022,2.377 3.034,5.054 3.034,8.032 0,0.537 -0.036,1.172 -0.106,1.904 -0.426,3.63 -2.404,6.633 -5.935,9.009 l 6.493,12.891 h -8.409 l -5.562,-10.669 h -4.817 v 10.742 h -7.371 l 0.027,-35.962 h 13.04 z m -1.064,18.335 2.182,-0.244 c 1.242,-0.31 2.28,-0.952 3.114,-1.929 0.709,-0.96 1.135,-2.107 1.277,-3.442 0.07,-1.66 -0.462,-3.108 -1.597,-4.346 -0.958,-1.009 -2.352,-1.579 -4.178,-1.709 h -5.35 v 11.67 h 4.552 z" /></g></g></g></g></svg>