<?xml version="1.0" encoding="UTF-8" standalone="no"?>
<!-- Created with Inkscape (http://www.inkscape.org/) -->

<svg
   xmlns:dc="http://purl.org/dc/elements/1.1/"
   xmlns:cc="http://creativecommons.org/ns#"
   xmlns:rdf="http://www.w3.org/1999/02/22-rdf-syntax-ns#"
   xmlns:svg="http://www.w3.org/2000/svg"
   xmlns="http://www.w3.org/2000/svg"
   xmlns:sodipodi="http://sodipodi.sourceforge.net/DTD/sodipodi-0.dtd"
   xmlns:inkscape="http://www.inkscape.org/namespaces/inkscape"
   version="1.1"
   width="576"
   height="576.00006"
   id="svg2816"
   inkscape:version="0.48.1 "
   sodipodi:docname="C18.svg"
   inkscape:export-filename="C:\Documents and Settings\bertrand.bouteilles\Bureau\Panneaux\A - Route\5_indication\C18.png"
   inkscape:export-xdpi="150"
   inkscape:export-ydpi="150">
  <metadata
     id="metadata12">
    <rdf:RDF>
      <cc:Work
         rdf:about="">
        <dc:format>image/svg+xml</dc:format>
        <dc:type
           rdf:resource="http://purl.org/dc/dcmitype/StillImage" />
        <dc:title></dc:title>
      </cc:Work>
    </rdf:RDF>
  </metadata>
  <sodipodi:namedview
     pagecolor="#ffffff"
     bordercolor="#666666"
     borderopacity="1"
     objecttolerance="10"
     gridtolerance="10"
     guidetolerance="10"
     inkscape:pageopacity="0"
     inkscape:pageshadow="2"
     inkscape:window-width="1920"
     inkscape:window-height="1174"
     id="namedview10"
     showgrid="false"
     fit-margin-top="0"
     fit-margin-left="0"
     fit-margin-right="0"
     fit-margin-bottom="0"
     inkscape:zoom="0.72071177"
     inkscape:cx="125.59014"
     inkscape:cy="292.88521"
     inkscape:window-x="1276"
     inkscape:window-y="-4"
     inkscape:window-maximized="1"
     inkscape:current-layer="svg2816" />
  <defs
     id="defs2820" />
  <path
     d="M 42.000367,575.00005 H 534.00053 c 10.87314,0 21.30224,-4.31848 28.99114,-12.0083 7.6888,-7.68884 12.00832,-18.11698 12.00832,-28.99115 V 42.000447 c 0,-10.87417 -4.31942,-21.3023 -12.00832,-28.99114 -7.6899,-7.6898195 -18.119,-12.0092995 -28.99214,-12.0092995 H 42.000367 c -10.87413,0 -21.30227,4.31948 -28.99113,12.0082995 -7.68985,7.68884 -12.00923,18.11797 -12.00923,28.99214 V 534.0006 c 0,10.87417 4.31938,21.30231 12.00823,28.99115 7.68886,7.68883 18.118,12.0083 28.99213,12.0083 z"
     id="path6-1-1-1-1"
     inkscape:connector-curvature="0"
     style="fill:#ffffff;stroke:#000000;stroke-width:1.99998808;stroke-linecap:round;stroke-linejoin:round;stroke-miterlimit:4;stroke-dasharray:none" />
  <polygon
     points="538.362,36.576 538.362,36.576 36.576,36.576 36.576,36.576 36.576,538.362 538.362,538.362 538.362,538.362 "
     id="polygon8-7-7-7-7"
     transform="matrix(1.0000749,0,0,1.0000749,0.50946857,0.50949909)"
     style="fill:#0000ff;stroke:#0000ff;stroke-width:0.17640001;stroke-linecap:round;stroke-linejoin:round" />
  <g
     id="g3002"
     transform="translate(-2.2453523,-4.4675346)">
    <polygon
       style="fill:#ff0000;stroke:#ff0000;stroke-width:8.14613438;stroke-linecap:round;stroke-linejoin:round;stroke-miterlimit:4;stroke-opacity:1;stroke-dasharray:none"
       id="polygon12"
       transform="matrix(-1.5021289,5.482685e-4,-4.9603382e-4,-1.6603101,687.83813,782.98004)"
       points="371.803,414.236 371.803,252.183 394.307,252.183 353.8,171.156 314.792,252.183 338.797,252.183 338.797,414.236 " />
    <polygon
       style="fill:#ffffff;fill-opacity:1;stroke:#ffffff;stroke-width:14.26292038;stroke-linecap:round;stroke-linejoin:round;stroke-miterlimit:4;stroke-opacity:1;stroke-dasharray:none"
       transform="matrix(-1.6297137,-0.00815806,0.00797834,-1.6664222,728.78303,779.67015)"
       points="239.779,295.981 272.785,295.981 217.275,412.047 154.263,298.171 190.27,298.171 188.77,173.346 239.779,173.346 "
       id="polygon3005" />
  </g>
</svg>
