<?xml version="1.0" encoding="UTF-8" standalone="no"?>
<!-- Generator: Adobe Illustrator 13.0.0, SVG Export Plug-In  -->

<svg
   xmlns:dc="http://purl.org/dc/elements/1.1/"
   xmlns:cc="http://creativecommons.org/ns#"
   xmlns:rdf="http://www.w3.org/1999/02/22-rdf-syntax-ns#"
   xmlns:svg="http://www.w3.org/2000/svg"
   xmlns="http://www.w3.org/2000/svg"
   xmlns:sodipodi="http://sodipodi.sourceforge.net/DTD/sodipodi-0.dtd"
   xmlns:inkscape="http://www.inkscape.org/namespaces/inkscape"
   version="1.1"
   x="0px"
   y="0px"
   width="576"
   height="576"
   viewBox="-0.531 -0.531 576.00001 576"
   enable-background="new -0.531 -0.531 576 576"
   xml:space="preserve"
   id="svg2"
   inkscape:version="0.48.1 "
   sodipodi:docname="C1a.svg"
   inkscape:export-filename="C:\Documents and Settings\bertrand.bouteilles\Bureau\Panneaux\A - Route\5_indication\C1a.png"
   inkscape:export-xdpi="150"
   inkscape:export-ydpi="150"><metadata
   id="metadata18"><rdf:RDF><cc:Work
       rdf:about=""><dc:format>image/svg+xml</dc:format><dc:type
         rdf:resource="http://purl.org/dc/dcmitype/StillImage" /><dc:title></dc:title></cc:Work></rdf:RDF></metadata><sodipodi:namedview
   pagecolor="#ffffff"
   bordercolor="#666666"
   borderopacity="1"
   objecttolerance="10"
   gridtolerance="10"
   guidetolerance="10"
   inkscape:pageopacity="0"
   inkscape:pageshadow="2"
   inkscape:window-width="1920"
   inkscape:window-height="1174"
   id="namedview16"
   showgrid="false"
   fit-margin-top="0"
   fit-margin-left="0"
   fit-margin-right="0"
   fit-margin-bottom="0"
   inkscape:zoom="0.85677158"
   inkscape:cx="141.03497"
   inkscape:cy="218.95787"
   inkscape:window-x="1276"
   inkscape:window-y="-4"
   inkscape:window-maximized="1"
   inkscape:current-layer="svg2" />
<defs
   id="defs4">
</defs>




<path
   d="m 41.4696,574.46927 h 492.00017 c 10.87314,0 21.30224,-4.31848 28.99114,-12.0083 7.6888,-7.68884 12.0083,-18.11699 12.0083,-28.99116 V 41.469653 c 0,-10.87417 -4.3194,-21.3023 -12.0083,-28.99114 -7.6899,-7.6898195 -18.119,-12.00929952 -28.99214,-12.00929952 H 41.4696 c -10.87413,0 -21.30227,4.31948002 -28.99113,12.00829952 -7.68985,7.68884 -12.00923,18.11797 -12.00923,28.99214 V 533.46981 c 0,10.87417 4.31938,21.30232 12.00823,28.99116 7.68886,7.68883 18.118,12.0083 28.99213,12.0083 z"
   id="path6-1-1-1-1"
   inkscape:connector-curvature="0"
   style="fill:#ffffff;stroke:#000000;stroke-width:1.99998808;stroke-linecap:round;stroke-linejoin:round;stroke-miterlimit:4;stroke-dasharray:none" /><polygon
   points="538.362,538.362 538.362,538.362 538.362,36.576 538.362,36.576 36.576,36.576 36.576,36.576 36.576,538.362 "
   id="polygon8-7-7-7-7"
   transform="matrix(1.0000749,0,0,1.0000749,-0.02130643,-0.02128695)"
   style="fill:#0000ff;stroke:#0000ff;stroke-width:0.17640001;stroke-linecap:round;stroke-linejoin:round" /><path
   inkscape:connector-curvature="0"
   d="m 412.64552,241.96634 c 0,65.12107 -52.7913,117.91241 -117.9124,117.91241 h -63.3288 v 88.15954 2.84625 h -69.1114 V 124.05393 h 132.4402 c 65.1201,0 117.9124,52.79034 117.9124,117.91241 z m -95.0533,4.30894 c 0,-24.31583 -19.7113,-44.02716 -44.0261,-44.02716 h -38.477 v 86.93729 c 12.8126,0.74437 25.6433,1.11606 38.477,1.11606 24.3148,0 44.0261,-19.71134 44.0261,-44.02618 z"
   id="path14"
   style="fill:#ffffff" />
</svg>