<?xml version="1.0" encoding="UTF-8" standalone="no"?>
<!-- Generator: Adobe Illustrator 13.0.0, SVG Export Plug-In  -->

<svg
   xmlns:dc="http://purl.org/dc/elements/1.1/"
   xmlns:cc="http://creativecommons.org/ns#"
   xmlns:rdf="http://www.w3.org/1999/02/22-rdf-syntax-ns#"
   xmlns:svg="http://www.w3.org/2000/svg"
   xmlns="http://www.w3.org/2000/svg"
   xmlns:sodipodi="http://sodipodi.sourceforge.net/DTD/sodipodi-0.dtd"
   xmlns:inkscape="http://www.inkscape.org/namespaces/inkscape"
   version="1.1"
   x="0px"
   y="0px"
   width="576.00342"
   height="576.00354"
   viewBox="0 -0.031 576.00342 576.00354"
   enable-background="new 0 -0.031 598 600"
   xml:space="preserve"
   id="svg2"
   inkscape:version="0.48.1 "
   sodipodi:docname="C1c.svg"
   inkscape:export-filename="C:\Documents and Settings\bertrand.bouteilles\Bureau\Panneaux\A - Route\5_indication\C1c.png"
   inkscape:export-xdpi="150"
   inkscape:export-ydpi="150"><metadata
   id="metadata28"><rdf:RDF><cc:Work
       rdf:about=""><dc:format>image/svg+xml</dc:format><dc:type
         rdf:resource="http://purl.org/dc/dcmitype/StillImage" /><dc:title></dc:title></cc:Work></rdf:RDF></metadata><sodipodi:namedview
   pagecolor="#ffffff"
   bordercolor="#666666"
   borderopacity="1"
   objecttolerance="10"
   gridtolerance="10"
   guidetolerance="10"
   inkscape:pageopacity="0"
   inkscape:pageshadow="2"
   inkscape:window-width="1920"
   inkscape:window-height="1174"
   id="namedview26"
   showgrid="false"
   fit-margin-top="0"
   fit-margin-left="0"
   fit-margin-right="0"
   fit-margin-bottom="0"
   showguides="true"
   inkscape:guide-bbox="true"
   inkscape:zoom="0.48833334"
   inkscape:cx="171.27748"
   inkscape:cy="368.95429"
   inkscape:window-x="1276"
   inkscape:window-y="-4"
   inkscape:window-maximized="1"
   inkscape:current-layer="svg2" />
<defs
   id="defs4">
</defs>


<path
   d="M 42.002075,574.97079 H 534.0022 c 10.8732,0 21.30231,-4.31848 28.9912,-12.0083 7.6888,-7.68884 12.0083,-18.11698 12.0083,-28.99115 V 41.97119 c 0,-10.87417 -4.3194,-21.3023 -12.0083,-28.99114 C 555.3035,5.29023 544.87441,0.97075 534.00121,0.97075 H 42.002075 c -10.87413,0 -21.30227,4.31948 -28.99113,12.0083 -7.68985,7.68884 -12.00923,18.11797 -12.00923,28.99214 v 492.00015 c 0,10.87417 4.31938,21.30231 12.00823,28.99115 7.68886,7.68883 18.118,12.0083 28.99213,12.0083 z"
   id="path6-1-1-1-1"
   inkscape:connector-curvature="0"
   style="fill:#ffffff;stroke:#000000;stroke-width:1.99998808;stroke-linecap:round;stroke-linejoin:round;stroke-miterlimit:4;stroke-dasharray:none" /><polygon
   points="36.576,36.576 36.576,36.576 36.576,538.362 538.362,538.362 538.362,538.362 538.362,36.576 538.362,36.576 "
   id="polygon8-7-7-7-7"
   transform="matrix(1.0000749,0,0,1.0000749,0.51117857,0.48023857)"
   style="fill:#0000ff;stroke:#0000ff;stroke-width:0.17640001;stroke-linecap:round;stroke-linejoin:round" /><polyline
   points="  429.271,408.714 446.11,402.215 463.745,398.364 481.761,397.25 "
   id="polyline10"
   style="fill:#ffffff;stroke:#0000ff;stroke-width:0.7087;stroke-linecap:round;stroke-linejoin:round"
   transform="translate(-10.9983,-11.998245)" />
<polyline
   points="  481.761,397.25 499.777,398.364 517.412,402.215 534.252,408.714 "
   id="polyline12"
   style="fill:#ffffff;stroke:#0000ff;stroke-width:0.7087;stroke-linecap:round;stroke-linejoin:round"
   transform="translate(-10.9983,-11.998245)" />
<path
   d="m 234.4107,460.80876 c 0,-0.582 0,-1.162 0,-1.743 0,-30.771 0,-61.541 0,-92.312 0,-2.604 -1.14,-4.842 1.69,-4.842 6.967,0 13.934,0 20.9,0 14.075,0 28.15,0 42.226,0 h 3.675 c 9.408,-0.928 19.322,-1.074 28.575,-3.034 7.466,-1.58 14.937,-4.605 22.076,-7.278 15.235,-5.703 28.838,-16.737 40.52,-27.765 5.783,-5.459 11.016,-12.873 15.356,-19.515 4.255,-6.509 8.877,-13.868 11.665,-21.14 6.048,-15.769 9.621,-32.128 9.6,-49.024 -0.042,-33.558 -13.177,-66.162 -36.648,-90.255 -11.769,-12.08 -26.31,-21.673 -41.824,-28.118 -15.971,-6.633 -32.304,-8.468 -49.319,-10.144 h -3.675 c -40.771,0 -81.54,0 -122.31,0 -1.31,0 -21.615,-0.144 -21.615,0.128 0,4.75 0,9.498 0,14.247 0,27.185 0,54.369 0,81.553 0,71.98 0,143.959 0,215.94 0,2.304 -0.025,43.301 0.023,43.301 26.361,0.001 52.723,0.001 79.085,0.001"
   id="path14"
   inkscape:connector-curvature="0"
   style="fill:#ffffff;stroke:#0000ff;stroke-width:0.7087;stroke-linecap:round;stroke-linejoin:round" />
<line
   x1="234.93669"
   y1="187.98976"
   x2="299.7507"
   y2="187.98976"
   id="line16"
   style="fill:#0000ff;stroke:#0000ff;stroke-width:0.7087;stroke-linecap:round;stroke-linejoin:round" />
<polyline
   points="  310.749,294.463 319.965,293.555 328.826,290.867 336.993,286.502 344.151,280.627 350.026,273.469 354.391,265.303   357.078,256.441 357.987,247.226 357.078,238.01 354.391,229.148 350.026,220.981 344.151,213.823 336.993,207.949 328.826,203.584   319.965,200.895 310.749,199.988 245.935,199.988 245.935,294.463 310.749,294.463 "
   id="polyline18"
   style="fill:#0000ff;stroke:#0000ff;stroke-width:0.7087;stroke-linecap:round;stroke-linejoin:round"
   transform="translate(-10.9983,-11.998245)" />
<path
   d="m 417.3377,397.87276 c 11.838,-7.153 31.338,-11.824 53.389,-11.824 21.454,0 40.493,4.422 52.411,11.25 l -27.48605,103.82688 -6.825,2.363 -4.84696,23.60492 -27.70304,0.0201 -4.97495,-24.25289 -6.563,-2.625 z"
   id="path20"
   inkscape:connector-curvature="0"
   style="fill:#ffffff;stroke:#0000ff;stroke-width:0.7087;stroke-linecap:round;stroke-linejoin:round"
   sodipodi:nodetypes="cscccccccc" />
<polyline
   points="  482.109,442.077 451.976,442.322 516.38,423.955 513.425,442.322 483.289,442.077 "
   id="polyline22"
   style="fill:#0000ff;stroke:#0000ff;stroke-width:0.7087;stroke-linecap:round;stroke-linejoin:round"
   transform="translate(-10.9983,-11.998245)" />
<path
   d="m 441.0287,430.06376 64.676,-17.815 c -8.31,-5.892 -21.043,-9.661 -35.317,-9.661 -13.428,0 -25.493,3.337 -33.795,8.638 l 0.142,1.054 4.294,17.784 z"
   id="path24"
   inkscape:connector-curvature="0"
   style="fill:#0000ff;stroke:#0000ff;stroke-width:0.70870000000000000;stroke-linecap:round;stroke-linejoin:round" />
</svg>