<?xml version="1.0" encoding="UTF-8" standalone="no"?>
<!-- Generator: Adobe Illustrator 13.0.0, SVG Export Plug-In . SVG Version: 6.00 Build 14948)  -->

<svg
   xmlns:dc="http://purl.org/dc/elements/1.1/"
   xmlns:cc="http://creativecommons.org/ns#"
   xmlns:rdf="http://www.w3.org/1999/02/22-rdf-syntax-ns#"
   xmlns:svg="http://www.w3.org/2000/svg"
   xmlns="http://www.w3.org/2000/svg"
   xmlns:sodipodi="http://sodipodi.sourceforge.net/DTD/sodipodi-0.dtd"
   xmlns:inkscape="http://www.inkscape.org/namespaces/inkscape"
   version="1.1"
   id="Calque_1"
   x="0px"
   y="0px"
   width="576"
   height="576"
   viewBox="-0.322 -0.549 576 576"
   enable-background="new -0.322 -0.549 576 576"
   xml:space="preserve"
   inkscape:version="0.48.1 "
   sodipodi:docname="C208.svg"
   inkscape:export-filename="C:\Documents and Settings\bertrand.bouteilles\Bureau\Panneaux\A - Route\5_indication\C208.png"
   inkscape:export-xdpi="150"
   inkscape:export-ydpi="150"><metadata
   id="metadata30"><rdf:RDF><cc:Work
       rdf:about=""><dc:format>image/svg+xml</dc:format><dc:type
         rdf:resource="http://purl.org/dc/dcmitype/StillImage" /><dc:title></dc:title></cc:Work></rdf:RDF></metadata><defs
   id="defs28" /><sodipodi:namedview
   pagecolor="#ffffff"
   bordercolor="#666666"
   borderopacity="1"
   objecttolerance="10"
   gridtolerance="10"
   guidetolerance="10"
   inkscape:pageopacity="0"
   inkscape:pageshadow="2"
   inkscape:window-width="1920"
   inkscape:window-height="1174"
   id="namedview26"
   showgrid="false"
   fit-margin-top="0"
   fit-margin-left="0"
   fit-margin-right="0"
   fit-margin-bottom="0"
   inkscape:zoom="0.5"
   inkscape:cx="-24.060774"
   inkscape:cy="284.72484"
   inkscape:window-x="1276"
   inkscape:window-y="-4"
   inkscape:window-maximized="1"
   inkscape:current-layer="Calque_1" />


<path
   d="M 41.668875,574.46452 H 533.66904 c 10.87315,0 21.30224,-4.31848 28.99114,-12.0083 7.6888,-7.68884 12.00831,-18.11698 12.00831,-28.99115 V 41.46492 c 0,-10.87417 -4.3194,-21.3023 -12.00831,-28.99114 -7.6899,-7.68982 -18.119,-12.0093 -28.99214,-12.0093 H 41.668875 c -10.87413,0 -21.30227,4.31948 -28.99113,12.0083 -7.68985,7.68884 -12.00923,18.11797 -12.00923,28.99214 v 492.00015 c 0,10.87417 4.31938,21.30231 12.00823,28.99115 7.68886,7.68883 18.118,12.0083 28.99213,12.0083 z"
   id="path6-1-1-1-1"
   inkscape:connector-curvature="0"
   style="fill:#ffffff;stroke:#000000;stroke-width:1.99998808;stroke-linecap:round;stroke-linejoin:round;stroke-miterlimit:4;stroke-dasharray:none" /><polygon
   points="538.362,36.576 36.576,36.576 36.576,36.576 36.576,538.362 538.362,538.362 538.362,538.362 538.362,36.576 "
   id="polygon8-7-7-7-7"
   transform="matrix(1.0000749,0,0,1.0000749,0.177969,-0.026031)"
   style="fill:#0000ff;stroke:#0000ff;stroke-width:0.17640001;stroke-linecap:round;stroke-linejoin:round" /><g
   id="g7"
   transform="translate(-4.3315,-0.2705)">
	<g
   id="LWPOLYLINE_1_">
		<polyline
   points="    308.704,263.968 401.308,263.968 453.257,522.823 317.516,522.823 308.704,263.968   "
   id="polyline10"
   style="fill:#ffffff;stroke:#0000ff;stroke-width:0.7087;stroke-linecap:round;stroke-linejoin:round" />
	</g>
	<g
   id="LWPOLYLINE_2_">
		<polyline
   points="    298.805,52.647 367.886,52.647 392.324,180.221 306.812,180.221 298.805,52.647   "
   id="polyline13"
   style="fill:#ffffff;stroke:#0000ff;stroke-width:0.7087;stroke-linecap:round;stroke-linejoin:round" />
	</g>
	<g
   id="LWPOLYLINE_3_">
		<polyline
   points="    275.297,263.968 182.691,263.968 130.743,522.823 266.482,522.823 275.297,263.968   "
   id="polyline16"
   style="fill:#ffffff;stroke:#0000ff;stroke-width:0.7087;stroke-linecap:round;stroke-linejoin:round" />
	</g>
	<g
   id="LWPOLYLINE_4_">
		<polyline
   points="    285.194,52.647 216.113,52.647 191.676,180.221 277.187,180.221 285.194,52.647   "
   id="polyline19"
   style="fill:#ffffff;stroke:#0000ff;stroke-width:0.7087;stroke-linecap:round;stroke-linejoin:round" />
	</g>
	<g
   id="LWPOLYLINE">
		<polyline
   points="    292,202.383 534.222,202.383 534.222,240.873 489.104,240.873 489.104,309.705 432.562,309.705 432.562,246.58 292,246.007     151.437,246.58 151.437,309.705 94.895,309.705 94.895,240.873 49.778,240.873 49.778,202.383 292,202.383   "
   id="polyline22"
   style="fill:#ffffff;stroke:#0000ff;stroke-width:0.7087;stroke-linecap:round;stroke-linejoin:round" />
	</g>
</g>
<path
   d="M 538.6685,36.470179 503.21086,36.4645 36.6685,494.82279 l 0,43.61521 48.319374,0.0265 L 538.65569,86.226638 z"
   id="path24"
   inkscape:connector-curvature="0"
   style="fill:#ff0000"
   sodipodi:nodetypes="ccccccc" />
</svg>