<?xml version="1.0" encoding="UTF-8" standalone="no"?>
<!-- Generator: Adobe Illustrator 13.0.0, SVG Export Plug-In  -->

<svg
   xmlns:dc="http://purl.org/dc/elements/1.1/"
   xmlns:cc="http://creativecommons.org/ns#"
   xmlns:rdf="http://www.w3.org/1999/02/22-rdf-syntax-ns#"
   xmlns:svg="http://www.w3.org/2000/svg"
   xmlns="http://www.w3.org/2000/svg"
   xmlns:sodipodi="http://sodipodi.sourceforge.net/DTD/sodipodi-0.dtd"
   xmlns:inkscape="http://www.inkscape.org/namespaces/inkscape"
   version="1.1"
   x="0px"
   y="0px"
   width="575.99994"
   height="576.00006"
   viewBox="0 -0.031 575.99994 576.00006"
   enable-background="new 0 -0.031 598 600"
   xml:space="preserve"
   id="svg2"
   inkscape:version="0.48.1 "
   sodipodi:docname="C20a.svg"
   inkscape:export-filename="C:\Documents and Settings\bertrand.bouteilles\Bureau\Panneaux\A - Route\5_indication\C20a.png"
   inkscape:export-xdpi="150"
   inkscape:export-ydpi="150"><metadata
   id="metadata36"><rdf:RDF><cc:Work
       rdf:about=""><dc:format>image/svg+xml</dc:format><dc:type
         rdf:resource="http://purl.org/dc/dcmitype/StillImage" /><dc:title></dc:title></cc:Work></rdf:RDF></metadata><sodipodi:namedview
   pagecolor="#ffffff"
   bordercolor="#666666"
   borderopacity="1"
   objecttolerance="10"
   gridtolerance="10"
   guidetolerance="10"
   inkscape:pageopacity="0"
   inkscape:pageshadow="2"
   inkscape:window-width="1920"
   inkscape:window-height="1174"
   id="namedview34"
   showgrid="false"
   fit-margin-top="0"
   fit-margin-left="0"
   fit-margin-right="0"
   fit-margin-bottom="0"
   inkscape:zoom="0.48833333"
   inkscape:cx="-127.69968"
   inkscape:cy="288.00002"
   inkscape:window-x="1276"
   inkscape:window-y="-4"
   inkscape:window-maximized="1"
   inkscape:current-layer="svg2" />
<defs
   id="defs4">
</defs>






<path
   d="M 42.000354,574.96905 H 534.00051 c 10.87314,0 21.30224,-4.31848 28.99114,-12.0083 7.6888,-7.68884 12.0083,-18.11698 12.0083,-28.99115 V 41.969434 c 0,-10.87417 -4.3194,-21.3023 -12.0083,-28.99114 -7.6899,-7.68982 -18.119,-12.00929996 -28.99214,-12.00929996 H 42.000354 c -10.87413,0 -21.30227,4.31947996 -28.99113,12.00829996 -7.68985,7.68884 -12.00922996,18.11797 -12.00922996,28.99214 V 533.9696 c 0,10.87417 4.31937996,21.30231 12.00822996,28.99115 7.68886,7.68883 18.118,12.0083 28.99213,12.0083 z"
   id="path6-1-1-1-1"
   inkscape:connector-curvature="0"
   style="fill:#ffffff;stroke:#000000;stroke-width:1.99998808;stroke-linecap:round;stroke-linejoin:round;stroke-miterlimit:4;stroke-dasharray:none" /><polygon
   points="538.362,538.362 538.362,36.576 538.362,36.576 36.576,36.576 36.576,36.576 36.576,538.362 538.362,538.362 "
   id="polygon8-7-7-7-7"
   transform="matrix(1.0000749,0,0,1.0000749,0.50944304,0.47848961)"
   style="fill:#0000ff;stroke:#0000ff;stroke-width:0.17640001;stroke-linecap:round;stroke-linejoin:round" />






<g
   id="g3022"
   transform="translate(-8.426026,-13.866479)"><polyline
     id="polyline18"
     points="  54.659,483.091 301.625,80.58 538.193,483.091 54.659,483.091 "
     style="fill:#ffffff;stroke:#0000ff;stroke-width:0.7087;stroke-linecap:round;stroke-linejoin:round" /><ellipse
     id="ellipse20"
     ry="21.5"
     rx="20.5"
     cy="199.582"
     cx="285.63699"
     sodipodi:cx="285.63699"
     sodipodi:cy="199.582"
     sodipodi:rx="20.5"
     sodipodi:ry="21.5"
     style="stroke:#000000"
     d="m 306.13699,199.582 c 0,11.87412 -9.17816,21.5 -20.5,21.5 -11.32183,0 -20.5,-9.62588 -20.5,-21.5 0,-11.87412 9.17817,-21.5 20.5,-21.5 11.32184,0 20.5,9.62588 20.5,21.5 z" /><polygon
     id="polygon22"
     points="242.009,385.729 277.308,385.96 448.762,387.082 493.138,470.082 272.266,470.082 99.804,470.082 143.171,385.082 " /><polygon
     id="polygon24"
     points="138.47,472.75 173.47,383.797 205.47,382.75 181.47,472.75 "
     style="fill:#ffffff" /><polygon
     id="polygon26"
     points="344.219,383.229 307.699,385.806 314.287,471.503 357.197,471.768 "
     style="fill:#ffffff" /><polygon
     id="polygon28"
     points="398.47,473.75 375.47,383.75 408.47,383.75 439.47,473.75 "
     style="fill:#ffffff" /><polygon
     id="polygon30"
     points="236.47,384.396 271.47,384.636 266.47,471.75 226.47,471.75 "
     style="fill:#ffffff" /><path
     id="path32"
     d="m 276.137,270.082 c -5.713,5.077 -49.284,45.525 -55.47,35.219 -1.889,-3.146 -4.961,-11.933 -0.753,-14.737 4.909,-3.271 9.703,-6.718 14.535,-10.101 5.714,-4 11.428,-8 17.142,-11.999 3.718,-2.602 5.513,-8.793 8.36,-12.419 7.999,-10.181 17.829,-18.362 25.686,-28.463 4.34,-5.58 8.636,-6.426 15.352,-8.944 6.268,-2.35 9.142,2.186 14.148,6.444 8.782,7.47 16.184,15.881 23.668,24.611 6.709,7.827 16.711,14.775 19.461,24.86 2.697,9.893 5.924,20.272 6.871,30.527 0.511,5.528 0.521,9.493 -4.889,11.296 -6.878,2.293 -6.153,-0.353 -9.581,-4.921 -5.646,-7.528 -1.342,-18.813 -5.53,-27.375 -2.604,-5.324 -6.188,-7.094 -11.376,-9.688 -4.038,-2.019 -7.58,-7.964 -10.624,-11.312 -0.585,13.746 -1.17,27.491 -1.755,41.236 -0.452,10.619 5.735,17.612 7.014,27.838 1.28,10.235 5.696,17.313 11.384,25.588 9.594,13.954 19.188,27.906 28.779,41.859 5.335,7.761 13.249,15.083 6.578,24.479 -3.639,5.123 -6.779,4 -12.781,4 -5.462,0 -8.491,-3.521 -11.584,-7.958 -14.076,-20.197 -29.356,-40.485 -40.41,-62.593 -4.408,-8.816 -8.816,-17.634 -13.225,-26.449 -8.067,10.647 -16.135,21.297 -24.201,31.943 -2.887,3.811 -6.353,7.227 -9.547,10.775 -0.99,1.1 0.134,3.412 -0.502,4.844 -1.3,2.923 -2.599,5.848 -3.897,8.771 -5.545,12.478 -10.989,24.94 -17.095,37.151 -1.738,3.478 -10.149,2.667 -13.757,2.516 -6.946,-0.293 -10,-0.193 -10,-7.963 0,-3.389 0.095,-11.745 1.883,-14.299 3.095,-4.423 5.959,-8.385 8.136,-13.281 5.121,-11.521 9.088,-24.934 16.686,-35.063 6.563,-8.749 13.349,-17.318 19.202,-26.562 4.321,-6.822 8.643,-13.646 12.963,-20.47 2.737,-4.32 1.845,-6.796 1.405,-12.063 -0.761,-9.096 -1.518,-18.196 -2.276,-27.297"
     inkscape:connector-curvature="0"
     style="stroke:#ffffff" /></g>
</svg>