<?xml version="1.0" encoding="UTF-8" standalone="no"?>
<!-- Generator: Adobe Illustrator 13.0.0, SVG Export Plug-In  -->

<svg
   xmlns:dc="http://purl.org/dc/elements/1.1/"
   xmlns:cc="http://creativecommons.org/ns#"
   xmlns:rdf="http://www.w3.org/1999/02/22-rdf-syntax-ns#"
   xmlns:svg="http://www.w3.org/2000/svg"
   xmlns="http://www.w3.org/2000/svg"
   xmlns:sodipodi="http://sodipodi.sourceforge.net/DTD/sodipodi-0.dtd"
   xmlns:inkscape="http://www.inkscape.org/namespaces/inkscape"
   version="1.1"
   x="0px"
   y="0px"
   width="576"
   height="576"
   viewBox="0 -0.031 576 576"
   enable-background="new 0 -0.031 598 600"
   xml:space="preserve"
   id="svg2"
   inkscape:version="0.48.1 "
   sodipodi:docname="C20c.svg"
   inkscape:export-filename="C:\Documents and Settings\bertrand.bouteilles\Bureau\Panneaux\A - Route\5_indication\C20c.png"
   inkscape:export-xdpi="150"
   inkscape:export-ydpi="150"><metadata
   id="metadata50"><rdf:RDF><cc:Work
       rdf:about=""><dc:format>image/svg+xml</dc:format><dc:type
         rdf:resource="http://purl.org/dc/dcmitype/StillImage" /><dc:title></dc:title></cc:Work></rdf:RDF></metadata><sodipodi:namedview
   pagecolor="#ffffff"
   bordercolor="#666666"
   borderopacity="1"
   objecttolerance="10"
   gridtolerance="10"
   guidetolerance="10"
   inkscape:pageopacity="0"
   inkscape:pageshadow="2"
   inkscape:window-width="1920"
   inkscape:window-height="1174"
   id="namedview48"
   showgrid="false"
   fit-margin-top="0"
   fit-margin-left="0"
   fit-margin-right="0"
   fit-margin-bottom="0"
   inkscape:zoom="0.48833333"
   inkscape:cx="-127.69966"
   inkscape:cy="615.6448"
   inkscape:window-x="1276"
   inkscape:window-y="-4"
   inkscape:window-maximized="1"
   inkscape:current-layer="svg2" />
<defs
   id="defs4">
</defs>
<path
   d="m 42.00039,574.96927 h 492.0001 c 10.8732,0 21.3023,-4.3185 28.9912,-12.0083 7.6888,-7.6888 12.0083,-18.117 12.0083,-28.9911 V 41.96967 c 0,-10.87417 -4.3194,-21.3023 -12.0083,-28.99114 -7.6899,-7.68982 -18.119,-12.0093 -28.9922,-12.0093 H 42.00039 c -10.8742,0 -21.3023,4.31948 -28.9912,12.0083 C 5.31939,20.66637 1.00001,31.0955 1.00001,41.96967 v 492.0002 c 0,10.8741 4.31938,21.3023 12.00818,28.9911 7.6889,7.6888 18.118,12.0083 28.9922,12.0083 z"
   id="path6-1-1-1-1"
   inkscape:connector-curvature="0"
   style="fill:#ffffff;stroke:#000000;stroke-width:1.99998808;stroke-linecap:round;stroke-linejoin:round;stroke-miterlimit:4;stroke-dasharray:none" /><polygon
   points="538.362,36.576 36.576,36.576 36.576,36.576 36.576,538.362 538.362,538.362 538.362,538.362 538.362,36.576 "
   id="polygon8-7-7-7-7"
   transform="matrix(1.0000749,0,0,1.0000749,0.509469,0.478719)"
   style="fill:#0000ff;stroke:#0000ff;stroke-width:0.17640001;stroke-linecap:round;stroke-linejoin:round" />



















<g
   id="g3043"
   transform="translate(-8.426,6.13375)"><polyline
     id="polyline18"
     points="  54.659,483.091 301.625,80.58 538.193,483.091 54.659,483.091 "
     style="fill:#ffffff;stroke:#0000ff;stroke-width:0.7087;stroke-linecap:round;stroke-linejoin:round" /><g
     id="g3027"><polyline
       points="193.97,298.749   278.968,298.749 414.97,298.749 "
       id="polyline20"
       style="fill:none;stroke:#000000;stroke-width:7;stroke-linecap:round;stroke-linejoin:round" /><polygon
       points="274.97,374.749 306.97,348.749 272.97,299.749 281.97,297.749 314.97,348.749 297.97,372.749 306.97,374.749 307.97,383.749 258.97,383.749 258.97,375.749 "
       id="polygon22"
       style="stroke:#000000;stroke-width:0.17640001;stroke-linecap:round;stroke-linejoin:round" /><polygon
       points="149.97,447.749 148.97,431.749 148.97,426.749 168.97,384.749 171.97,380.749 431.97,380.749 457.97,428.749 457.97,445.749 452.97,449.749 153.97,449.749 "
       id="polygon24"
       style="stroke:#000000;stroke-width:0.17640001;stroke-linecap:round;stroke-linejoin:round" /><ellipse
       cx="200.30299"
       cy="445.08301"
       rx="10.667"
       ry="10.333"
       id="ellipse26"
       d="m 210.96999,445.08301 c 0,5.70676 -4.77577,10.333 -10.667,10.333 -5.89122,0 -10.667,-4.62624 -10.667,-10.333 0,-5.70676 4.77578,-10.333 10.667,-10.333 5.89123,0 10.667,4.62624 10.667,10.333 z"
       sodipodi:cx="200.30299"
       sodipodi:cy="445.08301"
       sodipodi:rx="10.667"
       sodipodi:ry="10.333"
       style="stroke:#000000;stroke-width:7;stroke-linecap:round;stroke-linejoin:round" /><ellipse
       transform="matrix(0.9934,-0.1146,0.1146,0.9934,-49.5476,29.5958)"
       cx="232.651"
       cy="445.76401"
       rx="10.333"
       ry="10.665"
       id="ellipse28"
       d="m 242.984,445.76401 c 0,5.89011 -4.62624,10.665 -10.333,10.665 -5.70676,0 -10.333,-4.77489 -10.333,-10.665 0,-5.89012 4.62624,-10.665 10.333,-10.665 5.70676,0 10.333,4.77488 10.333,10.665 z"
       sodipodi:cx="232.651"
       sodipodi:cy="445.76401"
       sodipodi:rx="10.333"
       sodipodi:ry="10.665"
       style="stroke:#000000;stroke-width:7;stroke-linecap:round;stroke-linejoin:round" /><ellipse
       transform="matrix(0.9934,-0.1146,0.1146,0.9934,-48.5125,46.2852)"
       cx="378.314"
       cy="445.08499"
       rx="10.333"
       ry="10.666"
       id="ellipse30"
       d="m 388.647,445.08499 c 0,5.89067 -4.62625,10.666 -10.333,10.666 -5.70676,0 -10.333,-4.77533 -10.333,-10.666 0,-5.89067 4.62624,-10.666 10.333,-10.666 5.70675,0 10.333,4.77533 10.333,10.666 z"
       sodipodi:cx="378.314"
       sodipodi:cy="445.08499"
       sodipodi:rx="10.333"
       sodipodi:ry="10.666"
       style="stroke:#000000;stroke-width:7;stroke-linecap:round;stroke-linejoin:round" /><ellipse
       transform="matrix(0.9934,-0.1146,0.1146,0.9934,-48.3892,49.7251)"
       cx="408.315"
       cy="445.75201"
       rx="10.333"
       ry="10.665"
       id="ellipse32"
       d="m 418.648,445.75201 c 0,5.89012 -4.62624,10.665 -10.333,10.665 -5.70676,0 -10.333,-4.77488 -10.333,-10.665 0,-5.89011 4.62624,-10.665 10.333,-10.665 5.70676,0 10.333,4.77489 10.333,10.665 z"
       sodipodi:cx="408.315"
       sodipodi:cy="445.75201"
       sodipodi:rx="10.333"
       sodipodi:ry="10.665"
       style="stroke:#000000;stroke-width:7;stroke-linecap:round;stroke-linejoin:round" /><line
       x1="97.970001"
       y1="460.08301"
       x2="511.97"
       y2="460.08301"
       id="line34"
       style="fill:none;stroke:#000000;stroke-width:7;stroke-linecap:round;stroke-linejoin:round" /><polyline
       points="  175.635,390.749 177.635,389.416 432.303,388.749 434.303,390.749 447.637,422.082 447.637,424.749 445.637,426.749   443.637,427.416 167.635,428.749 164.303,426.082 162.303,424.749 162.303,422.749 172.97,391.416 "
       id="polyline36"
       style="fill:#ffffff;stroke:#000000;stroke-width:0.17640001;stroke-linecap:round;stroke-linejoin:round" /><rect
       x="190.30299"
       y="386.41599"
       width="8.6669998"
       height="45.333"
       id="rect38"
       style="stroke:#000000;stroke-width:0.17640001;stroke-linecap:round;stroke-linejoin:round" /><rect
       x="277.30301"
       y="389.08301"
       width="8.6669998"
       height="39.333"
       id="rect40"
       style="stroke:#000000;stroke-width:0.17640001;stroke-linecap:round;stroke-linejoin:round" /><rect
       x="321.97"
       y="389.75"
       width="8.6660004"
       height="39.333"
       id="rect42"
       style="stroke:#000000;stroke-width:0.17640001;stroke-linecap:round;stroke-linejoin:round" /><rect
       x="408.97"
       y="385.75"
       width="8.6660004"
       height="45.333"
       id="rect44"
       style="stroke:#000000;stroke-width:0.17640001;stroke-linecap:round;stroke-linejoin:round" /><rect
       x="439.14099"
       y="382.84"
       transform="matrix(0.9021,-0.4316,0.4316,0.9021,-132.5474,230.1237)"
       width="3.2939999"
       height="48.561001"
       id="rect46"
       style="stroke:#000000;stroke-width:0.17640001;stroke-linecap:round;stroke-linejoin:round" /></g></g>
</svg>