<?xml version="1.0" encoding="UTF-8" standalone="no"?>
<!-- Generator: Adobe Illustrator 16.0.2, SVG Export Plug-In . SVG Version: 6.00 Build 0)  -->

<svg
   xmlns:dc="http://purl.org/dc/elements/1.1/"
   xmlns:cc="http://creativecommons.org/ns#"
   xmlns:rdf="http://www.w3.org/1999/02/22-rdf-syntax-ns#"
   xmlns:svg="http://www.w3.org/2000/svg"
   xmlns="http://www.w3.org/2000/svg"
   xmlns:sodipodi="http://sodipodi.sourceforge.net/DTD/sodipodi-0.dtd"
   xmlns:inkscape="http://www.inkscape.org/namespaces/inkscape"
   version="1.1"
   id="Ebene_1"
   x="0px"
   y="0px"
   width="576"
   height="576.00006"
   viewBox="0 0 576 576.00006"
   xml:space="preserve"
   inkscape:version="0.48.1 "
   sodipodi:docname="C23.svg"
   inkscape:export-filename="C:\Documents and Settings\bertrand.bouteilles\Bureau\Panneaux\A - Route\5_indication\C23.png"
   inkscape:export-xdpi="150"
   inkscape:export-ydpi="150"><metadata
   id="metadata177"><rdf:RDF><cc:Work
       rdf:about=""><dc:format>image/svg+xml</dc:format><dc:type
         rdf:resource="http://purl.org/dc/dcmitype/StillImage" /><dc:title></dc:title></cc:Work></rdf:RDF></metadata><defs
   id="defs175">
	
	
	
	
	
	
	
	
	
	
	
	
	
	
	
	
	
	
	
	
	
	
	
	

	
	
	
	
	
	
	
	
	
	
	
	
	
	
	
	
	
	
	
	

	
	
	
	
	
	
	
	
	
	
	

	
	
	
	
	
	
	
	
	
	
</defs><sodipodi:namedview
   pagecolor="#ffffff"
   bordercolor="#666666"
   borderopacity="1"
   objecttolerance="10"
   gridtolerance="10"
   guidetolerance="10"
   inkscape:pageopacity="0"
   inkscape:pageshadow="2"
   inkscape:window-width="1920"
   inkscape:window-height="1174"
   id="namedview173"
   showgrid="false"
   fit-margin-top="0"
   fit-margin-left="0"
   fit-margin-right="0"
   fit-margin-bottom="0"
   inkscape:zoom="0.48833333"
   inkscape:cx="29.159857"
   inkscape:cy="-128.75724"
   inkscape:window-x="1276"
   inkscape:window-y="-4"
   inkscape:window-maximized="1"
   inkscape:current-layer="Ebene_1" />















<path
   d="M 42.000375,575.00003 H 534.00054 c 10.87315,0 21.30224,-4.31848 28.99114,-12.0083 7.6888,-7.68884 12.0083,-18.11698 12.0083,-28.99115 V 42.000415 c 0,-10.87417 -4.3194,-21.3023 -12.0083,-28.99114 -7.6899,-7.68982 -18.119,-12.0093 -28.99214,-12.0093 H 42.000375 c -10.87413,0 -21.30227,4.31948 -28.99113,12.0083 -7.68985,7.68884 -12.00923,18.11797 -12.00923,28.99214 V 534.00058 c 0,10.87417 4.31938,21.30231 12.00823,28.99114 7.68886,7.68884 18.118,12.0083 28.99213,12.0083 z"
   id="path6-1-1-1-1"
   inkscape:connector-curvature="0"
   style="fill:#ffffff;stroke:#000000;stroke-width:1.99998808;stroke-linecap:round;stroke-linejoin:round;stroke-miterlimit:4;stroke-dasharray:none" /><polygon
   points="538.362,538.362 538.362,538.362 538.362,36.576 538.362,36.576 36.576,36.576 36.576,36.576 36.576,538.362 "
   id="polygon8-7-7-7-7"
   transform="matrix(1.0000749,0,0,1.0000749,0.509469,0.509469)"
   style="fill:#0000ff;stroke:#0000ff;stroke-width:0.17640001;stroke-linecap:round;stroke-linejoin:round" /><g
   id="g3310"
   transform="matrix(0.95251726,0,0,0.95251726,9.5758664,-13.227756)"><line
     id="line7"
     y2="429.383"
     x2="282.55099"
     y1="429.383"
     x1="447.94"
     style="fill:none;stroke:#0000ff;stroke-width:0.7087;stroke-linecap:round;stroke-linejoin:round" /><path
     inkscape:connector-curvature="0"
     id="path9"
     d="m 404.67582,355.212 c 0,3.41 -0.0348,35.879 0.0348,35.879 13.32783,0 26.6547,0 39.98253,0 2.2664,0 2.58824,-0.596 2.58824,1.896 0,1.945 0.27062,1.896 -1.5918,1.896 -0.37596,0 -4.55214,-0.058 -4.55408,0.047 -0.0754,6.656 -0.15077,13.313 -0.22712,19.969 -0.0425,3.737 -0.0851,7.475 -0.12758,11.212 -0.0338,2.958 -0.72196,3.306 2.26351,3.346 4.56375,0.061 4.23707,-0.342 4.23707,4.378 0,0.621 0.55863,3.286 -0.3257,3.286 -49.66381,0 -99.32665,0 -148.99046,0 -50.97146,0 -101.94389,0 -152.91729,0 -2.2867,0 -0.0744,-7.735 -0.54993,-7.735 6.76346,0 13.52693,0 20.29039,0 2.09437,0 13.03692,1.334 13.03692,-1.088 0,-7.713 0,-15.425 0,-23.138 0,-3.063 0,-6.125 0,-9.188 0,-1.777 -1.15012,-1.088 -2.76898,-1.088 -7.8353,0 -15.67252,0 -23.50685,0 -0.41366,0 -4.17425,0.203 -4.17425,-0.162 0,-2.476 0,-4.949 0,-7.426 0,-8.484 0,-16.971 0,-25.456 0,-1.959 0,-3.917 0,-5.876"
     style="fill:#ffffff;stroke:#ffffff;stroke-width:0.69672281;stroke-linecap:round;stroke-linejoin:round" /><path
     id="path11"
     d="m 147.473,357.462 c 1.33,-12.333 2.188,-24.011 5.843,-35.829 1.649,-5.334 2.715,-11.479 5.367,-16.412 3.66,-6.813 7.321,-13.626 10.981,-20.438 2.65,-4.935 7.168,-9.182 10.695,-13.484 3.4,-4.146 6.375,-7.823 10.474,-11.201 5.274,-4.349 10.403,-9.44 16.072,-13.25 5.669,-3.811 12.297,-6.622 18.304,-9.856 4.666,-2.513 9.17,-3.863 14.267,-5.428 5.287,-1.623 10.909,-4.19 16.434,-4.751 7.628,-0.775 15.255,-1.55 22.883,-2.325 5.523,-0.561 11.539,0.824 17.039,1.352 23.828,2.283 47.11,11.862 65.748,27.051 4.007,3.264 8.537,6.308 12.214,9.952 3.676,3.644 6.772,8.167 10.079,12.153 6.833,8.239 11.392,16.792 16.546,26.258 9.31,17.098 11.128,36.454 13.282,55.451"
     style="fill:#ffffff;stroke:#ffffff;stroke-width:0.7087;stroke-linecap:round;stroke-linejoin:round"
     inkscape:connector-curvature="0" /><polygon
     id="polygon13"
     points="268.168,280.254 265.514,281.444 263.129,283.109 261.096,285.189 259.486,287.612 258.357,290.292 257.748,293.137 257.679,296.044 258.154,298.914 259.155,301.645 260.648,304.141 262.581,306.314 264.885,308.09 267.48,309.404 270.274,310.212 273.17,310.484 344.295,310.484 347.323,310.188 350.234,309.305 352.918,307.869 355.271,305.938 357.199,303.587 358.635,300.902 359.518,297.992 359.816,294.964 359.518,291.936 358.635,289.025 357.199,286.341 355.271,283.989 352.918,282.059 350.234,280.625 347.323,279.742 344.295,279.443 273.903,279.443 270.998,279.579 "
     style="fill:#0000ff;stroke:#0000ff;stroke-width:0.7087;stroke-linecap:round;stroke-linejoin:round" /><path
     id="path15"
     d="m 216.91,305.119 c 0,-8.847 -7.173,-16.02 -16.021,-16.02 -8.848,0 -16.02,7.172 -16.02,16.02 0,8.848 7.172,16.021 16.02,16.021 8.848,0 16.021,-7.173 16.021,-16.021 l 0,0 0,0 z"
     style="fill:#ffffff;stroke:#0000ff;stroke-width:0.7087;stroke-linecap:round;stroke-linejoin:round"
     inkscape:connector-curvature="0" /><polyline
     transform="matrix(0.99183548,0,0,1,1.5015459,0)"
     id="polyline17"
     points="449.94,429.133 449.94,394.775 312.367,394.775 310.231,388.764 306.986,383.257   302.748,378.454 297.671,374.527 291.935,371.617 285.747,369.828 279.329,369.225 272.91,369.828 266.722,371.617 260.987,374.527   255.909,378.454 251.671,383.257 248.426,388.764 246.289,394.775 183.911,394.775 183.911,429.133 275.36,429.133 "
     style="fill:#0000ff" /><polyline
     id="polyline19"
     points="  282.551,429.383 287.258,428.167 291.646,426.073 295.551,423.178 298.829,419.589 301.361,415.438 303.051,410.88 303.838,406.083   303.691,401.225 302.617,396.482 300.656,392.034 297.88,388.044 294.392,384.658 290.319,382.003 285.814,380.177 281.042,379.246   276.181,379.246 271.41,380.177 266.904,382.003 262.832,384.658 259.343,388.044 256.567,392.034 254.606,396.482 253.531,401.225   253.386,406.083 254.172,410.88 255.863,415.438 258.394,419.589 261.673,423.178 265.578,426.073 269.965,428.167 274.672,429.383   "
     style="fill:#ffffff;stroke:#0000ff;stroke-width:0.7087;stroke-linecap:round;stroke-linejoin:round" /><path
     id="path21"
     d="m 175.975,308.066 v 47.18 l -0.182,3.583 c -0.021,0.414 -0.031,0.83 -0.031,1.249 0,13.945 11.523,25.25 25.738,25.25 14.214,0 25.736,-11.305 25.736,-25.25 0,-0.419 -0.01,-0.835 -0.03,-1.249 l 0.032,-3.583 -0.305,-47.18 -0.489,-4.972 -1.449,-4.779 -2.354,-4.405 -3.169,-3.861 -3.861,-3.168 -4.404,-2.355 -4.78,-1.45 -4.971,-0.49 -4.972,0.49 -4.779,1.45 -4.405,2.355 -3.861,3.168 -3.168,3.861 -2.354,4.405 -1.45,4.779 -0.492,4.972"
     style="fill:#0000ff;stroke:#0000ff"
     inkscape:connector-curvature="0" /><rect
     id="rect25"
     height="38.5"
     width="6.5"
     style="fill:#ffffff"
     transform="matrix(-0.9595,-0.2815,0.2815,-0.9595,689.4604,923.7239)"
     y="393.082"
     x="407.83899" /><rect
     id="rect27"
     height="108.667"
     width="23.997999"
     style="fill:#0000ff;stroke:#0000ff;stroke-width:0.7087;stroke-linecap:round;stroke-linejoin:round"
     y="281.41299"
     x="395.33401" /><rect
     id="rect33"
     height="109.333"
     width="25.333"
     style="fill:#0000ff;stroke:#0000ff;stroke-width:0.7087;stroke-linecap:round;stroke-linejoin:round"
     y="276.07999"
     x="136.66701" /></g>

<g
   id="g3377"
   transform="matrix(0.94046199,0,0,0.94046199,6.5239585,0.0359868)"><path
     style="fill:#ffffff"
     d="m 158.024,57.571 c 6.474,1.031 10.445,4.963 11.914,11.795 l 0.3,2.481 -8.576,0.645 c -0.29,-3.395 -1.502,-5.554 -3.638,-6.478 -2.136,-0.923 -4.45,-0.698 -6.941,0.677 -1.668,1.01 -2.993,2.165 -3.971,3.464 -0.979,1.3 -2.024,3.84 -3.137,7.622 -1.38,5.329 -1.413,10.055 -0.1,14.18 0.979,3.008 3.326,4.233 7.041,3.674 4.004,-0.988 6.529,-3.244 7.575,-6.768 h 8.843 c -0.823,4.533 -3.226,8.293 -7.208,11.279 -2.025,1.913 -5.062,3.19 -9.11,3.835 -0.534,0.021 -1.057,0.032 -1.568,0.032 -5.005,0 -8.888,-1.901 -11.646,-5.704 -2.247,-3.523 -3.37,-7.659 -3.37,-12.407 0,-2.083 0.222,-4.297 0.667,-6.639 1.246,-6.982 3.704,-12.396 7.375,-16.242 1.891,-2.083 4.126,-3.598 6.708,-4.544 2.024,-0.688 4.093,-1.031 6.207,-1.031 h 0.367 c 0.733,0 1.489,0.043 2.268,0.129 z"
     id="path39"
     inkscape:connector-curvature="0" /><path
     style="fill:#ffffff"
     d="m 198.136,77.229 c 0.823,1.826 1.235,4.018 1.235,6.574 0,1.182 -0.089,2.438 -0.267,3.771 -0.734,4.92 -2.314,8.701 -4.739,11.344 -2.736,3.008 -5.773,4.673 -9.11,4.995 -0.689,0.043 -1.257,0.064 -1.702,0.064 -0.601,0 -1.235,-0.032 -1.902,-0.097 -2.759,-0.193 -5.217,-1.848 -7.375,-4.963 -1.18,-1.89 -1.769,-4.383 -1.769,-7.477 0,-0.902 0.056,-1.858 0.167,-2.868 0.534,-5.586 2.503,-10.001 5.907,-13.245 2.336,-2.17 4.572,-3.373 6.708,-3.609 0.934,-0.15 1.846,-0.226 2.736,-0.226 h 0.3 c 4.316,10e-4 7.586,1.913 9.811,5.737 z m -13.849,21.173 c 1.78,0.064 3.248,-0.73 4.405,-2.385 1.09,-1.654 1.979,-4.039 2.669,-7.154 0.712,-3.545 0.656,-6.563 -0.167,-9.056 -0.712,-1.998 -1.847,-2.868 -3.403,-2.61 -1.936,-0.258 -3.649,0.838 -5.139,3.287 -1.113,2.042 -1.88,4.362 -2.303,6.961 -0.378,3.115 -0.4,5.5 -0.067,7.154 0.579,2.944 1.914,4.211 4.005,3.803 z"
     id="path41"
     inkscape:connector-curvature="0" /><path
     style="fill:#ffffff"
     d="m 207.012,71.622 h 7.675 l -0.634,5.382 c 2.425,-3.201 4.861,-5.038 7.308,-5.511 0.623,-0.064 1.202,-0.097 1.735,-0.097 1.557,0 2.714,0.258 3.471,0.773 2.046,1.268 3.114,3.363 3.204,6.284 3.692,-4.361 6.607,-6.595 8.743,-6.703 0.623,-0.172 1.201,-0.258 1.735,-0.258 1.557,0 2.747,0.258 3.57,0.773 1.535,0.988 2.547,2.277 3.037,3.867 0.334,1.246 0.501,2.61 0.501,4.093 0,1.096 -0.1,2.256 -0.3,3.48 l -3.871,19.884 h -8.209 l 3.838,-19.529 c 0.422,-2.191 0.245,-3.899 -0.534,-5.124 -1.824,-1.074 -3.804,-0.794 -5.94,0.838 -1.446,1.333 -2.581,3.685 -3.404,7.058 l -2.903,16.693 h -8.209 l 3.837,-19.529 c 0.422,-2.191 0.156,-3.813 -0.801,-4.866 -1.646,-1.246 -3.415,-1.052 -5.306,0.58 -1.447,1.333 -2.581,3.685 -3.404,7.058 l -3.204,16.758 h -7.742 l 5.339,-28.037 0.468,-3.867 z"
     id="path43"
     inkscape:connector-curvature="0" /><path
     style="fill:#ffffff"
     d="m 254.265,71.622 h 7.675 l -0.634,5.382 c 2.425,-3.201 4.861,-5.038 7.308,-5.511 0.623,-0.064 1.202,-0.097 1.735,-0.097 1.557,0 2.714,0.258 3.471,0.773 2.046,1.268 3.114,3.363 3.204,6.284 3.692,-4.361 6.607,-6.595 8.743,-6.703 0.623,-0.172 1.201,-0.258 1.735,-0.258 1.557,0 2.747,0.258 3.57,0.773 1.535,0.988 2.547,2.277 3.037,3.867 0.334,1.246 0.501,2.61 0.501,4.093 0,1.096 -0.1,2.256 -0.3,3.48 l -3.871,19.884 h -8.209 l 3.838,-19.529 c 0.422,-2.191 0.245,-3.899 -0.534,-5.124 -1.824,-1.074 -3.804,-0.794 -5.94,0.838 -1.446,1.333 -2.581,3.685 -3.404,7.058 l -2.903,16.693 h -8.209 l 3.837,-19.529 c 0.422,-2.191 0.156,-3.813 -0.801,-4.866 -1.646,-1.246 -3.415,-1.052 -5.306,0.58 -1.447,1.333 -2.581,3.685 -3.404,7.058 l -3.204,16.758 h -7.742 l 5.339,-28.037 0.468,-3.867 z"
     id="path45"
     inkscape:connector-curvature="0" /><path
     style="fill:#ffffff"
     d="m 319.171,103.623 h -7.675 l 0.634,-5.382 c -2.425,3.202 -4.861,5.039 -7.308,5.511 -0.623,0.064 -1.201,0.097 -1.736,0.097 -1.557,0 -2.714,-0.258 -3.471,-0.773 -1.534,-0.881 -2.514,-2.18 -2.936,-3.899 -0.333,-1.246 -0.5,-2.61 -0.5,-4.093 0,-1.096 0.1,-2.256 0.3,-3.48 L 300.15,71.72 h 8.209 l -3.838,19.529 c -0.423,2.191 -0.156,3.814 0.801,4.866 1.646,1.246 3.414,1.053 5.307,-0.58 1.445,-1.332 2.58,-3.685 3.403,-7.058 l 3.203,-16.758 h 7.742 l -5.339,28.037 -0.467,3.867 z"
     id="path47"
     inkscape:connector-curvature="0" /><path
     style="fill:#ffffff"
     d="m 332.987,71.622 h 7.676 l -0.634,5.382 c 2.424,-3.201 4.86,-5.038 7.308,-5.511 0.623,-0.064 1.201,-0.097 1.735,-0.097 1.557,0 2.714,0.258 3.471,0.773 1.535,0.881 2.514,2.181 2.937,3.899 0.334,1.246 0.501,2.61 0.501,4.093 0,1.096 -0.101,2.256 -0.301,3.48 l -3.671,19.884 H 343.8 l 3.838,-19.529 c 0.422,-2.191 0.155,-3.813 -0.801,-4.866 -1.647,-1.246 -3.416,-1.052 -5.307,0.58 -1.446,1.333 -2.581,3.685 -3.403,7.058 l -3.204,16.758 h -7.741 l 5.339,-28.037 0.466,-3.867 z"
     id="path49"
     inkscape:connector-curvature="0" /><path
     style="fill:#ffffff"
     d="m 374.533,71.203 c 3.693,0 6.329,0.87 7.909,2.61 1.69,1.547 2.603,3.996 2.736,7.348 0.021,0.451 0.033,0.892 0.033,1.321 -0.045,2.557 -0.345,4.984 -0.9,7.283 h -17.387 c -0.846,3.953 -0.378,6.574 1.401,7.863 1.18,0.73 2.447,0.688 3.805,-0.129 1.513,-1.117 2.547,-2.771 3.104,-4.963 h 8.51 c -1.001,3.953 -3.148,7.058 -6.44,9.313 -2.136,1.225 -4.395,1.837 -6.774,1.837 -2.003,0 -4.104,-0.43 -6.308,-1.289 -3.715,-2.191 -5.572,-5.725 -5.572,-10.603 0,-0.43 0.011,-0.87 0.033,-1.321 0.689,-6.553 2.447,-11.461 5.272,-14.728 2.47,-2.855 5.995,-4.37 10.578,-4.542 z m -6.473,12.471 h 9.478 c 0.312,-2.879 0.111,-4.866 -0.601,-5.962 -1.803,-1.912 -3.994,-1.783 -6.574,0.387 -1.269,1.418 -2.037,3.276 -2.303,5.575 z"
     id="path51"
     inkscape:connector-curvature="0" /><path
     style="fill:#ffffff"
     d="m 429.795,103.88 h -7.575 l 0.7,-4.157 c -1.224,2.32 -2.78,3.771 -4.672,4.351 -0.979,0.258 -2.18,0.43 -3.604,0.516 -2.136,-0.279 -3.57,-0.967 -4.305,-2.063 -2.024,-1.955 -3.204,-4.791 -3.537,-8.508 -0.067,-0.859 -0.101,-1.708 -0.101,-2.546 0,-2.664 0.468,-5.414 1.401,-8.25 1.112,-3.094 2.525,-5.5 4.238,-7.219 2.514,-2.792 4.872,-4.21 7.074,-4.254 4.026,-0.365 6.642,1.246 7.843,4.834 l 3.137,-16.758 h 7.909 l -8.508,44.054 z m -7.709,-26.425 c -2.691,0.15 -5.25,3.996 -7.675,11.537 -0.134,6.08 1.034,9.26 3.504,9.539 4.204,-0.645 6.641,-4.329 7.308,-11.054 1.09,-6.424 0.045,-9.765 -3.137,-10.022 z"
     id="path53"
     inkscape:connector-curvature="0" /><path
     style="fill:#ffffff"
     d="m 453.989,71.203 c 3.693,0 6.329,0.87 7.909,2.61 1.69,1.547 2.603,3.996 2.736,7.348 0.021,0.451 0.033,0.892 0.033,1.321 -0.045,2.557 -0.345,4.984 -0.9,7.283 H 446.38 c -0.846,3.953 -0.378,6.574 1.401,7.863 1.18,0.73 2.447,0.688 3.805,-0.129 1.513,-1.117 2.547,-2.771 3.104,-4.963 h 8.51 c -1.001,3.953 -3.148,7.058 -6.44,9.313 -2.136,1.225 -4.395,1.837 -6.774,1.837 -2.003,0 -4.104,-0.43 -6.308,-1.289 -3.715,-2.191 -5.572,-5.725 -5.572,-10.603 0,-0.43 0.011,-0.87 0.033,-1.321 0.689,-6.553 2.447,-11.461 5.272,-14.728 2.469,-2.855 5.995,-4.37 10.578,-4.542 z m -6.474,12.471 h 9.478 c 0.312,-2.879 0.111,-4.866 -0.601,-5.962 -1.803,-1.912 -3.994,-1.783 -6.574,0.387 -1.269,1.418 -2.037,3.276 -2.303,5.575 z"
     id="path55"
     inkscape:connector-curvature="0" /><path
     style="fill:#ffffff"
     d="m 104.741,131.787 h 13.042 l 10.206,24.661 10.447,-24.661 h 13.008 v 46.592 h -9.652 v -29.421 l -12.627,29.421 h -2.525 l -12.523,-29.167 0.104,29.167 h -9.479 v -46.592 z"
     id="path61"
     inkscape:connector-curvature="0" /><path
     style="fill:#ffffff"
     d="m 180.968,131.279 c 5.581,0.783 9.709,3.809 12.385,9.077 2.283,3.894 3.425,8.675 3.425,14.346 v 0.571 c 0,7.088 -1.88,13.119 -5.639,18.091 -2.676,3.343 -6.458,5.215 -11.347,5.618 -0.507,0.042 -1.003,0.063 -1.488,0.063 -5.074,0 -9.329,-1.968 -12.765,-5.903 -3.552,-5.247 -5.351,-10.632 -5.397,-16.155 -0.023,-0.465 -0.035,-0.931 -0.035,-1.396 0,-7.469 1.811,-13.647 5.432,-18.535 2.421,-2.666 4.947,-4.369 7.576,-5.11 1.822,-0.529 3.644,-0.793 5.466,-0.793 0.806,-0.001 1.602,0.042 2.387,0.126 z m -2.665,39.641 c 2.675,-0.127 4.936,-1.809 6.781,-5.046 1.337,-2.158 2.18,-5.332 2.525,-9.521 0.069,-5.332 -0.957,-9.701 -3.079,-13.108 -1.73,-2.37 -3.645,-3.692 -5.743,-3.967 -2.768,0.127 -5.074,1.788 -6.919,4.983 -1.314,2.243 -2.168,5.459 -2.56,9.648 -0.047,5.332 1.003,9.691 3.148,13.076 1.708,2.37 3.657,3.682 5.847,3.935 z"
     id="path63"
     inkscape:connector-curvature="0" /><path
     style="fill:#ffffff"
     d="m 217.34,131.787 12.731,24.819 v -24.819 h 9.41 l 0.035,46.592 h -9.237 l -15.464,-29.358 -0.035,29.39 h -9.513 v -46.624 h 12.073 z"
     id="path65"
     inkscape:connector-curvature="0" /><path
     style="fill:#ffffff"
     d="m 278.518,131.819 v 8.95 h -10.136 v 37.61 h -9.41 v -37.705 h -10.829 v -8.855 h 30.375 z"
     id="path67"
     inkscape:connector-curvature="0" /><path
     style="fill:#ffffff"
     d="m 302.437,131.787 13.077,46.497 h -9.929 l -2.18,-7.903 h -14.011 l -2.214,7.903 h -10.032 l 12.938,-46.497 h 12.351 z m -11.14,29.739 h 9.999 l -4.844,-18.154 -5.155,18.154 z"
     id="path69"
     inkscape:connector-curvature="0" /><path
     style="fill:#ffffff"
     d="m 332.445,131.787 0.034,38.276 h 19.615 l -0.034,8.315 h -29.198 v -46.592 h 9.583 z"
     id="path71"
     inkscape:connector-curvature="0" /><path
     style="fill:#ffffff"
     d="m 370.235,131.851 v 46.528 h -9.617 v -46.528 h 9.617 z"
     id="path73"
     inkscape:connector-curvature="0" /><path
     style="fill:#ffffff"
     d="m 388.239,131.819 10.274,33.452 8.822,-33.452 h 9.859 l -12.281,46.528 h -12.835 l -13.596,-46.528 h 9.757 z"
     id="path75"
     inkscape:connector-curvature="0" /><path
     style="fill:#ffffff"
     d="m 454.778,131.882 v 8.506 h -20.964 v 10.156 h 15.359 v 8.601 h -15.359 v 10.632 h 21.863 v 8.601 h -31.619 l 0.034,-46.497 h 30.686 z"
     id="path77"
     inkscape:connector-curvature="0" /><path
     style="fill:#ffffff"
     d="m 493.85,131.819 v 8.95 h -10.137 v 37.61 h -9.409 v -37.705 h -10.828 v -8.855 h 30.374 z"
     id="path79"
     inkscape:connector-curvature="0" /></g>
<rect
   id="rect83"
   height="432.50699"
   width="508.15399"
   style="fill:none"
   y="439.07999"
   x="33.529999" />
<rect
   id="rect133"
   height="432.50699"
   width="546.40198"
   style="fill:none"
   y="499.314"
   x="14.299" /><g
   id="g3323"
   transform="matrix(0.93927941,0,0,0.93927941,7.5837678,10.978625)"><path
     style="fill:#ffffff"
     d="m 46.139,475.934 h 6.112 c -0.133,2.19 0.29,3.896 1.267,5.121 1.209,0.984 2.468,1.457 3.776,1.42 1.557,0.074 2.898,-0.307 4.025,-1.141 0.977,-0.649 1.516,-1.939 1.615,-3.869 -0.017,-1.614 -0.919,-3.015 -2.708,-4.203 -2.535,-1.67 -4.473,-3.089 -5.814,-4.258 -1.027,-0.872 -1.922,-1.809 -2.684,-2.811 -1.242,-2.022 -1.656,-4.277 -1.242,-6.764 0.513,-3.247 1.615,-5.631 3.305,-7.152 1.54,-1.54 3.337,-2.579 5.392,-3.117 1.375,-0.241 2.6,-0.362 3.677,-0.362 1.243,0 2.286,0.167 3.131,0.501 2.004,0.612 3.462,1.55 4.373,2.811 1.424,1.931 2.187,4.389 2.286,7.376 0,0.26 -0.008,0.52 -0.025,0.779 v 0.808 h -6.286 c -0.033,-2.523 -0.663,-4.23 -1.888,-5.121 -2.418,-1.188 -4.655,-0.752 -6.708,1.308 -0.994,1.336 -1.284,2.783 -0.87,4.342 0.215,0.631 0.646,1.196 1.292,1.698 2.021,1.502 3.834,2.829 5.441,3.979 1.673,1.188 2.89,2.227 3.652,3.117 1.541,1.763 2.352,3.729 2.435,5.9 0.016,1.076 -0.191,2.421 -0.621,4.036 -0.663,2.134 -1.855,3.998 -3.578,5.594 -1.872,1.726 -3.744,2.765 -5.615,3.117 -0.994,0.111 -1.93,0.167 -2.808,0.167 -1.606,0 -3.04,-0.194 -4.298,-0.585 -2.087,-1.002 -3.586,-2.077 -4.497,-3.229 -1.425,-1.873 -2.137,-4.508 -2.137,-7.904 v -1.558 z"
     id="path85"
     inkscape:connector-curvature="0" /><path
     style="fill:#ffffff"
     d="m 78.67,456.451 6.063,-2.477 -1.043,7.32 h 4.323 l -0.969,4.926 h -4.249 l -2.261,14.25 c -0.282,1.93 -0.034,2.895 0.745,2.895 1.243,0.13 2.394,-0.148 3.454,-0.835 -0.066,1.15 -0.141,2.152 -0.224,3.006 -0.083,0.854 -0.19,1.68 -0.323,2.478 -1.027,0.742 -2.369,1.113 -4.025,1.113 -3.512,-0.223 -5.367,-2.022 -5.565,-5.4 0.017,-1.817 0.132,-3.413 0.348,-4.787 l 1.987,-12.774 h -3.528 l 0.919,-4.87 h 3.553 l 0.795,-4.845 z"
     id="path87"
     inkscape:connector-curvature="0" /><path
     style="fill:#ffffff"
     d="m 96.617,470.09 -5.491,-0.168 c 0.1,-2.634 1.35,-4.86 3.752,-6.68 2.153,-1.354 4.323,-2.031 6.509,-2.031 h 0.273 c 2.799,0.241 4.82,1.363 6.063,3.367 0.513,1.002 0.771,2.19 0.771,3.563 0,0.187 -0.009,0.381 -0.025,0.585 0,1.206 -0.141,2.523 -0.422,3.952 l -2.56,16.17 h -5.913 l 0.621,-3.256 c -1.358,2.394 -3.247,3.6 -5.665,3.618 -3.843,-0.056 -5.88,-2.412 -6.112,-7.069 0.149,-4.268 1.872,-7.218 5.168,-8.851 2.169,-0.983 5.085,-1.484 8.746,-1.503 l 0.298,-2.311 c 0.182,-2.096 -0.605,-3.209 -2.36,-3.34 -1.723,0.02 -2.941,1.337 -3.653,3.954 z m 4.97,6.317 -1.938,-0.028 c -3.976,0.65 -5.947,2.57 -5.914,5.762 0.298,1.763 1.126,2.626 2.484,2.588 2.618,-0.482 4.407,-3.256 5.368,-8.322 z"
     id="path89"
     inkscape:connector-curvature="0" /><path
     style="fill:#ffffff"
     d="m 114.937,456.451 6.063,-2.477 -1.043,7.32 h 4.323 l -0.969,4.926 h -4.249 l -2.261,14.25 c -0.282,1.93 -0.034,2.895 0.745,2.895 1.243,0.13 2.394,-0.148 3.454,-0.835 -0.066,1.15 -0.141,2.152 -0.224,3.006 -0.083,0.854 -0.19,1.68 -0.323,2.478 -1.027,0.742 -2.369,1.113 -4.025,1.113 -3.512,-0.223 -5.367,-2.022 -5.565,-5.4 0.017,-1.817 0.132,-3.413 0.348,-4.787 l 1.987,-12.774 h -3.528 l 0.919,-4.87 h 3.553 l 0.795,-4.845 z"
     id="path91"
     inkscape:connector-curvature="0" /><path
     style="fill:#ffffff"
     d="m 129.678,461.572 h 5.988 l -4.795,27.304 h -6.087 l 4.894,-27.304 z m 1.814,-10.492 h 5.764 l -0.969,6.262 h -5.764 l 0.969,-6.262 z"
     id="path93"
     inkscape:connector-curvature="0" /><path
     style="fill:#ffffff"
     d="m 155.875,466.109 c 0.612,1.577 0.919,3.47 0.919,5.678 0,1.021 -0.066,2.106 -0.199,3.256 -0.546,4.25 -1.723,7.516 -3.528,9.797 -2.038,2.599 -4.298,4.036 -6.783,4.314 -0.514,0.037 -0.936,0.056 -1.267,0.056 -0.447,0 -0.919,-0.028 -1.416,-0.083 -2.054,-0.168 -3.885,-1.596 -5.491,-4.287 -0.878,-1.632 -1.317,-3.785 -1.317,-6.457 0,-0.779 0.041,-1.604 0.125,-2.477 0.397,-4.824 1.863,-8.637 4.397,-11.439 1.739,-1.873 3.404,-2.912 4.994,-3.117 0.696,-0.129 1.375,-0.194 2.038,-0.194 h 0.224 c 3.212,-0.001 5.647,1.651 7.304,4.953 z m -10.312,18.286 c 1.325,0.057 2.418,-0.63 3.28,-2.059 0.812,-1.429 1.474,-3.488 1.988,-6.18 0.53,-3.061 0.488,-5.668 -0.124,-7.82 -0.53,-1.726 -1.375,-2.477 -2.535,-2.254 -1.441,-0.223 -2.717,0.723 -3.826,2.838 -0.829,1.764 -1.4,3.768 -1.714,6.012 -0.282,2.691 -0.298,4.751 -0.05,6.18 0.43,2.541 1.424,3.636 2.981,3.283 z"
     id="path95"
     inkscape:connector-curvature="0" /><path
     style="fill:#ffffff"
     d="m 162.119,461.267 h 5.714 l -0.472,4.647 c 1.805,-2.764 3.619,-4.351 5.441,-4.759 0.463,-0.056 0.895,-0.083 1.292,-0.083 1.159,0 2.021,0.223 2.584,0.668 1.143,0.761 1.872,1.883 2.187,3.367 0.249,1.076 0.373,2.254 0.373,3.535 0,0.945 -0.074,1.947 -0.224,3.006 l -2.733,17.172 h -6.112 l 2.857,-16.866 c 0.314,-1.893 0.116,-3.293 -0.596,-4.202 -1.226,-1.076 -2.543,-0.909 -3.951,0.5 -1.077,1.151 -1.922,3.183 -2.534,6.096 l -2.385,14.473 h -5.764 l 3.975,-24.214 0.348,-3.34 z"
     id="path97"
     inkscape:connector-curvature="0" /><path
     style="fill:#ffffff"
     d="m 184.663,461.267 h 5.714 l -0.472,4.647 c 1.805,-2.764 3.619,-4.351 5.441,-4.759 0.463,-0.056 0.895,-0.083 1.292,-0.083 1.159,0 2.021,0.223 2.584,0.668 1.143,0.761 1.872,1.883 2.187,3.367 0.249,1.076 0.373,2.254 0.373,3.535 0,0.945 -0.074,1.947 -0.224,3.006 l -2.733,17.172 h -6.112 l 2.857,-16.866 c 0.314,-1.893 0.116,-3.293 -0.596,-4.202 -1.226,-1.076 -2.543,-0.909 -3.951,0.5 -1.077,1.151 -1.922,3.183 -2.534,6.096 l -2.385,14.473 h -5.764 l 3.975,-24.214 0.348,-3.34 z"
     id="path99"
     inkscape:connector-curvature="0" /><path
     style="fill:#ffffff"
     d="m 214.884,460.904 c 2.75,0 4.712,0.752 5.889,2.255 1.258,1.336 1.938,3.451 2.037,6.346 0.017,0.39 0.025,0.771 0.025,1.142 -0.033,2.208 -0.257,4.305 -0.671,6.289 h -12.945 c -0.629,3.415 -0.282,5.678 1.043,6.791 0.878,0.632 1.822,0.595 2.833,-0.111 1.126,-0.964 1.896,-2.393 2.311,-4.285 h 6.335 c -0.745,3.414 -2.344,6.095 -4.795,8.043 -1.59,1.058 -3.271,1.586 -5.043,1.586 -1.491,0 -3.056,-0.37 -4.696,-1.113 -2.767,-1.893 -4.149,-4.944 -4.149,-9.156 0,-0.371 0.008,-0.752 0.025,-1.141 0.513,-5.659 1.822,-9.899 3.925,-12.72 1.838,-2.469 4.463,-3.776 7.876,-3.926 z m -4.821,10.772 h 7.057 c 0.231,-2.486 0.083,-4.203 -0.447,-5.148 -1.342,-1.651 -2.974,-1.54 -4.895,0.334 -0.944,1.224 -1.516,2.828 -1.715,4.814 z"
     id="path101"
     inkscape:connector-curvature="0" /><path
     style="fill:#ffffff"
     d="m 228.035,461.267 h 5.715 l -0.472,4.647 c 1.805,-2.764 3.619,-4.351 5.441,-4.759 0.463,-0.056 0.894,-0.083 1.292,-0.083 1.159,0 2.021,0.223 2.584,0.668 1.523,1.095 2.319,2.903 2.385,5.427 2.749,-3.767 4.919,-5.696 6.509,-5.789 0.464,-0.148 0.895,-0.223 1.292,-0.223 1.159,0 2.046,0.223 2.659,0.668 1.143,0.854 1.896,1.967 2.261,3.34 0.248,1.076 0.373,2.255 0.373,3.534 0,0.947 -0.075,1.949 -0.224,3.006 l -2.882,17.173 h -6.112 l 2.857,-16.866 c 0.314,-1.893 0.182,-3.367 -0.397,-4.426 -1.358,-0.927 -2.833,-0.686 -4.422,0.725 -1.077,1.15 -1.922,3.182 -2.535,6.095 l -2.162,14.417 h -6.112 l 2.857,-16.866 c 0.314,-1.893 0.116,-3.293 -0.597,-4.202 -1.226,-1.076 -2.542,-0.909 -3.95,0.5 -1.077,1.151 -1.922,3.183 -2.535,6.096 l -2.385,14.473 h -5.764 l 3.976,-24.214 0.348,-3.341 z"
     id="path103"
     inkscape:connector-curvature="0" /><path
     style="fill:#ffffff"
     d="m 270.53,460.904 c 2.75,0 4.712,0.752 5.889,2.255 1.258,1.336 1.938,3.451 2.037,6.346 0.017,0.39 0.025,0.771 0.025,1.142 -0.033,2.208 -0.257,4.305 -0.671,6.289 h -12.945 c -0.629,3.415 -0.282,5.678 1.043,6.791 0.878,0.632 1.822,0.595 2.833,-0.111 1.126,-0.964 1.896,-2.393 2.311,-4.285 h 6.335 c -0.745,3.414 -2.344,6.095 -4.795,8.043 -1.59,1.058 -3.271,1.586 -5.043,1.586 -1.491,0 -3.056,-0.37 -4.696,-1.113 -2.767,-1.893 -4.149,-4.944 -4.149,-9.156 0,-0.371 0.008,-0.752 0.025,-1.141 0.513,-5.659 1.822,-9.899 3.925,-12.72 1.838,-2.469 4.463,-3.776 7.876,-3.926 z m -4.82,10.772 h 7.057 c 0.231,-2.486 0.083,-4.203 -0.447,-5.148 -1.342,-1.651 -2.974,-1.54 -4.895,0.334 -0.945,1.224 -1.517,2.828 -1.715,4.814 z"
     id="path105"
     inkscape:connector-curvature="0" /><path
     style="fill:#ffffff"
     d="m 284.03,461.267 h 5.714 l -0.472,4.647 c 1.805,-2.764 3.619,-4.351 5.441,-4.759 0.463,-0.056 0.895,-0.083 1.292,-0.083 1.159,0 2.021,0.223 2.584,0.668 1.143,0.761 1.872,1.883 2.187,3.367 0.248,1.076 0.373,2.254 0.373,3.535 0,0.945 -0.075,1.947 -0.224,3.006 l -2.733,17.172 h -6.112 l 2.857,-16.866 c 0.314,-1.893 0.116,-3.293 -0.596,-4.202 -1.226,-1.076 -2.543,-0.909 -3.951,0.5 -1.077,1.151 -1.922,3.183 -2.534,6.096 l -2.385,14.473 h -5.764 l 3.975,-24.214 0.348,-3.34 z"
     id="path107"
     inkscape:connector-curvature="0" /><path
     style="fill:#ffffff"
     d="m 307.692,456.451 6.063,-2.477 -1.044,7.32 h 4.323 l -0.969,4.926 h -4.249 l -2.261,14.25 c -0.282,1.93 -0.033,2.895 0.745,2.895 1.242,0.13 2.394,-0.148 3.454,-0.835 -0.066,1.15 -0.142,2.152 -0.224,3.006 -0.083,0.854 -0.191,1.68 -0.323,2.478 -1.027,0.742 -2.369,1.113 -4.025,1.113 -3.512,-0.223 -5.366,-2.022 -5.565,-5.4 0.017,-1.817 0.133,-3.413 0.348,-4.787 l 1.988,-12.774 h -3.528 l 0.919,-4.87 h 3.554 l 0.794,-4.845 z"
     id="path109"
     inkscape:connector-curvature="0" /><path
     style="fill:#ffffff"
     d="m 337.647,449.16 h 12.051 c 2.965,0 5.151,0.779 6.56,2.338 1.44,1.613 2.161,3.72 2.161,6.317 v 0.474 c -0.183,2.653 -0.854,4.88 -2.013,6.68 -1.342,2.115 -3.031,3.544 -5.068,4.285 l 0.994,0.557 c 1.159,0.483 1.805,1.689 1.938,3.619 0.199,2.134 0.249,4.49 0.149,7.068 -0.1,2.58 0.024,5.354 0.373,8.322 h -6.386 c -0.248,-3.859 -0.327,-6.791 -0.236,-8.795 0.091,-2.004 0.104,-3.674 0.037,-5.01 -0.248,-1.15 -1.01,-1.837 -2.285,-2.06 l -5.963,-0.056 -2.659,15.976 h -6.484 l 6.831,-39.715 z m 10.585,5.928 h -5.044 l -2.063,11.244 h 4.199 c 2.965,-0.297 4.861,-1.373 5.689,-3.229 1.325,-2.468 1.516,-4.629 0.572,-6.484 -0.712,-1.15 -1.83,-1.661 -3.353,-1.531 z"
     id="path111"
     inkscape:connector-curvature="0" /><path
     style="fill:#ffffff"
     d="m 371.571,460.904 c 2.75,0 4.713,0.752 5.889,2.255 1.259,1.336 1.938,3.451 2.038,6.346 0.016,0.39 0.024,0.771 0.024,1.142 -0.033,2.208 -0.257,4.305 -0.671,6.289 h -12.944 c -0.63,3.415 -0.282,5.678 1.043,6.791 0.878,0.632 1.822,0.595 2.833,-0.111 1.126,-0.964 1.896,-2.393 2.311,-4.285 h 6.336 c -0.746,3.414 -2.345,6.095 -4.796,8.043 -1.59,1.058 -3.271,1.586 -5.044,1.586 -1.49,0 -3.056,-0.37 -4.695,-1.113 -2.767,-1.893 -4.149,-4.944 -4.149,-9.156 0,-0.371 0.008,-0.752 0.024,-1.141 0.514,-5.659 1.822,-9.899 3.926,-12.72 1.837,-2.469 4.462,-3.776 7.875,-3.926 z m -4.82,10.772 h 7.056 c 0.232,-2.486 0.083,-4.203 -0.447,-5.148 -1.342,-1.651 -2.973,-1.54 -4.895,0.334 -0.944,1.224 -1.516,2.828 -1.714,4.814 z m 9.193,-12.302 -3.603,-0.056 -3.553,-8.99 5.516,-0.027 1.64,9.073 z"
     id="path113"
     inkscape:connector-curvature="0" /><path
     style="fill:#ffffff"
     d="m 396.599,464.996 0.546,-3.396 h 5.839 l -4.423,27.081 c -0.894,4.823 -2.285,8.136 -4.174,9.936 -1.606,1.707 -3.719,2.635 -6.336,2.783 -0.563,0.019 -0.969,0.027 -1.217,0.027 h -0.273 c -2.153,0 -3.885,-0.751 -5.193,-2.254 -1.076,-1.503 -1.697,-3.767 -1.863,-6.791 l 0.124,-1.363 5.715,0.027 c -0.066,2.227 0.307,3.738 1.118,4.537 1.309,0.76 2.675,0.565 4.1,-0.585 1.275,-1.354 2.063,-4.453 2.36,-9.296 -0.928,1.911 -2.626,2.997 -5.094,3.256 -2.799,-0.259 -4.787,-2.143 -5.963,-5.649 -0.745,-3.191 -0.819,-6.643 -0.224,-10.354 1.094,-5.288 2.981,-8.935 5.665,-10.938 0.978,-0.797 2.12,-1.196 3.429,-1.196 0.281,0 0.571,0.019 0.87,0.056 0.612,0 1.15,0.111 1.614,0.334 1.375,0.594 2.501,1.855 3.38,3.785 z m -9.517,11.494 c -0.464,4.658 0.53,6.949 2.981,6.875 2.65,-0.186 4.314,-3.497 4.994,-9.936 0.348,-4.787 -0.68,-7.329 -3.081,-7.627 -2.6,0.391 -4.232,3.954 -4.894,10.688 z"
     id="path115"
     inkscape:connector-curvature="0" /><path
     style="fill:#ffffff"
     d="m 416.509,450.105 -6.56,38.688 h -5.863 l 6.634,-38.688 h 5.789 z"
     id="path117"
     inkscape:connector-curvature="0" /><path
     style="fill:#ffffff"
     d="m 428.218,460.904 c 2.75,0 4.713,0.752 5.889,2.255 1.259,1.336 1.938,3.451 2.038,6.346 0.016,0.39 0.024,0.771 0.024,1.142 -0.033,2.208 -0.257,4.305 -0.671,6.289 h -12.944 c -0.63,3.415 -0.282,5.678 1.043,6.791 0.878,0.632 1.822,0.595 2.833,-0.111 1.126,-0.964 1.896,-2.393 2.311,-4.285 h 6.336 c -0.746,3.414 -2.345,6.095 -4.796,8.043 -1.59,1.058 -3.271,1.586 -5.044,1.586 -1.49,0 -3.056,-0.37 -4.695,-1.113 -2.767,-1.893 -4.149,-4.944 -4.149,-9.156 0,-0.371 0.008,-0.752 0.024,-1.141 0.514,-5.659 1.822,-9.899 3.926,-12.72 1.838,-2.469 4.463,-3.776 7.875,-3.926 z m -4.819,10.772 h 7.056 c 0.232,-2.486 0.083,-4.203 -0.447,-5.148 -1.342,-1.651 -2.973,-1.54 -4.895,0.334 -0.945,1.224 -1.516,2.828 -1.714,4.814 z"
     id="path119"
     inkscape:connector-curvature="0" /><path
     style="fill:#ffffff"
     d="m 441.371,461.267 h 5.714 l -0.472,4.647 c 1.805,-2.764 3.619,-4.351 5.441,-4.759 0.463,-0.056 0.895,-0.083 1.292,-0.083 1.159,0 2.021,0.223 2.584,0.668 1.523,1.095 2.318,2.903 2.385,5.427 2.75,-3.767 4.92,-5.696 6.51,-5.789 0.464,-0.148 0.895,-0.223 1.292,-0.223 1.159,0 2.046,0.223 2.659,0.668 1.143,0.854 1.896,1.967 2.261,3.34 0.248,1.076 0.372,2.255 0.372,3.534 0,0.947 -0.074,1.949 -0.224,3.006 l -2.882,17.173 h -6.112 l 2.857,-16.866 c 0.314,-1.893 0.183,-3.367 -0.397,-4.426 -1.358,-0.927 -2.832,-0.686 -4.423,0.725 -1.076,1.15 -1.921,3.182 -2.534,6.095 l -2.161,14.417 h -6.112 l 2.857,-16.866 c 0.314,-1.893 0.115,-3.293 -0.597,-4.202 -1.226,-1.076 -2.543,-0.909 -3.95,0.5 -1.077,1.151 -1.922,3.183 -2.534,6.096 l -2.386,14.473 h -5.764 l 3.975,-24.214 0.349,-3.341 z"
     id="path121"
     inkscape:connector-curvature="0" /><path
     style="fill:#ffffff"
     d="m 483.865,460.904 c 2.75,0 4.713,0.752 5.889,2.255 1.259,1.336 1.938,3.451 2.038,6.346 0.016,0.39 0.024,0.771 0.024,1.142 -0.033,2.208 -0.257,4.305 -0.671,6.289 H 478.2 c -0.63,3.415 -0.282,5.678 1.043,6.791 0.878,0.632 1.822,0.595 2.833,-0.111 1.126,-0.964 1.896,-2.393 2.311,-4.285 h 6.336 c -0.746,3.414 -2.345,6.095 -4.796,8.043 -1.59,1.058 -3.271,1.586 -5.044,1.586 -1.49,0 -3.056,-0.37 -4.695,-1.113 -2.767,-1.893 -4.149,-4.944 -4.149,-9.156 0,-0.371 0.008,-0.752 0.024,-1.141 0.514,-5.659 1.822,-9.899 3.926,-12.72 1.838,-2.469 4.463,-3.776 7.876,-3.926 z m -4.82,10.772 h 7.056 c 0.232,-2.486 0.083,-4.203 -0.447,-5.148 -1.342,-1.651 -2.973,-1.54 -4.895,0.334 -0.944,1.224 -1.516,2.828 -1.714,4.814 z"
     id="path123"
     inkscape:connector-curvature="0" /><path
     style="fill:#ffffff"
     d="m 497.365,461.267 h 5.715 l -0.473,4.647 c 1.806,-2.764 3.619,-4.351 5.441,-4.759 0.464,-0.056 0.895,-0.083 1.292,-0.083 1.159,0 2.021,0.223 2.584,0.668 1.143,0.761 1.872,1.883 2.187,3.367 0.248,1.076 0.373,2.254 0.373,3.535 0,0.945 -0.075,1.947 -0.224,3.006 l -2.733,17.172 h -6.112 l 2.857,-16.866 c 0.314,-1.893 0.115,-3.293 -0.597,-4.202 -1.226,-1.076 -2.542,-0.909 -3.95,0.5 -1.077,1.151 -1.922,3.183 -2.534,6.096 l -2.386,14.473 h -5.764 l 3.976,-24.214 0.348,-3.34 z"
     id="path125"
     inkscape:connector-curvature="0" /><path
     style="fill:#ffffff"
     d="m 521.027,456.451 6.063,-2.477 -1.044,7.32 h 4.323 l -0.969,4.926 h -4.249 l -2.261,14.25 c -0.282,1.93 -0.033,2.895 0.745,2.895 1.242,0.13 2.394,-0.148 3.454,-0.835 -0.066,1.15 -0.142,2.152 -0.224,3.006 -0.083,0.854 -0.191,1.68 -0.323,2.478 -1.027,0.742 -2.369,1.113 -4.025,1.113 -3.512,-0.223 -5.366,-2.022 -5.565,-5.4 0.017,-1.817 0.133,-3.413 0.348,-4.787 l 1.988,-12.774 h -3.528 l 0.919,-4.87 h 3.554 l 0.794,-4.845 z"
     id="path127"
     inkscape:connector-curvature="0" /><path
     style="fill:#ffffff"
     d="m 542.998,460.904 c 2.75,0 4.713,0.752 5.889,2.255 1.259,1.336 1.938,3.451 2.038,6.346 0.016,0.39 0.024,0.771 0.024,1.142 -0.033,2.208 -0.257,4.305 -0.671,6.289 h -12.944 c -0.63,3.415 -0.282,5.678 1.043,6.791 0.878,0.632 1.822,0.595 2.833,-0.111 1.126,-0.964 1.896,-2.393 2.311,-4.285 h 6.336 c -0.746,3.414 -2.345,6.095 -4.796,8.043 -1.59,1.058 -3.271,1.586 -5.044,1.586 -1.49,0 -3.056,-0.37 -4.695,-1.113 -2.767,-1.893 -4.149,-4.944 -4.149,-9.156 0,-0.371 0.008,-0.752 0.024,-1.141 0.514,-5.659 1.822,-9.899 3.926,-12.72 1.838,-2.469 4.463,-3.776 7.875,-3.926 z m -4.819,10.772 h 7.056 c 0.232,-2.486 0.083,-4.203 -0.447,-5.148 -1.342,-1.651 -2.973,-1.54 -4.895,0.334 -0.945,1.224 -1.516,2.828 -1.714,4.814 z m 6.037,-21.125 6.063,-0.027 -6.783,8.851 h -3.751 l 4.471,-8.824 z"
     id="path129"
     inkscape:connector-curvature="0" /><path
     style="fill:#ffffff"
     d="m 72.227,536.168 h 6.572 c -0.143,2.19 0.311,3.896 1.362,5.121 1.3,0.984 2.654,1.457 4.061,1.42 1.674,0.074 3.116,-0.307 4.328,-1.141 1.051,-0.649 1.63,-1.939 1.737,-3.869 -0.018,-1.614 -0.989,-3.015 -2.912,-4.203 -2.725,-1.67 -4.809,-3.089 -6.251,-4.258 -1.104,-0.872 -2.066,-1.809 -2.885,-2.811 -1.336,-2.022 -1.781,-4.277 -1.336,-6.764 0.552,-3.247 1.736,-5.631 3.553,-7.152 1.656,-1.54 3.589,-2.579 5.797,-3.117 1.478,-0.241 2.796,-0.362 3.954,-0.362 1.336,0 2.458,0.167 3.366,0.501 2.155,0.612 3.722,1.55 4.702,2.811 1.531,1.931 2.351,4.389 2.458,7.376 0,0.26 -0.009,0.52 -0.026,0.779 v 0.808 h -6.759 c -0.036,-2.523 -0.712,-4.23 -2.03,-5.121 -2.601,-1.188 -5.005,-0.752 -7.213,1.308 -1.069,1.336 -1.381,2.783 -0.935,4.342 0.231,0.631 0.694,1.196 1.389,1.698 2.173,1.502 4.123,2.829 5.851,3.979 1.799,1.188 3.108,2.227 3.927,3.117 1.657,1.763 2.529,3.729 2.618,5.9 0.018,1.076 -0.205,2.421 -0.668,4.036 -0.712,2.134 -1.995,3.998 -3.847,5.594 -2.013,1.726 -4.025,2.765 -6.038,3.117 -1.069,0.111 -2.075,0.167 -3.019,0.167 -1.728,0 -3.269,-0.194 -4.622,-0.585 -2.244,-1.002 -3.856,-2.077 -4.836,-3.229 -1.532,-1.873 -2.297,-4.508 -2.297,-7.904 v -1.558 z"
     id="path135"
     inkscape:connector-curvature="0" /><path
     style="fill:#ffffff"
     d="m 105.916,509.672 h 6.492 l -5.664,10.188 h -4.061 l 3.233,-10.188 z"
     id="path137"
     inkscape:connector-curvature="0" /><path
     style="fill:#ffffff"
     d="m 119.461,530.324 -5.904,-0.168 c 0.106,-2.634 1.451,-4.86 4.034,-6.68 2.315,-1.354 4.648,-2.031 7,-2.031 h 0.294 c 3.01,0.241 5.183,1.363 6.519,3.367 0.552,1.002 0.828,2.19 0.828,3.563 0,0.187 -0.009,0.381 -0.026,0.585 0,1.206 -0.152,2.523 -0.455,3.952 L 129,549.082 h -6.358 l 0.668,-3.256 c -1.461,2.394 -3.491,3.6 -6.091,3.618 -4.132,-0.056 -6.323,-2.412 -6.572,-7.069 0.16,-4.268 2.012,-7.218 5.557,-8.851 2.333,-0.983 5.468,-1.484 9.404,-1.503 l 0.321,-2.311 c 0.196,-2.096 -0.65,-3.209 -2.538,-3.34 -1.856,0.021 -3.165,1.337 -3.93,3.954 z m 5.343,6.318 -2.084,-0.028 c -4.275,0.65 -6.395,2.57 -6.358,5.762 0.32,1.763 1.211,2.626 2.671,2.588 2.814,-0.483 4.738,-3.257 5.771,-8.322 z"
     id="path139"
     inkscape:connector-curvature="0" /><path
     style="fill:#ffffff"
     d="m 152.348,549.361 h -6.064 l 0.561,-3.591 c -0.98,2.004 -2.227,3.257 -3.74,3.757 -0.784,0.223 -1.746,0.371 -2.885,0.445 -1.71,-0.241 -2.859,-0.834 -3.447,-1.781 -1.621,-1.688 -2.564,-4.137 -2.832,-7.348 -0.054,-0.741 -0.081,-1.475 -0.081,-2.198 0,-2.301 0.374,-4.676 1.122,-7.125 0.891,-2.672 2.021,-4.75 3.393,-6.234 2.013,-2.412 3.901,-3.637 5.664,-3.674 3.223,-0.315 5.316,1.076 6.278,4.175 l 2.511,-14.473 h 6.332 l -6.812,38.047 z m -6.171,-22.822 c -2.155,0.13 -4.204,3.451 -6.145,9.963 -0.107,5.252 0.828,7.998 2.805,8.238 3.366,-0.557 5.316,-3.738 5.851,-9.546 0.872,-5.548 0.035,-8.432 -2.511,-8.655 z"
     id="path141"
     inkscape:connector-curvature="0" /><path
     style="fill:#ffffff"
     d="m 163.168,521.501 h 6.145 l -0.508,3.868 c 1.318,-2.077 2.627,-3.357 3.928,-3.84 0.587,-0.168 1.139,-0.251 1.656,-0.251 0.427,0 0.979,0.074 1.656,0.223 l -1.603,7.208 c -1.442,-0.519 -2.698,-0.361 -3.767,0.474 -1.354,0.816 -2.529,2.83 -3.527,6.04 l -2.431,13.832 h -6.198 l 4.649,-27.554 z"
     id="path143"
     inkscape:connector-curvature="0" /><path
     style="fill:#ffffff"
     d="m 190.338,521.139 c 2.957,0 5.067,0.752 6.332,2.255 1.353,1.336 2.084,3.451 2.19,6.346 0.018,0.39 0.027,0.771 0.027,1.142 -0.036,2.208 -0.276,4.305 -0.721,6.289 h -13.919 c -0.677,3.415 -0.303,5.678 1.122,6.791 0.944,0.632 1.959,0.595 3.046,-0.111 1.211,-0.964 2.039,-2.393 2.484,-4.285 h 6.813 c -0.802,3.414 -2.521,6.095 -5.156,8.043 -1.71,1.058 -3.518,1.586 -5.423,1.586 -1.603,0 -3.286,-0.37 -5.049,-1.113 -2.975,-1.893 -4.462,-4.944 -4.462,-9.156 0,-0.371 0.009,-0.752 0.027,-1.141 0.552,-5.659 1.959,-9.899 4.221,-12.72 1.976,-2.469 4.799,-3.777 8.468,-3.926 z m -5.182,10.771 h 7.587 c 0.249,-2.486 0.089,-4.203 -0.481,-5.148 -1.443,-1.651 -3.197,-1.54 -5.263,0.334 -1.015,1.224 -1.63,2.829 -1.843,4.814 z"
     id="path145"
     inkscape:connector-curvature="0" /><path
     style="fill:#ffffff"
     d="m 200.677,540.26 h 5.851 c -0.374,1.577 -0.151,2.793 0.668,3.646 0.961,0.742 2.226,0.872 3.793,0.389 1.567,-0.481 2.289,-1.549 2.164,-3.2 0.018,-1.076 -0.712,-2.041 -2.191,-2.895 -1.906,-0.872 -3.66,-2.022 -5.263,-3.451 -1.657,-1.392 -2.253,-3.591 -1.79,-6.597 0.338,-1.893 1.282,-3.497 2.832,-4.814 1.139,-1.002 2.573,-1.614 4.301,-1.837 0.837,-0.056 1.585,-0.083 2.244,-0.083 1.104,0 1.941,0.083 2.511,0.25 1.442,0.315 2.627,0.993 3.553,2.031 1.015,1.225 1.523,2.849 1.523,4.871 0,0.427 -0.027,0.882 -0.08,1.363 h -6.198 c 0.498,-1.817 0.24,-3.042 -0.775,-3.674 -1.853,-0.519 -3.162,-0.231 -3.927,0.863 -1.051,1.577 -0.882,2.83 0.507,3.758 4.115,2.189 6.537,3.822 7.267,4.898 0.89,1.095 1.327,2.542 1.309,4.342 -0.071,1.447 -0.338,2.709 -0.802,3.785 -0.659,1.243 -1.532,2.375 -2.618,3.395 -1.354,1.113 -2.734,1.781 -4.141,2.004 -0.73,0.093 -1.425,0.14 -2.084,0.14 -1.193,0 -2.324,-0.093 -3.393,-0.278 -1.407,-0.482 -2.663,-1.354 -3.767,-2.616 -0.979,-1.058 -1.496,-2.644 -1.549,-4.759 l 0.055,-1.531 z"
     id="path147"
     inkscape:connector-curvature="0" /><path
     style="fill:#ffffff"
     d="m 222.104,540.26 h 5.851 c -0.374,1.577 -0.151,2.793 0.668,3.646 0.961,0.742 2.226,0.872 3.793,0.389 1.567,-0.481 2.289,-1.549 2.164,-3.2 0.018,-1.076 -0.712,-2.041 -2.191,-2.895 -1.906,-0.872 -3.66,-2.022 -5.263,-3.451 -1.657,-1.392 -2.253,-3.591 -1.79,-6.597 0.338,-1.893 1.282,-3.497 2.832,-4.814 1.139,-1.002 2.573,-1.614 4.301,-1.837 0.837,-0.056 1.585,-0.083 2.244,-0.083 1.104,0 1.941,0.083 2.511,0.25 1.442,0.315 2.627,0.993 3.553,2.031 1.015,1.225 1.523,2.849 1.523,4.871 0,0.427 -0.027,0.882 -0.08,1.363 h -6.198 c 0.498,-1.817 0.24,-3.042 -0.775,-3.674 -1.853,-0.519 -3.162,-0.231 -3.927,0.863 -1.051,1.577 -0.882,2.83 0.507,3.758 4.115,2.189 6.537,3.822 7.267,4.898 0.89,1.095 1.327,2.542 1.309,4.342 -0.071,1.447 -0.338,2.709 -0.802,3.785 -0.659,1.243 -1.532,2.375 -2.618,3.395 -1.354,1.113 -2.734,1.781 -4.141,2.004 -0.73,0.093 -1.425,0.14 -2.084,0.14 -1.193,0 -2.324,-0.093 -3.393,-0.278 -1.407,-0.482 -2.663,-1.354 -3.767,-2.616 -0.979,-1.058 -1.496,-2.644 -1.549,-4.759 l 0.055,-1.531 z"
     id="path149"
     inkscape:connector-curvature="0" /><path
     style="fill:#ffffff"
     d="m 256.728,521.139 c 2.957,0 5.067,0.752 6.332,2.255 1.353,1.336 2.084,3.451 2.19,6.346 0.018,0.39 0.027,0.771 0.027,1.142 -0.036,2.208 -0.276,4.305 -0.721,6.289 h -13.919 c -0.677,3.415 -0.303,5.678 1.122,6.791 0.944,0.632 1.959,0.595 3.046,-0.111 1.211,-0.964 2.039,-2.393 2.484,-4.285 h 6.813 c -0.802,3.414 -2.521,6.095 -5.156,8.043 -1.71,1.058 -3.518,1.586 -5.423,1.586 -1.603,0 -3.286,-0.37 -5.049,-1.113 -2.975,-1.893 -4.462,-4.944 -4.462,-9.156 0,-0.371 0.009,-0.752 0.027,-1.141 0.552,-5.659 1.959,-9.899 4.221,-12.72 1.976,-2.469 4.799,-3.777 8.468,-3.926 z m -5.183,10.771 h 7.587 c 0.249,-2.486 0.089,-4.203 -0.481,-5.148 -1.443,-1.651 -3.197,-1.54 -5.263,0.334 -1.015,1.224 -1.629,2.829 -1.843,4.814 z"
     id="path151"
     inkscape:connector-curvature="0" /><path
     style="fill:#ffffff"
     d="m 271.716,521.501 h 6.145 l -0.508,3.868 c 1.318,-2.077 2.627,-3.357 3.928,-3.84 0.587,-0.168 1.139,-0.251 1.656,-0.251 0.427,0 0.979,0.074 1.656,0.223 l -1.603,7.208 c -1.442,-0.519 -2.698,-0.361 -3.767,0.474 -1.354,0.816 -2.529,2.83 -3.527,6.04 l -2.431,13.832 h -6.198 l 4.649,-27.554 z"
     id="path153"
     inkscape:connector-curvature="0" /><path
     style="fill:#ffffff"
     d="m 309.893,530.324 -5.903,-0.168 c 0.106,-2.634 1.451,-4.86 4.033,-6.68 2.315,-1.354 4.648,-2.031 7,-2.031 h 0.294 c 3.01,0.241 5.183,1.363 6.519,3.367 0.552,1.002 0.828,2.19 0.828,3.563 0,0.187 -0.009,0.381 -0.026,0.585 0,1.206 -0.151,2.523 -0.454,3.952 l -2.752,16.17 h -6.358 l 0.668,-3.256 c -1.461,2.394 -3.491,3.6 -6.092,3.618 -4.132,-0.056 -6.322,-2.412 -6.571,-7.069 0.16,-4.268 2.012,-7.218 5.557,-8.851 2.333,-0.983 5.468,-1.484 9.404,-1.503 l 0.32,-2.311 c 0.195,-2.096 -0.65,-3.209 -2.538,-3.34 -1.854,0.021 -3.164,1.337 -3.929,3.954 z m 5.344,6.318 -2.084,-0.028 c -4.274,0.65 -6.395,2.57 -6.358,5.762 0.32,1.763 1.211,2.626 2.672,2.588 2.813,-0.483 4.736,-3.257 5.77,-8.322 z m 3.954,-17.034 -3.874,-0.056 -3.82,-8.99 5.931,-0.027 1.763,9.073 z"
     id="path155"
     inkscape:connector-curvature="0" /><path
     style="fill:#ffffff"
     d="m 352.88,510.34 -7.053,38.688 h -6.306 l 7.134,-38.688 h 6.225 z"
     id="path157"
     inkscape:connector-curvature="0" /><path
     style="fill:#ffffff"
     d="m 362.445,530.324 -5.904,-0.168 c 0.107,-2.634 1.452,-4.86 4.034,-6.68 2.315,-1.354 4.648,-2.031 7,-2.031 h 0.294 c 3.01,0.241 5.183,1.363 6.519,3.367 0.552,1.002 0.828,2.19 0.828,3.563 0,0.187 -0.009,0.381 -0.026,0.585 0,1.206 -0.151,2.523 -0.454,3.952 l -2.752,16.17 h -6.358 l 0.668,-3.256 c -1.461,2.394 -3.491,3.6 -6.092,3.618 -4.132,-0.056 -6.322,-2.412 -6.572,-7.069 0.161,-4.268 2.013,-7.218 5.558,-8.851 2.333,-0.983 5.468,-1.484 9.404,-1.503 l 0.32,-2.311 c 0.195,-2.096 -0.65,-3.209 -2.538,-3.34 -1.854,0.021 -3.164,1.337 -3.929,3.954 z m 5.343,6.318 -2.084,-0.028 c -4.274,0.65 -6.395,2.57 -6.358,5.762 0.32,1.763 1.211,2.626 2.672,2.588 2.813,-0.483 4.737,-3.257 5.77,-8.322 z"
     id="path159"
     inkscape:connector-curvature="0" /><path
     style="fill:#ffffff"
     d="m 399.42,509.395 9.725,0.055 1.977,31.172 13.545,-31.172 9.858,-0.055 -6.679,39.716 h -6.866 l 6.813,-33.481 -15.095,33.537 h -6.332 l -2.805,-31.924 -5.263,31.868 -5.932,-0.056 7.054,-39.66 z"
     id="path161"
     inkscape:connector-curvature="0" /><path
     style="fill:#ffffff"
     d="m 443.286,530.324 -5.904,-0.168 c 0.107,-2.634 1.452,-4.86 4.034,-6.68 2.315,-1.354 4.648,-2.031 7,-2.031 h 0.294 c 3.01,0.241 5.183,1.363 6.519,3.367 0.552,1.002 0.828,2.19 0.828,3.563 0,0.187 -0.009,0.381 -0.026,0.585 0,1.206 -0.151,2.523 -0.454,3.952 l -2.752,16.17 h -6.358 l 0.668,-3.256 c -1.461,2.394 -3.491,3.6 -6.092,3.618 -4.132,-0.056 -6.322,-2.412 -6.572,-7.069 0.161,-4.268 2.013,-7.218 5.558,-8.851 2.333,-0.983 5.468,-1.484 9.404,-1.503 l 0.32,-2.311 c 0.195,-2.096 -0.65,-3.209 -2.538,-3.34 -1.853,0.021 -3.163,1.337 -3.929,3.954 z m 5.344,6.318 -2.084,-0.028 c -4.274,0.65 -6.395,2.57 -6.358,5.762 0.32,1.763 1.211,2.626 2.672,2.588 2.813,-0.483 4.737,-3.257 5.77,-8.322 z"
     id="path163"
     inkscape:connector-curvature="0" /><path
     style="fill:#ffffff"
     d="m 463.03,521.807 h 6.438 l -5.156,27.304 h -6.545 l 5.263,-27.304 z m 1.95,-10.493 h 6.198 l -1.042,6.262 h -6.198 l 1.042,-6.262 z"
     id="path165"
     inkscape:connector-curvature="0" /><path
     style="fill:#ffffff"
     d="m 475.694,521.501 h 6.145 l -0.508,3.868 c 1.318,-2.077 2.627,-3.357 3.928,-3.84 0.588,-0.168 1.14,-0.251 1.656,-0.251 0.428,0 0.979,0.074 1.656,0.223 l -1.603,7.208 c -1.443,-0.519 -2.698,-0.361 -3.768,0.474 -1.354,0.816 -2.529,2.83 -3.526,6.04 l -2.431,13.832 h -6.198 l 4.649,-27.554 z"
     id="path167"
     inkscape:connector-curvature="0" /><path
     style="fill:#ffffff"
     d="m 495.089,521.807 h 6.438 l -5.156,27.304 h -6.545 l 5.263,-27.304 z m 1.95,-10.493 h 6.198 l -1.042,6.262 h -6.198 l 1.042,-6.262 z"
     id="path169"
     inkscape:connector-curvature="0" /><path
     style="fill:#ffffff"
     d="m 516.302,521.139 c 2.956,0 5.067,0.752 6.332,2.255 1.354,1.336 2.084,3.451 2.19,6.346 0.018,0.39 0.027,0.771 0.027,1.142 -0.036,2.208 -0.276,4.305 -0.722,6.289 H 510.21 c -0.678,3.415 -0.304,5.678 1.122,6.791 0.943,0.632 1.959,0.595 3.045,-0.111 1.212,-0.964 2.04,-2.393 2.485,-4.285 h 6.813 c -0.802,3.414 -2.521,6.095 -5.156,8.043 -1.71,1.058 -3.518,1.586 -5.424,1.586 -1.603,0 -3.286,-0.37 -5.049,-1.113 -2.975,-1.893 -4.462,-4.944 -4.462,-9.156 0,-0.371 0.009,-0.752 0.026,-1.141 0.553,-5.659 1.96,-9.899 4.222,-12.72 1.978,-2.469 4.801,-3.777 8.47,-3.926 z m -5.183,10.771 h 7.587 c 0.25,-2.486 0.089,-4.203 -0.48,-5.148 -1.442,-1.651 -3.197,-1.54 -5.263,0.334 -1.015,1.224 -1.63,2.829 -1.844,4.814 z"
     id="path171"
     inkscape:connector-curvature="0" /></g>
</svg>