<?xml version="1.0" encoding="UTF-8" standalone="no"?>
<!-- Generator: Adobe Illustrator 13.0.0, SVG Export Plug-In  -->

<svg
   xmlns:dc="http://purl.org/dc/elements/1.1/"
   xmlns:cc="http://creativecommons.org/ns#"
   xmlns:rdf="http://www.w3.org/1999/02/22-rdf-syntax-ns#"
   xmlns:svg="http://www.w3.org/2000/svg"
   xmlns="http://www.w3.org/2000/svg"
   xmlns:sodipodi="http://sodipodi.sourceforge.net/DTD/sodipodi-0.dtd"
   xmlns:inkscape="http://www.inkscape.org/namespaces/inkscape"
   version="1.1"
   x="0px"
   y="0px"
   width="576"
   height="576"
   viewBox="-0.531 -0.531 576 576"
   enable-background="new -0.531 -0.531 576 576"
   xml:space="preserve"
   id="svg2"
   inkscape:version="0.48.1 "
   sodipodi:docname="C24a_1.svg"
   inkscape:export-filename="C:\Documents and Settings\bertrand.bouteilles\Bureau\Panneaux\A - Route\5_indication\C24a_1.png"
   inkscape:export-xdpi="150"
   inkscape:export-ydpi="150"><metadata
   id="metadata32"><rdf:RDF><cc:Work
       rdf:about=""><dc:format>image/svg+xml</dc:format><dc:type
         rdf:resource="http://purl.org/dc/dcmitype/StillImage" /><dc:title></dc:title></cc:Work></rdf:RDF></metadata><sodipodi:namedview
   pagecolor="#ffffff"
   bordercolor="#666666"
   borderopacity="1"
   objecttolerance="10"
   gridtolerance="10"
   guidetolerance="10"
   inkscape:pageopacity="0"
   inkscape:pageshadow="2"
   inkscape:window-width="826"
   inkscape:window-height="783"
   id="namedview30"
   showgrid="false"
   fit-margin-top="0"
   fit-margin-left="0"
   fit-margin-right="0"
   fit-margin-bottom="0"
   inkscape:zoom="0.39300016"
   inkscape:cx="282.52206"
   inkscape:cy="215.06936"
   inkscape:window-x="110"
   inkscape:window-y="145"
   inkscape:window-maximized="1"
   inkscape:current-layer="svg2" />
<defs
   id="defs4">
</defs>











<path
   d="m 41.46963,574.46928 h 492.00016 c 10.87314,0 21.30224,-4.31848 28.99114,-12.0083 7.6888,-7.68884 12.0083,-18.11698 12.0083,-28.99115 V 41.469665 c 0,-10.87417 -4.3194,-21.3023 -12.0083,-28.99114 -7.6899,-7.68982 -18.119,-12.0093 -28.99214,-12.0093 H 41.46963 c -10.87413,0 -21.30227,4.31948 -28.99113,12.0083 -7.68985,7.68884 -12.00923,18.11797 -12.00923,28.99214 V 533.46983 c 0,10.87417 4.31938,21.30231 12.00823,28.99115 7.68886,7.68883 18.118,12.0083 28.99213,12.0083 z"
   id="path6-1-1-1-1"
   inkscape:connector-curvature="0"
   style="fill:#ffffff;stroke:#000000;stroke-width:1.99998808;stroke-linecap:round;stroke-linejoin:round;stroke-miterlimit:4;stroke-dasharray:none" /><polygon
   points="538.362,538.362 538.362,538.362 538.362,36.576 538.362,36.576 36.576,36.576 36.576,36.576 36.576,538.362 "
   id="polygon8-7-7-7-7"
   transform="matrix(1.0000749,0,0,1.0000749,-0.02128143,-0.02128143)"
   style="fill:#0000ff;stroke:#0000ff;stroke-width:0.17640001;stroke-linecap:round;stroke-linejoin:round" /><g
   id="g2993"
   transform="translate(-5.104,0.391)"><polygon
     transform="translate(-0.27925,-0.27925)"
     style="fill:#ffffff;stroke:none"
     id="polygon10"
     points="152.469,439.247 121.91,439.247 145.13,479.469 168.353,519.69 191.575,479.469 214.795,439.247 188.469,439.247 188.469,190.469 152.469,190.469 " /><polygon
     transform="translate(-0.27925,-0.27925)"
     style="fill:#ffffff;stroke:none"
     id="polygon12"
     points="269.247,95.247 246.026,135.469 273.585,135.469 273.585,514.247 311.585,514.247 311.585,135.469 338.911,135.469 315.69,95.247 292.469,55.025 " /><polygon
     transform="translate(-0.27925,-0.27925)"
     style="fill:#ffffff;stroke:none"
     id="polygon14"
     points="370.91,137.19 398.469,137.19 398.469,515.969 436.469,515.969 436.469,137.19 463.795,137.19 440.574,96.969 417.353,56.747 394.131,96.969 " /><circle
     transform="translate(-0.27925,-0.27925)"
     sodipodi:ry="68.873001"
     sodipodi:rx="68.873001"
     sodipodi:cy="302.46899"
     sodipodi:cx="292.46899"
     style="fill:#ffffff;stroke:none"
     id="circle16"
     r="68.873001"
     cy="302.46899"
     cx="292.46899"
     d="m 361.342,302.46899 c 0,38.03751 -30.8355,68.87301 -68.87301,68.87301 -38.0375,0 -68.873,-30.8355 -68.873,-68.87301 0,-38.0375 30.8355,-68.873 68.873,-68.873 38.03751,0 68.87301,30.8355 68.87301,68.873 z" /><circle
     transform="translate(-0.27925,-0.27925)"
     sodipodi:ry="65.945999"
     sodipodi:rx="65.945999"
     sodipodi:cy="302.46899"
     sodipodi:cx="292.46899"
     style="fill:#d40000;fill-opacity:1;stroke:none"
     id="circle18"
     r="65.945999"
     cy="302.46899"
     cx="292.46899"
     d="m 358.41499,302.46899 c 0,36.42097 -29.52503,65.946 -65.946,65.946 -36.42097,0 -65.946,-29.52503 -65.946,-65.946 0,-36.42097 29.52503,-65.946 65.946,-65.946 36.42097,0 65.946,29.52503 65.946,65.946 z" /><circle
     transform="translate(-0.27925,-0.27925)"
     sodipodi:ry="46.185001"
     sodipodi:rx="46.185001"
     sodipodi:cy="302.46899"
     sodipodi:cx="292.46899"
     style="fill:#ffffff;stroke:none"
     id="circle20"
     r="46.185001"
     cy="302.46899"
     cx="292.46899"
     d="m 338.654,302.46899 c 0,25.50728 -20.67773,46.18501 -46.18501,46.18501 -25.50727,0 -46.185,-20.67773 -46.185,-46.18501 0,-25.50727 20.67773,-46.185 46.185,-46.185 25.50728,0 46.18501,20.67773 46.18501,46.185 z" /><circle
     transform="translate(-0.27925,-0.27925)"
     sodipodi:ry="6.3829999"
     sodipodi:rx="6.3829999"
     sodipodi:cy="314.229"
     sodipodi:cx="311.83499"
     style="stroke:none"
     id="circle22"
     r="6.3829999"
     cy="314.229"
     cx="311.83499"
     d="m 318.21799,314.229 c 0,3.52524 -2.85777,6.383 -6.383,6.383 -3.52523,0 -6.383,-2.85776 -6.383,-6.383 0,-3.52523 2.85777,-6.383 6.383,-6.383 3.52523,0 6.383,2.85777 6.383,6.383 z" /><circle
     transform="translate(-0.27925,-0.27925)"
     sodipodi:ry="6.3889999"
     sodipodi:rx="6.3889999"
     sodipodi:cy="314.229"
     sodipodi:cx="272.742"
     style="stroke:none"
     id="circle24"
     r="6.3889999"
     cy="314.229"
     cx="272.742"
     d="m 279.131,314.229 c 0,3.52855 -2.86045,6.389 -6.389,6.389 -3.52854,0 -6.389,-2.86045 -6.389,-6.389 0,-3.52854 2.86046,-6.389 6.389,-6.389 3.52855,0 6.389,2.86046 6.389,6.389 z" /><path
     inkscape:connector-curvature="0"
     style="stroke:none"
     id="path26"
     d="m 304.39475,314.18575 -24.739,-0.307 -0.247,-1.531 -0.287,-1.137 -0.574,-1.017 -0.778,-1.077 -1.434,-1.255 -1.475,-0.718 -1.557,-0.299 -1.516,-0.061 -1.885,0.419 -1.925,1.136 -1.229,1.257 -0.901,1.555 -0.533,1.974 -0.124,1.348 -7.774,-0.283 0.442,-1.936 h 1.325 l 0.884,-9.998 h 1.104 l 1.105,-8.063 1.104,-0.967 8.174,-0.323 v -6.77 c 0,-0.086 0.034,-0.169 0.096,-0.229 0.062,-0.061 0.144,-0.095 0.23,-0.094 l 51.271,0.318 c 0.178,0.001 0.321,0.144 0.322,0.322 l 0.219,27.418 h -4.958 l -0.116,-0.937 -0.273,-1.194 -0.546,-1.139 -0.545,-0.967 -0.819,-0.967 -1.285,-0.91 -1.287,-0.569 -1.403,-0.284 h -1.832 l -1.325,0.228 -1.48,0.626 -1.364,1.137 -0.741,0.911 -0.896,1.422 -0.39,1.707 -0.038,1.254 z" /><polygon
     transform="translate(-0.27925,-0.27925)"
     style="fill:#ffffff;stroke:none"
     id="polygon28"
     points="271.173,302.857 262.778,302.535 264.104,294.795 271.615,294.795 " /></g>
</svg>