<?xml version="1.0" encoding="UTF-8" standalone="no"?>
<!-- Generator: Adobe Illustrator 13.0.0, SVG Export Plug-In  -->

<svg
   xmlns:dc="http://purl.org/dc/elements/1.1/"
   xmlns:cc="http://creativecommons.org/ns#"
   xmlns:rdf="http://www.w3.org/1999/02/22-rdf-syntax-ns#"
   xmlns:svg="http://www.w3.org/2000/svg"
   xmlns="http://www.w3.org/2000/svg"
   xmlns:sodipodi="http://sodipodi.sourceforge.net/DTD/sodipodi-0.dtd"
   xmlns:inkscape="http://www.inkscape.org/namespaces/inkscape"
   version="1.1"
   x="0px"
   y="0px"
   width="576"
   height="576"
   viewBox="-0.322 -0.549 576 576"
   enable-background="new -0.322 -0.549 576 576"
   xml:space="preserve"
   id="svg2"
   inkscape:version="0.48.1 "
   sodipodi:docname="C24a_4.svg"
   inkscape:export-filename="C:\Documents and Settings\bertrand.bouteilles\Bureau\Panneaux\A - Route\5_indication\C24a_4.png"
   inkscape:export-xdpi="150"
   inkscape:export-ydpi="150"><metadata
   id="metadata38"><rdf:RDF><cc:Work
       rdf:about=""><dc:format>image/svg+xml</dc:format><dc:type
         rdf:resource="http://purl.org/dc/dcmitype/StillImage" /><dc:title></dc:title></cc:Work></rdf:RDF></metadata><sodipodi:namedview
   pagecolor="#ffffff"
   bordercolor="#666666"
   borderopacity="1"
   objecttolerance="10"
   gridtolerance="10"
   guidetolerance="10"
   inkscape:pageopacity="0"
   inkscape:pageshadow="2"
   inkscape:window-width="1920"
   inkscape:window-height="1174"
   id="namedview36"
   showgrid="false"
   fit-margin-top="0"
   fit-margin-left="0"
   fit-margin-right="0"
   fit-margin-bottom="0"
   inkscape:zoom="0.50868056"
   inkscape:cx="-111.08117"
   inkscape:cy="287.9865"
   inkscape:window-x="1276"
   inkscape:window-y="-4"
   inkscape:window-maximized="1"
   inkscape:current-layer="svg2" />
<defs
   id="defs4">
</defs>














<path
   d="m 41.66888,574.46453 h 492.0002 c 10.8731,0 21.3022,-4.31851 28.9911,-12.0083 7.6888,-7.6888 12.0083,-18.117 12.0083,-28.9912 V 41.464915 c 0,-10.87417 -4.3194,-21.3023 -12.0083,-28.99114 -7.6899,-7.68982 -18.119,-12.0093 -28.9921,-12.0093 H 41.66888 c -10.87413,0 -21.30227,4.31948 -28.99113,12.0083 C 4.9879,20.161615 0.66852,30.590745 0.66852,41.464915 V 533.46502 c 0,10.8742 4.31938,21.3024 12.00823,28.9912 7.68886,7.6888 18.118,12.0083 28.99213,12.0083 z"
   id="path6-1-1-1-1"
   inkscape:connector-curvature="0"
   style="fill:#ffffff;stroke:#000000;stroke-width:1.99998808;stroke-linecap:round;stroke-linejoin:round;stroke-miterlimit:4;stroke-dasharray:none" /><polygon
   points="538.362,538.362 538.362,538.362 538.362,36.576 538.362,36.576 36.576,36.576 36.576,36.576 36.576,538.362 "
   id="polygon8-7-7-7-7"
   transform="matrix(1.0000749,0,0,1.0000749,0.17796857,-0.02603143)"
   style="fill:#0000ff;stroke:#0000ff;stroke-width:0.17640001;stroke-linecap:round;stroke-linejoin:round" /><g
   id="g3027"
   transform="translate(-0.0095,0.0135)"><polygon
     id="polygon10"
     points="354.91,132.19 382.469,132.19 382.469,510.969 420.469,510.969 420.469,132.19 447.795,132.19 424.574,91.969 401.353,51.747 378.131,91.969 "
     style="fill:#ffffff" /><g
     id="g3015"><path
       d="M 329.377,232.593 H 63.624 l 0.207,17.171 h 3.889 l -7.453,29.808 -2.914,0.973 h -1.621 l -0.972,1.295 -1.296,1.296 -0.973,1.944 v 0.972 30.131 c 0,4.295 3.396,7.776 7.586,7.776 h 269.3 c 0.868,0 1.699,-0.157 2.476,-0.433 h 4.785 v -5.099 c 0.21,-0.711 0.326,-1.464 0.326,-2.245 v -75.815 c 0,-4.292 -3.399,-7.774 -7.587,-7.774 z"
       id="path12"
       inkscape:connector-curvature="0"
       style="fill:#ffffff" /><polygon
       points="98.825,281.84 94.61,276.981 94.61,253.978 99.146,249.765 146.773,249.765 150.664,253.653 150.664,277.63 146.773,281.84 "
       id="polygon14"
       style="fill:#0000ff" /><polygon
       points="158.764,281.84 154.552,276.981 154.552,253.978 159.087,249.765 206.714,249.765 210.603,253.653 210.603,277.63 206.714,281.84 "
       id="polygon16"
       style="fill:#0000ff" /><polygon
       points="218.378,281.84 214.167,276.981 214.167,253.978 218.703,249.765 266.331,249.765 270.22,253.653 270.22,277.63 266.331,281.84 "
       id="polygon18"
       style="fill:#0000ff" /><polygon
       points="279.291,281.84 275.078,276.981 275.078,253.978 279.613,249.765 327.243,249.765 331.132,253.653 331.132,277.63 327.243,281.84 "
       id="polygon20"
       style="fill:#0000ff" /><polygon
       points="90.399,279.573 88.132,281.84 65.452,281.517 63.185,278.278 70.634,250.089 86.834,249.44 90.399,252.357 "
       id="polygon22"
       style="fill:#0000ff" /><ellipse
       cx="265.521"
       cy="317.80499"
       rx="24.785999"
       ry="23.004999"
       id="ellipse24"
       sodipodi:cx="265.521"
       sodipodi:cy="317.80499"
       sodipodi:rx="24.785999"
       sodipodi:ry="23.004999"
       style="fill:#0000ff"
       d="m 290.307,317.80499 c 0,12.70531 -11.09707,23.005 -24.786,23.005 -13.68893,0 -24.786,-10.29969 -24.786,-23.005 0,-12.70531 11.09707,-23.005 24.786,-23.005 13.68893,0 24.786,10.29969 24.786,23.005 z" /><ellipse
       cx="265.521"
       cy="317.48099"
       rx="19.827999"
       ry="18.403999"
       id="ellipse26"
       sodipodi:cx="265.521"
       sodipodi:cy="317.48099"
       sodipodi:rx="19.827999"
       sodipodi:ry="18.403999"
       style="fill:#ffffff;stroke:#ffffff"
       d="m 285.349,317.48099 c 0,10.16425 -8.8773,18.404 -19.828,18.404 -10.95071,0 -19.828,-8.23975 -19.828,-18.404 0,-10.16425 8.87729,-18.404 19.828,-18.404 10.9507,0 19.828,8.23975 19.828,18.404 z" /><ellipse
       cx="120.37"
       cy="316.83301"
       rx="24.785"
       ry="23.003"
       id="ellipse28"
       sodipodi:cx="120.37"
       sodipodi:cy="316.83301"
       sodipodi:rx="24.785"
       sodipodi:ry="23.003"
       style="fill:#0000ff"
       d="m 145.155,316.83301 c 0,12.7042 -11.09662,23.003 -24.785,23.003 -13.68837,0 -24.784997,-10.2988 -24.784997,-23.003 0,-12.70421 11.096627,-23.003 24.784997,-23.003 13.68838,0 24.785,10.29879 24.785,23.003 z" /><path
       d="m 140.198,316.51 c 0,10.163 -8.877,18.402 -19.828,18.402 -10.954,0 -19.828,-8.239 -19.828,-18.402 0,-10.165 8.874,-18.404 19.828,-18.404 10.951,0 19.828,8.239 19.828,18.404 z"
       id="path30"
       inkscape:connector-curvature="0"
       style="fill:#ffffff;stroke:#ffffff" /></g><polygon
     id="polygon32"
     points="149.119,434.542 172.34,476.107 195.562,517.673 218.783,476.107 242.004,434.542 215.678,434.542 215.678,351.451 179.678,351.451 179.678,434.542 "
     style="fill:#ffffff" /><rect
     id="rect34"
     height="87"
     width="38"
     y="127.451"
     x="179.67799"
     style="fill:#ffffff" /></g>
</svg>