<?xml version="1.0" encoding="UTF-8" standalone="no"?>
<!-- Generator: Adobe Illustrator 13.0.0, SVG Export Plug-In  -->

<svg
   xmlns:dc="http://purl.org/dc/elements/1.1/"
   xmlns:cc="http://creativecommons.org/ns#"
   xmlns:rdf="http://www.w3.org/1999/02/22-rdf-syntax-ns#"
   xmlns:svg="http://www.w3.org/2000/svg"
   xmlns="http://www.w3.org/2000/svg"
   xmlns:sodipodi="http://sodipodi.sourceforge.net/DTD/sodipodi-0.dtd"
   xmlns:inkscape="http://www.inkscape.org/namespaces/inkscape"
   version="1.1"
   x="0px"
   y="0px"
   width="575.99994"
   height="576"
   viewBox="0 -0.031 575.99994 576"
   enable-background="new 0 -0.031 598 600"
   xml:space="preserve"
   id="svg2"
   inkscape:version="0.48.1 "
   sodipodi:docname="C24b_1.svg"
   inkscape:export-filename="C:\Documents and Settings\bertrand.bouteilles\Bureau\Panneaux\A - Route\5_indication\C24b_1.png"
   inkscape:export-xdpi="150"
   inkscape:export-ydpi="150"><metadata
   id="metadata18"><rdf:RDF><cc:Work
       rdf:about=""><dc:format>image/svg+xml</dc:format><dc:type
         rdf:resource="http://purl.org/dc/dcmitype/StillImage" /><dc:title></dc:title></cc:Work></rdf:RDF></metadata><sodipodi:namedview
   pagecolor="#ffffff"
   bordercolor="#666666"
   borderopacity="1"
   objecttolerance="10"
   gridtolerance="10"
   guidetolerance="10"
   inkscape:pageopacity="0"
   inkscape:pageshadow="2"
   inkscape:window-width="1920"
   inkscape:window-height="1174"
   id="namedview16"
   showgrid="false"
   fit-margin-top="0"
   fit-margin-left="0"
   fit-margin-right="0"
   fit-margin-bottom="0"
   inkscape:zoom="0.48833333"
   inkscape:cx="-127.69969"
   inkscape:cy="288.00001"
   inkscape:window-x="1276"
   inkscape:window-y="-4"
   inkscape:window-maximized="1"
   inkscape:current-layer="svg2" />
<defs
   id="defs4">
</defs>


<path
   d="M 42.000354,574.96903 H 534.00053 c 10.8731,0 21.3022,-4.31848 28.9911,-12.0083 7.6888,-7.68884 12.0083,-18.11698 12.0083,-28.99115 V 41.969434 c 0,-10.87417 -4.3194,-21.3023 -12.0083,-28.99114 -7.6899,-7.68982 -18.119,-12.00929996 -28.9921,-12.00929996 H 42.000354 c -10.87413,0 -21.30227,4.31947996 -28.99113,12.00829996 -7.68985,7.68884 -12.00922996,18.11797 -12.00922996,28.99214 V 533.96958 c 0,10.87417 4.31937996,21.30231 12.00822996,28.99115 7.68886,7.68883 18.118,12.0083 28.99213,12.0083 z"
   id="path6-1-1-1-1"
   inkscape:connector-curvature="0"
   style="fill:#ffffff;stroke:#000000;stroke-width:1.99998808;stroke-linecap:round;stroke-linejoin:round;stroke-miterlimit:4;stroke-dasharray:none" /><polygon
   points="538.362,36.576 538.362,36.576 36.576,36.576 36.576,36.576 36.576,538.362 538.362,538.362 538.362,538.362 "
   id="polygon8-7-7-7-7"
   transform="matrix(1.0000749,0,0,1.0000749,0.50943261,0.47848261)"
   style="fill:#0000ff;stroke:#0000ff;stroke-width:0.17640001;stroke-linecap:round;stroke-linejoin:round" />

<g
   id="g3004"
   transform="translate(9.898464,-3.470986)"><polyline
     id="polyline10"
     points="286.265,364.253 174.719,170.61 198.397,156.97 158.199,133.708 118.001,110.446 117.956,156.89   117.91,203.333 141.791,189.578 253.004,382.644 "
     style="fill:#ffffff" /><polyline
     id="polyline12"
     points="247.967,363.079 247.967,519.051 285.967,519.051 285.967,363.746 "
     style="fill:#ffffff" /><polygon
     id="polygon14"
     points="372.967,521.051 410.967,521.051 410.967,142.272 438.293,142.272 415.071,102.051 391.851,61.829 368.629,102.051 345.407,142.272 372.967,142.272 "
     style="fill:#ffffff" /></g>
</svg>