<?xml version="1.0" encoding="UTF-8" standalone="no"?>
<!-- Generator: Adobe Illustrator 13.0.0, SVG Export Plug-In  -->

<svg
   xmlns:dc="http://purl.org/dc/elements/1.1/"
   xmlns:cc="http://creativecommons.org/ns#"
   xmlns:rdf="http://www.w3.org/1999/02/22-rdf-syntax-ns#"
   xmlns:svg="http://www.w3.org/2000/svg"
   xmlns="http://www.w3.org/2000/svg"
   xmlns:sodipodi="http://sodipodi.sourceforge.net/DTD/sodipodi-0.dtd"
   xmlns:inkscape="http://www.inkscape.org/namespaces/inkscape"
   version="1.1"
   x="0px"
   y="0px"
   width="576"
   height="576"
   viewBox="0 -0.031 576 576"
   enable-background="new 0 -0.031 598 600"
   xml:space="preserve"
   id="svg2"
   inkscape:version="0.48.1 "
   sodipodi:docname="C24b_2.svg"
   inkscape:export-filename="C:\Documents and Settings\bertrand.bouteilles\Bureau\Panneaux\A - Route\5_indication\C24b_2.png"
   inkscape:export-xdpi="150"
   inkscape:export-ydpi="150"><metadata
   id="metadata20"><rdf:RDF><cc:Work
       rdf:about=""><dc:format>image/svg+xml</dc:format><dc:type
         rdf:resource="http://purl.org/dc/dcmitype/StillImage" /><dc:title></dc:title></cc:Work></rdf:RDF></metadata><sodipodi:namedview
   pagecolor="#ffffff"
   bordercolor="#666666"
   borderopacity="1"
   objecttolerance="10"
   gridtolerance="10"
   guidetolerance="10"
   inkscape:pageopacity="0"
   inkscape:pageshadow="2"
   inkscape:window-width="1920"
   inkscape:window-height="1174"
   id="namedview18"
   showgrid="false"
   fit-margin-top="0"
   fit-margin-left="0"
   fit-margin-right="0"
   fit-margin-bottom="0"
   inkscape:zoom="0.48833333"
   inkscape:cx="-127.69966"
   inkscape:cy="287.99975"
   inkscape:window-x="1276"
   inkscape:window-y="-4"
   inkscape:window-maximized="1"
   inkscape:current-layer="svg2" />
<defs
   id="defs4">
</defs>





<path
   d="M 42.000365,574.96926 H 534.0005 c 10.8732,0 21.3023,-4.3185 28.9912,-12.0083 7.68879,-7.6888 12.0083,-18.117 12.0083,-28.9911 V 41.96968 C 575,31.09551 570.68059,20.66738 562.9917,12.97854 555.30179,5.28872 544.8727,0.96924 533.9995,0.96924 H 42.000365 c -10.87413,0 -21.30227,4.31948 -28.99113,12.0083 -7.68985,7.68884 -12.00923,18.11797 -12.00923,28.99214 v 492.00018 c 0,10.8741 4.31938,21.3023 12.00823,28.9911 7.68886,7.6889 18.118,12.0083 28.99213,12.0083 z"
   id="path6-1-1-1-1"
   inkscape:connector-curvature="0"
   style="fill:#ffffff;stroke:#000000;stroke-width:1.99998808;stroke-linecap:round;stroke-linejoin:round;stroke-miterlimit:4;stroke-dasharray:none" /><polygon
   points="538.362,538.362 538.362,538.362 538.362,36.576 538.362,36.576 36.576,36.576 36.576,36.576 36.576,538.362 "
   id="polygon8-7-7-7-7"
   transform="matrix(1.0000749,0,0,1.0000749,0.509469,0.478719)"
   style="fill:#0000ff;stroke:#0000ff;stroke-width:0.17640001;stroke-linecap:round;stroke-linejoin:round" /><g
   id="g2997"
   transform="translate(-13.836,-7.471)"><polyline
     id="polyline10"
     points="385.171,388.644 496.384,195.578 520.265,209.333 520.219,162.89 520.174,116.446 479.977,139.708   439.777,162.97 463.456,176.61 351.91,370.253 "
     style="fill:#ffffff" /><polyline
     id="polyline12"
     points="352.208,369.746 352.208,525.051 390.208,525.051 390.208,369.079 "
     style="fill:#ffffff" /><polygon
     id="polygon14"
     points="239.967,525.051 277.967,525.051 277.967,146.272 305.293,146.272 282.071,106.051 258.851,65.829 235.629,106.051 212.407,146.272 239.967,146.272 "
     style="fill:#ffffff" /><polygon
     id="polygon16"
     points="110.967,525.051 148.967,525.051 148.967,146.272 176.293,146.272 153.071,106.051 129.851,65.829 106.629,106.051 83.407,146.272 110.967,146.272 "
     style="fill:#ffffff" /></g>
</svg>