<?xml version="1.0" encoding="UTF-8" standalone="no"?>
<!-- Generator: Adobe Illustrator 13.0.0, SVG Export Plug-In  -->

<svg
   xmlns:dc="http://purl.org/dc/elements/1.1/"
   xmlns:cc="http://creativecommons.org/ns#"
   xmlns:rdf="http://www.w3.org/1999/02/22-rdf-syntax-ns#"
   xmlns:svg="http://www.w3.org/2000/svg"
   xmlns="http://www.w3.org/2000/svg"
   xmlns:sodipodi="http://sodipodi.sourceforge.net/DTD/sodipodi-0.dtd"
   xmlns:inkscape="http://www.inkscape.org/namespaces/inkscape"
   version="1.1"
   x="0px"
   y="0px"
   width="576"
   height="576"
   viewBox="0 -0.031 576 576"
   enable-background="new 0 -0.031 598 600"
   xml:space="preserve"
   id="svg2"
   inkscape:version="0.48.1 "
   sodipodi:docname="C24c_2.svg"
   inkscape:export-filename="C:\Documents and Settings\bertrand.bouteilles\Bureau\Panneaux\A - Route\5_indication\C24c_2.png"
   inkscape:export-xdpi="150"
   inkscape:export-ydpi="150"><metadata
   id="metadata50"><rdf:RDF><cc:Work
       rdf:about=""><dc:format>image/svg+xml</dc:format><dc:type
         rdf:resource="http://purl.org/dc/dcmitype/StillImage" /><dc:title></dc:title></cc:Work></rdf:RDF></metadata><sodipodi:namedview
   pagecolor="#ffffff"
   bordercolor="#666666"
   borderopacity="1"
   objecttolerance="10"
   gridtolerance="10"
   guidetolerance="10"
   inkscape:pageopacity="0"
   inkscape:pageshadow="2"
   inkscape:window-width="1920"
   inkscape:window-height="1174"
   id="namedview48"
   showgrid="false"
   fit-margin-top="0"
   fit-margin-left="0"
   fit-margin-right="0"
   fit-margin-bottom="0"
   inkscape:zoom="0.48833333"
   inkscape:cx="-127.69966"
   inkscape:cy="288.00001"
   inkscape:window-x="1276"
   inkscape:window-y="-4"
   inkscape:window-maximized="1"
   inkscape:current-layer="svg2" />
<defs
   id="defs4">
</defs>




















<path
   d="M 42.000354,574.96903 H 534.00051 c 10.8732,0 21.3023,-4.3185 28.9912,-12.0083 C 570.6805,555.27193 575,544.84376 575,533.96959 V 41.969434 c 0,-10.87417 -4.3194,-21.3023 -12.00829,-28.99114 -7.68991,-7.68982 -18.119,-12.00929996 -28.9922,-12.00929996 H 42.000354 c -10.87413,0 -21.30227,4.31947996 -28.99113,12.00829996 -7.68985,7.68884 -12.00922996,18.11797 -12.00922996,28.99214 V 533.96959 c 0,10.87417 4.31937996,21.30234 12.00822996,28.99114 7.68886,7.6888 18.118,12.0083 28.99213,12.0083 z"
   id="path6-1-1-1-1"
   inkscape:connector-curvature="0"
   style="fill:#ffffff;stroke:#000000;stroke-width:1.99998808;stroke-linecap:round;stroke-linejoin:round;stroke-miterlimit:4;stroke-dasharray:none" /><polygon
   points="538.362,538.362 538.362,538.362 538.362,36.576 538.362,36.576 36.576,36.576 36.576,36.576 36.576,538.362 "
   id="polygon8-7-7-7-7"
   transform="matrix(1.0000749,0,0,1.0000749,0.50946804,0.47848304)"
   style="fill:#0000ff;stroke:#0000ff;stroke-width:0.17640001;stroke-linecap:round;stroke-linejoin:round" /><g
   id="g3027"
   transform="translate(-15.849501,18.931009)"><polygon
     id="polygon10"
     points="153.682,101.997 113.46,125.219 73.238,148.44 113.46,171.661 153.682,194.883 153.682,167.557 532.46,167.557 532.46,129.557 153.682,129.557 "
     style="fill:#ffffff" /><polygon
     id="polygon12"
     points="75.239,346.557 75.239,384.557 454.018,384.557 454.018,411.883 494.239,388.661 534.461,365.44 494.239,342.219 454.018,318.997 454.018,346.557 "
     style="fill:#ffffff" /><rect
     id="rect14"
     height="117"
     width="245"
     y="319.07901"
     x="135"
     style="fill:#0000ff" /><ellipse
     id="ellipse16"
     ry="39"
     rx="39.75"
     cy="370.82901"
     cx="323.75"
     sodipodi:cx="323.75"
     sodipodi:cy="370.82901"
     sodipodi:rx="39.75"
     sodipodi:ry="39"
     style="fill:#ffffff"
     d="m 363.5,370.82901 c 0,21.53911 -17.79668,39 -39.75,39 -21.95332,0 -39.75,-17.46089 -39.75,-39 0,-21.53911 17.79668,-39 39.75,-39 21.95332,0 39.75,17.46089 39.75,39 z" /><ellipse
     id="ellipse18"
     ry="32.460999"
     rx="33.084"
     cy="370.32901"
     cx="323.75101"
     sodipodi:cx="323.75101"
     sodipodi:cy="370.32901"
     sodipodi:rx="33.084"
     sodipodi:ry="32.460999"
     style="fill:#0000ff"
     d="m 356.83501,370.32901 c 0,17.92771 -14.81221,32.461 -33.084,32.461 -18.27179,0 -33.084,-14.53329 -33.084,-32.461 0,-17.92771 14.81221,-32.461 33.084,-32.461 18.27179,0 33.084,14.53329 33.084,32.461 z" /><ellipse
     id="ellipse20"
     ry="39"
     rx="39.75"
     cy="370.57901"
     cx="191"
     sodipodi:cx="191"
     sodipodi:cy="370.57901"
     sodipodi:rx="39.75"
     sodipodi:ry="39"
     style="fill:#ffffff"
     d="m 230.75,370.57901 c 0,21.53911 -17.79668,39 -39.75,39 -21.95332,0 -39.75,-17.46089 -39.75,-39 0,-21.53911 17.79668,-39 39.75,-39 21.95332,0 39.75,17.46089 39.75,39 z" /><ellipse
     id="ellipse22"
     ry="32.460999"
     rx="33.084"
     cy="370.07901"
     cx="191.00101"
     sodipodi:cx="191.00101"
     sodipodi:cy="370.07901"
     sodipodi:rx="33.084"
     sodipodi:ry="32.460999"
     style="fill:#0000ff"
     d="m 224.08501,370.07901 c 0,17.92771 -14.81221,32.461 -33.084,32.461 -18.27179,0 -33.084,-14.53329 -33.084,-32.461 0,-17.92771 14.81221,-32.461 33.084,-32.461 18.27179,0 33.084,14.53329 33.084,32.461 z" /><ellipse
     id="ellipse24"
     ry="11.5"
     rx="12.25"
     cy="376.07901"
     cx="251"
     sodipodi:cx="251"
     sodipodi:cy="376.07901"
     sodipodi:rx="12.25"
     sodipodi:ry="11.5"
     style="fill:#ffffff"
     d="m 263.25,376.07901 c 0,6.35127 -5.48451,11.5 -12.25,11.5 -6.76549,0 -12.25,-5.14873 -12.25,-11.5 0,-6.35127 5.48451,-11.5 12.25,-11.5 6.76549,0 12.25,5.14873 12.25,11.5 z" /><path
     id="path26"
     d="m 282.5,286.079 v 7 h 4.5 v -0.5 c 4.106,0 8.214,0 12.32,0 2.621,0 4.802,4.96 2.433,5.75 -4.25,1.417 -8.501,2.833 -12.753,4.25 5.101,13.995 10.2,27.99 15.301,41.985 2.728,7.487 7.893,29.574 19.699,24.515 -8.441,-7.388 -10.868,-14.68 -14.118,-25.06 -3.961,-12.646 -7.921,-25.294 -11.882,-37.94 7.764,-2.329 15.479,-7.034 9.5,-16 -3.355,-5.033 -14.131,-4.19 -21.127,-4 H 282.5 z"
     inkscape:connector-curvature="0"
     style="fill:#ffffff" /><rect
     id="rect28"
     height="6.5"
     width="70"
     y="310.07901"
     x="225.5"
     style="fill:#ffffff" /><polygon
     id="polygon30"
     points="208,296.579 207.5,299.079 210.5,302.579 216,304.079 220,306.079 243.5,375.079 248,371.579 227,305.079 239.5,298.579 241,295.079 237.5,292.579 211.5,292.079 209.5,293.079 "
     style="fill:#ffffff" /><polygon
     id="polygon32"
     points="192.5,370.079 189,368.579 225.5,310.079 229.5,319.079 "
     style="fill:#ffffff" /><polygon
     id="polygon34"
     points="192,373.579 195,369.079 248.5,373.079 246,379.579 "
     style="fill:#ffffff" /><ellipse
     id="ellipse36"
     ry="6.75"
     rx="7"
     cy="370.07901"
     cx="191"
     sodipodi:cx="191"
     sodipodi:cy="370.07901"
     sodipodi:rx="7"
     sodipodi:ry="6.75"
     style="fill:#ffffff"
     d="m 198,370.07901 c 0,3.72792 -3.13401,6.75 -7,6.75 -3.86599,0 -7,-3.02208 -7,-6.75 0,-3.72792 3.13401,-6.75 7,-6.75 3.86599,0 7,3.02208 7,6.75 z" /><ellipse
     id="ellipse38"
     ry="6.75"
     rx="7"
     cy="369.07901"
     cx="324"
     sodipodi:cx="324"
     sodipodi:cy="369.07901"
     sodipodi:rx="7"
     sodipodi:ry="6.75"
     style="fill:#ffffff"
     d="m 331,369.07901 c 0,3.72792 -3.13401,6.75 -7,6.75 -3.86599,0 -7,-3.02208 -7,-6.75 0,-3.72792 3.13401,-6.75 7,-6.75 3.86599,0 7,3.02208 7,6.75 z" /><polygon
     id="polygon40"
     points="256.573,376.412 253.167,371.008 299.388,319.912 301.333,327.281 "
     style="fill:#ffffff" /><rect
     id="rect42"
     height="3.6259999"
     width="11.499"
     transform="matrix(0.9922,0.125,-0.125,0.9922,51.9045,-27.6086)"
     y="397.96799"
     x="240.19299"
     style="fill:#ffffff" /><line
     id="line44"
     y2="352.57901"
     x2="255"
     y1="399.07901"
     x1="246"
     style="fill:none;stroke:#ffffff;stroke-width:5" /><rect
     id="rect46"
     height="3.6259999"
     width="11.499"
     transform="matrix(0.9922,0.1249,-0.1249,0.9922,45.9672,-29.1535)"
     y="350.133"
     x="249.69099"
     style="fill:#ffffff" /></g>
</svg>