<?xml version="1.0" encoding="UTF-8" standalone="no"?>
<!-- Generator: Adobe Illustrator 13.0.0, SVG Export Plug-In  -->

<svg
   xmlns:dc="http://purl.org/dc/elements/1.1/"
   xmlns:cc="http://creativecommons.org/ns#"
   xmlns:rdf="http://www.w3.org/1999/02/22-rdf-syntax-ns#"
   xmlns:svg="http://www.w3.org/2000/svg"
   xmlns="http://www.w3.org/2000/svg"
   xmlns:sodipodi="http://sodipodi.sourceforge.net/DTD/sodipodi-0.dtd"
   xmlns:inkscape="http://www.inkscape.org/namespaces/inkscape"
   version="1.1"
   x="0px"
   y="0px"
   width="575.99994"
   height="576.00006"
   viewBox="0 -0.031 575.99994 576.00006"
   enable-background="new 0 -0.031 598 600"
   xml:space="preserve"
   id="svg2"
   inkscape:version="0.48.1 "
   sodipodi:docname="C24c_1.svg"
   inkscape:export-filename="C:\Documents and Settings\bertrand.bouteilles\Bureau\Panneaux\A - Route\5_indication\C24c_1.png"
   inkscape:export-xdpi="150"
   inkscape:export-ydpi="150"><metadata
   id="metadata32"><rdf:RDF><cc:Work
       rdf:about=""><dc:format>image/svg+xml</dc:format><dc:type
         rdf:resource="http://purl.org/dc/dcmitype/StillImage" /><dc:title></dc:title></cc:Work></rdf:RDF></metadata><sodipodi:namedview
   pagecolor="#ffffff"
   bordercolor="#666666"
   borderopacity="1"
   objecttolerance="10"
   gridtolerance="10"
   guidetolerance="10"
   inkscape:pageopacity="0"
   inkscape:pageshadow="2"
   inkscape:window-width="1920"
   inkscape:window-height="1174"
   id="namedview30"
   showgrid="false"
   fit-margin-top="0"
   fit-margin-left="0"
   fit-margin-right="0"
   fit-margin-bottom="0"
   inkscape:zoom="0.435"
   inkscape:cx="113.12986"
   inkscape:cy="331.59833"
   inkscape:window-x="1276"
   inkscape:window-y="-4"
   inkscape:window-maximized="1"
   inkscape:current-layer="svg2" />
<defs
   id="defs4">
</defs>


<path
   d="M 42.000354,574.96905 H 534.00052 c 10.87314,0 21.30224,-4.3185 28.99114,-12.0083 7.6888,-7.6889 12.0083,-18.117 12.0083,-28.9912 V 41.969434 c 0,-10.87417 -4.3194,-21.3023 -12.0083,-28.99114 -7.6899,-7.68982 -18.119,-12.00929996 -28.99214,-12.00929996 H 42.000354 c -10.87413,0 -21.30227,4.31947996 -28.99113,12.00829996 -7.68985,7.68884 -12.00922996,18.11797 -12.00922996,28.99214 V 533.96955 c 0,10.8742 4.31937996,21.3023 12.00822996,28.9912 7.68886,7.6888 18.118,12.0083 28.99213,12.0083 z"
   id="path6-1-1-1-1"
   inkscape:connector-curvature="0"
   style="fill:#ffffff;stroke:#000000;stroke-width:1.99998808;stroke-linecap:round;stroke-linejoin:round;stroke-miterlimit:4;stroke-dasharray:none" /><polygon
   points="538.362,36.576 538.362,36.576 36.576,36.576 36.576,36.576 36.576,538.362 538.362,538.362 538.362,538.362 "
   id="polygon8-7-7-7-7"
   transform="matrix(1.0000749,0,0,1.0000749,0.50944761,0.47849261)"
   style="fill:#0000ff;stroke:#0000ff;stroke-width:0.17640001;stroke-linecap:round;stroke-linejoin:round" />








<g
   id="g3011"
   transform="translate(-3.434021,-7.441226)"><polyline
     transform="translate(0,-0.02975)"
     style="fill:#ffffff;stroke:none"
     id="polyline10"
     points="119,311.323 419.018,311.323 419.018,338.883 459.239,315.661 499.461,292.439 459.239,269.219   419.018,245.997 419.018,273.323 119,273.323 " /><polygon
     transform="translate(0,-0.02975)"
     style="fill:#ffffff;stroke:none"
     id="polygon12"
     points="110.967,525.051 148.967,525.051 148.967,146.272 176.293,146.272 153.071,106.051 129.851,65.829 106.629,106.051 83.407,146.272 110.967,146.272 " /><path
     inkscape:connector-curvature="0"
     style="fill:#d40000;fill-opacity:1;stroke:none"
     id="path16"
     d="M 217.732,346.52825 H 345.78 c 1.654,0 3.184,-0.883 4.011,-2.315 0.828,-1.434 0.828,-3.199 0,-4.632 l -64.023,-110.893 c -0.828,-1.433 -2.357,-2.315 -4.012,-2.315 -1.655,0 -3.184,0.882 -4.011,2.315 l -64.024,110.892 c -0.827,1.433 -0.827,3.198 0,4.632 0.828,1.433 2.356,2.316 4.011,2.316 z" /><polygon
     transform="translate(0,-0.02975)"
     style="fill:#ffffff;stroke:none"
     id="polygon18"
     points="225.799,337.269 281.756,240.349 337.713,337.269 " /><polygon
     transform="translate(0,-0.02975)"
     style="fill:#000000;stroke:none"
     id="polygon20"
     points="308.86,323.657 312.814,323.661 312.814,318.39 308.824,318.39 308.693,298.762 312.853,298.762 308.656,293.166 305.182,288.324 301.805,292.862 301.805,293.127 296.71,293.098 293.285,288.324 289.909,292.862 289.909,293.059 285.361,293.031 281.983,288.324 278.607,292.862 278.607,292.992 273.896,292.965 270.564,288.324 267.188,292.862 267.188,292.927 262.714,292.901 259.43,288.324 256.054,292.862 251.681,298.762 256.054,298.762 256.054,318.39 252.487,318.39 252.487,323.606 256.054,323.609 256.054,329.079 263.145,329.079 263.108,323.615 267.188,323.62 267.188,329.079 274.28,329.079 274.243,323.626 278.607,323.63 278.607,329.079 285.699,329.079 285.662,323.637 289.909,323.641 289.909,329.079 297,329.079 296.964,323.646 301.805,323.651 301.805,329.079 308.896,329.079 " /><polygon
     transform="translate(0,-0.02975)"
     style="fill:#ffffff;stroke:none"
     id="polygon22"
     points="296.929,318.39 301.805,318.39 301.805,298.762 296.797,298.762 " /><polygon
     transform="translate(0,-0.02975)"
     style="fill:#ffffff;stroke:none"
     id="polygon24"
     points="285.627,318.39 289.909,318.39 289.909,298.762 285.496,298.762 " /><polygon
     transform="translate(0,-0.02975)"
     style="fill:#ffffff;stroke:none"
     id="polygon26"
     points="274.208,318.39 278.607,318.39 278.607,298.762 274.077,298.762 " /><polygon
     transform="translate(0,-0.02975)"
     style="fill:#ffffff;stroke:none"
     id="polygon28"
     points="263.073,318.39 267.188,318.39 267.188,298.762 262.941,298.762 " /></g>
</svg>