<?xml version="1.0" encoding="UTF-8" standalone="no"?>
<!-- Generator: Adobe Illustrator 16.0.2, SVG Export Plug-In . SVG Version: 6.00 Build 0)  -->

<svg
   xmlns:dc="http://purl.org/dc/elements/1.1/"
   xmlns:cc="http://creativecommons.org/ns#"
   xmlns:rdf="http://www.w3.org/1999/02/22-rdf-syntax-ns#"
   xmlns:svg="http://www.w3.org/2000/svg"
   xmlns="http://www.w3.org/2000/svg"
   xmlns:sodipodi="http://sodipodi.sourceforge.net/DTD/sodipodi-0.dtd"
   xmlns:inkscape="http://www.inkscape.org/namespaces/inkscape"
   version="1.1"
   id="svg2448"
   sodipodi:docname="C25a.svg"
   inkscape:version="0.48.1 "
   x="0px"
   y="0px"
   width="575.99988"
   height="840.00012"
   viewBox="0 0 575.9999 840.00013"
   xml:space="preserve"
   inkscape:export-filename="C:\Documents and Settings\bertrand.bouteilles\Bureau\Panneaux\A - Route\5_indication\C25a.png"
   inkscape:export-xdpi="150"
   inkscape:export-ydpi="150"><metadata
   id="metadata60"><rdf:RDF><cc:Work
       rdf:about=""><dc:format>image/svg+xml</dc:format><dc:type
         rdf:resource="http://purl.org/dc/dcmitype/StillImage" /><dc:title></dc:title></cc:Work></rdf:RDF></metadata><defs
   id="defs58">
	
	
	
	

		
			
		
			
		
	
		
			
		
			
		
			
		
	
		
			
		
			
		
	</defs>
<sodipodi:namedview
   id="namedview46"
   inkscape:current-layer="svg2448"
   inkscape:window-y="-4"
   inkscape:window-x="1276"
   fit-margin-bottom="0"
   fit-margin-right="0"
   inkscape:window-height="1174"
   inkscape:window-width="1920"
   inkscape:pageshadow="2"
   inkscape:pageopacity="0"
   inkscape:window-maximized="1"
   objecttolerance="10"
   fit-margin-top="0"
   inkscape:cy="728.02992"
   borderopacity="1"
   showgrid="false"
   inkscape:cx="146.6181"
   bordercolor="#666666"
   pagecolor="#ffffff"
   inkscape:zoom="0.40896803"
   guidetolerance="10"
   fit-margin-left="0"
   gridtolerance="10"
   showguides="true"
   inkscape:guide-bbox="true">
	</sodipodi:namedview>
<polygon
   id="polygon6"
   style="fill:#ffffff;stroke:#000000;stroke-width:2.07325697;stroke-linecap:round;stroke-linejoin:round;stroke-miterlimit:4;stroke-dasharray:none"
   points="20.976,869.102 16.712,867.895 12.712,865.923 9.095,863.248 5.974,859.951 3.443,856.131 1.577,851.904 0.435,847.399 0.05,842.753 0.05,26.756 0.435,22.11 1.577,17.606 3.443,13.379 5.974,9.559 9.095,6.261 12.712,3.586 16.712,1.616 20.976,0.409 25.373,0.002 569.823,0.002 574.222,0.409 578.486,1.616 582.487,3.586 586.102,6.261 589.224,9.559 591.755,13.379 593.619,17.606 594.763,22.11 595.148,26.756 595.148,842.753 594.763,847.399 593.619,851.904 591.755,856.131 589.224,859.951 586.102,863.248 582.487,865.923 578.486,867.895 574.222,869.102 569.823,869.507 25.373,869.507 "
   transform="matrix(0.96454864,0,0,0.96376812,0.95124653,0.99753443)" /><polyline
   id="polyline8"
   style="fill:#0000ff"
   points="19.606,15.547 19.606,852.461 575.593,852.461 575.593,15.547   19.606,15.547 "
   transform="matrix(0.96454864,0,0,0.96376812,0.95076426,1.7208424)" /><g
   id="g3840"
   transform="translate(0.78036311,390.26791)">
	
	
	
	
	
	
	
	
	
	
	
	
	
	
</g>





<path
   inkscape:connector-curvature="0"
   id="rect3748-1"
   style="fill:none"
   d="M 25.406869,1.3736655 H 550.59495 c 13.23023,0 23.9539,10.5251255 23.9539,23.5081015 V 815.11836 c 0,12.98484 -10.72557,23.5081 -23.9539,23.5081 H 25.406869 C 12.176639,838.62846 1.4510699,828.1032 1.4510699,815.11836 V 24.881767 c 0,-12.982976 10.7255691,-23.5081015 23.9557991,-23.5081015 z" /><g
   id="g3888"
   transform="translate(1.8290779,12.650221)"><rect
     height="198.91441"
     width="462.53357"
     style="fill:#ffffff"
     y="574.91107"
     x="54.904095"
     id="rect3754" /><g
     transform="matrix(1.7581081,0,0,1.7252516,30.809828,30.420325)"
     id="g3327">
		<path
   d="m 186.988,341.753 h 57.004 c 1.637,0 2.965,2.157 2.965,4.818 v 53.298 c 0,2.661 -1.328,4.818 -2.965,4.818 h -57.004 c -1.637,0 -2.964,-2.157 -2.964,-4.818 V 346.57 c 0,-2.661 1.327,-4.817 2.964,-4.817 z"
   style="fill:none"
   id="rect2208"
   inkscape:connector-curvature="0" />
		<path
   d="m 187.58,345.309 h 55.821 V 401.13 H 187.58 v -55.821 z"
   style="fill:#0000ff"
   inkscape:connector-curvature="0"
   id="rect4887" />
		<path
   d="m 207.198,347.885 -1.959,13.275 h 6.925 v -13.275 h -4.966 z m 11.518,0 v 13.275 h 6.891 l -1.925,-13.275 h -4.966 z m -28.779,16.382 v 3.682 c 5.073,0 5.067,0.006 5.067,6.992 h 3.783 c 0,-7.005 0.002,-6.992 5.067,-6.992 h 23.476 c 4.742,0 4.763,-0.013 4.763,6.992 h 3.749 c 0,-7.005 0.002,-6.992 5.067,-6.992 v -3.682 h -50.972 z m 13.376,6.35 -4.425,27.833 h 13.275 v -27.833 h -8.85 z m 15.403,0 v 27.833 h 13.275 l -4.425,-27.833 h -8.85 z"
   style="fill:#ffffff"
   inkscape:connector-curvature="0"
   id="path7442" />
	</g><rect
     height="198.91628"
     width="462.53357"
     style="fill:#ffffff"
     y="358.59027"
     x="54.904095"
     id="rect3752" /><g
     transform="translate(410.20756,-30.580456)"
     id="g3096"><circle
       d="m 561.03699,287.05701 c 0,151.31663 -122.66637,273.983 -273.983,273.983 -151.31664,0 -273.983006,-122.66637 -273.983006,-273.983 0,-151.31664 122.666366,-273.983005 273.983006,-273.983005 151.31663,0 273.983,122.666365 273.983,273.983005 z"
       r="273.983"
       cy="287.05701"
       cx="287.05399"
       style="fill:#d40000"
       sodipodi:ry="273.983"
       sodipodi:rx="273.983"
       sodipodi:cx="287.05399"
       sodipodi:cy="287.05701"
       id="circle3503"
       transform="matrix(0.31485153,0,0,0.30896741,-319.30538,399.93763)">
		</circle><circle
       d="m 479.49199,287.05499 c 0,106.28058 -86.15743,192.43801 -192.438,192.43801 -106.28058,0 -192.438008,-86.15743 -192.438008,-192.43801 0,-106.28057 86.157428,-192.438001 192.438008,-192.438001 106.28057,0 192.438,86.157431 192.438,192.438001 z"
       r="192.438"
       cy="287.05499"
       cx="287.05399"
       style="fill:#ffffff"
       sodipodi:ry="192.438"
       sodipodi:rx="192.438"
       sodipodi:cx="287.05399"
       sodipodi:cy="287.05499"
       id="circle3505"
       transform="matrix(0.31485153,0,0,0.30896741,-319.30538,399.93825)">
		</circle><path
       d="m -256.36634,460.86928 v 0.0766 c 1.45871,-0.15108 2.84311,-0.22585 4.14975,-0.22585 4.30559,0 7.75164,0.81598 10.33878,2.45135 3.35726,2.1362 5.63804,4.76396 6.84235,7.88175 1.22855,3.11779 1.99868,6.77628 2.30503,10.97422 0.12814,1.73732 0.193,3.50925 0.193,5.31949 0,2.56412 -0.12814,5.21753 -0.38412,7.95653 -0.43607,4.6274 -1.56449,8.6758 -3.38308,12.14705 -3.43314,5.27933 -8.04508,8.27168 -13.8352,8.97458 -0.48802,0.0256 -0.94834,0.0383 -1.38441,0.0383 -11.17187,0 -17.92355,-4.41267 -20.25439,-13.23771 l 10.68385,-2.79183 0.61617,1.13082 c 1.22855,2.58977 3.84339,3.88619 7.83886,3.88619 3.51122,-0.17672 5.85497,-1.60972 7.03346,-4.29959 0.61617,-1.1818 1.24335,-4.7513 1.88376,-10.7119 -5.35405,3.64582 -11.03082,4.42534 -17.02528,2.33827 -5.66386,-2.33827 -9.11023,-5.92043 -10.33878,-10.75021 -0.23205,-1.4058 -0.34697,-2.76433 -0.34697,-4.07219 0,-4.32338 1.31955,-8.0968 3.95832,-11.3147 2.89506,-3.29452 6.56024,-5.21753 10.99209,-5.7712 h 0.11681 m 2.57423,22.7057 c 5.45795,0.20022 8.51988,-1.77378 9.18611,-5.92228 -0.0781,-4.0209 -2.2937,-6.28656 -6.64935,-6.78925 -5.48377,-0.45171 -8.58317,1.39684 -9.30135,5.54534 -0.12814,4.2999 2.12683,6.68915 6.76459,7.16619 m 45.89024,22.29077 c 1.58843,0.1001 2.5758,0.0748 2.95992,-0.0766 l 0.0371,0.0766 2.11391,-0.45357 c 1.69265,-0.55367 2.98606,-1.74659 3.88244,-3.58216 0.69236,-1.83558 1.20431,-4.02461 1.53836,-6.5634 l 0.19112,-8.52287 -0.11492,-3.99927 -0.38412,-2.97937 -0.15396,-0.15109 -0.49936,-2.11055 -0.15396,-0.0766 c -0.38412,-1.50776 -1.11521,-2.90275 -2.19168,-4.18682 -0.8183,-0.65377 -1.47162,-1.07984 -1.95964,-1.28221 l -2.22883,-0.52803 -2.34376,-0.11277 c -1.05034,-0.0256 -2.21781,0.18755 -3.49831,0.64111 -1.17849,0.55367 -2.16587,1.54607 -2.95992,2.97937 -0.56233,1.3332 -1.07459,3.00471 -1.53648,5.01732 l 0.0762,0.22586 c -0.15208,0.12575 -0.24307,0.541 -0.2692,1.24576 -0.3583,2.94106 -0.39703,7.25177 -0.11492,12.93553 l 0.61616,4.1102 0.80728,2.9046 c 0.58814,1.50961 1.39542,2.60243 2.41995,3.28154 0.92157,0.57715 2.17814,0.97974 3.76657,1.20745 m -19.14077,-11.39132 c -0.0762,-1.40766 -0.11492,-2.79183 -0.11492,-4.14851 0,-0.67942 0.0129,-1.35667 0.039,-2.03795 0.0762,-2.66422 0.29502,-5.25399 0.65332,-7.76898 v -0.26232 l 0.15396,-0.34048 0.2692,-2.60243 0.19111,-0.37694 0.38412,-2.11241 0.15396,-0.22586 c 0.38412,-1.81024 1.21754,-3.84818 2.49804,-6.10983 l 1.1152,-1.661 2.15264,-2.14887 c 2.28079,-1.81024 5.23882,-3.10513 8.87818,-3.88434 1.15236,-0.20207 2.34376,-0.30217 3.5742,-0.30217 h 0.30792 c 1.92091,0.051 3.9325,0.36613 6.03319,0.94328 0.87025,0.1001 2.26787,0.66644 4.18847,1.69715 1.97443,1.20745 3.7672,2.85363 5.38176,4.9407 l 1.23044,1.84855 0.99839,2.07441 0.42316,1.50776 0.11492,0.11278 v 0.37879 c 0.25598,0.52802 0.41025,0.94142 0.4622,1.2439 l 0.15208,0.18755 0.65331,3.35816 0.11681,0.0748 -0.0781,0.49002 0.15396,0.30217 0.38412,4.03574 0.15396,0.37694 -0.11492,0.0383 0.2692,2.37472 -0.0781,0.0766 c 0.1039,0.25119 0.1039,0.40258 0,0.45171 l 0.11492,0.37879 -0.0762,0.11277 0.19301,2.56412 -0.0781,0.0766 0.11492,1.09282 -0.0372,0.0766 v 1.50776 c -0.0261,0.92876 -0.1039,2.04876 -0.23204,3.35631 l -0.19112,1.39685 0.0762,0.0729 -0.19112,0.3788 c -0.0781,0.92875 -0.29501,2.03609 -0.65331,3.318 l -0.23205,0.71742 -0.0371,0.41525 -1.00029,2.78998 -0.19111,0.15108 c 0,0.25119 -0.33406,1.01805 -1.00028,2.29996 l -1.84472,2.60428 c -2.02481,2.28729 -4.26655,3.95911 -6.72554,5.01547 -1.61456,0.62844 -3.24203,1.04338 -4.88083,1.2439 l -2.95992,0.1894 -0.69236,-0.0383 c -5.84207,-0.15109 -10.55571,-2.01045 -14.14313,-5.58181 -1.76852,-1.93599 -3.10097,-4.18681 -3.99735,-6.75094 -1.02453,-2.6151 -1.65361,-5.36861 -1.88376,-8.26055 l -0.15239,-1.65946"
       inkscape:connector-curvature="0"
       id="path3507" /></g><rect
     height="198.91628"
     width="462.53357"
     style="fill:#ffffff"
     y="145.99919"
     x="54.904095"
     id="rect3750" /><g
     transform="translate(331.37762,229.44087)"
     id="g3106"><circle
       d="m 561.03598,287.05701 c 0,151.31552 -122.66547,273.98098 -273.98099,273.98098 -151.31552,0 -273.980985,-122.66546 -273.980985,-273.98098 0,-151.31552 122.665465,-273.980991 273.980985,-273.980991 151.31552,0 273.98099,122.665471 273.98099,273.980991 z"
       r="273.98099"
       cy="287.05701"
       cx="287.05499"
       style="fill:#d40000"
       sodipodi:ry="273.98099"
       sodipodi:rx="273.98099"
       sodipodi:cx="287.05499"
       sodipodi:cy="287.05701"
       id="circle2450"
       transform="matrix(0.31959689,0,0,0.31362408,-241.83794,-74.011532)">
		</circle><circle
       d="m 479.493,287.05701 c 0,106.28057 -86.15743,192.438 -192.43801,192.438 -106.28057,0 -192.438001,-86.15743 -192.438001,-192.438 0,-106.28058 86.157431,-192.438007 192.438001,-192.438007 106.28058,0 192.43801,86.157427 192.43801,192.438007 z"
       r="192.438"
       cy="287.05701"
       cx="287.05499"
       style="fill:#ffffff"
       sodipodi:ry="192.438"
       sodipodi:rx="192.438"
       sodipodi:cx="287.05499"
       sodipodi:cy="287.05701"
       id="circle2452"
       transform="matrix(0.31959689,0,0,0.31362408,-241.83794,-74.011532)">
		</circle><path
       d="m -157.48785,-12.198712 -0.039,10.7573097 h -19.27265 l -1.32697,9.57086 c 1.82043,-0.50995 3.74504,-0.72666 5.77352,-0.65014 1.89841,-0.0511 3.8358,0.15305 5.81251,0.61188 2.86167,0.8932 5.41142,2.4632003 7.64763,4.7093803 3.09562,3.31814 4.85117,6.99319 5.26664,11.02608 0.0259,0.58648 0.039,1.16104 0.039,1.72274 0,2.45034 -0.32471,4.56825 -0.97605,6.35496 -1.19529,2.73073 -2.83386,5.18107 -4.91604,7.35104 -3.43151,3.16415 -7.61982,4.7467 -12.56207,4.7467 h -0.7795 l -3.58907,-0.22957 c -3.74504,-0.40897 -6.9963,-1.69734 -9.7541,-3.8673 -3.56318,-3.21528 -5.76041,-6.52056 -6.5936,-9.91523 l 11.23703,-2.79533 c 0.33781,1.50602 1.22309,2.85931 2.65201,4.0583 2.16016,1.55714 5.20176,1.87672 9.13056,0.95686 3.24966,-1.30122 4.77127,-3.57312 4.56353,-6.81473 0.078,-2.9349 -1.27487,-5.01454 -4.05665,-6.24018 -1.92461,-0.56076 -4.09563,-0.71475 -6.51562,-0.45884 -1.84663,0.38231 -3.49831,1.08452 -4.95503,2.10536 l -9.71319,-7.46582 2.88564,-25.53496 h 30.04147 m 27.89474,45.71165 c 1.61077,0.10193 2.61302,0.0765 3.00261,-0.0765 l 0.039,0.0765 2.14546,-0.45977 c 1.71655,-0.56076 3.03041,-1.77386 3.94158,-3.63678 0.70152,-1.86293 1.22118,-4.08402 1.5606,-6.66169 l 0.19495,-8.65226 -0.11697,-4.05736 -0.39151,-3.0249003 -0.15596,-0.15305 -0.50656,-2.14425 -0.15597,-0.0765 c -0.38958,-1.5308 -1.13201,-2.94744 -2.22311,-4.24961003 -0.83319,-0.663 -1.49572,-1.09737 -1.98949,-1.30123 l -2.26403,-0.53628997 -2.37908,-0.11479 c -1.06713,-0.0254 -2.24932,0.19131 -3.55008,0.65107997 -1.19689,0.5617 -2.19723,1.56969 -3.00453,3.02397003 -0.57144,1.35297 -1.0911,3.0503 -1.56059,5.092 l 0.078,0.23051 c -0.15596,0.12733 -0.24673,0.54822 -0.27293,1.26297 -0.36371,2.9866403 -0.4027,7.3635803 -0.11698,13.1311203 l 0.62354,4.17308 0.8204,2.94838 c 0.59765,1.5308 1.41773,2.64166 2.45706,3.33006 0.93674,0.58711 2.21193,0.99607 3.82462,1.22533 m -19.43053,-11.56238 c -0.078,-1.42855 -0.11698,-2.83265 -0.11698,-4.2104 0,-0.68934 0.0131,-1.37869 0.039,-2.06804 0.078,-2.70532 0.30075,-5.33411 0.66445,-7.8863903 v -0.26783 l 0.15596,-0.34499 0.27294,-2.64165 0.19495,-0.38231 0.38959,-2.14425 0.15596,-0.22957 c 0.39151,-1.83753003 1.23588,-3.90525 2.53696,-6.20192 l 1.13201,-1.68447 2.18445,-2.18251 c 2.3142,-1.8375297 5.31873,-3.1516097 9.01167,-3.9428897 1.17101,-0.20479 2.37908,-0.30672 3.62807,-0.30672 h 0.31192 c 1.9505,0.0511 3.99177,0.3707 6.12604,0.95781 0.88336,0.10193 2.30109,0.67554 4.25159,1.7227397 2.00228,1.2247 3.82302,2.89663 5.46159,5.01453 l 1.24899,1.87673 1.01312,2.10535997 0.4305,1.53142 0.11697,0.11479 V 1.1616977 c 0.25983,0.53629 0.4158,0.9578 0.46757,1.2639 l 0.15596,0.19131 0.66445,3.40721 0.11697,0.0765 -0.078,0.49803 0.15596,0.3061 0.38959,4.0965603 0.15596,0.38231 -0.11697,0.0383 0.27294,2.41208 -0.078,0.0765 c 0.10387,0.25591 0.10387,0.40896 0,0.45977 l 0.11698,0.38231 -0.078,0.11478 0.19496,2.6034 -0.078,0.0765 0.11697,1.11086 -0.039,0.0765 v 1.5308 c -0.0259,0.94526 -0.10387,2.08058 -0.23395,3.40721 l -0.19495,1.41696 0.078,0.0765 -0.19495,0.38325 c -0.078,0.94432 -0.29883,2.06709 -0.66444,3.36832 l -0.23395,0.72761 -0.039,0.42151 -1.01312,2.83265 -0.19496,0.15305 c 0,0.25592 -0.33973,1.03433 -1.01504,2.33556 l -1.87251,2.64166 c -2.05437,2.32269 -4.3315,4.02003 -6.82755,5.092 -1.63858,0.63822 -3.29025,1.0591 -4.95503,1.26296 l -3.00262,0.19225 -0.70343,-0.0383 c -5.92916,-0.15399 -10.71544,-2.04232 -14.35661,-5.66656 -1.79454,-1.96486 -3.14739,-4.24961 -4.05696,-6.853 -1.04125,-2.6542 -1.67757,-5.44891 -1.91151,-8.38443 l -0.15756,-1.68479"
       inkscape:connector-curvature="0"
       id="text2561" /></g><g
     transform="matrix(3.7920649,0,0,4.3825262,-89.086063,-356.69105)"
     id="g2679">
		<path
   d="m 100.477,91.101 v 17.925 h 3.781 V 96.499 l 8.586,12.527 h 0.785 2.283 1.499 V 91.101 h -3.781 v 12.757 l -8.397,-12.757 h -0.974 -1.019 -2.763 l 0,0 z"
   style="fill:#ffffff"
   inkscape:connector-curvature="0"
   id="path2505" />
		<path
   d="m 60.105,91.101 v 17.925 h 3.781 v -7.076 h 2.474 l 3.954,7.076 h 4.234 l -4.238,-7.453 c 2.742,-0.837 3.654,-2.706 3.654,-5.048 0,-2.713 -1.371,-5.424 -6.741,-5.424 h -7.118 l 0,0 z m 3.781,3.221 h 3.148 c 2.367,0 3.181,0.936 3.164,2.203 -0.017,1.278 -0.656,2.203 -3.116,2.203 h -3.197 v -4.406 z"
   style="fill:#ffffff"
   inkscape:connector-curvature="0"
   id="path5453" />
		<path
   d="m 143.809,91.101 v 17.925 h 12.463 v -3.291 h -8.892 v -3.993 h 7.352 v -3.291 h -7.352 v -3.919 h 8.332 v -3.431 h -11.903 z"
   style="fill:#ffffff"
   inkscape:connector-curvature="0"
   id="path2530" />
		<path
   d="m 43.308,91.101 v 17.925 h 3.571 v -7.284 h 7.492 v -3.291 h -7.492 v -3.919 h 8.332 V 91.101 H 43.308 z"
   style="fill:#ffffff"
   inkscape:connector-curvature="0"
   id="path3720" />
		<path
   d="m 130.916,90.716 c -5.419,0 -8.612,4.188 -8.612,9.347 0,5.16 3.593,9.348 8.612,9.348 3.616,0 6.532,-2.218 7.851,-5.416 l -3.579,-1.398 c -0.699,1.959 -2.23,3.313 -4.271,3.313 -2.814,0 -4.691,-2.619 -4.691,-5.847 0,-3.227 1.619,-5.846 4.691,-5.846 2.315,0 3.807,1.487 4.401,3.602 l 3.599,-1.453 c -1.179,-3.322 -4.001,-5.65 -8.001,-5.65 l 0,0 z"
   style="fill:#ffffff"
   inkscape:connector-curvature="0"
   id="path4674" />
		<path
   d="m 84.534,91.101 -5.976,17.925 h 4.153 l 0.891,-3.02 h 6.82 l 0.995,3.02 h 4.166 L 89.255,91.101 h -4.721 l 0,0 z m 2.288,3.996 2.515,7.619 h -4.764 l 2.249,-7.619 0,0 z"
   style="fill:#ffffff"
   inkscape:connector-curvature="0"
   id="path2538" />
	</g><path
     d="m 323.31319,271.60325 144.63557,-0.63964 v -41.55783 l -11.07523,-8.95121 -12.37887,9.59084 v 20.4591 h -4.56084 v -8.31156 l -10.42342,-9.59085 -10.42341,10.22862 v 9.59084 h -3.90902 V 244.11 l -9.12168,-11.5079 h -9.77349 l -9.12168,10.22862 v 12.14753 l -3.90901,0.63964 v -10.87012 l -10.42532,-22.37615 -11.72705,23.01579 v 10.23048 l -3.90902,0.63964 v -10.22862 l -15.63798,-12.78717 -18.89327,12.78717 0.65372,25.57434 0,0 z"
     style="stroke:#000000;stroke-width:1.88250792"
     inkscape:connector-curvature="0"
     id="path3740" /><path
     d="m 323.31319,483.86242 144.63557,-0.63778 v -41.55783 l -11.07523,-8.9512 -12.37887,9.59084 v 20.46096 h -4.56084 v -8.31157 L 429.5104,444.865 419.08699,455.09175 v 9.59085 h -3.90902 v -8.31157 L 406.05629,444.865 h -9.77349 l -9.12168,10.22675 v 12.1494 l -3.90901,0.63964 v -10.86826 l -10.42532,-22.37801 -11.72705,23.01765 v 10.22862 l -3.90902,0.63964 v -10.22862 l -15.63798,-12.78717 -18.89327,12.78717 0.65372,25.57061 0,0 z"
     style="stroke:#000000;stroke-width:1.88250792"
     inkscape:connector-curvature="0"
     id="path3742" /><path
     d="m 366.31239,494.73254 71.01415,-66.49067"
     style="fill:none;stroke:#d40000;stroke-width:20.14283562"
     inkscape:connector-curvature="0"
     id="path3744" /><g
     transform="translate(358.80713,230.62663)"
     id="g3084"><circle
       d="m 561.03699,287.05499 c 0,151.31664 -122.66637,273.983 -273.983,273.983 -151.31664,0 -273.983006,-122.66636 -273.983006,-273.983 0,-151.31663 122.666366,-273.982999 273.983006,-273.982999 151.31663,0 273.983,122.666369 273.983,273.982999 z"
       r="273.983"
       cy="287.05499"
       cx="287.05399"
       style="fill:#d40000"
       sodipodi:ry="273.983"
       sodipodi:rx="273.983"
       sodipodi:cx="287.05399"
       sodipodi:cy="287.05499"
       id="circle3590"
       transform="matrix(0.31536063,0,0,0.309467,-268.05109,354.9076)">
		</circle><circle
       d="m 479.48999,287.05801 c 0,106.27947 -86.15653,192.43601 -192.436,192.43601 -106.27948,0 -192.436009,-86.15654 -192.436009,-192.43601 0,-106.27947 86.156529,-192.436001 192.436009,-192.436001 106.27947,0 192.436,86.156531 192.436,192.436001 z"
       r="192.436"
       cy="287.05801"
       cx="287.05399"
       style="fill:#ffffff"
       sodipodi:ry="192.436"
       sodipodi:rx="192.436"
       sodipodi:cx="287.05399"
       sodipodi:cy="287.05801"
       id="circle3592"
       transform="matrix(0.31536063,0,0,0.309467,-268.05109,354.90667)">
		</circle><g
       id="g3079"
       transform="translate(-0.83757426,-254.87179)"><path
         inkscape:connector-curvature="0"
         d="m -208.10648,674.50477 v 48.15375 h -9.31931 l 0.0342,-33.99407 h -0.13303 c -0.0665,0.28346 -0.86845,0.90631 -2.40584,1.86857 l -2.90563,1.50865 -2.60538,0.98277 c -1.04709,0.21818 -1.6153,0.38229 -1.70271,0.49231 v -10.16148 l 2.07138,-0.95107 c 3.45103,-2.1632 5.93479,-4.79635 7.44937,-7.89943 h 9.51694 z"
         id="path52" /><path
         inkscape:connector-curvature="0"
         d="m -179.61834,674.40593 c 1.82623,0.3711 3.56315,1.09279 5.21076,2.16321 l 2.27091,1.90213 c 1.00149,1.18044 1.64761,2.01029 1.93836,2.49142 l 1.03569,2.03267 c 0.57961,1.66156 0.89126,3.35483 0.93497,5.08167 l -0.16723,2.49142 -0.5682,1.835 c -0.64612,1.57392 -1.64761,3.16835 -3.00636,4.78516 l 0.16723,0.42705 1.6039,1.73802 1.03569,1.54036 0.93497,2.29374 c 0.51309,1.59444 0.76774,3.15717 0.76774,4.6882 0,3.10308 -1.05849,6.05325 -3.17358,8.8505 -3.20779,3.78002 -7.36005,5.75861 -12.46059,5.9339 -1.84904,0 -3.37312,-0.11002 -4.57604,-0.32821 -1.55829,-0.41586 -2.66049,-0.76458 -3.30661,-1.0499 l -2.00487,-0.98277 -1.70271,-1.21214 -1.53738,-1.34455 -1.56969,-1.9991 c -0.91217,-1.46389 -1.55829,-2.85133 -1.93836,-4.16231 l -0.0342,-0.29464 8.78531,-2.36088 c 0.42378,1.63919 1.48037,2.8849 3.17358,3.73713 1.0471,0.41585 2.59398,0.64523 4.64256,0.68812 l 1.56969,-0.16411 1.26943,-0.39348 0.96918,-0.55758 c 0.66892,-0.43637 1.26943,-1.0816 1.80343,-1.93383 0.26795,-0.5464 0.46748,-1.2886 0.60051,-2.22848 0.0437,-0.76458 0,-1.20282 -0.13303,-1.31098 0.0437,-0.35059 -0.11212,-0.8858 -0.46748,-1.60562 l -0.83426,-1.14688 c -0.60051,-0.58928 -1.125,-0.99395 -1.56968,-1.21214 -0.55681,-0.30583 -1.30364,-0.55758 -2.23861,-0.75339 l -3.64107,-0.0988 v -8.88407 c 0.49029,0.0429 1.45946,-0.0224 2.90563,-0.1958 l 0.0665,0.0653 c 2.65099,-0.30583 4.3195,-1.72683 5.01122,-4.26114 l -0.0665,-1.47509 0.0665,-0.22937 -0.13302,-0.45875 -0.63472,-1.21214 c -0.62331,-0.76458 -1.19152,-1.26809 -1.70271,-1.50865 -0.0893,-0.0653 -0.84566,-0.26294 -2.27092,-0.58929 l -2.10368,0.0653 v -0.0709 l -2.07139,0.32822 -1.46897,0.62285 -0.60051,0.45875 -0.66892,0.95106 -0.50169,1.21215 -8.6846,-2.55669 0.56821,-1.47508 0.19954,-0.19581 c -0.0437,-0.11003 0.21093,-0.65642 0.76774,-1.63919 l 0.93497,-1.47509 1.33594,-1.50865 c 0.49029,-0.26294 0.73544,-0.45875 0.73544,-0.58928 l 0.70123,-0.49232 c 1.73692,-1.26809 3.76269,-2.07556 6.07921,-2.42615 1.15732,-0.17529 2.55027,-0.26294 4.17507,-0.26294 1.18202,0.002 2.37354,0.0895 3.57646,0.26294 z"
         id="path54" /><path
         inkscape:connector-curvature="0"
         d="m -161.84628,703.7118 c -0.0665,-1.22333 -0.10072,-2.42615 -0.10072,-3.60659 0,-0.58929 0.0114,-1.18044 0.0342,-1.76973 0.0665,-2.31612 0.25655,-4.56698 0.56821,-6.75256 v -0.22938 l 0.13302,-0.29464 0.23374,-2.26204 0.16723,-0.32821 0.33446,-1.835 0.13303,-0.19581 c 0.33446,-1.57392 1.05849,-3.34365 2.1721,-5.31105 l 0.96918,-1.44151 1.86994,-1.86857 c 1.98206,-1.57392 4.55324,-2.69841 7.71732,-3.37721 1.00148,-0.1753 2.03717,-0.26294 3.10707,-0.26294 h 0.26795 c 1.6704,0.0429 3.41873,0.31702 5.24496,0.81866 0.75634,0.0876 1.97066,0.57996 3.64107,1.47508 1.71411,1.0499 3.2743,2.48023 4.67676,4.29472 l 1.0699,1.60562 0.86845,1.80329 0.36677,1.31098 0.10072,0.0988 v 0.32821 c 0.22234,0.45875 0.35727,0.81866 0.40097,1.0816 l 0.13303,0.16411 0.5682,2.9166 0.10072,0.0653 -0.0665,0.42704 0.13302,0.26295 0.33447,3.50775 0.13302,0.32821 -0.10072,0.0336 0.23374,2.06437 -0.0665,0.0653 c 0.0893,0.21818 0.0893,0.35059 0,0.39348 l 0.10072,0.32821 -0.0665,0.0988 0.16723,2.22847 -0.0665,0.0653 0.10072,0.95107 -0.0342,0.0653 v 1.31097 c -0.0228,0.80934 -0.0893,1.78092 -0.19954,2.91661 l -0.16723,1.21214 0.0665,0.0653 -0.16723,0.32821 c -0.0665,0.80934 -0.25654,1.76973 -0.5682,2.8849 l -0.19954,0.62285 -0.0342,0.35991 -0.86846,2.42615 -0.16723,0.13054 c 0,0.21819 -0.28886,0.8858 -0.86846,1.9991 l -1.6039,2.26205 c -1.75972,1.98791 -3.70758,3.44248 -5.84547,4.35998 -1.40246,0.5464 -2.81632,0.90631 -4.24158,1.0816 l -2.57307,0.16411 -0.60051,-0.0336 c -5.07774,-0.13054 -9.17489,-1.74921 -12.29336,-4.8523 -1.53739,-1.68208 -2.6947,-3.63829 -3.47384,-5.86676 -0.89126,-2.27324 -1.43666,-4.66582 -1.6362,-7.17962 l -0.13873,-1.43965 z m 16.63566,9.90041 c 1.38155,0.0876 2.23861,0.0653 2.57307,-0.0653 l 0.0342,0.0653 1.83764,-0.39348 c 1.46897,-0.48113 2.59397,-1.51798 3.37312,-3.11428 0.60051,-1.59443 1.04709,-3.49656 1.33594,-5.70452 l 0.16723,-7.40899 -0.10072,-3.47419 -0.33446,-2.59025 -0.13302,-0.13054 -0.43518,-1.835 -0.13303,-0.0653 c -0.33446,-1.31098 -0.96918,-2.52498 -1.90415,-3.63829 -0.71263,-0.56877 -1.28083,-0.93988 -1.70271,-1.11517 l -1.93836,-0.45875 -2.03717,-0.0988 c -0.91217,-0.0224 -1.92695,0.16411 -3.04056,0.55759 -1.02429,0.48113 -1.88134,1.34455 -2.57307,2.59026 -0.49029,1.15806 -0.93497,2.61076 -1.33595,4.35998 l 0.0665,0.19581 c -0.13303,0.11002 -0.21094,0.46993 -0.23375,1.0816 -0.31166,2.55669 -0.34586,6.305 -0.10072,11.24309 l 0.534,3.57302 0.70123,2.52498 c 0.51309,1.31098 1.21432,2.26205 2.10369,2.85133 0.80384,0.50351 1.89465,0.85223 3.2762,1.04991 z"
         id="path56" /></g></g></g>
</svg>