<?xml version="1.0" encoding="UTF-8" standalone="no"?>
<!-- Generator: Adobe Illustrator 16.0.2, SVG Export Plug-In . SVG Version: 6.00 Build 0)  -->

<svg
   xmlns:dc="http://purl.org/dc/elements/1.1/"
   xmlns:cc="http://creativecommons.org/ns#"
   xmlns:rdf="http://www.w3.org/1999/02/22-rdf-syntax-ns#"
   xmlns:svg="http://www.w3.org/2000/svg"
   xmlns="http://www.w3.org/2000/svg"
   xmlns:sodipodi="http://sodipodi.sourceforge.net/DTD/sodipodi-0.dtd"
   xmlns:inkscape="http://www.inkscape.org/namespaces/inkscape"
   version="1.1"
   id="svg2"
   sodipodi:docname="C25b.svg"
   inkscape:version="0.48.1 "
   x="0px"
   y="0px"
   width="576.0174"
   height="839.98615"
   viewBox="0 0 576.01738 839.98614"
   xml:space="preserve"
   inkscape:export-filename="C:\Documents and Settings\bertrand.bouteilles\Bureau\Panneaux\A - Route\5_indication\C25b.png"
   inkscape:export-xdpi="150"
   inkscape:export-ydpi="150"><metadata
   id="metadata73"><rdf:RDF><cc:Work
       rdf:about=""><dc:format>image/svg+xml</dc:format><dc:type
         rdf:resource="http://purl.org/dc/dcmitype/StillImage" /><dc:title></dc:title></cc:Work></rdf:RDF></metadata><defs
   id="defs71">
	
	
	
	

	
	
	
	
</defs>
<sodipodi:namedview
   id="namedview108"
   inkscape:window-height="1174"
   inkscape:window-width="1920"
   inkscape:pageshadow="2"
   inkscape:pageopacity="0"
   inkscape:window-x="1276"
   fit-margin-bottom="0"
   fit-margin-right="0"
   inkscape:current-layer="svg2"
   inkscape:window-y="-4"
   inkscape:window-maximized="1"
   inkscape:zoom="0.42280612"
   inkscape:cx="273.23342"
   bordercolor="#666666"
   fit-margin-left="0"
   showgrid="false"
   gridtolerance="10"
   pagecolor="#ffffff"
   guidetolerance="10"
   objecttolerance="10"
   fit-margin-top="0"
   inkscape:cy="420.42407"
   borderopacity="1">
	</sodipodi:namedview>
<polygon
   id="polygon6"
   style="fill:#ffffff;stroke:#000000;stroke-width:2.07325697;stroke-linecap:round;stroke-linejoin:round;stroke-miterlimit:4;stroke-dasharray:none"
   points="591.755,13.379 593.619,17.606 594.763,22.11 595.148,26.756 595.148,842.753 594.763,847.399 593.619,851.904 591.755,856.131 589.224,859.951 586.102,863.248 582.487,865.923 578.486,867.895 574.222,869.102 569.823,869.507 25.373,869.507 20.976,869.102 16.712,867.895 12.712,865.923 9.095,863.248 5.974,859.951 3.443,856.131 1.577,851.904 0.435,847.399 0.05,842.753 0.05,26.756 0.435,22.11 1.577,17.606 3.443,13.379 5.974,9.559 9.095,6.261 12.712,3.586 16.712,1.616 20.976,0.409 25.373,0.002 569.823,0.002 574.222,0.409 578.486,1.616 582.487,3.586 586.102,6.261 589.224,9.559 "
   transform="matrix(0.96454859,0,0,0.96376807,0.9645428,0.99490766)" />
<polyline
   id="polyline8"
   style="fill:#0000ff"
   points="19.606,15.547 19.606,852.461 575.593,852.461 575.593,15.547   19.606,15.547 "
   transform="matrix(0.96454859,0,0,0.96376807,0.9645428,0.99490766)" />
<polyline
   id="polyline10"
   style="fill:#ffffff"
   points="59.492,544.15 535.739,544.15 535.739,808.253 59.492,808.253   59.492,544.15 "
   transform="matrix(0.96454859,0,0,0.96376807,0.9645428,0.99490766)" />
<polyline
   id="polyline12"
   style="fill:#ffffff"
   points="59.703,235.254 539.65,235.254 539.65,510.204 59.703,510.204   59.703,235.254 "
   transform="matrix(0.96454859,0,0,0.96376807,0.9645428,0.99490766)" />
<polyline
   id="polyline14"
   style="fill:#0000ff;stroke:#ffffff;stroke-width:3;stroke-linecap:round"
   points="224.819,199.313   355.402,199.313 355.402,68.732 224.819,68.732 224.819,199.313 "
   transform="matrix(0.96454859,0,0,0.96376807,0.9645428,0.99490766)" />
<polyline
   id="polyline16"
   style="fill:#ffffff"
   points="294.183,126.849 316.761,126.849 329.427,189.96 296.331,189.96   294.183,126.849 "
   transform="matrix(0.96454859,0,0,0.96376807,0.9645428,0.99490766)" />
<polyline
   id="polyline18"
   style="fill:#ffffff"
   points="291.769,75.327 308.613,75.327 314.571,106.431 293.722,106.431   291.769,75.327 "
   transform="matrix(0.96454859,0,0,0.96376807,0.9645428,0.99490766)" />
<polyline
   id="polyline20"
   style="fill:#ffffff"
   points="286.038,126.849 263.46,126.849 250.794,189.96 283.89,189.96   286.038,126.849 "
   transform="matrix(0.96454859,0,0,0.96376807,0.9645428,0.99490766)" />
<polyline
   id="polyline22"
   style="fill:#ffffff"
   points="288.452,75.327 271.609,75.327 265.651,106.431 286.499,106.431   288.452,75.327 "
   transform="matrix(0.96454859,0,0,0.96376807,0.9645428,0.99490766)" />
<polyline
   id="polyline24"
   style="fill:#ffffff"
   points="290.112,111.834 349.167,111.834 349.167,121.219 338.167,121.219   338.167,138 324.382,138 324.382,122.61 290.112,122.47 255.84,122.61 255.84,138 242.054,138 242.054,121.219 231.054,121.219   231.054,111.834 290.112,111.834 "
   transform="matrix(0.96454859,0,0,0.96376807,0.9645428,0.99490766)" />
<path
   id="path28"
   inkscape:connector-curvature="0"
   style="fill:#d40000"
   d="m 371.36278,363.69265 c 0,-44.38152 -36.00757,-80.35802 -80.42213,-80.35802 -44.41747,0 -80.42311,35.9765 -80.42311,80.35802 0,44.38055 36.00564,80.35802 80.42311,80.35802 44.41456,-9.6e-4 80.42213,-35.97844 80.42213,-80.35802 l 0,0 0,0 z" />
<path
   id="path30"
   inkscape:connector-curvature="0"
   style="fill:#ffffff"
   d="m 347.93775,363.69265 c 0,-31.45257 -25.51713,-56.95099 -56.9971,-56.95099 -31.47998,0 -56.99808,25.49842 -56.99808,56.95099 0,31.45353 25.5181,56.95195 56.99808,56.95195 31.47997,-9.7e-4 56.9971,-25.49842 56.9971,-56.95195 l 0,0 0,0 z" />
<path
   id="path40"
   inkscape:connector-curvature="0"
   style="fill:#d40000"
   d="m 258.43729,645.64589 c 0,-44.38152 -36.00853,-80.35802 -80.42214,-80.35802 -44.41746,0 -80.42309,35.9765 -80.42309,80.35802 0,44.37959 36.00563,80.35899 80.42309,80.35899 44.41457,0 80.42214,-35.97843 80.42214,-80.35899 l 0,0 0,0 z" />
<path
   id="path42"
   inkscape:connector-curvature="0"
   style="fill:#ffffff"
   d="m 235.01226,645.64589 c 0,-31.4545 -25.51617,-56.95195 -56.99711,-56.95195 -31.479,0 -56.99806,25.49745 -56.99806,56.95195 0,31.45546 25.51906,56.95291 56.99806,56.95291 31.48094,-9.6e-4 56.99711,-25.49842 56.99711,-56.95291 l 0,0 0,0 z" />
<path
   id="path50"
   inkscape:connector-curvature="0"
   style="fill:none;stroke:#000000;stroke-width:3.85663295;stroke-linecap:round;stroke-linejoin:round"
   d="m 324.09314,595.80944 c -9.42749,-2.91346 -9.12462,20.801 0.78418,23.63159 5.17674,1.47746 9.75159,2.39016 15.14728,2.39016 6.59751,0 9.93677,-1.84081 15.89672,-4.81884 0,3.60737 -0.83916,10.98405 2.01976,13.43299 5.55676,4.75909 7.55532,5.0646 14.92833,5.80189 6.41231,0.6409 7.58616,2.18775 13.75541,-0.27853 5.94548,-2.37666 4.98673,-7.13285 4.98673,-13.17278 2.67373,5.34602 3.05665,8.61223 9.64548,8.67391 6.79815,0.0645 7.52156,-2.30919 10.61004,-7.71015 3.48298,6.38303 4.95198,10.12439 11.19937,13.69225 4.01832,2.29473 12.6597,0.76427 17.25675,0.76427 3.87845,0 5.43232,-12.91931 10.50103,-11.07852 7.29681,2.65133 12.74458,3.63533 20.50631,4.23384 3.25534,0.24962 13.36863,-2.98286 14.20779,-6.05728 1.9127,-7.01335 2.52808,-12.22829 2.52808,-19.50089 0,-10.85684 -19.09227,-18.0504 -27.00735,-21.56623 2.88593,-4.03628 6.67853,-7.99832 4.82274,-13.49276 -1.51049,-4.47381 -7.60933,-8.67391 -11.93629,-8.67391 -4.46297,0 -8.62596,-0.32864 -12.71467,1.71261 -6.20784,3.10237 -6.2146,6.05728 -6.2146,12.74391 -3.98069,-6.9613 -8.43112,-13.32698 -15.19453,-17.83164 -4.03568,-2.68698 -8.00575,-4.84004 -12.35104,-7.0114 -3.37496,-1.68661 -10.6004,-0.21492 -14.34766,-0.21492 -8.44559,0 -17.90877,1.89766 -17.90877,12.04709 0,8.51393 -1.4941,17.14833 -2.89365,25.53985 -1.30601,-11.08623 -0.66843,-22.90876 -10.09883,-29.97511 -13.32331,-9.98367 -15.85814,8.23636 -14.01489,17.44613 -8.2305,-1.56419 -14.79135,-6.37725 -22.42093,-0.93293 -7.93438,5.66119 1.75451,15.3326 6.0236,20.20829 -2.57244,-0.003 -5.14393,-0.003 -7.71639,-0.003" />
<line
   id="line52"
   style="fill:none;stroke:#000000;stroke-width:3.85663295;stroke-linecap:round;stroke-linejoin:round"
   x1="310.58948"
   y1="667.12823"
   x2="288.40485"
   y2="690.25873" />
<line
   id="line54"
   style="fill:none;stroke:#000000;stroke-width:3.85663295;stroke-linecap:round;stroke-linejoin:round"
   x1="347.24231"
   y1="649.7804"
   x2="325.05774"
   y2="672.91083" />
<line
   id="line56"
   style="fill:none;stroke:#000000;stroke-width:3.85663295;stroke-linecap:round;stroke-linejoin:round"
   x1="318.30585"
   y1="679.65723"
   x2="296.12125"
   y2="702.78766" />
<line
   id="line58"
   style="fill:none;stroke:#000000;stroke-width:3.85663295;stroke-linecap:round;stroke-linejoin:round"
   x1="286.47577"
   y1="713.3891"
   x2="264.29114"
   y2="736.51953" />
<line
   id="line60"
   style="fill:none;stroke:#000000;stroke-width:3.85663295;stroke-linecap:round;stroke-linejoin:round"
   x1="344.34869"
   y1="671.94708"
   x2="322.16403"
   y2="695.07751" />
<line
   id="line62"
   style="fill:none;stroke:#000000;stroke-width:3.85663295;stroke-linecap:round;stroke-linejoin:round"
   x1="315.41223"
   y1="701.82391"
   x2="293.2276"
   y2="724.95435" />
<line
   id="line64"
   style="fill:none;stroke:#000000;stroke-width:3.85663295;stroke-linecap:round;stroke-linejoin:round"
   x1="283.58212"
   y1="735.55579"
   x2="261.39746"
   y2="758.68628" />
<line
   id="line66"
   style="fill:none;stroke:#000000;stroke-width:3.85663295;stroke-linecap:round;stroke-linejoin:round"
   x1="382.93063"
   y1="651.70795"
   x2="360.746"
   y2="674.83832" />
<line
   id="line68"
   style="fill:none;stroke:#000000;stroke-width:3.85663295;stroke-linecap:round;stroke-linejoin:round"
   x1="353.99417"
   y1="681.58472"
   x2="331.80954"
   y2="704.71521" />
<line
   id="line70"
   style="fill:none;stroke:#000000;stroke-width:3.85663295;stroke-linecap:round;stroke-linejoin:round"
   x1="322.16403"
   y1="715.31665"
   x2="299.97943"
   y2="738.44702" />
<line
   id="line72"
   style="fill:none;stroke:#000000;stroke-width:3.85663295;stroke-linecap:round;stroke-linejoin:round"
   x1="384.85974"
   y1="667.12823"
   x2="362.67508"
   y2="690.25873" />
<line
   id="line74"
   style="fill:none;stroke:#000000;stroke-width:3.85663295;stroke-linecap:round;stroke-linejoin:round"
   x1="355.92328"
   y1="697.00507"
   x2="333.73865"
   y2="720.13544" />
<line
   id="line76"
   style="fill:none;stroke:#000000;stroke-width:3.85663295;stroke-linecap:round;stroke-linejoin:round"
   x1="324.09314"
   y1="730.73688"
   x2="301.90851"
   y2="753.86743" />
<line
   id="line78"
   style="fill:none;stroke:#000000;stroke-width:3.85663295;stroke-linecap:round;stroke-linejoin:round"
   x1="419.58347"
   y1="648.81665"
   x2="397.39883"
   y2="671.94708" />
<line
   id="line80"
   style="fill:none;stroke:#000000;stroke-width:3.85663295;stroke-linecap:round;stroke-linejoin:round"
   x1="390.647"
   y1="678.69342"
   x2="368.46237"
   y2="701.82391" />
<line
   id="line82"
   style="fill:none;stroke:#000000;stroke-width:3.85663295;stroke-linecap:round;stroke-linejoin:round"
   x1="358.81689"
   y1="712.42535"
   x2="336.63229"
   y2="735.55579" />
<line
   id="line84"
   style="fill:none;stroke:#000000;stroke-width:3.85663295;stroke-linecap:round;stroke-linejoin:round"
   x1="422.47708"
   y1="664.23688"
   x2="400.29251"
   y2="687.36737" />
<line
   id="line86"
   style="fill:none;stroke:#000000;stroke-width:3.85663295;stroke-linecap:round;stroke-linejoin:round"
   x1="393.54065"
   y1="694.11377"
   x2="371.35605"
   y2="717.24414" />
<line
   id="line88"
   style="fill:none;stroke:#000000;stroke-width:3.85663295;stroke-linecap:round;stroke-linejoin:round"
   x1="361.71054"
   y1="727.84558"
   x2="339.52591"
   y2="750.97614" />
<line
   id="line90"
   style="fill:none;stroke:#000000;stroke-width:3.85663295;stroke-linecap:round;stroke-linejoin:round"
   x1="456.2363"
   y1="648.81665"
   x2="434.0517"
   y2="671.94708" />
<line
   id="line92"
   style="fill:none;stroke:#000000;stroke-width:3.85663295;stroke-linecap:round;stroke-linejoin:round"
   x1="427.29984"
   y1="678.69342"
   x2="405.11523"
   y2="701.82391" />
<line
   id="line94"
   style="fill:none;stroke:#000000;stroke-width:3.85663295;stroke-linecap:round;stroke-linejoin:round"
   x1="395.46976"
   y1="712.42535"
   x2="373.28516"
   y2="735.55579" />
<line
   id="line96"
   style="fill:none;stroke:#000000;stroke-width:3.85663295;stroke-linecap:round;stroke-linejoin:round"
   x1="458.16541"
   y1="664.23688"
   x2="435.9808"
   y2="687.36737" />
<line
   id="line98"
   style="fill:none;stroke:#000000;stroke-width:3.85663295;stroke-linecap:round;stroke-linejoin:round"
   x1="429.22894"
   y1="694.11377"
   x2="407.04434"
   y2="717.24414" />
<line
   id="line100"
   style="fill:none;stroke:#000000;stroke-width:3.85663295;stroke-linecap:round;stroke-linejoin:round"
   x1="397.39883"
   y1="727.84558"
   x2="375.21423"
   y2="750.97614" />
<line
   id="line102"
   style="fill:none;stroke:#000000;stroke-width:3.85663295;stroke-linecap:round;stroke-linejoin:round"
   x1="491.92459"
   y1="648.81665"
   x2="469.73999"
   y2="671.94708" />
<line
   id="line104"
   style="fill:none;stroke:#000000;stroke-width:3.85663295;stroke-linecap:round;stroke-linejoin:round"
   x1="462.98816"
   y1="678.69342"
   x2="440.80353"
   y2="701.82391" />
<line
   id="line106"
   style="fill:none;stroke:#000000;stroke-width:3.85663295;stroke-linecap:round;stroke-linejoin:round"
   x1="431.15805"
   y1="712.42535"
   x2="408.97342"
   y2="735.55579" />
<g
   id="g3049"
   transform="matrix(0.99987859,0,0,0.99906944,-1.9869135,-31.806963)"><path
     style="fill:#000000"
     d="m 261.49629,372.31028 v 47.05158 h -8.93666 l 0.0318,-33.21538 h -0.1283 c -0.0637,0.27783 -0.83251,0.88653 -2.30651,1.82612 l -2.78692,1.47304 -2.49849,0.96081 c -1.00422,0.21415 -1.54829,0.37429 -1.63318,0.4804 v -9.9293 l 1.98625,-0.92898 c 3.30977,-2.11358 5.69056,-4.68634 7.14238,-7.71925 h 9.1296 z"
     id="path51"
     inkscape:connector-curvature="0" /><path
     style="fill:#000000"
     d="m 289.73206,372.21478 c 1.7499,0.36272 3.41588,1.06789 4.99697,2.11358 l 2.17821,1.85795 c 0.96081,1.15278 1.58012,1.96503 1.85795,2.43385 l 0.99264,1.98625 c 0.55468,1.62353 0.85373,3.27793 0.89714,4.96417 l -0.16014,2.43385 -0.54407,1.79331 c -0.62028,1.53768 -1.58109,3.09658 -2.88242,4.6767 l 0.16014,0.41674 1.53767,1.69781 0.99264,1.50584 0.89714,2.24189 c 0.49102,1.5589 0.73701,3.08596 0.73701,4.58023 0,3.03291 -1.01483,5.91533 -3.04256,8.64823 -3.07535,3.69467 -7.05749,5.62689 -11.94738,5.79764 -1.77209,0 -3.23549,-0.10611 -4.38827,-0.32027 -1.49523,-0.40516 -2.5525,-0.74665 -3.17085,-1.02544 l -1.92162,-0.96081 -1.63318,-1.18557 -1.47304,-1.31291 -1.50585,-1.95345 c -0.87591,-1.4306 -1.49523,-2.78692 -1.85794,-4.06799 l -0.0318,-0.28844 8.42347,-2.30651 c 0.40515,1.60134 1.41998,2.81875 3.04255,3.65126 1.00325,0.40612 2.48787,0.62992 4.45193,0.67237 l 1.50585,-0.16014 1.2174,-0.38393 0.92898,-0.54408 c 0.64054,-0.42638 1.21741,-1.05727 1.72964,-1.88978 0.2566,-0.53346 0.44857,-1.25985 0.57687,-2.17821 0.0424,-0.74665 0,-1.174 -0.1283,-1.28108 0.0425,-0.34149 -0.10707,-0.86434 -0.44857,-1.56951 l -0.80067,-1.12094 c -0.57687,-0.57687 -1.0785,-0.97142 -1.50584,-1.18557 -0.53443,-0.29905 -1.24924,-0.54408 -2.14638,-0.73701 l -3.49113,-0.0965 v -8.68007 c 0.46979,0.0424 1.39877,-0.0212 2.78692,-0.19197 l 0.0637,0.0637 c 2.54093,-0.29904 4.14227,-1.6872 4.805,-4.1635 l -0.0637,-1.44121 0.0637,-0.2238 -0.1283,-0.44857 -0.60871,-1.18557 c -0.59809,-0.74665 -1.14312,-1.23863 -1.63318,-1.47305 -0.0858,-0.0637 -0.81224,-0.2566 -2.17821,-0.57687 l -2.01808,0.0637 v -0.0637 l -1.98625,0.32027 -1.40937,0.60871 -0.57687,0.44857 -0.64054,0.92897 -0.48041,1.18557 -8.32796,-2.49848 0.54408,-1.44121 0.19196,-0.19197 c -0.0424,-0.10611 0.20258,-0.64054 0.73701,-1.60135 l 0.89714,-1.44121 1.28107,-1.47304 c 0.4698,-0.2566 0.70421,-0.44857 0.70421,-0.57687 l 0.67237,-0.4804 c 1.66598,-1.23864 3.60882,-2.0287 5.82948,-2.37019 1.11033,-0.17074 2.44446,-0.2566 4.00336,-0.2566 1.13155,0 2.27468,0.0859 3.42746,0.2566 z"
     id="path53"
     inkscape:connector-curvature="0" /><path
     style="fill:#000000"
     d="m 308.54304,400.84896 c -0.0637,-1.19523 -0.0965,-2.37019 -0.0965,-3.52296 0,-0.57687 0.0106,-1.15278 0.0318,-1.72965 0.0637,-2.26311 0.24502,-4.46254 0.54407,-6.59831 v -0.22381 l 0.1283,-0.28843 0.2238,-2.21005 0.16014,-0.32027 0.32027,-1.79331 0.1283,-0.19197 c 0.32026,-1.53768 1.01386,-3.26732 2.08174,-5.18894 l 0.92898,-1.40937 1.79331,-1.82612 c 1.90039,-1.53767 4.36608,-2.63643 7.39899,-3.29915 0.9608,-0.17075 1.95345,-0.25661 2.97889,-0.25661 h 0.2566 c 1.60134,0.0425 3.27697,0.30966 5.0288,0.80068 0.72543,0.0858 1.88978,0.56626 3.49112,1.44121 1.64379,1.02544 3.13903,2.4242 4.48377,4.19629 l 1.02544,1.56952 0.83251,1.76147 0.3521,1.28108 0.0965,0.0965 v 0.32027 c 0.21319,0.44857 0.34149,0.80067 0.38393,1.05727 l 0.1283,0.16013 0.54408,2.85059 0.0965,0.0637 -0.0637,0.41674 0.1283,0.2566 0.32027,3.42745 0.1283,0.32027 -0.0965,0.0318 0.2238,2.01808 -0.0637,0.0637 c 0.0849,0.21415 0.0849,0.34149 0,0.38393 l 0.0965,0.32027 -0.0637,0.0965 0.16014,2.17821 -0.0637,0.0637 0.0965,0.92897 -0.0318,0.0637 v 1.28108 c -0.0212,0.79006 -0.0859,1.74026 -0.19197,2.85059 l -0.16013,1.18557 0.0637,0.0637 -0.16013,0.32027 c -0.0637,0.79006 -0.24599,1.72964 -0.54407,2.81875 l -0.19197,0.6087 -0.0318,0.35211 -0.83251,2.37018 -0.16013,0.1283 c 0,0.21416 -0.27783,0.86434 -0.83251,1.95345 l -1.53768,2.21005 c -1.6872,1.9438 -3.55576,3.36282 -5.60567,4.25996 -1.34571,0.53443 -2.70203,0.88557 -4.068,1.05728 l -2.46665,0.16013 -0.57687,-0.0318 c -4.86867,-0.1283 -8.79775,-1.70843 -11.78725,-4.74037 -1.47304,-1.64379 -2.58434,-3.55576 -3.33099,-5.73301 -0.85469,-2.22066 -1.37754,-4.55901 -1.56951,-7.01408 l -0.1283,-1.41034 z m 15.95171,9.67366 c 1.32352,0.0859 2.14638,0.0637 2.46665,-0.0637 l 0.0318,0.0637 1.76148,-0.38393 c 1.40937,-0.4698 2.4869,-1.48366 3.23549,-3.04256 0.57687,-1.5589 1.00325,-3.41685 1.28107,-5.57287 l 0.16014,-7.23885 -0.0965,-3.39563 -0.32027,-2.53032 -0.1283,-0.1283 -0.41674,-1.79331 -0.1283,-0.0637 c -0.32027,-1.28107 -0.92897,-2.46665 -1.82611,-3.55576 -0.68395,-0.55468 -1.22802,-0.91836 -1.63318,-1.0891 l -1.85794,-0.44857 -1.95345,-0.0965 c -0.87592,-0.0212 -1.84734,0.16013 -2.91426,0.54407 -0.98299,0.46979 -1.80489,1.31291 -2.46665,2.53032 -0.46979,1.13155 -0.89714,2.5525 -1.28107,4.25996 l 0.0637,0.19197 c -0.1283,0.10708 -0.20354,0.45918 -0.2238,1.05728 -0.30001,2.49848 -0.33184,6.16035 -0.0965,10.98657 l 0.51223,3.49113 0.67237,2.46665 c 0.49102,1.28108 1.16339,2.21005 2.01809,2.78692 0.7698,0.49005 1.8155,0.83154 3.13998,1.02447 z"
     id="path55"
     inkscape:connector-curvature="0" /></g>
<g
   id="g57"
   transform="translate(0.99898824,-30.54451)">
</g>
<g
   id="g59"
   transform="translate(0.99898824,-30.54451)">
</g>
<g
   id="g3040"
   transform="matrix(0.99987859,0,0,0.99906944,-1.1309975,-36.036489)"><path
     style="fill:#000000"
     d="m 148.38115,659.21821 v 46.10442 h -8.75676 l 0.0312,-32.54674 h -0.12572 c -0.0624,0.27223 -0.81574,0.86868 -2.26008,1.78935 l -2.73082,1.44339 -2.4482,0.94147 c -0.98399,0.20984 -1.51711,0.36676 -1.60029,0.47073 v -9.72942 l 1.94626,-0.91028 c 3.24314,-2.07103 5.57602,-4.592 6.99861,-7.56386 h 8.94581 z"
     id="path65"
     inkscape:connector-curvature="0" /><path
     style="fill:#000000"
     d="m 180.69253,659.21821 v 46.10442 h -8.75583 l 0.0312,-32.54674 h -0.12571 c -0.0624,0.27223 -0.81576,0.86868 -2.26009,1.78935 l -2.73082,1.44339 -2.44819,0.94147 c -0.984,0.20984 -1.51712,0.36676 -1.6003,0.47073 v -9.72942 l 1.94626,-0.91028 c 3.24314,-2.07103 5.57601,-4.592 6.99861,-7.56386 h 8.94487 z"
     id="path67"
     inkscape:connector-curvature="0" /><path
     style="fill:#000000"
     d="m 194.38727,687.18239 c -0.0624,-1.17116 -0.0946,-2.32246 -0.0946,-3.45204 0,-0.56526 0.0104,-1.12956 0.0312,-1.69482 0.0624,-2.2185 0.24009,-4.37272 0.53312,-6.4655 v -0.21929 l 0.12571,-0.28263 0.2193,-2.16556 0.15692,-0.31382 0.31382,-1.75721 0.12572,-0.18811 c 0.31382,-1.50672 0.99345,-3.20155 2.03984,-5.08448 l 0.91027,-1.38101 1.75721,-1.78935 c 1.86214,-1.50673 4.27819,-2.58336 7.25005,-3.23275 0.94147,-0.1673 1.91413,-0.25143 2.91892,-0.25143 h 0.25144 c 1.5691,0.0415 3.211,0.30342 4.92757,0.78456 0.71082,0.0842 1.85174,0.55485 3.42085,1.4122 1.6107,1.00479 3.07583,2.3754 4.3935,4.11181 l 1.0048,1.53792 0.81575,1.72602 0.34501,1.25529 0.0946,0.0946 v 0.31381 c 0.2089,0.43954 0.33462,0.78457 0.3762,1.036 l 0.12572,0.15691 0.53313,2.7932 0.0945,0.0624 -0.0624,0.40834 0.12572,0.25144 0.31382,3.35846 0.12572,0.31383 -0.0945,0.0312 0.21929,1.97746 -0.0624,0.0624 c 0.0832,0.20985 0.0832,0.33463 0,0.37621 l 0.0946,0.31382 -0.0624,0.0946 0.15692,2.13436 -0.0624,0.0624 0.0946,0.91027 -0.0312,0.0624 v 1.25529 c -0.0208,0.77416 -0.0842,1.70522 -0.18811,2.7932 l -0.1569,1.16171 0.0624,0.0624 -0.15692,0.31382 c -0.0624,0.77416 -0.24104,1.69483 -0.53312,2.76201 l -0.18904,0.59645 -0.0312,0.34502 -0.81575,2.32247 -0.15691,0.12572 c 0,0.20984 -0.27223,0.84694 -0.81575,1.91412 l -1.50672,2.16556 c -1.65324,1.90467 -3.48418,3.29513 -5.49283,4.17421 -1.31862,0.52367 -2.64764,0.86868 -3.98611,1.03599 l -2.417,0.15691 -0.56525,-0.0312 c -4.77067,-0.12572 -8.62065,-1.67404 -11.54997,-4.64494 -1.4434,-1.6107 -2.53232,-3.48418 -3.26394,-5.61761 -0.8375,-2.17595 -1.34982,-4.46723 -1.53792,-6.87289 l -0.12477,-1.38195 z m 15.62966,9.47894 c 1.29687,0.0842 2.10317,0.0624 2.41699,-0.0624 l 0.0312,0.0624 1.72602,-0.37621 c 1.38101,-0.46033 2.43685,-1.45378 3.17036,-2.9813 0.56526,-1.52752 0.98306,-3.34807 1.2553,-5.4607 l 0.1569,-7.09313 -0.0946,-3.32727 -0.31382,-2.47938 -0.12572,-0.12572 -0.40835,-1.75721 -0.12571,-0.0624 c -0.31383,-1.25529 -0.91027,-2.41699 -1.78935,-3.48418 -0.67019,-0.54351 -1.2033,-0.89987 -1.60031,-1.06719 l -1.82055,-0.43954 -1.91412,-0.0946 c -0.85828,-0.0208 -1.81015,0.1569 -2.85559,0.53311 -0.96321,0.46034 -1.76856,1.28648 -2.417,2.47939 -0.46033,1.10877 -0.87908,2.50112 -1.25529,4.17421 l 0.0624,0.1881 c -0.12572,0.10397 -0.19944,0.44994 -0.2193,1.03599 -0.29397,2.44819 -0.32517,6.03635 -0.0945,10.76542 l 0.50193,3.42085 0.65883,2.417 c 0.48114,1.25528 1.13997,2.16556 1.97746,2.73082 0.7543,0.48018 1.77895,0.8148 3.07678,1.00384 z"
     id="path69"
     inkscape:connector-curvature="0" /></g>
</svg>