<?xml version="1.0" encoding="UTF-8" standalone="no"?>
<!-- Generator: Adobe Illustrator 13.0.0, SVG Export Plug-In  -->

<svg
   xmlns:dc="http://purl.org/dc/elements/1.1/"
   xmlns:cc="http://creativecommons.org/ns#"
   xmlns:rdf="http://www.w3.org/1999/02/22-rdf-syntax-ns#"
   xmlns:svg="http://www.w3.org/2000/svg"
   xmlns="http://www.w3.org/2000/svg"
   xmlns:sodipodi="http://sodipodi.sourceforge.net/DTD/sodipodi-0.dtd"
   xmlns:inkscape="http://www.inkscape.org/namespaces/inkscape"
   version="1.1"
   x="0px"
   y="0px"
   width="575.99994"
   height="576"
   viewBox="0 -0.031 575.99994 576"
   enable-background="new 0 -0.031 598 600"
   xml:space="preserve"
   id="svg2"
   inkscape:version="0.48.1 "
   sodipodi:docname="C26a.svg"
   inkscape:export-filename="C:\Documents and Settings\bertrand.bouteilles\Bureau\Panneaux\A - Route\5_indication\C26a.png"
   inkscape:export-xdpi="150"
   inkscape:export-ydpi="150"><metadata
   id="metadata38"><rdf:RDF><cc:Work
       rdf:about=""><dc:format>image/svg+xml</dc:format><dc:type
         rdf:resource="http://purl.org/dc/dcmitype/StillImage" /><dc:title></dc:title></cc:Work></rdf:RDF></metadata><sodipodi:namedview
   pagecolor="#ffffff"
   bordercolor="#666666"
   borderopacity="1"
   objecttolerance="10"
   gridtolerance="10"
   guidetolerance="10"
   inkscape:pageopacity="0"
   inkscape:pageshadow="2"
   inkscape:window-width="1920"
   inkscape:window-height="1174"
   id="namedview36"
   showgrid="false"
   fit-margin-top="0"
   fit-margin-left="0"
   fit-margin-right="0"
   fit-margin-bottom="0"
   inkscape:zoom="0.87"
   inkscape:cx="106.99476"
   inkscape:cy="291.20898"
   inkscape:window-x="1276"
   inkscape:window-y="-4"
   inkscape:window-maximized="1"
   inkscape:current-layer="svg2" />
<defs
   id="defs4">
</defs>














<path
   d="M 42.000354,574.96904 H 534.00053 c 10.8731,0 21.3022,-4.31848 28.9911,-12.0083 7.6888,-7.68884 12.0083,-18.11698 12.0083,-28.99115 V 41.969434 c 0,-10.87417 -4.3194,-21.3023 -12.0083,-28.99114 -7.6899,-7.68982 -18.119,-12.00929996 -28.9921,-12.00929996 H 42.000354 c -10.87413,0 -21.30227,4.31947996 -28.99113,12.00829996 -7.68985,7.68884 -12.00922996,18.11797 -12.00922996,28.99214 V 533.96959 c 0,10.87417 4.31937996,21.30231 12.00822996,28.99115 7.68886,7.68883 18.118,12.0083 28.99213,12.0083 z"
   id="path6-1-1-1-1"
   inkscape:connector-curvature="0"
   style="fill:#ffffff;stroke:#000000;stroke-width:1.99998808;stroke-linecap:round;stroke-linejoin:round;stroke-miterlimit:4;stroke-dasharray:none" /><polygon
   points="538.362,538.362 538.362,538.362 538.362,36.576 538.362,36.576 36.576,36.576 36.576,36.576 36.576,538.362 "
   id="polygon8-7-7-7-7"
   transform="matrix(1.0000749,0,0,1.0000749,0.50943304,0.47848404)"
   style="fill:#0000ff;stroke:#0000ff;stroke-width:0.17640001;stroke-linecap:round;stroke-linejoin:round" /><g
   id="g2996"
   transform="translate(-10.609411,-11.968735)"><path
     inkscape:connector-curvature="0"
     style="fill:#ffffff;stroke:none"
     id="path10"
     d="m 346,232.04875 v 172.363 l -3,-13.363 c -32.987,-118.685 -89.874,-229.989 -174.077,-320 H 63.5 l 4.5,4 c 123.847,123.603 193.397,290.607 217.574,462 H 385 v -305 h -39 z" /><rect
     style="fill:#ffffff;stroke:none"
     id="rect12"
     height="140.66701"
     width="77.334"
     y="100.71575"
     x="327.33301" /><rect
     style="fill:#d40000;fill-opacity:1;stroke:#d40000;stroke-width:1;stroke-opacity:1"
     id="rect14"
     height="17.311001"
     width="19.334"
     y="129.72572"
     x="335" /><rect
     style="fill:#d40000;fill-opacity:1;stroke:#d40000;stroke-width:1;stroke-opacity:1"
     id="rect16"
     height="15.979"
     width="19.334"
     y="164.02673"
     x="335" /><rect
     style="fill:#d40000;fill-opacity:1;stroke:#d40000;stroke-width:1;stroke-opacity:1"
     id="rect18"
     height="17.312"
     width="19.334"
     y="195.73672"
     x="335" /><rect
     style="fill:#d40000;fill-opacity:1;stroke:#d40000;stroke-width:1;stroke-opacity:1"
     id="rect20"
     height="17.311001"
     width="19.334"
     y="129.72572"
     x="376.33301" /><rect
     style="fill:#d40000;fill-opacity:1;stroke:#d40000;stroke-width:1;stroke-opacity:1"
     id="rect22"
     height="15.979"
     width="19.334"
     y="164.02673"
     x="376.33301" /><rect
     style="fill:#d40000;fill-opacity:1;stroke:#d40000;stroke-width:1;stroke-opacity:1"
     id="rect24"
     height="17.312"
     width="19.334"
     y="195.73573"
     x="376.33301" /><rect
     style="fill:#d40000;fill-opacity:1;stroke:#d40000;stroke-width:1;stroke-opacity:1"
     id="rect26"
     height="17.978001"
     width="19.334"
     y="109.72575"
     x="356.33401" /><rect
     style="fill:#d40000;fill-opacity:1;stroke:#d40000;stroke-width:1;stroke-opacity:1"
     id="rect28"
     height="16.646"
     width="19.334"
     y="147.34973"
     x="355.66699" /><rect
     style="fill:#d40000;fill-opacity:1;stroke:#d40000;stroke-width:1;stroke-opacity:1"
     id="rect30"
     height="15.979"
     width="19.334"
     y="179.72572"
     x="355.66699" /><rect
     style="fill:#d40000;fill-opacity:1;stroke:#d40000;stroke-width:1;stroke-opacity:1"
     id="rect32"
     height="17.979"
     width="19.334"
     y="213.72572"
     x="356.33401" /><rect
     style="fill:none;stroke:#d40000;stroke-width:4;stroke-opacity:1"
     id="rect34"
     height="122.667"
     width="61.333"
     y="109.04875"
     x="334.668" /></g>
</svg>