<?xml version="1.0" encoding="UTF-8" standalone="no"?>
<!-- Generator: Adobe Illustrator 13.0.0, SVG Export Plug-In  -->

<svg
   xmlns:dc="http://purl.org/dc/elements/1.1/"
   xmlns:cc="http://creativecommons.org/ns#"
   xmlns:rdf="http://www.w3.org/1999/02/22-rdf-syntax-ns#"
   xmlns:svg="http://www.w3.org/2000/svg"
   xmlns="http://www.w3.org/2000/svg"
   xmlns:sodipodi="http://sodipodi.sourceforge.net/DTD/sodipodi-0.dtd"
   xmlns:inkscape="http://www.inkscape.org/namespaces/inkscape"
   version="1.1"
   x="0px"
   y="0px"
   width="576"
   height="576"
   viewBox="0 -0.031 576 576"
   enable-background="new 0 -0.031 598 600"
   xml:space="preserve"
   id="svg2"
   inkscape:version="0.48.1 "
   sodipodi:docname="C26b.svg"
   inkscape:export-filename="C:\Documents and Settings\bertrand.bouteilles\Bureau\Panneaux\A - Route\5_indication\C26b.png"
   inkscape:export-xdpi="150"
   inkscape:export-ydpi="150"><metadata
   id="metadata38"><rdf:RDF><cc:Work
       rdf:about=""><dc:format>image/svg+xml</dc:format><dc:type
         rdf:resource="http://purl.org/dc/dcmitype/StillImage" /><dc:title></dc:title></cc:Work></rdf:RDF></metadata><sodipodi:namedview
   pagecolor="#ffffff"
   bordercolor="#666666"
   borderopacity="1"
   objecttolerance="10"
   gridtolerance="10"
   guidetolerance="10"
   inkscape:pageopacity="0"
   inkscape:pageshadow="2"
   inkscape:window-width="1920"
   inkscape:window-height="1174"
   id="namedview36"
   showgrid="false"
   fit-margin-top="0"
   fit-margin-left="0"
   fit-margin-right="0"
   fit-margin-bottom="0"
   inkscape:zoom="0.435"
   inkscape:cx="-63.581042"
   inkscape:cy="399.12405"
   inkscape:window-x="1276"
   inkscape:window-y="-4"
   inkscape:window-maximized="1"
   inkscape:current-layer="svg2" />
<defs
   id="defs4">
</defs>














<path
   d="M 42.000354,574.96901 H 534.00052 c 10.87314,0 21.30227,-4.3185 28.99117,-12.0083 7.6888,-7.6888 12.0083,-18.117 12.0083,-28.9911 V 41.969434 c 0,-10.87417 -4.3194,-21.3023 -12.0083,-28.99114 C 555.30179,5.288474 544.87266,0.96899404 533.99952,0.96899404 H 42.000354 c -10.87413,0 -21.30227,4.31947996 -28.99113,12.00829996 -7.68985,7.68884 -12.00922996,18.11797 -12.00922996,28.99214 V 533.96961 c 0,10.8741 4.31937996,21.3023 12.00822996,28.9911 7.68886,7.6889 18.118,12.0083 28.99213,12.0083 z"
   id="path6-1-1-1-1"
   inkscape:connector-curvature="0"
   style="fill:#ffffff;stroke:#000000;stroke-width:1.99998808;stroke-linecap:round;stroke-linejoin:round;stroke-miterlimit:4;stroke-dasharray:none" /><polygon
   points="538.362,538.362 538.362,538.362 538.362,36.576 538.362,36.576 36.576,36.576 36.576,36.576 36.576,538.362 "
   id="polygon8-7-7-7-7"
   transform="matrix(1.0000749,0,0,1.0000749,0.50946304,0.47847304)"
   style="fill:#0000ff;stroke:#0000ff;stroke-width:0.17640001;stroke-linecap:round;stroke-linejoin:round" /><g
   id="g3010"
   transform="translate(-1.129509,-16.079996)"><path
     inkscape:connector-curvature="0"
     style="fill:#ffffff;stroke:none"
     id="path10"
     d="m 251.213,232.049 v 172.363 l 3,-13.363 C 287.2,272.364 344.087,161.06 428.29,71.049 h 105.423 l -4.5,4 c -123.847,123.603 -193.397,290.607 -217.574,462 h -99.426 v -305 h 39 z" /><g
     id="g2996"><rect
       x="-269.88"
       y="100.716"
       width="77.334"
       height="140.66701"
       id="rect12"
       style="fill:#ffffff;stroke:none"
       transform="scale(-1,1)" /><rect
       x="-262.21301"
       y="129.72597"
       width="19.334"
       height="17.311001"
       id="rect14"
       style="fill:#d40000;fill-opacity:1;stroke:#d40000;stroke-width:1;stroke-opacity:1"
       transform="scale(-1,1)" /><rect
       x="-262.21301"
       y="164.02698"
       width="19.334"
       height="15.979"
       id="rect16"
       style="fill:#d40000;fill-opacity:1;stroke:#d40000;stroke-width:1;stroke-opacity:1"
       transform="scale(-1,1)" /><rect
       x="-262.21301"
       y="195.73697"
       width="19.334"
       height="17.312"
       id="rect18"
       style="fill:#d40000;fill-opacity:1;stroke:#d40000;stroke-width:1;stroke-opacity:1"
       transform="scale(-1,1)" /><rect
       x="-220.87999"
       y="129.72597"
       width="19.334"
       height="17.311001"
       id="rect20"
       style="fill:#d40000;fill-opacity:1;stroke:#d40000;stroke-width:1;stroke-opacity:1"
       transform="scale(-1,1)" /><rect
       x="-220.87999"
       y="164.02698"
       width="19.334"
       height="15.979"
       id="rect22"
       style="fill:#d40000;fill-opacity:1;stroke:#d40000;stroke-width:1;stroke-opacity:1"
       transform="scale(-1,1)" /><rect
       x="-220.87999"
       y="195.73598"
       width="19.334"
       height="17.312"
       id="rect24"
       style="fill:#d40000;fill-opacity:1;stroke:#d40000;stroke-width:1;stroke-opacity:1"
       transform="scale(-1,1)" /><rect
       x="-240.87898"
       y="109.72601"
       width="19.334"
       height="17.978001"
       id="rect26"
       style="fill:#d40000;fill-opacity:1;stroke:#d40000;stroke-width:1;stroke-opacity:1"
       transform="scale(-1,1)" /><rect
       x="-241.54601"
       y="147.34998"
       width="19.334"
       height="16.646"
       id="rect28"
       style="fill:#d40000;fill-opacity:1;stroke:#d40000;stroke-width:1;stroke-opacity:1"
       transform="scale(-1,1)" /><rect
       x="-241.54601"
       y="179.72597"
       width="19.334"
       height="15.979"
       id="rect30"
       style="fill:#d40000;fill-opacity:1;stroke:#d40000;stroke-width:1;stroke-opacity:1"
       transform="scale(-1,1)" /><rect
       x="-240.87898"
       y="213.72597"
       width="19.334"
       height="17.979"
       id="rect32"
       style="fill:#d40000;fill-opacity:1;stroke:#d40000;stroke-width:1;stroke-opacity:1"
       transform="scale(-1,1)" /><rect
       x="-262.54501"
       y="109.049"
       width="61.333"
       height="122.667"
       id="rect34"
       style="fill:none;stroke:#d40000;stroke-width:4;stroke-opacity:1"
       transform="scale(-1,1)" /></g></g>
</svg>