<?xml version="1.0" encoding="UTF-8" standalone="no"?>
<!-- Generator: Adobe Illustrator 13.0.0, SVG Export Plug-In  -->

<svg
   xmlns:dc="http://purl.org/dc/elements/1.1/"
   xmlns:cc="http://creativecommons.org/ns#"
   xmlns:rdf="http://www.w3.org/1999/02/22-rdf-syntax-ns#"
   xmlns:svg="http://www.w3.org/2000/svg"
   xmlns="http://www.w3.org/2000/svg"
   xmlns:sodipodi="http://sodipodi.sourceforge.net/DTD/sodipodi-0.dtd"
   xmlns:inkscape="http://www.inkscape.org/namespaces/inkscape"
   version="1.1"
   x="0px"
   y="0px"
   width="576"
   height="576"
   viewBox="0 0 576 576"
   enable-background="new 0 0 576 576"
   xml:space="preserve"
   id="svg2"
   inkscape:version="0.48.1 "
   sodipodi:docname="C29b.svg"
   inkscape:export-filename="C:\Documents and Settings\bertrand.bouteilles\Bureau\Panneaux\A - Route\5_indication\C29b.png"
   inkscape:export-xdpi="150"
   inkscape:export-ydpi="150"><metadata
   id="metadata18"><rdf:RDF><cc:Work
       rdf:about=""><dc:format>image/svg+xml</dc:format><dc:type
         rdf:resource="http://purl.org/dc/dcmitype/StillImage" /><dc:title></dc:title></cc:Work></rdf:RDF></metadata><sodipodi:namedview
   pagecolor="#ffffff"
   bordercolor="#666666"
   borderopacity="1"
   objecttolerance="10"
   gridtolerance="10"
   guidetolerance="10"
   inkscape:pageopacity="0"
   inkscape:pageshadow="2"
   inkscape:window-width="1920"
   inkscape:window-height="1174"
   id="namedview16"
   showgrid="false"
   fit-margin-top="0"
   fit-margin-left="0"
   fit-margin-right="0"
   fit-margin-bottom="0"
   inkscape:zoom="0.50868056"
   inkscape:cx="-111.07167"
   inkscape:cy="288"
   inkscape:window-x="1276"
   inkscape:window-y="-4"
   inkscape:window-maximized="1"
   inkscape:current-layer="svg2" />
<defs
   id="defs4">
</defs>




<path
   d="M 42.000395,575.00003 H 534.00057 c 10.8731,0 21.3022,-4.31851 28.99109,-12.0083 7.6888,-7.6888 12.0083,-18.11698 12.0083,-28.99115 V 42.000415 c 0,-10.87417 -4.3194,-21.3023 -12.0083,-28.99114 -7.6899,-7.68982 -18.11899,-12.0093 -28.99209,-12.0093 H 42.000395 c -10.87413,0 -21.30227,4.31948 -28.99113,12.0083 -7.68985,7.68884 -12.00923,18.11797 -12.00923,28.99214 V 534.00058 c 0,10.87417 4.31938,21.30235 12.00823,28.99115 7.68886,7.68879 18.118,12.0083 28.99213,12.0083 z"
   id="path6-1-1-1-1"
   inkscape:connector-curvature="0"
   style="fill:#ffffff;stroke:#000000;stroke-width:1.99998808;stroke-linecap:round;stroke-linejoin:round;stroke-miterlimit:4;stroke-dasharray:none" /><polygon
   points="538.362,538.362 538.362,538.362 538.362,36.576 538.362,36.576 36.576,36.576 36.576,36.576 36.576,538.362 "
   id="polygon8-7-7-7-7"
   transform="matrix(1.0000749,0,0,1.0000749,0.50946857,0.50946857)"
   style="fill:#0000ff;stroke:#0000ff;stroke-width:0.17640001;stroke-linecap:round;stroke-linejoin:round" /><g
   id="g2995"
   transform="translate(-4.853,0.6425)"><polygon
     id="polygon10"
     points="168.354,519.69 191.575,479.469 214.795,439.247 188.47,439.247 188.47,190.469 152.47,190.469 152.47,439.247 121.91,439.247 145.13,479.469 "
     style="fill:#ffffff" /><polygon
     id="polygon12"
     points="273.585,514.247 311.586,514.247 311.586,135.469 338.911,135.469 315.69,95.247 292.47,55.025 269.247,95.247 246.026,135.469 273.585,135.469 "
     style="fill:#ffffff" /><polygon
     id="polygon14"
     points="436.47,515.969 436.47,137.19 463.796,137.19 440.574,96.969 417.354,56.747 394.132,96.969 370.91,137.19 398.47,137.19 398.47,515.969 "
     style="fill:#ffffff" /></g>
</svg>