<?xml version="1.0" encoding="UTF-8" standalone="no"?>
<!-- Generator: Adobe Illustrator 16.0.2, SVG Export Plug-In . SVG Version: 6.00 Build 0)  -->

<svg
   xmlns:dc="http://purl.org/dc/elements/1.1/"
   xmlns:cc="http://creativecommons.org/ns#"
   xmlns:rdf="http://www.w3.org/1999/02/22-rdf-syntax-ns#"
   xmlns:svg="http://www.w3.org/2000/svg"
   xmlns="http://www.w3.org/2000/svg"
   xmlns:sodipodi="http://sodipodi.sourceforge.net/DTD/sodipodi-0.dtd"
   xmlns:inkscape="http://www.inkscape.org/namespaces/inkscape"
   version="1.1"
   id="Ebene_1"
   sodipodi:docname="C3.svg"
   inkscape:version="0.48.1 "
   x="0px"
   y="0px"
   width="576"
   height="745"
   viewBox="0 0 576 745"
   xml:space="preserve"
   inkscape:export-filename="C:\Documents and Settings\bertrand.bouteilles\Bureau\Panneaux\A - Route\5_indication\C3.png"
   inkscape:export-xdpi="150"
   inkscape:export-ydpi="150"><metadata
   id="metadata57"><rdf:RDF><cc:Work
       rdf:about=""><dc:format>image/svg+xml</dc:format><dc:type
         rdf:resource="http://purl.org/dc/dcmitype/StillImage" /><dc:title></dc:title></cc:Work></rdf:RDF></metadata><defs
   id="defs55">
	
	
	
	
	
	
	
	
	
	
	
	
	
	
	
</defs><sodipodi:namedview
   pagecolor="#ffffff"
   bordercolor="#666666"
   borderopacity="1"
   objecttolerance="10"
   gridtolerance="10"
   guidetolerance="10"
   inkscape:pageopacity="0"
   inkscape:pageshadow="2"
   inkscape:window-width="1920"
   inkscape:window-height="1174"
   id="namedview53"
   showgrid="false"
   inkscape:zoom="0.30009657"
   inkscape:cx="-568.18521"
   inkscape:cy="338.85947"
   inkscape:window-x="1276"
   inkscape:window-y="-4"
   inkscape:window-maximized="1"
   inkscape:current-layer="Ebene_1"
   fit-margin-top="0"
   fit-margin-left="0"
   fit-margin-right="0"
   fit-margin-bottom="0" />
<path
   id="path8"
   style="fill:#ffffff;stroke:#000000;stroke-width:2.13682652;stroke-linecap:round;stroke-linejoin:round"
   d="M 34.824316,743.9316 C 15.35103,742.22509 2.7722853,729.64698 1.0684133,710.16484 V 34.835164 C 2.7722853,15.355167 15.349962,2.7727793 34.824316,1.0684126 H 541.17354 C 560.6479,2.7727793 573.22879,15.354099 574.93159,34.835164 V 710.16484 c -1.7028,19.48107 -14.28262,32.06025 -33.75805,33.76676 H 34.824316 z"
   inkscape:connector-curvature="0" />
<polygon
   id="polygon10"
   style="fill:#ff0000"
   points="512.971,28.865 513.328,30.194 513.448,31.566 513.448,663.562 513.328,664.934 512.971,666.263 512.39,667.512 511.6,668.639 510.627,669.613 509.498,670.402 508.25,670.985 506.92,671.341 505.548,671.462 31.552,671.462 30.181,671.341 28.851,670.985 27.603,670.402 26.475,669.613 25.501,668.639 24.711,667.512 24.129,666.263 23.773,664.934 23.653,663.562 23.653,31.566 23.773,30.194 24.129,28.865 24.711,27.616 25.501,26.488 26.475,25.515 27.603,24.725 28.851,24.143 30.181,23.786 31.552,23.666 505.548,23.666 506.92,23.786 508.25,24.143 509.498,24.725 510.627,25.515 511.6,26.488 512.39,27.616 "
   transform="matrix(1.0682586,0,0,1.0685681,1.1176004,1.0984353)" />
<polyline
   id="polyline12"
   style="fill:#ffffff"
   points="55.252,55.266 55.252,639.861 481.849,639.861 481.849,55.266   55.252,55.266 "
   transform="matrix(1.0682586,0,0,1.0685681,1.1176004,1.0989696)" />














<g
   id="g3013"
   transform="matrix(1.0682586,0,0,1.0685681,-0.62032687,1.1047441)"><polygon
     points="341.821,413.861 337.005,405.737 332.191,396.109 331.891,384.072 331.891,378.055 333.395,373.24 335.501,369.027 338.51,365.417 337.005,372.037 338.209,380.764 342.421,387.984 348.74,396.109 357.467,400.623 366.794,405.136 373.715,411.756 377.928,416.27 382.14,426.198 383.645,418.977 385.15,413.561 391.469,409.047 390.265,412.357 389.663,415.667 390.265,421.083 392.07,427.703 395.38,432.518 398.691,435.526 401.999,439.438 405.611,441.845 408.319,445.758 409.523,452.979 412.832,447.863 417.647,443.35 421.258,443.35 422.762,443.35 420.656,445.758 419.151,448.466 418.55,452.678 418.851,457.492 420.355,460.501 421.859,464.714 423.966,471.334 426.372,480.661 427.276,488.185 429.08,498.415 428.48,510.752 426.372,520.682 422.16,531.814 415.54,539.036 404.707,546.559 395.983,551.674 385.15,552.877 376.724,552.577 370.706,550.771 361.378,546.258 353.856,541.143 350.546,536.629 346.634,528.806 346.032,522.788 346.634,519.779 348.44,511.053 348.44,504.132 348.74,497.813 347.537,491.494 347.537,486.68 347.537,482.166 348.139,477.652 351.75,470.431 354.759,462.307 357.767,455.688 357.767,446.058 356.264,437.633 352.953,428.004 347.537,420.782 "
     style="fill:#ff0000"
     id="polygon42" /><path
     d="m 310.226,394.906 c -0.458,-5.03 -0.249,-10.514 -1.927,-15.303 -2.11,-6.031 -4.188,-12.066 -6.209,-18.129 -3.712,-11.139 -4.678,-22.715 -6.921,-34.181 -2.182,-11.146 -4.119,-21.712 -4.886,-33.02 -0.795,-11.72 -0.78,-23.071 -0.524,-34.827 0.102,-4.712 0.006,-9.435 0.006,-14.148 0,-1.86 1.495,-4.431 2.095,-6.169 0.802,-2.324 1.482,-4.739 2.418,-7.012 3.647,-8.854 8.386,-17.961 16.091,-23.854 1.921,-1.469 3.375,-3.15 5.791,-3.37 2.497,-0.227 4.896,-0.309 7.405,-0.309 4.689,0 7.26,-5.191 12.267,-4.691 1.912,0.191 5.005,0.51 6.741,-0.273 1.007,-0.455 1.896,-2.104 2.873,-2.769 1.389,-0.943 3.535,-0.753 5.131,-0.802 2.299,-0.07 4.407,-0.524 6.681,-0.199 1.081,0.154 2.774,1.351 3.771,0.852 1.09,-0.545 1.479,-4.065 1.856,-5.207 1.806,1.354 3.61,2.708 5.416,4.062 1.293,-3.875 0.742,-4.203 4.774,-3.272 2.87,0.662 3.534,0.034 6.222,-1.276 3.398,-1.658 6.797,-3.316 10.196,-4.975 1.868,-0.911 4.413,-1.29 4.7,-3.447 0.729,-5.477 2.091,-10.943 2.091,-16.465 0,-1.309 -1.096,-1.9 -2.006,-2.811 -1.039,-1.039 -0.549,-1.922 -0.368,-3.377 0.274,-2.189 4.692,-1.388 6.47,-1.388 3.737,0 3.434,-1.77 4.889,-5.165 1.086,-2.533 1.215,-5.474 1.665,-8.18 0.965,-5.792 -1.698,-10.389 -4.919,-14.762 -1.342,-1.822 -2.58,-3.498 -4.171,-5.089 -1.653,-1.654 -3.966,-5.155 -6.111,-6.09 -5.559,-2.42 -11.117,-4.841 -16.676,-7.261 -6.869,-2.992 -13.744,-5.969 -20.63,-8.919 -6.918,-2.965 -14.267,-3.625 -21.674,-4.551 -3.521,-0.44 -6.958,-1.989 -10.49,-2.27 -4.094,-0.326 -8.619,0.595 -12.723,0.877 -1.935,0.132 -6.397,3.482 -7.535,5.108 -2.342,3.345 -4.785,6.576 -7.274,9.812 l -23.02,-10.381 -19.408,-7.673 -22.567,-4.514 h -11.735 l -16.701,0.452 -16.7,2.257 -11.284,1.354 -5.416,3.16 -2.257,4.062 v 3.16 4.062 2.708 l 1.354,4.514 1.806,2.257 2.256,2.257 -22.567,-1.806 h -12.638 -6.771 l -3.61,2.708 -1.806,0.903 -1.354,2.257 v 3.159 1.806 l 0.451,6.319 2.257,7.222 3.61,2.708 1.806,0.903 0.902,1.805 -3.61,0.452 -3.611,2.708 0.452,3.159 0.902,5.868 4.514,5.417 6.318,8.124 c 0,0 6.319,2.708 7.673,2.708 1.354,0 5.868,0 5.868,0 h 33.399 l -7.673,2.257 -0.902,3.16 v 3.159 2.708 l 3.61,3.61 2.708,2.708 5.868,3.159 6.318,0.452 c 0,0 3.16,1.805 5.417,1.805 2.257,0 4.062,0 5.416,0 1.354,0 5.416,-0.451 5.416,-0.451 l 10.381,0.451 c 0,0 6.771,2.257 8.124,2.708 1.354,0.452 9.931,3.611 9.931,3.611 h 3.61 l 5.416,1.806 c 0,0 1.806,-0.903 3.159,0.451 1.354,1.354 -1.354,-0.903 1.354,1.354 2.708,2.257 8.575,4.965 8.575,4.965 l 5.868,9.93 1.806,12.187 4.062,23.921 -0.902,12.187 -3.159,5.417 0.451,2.708 v 3.16 l 2.257,3.61 1.805,6.319 0.452,8.575 -1.354,8.576 -0.451,9.027 -2.257,8.576 0.451,9.478 -1.354,7.673 v 12.638 l -2.709,17.603 -5.416,24.373 50.704,-5.116 0,0 z"
     style="fill:#0000ff"
     id="path44"
     inkscape:connector-curvature="0" /><polygon
     points="279.834,201.426 275.773,210.002 273.516,214.967 267.197,200.523 276.224,191.948 279.834,195.559 "
     style="fill:none"
     id="polygon46" /><polygon
     points="200.397,159.902 201.751,165.318 208.07,159.902 "
     style="fill:#ffffff"
     id="polygon48" /><polygon
     points="260.878,119.731 264.94,121.988 282.091,132.37 282.091,123.794 275.773,124.245 "
     style="fill:#ffffff"
     id="polygon50" /><polygon
     points="287.056,179.31 289.764,174.345 296.534,168.026 295.632,164.867 290.667,164.867 284.799,165.318 280.738,172.991 "
     style="fill:#ffffff"
     id="polygon52" /><polygon
     points="302.854,171.637 308.27,178.858 310.074,161.256 "
     style="fill:#ffffff"
     id="polygon54" /><polygon
     points="303.756,203.231 291.118,207.293 293.826,195.107 294.729,184.275 302.402,177.504 306.915,186.08 "
     style="fill:#ffffff"
     id="polygon56" /><polyline
     points="266.294,198.718 276.224,191.948 279.834,195.559 279.834,201.426   278.481,208.196 273.516,214.967 267.197,200.523 "
     style="fill:#ffffff"
     id="polyline58" /><path
     d="m 178.726,442.87 0.909,4.542 1.806,3.159 4.965,2.257 5.867,0.903 c 0,0 1.354,0.902 3.159,0 1.806,-0.903 4.965,-4.063 4.965,-4.063 l 1.806,-7.222 v -8.576 l -2.106,-9.178 -4.213,-6.318 -6.018,-8.125 -3.912,-5.416 -4.213,-6.619 -1.805,-9.027 v -6.619 l 0.3,-7.523 1.204,-6.92 0.602,7.522 2.708,6.319 4.514,3.911 8.425,3.61 7.222,0.902 7.522,1.205 5.115,2.406 2.106,1.505 1.806,2.407 2.708,-3.311 1.805,-4.813 1.204,-4.213 v -2.708 -3.611 l 2.407,1.506 5.717,8.725 3.31,9.027 0.603,7.222 -1.203,5.718 1.505,7.521 3.61,8.125 4.514,6.318 4.814,4.814 -3.009,-7.823 -2.407,-10.531 v -9.93 l 1.504,-12.337 2.106,-9.027 3.61,-8.125 3.009,-6.619 2.708,-6.318 3.009,-8.727 0.301,-9.027 v -7.522 l 0.301,-6.921 -0.301,-3.912 -0.902,-3.611 4.813,3.31 9.027,9.93 4.213,6.319 3.611,6.619 2.105,6.619 1.203,6.621 -0.3,9.628 -0.903,8.124 3.911,1.506 4.213,3.61 0.301,-4.814 v -3.912 l 0.302,-2.708 0.301,-3.009 c 0,0 0.302,-0.603 0.602,-1.505 0.301,-0.902 0.903,-2.105 0.903,-2.105 l 1.203,-1.203 2.105,-1.506 3.311,-2.407 8.124,-3.911 -3.009,4.213 -1.805,4.814 v 3.31 l 0.601,3.31 1.806,3.01 2.106,6.619 2.106,6.019 2.407,4.513 0.903,4.213 -0.302,4.814 v 5.416 l -2.106,5.115 4.213,-2.708 3.31,-3.009 0.603,-3.311 0.602,-3.309 0.602,-3.01 v -1.203 l 4.514,4.514 3.61,7.521 1.505,7.222 0.602,6.319 v 6.62 l 3.31,7.222 4.815,8.726 3.61,4.213 6.62,4.813 -3.311,8.125 -2.708,4.514 -1.806,5.717 -1.504,3.912 -0.902,9.026 0.902,6.921 -225.073,-0.602 0.15,-1.806 v -3.61 l 0.451,-3.611 1.806,-3.159 3.61,-4.063 c 0,0 0.903,-1.354 2.257,-2.257 1.354,-0.902 2.708,-3.61 2.708,-3.61 l 3.611,-2.708 0.451,-2.708 -0.451,-2.257 -0.903,-1.806 -3.159,-2.708 3.159,-1.354 h 3.16 4.514 l 2.708,0.452 2.257,0.902 3.61,1.354 3.61,4.062 2.709,3.16 8.124,9.026 -4.514,-9.026 -3.159,-8.576 c 0,0 -0.451,-4.514 0.451,-5.867 0.902,-1.354 -0.451,-5.868 0.902,-7.673 1.354,-1.806 3.16,-5.417 3.16,-5.417 v -4.965 l 0.307,-5.526 -0.003,-1.47 -0.003,-2.181 -1.203,-4.814 -1.203,-3.009 -3.009,-3.611 -4.213,-4.213 6.019,0.603 6.018,1.203 4.213,2.407 3.611,4.814 3.009,3.01 2.407,4.813 3.905,12.462 0,0 z"
     style="fill:#ff0000"
     id="path60"
     inkscape:connector-curvature="0" /><polygon
     points="111.631,401.525 115.241,390.993 355.962,512.558 351.148,524.292 "
     style="fill:#ffffff;stroke:#000000;stroke-width:0.7087;stroke-linecap:round;stroke-linejoin:round"
     id="polygon62" /><polygon
     points="357.166,515.266 115.241,390.993 124.571,387.984 359.272,507.742 "
     style="fill:#ffffff;stroke:#000000;stroke-width:0.7087;stroke-linecap:round;stroke-linejoin:round"
     id="polygon64" /><path
     d="m 355.962,512.558 -0.602,-4.213 v -4.514 c 0,0 0,-4.814 0,-5.717 0,-0.903 0,-5.416 0,-5.416 l 1.203,-4.514 1.806,-4.815 1.806,-3.009 3.009,-3.61 2.708,-5.115 2.407,-4.514 0.902,-5.417 0.603,-5.114 0.301,-4.815 -1.203,-9.327 8.425,11.133 5.416,8.727 8.425,12.638 4.514,9.629 3.912,14.142 1.203,13.541 -1.805,12.036 -5.717,10.23 -9.931,6.019 -8.124,0.602 c 0,0 -6.62,0.301 -7.522,-0.301 -0.903,-0.603 -7.522,-5.416 -7.522,-5.416 l -5.717,-6.019 c 0,0 -2.107,-3.31 -2.107,-4.212 -10e-4,-0.905 3.61,-12.639 3.61,-12.639 z"
     style="fill:#ffff00"
     id="path66"
     inkscape:connector-curvature="0" /><path
     d="m 348.44,521.283 c -1.673,0 5.817,10.33 6.319,10.832 3.091,3.091 9.185,8.515 13.732,8.773 11.914,0.678 20.152,0.422 24.03,-11.858 2.933,-9.288 -10.156,-16.53 -17.15,-17.827 -7.144,-1.324 -13.847,0.864 -20.913,0.752 l -0.302,2.708 -3.009,1.505 0.301,2.407 -3.008,2.708 z"
     style="fill:#0000ff"
     id="path68"
     inkscape:connector-curvature="0" /><polyline
     points="177.378,437.934 176.249,434.098 174.896,431.163 173.316,427.102   170.833,423.265 168.351,420.557 165.794,417.773 161.581,415.366 158.872,414.012 153.456,413.335 148.491,413.109 152.328,416.27   154.811,418.977 156.842,422.362 158.196,427.553 "
     style="fill:#d40000"
     id="polyline70" /></g>
<g
   id="g3030"
   transform="matrix(0.99999946,0,0,1.0002892,2.9166033,48.637853)"><path
     style="fill:#0000ff"
     d="m 88.294719,584.12518 9.67095,38.20843 h -7.343214 l -1.612003,-6.49395 H 78.648338 l -1.637641,6.49395 h -7.41906 l 9.568398,-38.20843 h 9.134684 z m -8.238415,24.4375 h 7.39449 l -3.581873,-14.91824 -3.812617,14.91824 z"
     id="path25"
     inkscape:connector-curvature="0" /><path
     style="fill:#0000ff"
     d="m 118.63862,584.15189 v 7.35496 h -7.49597 v 30.90581 h -6.95971 V 591.4278 h -8.007673 v -7.27698 h 22.463353 z"
     id="path27"
     inkscape:connector-curvature="0" /><path
     style="fill:#0000ff"
     d="m 146.37276,584.15189 v 7.35496 h -7.49597 v 30.90581 h -6.95971 V 591.4278 h -8.00874 v -7.27698 h 22.46442 z"
     id="path29"
     inkscape:connector-curvature="0" /><path
     style="fill:#0000ff"
     d="m 174.13362,584.20317 v 6.98962 H 158.6289 v 8.34631 h 11.35987 v 7.0676 H 158.6289 v 8.73729 h 16.17024 v 7.0676 h -23.38526 l 0.0256,-38.20842 h 22.6941 z"
     id="path31"
     inkscape:connector-curvature="0" /><path
     style="fill:#0000ff"
     d="m 189.38302,584.12518 9.41456,20.39521 v -20.39521 h 6.95971 l 0.0256,38.28641 h -6.83152 l -11.43678,-24.12449 -0.0256,24.15013 h -7.03555 v -38.31205 h 8.92958 z"
     id="path33"
     inkscape:connector-curvature="0" /><path
     style="fill:#0000ff"
     d="m 234.20717,584.15189 v 7.35496 h -7.49597 v 30.90581 h -6.95971 V 591.4278 h -8.00874 v -7.27698 h 22.46442 z"
     id="path35"
     inkscape:connector-curvature="0" /><path
     style="fill:#0000ff"
     d="m 247.28266,584.17753 v 38.23406 h -7.11247 v -38.23406 h 7.11247 z"
     id="path37"
     inkscape:connector-curvature="0" /><path
     style="fill:#0000ff"
     d="m 268.87645,583.70856 c 4.12776,0.64416 7.18084,3.13 9.15926,7.45859 1.68891,3.19943 2.53284,7.12956 2.53284,11.78824 v 0.46896 c 0,5.82522 -1.38981,10.78088 -4.17048,14.8659 -1.97949,2.74756 -4.77619,4.28585 -8.39118,4.61595 -0.37603,0.0342 -0.74244,0.0523 -1.10031,0.0523 -3.75279,0 -6.89882,-1.61734 -9.4402,-4.85096 -2.62685,-4.3115 -3.9579,-8.7373 -3.99102,-13.27526 -0.0171,-0.38137 -0.0256,-0.76487 -0.0256,-1.14731 0,-6.13715 1.33853,-11.21459 4.01666,-15.23124 1.79147,-2.191 3.65878,-3.58935 5.60302,-4.19933 1.34707,-0.43371 2.69415,-0.65164 4.04229,-0.65164 0.59609,10e-4 1.1847,0.0363 1.76476,0.10576 z m -1.97094,32.57443 c 1.97842,-0.10469 3.65025,-1.48702 5.01441,-4.14698 0.98921,-1.77331 1.61201,-4.382 1.86839,-7.82393 0.0513,-4.382 -0.70826,-7.97135 -2.27646,-10.77126 -1.27978,-1.94637 -2.69522,-3.03386 -4.2474,-3.26033 -2.04679,0.10469 -3.75279,1.46993 -5.11696,4.09464 -0.97212,1.84382 -1.60346,4.48562 -1.89296,7.92862 -0.0342,4.382 0.74137,7.96387 2.32774,10.74562 1.26268,1.94744 2.7027,3.02424 4.32324,3.23362 z"
     id="path39"
     inkscape:connector-curvature="0" /><path
     style="fill:#0000ff"
     d="m 295.35646,584.12518 9.41457,20.39521 v -20.39521 h 6.95971 l 0.0256,38.28641 h -6.83152 l -11.43678,-24.12449 -0.0256,24.15013 h -7.03556 v -38.31205 h 8.92958 z"
     id="path41"
     inkscape:connector-curvature="0" /><path
     style="fill:#0000ff"
     d="m 353.84365,584.12518 9.67095,38.20843 h -7.34321 l -1.61201,-6.49395 h -10.36104 l -1.63764,6.49395 h -7.41906 l 9.56839,-38.20843 h 9.13362 z m -8.23841,24.4375 h 7.39342 l -3.58188,-14.91824 -3.81154,14.91824 z"
     id="path43"
     inkscape:connector-curvature="0" /><path
     style="fill:#0000ff"
     d="m 376.0784,584.22987 v 25.87217 c 0.32368,3.30413 2.14933,5.14687 5.47482,5.52931 3.27422,-0.36534 5.11697,-2.18138 5.52718,-5.45133 v -25.95015 h 7.23959 v 27.8805 c -0.63134,3.40775 -2.20809,6.06023 -4.73346,7.95426 -2.25082,1.61734 -4.55399,2.46874 -6.90843,2.55634 -0.37603,0.0342 -0.74137,0.0523 -1.09924,0.0523 -3.49641,0 -6.38819,-1.03408 -8.67319,-3.1033 -2.60976,-2.57237 -3.99102,-5.19815 -4.14485,-7.87627 v -27.46281 h 7.31758 z"
     id="path45"
     inkscape:connector-curvature="0" /><path
     style="fill:#0000ff"
     d="m 441.11508,584.12518 v 6.98962 h -15.50471 v 8.34631 h 11.35987 v 7.09431 h -11.35987 l -0.0246,15.8049 h -7.21502 l 0.0246,-38.23407 h 22.71973 z"
     id="path47"
     inkscape:connector-curvature="0" /><path
     style="fill:#0000ff"
     d="m 468.61955,584.20317 v 6.98962 h -15.50471 v 8.34631 h 11.35987 v 7.0676 h -11.35987 v 8.73729 h 16.17024 v 7.0676 h -23.38526 l 0.0256,-38.20842 h 22.6941 z"
     id="path49"
     inkscape:connector-curvature="0" /><path
     style="fill:#0000ff"
     d="m 482.33386,584.22987 v 25.87217 c 0.32368,3.30413 2.14934,5.14687 5.47483,5.52931 3.27421,-0.36534 5.11696,-2.18138 5.52717,-5.45133 v -25.95015 h 7.2396 v 27.8805 c -0.63135,3.40775 -2.2081,6.06023 -4.73346,7.95426 -2.25082,1.61734 -4.55399,2.46874 -6.90843,2.55634 -0.37603,0.0342 -0.74137,0.0523 -1.09924,0.0523 -3.49641,0 -6.38819,-1.03408 -8.6732,-3.1033 -2.60975,-2.57237 -3.99101,-5.19815 -4.14484,-7.87627 v -27.46281 h 7.31757 z"
     id="path51"
     inkscape:connector-curvature="0" /></g>
</svg>