<?xml version="1.0" encoding="UTF-8" standalone="no"?>
<!-- Generator: Adobe Illustrator 16.0.2, SVG Export Plug-In . SVG Version: 6.00 Build 0)  -->

<svg
   xmlns:dc="http://purl.org/dc/elements/1.1/"
   xmlns:cc="http://creativecommons.org/ns#"
   xmlns:rdf="http://www.w3.org/1999/02/22-rdf-syntax-ns#"
   xmlns:svg="http://www.w3.org/2000/svg"
   xmlns="http://www.w3.org/2000/svg"
   xmlns:sodipodi="http://sodipodi.sourceforge.net/DTD/sodipodi-0.dtd"
   xmlns:inkscape="http://www.inkscape.org/namespaces/inkscape"
   version="1.1"
   id="Ebene_1"
   x="0px"
   y="0px"
   width="576"
   height="576.00006"
   viewBox="0 0 576 576.00006"
   xml:space="preserve"
   inkscape:version="0.48.1 "
   sodipodi:docname="C4a_50.svg"
   inkscape:export-filename="C:\Documents and Settings\bertrand.bouteilles\Bureau\Panneaux\A - Route\5_indication\C4a_50.png"
   inkscape:export-xdpi="150"
   inkscape:export-ydpi="150"><metadata
   id="metadata31"><rdf:RDF><cc:Work
       rdf:about=""><dc:format>image/svg+xml</dc:format><dc:type
         rdf:resource="http://purl.org/dc/dcmitype/StillImage" /><dc:title></dc:title></cc:Work></rdf:RDF></metadata><defs
   id="defs29">
	
	

	
	
</defs><sodipodi:namedview
   pagecolor="#ffffff"
   bordercolor="#666666"
   borderopacity="1"
   objecttolerance="10"
   gridtolerance="10"
   guidetolerance="10"
   inkscape:pageopacity="0"
   inkscape:pageshadow="2"
   inkscape:window-width="1920"
   inkscape:window-height="1174"
   id="namedview27"
   showgrid="false"
   fit-margin-top="0"
   fit-margin-left="0"
   fit-margin-right="0"
   fit-margin-bottom="0"
   inkscape:zoom="0.69060762"
   inkscape:cx="82.922667"
   inkscape:cy="151.84261"
   inkscape:window-x="1276"
   inkscape:window-y="-4"
   inkscape:window-maximized="1"
   inkscape:current-layer="Ebene_1" />






<path
   d="M 42.000354,575.00005 H 534.00054 c 10.87313,0 21.30226,-4.31848 28.99112,-12.0083 7.68886,-7.68884 12.00835,-18.11698 12.00835,-28.99115 V 42.000436 c 0,-10.87417 -4.31948,-21.3023 -12.00835,-28.99114 C 555.30181,5.319476 544.87267,0.99999404 533.99954,0.99999404 H 42.000354 c -10.87413,0 -21.30227,4.31948196 -28.99113,12.00830196 -7.68985,7.68884 -12.00922996,18.11797 -12.00922996,28.99214 V 534.0006 c 0,10.87417 4.31937996,21.30231 12.00822996,28.99115 7.68886,7.68883 18.118,12.0083 28.99213,12.0083 z"
   id="path6-1-1-1"
   inkscape:connector-curvature="0"
   style="fill:#ffffff;stroke:#000000;stroke-width:1.99998808;stroke-linecap:round;stroke-linejoin:round;stroke-miterlimit:4;stroke-dasharray:none" /><polygon
   points="36.576,538.362 538.362,538.362 538.362,538.362 538.362,36.576 538.362,36.576 36.576,36.576 36.576,36.576 "
   id="polygon8-7-7-7"
   transform="matrix(1.0000749,0,0,1.0000749,0.50947304,0.50948904)"
   style="fill:#0000ff;stroke:#0000ff;stroke-width:0.17640001;stroke-linecap:round;stroke-linejoin:round" />
<g
   id="g3021"
   transform="translate(-21.060496,-7.80398)"><path
     style="fill:#ffffff"
     d="m 260.478,174.603 -0.187,48.022 H 168.27 l -6.334,42.725 c 8.691,-2.278 17.883,-3.247 27.569,-2.905 9.063,-0.227 18.316,0.684 27.756,2.734 13.659,3.989 25.829,10.996 36.511,21.021 14.777,14.813 23.16,31.219 25.147,49.219 0.122,2.622 0.187,5.186 0.187,7.69 0,10.938 -1.555,20.396 -4.657,28.369 -5.713,12.192 -13.537,23.13 -23.471,32.813 -16.393,14.128 -36.389,21.191 -59.982,21.191 h -3.726 l -17.138,-1.025 c -17.883,-1.821 -33.408,-7.575 -46.569,-17.261 -17.016,-14.355 -27.508,-29.109 -31.481,-44.263 l 53.648,-12.476 c 1.612,6.724 5.836,12.762 12.667,18.115 10.307,6.951 24.836,8.374 43.59,4.272 15.521,-5.811 22.787,-15.95 21.794,-30.42 0.373,-13.101 -6.086,-22.388 -19.373,-27.856 -9.191,-2.505 -19.56,-3.188 -31.108,-2.051 -8.819,1.709 -16.704,4.844 -23.657,9.399 l -46.384,-33.325 13.785,-113.989 h 143.434 z"
     id="path19"
     inkscape:connector-curvature="0" /><path
     style="fill:#ffffff"
     d="m 327.464,320.106 c -0.372,-6.38 -0.559,-12.646 -0.559,-18.799 0,-3.076 0.061,-6.152 0.187,-9.229 0.372,-12.075 1.426,-23.811 3.166,-35.205 v -1.196 l 0.745,-1.538 1.305,-11.792 0.931,-1.709 1.863,-9.57 0.745,-1.025 c 1.862,-8.203 5.896,-17.432 12.108,-27.686 l 5.401,-7.52 10.432,-9.741 c 11.052,-8.203 25.396,-14.07 43.031,-17.603 5.588,-0.911 11.362,-1.367 17.323,-1.367 h 1.49 c 9.314,0.229 19.063,1.653 29.246,4.272 4.221,0.457 10.991,3.02 20.305,7.69 9.562,5.469 18.255,12.932 26.079,22.388 l 5.961,8.374 4.844,9.399 2.049,6.836 0.559,0.513 v 1.709 c 1.24,2.393 1.985,4.272 2.235,5.64 l 0.745,0.854 3.167,15.21 0.559,0.342 -0.372,2.222 0.744,1.367 1.863,18.286 0.745,1.709 -0.559,0.171 1.304,10.767 -0.373,0.342 c 0.495,1.14 0.495,1.824 0,2.051 l 0.56,1.709 -0.373,0.513 0.932,11.621 -0.372,0.342 0.559,4.956 -0.187,0.342 v 6.836 c -0.125,4.216 -0.498,9.287 -1.118,15.21 l -0.931,6.323 0.372,0.342 -0.932,1.709 c -0.372,4.216 -1.429,9.229 -3.166,15.039 l -1.118,3.247 -0.187,1.88 -4.843,12.646 -0.932,0.684 c 0,1.14 -1.615,4.614 -4.843,10.425 l -8.941,11.792 c -9.812,10.368 -20.678,17.944 -32.6,22.729 -7.823,2.85 -15.711,4.727 -23.657,5.64 l -14.343,0.854 -3.354,-0.171 c -28.314,-0.684 -51.166,-9.114 -68.551,-25.293 -8.569,-8.772 -15.027,-18.97 -19.373,-30.591 -4.969,-11.848 -8.01,-24.324 -9.128,-37.427 l -0.743,-7.519 z m 92.768,51.612 c 7.698,0.456 12.48,0.342 14.344,-0.342 l 0.186,0.342 10.246,-2.051 c 8.195,-2.505 14.465,-7.917 18.813,-16.235 3.354,-8.315 5.836,-18.228 7.451,-29.736 l 0.932,-38.623 -0.559,-18.115 -1.863,-13.501 -0.745,-0.684 -2.422,-9.57 -0.744,-0.342 c -1.863,-6.836 -5.402,-13.159 -10.618,-18.97 -3.977,-2.961 -7.143,-4.897 -9.501,-5.811 l -10.804,-2.393 -11.363,-0.513 c -5.094,-0.112 -10.743,0.854 -16.951,2.905 -5.714,2.507 -10.496,7.007 -14.344,13.501 -2.733,6.04 -5.216,13.616 -7.451,22.729 l 0.373,1.025 c -0.745,0.571 -1.183,2.451 -1.305,5.64 -1.74,13.33 -1.927,32.871 -0.559,58.618 l 2.98,18.628 3.912,13.159 c 2.855,6.836 6.767,11.792 11.735,14.868 4.472,2.624 10.555,4.445 18.257,5.471 z"
     id="path25"
     inkscape:connector-curvature="0" /></g>
</svg>