<?xml version="1.0" encoding="UTF-8" standalone="no"?>
<!-- Generator: Adobe Illustrator 16.0.2, SVG Export Plug-In . SVG Version: 6.00 Build 0)  -->

<svg
   xmlns:dc="http://purl.org/dc/elements/1.1/"
   xmlns:cc="http://creativecommons.org/ns#"
   xmlns:rdf="http://www.w3.org/1999/02/22-rdf-syntax-ns#"
   xmlns:svg="http://www.w3.org/2000/svg"
   xmlns="http://www.w3.org/2000/svg"
   xmlns:sodipodi="http://sodipodi.sourceforge.net/DTD/sodipodi-0.dtd"
   xmlns:inkscape="http://www.inkscape.org/namespaces/inkscape"
   version="1.1"
   id="Ebene_1"
   x="0px"
   y="0px"
   width="576"
   height="576"
   viewBox="0 0 576 576"
   xml:space="preserve"
   inkscape:version="0.48.1 "
   sodipodi:docname="C5.svg"
   inkscape:export-filename="C:\Documents and Settings\bertrand.bouteilles\Bureau\Panneaux\A - Route\5_indication\C5.png"
   inkscape:export-xdpi="150"
   inkscape:export-ydpi="150"><metadata
   id="metadata33"><rdf:RDF><cc:Work
       rdf:about=""><dc:format>image/svg+xml</dc:format><dc:type
         rdf:resource="http://purl.org/dc/dcmitype/StillImage" /><dc:title></dc:title></cc:Work></rdf:RDF></metadata><defs
   id="defs31">
	
	
	
	
	
	
</defs><sodipodi:namedview
   pagecolor="#ffffff"
   bordercolor="#666666"
   borderopacity="1"
   objecttolerance="10"
   gridtolerance="10"
   guidetolerance="10"
   inkscape:pageopacity="0"
   inkscape:pageshadow="2"
   inkscape:window-width="1280"
   inkscape:window-height="964"
   id="namedview29"
   showgrid="false"
   fit-margin-top="0"
   fit-margin-left="0"
   fit-margin-right="0"
   fit-margin-bottom="0"
   inkscape:zoom="0.48833333"
   inkscape:cx="97.87544"
   inkscape:cy="273.66554"
   inkscape:window-x="1488"
   inkscape:window-y="101"
   inkscape:window-maximized="1"
   inkscape:current-layer="Ebene_1" />



<path
   d="M 41.992395,575.00173 H 533.99551 c 10.8732,0 21.30239,-4.3185 28.99129,-12.00837 7.68891,-7.68888 12.00841,-18.11708 12.00841,-28.99132 V 41.998945 c 0,-10.874239 -4.3195,-21.30243 -12.00841,-28.99131 C 555.2969,5.3177653 544.86771,0.99826526 533.99451,0.99826526 H 41.992395 c -10.8742,0 -21.3024,4.31950004 -28.9913,12.00837074 -7.6899,7.688879 -12.0093,18.11807 -12.0093,28.992309 V 534.00204 c 0,10.87424 4.3194,21.30244 12.0083,28.99132 7.6889,7.68888 18.1181,12.00837 28.9923,12.00837 z"
   id="path6-1-1"
   inkscape:connector-curvature="0"
   style="fill:#ffffff;stroke:#000000;stroke-width:2;stroke-linecap:round;stroke-linejoin:round;stroke-miterlimit:4;stroke-dasharray:none" /><polygon
   points="538.362,36.576 36.576,36.576 36.576,36.576 36.576,538.362 538.362,538.362 538.362,538.362 538.362,36.576 "
   id="polygon8-7-7"
   transform="matrix(1.0001141,0,0,1.0001141,0.4916998,0.49819955)"
   style="fill:#0000ff;stroke:#0000ff;stroke-width:0.17640001;stroke-linecap:round;stroke-linejoin:round" />


<g
   id="g3025"
   transform="translate(-1.129627,-16.402515)"><path
     style="fill:#ffffff"
     d="m 132.9555,241.14661 v 24.43607 H 105.28167 V 368.26604 H 79.589855 V 265.32227 H 50.026614 V 241.14661 H 132.9555 z"
     id="path19"
     inkscape:connector-curvature="0" /><path
     style="fill:#ffffff"
     d="m 198.218,241.05981 35.70216,126.94582 h -27.10768 l -5.94987,-21.57638 H 162.6094 l -6.0444,21.57638 H 129.17377 L 164.49882,241.05981 H 198.218 z m -30.41295,81.19282 h 27.29672 l -13.22302,-49.56559 -14.0737,49.56559 z"
     id="path21"
     inkscape:connector-curvature="0" /><path
     style="fill:#ffffff"
     d="m 283.126,241.14661 25.5973,39.16657 25.59633,-38.99392 h 30.50747 l -42.40915,62.91013 42.78626,63.86305 h -30.41294 l -26.44605,-38.73352 -25.03018,38.64671 -33.53015,0.0868 42.69271,-63.94985 -42.59819,-62.99598 H 283.126 z"
     id="path23"
     inkscape:connector-curvature="0" /><path
     style="fill:#ffffff"
     d="M 411.76642,241.23245 V 368.26508 H 385.50845 V 241.23245 h 26.25797 z"
     id="path25"
     inkscape:connector-curvature="0" /><path
     style="fill:#ffffff"
     d="m 433.29747,342.35625 v -0.1736 c 0,-0.63463 0.72336,-1.06768 2.17201,-1.30012 11.14553,-3.29274 18.38588,-5.66054 21.72394,-7.10533 1.70038,2.13826 3.93412,4.073 6.70603,5.80617 4.47037,2.42663 9.25612,3.8994 14.35629,4.41925 5.41459,0.11574 8.78352,0 10.10678,-0.34625 6.2344,-1.61743 10.074,-3.2638 11.52265,-4.9391 1.44768,-1.15448 2.70729,-3.95726 3.77786,-8.40544 0.25173,-1.73317 0,-3.66792 -0.75518,-5.80617 -0.94423,-1.44383 -1.95211,-2.65715 -3.02268,-3.63899 l -3.21076,-2.25302 -3.58979,-1.47276 c -19.96088,-5.71937 -30.9492,-9.06901 -32.964,-10.05181 -9.25611,-3.40751 -16.15118,-9.04007 -20.68424,-16.89769 -2.95999,-5.25642 -4.28229,-11.63935 -3.9669,-19.14975 1.19499,-9.35835 5.38372,-16.78099 12.56235,-22.26985 8.05823,-5.37215 16.46464,-8.28874 25.21729,-8.75169 h 2.45653 c 6.23344,0 11.39533,0.43305 15.48955,1.30012 8.31189,2.13825 14.79705,5.11271 19.45742,8.9253 4.6594,3.52421 8.49996,8.31864 11.52264,14.38425 l -0.28355,0.95291 -19.45646,8.57905 -0.94422,-0.43305 c -1.19692,-3.52325 -4.56585,-6.38293 -10.10679,-8.57905 -6.23343,-2.13633 -13.53841,-2.19419 -21.91299,-0.17361 -3.58979,1.09854 -6.10805,2.51247 -7.55573,4.24564 -0.50443,0.46295 -1.16606,1.90678 -1.98394,4.33245 -0.12731,2.83171 0,4.47808 0.37808,4.9391 0.81788,1.96464 2.45556,3.72579 4.91113,5.28535 l 2.45653,0.95291 c 17.88243,4.85229 30.00208,8.37747 36.36379,10.57166 5.47825,2.3109 9.66506,4.8523 12.56139,7.62518 l 5.28824,6.58547 c 3.90422,5.95084 5.98171,12.44951 6.2344,19.49696 0.0617,0.46199 0.0945,1.01174 0.0945,1.64637 0,2.25303 -0.37808,5.28535 -1.13326,9.0989 -1.575,5.37216 -3.46442,9.33038 -5.66729,11.87179 -3.77787,4.27554 -6.51699,6.84588 -8.21737,7.71198 -9.25708,5.83511 -18.79578,8.9822 -28.61901,9.44515 h -8.59545 c -6.42247,-0.57772 -11.83803,-1.73317 -16.2457,-3.46634 -7.05324,-3.00339 -12.75139,-6.35399 -17.09541,-10.05181 -3.5869,-3.00242 -6.7041,-7.30593 -9.3487,-12.91053 z"
     id="path27"
     inkscape:connector-curvature="0" /></g>
</svg>