<?xml version="1.0" encoding="UTF-8" standalone="no"?>
<!-- Generator: Adobe Illustrator 16.0.2, SVG Export Plug-In . SVG Version: 6.00 Build 0)  -->

<svg
   xmlns:dc="http://purl.org/dc/elements/1.1/"
   xmlns:cc="http://creativecommons.org/ns#"
   xmlns:rdf="http://www.w3.org/1999/02/22-rdf-syntax-ns#"
   xmlns:svg="http://www.w3.org/2000/svg"
   xmlns="http://www.w3.org/2000/svg"
   xmlns:sodipodi="http://sodipodi.sourceforge.net/DTD/sodipodi-0.dtd"
   xmlns:inkscape="http://www.inkscape.org/namespaces/inkscape"
   version="1.1"
   id="Ebene_1"
   x="0px"
   y="0px"
   width="576"
   height="576"
   viewBox="0 0 576 576"
   xml:space="preserve"
   inkscape:version="0.48.1 "
   sodipodi:docname="C50.svg"
   inkscape:export-filename="C:\Documents and Settings\bertrand.bouteilles\Bureau\Panneaux\A - Route\5_indication\C50.png"
   inkscape:export-xdpi="150"
   inkscape:export-ydpi="150"><metadata
   id="metadata63"><rdf:RDF><cc:Work
       rdf:about=""><dc:format>image/svg+xml</dc:format><dc:type
         rdf:resource="http://purl.org/dc/dcmitype/StillImage" /><dc:title></dc:title></cc:Work></rdf:RDF></metadata><defs
   id="defs61">
	
	
	
	
	
	
	
	
	
	
	
	
	
	
	
	
	
	
	
	
	
	
	
	
	
</defs><sodipodi:namedview
   pagecolor="#ffffff"
   bordercolor="#666666"
   borderopacity="1"
   objecttolerance="10"
   gridtolerance="10"
   guidetolerance="10"
   inkscape:pageopacity="0"
   inkscape:pageshadow="2"
   inkscape:window-width="1920"
   inkscape:window-height="1174"
   id="namedview59"
   showgrid="false"
   fit-margin-top="0"
   fit-margin-left="0"
   fit-margin-right="0"
   fit-margin-bottom="0"
   inkscape:zoom="0.48833333"
   inkscape:cx="136.46416"
   inkscape:cy="294.14334"
   inkscape:window-x="1276"
   inkscape:window-y="-4"
   inkscape:window-maximized="1"
   inkscape:current-layer="Ebene_1" />


<path
   d="m 42.0004,575.00004 h 492.00016 c 10.8731,0 21.3022,-4.3185 28.9911,-12.0083 7.6888,-7.6889 12.0083,-18.11701 12.0083,-28.99118 V 42.0004 c 0,-10.87417 -4.3194,-21.3023 -12.0083,-28.99114 -7.6899,-7.68982 -18.119,-12.0093 -28.9921,-12.0093 H 42.0004 c -10.87413,0 -21.30227,4.31948 -28.99113,12.0083 C 5.31942,20.6971 1.00004,31.12623 1.00004,42.0004 v 492.00016 c 0,10.87417 4.31938,21.30228 12.00823,28.99118 7.68886,7.6888 18.118,12.0083 28.99213,12.0083 z"
   id="path6-1-1-1-1"
   inkscape:connector-curvature="0"
   style="fill:#ffffff;stroke:#000000;stroke-width:1.99998808;stroke-linecap:round;stroke-linejoin:round;stroke-miterlimit:4;stroke-dasharray:none" /><polygon
   points="538.362,36.576 538.362,36.576 36.576,36.576 36.576,36.576 36.576,538.362 538.362,538.362 538.362,538.362 "
   id="polygon8-7-7-7-7"
   transform="matrix(1.0000749,0,0,1.0000749,0.50946857,0.50946857)"
   style="fill:#0000ff;stroke:#0000ff;stroke-width:0.17640001;stroke-linecap:round;stroke-linejoin:round" /><g
   id="g3065"
   transform="translate(-10.5575,3.6755)"><path
     style="fill:#ffffff"
     d="m 185.646,87.358 19.749,71.533 H 190.4 l -3.292,-12.158 h -21.16 l -3.344,12.158 h -15.151 l 19.54,-71.533 h 18.653 z m -16.823,45.752 h 15.099 l -7.314,-27.93 -7.785,27.93 z"
     id="path11"
     inkscape:connector-curvature="0" /><path
     style="fill:#ffffff"
     d="m 242.859,87.212 c 8.046,0 14.333,2.702 18.861,8.105 3.971,4.753 5.956,10.107 5.956,16.064 0,1.074 -0.07,2.344 -0.209,3.809 -0.836,7.259 -4.72,13.265 -11.651,18.018 l 12.748,25.781 h -16.51 l -10.919,-21.338 h -9.457 v 21.484 h -14.472 l 0.052,-71.924 h 25.601 z m -2.09,36.67 4.284,-0.488 c 2.438,-0.618 4.475,-1.904 6.113,-3.857 1.393,-1.92 2.229,-4.215 2.508,-6.885 0.139,-3.32 -0.906,-6.217 -3.135,-8.691 -1.881,-2.018 -4.616,-3.157 -8.203,-3.418 h -10.501 v 23.34 h 8.934 z"
     id="path13"
     inkscape:connector-curvature="0" /><path
     style="fill:#ffffff"
     d="m 305.715,87.212 c 8.046,0 14.332,2.702 18.86,8.105 3.971,4.753 5.956,10.107 5.956,16.064 0,1.074 -0.07,2.344 -0.209,3.809 -0.836,7.259 -4.72,13.265 -11.65,18.018 l 12.748,25.781 h -16.51 l -10.92,-21.338 h -9.457 v 21.484 h -14.472 l 0.052,-71.924 h 25.602 z m -2.09,36.67 4.284,-0.488 c 2.438,-0.618 4.475,-1.904 6.112,-3.857 1.393,-1.92 2.229,-4.215 2.508,-6.885 0.139,-3.32 -0.906,-6.217 -3.135,-8.691 -1.881,-2.018 -4.615,-3.157 -8.202,-3.418 H 294.69 v 23.34 h 8.935 z"
     id="path15"
     inkscape:connector-curvature="0" /><path
     style="fill:#ffffff"
     d="m 389.313,87.505 v 13.086 h -31.661 v 15.625 h 23.197 v 13.232 h -23.197 v 16.357 h 33.02 v 13.232 h -47.753 l 0.052,-71.533 h 46.342 z m -17.712,-17.92 -7.889,14.844 h -16.614 l 6.844,-14.844 h 17.659 z m 7.628,0 6.845,14.844 H 369.46 l -7.785,-14.844 h 17.554 z"
     id="path17"
     inkscape:connector-curvature="0" /><path
     style="fill:#ffffff"
     d="m 449.817,87.407 v 13.77 h -15.308 v 57.861 H 420.298 V 101.03 H 403.944 V 87.407 h 45.873 z"
     id="path19"
     inkscape:connector-curvature="0" /><path
     style="fill:#ffffff"
     d="m 101.341,200.358 19.749,71.533 h -14.995 l -3.292,-12.158 h -21.16 l -3.344,12.158 h -15.15 l 19.54,-71.533 h 18.652 z M 84.518,246.11 h 15.099 l -7.314,-27.93 -7.785,27.93 z"
     id="path21"
     inkscape:connector-curvature="0" /><path
     style="fill:#ffffff"
     d="m 149.098,200.554 v 48.438 c 0.661,6.185 4.389,9.636 11.181,10.352 6.688,-0.684 10.449,-4.085 11.285,-10.205 v -48.584 h 14.786 v 52.197 c -1.289,6.38 -4.511,11.345 -9.666,14.893 -4.598,3.027 -9.3,4.622 -14.106,4.785 -0.767,0.065 -1.515,0.098 -2.247,0.098 -7.141,0 -13.044,-1.937 -17.711,-5.811 -5.329,-4.817 -8.15,-9.733 -8.464,-14.746 v -51.416 h 14.942 z"
     id="path23"
     inkscape:connector-curvature="0" /><path
     style="fill:#ffffff"
     d="m 246.331,200.407 v 13.77 h -15.308 v 57.861 H 216.812 V 214.03 h -16.353 v -13.623 h 45.872 z"
     id="path25"
     inkscape:connector-curvature="0" /><path
     style="fill:#ffffff"
     d="m 290.64,199.577 c 8.429,1.205 14.663,5.859 18.704,13.965 3.448,5.99 5.173,13.347 5.173,22.07 v 0.879 c 0,10.905 -2.84,20.183 -8.517,27.832 -4.041,5.144 -9.753,8.024 -17.137,8.643 -0.767,0.065 -1.515,0.098 -2.247,0.098 -7.663,0 -14.089,-3.027 -19.279,-9.082 -5.364,-8.073 -8.081,-16.357 -8.15,-24.854 -0.035,-0.716 -0.052,-1.432 -0.052,-2.148 0,-11.491 2.734,-20.996 8.203,-28.516 3.657,-4.102 7.471,-6.722 11.442,-7.861 2.751,-0.813 5.503,-1.221 8.255,-1.221 1.219,0 2.42,0.065 3.605,0.195 z m -4.023,60.986 c 4.04,-0.195 7.453,-2.783 10.24,-7.764 2.02,-3.32 3.292,-8.203 3.814,-14.648 0.104,-8.203 -1.446,-14.925 -4.65,-20.166 -2.612,-3.646 -5.504,-5.68 -8.673,-6.104 -4.18,0.195 -7.663,2.751 -10.449,7.666 -1.985,3.451 -3.274,8.398 -3.866,14.844 -0.07,8.203 1.515,14.909 4.754,20.117 2.578,3.647 5.52,5.665 8.83,6.055 z"
     id="path27"
     inkscape:connector-curvature="0" /><path
     style="fill:#ffffff"
     d="m 353.391,200.212 c 8.046,0 14.333,2.702 18.861,8.105 3.971,4.753 5.956,10.107 5.956,16.064 0,1.074 -0.07,2.344 -0.209,3.809 -0.836,7.259 -4.721,13.265 -11.651,18.018 l 12.748,25.781 h -16.51 l -10.919,-21.338 h -9.457 v 21.484 h -14.472 l 0.052,-71.924 h 25.601 z m -2.09,36.67 4.284,-0.488 c 2.438,-0.618 4.476,-1.904 6.113,-3.857 1.393,-1.92 2.229,-4.215 2.508,-6.885 0.139,-3.32 -0.906,-6.217 -3.135,-8.691 -1.881,-2.018 -4.616,-3.157 -8.203,-3.418 h -10.501 v 23.34 h 8.934 z"
     id="path29"
     inkscape:connector-curvature="0" /><path
     style="fill:#ffffff"
     d="m 407,200.456 v 71.582 H 392.476 V 200.456 H 407 z"
     id="path31"
     inkscape:connector-curvature="0" /><path
     style="fill:#ffffff"
     d="m 421.371,257.438 v -0.098 c 0,-0.358 0.399,-0.602 1.201,-0.732 6.165,-1.855 10.17,-3.19 12.017,-4.004 0.94,1.205 2.177,2.295 3.71,3.271 2.473,1.367 5.12,2.197 7.941,2.49 2.995,0.065 4.858,0 5.59,-0.195 3.448,-0.911 5.572,-1.839 6.374,-2.783 0.801,-0.651 1.497,-2.229 2.09,-4.736 0.139,-0.977 0,-2.067 -0.418,-3.271 -0.522,-0.813 -1.08,-1.497 -1.672,-2.051 l -1.776,-1.27 -1.985,-0.83 c -11.042,-3.223 -17.119,-5.11 -18.233,-5.664 -5.12,-1.92 -8.935,-5.094 -11.442,-9.521 -1.638,-2.962 -2.369,-6.559 -2.194,-10.791 0.661,-5.273 2.979,-9.456 6.949,-12.549 4.458,-3.027 9.107,-4.671 13.949,-4.932 h 1.358 c 3.448,0 6.304,0.244 8.568,0.732 4.598,1.205 8.185,2.881 10.763,5.029 2.577,1.986 4.702,4.688 6.374,8.105 l -0.156,0.537 -10.763,4.834 -0.522,-0.244 c -0.662,-1.985 -2.526,-3.597 -5.591,-4.834 -3.448,-1.204 -7.489,-1.237 -12.121,-0.098 -1.985,0.619 -3.379,1.416 -4.18,2.393 -0.279,0.261 -0.645,1.074 -1.097,2.441 -0.07,1.595 0,2.523 0.209,2.783 0.452,1.107 1.358,2.1 2.717,2.979 l 1.358,0.537 c 9.892,2.734 16.596,4.72 20.114,5.957 3.03,1.302 5.347,2.734 6.949,4.297 l 2.926,3.711 c 2.159,3.353 3.309,7.015 3.448,10.986 0.034,0.261 0.052,0.57 0.052,0.928 0,1.27 -0.209,2.979 -0.627,5.127 -0.871,3.027 -1.916,5.257 -3.135,6.689 -2.09,2.409 -3.604,3.857 -4.545,4.346 -5.12,3.288 -10.397,5.062 -15.831,5.322 h -4.754 c -3.553,-0.325 -6.549,-0.977 -8.986,-1.953 -3.901,-1.692 -7.054,-3.581 -9.457,-5.664 -1.985,-1.691 -3.709,-4.116 -5.172,-7.274 z"
     id="path33"
     inkscape:connector-curvature="0" /><path
     style="fill:#ffffff"
     d="m 532.607,200.505 v 13.086 h -31.661 v 15.625 h 23.197 v 13.232 h -23.197 v 16.357 h 33.02 v 13.232 h -47.753 v -71.533 h 46.394 z m -11.025,-17.92 -8.098,14.844 H 497.34 l 6.636,-14.844 h 17.606 z"
     id="path35"
     inkscape:connector-curvature="0" /><path
     style="fill:#ffffff"
     d="m 208.01,370.438 v -0.098 c 0,-0.357 0.4,-0.602 1.202,-0.732 6.165,-1.855 10.17,-3.189 12.017,-4.004 0.94,1.205 2.176,2.295 3.709,3.271 2.473,1.367 5.12,2.197 7.941,2.49 2.995,0.065 4.859,0 5.59,-0.195 3.448,-0.911 5.572,-1.839 6.374,-2.783 0.801,-0.65 1.497,-2.229 2.09,-4.736 0.139,-0.977 0,-2.066 -0.418,-3.271 -0.522,-0.813 -1.08,-1.497 -1.672,-2.051 l -1.776,-1.27 -1.985,-0.83 c -11.042,-3.223 -17.12,-5.11 -18.234,-5.664 -5.12,-1.92 -8.934,-5.094 -11.442,-9.521 -1.638,-2.962 -2.369,-6.559 -2.194,-10.791 0.661,-5.273 2.978,-9.456 6.949,-12.549 4.458,-3.027 9.108,-4.671 13.95,-4.932 h 1.358 c 3.448,0 6.304,0.244 8.568,0.732 4.598,1.205 8.185,2.881 10.763,5.029 2.577,1.986 4.702,4.688 6.374,8.105 l -0.157,0.537 -10.763,4.834 -0.522,-0.244 c -0.662,-1.985 -2.526,-3.597 -5.59,-4.834 -3.448,-1.204 -7.489,-1.236 -12.121,-0.098 -1.985,0.619 -3.379,1.416 -4.18,2.393 -0.279,0.261 -0.645,1.074 -1.097,2.441 -0.07,1.596 0,2.523 0.209,2.783 0.452,1.107 1.358,2.1 2.717,2.979 l 1.358,0.537 c 9.892,2.734 16.596,4.721 20.115,5.957 3.03,1.303 5.346,2.734 6.949,4.297 l 2.926,3.711 c 2.159,3.354 3.309,7.016 3.448,10.986 0.034,0.261 0.052,0.57 0.052,0.928 0,1.27 -0.209,2.979 -0.627,5.127 -0.871,3.027 -1.916,5.258 -3.135,6.689 -2.09,2.409 -3.605,3.857 -4.545,4.346 -5.12,3.288 -10.397,5.062 -15.831,5.322 h -4.754 c -3.553,-0.325 -6.549,-0.977 -8.986,-1.953 -3.901,-1.692 -7.053,-3.58 -9.457,-5.664 -1.985,-1.691 -3.71,-4.115 -5.173,-7.274 z"
     id="path37"
     inkscape:connector-curvature="0" /><path
     style="fill:#ffffff"
     d="m 289.048,313.554 v 48.438 c 0.661,6.186 4.389,9.636 11.181,10.352 6.688,-0.684 10.449,-4.085 11.285,-10.205 V 313.555 H 326.3 v 52.197 c -1.289,6.381 -4.512,11.345 -9.666,14.893 -4.598,3.027 -9.3,4.622 -14.106,4.785 -0.767,0.064 -1.515,0.098 -2.246,0.098 -7.141,0 -13.045,-1.937 -17.712,-5.811 -5.329,-4.817 -8.15,-9.732 -8.464,-14.746 v -51.416 h 14.942 z"
     id="path39"
     inkscape:connector-curvature="0" /><path
     style="fill:#ffffff"
     d="m 365.593,313.212 c 8.046,0 14.333,2.702 18.861,8.105 3.971,4.753 5.956,10.107 5.956,16.064 0,1.074 -0.07,2.344 -0.209,3.809 -0.836,7.26 -4.721,13.266 -11.651,18.018 l 12.748,25.781 h -16.51 l -10.919,-21.338 h -9.457 v 21.484 H 339.94 l 0.052,-71.924 h 25.601 z m -2.09,36.67 4.284,-0.488 c 2.438,-0.618 4.476,-1.904 6.113,-3.857 1.393,-1.92 2.229,-4.215 2.508,-6.885 0.139,-3.32 -0.906,-6.217 -3.135,-8.691 -1.881,-2.018 -4.616,-3.157 -8.203,-3.418 h -10.5 v 23.34 h 8.933 z"
     id="path41"
     inkscape:connector-curvature="0" /><path
     style="fill:#ffffff"
     d="m 116.257,426.407 v 13.77 h -15.308 v 57.861 H 86.738 V 440.03 H 70.385 v -13.623 h 45.872 z"
     id="path43"
     inkscape:connector-curvature="0" /><path
     style="fill:#ffffff"
     d="m 154.557,426.212 c 8.046,0 14.333,2.702 18.861,8.105 3.971,4.753 5.956,10.107 5.956,16.064 0,1.074 -0.07,2.344 -0.209,3.809 -0.836,7.26 -4.72,13.266 -11.651,18.018 l 12.748,25.781 h -16.51 l -10.919,-21.338 h -9.457 v 21.484 h -14.472 l 0.052,-71.924 h 25.601 z m -2.089,36.67 4.284,-0.488 c 2.438,-0.618 4.475,-1.904 6.113,-3.857 1.393,-1.92 2.229,-4.215 2.508,-6.885 0.139,-3.32 -0.906,-6.217 -3.135,-8.691 -1.881,-2.018 -4.616,-3.157 -8.203,-3.418 h -10.501 v 23.34 h 8.934 z"
     id="path45"
     inkscape:connector-curvature="0" /><path
     style="fill:#ffffff"
     d="m 223.421,425.577 c 8.429,1.205 14.663,5.859 18.704,13.965 3.448,5.99 5.172,13.347 5.172,22.07 v 0.879 c 0,10.905 -2.839,20.183 -8.516,27.832 -4.041,5.144 -9.753,8.023 -17.137,8.643 -0.767,0.064 -1.515,0.098 -2.247,0.098 -7.663,0 -14.089,-3.027 -19.279,-9.082 -5.364,-8.072 -8.081,-16.357 -8.15,-24.854 -0.035,-0.716 -0.052,-1.432 -0.052,-2.148 0,-11.49 2.734,-20.996 8.203,-28.516 3.657,-4.102 7.471,-6.722 11.442,-7.861 2.751,-0.813 5.503,-1.221 8.255,-1.221 1.219,0 2.421,0.065 3.605,0.195 z m -4.023,60.986 c 4.04,-0.195 7.453,-2.783 10.24,-7.764 2.02,-3.32 3.292,-8.203 3.814,-14.648 0.104,-8.203 -1.446,-14.925 -4.65,-20.166 -2.612,-3.646 -5.504,-5.68 -8.673,-6.104 -4.18,0.195 -7.663,2.751 -10.449,7.666 -1.985,3.451 -3.274,8.398 -3.866,14.844 -0.07,8.203 1.515,14.909 4.754,20.117 2.578,3.647 5.521,5.665 8.83,6.055 z"
     id="path47"
     inkscape:connector-curvature="0" /><path
     style="fill:#ffffff"
     d="m 306.863,426.407 v 13.77 h -15.309 v 57.861 H 277.343 V 440.03 H 260.99 v -13.623 h 45.873 z"
     id="path49"
     inkscape:connector-curvature="0" /><path
     style="fill:#ffffff"
     d="m 365.852,426.407 v 13.77 h -15.308 v 57.861 H 336.333 V 440.03 H 319.98 v -13.623 h 45.872 z"
     id="path51"
     inkscape:connector-curvature="0" /><path
     style="fill:#ffffff"
     d="m 410.161,425.577 c 8.429,1.205 14.663,5.859 18.704,13.965 3.448,5.99 5.172,13.347 5.172,22.07 v 0.879 c 0,10.905 -2.839,20.183 -8.516,27.832 -4.041,5.144 -9.753,8.023 -17.137,8.643 -0.767,0.064 -1.516,0.098 -2.247,0.098 -7.663,0 -14.089,-3.027 -19.278,-9.082 -5.364,-8.072 -8.081,-16.357 -8.15,-24.854 -0.035,-0.716 -0.053,-1.432 -0.053,-2.148 0,-11.49 2.734,-20.996 8.203,-28.516 3.657,-4.102 7.471,-6.722 11.441,-7.861 2.751,-0.813 5.503,-1.221 8.255,-1.221 1.22,0 2.422,0.065 3.606,0.195 z m -4.023,60.986 c 4.04,-0.195 7.453,-2.783 10.24,-7.764 2.02,-3.32 3.292,-8.203 3.814,-14.648 0.104,-8.203 -1.446,-14.925 -4.65,-20.166 -2.612,-3.646 -5.504,-5.68 -8.673,-6.104 -4.18,0.195 -7.663,2.751 -10.449,7.666 -1.985,3.451 -3.274,8.398 -3.866,14.844 -0.07,8.203 1.516,14.909 4.755,20.117 2.577,3.647 5.519,5.665 8.829,6.055 z"
     id="path53"
     inkscape:connector-curvature="0" /><path
     style="fill:#ffffff"
     d="m 463.665,426.456 v 71.582 h -14.524 v -71.582 h 14.524 z"
     id="path55"
     inkscape:connector-curvature="0" /><path
     style="fill:#ffffff"
     d="m 504.107,426.212 c 8.046,0 14.333,2.702 18.861,8.105 3.971,4.753 5.956,10.107 5.956,16.064 0,1.074 -0.07,2.344 -0.209,3.809 -0.836,7.26 -4.721,13.266 -11.651,18.018 l 12.748,25.781 h -16.51 l -10.919,-21.338 h -9.457 v 21.484 h -14.472 l 0.052,-71.924 h 25.601 z m -2.09,36.67 4.284,-0.488 c 2.438,-0.618 4.476,-1.904 6.113,-3.857 1.393,-1.92 2.229,-4.215 2.508,-6.885 0.139,-3.32 -0.906,-6.217 -3.135,-8.691 -1.881,-2.018 -4.616,-3.157 -8.203,-3.418 h -10.501 v 23.34 h 8.934 z"
     id="path57"
     inkscape:connector-curvature="0" /></g>
</svg>