<?xml version="1.0" encoding="UTF-8" standalone="no"?>
<!-- Generator: Adobe Illustrator 13.0.0, SVG Export Plug-In  -->

<svg
   xmlns:dc="http://purl.org/dc/elements/1.1/"
   xmlns:cc="http://creativecommons.org/ns#"
   xmlns:rdf="http://www.w3.org/1999/02/22-rdf-syntax-ns#"
   xmlns:svg="http://www.w3.org/2000/svg"
   xmlns="http://www.w3.org/2000/svg"
   xmlns:sodipodi="http://sodipodi.sourceforge.net/DTD/sodipodi-0.dtd"
   xmlns:inkscape="http://www.inkscape.org/namespaces/inkscape"
   version="1.1"
   x="0px"
   y="0px"
   width="575.99994"
   height="576.00006"
   viewBox="-0.531 -0.531 575.99994 576.00006"
   enable-background="new -0.531 -0.531 576 576"
   xml:space="preserve"
   id="svg2"
   inkscape:version="0.48.1 "
   sodipodi:docname="C6.svg"
   inkscape:export-filename="C:\Documents and Settings\bertrand.bouteilles\Bureau\Panneaux\A - Route\5_indication\C6.png"
   inkscape:export-xdpi="150"
   inkscape:export-ydpi="150"><metadata
   id="metadata30"><rdf:RDF><cc:Work
       rdf:about=""><dc:format>image/svg+xml</dc:format><dc:type
         rdf:resource="http://purl.org/dc/dcmitype/StillImage" /><dc:title></dc:title></cc:Work></rdf:RDF></metadata><sodipodi:namedview
   pagecolor="#ffffff"
   bordercolor="#666666"
   borderopacity="1"
   objecttolerance="10"
   gridtolerance="10"
   guidetolerance="10"
   inkscape:pageopacity="0"
   inkscape:pageshadow="2"
   inkscape:window-width="1920"
   inkscape:window-height="1174"
   id="namedview28"
   showgrid="false"
   fit-margin-top="0"
   fit-margin-left="0"
   fit-margin-right="0"
   fit-margin-bottom="0"
   inkscape:zoom="0.50868056"
   inkscape:cx="-111.0717"
   inkscape:cy="284.83498"
   inkscape:window-x="1276"
   inkscape:window-y="-4"
   inkscape:window-maximized="1"
   inkscape:current-layer="svg2" />
<defs
   id="defs4">
</defs>









<g
   id="g3026"
   transform="translate(-671.34474,-470.82593)"><path
     style="fill:#ffffff;stroke:#000000;stroke-width:1.99998808;stroke-linecap:round;stroke-linejoin:round;stroke-miterlimit:4;stroke-dasharray:none"
     inkscape:connector-curvature="0"
     id="path6-1-1-1-1"
     d="m 712.81409,1045.295 h 492.00021 c 10.8731,0 21.3022,-4.3185 28.9911,-12.0083 7.6888,-7.6889 12.0083,-18.117 12.0083,-28.9912 V 512.29536 c 0,-10.87417 -4.3194,-21.3023 -12.0083,-28.99114 -7.6899,-7.68982 -18.119,-12.0093 -28.9921,-12.0093 H 712.81409 c -10.87413,0 -21.30227,4.31948 -28.99113,12.0083 -7.68985,7.68884 -12.00923,18.11797 -12.00923,28.99214 v 492.00014 c 0,10.8742 4.31938,21.3023 12.00823,28.9912 7.68886,7.6888 18.118,12.0083 28.99213,12.0083 z" /><polygon
     style="fill:#0000ff;stroke:#0000ff;stroke-width:0.17640001;stroke-linecap:round;stroke-linejoin:round"
     transform="matrix(1.0000749,0,0,1.0000749,671.32319,470.80442)"
     id="polygon8-7-7-7-7"
     points="538.362,538.362 538.362,538.362 538.362,36.576 538.362,36.576 36.576,36.576 36.576,36.576 36.576,538.362 " /></g><g
   id="g3007"
   transform="translate(1.323474,-72.95396)"><path
     id="path10"
     d="m 508.398,278.065 -0.885,-0.753 -1.031,-0.376 -1.568,0 H 87.89 l -1.932,-0.1 -0.724,0.154 -0.846,0.924 -0.241,1.233 -0.142,1.387 -1.226,14.511 -0.104,1.227 6.141,1.67 -15.347,49.527 -9.767,12.582 -0.955,48.851 9.727,6.323 h 57.337 l 1.359,-0.04 c -0.455,-2.336 -0.701,-4.747 -0.701,-7.216 0,-20.71 16.79,-37.5 37.5,-37.5 20.71,0 37.5,16.79 37.5,37.5 0,1.725 -0.126,3.418 -0.352,5.081 h 149.398 c 0.942,-22.028 18.02,-39.581 38.954,-39.581 20.927,0 38,17.539 38.954,39.557 h 77.121 V 279.697 l -1.146,-1.632 z"
     inkscape:connector-curvature="0"
     style="fill:#ffffff;stroke:#ffffff;stroke-width:0.17640001;stroke-linecap:round;stroke-linejoin:round" /><polygon
     id="polygon12"
     points="121.83,299.645 121.83,348.552 82.039,348.552 93.171,299.645 "
     style="fill:#0000ff;stroke:#0000ff;stroke-width:0.17640001;stroke-linecap:round;stroke-linejoin:round" /><rect
     id="rect14"
     height="48.907001"
     width="82.513"
     y="299.64499"
     x="126.747"
     style="fill:#0000ff;stroke:#0000ff;stroke-width:0.17640001;stroke-linecap:round;stroke-linejoin:round" /><rect
     id="rect16"
     height="48.907001"
     width="82.676003"
     y="299.64499"
     x="218.175"
     style="fill:#0000ff;stroke:#0000ff;stroke-width:0.17640001;stroke-linecap:round;stroke-linejoin:round" /><rect
     id="rect18"
     height="49.907001"
     width="93.328003"
     y="299.64499"
     x="309.76901"
     style="fill:#0000ff;stroke:#0000ff;stroke-width:0.17640001;stroke-linecap:round;stroke-linejoin:round" /><rect
     id="rect20"
     height="49.907001"
     width="85.802002"
     y="298.64499"
     x="408.01401"
     style="fill:#0000ff;stroke:#0000ff;stroke-width:0.17640001;stroke-linecap:round;stroke-linejoin:round" /><ellipse
     id="ellipse22"
     ry="30.891001"
     rx="31.872"
     cy="413.11899"
     cx="393.241"
     sodipodi:cx="393.241"
     sodipodi:cy="413.11899"
     sodipodi:rx="31.872"
     sodipodi:ry="30.891001"
     style="fill:#ffffff;stroke:#0000ff;stroke-width:0.17640001;stroke-linecap:round;stroke-linejoin:round"
     d="m 425.113,413.11899 c 0,17.06063 -14.26958,30.891 -31.872,30.891 -17.60242,0 -31.872,-13.83037 -31.872,-30.891 0,-17.06063 14.26958,-30.891 31.872,-30.891 17.60242,0 31.872,13.83037 31.872,30.891 z" /><ellipse
     id="ellipse24"
     ry="29.891001"
     rx="29.872"
     cy="408.11899"
     cx="168.588"
     sodipodi:cx="168.588"
     sodipodi:cy="408.11899"
     sodipodi:rx="29.872"
     sodipodi:ry="29.891001"
     style="fill:#ffffff;stroke:#0000ff;stroke-width:0.17640001;stroke-linecap:round;stroke-linejoin:round"
     d="m 198.46,408.11899 c 0,16.50834 -13.37415,29.891 -29.872,29.891 -16.49785,0 -29.872,-13.38266 -29.872,-29.891 0,-16.50835 13.37415,-29.891 29.872,-29.891 16.49785,0 29.872,13.38265 29.872,29.891 z" /></g>
<line
   x1="94.926979"
   y1="219.95903"
   x2="94.881981"
   y2="220.10703"
   id="line26"
   style="fill:none;stroke:#0000ff;stroke-width:0.17640001;stroke-linecap:round;stroke-linejoin:round" />
</svg>