<?xml version="1.0" encoding="UTF-8" standalone="no"?>
<!-- Generator: Adobe Illustrator 13.0.0, SVG Export Plug-In  -->

<svg
   xmlns:dc="http://purl.org/dc/elements/1.1/"
   xmlns:cc="http://creativecommons.org/ns#"
   xmlns:rdf="http://www.w3.org/1999/02/22-rdf-syntax-ns#"
   xmlns:svg="http://www.w3.org/2000/svg"
   xmlns="http://www.w3.org/2000/svg"
   xmlns:sodipodi="http://sodipodi.sourceforge.net/DTD/sodipodi-0.dtd"
   xmlns:inkscape="http://www.inkscape.org/namespaces/inkscape"
   version="1.1"
   x="0px"
   y="0px"
   width="576"
   height="576"
   viewBox="0 -0.031 576 576"
   enable-background="new 0 -0.031 598 600"
   xml:space="preserve"
   id="svg2"
   inkscape:version="0.48.1 "
   sodipodi:docname="C62.svg"
   inkscape:export-filename="C:\Documents and Settings\bertrand.bouteilles\Bureau\Panneaux\A - Route\5_indication\C62.png"
   inkscape:export-xdpi="150"
   inkscape:export-ydpi="150"><metadata
   id="metadata46"><rdf:RDF><cc:Work
       rdf:about=""><dc:format>image/svg+xml</dc:format><dc:type
         rdf:resource="http://purl.org/dc/dcmitype/StillImage" /><dc:title></dc:title></cc:Work></rdf:RDF></metadata><sodipodi:namedview
   pagecolor="#ffffff"
   bordercolor="#666666"
   borderopacity="1"
   objecttolerance="10"
   gridtolerance="10"
   guidetolerance="10"
   inkscape:pageopacity="0"
   inkscape:pageshadow="2"
   inkscape:window-width="1920"
   inkscape:window-height="1174"
   id="namedview44"
   showgrid="false"
   fit-margin-top="0"
   fit-margin-left="0"
   fit-margin-right="0"
   fit-margin-bottom="0"
   inkscape:zoom="0.48833333"
   inkscape:cx="-127.69966"
   inkscape:cy="287.99975"
   inkscape:window-x="1276"
   inkscape:window-y="-4"
   inkscape:window-maximized="1"
   inkscape:current-layer="svg2" />
<defs
   id="defs4">
</defs>


<path
   d="M 42.000374,574.96928 H 534.00055 c 10.87314,0 21.30224,-4.31848 28.99114,-12.0083 7.6888,-7.68884 12.0083,-18.11698 12.0083,-28.99115 V 41.969665 c 0,-10.87417 -4.3194,-21.3023 -12.0083,-28.99114 -7.6899,-7.68982 -18.119,-12.0093 -28.99214,-12.0093 H 42.000374 c -10.87413,0 -21.30227,4.31948 -28.99113,12.0083 -7.68985,7.68884 -12.00923,18.11797 -12.00923,28.99214 V 533.96983 c 0,10.87417 4.31938,21.30231 12.00823,28.99115 7.68886,7.68883 18.118001,12.0083 28.99213,12.0083 z"
   id="path6-1-1-1-1"
   inkscape:connector-curvature="0"
   style="fill:#ffffff;stroke:#000000;stroke-width:1.99998808;stroke-linecap:round;stroke-linejoin:round;stroke-miterlimit:4;stroke-dasharray:none" /><polygon
   points="538.362,538.362 538.362,538.362 538.362,36.576 538.362,36.576 36.576,36.576 36.576,36.576 36.576,538.362 "
   id="polygon8-7-7-7-7"
   transform="matrix(1.0000749,0,0,1.0000749,0.509469,0.478719)"
   style="fill:#0000ff;stroke:#0000ff;stroke-width:0.17640001;stroke-linecap:round;stroke-linejoin:round" /><rect
   x="45.993"
   y="44.06525"
   width="110.994"
   height="367.48099"
   id="rect10"
   style="fill:#ffffff" />
<polygon
   points="79.838,124.492 79.838,165.658 115.489,145.075 151.14,124.492 115.489,103.909 79.838,83.325 "
   id="polygon12"
   style="fill:#0000ff"
   transform="translate(-11,-11.99975)" />
<polygon
   points="76.838,254.985 76.838,296.152 112.489,275.568 148.14,254.985 112.489,234.402 76.838,213.819 "
   id="polygon14"
   style="fill:#0000ff"
   transform="translate(-11,-11.99975)" />
<path
   d="m 529.719,332.05025 c 0,6.627 -5.373,12 -12,12 H 264.232 c -6.628,0 -12,-5.373 -12,-12 v -65.995 c 0,-6.627 5.372,-12 12,-12 h 253.486 c 6.627,0 12,5.373 12,12 v 65.995 z"
   id="path16"
   inkscape:connector-curvature="0"
   style="fill:#ffffff" />
<path
   d="m 517.719,398.04825 c 0,6.627 -5.373,12 -12,12 h -20.998 c -6.627,0 -12,-5.373 -12,-12 v -56.996 c 0,-6.627 5.373,-12 12,-12 h 20.998 c 6.627,0 12,5.373 12,12 v 56.996 z"
   id="path18"
   inkscape:connector-curvature="0"
   style="fill:#ffffff" />
<path
   d="m 309.229,395.04825 c 0,6.627 -5.373,12 -12,12 h -20.998 c -6.628,0 -12,-5.373 -12,-12 v -56.996 c 0,-6.627 5.372,-12 12,-12 h 20.998 c 6.627,0 12,5.373 12,12 v 56.996 z"
   id="path20"
   inkscape:connector-curvature="0"
   style="fill:#ffffff" />
<path
   d="m 372.227,245.05625 c 0,5.611 -4.029,10.16 -9,10.16 H 223.733 c -4.97,0 -8.999,-4.549 -8.999,-10.16 l 0,0 c 0,-5.611 4.029,-10.16 8.999,-10.16 h 139.493 c 4.971,0 9.001,4.549 9.001,10.16 l 0,0 z"
   id="path22"
   inkscape:connector-curvature="0"
   style="fill:#ffffff" />
<path
   d="m 204.234,244.30525 c 0,4.194 -3.021,7.594 -6.75,7.594 h -28.498 c -3.728,0 -6.75,-3.4 -6.75,-7.594 l 0,0 c 0,-4.193 3.022,-7.593 6.75,-7.593 h 28.498 c 3.729,0 6.75,3.4 6.75,7.593 l 0,0 z"
   id="path24"
   inkscape:connector-curvature="0"
   style="fill:#ffffff" />
<ellipse
   cx="345.729"
   cy="222.55701"
   rx="18.749001"
   ry="17.25"
   id="ellipse26"
   sodipodi:cx="345.729"
   sodipodi:cy="222.55701"
   sodipodi:rx="18.749001"
   sodipodi:ry="17.25"
   style="fill:#ffffff"
   transform="translate(-11,-11.99975)" />
<rect
   x="327.229"
   y="222.55725"
   width="16.499001"
   height="17.999001"
   id="rect28"
   style="fill:#ffffff" />
<path
   d="m 514.561,258.18425 -19.568,-75.27 -0.471,0.122 c -2.146,-9.361 -11.313,-16.529 -22.55,-17.228 v -0.249 H 316.476 c -0.911,-0.088 -1.832,-0.147 -2.771,-0.147 -0.97,0 -1.925,0.053 -2.866,0.147 h -0.859 v 0.095 c -11.396,1.485 -20.25,9.675 -21.042,19.782 l -19.765,71.84 16.68,4.09 20.114,-73.11 0.028,-0.019 c 0.25,-1.407 0.98,-2.75 2.167,-3.761 0.559,-0.477 1.174,-0.84 1.817,-1.095 v 0.178 h 161.992 v -0.282 c 1.323,0.089 2.641,0.595 3.739,1.532 0.882,0.751 1.509,1.686 1.877,2.693 l 19.553,75.211 17.421,-4.529 z"
   id="path30"
   inkscape:connector-curvature="0"
   style="fill:#ffffff" />
<path
   d="m 170.353,529.15725 h -14.746 l 12.5,-59.619 H 147.11 l 2.49,-11.963 h 56.396 l -2.49,11.963 h -20.703 l -12.45,59.619 z"
   id="path32"
   inkscape:connector-curvature="0"
   style="fill:#ffffff" />
<path
   d="m 209.22,477.30225 h 14.014 l -10.84,51.855 H 198.38 l 10.84,-51.855 z m 4.101,-19.727 h 14.014 l -2.637,12.695 h -14.014 l 2.637,-12.695 z"
   id="path34"
   inkscape:connector-curvature="0"
   style="fill:#ffffff" />
<path
   d="m 261.319,509.62625 13.623,2.197 c -2.246,6.055 -5.566,10.661 -9.961,13.818 -4.395,3.158 -9.489,4.736 -15.283,4.736 -6.608,0 -11.85,-1.969 -15.723,-5.908 -3.874,-3.938 -5.811,-9.358 -5.811,-16.26 0,-5.631 1.172,-10.953 3.516,-15.967 2.344,-5.013 5.875,-8.96 10.596,-11.841 4.72,-2.881 9.896,-4.321 15.527,-4.321 6.119,0 11.002,1.596 14.648,4.785 3.646,3.19 5.696,7.39 6.152,12.598 l -13.33,1.416 c -0.326,-2.896 -1.213,-5.029 -2.661,-6.396 -1.449,-1.367 -3.345,-2.051 -5.688,-2.051 -2.702,0 -5.225,1.01 -7.568,3.027 -2.344,2.019 -4.143,5.038 -5.396,9.058 -1.254,4.021 -1.88,7.788 -1.88,11.304 0,3.061 0.748,5.42 2.246,7.08 1.497,1.66 3.369,2.49 5.615,2.49 2.246,0 4.41,-0.813 6.494,-2.441 2.085,-1.627 3.712,-4.068 4.884,-7.324 z"
   id="path36"
   inkscape:connector-curvature="0"
   style="fill:#ffffff" />
<path
   d="m 281.534,529.15725 14.99,-71.582 h 14.014 l -7.813,37.256 18.262,-17.529 H 339.2 l -20.85,18.848 11.084,33.008 H 315.42 l -7.129,-23.975 -9.473,8.398 -3.271,15.576 h -14.013 z"
   id="path38"
   inkscape:connector-curvature="0"
   style="fill:#ffffff" />
<path
   d="m 387.882,507.57525 h -35.156 c -0.033,0.554 -0.049,0.977 -0.049,1.27 0,3.451 0.984,6.234 2.954,8.35 1.969,2.116 4.37,3.174 7.202,3.174 4.654,0 8.284,-2.408 10.889,-7.227 l 12.549,2.1 c -2.441,5.046 -5.705,8.83 -9.79,11.353 -4.086,2.523 -8.667,3.784 -13.745,3.784 -6.967,0 -12.631,-2.205 -16.992,-6.616 -4.362,-4.41 -6.543,-10.245 -6.543,-17.505 0,-7.096 1.969,-13.411 5.908,-18.945 5.371,-7.486 13.037,-11.23 22.998,-11.23 6.348,0 11.393,1.962 15.137,5.884 3.743,3.923 5.615,9.416 5.615,16.479 -10e-4,3.384 -0.327,6.428 -0.977,9.129 z m -11.817,-8.545 c 0.032,-0.618 0.049,-1.09 0.049,-1.416 0,-3.841 -0.863,-6.722 -2.588,-8.643 -1.726,-1.92 -4.037,-2.881 -6.934,-2.881 -2.897,0 -5.493,1.091 -7.788,3.271 -2.295,2.182 -3.85,5.404 -4.663,9.668 h 21.924 z"
   id="path40"
   inkscape:connector-curvature="0"
   style="fill:#ffffff" />
<path
   d="m 396.524,487.70225 2.148,-10.4 h 6.836 l 1.709,-8.301 16.064,-9.668 -3.76,17.969 h 8.545 l -2.148,10.4 h -8.594 l -4.541,21.729 c -0.814,3.939 -1.221,6.186 -1.221,6.738 0,1.074 0.342,1.913 1.025,2.515 0.684,0.603 1.92,0.903 3.711,0.903 0.618,0 2.164,-0.113 4.639,-0.342 l -2.197,10.4 c -2.409,0.488 -4.883,0.732 -7.422,0.732 -4.948,0 -8.545,-0.952 -10.791,-2.856 -2.246,-1.904 -3.369,-4.549 -3.369,-7.935 0,-1.595 0.602,-5.273 1.807,-11.035 l 4.346,-20.85 h -6.787 z"
   id="path42"
   inkscape:connector-curvature="0"
   style="fill:#ffffff" />
</svg>