<?xml version="1.0" encoding="UTF-8" standalone="no"?>
<!-- Generator: Adobe Illustrator 13.0.0, SVG Export Plug-In  -->

<svg
   xmlns:dc="http://purl.org/dc/elements/1.1/"
   xmlns:cc="http://creativecommons.org/ns#"
   xmlns:rdf="http://www.w3.org/1999/02/22-rdf-syntax-ns#"
   xmlns:svg="http://www.w3.org/2000/svg"
   xmlns="http://www.w3.org/2000/svg"
   xmlns:sodipodi="http://sodipodi.sourceforge.net/DTD/sodipodi-0.dtd"
   xmlns:inkscape="http://www.inkscape.org/namespaces/inkscape"
   version="1.1"
   x="0px"
   y="0px"
   width="576"
   height="576"
   viewBox="0 -0.031 576 576"
   enable-background="new 0 -0.031 598 600"
   xml:space="preserve"
   id="svg2"
   inkscape:version="0.48.1 "
   sodipodi:docname="C64a.svg"
   inkscape:export-filename="C:\Documents and Settings\bertrand.bouteilles\Bureau\Panneaux\A - Route\5_indication\C64a.png"
   inkscape:export-xdpi="150"
   inkscape:export-ydpi="150"><metadata
   id="metadata28"><rdf:RDF><cc:Work
       rdf:about=""><dc:format>image/svg+xml</dc:format><dc:type
         rdf:resource="http://purl.org/dc/dcmitype/StillImage" /><dc:title></dc:title></cc:Work></rdf:RDF></metadata><sodipodi:namedview
   pagecolor="#ffffff"
   bordercolor="#666666"
   borderopacity="1"
   objecttolerance="10"
   gridtolerance="10"
   guidetolerance="10"
   inkscape:pageopacity="0"
   inkscape:pageshadow="2"
   inkscape:window-width="1920"
   inkscape:window-height="1174"
   id="namedview26"
   showgrid="false"
   fit-margin-top="0"
   fit-margin-left="0"
   fit-margin-right="0"
   fit-margin-bottom="0"
   inkscape:zoom="0.48833333"
   inkscape:cx="-154.32082"
   inkscape:cy="287.99975"
   inkscape:window-x="1276"
   inkscape:window-y="-4"
   inkscape:window-maximized="1"
   inkscape:current-layer="svg2" />
<defs
   id="defs4">
</defs>









<path
   d="m 42.00038,574.96927 h 492.00016 c 10.87314,0 21.30224,-4.31848 28.99114,-12.0083 7.6888,-7.68884 12.0083,-18.11698 12.0083,-28.99115 V 41.969668 c 0,-10.87417 -4.3194,-21.3023 -12.0083,-28.99114 C 555.30178,5.288708 544.87268,0.96923 533.99954,0.96923 H 42.00038 c -10.87413,0 -21.30227,4.319478 -28.99113,12.008298 C 5.3194,20.666368 1.00002,31.095498 1.00002,41.969668 V 533.96982 c 0,10.87417 4.31938,21.30231 12.00823,28.99115 7.68886,7.68883 18.118,12.0083 28.99213,12.0083 z"
   id="path6-1-1-1-1"
   inkscape:connector-curvature="0"
   style="fill:#ffffff;stroke:#000000;stroke-width:1.99998808;stroke-linecap:round;stroke-linejoin:round;stroke-miterlimit:4;stroke-dasharray:none" /><polygon
   points="538.362,36.576 538.362,36.576 36.576,36.576 36.576,36.576 36.576,538.362 538.362,538.362 538.362,538.362 "
   id="polygon8-7-7-7-7"
   transform="matrix(1.0000749,0,0,1.0000749,0.50946857,0.47871857)"
   style="fill:#0000ff;stroke:#0000ff;stroke-width:0.17640001;stroke-linecap:round;stroke-linejoin:round" /><g
   id="g3005"
   transform="matrix(0.97604811,0,0,0.97604811,-3.1561273,-5.2541472)"><polygon
     id="polygon10"
     points="66.602,86.68 66.602,514.158 497.08,514.158 497.08,451.162 476.081,451.162 476.081,491.66 90.601,491.66 90.601,109.179 476.081,109.179 476.081,149.677 497.08,149.677 497.08,86.68 "
     style="fill:#ffffff" /><polygon
     id="polygon12"
     points="170,151.079 168,121.079 174,124.079 326,159.079 297,194.079 "
     style="fill:#ffffff" /><path
     id="path14"
     d="m 291,243.579 c 0,36.175 -33.131,65.5 -74,65.5 -35.761,0 -65.596,-22.452 -72.496,-52.3 l -3.504,-7.7 -1,-17 v -18 l 6,-15 9,-16 9,-9 3,-9 129,41 40,25 1,18 -46,-21 v 15.5 z"
     inkscape:connector-curvature="0"
     style="fill:#ffffff" /><path
     id="path16"
     d="m 409,381.079 -106,4 -92.581,-61.592 c -6.863,-4.683 -15.083,-7.408 -23.919,-7.408 -24.024,0 -43.5,20.147 -43.5,45 0,11.503 4.178,21.993 11.042,29.949 l -0.042,0.051 0.169,0.1 c 6.203,7.126 14.575,12.184 24.041,14.074 l 93.79,49.826 20,4 11,1 18,-2 89,-19 -1,-58 z"
     inkscape:connector-curvature="0"
     style="fill:#ffffff" /><polygon
     id="polygon18"
     points="460,391.079 503,346.079 530,372.079 479,423.079 "
     style="fill:#ffffff" /><ellipse
     id="ellipse20"
     ry="10.5"
     rx="11.5"
     cy="238.57899"
     cx="258.5"
     sodipodi:cx="258.5"
     sodipodi:cy="238.57899"
     sodipodi:rx="11.5"
     sodipodi:ry="10.5"
     style="fill:#0000ff"
     d="m 270,238.57899 c 0,5.79899 -5.14873,10.5 -11.5,10.5 -6.35127,0 -11.5,-4.70101 -11.5,-10.5 0,-5.79899 5.14873,-10.5 11.5,-10.5 6.35127,0 11.5,4.70101 11.5,10.5 z" /><rect
     id="rect22"
     height="6"
     width="36"
     transform="matrix(0.8125,0.583,-0.583,0.8125,210.5137,-96.3288)"
     y="276.07901"
     x="237"
     style="fill:#0000ff" /><polygon
     id="polygon24"
     points="470,429.079 447,431.079 415,431.079 414,392.079 427,393.079 434,392.079 438,387.079 449,381.079 470,389.079 480,397.079 479,423.079 "
     style="fill:#ffffff;stroke:#0000ff;stroke-width:3" /></g>
</svg>