<?xml version="1.0" encoding="UTF-8" standalone="no"?>
<!-- Generator: Adobe Illustrator 13.0.0, SVG Export Plug-In  -->

<svg
   xmlns:dc="http://purl.org/dc/elements/1.1/"
   xmlns:cc="http://creativecommons.org/ns#"
   xmlns:rdf="http://www.w3.org/1999/02/22-rdf-syntax-ns#"
   xmlns:svg="http://www.w3.org/2000/svg"
   xmlns="http://www.w3.org/2000/svg"
   xmlns:sodipodi="http://sodipodi.sourceforge.net/DTD/sodipodi-0.dtd"
   xmlns:inkscape="http://www.inkscape.org/namespaces/inkscape"
   version="1.1"
   x="0px"
   y="0px"
   width="575.99994"
   height="576.00006"
   viewBox="0 -0.031 575.99994 576.00006"
   enable-background="new 0 -0.031 598 600"
   xml:space="preserve"
   id="svg2"
   inkscape:version="0.48.1 "
   sodipodi:docname="C64c.svg"
   inkscape:export-filename="C:\Documents and Settings\bertrand.bouteilles\Bureau\Panneaux\A - Route\5_indication\C64c.png"
   inkscape:export-xdpi="150"
   inkscape:export-ydpi="150"><metadata
   id="metadata32"><rdf:RDF><cc:Work
       rdf:about=""><dc:format>image/svg+xml</dc:format><dc:type
         rdf:resource="http://purl.org/dc/dcmitype/StillImage" /><dc:title></dc:title></cc:Work></rdf:RDF></metadata><sodipodi:namedview
   pagecolor="#ffffff"
   bordercolor="#666666"
   borderopacity="1"
   objecttolerance="10"
   gridtolerance="10"
   guidetolerance="10"
   inkscape:pageopacity="0"
   inkscape:pageshadow="2"
   inkscape:window-width="1920"
   inkscape:window-height="1174"
   id="namedview30"
   showgrid="false"
   fit-margin-top="0"
   fit-margin-left="0"
   fit-margin-right="0"
   fit-margin-bottom="0"
   inkscape:zoom="0.48833333"
   inkscape:cx="-154.32085"
   inkscape:cy="288.00002"
   inkscape:window-x="1276"
   inkscape:window-y="-4"
   inkscape:window-maximized="1"
   inkscape:current-layer="svg2" />
<defs
   id="defs4">
</defs>











<path
   d="M 42.000354,574.96905 H 534.00051 c 10.87314,0 21.30224,-4.31849 28.99114,-12.00831 7.6888,-7.68884 12.0083,-18.11698 12.0083,-28.99115 V 41.969434 c 0,-10.87417 -4.3194,-21.3023 -12.0083,-28.99114 -7.6899,-7.68982 -18.119,-12.00929996 -28.99214,-12.00929996 H 42.000354 c -10.87413,0 -21.30227,4.31947996 -28.99113,12.00829996 -7.68985,7.68884 -12.00922996,18.11797 -12.00922996,28.99214 V 533.96959 c 0,10.87417 4.31937996,21.30231 12.00822996,28.99115 7.68886,7.68883 18.118,12.00831 28.99213,12.00831 z"
   id="path6-1-1-1-1"
   inkscape:connector-curvature="0"
   style="fill:#ffffff;stroke:#000000;stroke-width:1.99998808;stroke-linecap:round;stroke-linejoin:round;stroke-miterlimit:4;stroke-dasharray:none" /><polygon
   points="538.362,538.362 538.362,538.362 538.362,36.576 538.362,36.576 36.576,36.576 36.576,36.576 36.576,538.362 "
   id="polygon8-7-7-7-7"
   transform="matrix(1.0000749,0,0,1.0000749,0.50944304,0.47849304)"
   style="fill:#0000ff;stroke:#0000ff;stroke-width:0.17640001;stroke-linecap:round;stroke-linejoin:round" /><g
   id="g3009"
   transform="translate(-19.464025,-27.794479)"><path
     id="path10"
     d="m 460.031,493.751 -6.887,-6.966 -65.154,64.435 -38.93,-39.365 6.176,-6.108 -27.346,-1.367 7.317,7.399 -35.063,34.675 -36.908,-37.319 18.398,-18.195 -10.387,-3.503 -14.898,14.733 -29.371,-29.698 -23.843,-8.266 -32.171,31.815 -38.571,-39.002 13.153,-13.007 -10.08,-3.808 -9.961,9.851 -21.489,-21.729 -21.989,-8.306 36.514,36.922 L 82.51,492.577 45.996,455.654 82.029,420.019 73.714,414.467 39.109,448.69 28.14,437.599 v 13.931 l 4.004,4.048 -4.004,3.96 v 13.776 L 39.032,462.543 75.546,499.465 40.097,534.523 28.14,522.432 v 13.93 l 4.992,5.048 -4.992,4.937 v 13.776 l 11.879,-11.748 20.916,21.149 h 13.776 l -27.728,-28.037 35.449,-35.058 38.571,39.002 -24.362,24.093 h 13.93 l 17.32,-17.129 16.939,17.129 h 13.775 l -23.75,-24.016 36.033,-35.635 38.404,38.833 -21.05,20.817 h 13.93 l 14.008,-13.854 5.503,5.565 6.965,-6.888 -5.504,-5.564 33.129,-32.763 36.907,37.32 -16.364,16.183 h 13.93 l 9.321,-9.218 9.116,9.218 h 13.776 l -15.929,-16.105 35.063,-34.676 38.931,39.364 -11.545,11.417 h 13.931 l 4.501,-4.451 4.402,4.451 h 13.776 l -11.214,-11.34 65.156,-64.431 z m -332.063,44.792 -38.571,-39.002 36.033,-35.635 38.571,39.001 -36.033,35.636 z m 88.29,3.275 -38.404,-38.834 33.128,-32.762 38.404,38.834 -33.128,32.762 z"
     inkscape:connector-curvature="0"
     style="fill:#ffffff" /><path
     id="path12"
     d="M 167.351,250.743 C 114.645,228.403 65.341,212.098 23.98,202.778 v 35.421 c 33.084,6.336 71.971,17.779 113.845,33.782 8.641,-8.488 18.591,-15.676 29.526,-21.238 z"
     inkscape:connector-curvature="0"
     style="fill:#ffffff" /><path
     id="path14"
     d="m 339.912,340.82 c 0.605,4.808 0.921,9.705 0.921,14.675 0,6.679 -0.563,13.228 -1.644,19.603 40.79,27.11 73.613,54.136 95.126,78.151 l 7.744,7.074 4.16,5.2 3.12,5.2 2.08,9.36 v 8.319 l -4.16,3.12 -8.319,3.12 -8.502,1.365 C 364.374,502.485 238.063,471.128 102.186,410.489 74.867,398.296 48.694,385.6 23.98,372.664 v 24.96 c 24.714,12.937 50.887,25.632 78.206,37.825 184.61,82.387 351.561,110.72 373.746,63.553 l 4.875,-4.869 C 495.737,463.769 436.8,402.421 339.912,340.82 z"
     inkscape:connector-curvature="0"
     style="fill:#ffffff" /><ellipse
     id="ellipse16"
     ry="92.559998"
     rx="87.444"
     cy="154.563"
     cx="503.504"
     d="m 590.948,154.563 c 0,51.11948 -39.15001,92.56 -87.444,92.56 -48.29399,0 -87.444,-41.44052 -87.444,-92.56 0,-51.11947 39.15001,-92.559994 87.444,-92.559994 48.29399,0 87.444,41.440524 87.444,92.559994 z"
     sodipodi:cx="503.504"
     sodipodi:cy="154.563"
     sodipodi:rx="87.444"
     sodipodi:ry="92.559998"
     style="fill:#ffffff" /><path
     id="path18"
     d="m 520.766,203.465 -22.69,0.611 -11.086,-3.59 c -11.678,-7.178 -16.274,-22.922 -12.948,-39.403 l 36.594,20.79 10.877,-2.595 -5.79,-12.338 -36.641,-20.435 c 0.503,-1.009 1.026,-2.016 1.593,-3.011 0.944,-1.662 1.957,-3.243 3.018,-4.761 l 40.469,22.993 10.877,-2.594 -5.791,-12.338 -34.961,-19.499 c 11.94,-9.62 26.41,-12.304 37.469,-5.503 l 9.011,8.307 6.271,13.366 17.542,-27.049 c -14.396,-12.278 -23.784,-22.792 -42.746,-24.798 -18.067,-1.913 -36.902,9.238 -50.047,20.928 -0.499,0.444 -0.988,0.907 -1.473,1.38 l -8.98,-5.008 -7.738,12.715 7.44,4.228 c -1.558,2.592 -2.98,5.344 -4.265,8.203 l -8.962,-4.998 -7.74,12.714 11.707,6.651 c -3.494,13.777 -3.652,28.313 0.937,39.607 8.273,20.371 33.275,32.208 52.013,40.518 l 16.04,-25.091 z"
     inkscape:connector-curvature="0" /><path
     id="path20"
     d="m 275.661,433.843 4.992,0.48 c 21.141,-18.118 34.527,-44.943 34.527,-74.88 0,-54.565 -44.467,-98.8 -99.32,-98.8 -54.853,0 -99.32,44.234 -99.32,98.8 0,4.508 0.31,8.942 0.897,13.29 l 2.353,1.805"
     inkscape:connector-curvature="0"
     style="fill:#ffffff" /><path
     id="path22"
     d="m 119.79,374.538 c 44.956,34.503 99.564,53.893 155.871,59.305"
     inkscape:connector-curvature="0"
     style="fill:#ffffff" /><path
     id="path24"
     d="m 204.544,389.17 -15.99,-9.902 -6.041,-7.53 c -4.817,-10.283 -0.834,-23.271 8.972,-33.162 l 15.873,31.042 8.712,3.154 1.607,-11.174 -16.068,-30.817 c 0.808,-0.468 1.628,-0.927 2.474,-1.357 1.41,-0.723 2.832,-1.354 4.257,-1.922 l 17.553,34.329 8.711,3.153 1.607,-11.174 -15.331,-29.405 c 12.645,-1.224 23.885,3.505 28.448,13.243 l 2.457,9.851 -1.742,12.104 24.46,-10.737 c -4.379,-15.049 -6.094,-26.597 -18.31,-36.616 -11.641,-9.547 -29.757,-10.4 -44.179,-8.292 -0.546,0.08 -1.097,0.179 -1.648,0.285 l -3.939,-7.552 -11.146,5.277 3.228,6.313 c -2.258,1.086 -4.495,2.341 -6.687,3.735 l -3.931,-7.539 -11.145,5.277 5.078,9.931 c -8.69,7.945 -15.416,17.934 -17.381,27.839 -3.544,17.862 8.379,37.434 17.571,51.712 l 22.53,-10.066 z"
     inkscape:connector-curvature="0" /><ellipse
     id="ellipse26"
     ry="92.559998"
     rx="90.480003"
     cy="209.68401"
     cx="282.94"
     d="m 373.42001,209.68401 c 0,51.11947 -40.50928,92.55999 -90.48001,92.55999 -49.97072,0 -90.48,-41.44052 -90.48,-92.55999 0,-51.11948 40.50928,-92.56 90.48,-92.56 49.97073,0 90.48001,41.44052 90.48001,92.56 z"
     sodipodi:cx="282.94"
     sodipodi:cy="209.68401"
     sodipodi:rx="90.480003"
     sodipodi:ry="92.559998"
     style="fill:#ffffff;stroke:#0000ff;stroke-width:4" /><path
     id="path28"
     d="m 323.5,219.043 -8.32,19.76 -7.288,8.083 c -10.494,7.145 -25.333,4.747 -37.702,-4.766 l 31.471,-23.078 2.08,-10.4 h -12.48 l -31.193,23.263 c -0.641,-0.84 -1.271,-1.696 -1.876,-2.584 -1.01,-1.483 -1.927,-2.993 -2.773,-4.517 l 34.803,-25.521 2.08,-10.4 h -12.48 l -29.765,22.198 c -3.33,-14.149 0.075,-27.676 10.012,-34.441 l 10.393,-4.396 h 13.52 l -15.6,-26 c -15.779,7.426 -28.146,11.256 -37.185,26.752 -8.613,14.766 -6.697,35.461 -2.12,51.481 0.174,0.607 0.368,1.216 0.571,1.824 l -7.645,5.701 7.53,11.786 6.399,-4.693 c 1.543,2.384 3.271,4.718 5.141,6.977 l -7.63,5.69 7.53,11.786 10.067,-7.383 c 10.063,8.563 22.051,14.564 33.2,15.177 20.106,1.105 39.644,-15.619 53.822,-28.379 L 323.5,219.043 z"
     inkscape:connector-curvature="0" /></g>
</svg>