<?xml version="1.0" encoding="UTF-8" standalone="no"?>
<!-- Generator: Adobe Illustrator 13.0.0, SVG Export Plug-In  -->

<svg
   xmlns:dc="http://purl.org/dc/elements/1.1/"
   xmlns:cc="http://creativecommons.org/ns#"
   xmlns:rdf="http://www.w3.org/1999/02/22-rdf-syntax-ns#"
   xmlns:svg="http://www.w3.org/2000/svg"
   xmlns="http://www.w3.org/2000/svg"
   xmlns:sodipodi="http://sodipodi.sourceforge.net/DTD/sodipodi-0.dtd"
   xmlns:inkscape="http://www.inkscape.org/namespaces/inkscape"
   version="1.1"
   x="0px"
   y="0px"
   width="576"
   height="576"
   viewBox="-0.5 -0.531 576 576"
   enable-background="new -0.5 -0.531 597 600"
   xml:space="preserve"
   id="svg2"
   inkscape:version="0.48.1 "
   sodipodi:docname="C64d_2.svg"
   inkscape:export-filename="C:\Documents and Settings\bertrand.bouteilles\Bureau\Panneaux\A - Route\5_indication\C64d_2.png"
   inkscape:export-xdpi="150"
   inkscape:export-ydpi="150"><metadata
   id="metadata18"><rdf:RDF><cc:Work
       rdf:about=""><dc:format>image/svg+xml</dc:format><dc:type
         rdf:resource="http://purl.org/dc/dcmitype/StillImage" /><dc:title></dc:title></cc:Work></rdf:RDF></metadata><sodipodi:namedview
   pagecolor="#ffffff"
   bordercolor="#666666"
   borderopacity="1"
   objecttolerance="10"
   gridtolerance="10"
   guidetolerance="10"
   inkscape:pageopacity="0"
   inkscape:pageshadow="2"
   inkscape:window-width="1920"
   inkscape:window-height="1174"
   id="namedview16"
   showgrid="false"
   inkscape:zoom="0.48833333"
   inkscape:cx="-127.69966"
   inkscape:cy="288"
   inkscape:window-x="1276"
   inkscape:window-y="-4"
   inkscape:window-maximized="1"
   inkscape:current-layer="svg2"
   fit-margin-top="0"
   fit-margin-left="0"
   fit-margin-right="0"
   fit-margin-bottom="0" />
<defs
   id="defs4">
</defs>


<path
   d="M 41.500354,574.46901 H 533.5005 c 10.8732,0 21.3023,-4.3184 28.9912,-12.0083 7.6888,-7.6888 12.0083,-18.1169 12.0083,-28.9911 V 41.469434 c 0,-10.87417 -4.3194,-21.3023 -12.0083,-28.99114 C 554.8018,4.788474 544.3727,0.46899404 533.4995,0.46899404 H 41.500354 c -10.87413,0 -21.30227,4.31947996 -28.99113,12.00829996 -7.68985,7.68884 -12.00922996,18.11797 -12.00922996,28.99214 V 533.46961 c 0,10.8742 4.31937996,21.3023 12.00822996,28.9911 7.68886,7.6889 18.118,12.0083 28.99213,12.0083 z"
   id="path6-1-1-1-1"
   inkscape:connector-curvature="0"
   style="fill:#ffffff;stroke:#000000;stroke-width:1.99998808;stroke-linecap:round;stroke-linejoin:round;stroke-miterlimit:4;stroke-dasharray:none" /><polygon
   points="538.362,36.576 538.362,36.576 36.576,36.576 36.576,36.576 36.576,538.362 538.362,538.362 538.362,538.362 "
   id="polygon8-7-7-7-7"
   transform="matrix(1.0000749,0,0,1.0000749,0.00946561,-0.02153039)"
   style="fill:#0000ff;stroke:#0000ff;stroke-width:0.17640001;stroke-linecap:round;stroke-linejoin:round" /><rect
   x="73.760498"
   y="78.2295"
   width="427.479"
   height="418.479"
   id="rect10"
   style="stroke:#000000;stroke-width:1" />

<g
   id="g2999"
   transform="translate(-15.218503,-15.478007)"><path
     id="path12"
     d="m 360.086,477.66 c -49.289,10.377 -87.32,25.83 -133.493,-2.999 -43.792,-27.344 -28.635,-88.084 -14.999,-128.994 l 12.512,-30.5 c 36.969,-22.183 67.034,-22.5 109.494,-22.5 l -18.512,64.999 c -9.059,36.233 -7.696,53.998 32.998,53.998 l 38.998,-9 -26.998,74.996 z"
     inkscape:connector-curvature="0"
     style="fill:#ffc800" /><polygon
     id="polygon14"
     points="160.68,282.674 415.944,282.674 444.757,194.178 361.748,194.178 385.597,114.682 277.602,140.18 258.735,194.178 191.863,194.178 "
     style="fill:#ffc800" /></g>
</svg>