<?xml version="1.0" encoding="UTF-8" standalone="no"?>
<!-- Generator: Adobe Illustrator 13.0.0, SVG Export Plug-In  -->

<svg
   xmlns:dc="http://purl.org/dc/elements/1.1/"
   xmlns:cc="http://creativecommons.org/ns#"
   xmlns:rdf="http://www.w3.org/1999/02/22-rdf-syntax-ns#"
   xmlns:svg="http://www.w3.org/2000/svg"
   xmlns="http://www.w3.org/2000/svg"
   xmlns:sodipodi="http://sodipodi.sourceforge.net/DTD/sodipodi-0.dtd"
   xmlns:inkscape="http://www.inkscape.org/namespaces/inkscape"
   version="1.1"
   x="0px"
   y="0px"
   width="576px"
   height="576px"
   viewBox="-0.531 -0.531 576 576"
   enable-background="new -0.531 -0.531 576 576"
   xml:space="preserve"
   id="svg2"
   inkscape:version="0.48.1 "
   sodipodi:docname="CE1.svg"
   inkscape:export-filename="C:\Documents and Settings\bertrand.bouteilles\Bureau\Panneaux\A - Route\6_services\CE1.png"
   inkscape:export-xdpi="150"
   inkscape:export-ydpi="150"><metadata
   id="metadata16"><rdf:RDF><cc:Work
       rdf:about=""><dc:format>image/svg+xml</dc:format><dc:type
         rdf:resource="http://purl.org/dc/dcmitype/StillImage" /><dc:title></dc:title></cc:Work></rdf:RDF></metadata><sodipodi:namedview
   pagecolor="#ffffff"
   bordercolor="#666666"
   borderopacity="1"
   objecttolerance="10"
   gridtolerance="10"
   guidetolerance="10"
   inkscape:pageopacity="0"
   inkscape:pageshadow="2"
   inkscape:window-width="966"
   inkscape:window-height="747"
   id="namedview14"
   showgrid="false"
   inkscape:zoom="0.12717014"
   inkscape:cx="620.54044"
   inkscape:cy="-135.63029"
   inkscape:window-x="1346"
   inkscape:window-y="87"
   inkscape:window-maximized="0"
   inkscape:current-layer="svg2"
   showguides="true"
   inkscape:guide-bbox="true" />
<defs
   id="defs4">
</defs>
<path
   d="m 41.57265,574.43708 h 492.8557 c 10.89208,0 21.33935,-4.32598 29.04155,-12.02918 7.7022,-7.7022 12.02918,-18.14846 12.02918,-29.04155 V 40.51065 c 0,-10.893085 -4.32698,-21.339345 -12.02918,-29.041546 C 555.76669,3.7659014 545.31943,-0.56107642 534.42735,-0.56107642 H 41.57265 c -10.893085,0 -21.339345,4.32697782 -29.041546,12.02917842 C 4.8279014,19.170303 0.50092358,29.617565 0.50092358,40.51065 v 492.8557 c 0,10.89309 4.32697782,21.33935 12.02917842,29.04155 7.702201,7.7022 18.149463,12.02918 29.042548,12.02918 z"
   id="path6"
   inkscape:connector-curvature="0"
   style="fill:#ffffff;stroke:#000000;stroke-width:2;stroke-linecap:round;stroke-linejoin:round;stroke-miterlimit:4;stroke-dasharray:none" />
<polygon
   points="538.362,538.362 538.362,538.362 538.362,36.576 538.362,36.576 36.576,36.576 36.576,36.576 36.576,538.362 "
   id="polygon8"
   transform="matrix(1.0018472,0,0,1.0018472,0,-1.062)"
   style="fill:#0000ff;stroke:#0000ff;stroke-width:0.17640001000000000;stroke-linecap:round;stroke-linejoin:round" />
<rect
   x="88.925957"
   y="87.86396"
   width="398.1481"
   height="398.1481"
   id="rect10"
   style="fill:#ffffff;stroke:#0000ff;stroke-width:0.17672585;stroke-linecap:round;stroke-linejoin:round" />
<polygon
   points="113.446,228.927 228.927,228.927 228.927,113.446 346.01,113.446 346.01,228.927 461.491,228.927 461.491,346.01 346.01,346.01 346.01,461.491 228.927,461.491 228.927,346.01 113.446,346.01 "
   id="polygon12"
   transform="matrix(1.0018472,0,0,1.0018472,5.0092358e-4,-1.0614991)"
   style="fill:#ff0000;stroke:#ff0000;stroke-width:0.17640001000000000;stroke-linecap:round;stroke-linejoin:round" />
</svg>