<?xml version="1.0" encoding="UTF-8" standalone="no"?>
<!-- Generator: Adobe Illustrator 15.0.0, SVG Export Plug-In  -->

<svg
   xmlns:dc="http://purl.org/dc/elements/1.1/"
   xmlns:cc="http://creativecommons.org/ns#"
   xmlns:rdf="http://www.w3.org/1999/02/22-rdf-syntax-ns#"
   xmlns:svg="http://www.w3.org/2000/svg"
   xmlns="http://www.w3.org/2000/svg"
   xmlns:sodipodi="http://sodipodi.sourceforge.net/DTD/sodipodi-0.dtd"
   xmlns:inkscape="http://www.inkscape.org/namespaces/inkscape"
   version="1.1"
   x="0px"
   y="0px"
   width="576px"
   height="576px"
   viewBox="-0.031 -0.031 576 576"
   enable-background="new -0.031 -0.031 576 576"
   xml:space="preserve"
   id="svg2"
   inkscape:version="0.48.1 "
   sodipodi:docname="CE10.svg"
   inkscape:export-filename="C:\Documents and Settings\bertrand.bouteilles\Bureau\Panneaux\A - Route\6_services\CE10.png"
   inkscape:export-xdpi="150"
   inkscape:export-ydpi="150"><metadata
   id="metadata24"><rdf:RDF><cc:Work
       rdf:about=""><dc:format>image/svg+xml</dc:format><dc:type
         rdf:resource="http://purl.org/dc/dcmitype/StillImage" /><dc:title></dc:title></cc:Work></rdf:RDF></metadata><sodipodi:namedview
   pagecolor="#ffffff"
   bordercolor="#666666"
   borderopacity="1"
   objecttolerance="10"
   gridtolerance="10"
   guidetolerance="10"
   inkscape:pageopacity="0"
   inkscape:pageshadow="2"
   inkscape:window-width="1280"
   inkscape:window-height="964"
   id="namedview22"
   showgrid="false"
   inkscape:zoom="0.50868056"
   inkscape:cx="-136.62799"
   inkscape:cy="288"
   inkscape:window-x="-4"
   inkscape:window-y="-4"
   inkscape:window-maximized="1"
   inkscape:current-layer="svg2" />
<defs
   id="defs4">
</defs>



<path
   d="m 41.96795,574.97073 h 492.0031 c 10.87324,0 21.30243,-4.3185 28.99131,-12.00837 7.68888,-7.68888 12.00837,-18.11707 12.00837,-28.99131 V 41.967942 c 0,-10.874241 -4.31949,-21.302429 -12.00837,-28.991302 C 555.27248,5.28676 544.84329,0.96727 533.97005,0.96727 H 41.96795 C 31.0937,0.96727 20.66551,5.28676 12.97664,12.97564 5.28676,20.664512 0.96727,31.093701 0.96727,41.967942 V 533.97105 c 0,10.87424 4.31949,21.30243 12.00837,28.99131 7.68888,7.68888 18.11806,12.00837 28.99231,12.00837 z"
   id="path6-1"
   inkscape:connector-curvature="0"
   style="fill:#ffffff;stroke:#000000;stroke-width:1.99654019;stroke-linecap:round;stroke-linejoin:round;stroke-miterlimit:4;stroke-dasharray:none" /><polygon
   points="36.576,538.362 538.362,538.362 538.362,538.362 538.362,36.576 538.362,36.576 36.576,36.576 36.576,36.576 "
   id="polygon8-7"
   transform="matrix(1.0001141,0,0,1.0001141,0.46719979,0.46719979)"
   style="fill:#0000ff;stroke:#0000ff;stroke-width:0.17640001;stroke-linecap:round;stroke-linejoin:round" /><rect
   x="89.239326"
   y="89.239326"
   width="397.45935"
   height="397.45935"
   id="rect10-4"
   style="fill:#ffffff;stroke:#0000ff;stroke-width:0.17642012;stroke-linecap:round;stroke-linejoin:round" />



<g
   id="g3012"
   transform="translate(-0.8335,1.167)"><polygon
     id="polygon12"
     points="354.969,105.636 297.636,105.636 275.657,170.302 229.635,170.302 229.635,188.969 269.313,188.969 262.969,207.636 324.969,178.302 386.969,203.636 383.051,191.636 423.636,191.636 423.636,170.302 376.084,170.302 " /><path
     id="path14"
     d="m 253.635,394.969 h 2 c 29.877,2.114 44.27,23.526 75.5,7.323 l 1.195,-0.922 c 27.08,-12.377 40.795,7.255 67.957,9.274 h 1.854 c 27.697,-2.114 41.041,-23.526 69.992,-7.323 l 6.502,3.825 v -9.608 l -7.168,-4.217 c -19.894,-11.133 -32.423,-4.513 -47.299,1.407 l -4.867,1.407 1.167,-5.667 1.667,-8 0.153,0.146 c 10.136,-44.533 27.254,-85.092 47.135,-126.431 l -2.788,-1.549 -0.106,-0.466 -141.561,-63.867 -144.667,66.667 c 21.078,43.561 39.216,86.11 49.49,133.215 -16.62,5.813 -30.247,13.031 -51.49,3.455 v -71.67 H 98.969 v 146 h 79.333 v -7.897 c 29.447,12.686 44.251,-7.074 73.667,-9.103 h 2 c 29.877,2.114 44.27,23.526 75.5,7.323 l 1.195,-0.922 c 27.081,-12.377 40.796,7.255 67.957,9.274 h 1.854 c 27.698,-2.114 41.041,-23.526 69.993,-7.323 l 8.168,4.805 v -9.607 l -8.835,-5.197 c -28.952,-16.203 -42.295,5.209 -69.993,7.323 h -1.854 c -27.161,-2.02 -40.876,-21.651 -67.957,-9.274 l -1.195,0.922 c -31.23,16.203 -45.623,-5.209 -75.5,-7.323 h -2 c -29.192,2.013 -43.996,21.484 -73,9.382 v -17.333 c 29.004,12.104 43.808,-7.369 73,-9.382 h 2 c 29.877,2.114 44.27,23.526 75.5,7.323 l 1.195,-0.922 c 27.08,-12.377 40.795,7.255 67.957,9.274 h 1.854 c 27.697,-2.114 41.041,-23.526 69.992,-7.323 l 8.835,5.197 v -9.608 l -9.501,-5.589 c -28.953,-16.203 -42.295,5.209 -69.994,7.323 h -1.854 c -27.16,-2.02 -40.875,-21.651 -67.957,-9.274 l -1.195,0.922 c -31.23,16.203 -45.623,-5.209 -75.5,-7.323 h -2 c -28.969,1.997 -43.765,21.195 -72.333,9.662 v -19.972 c 30.567,14.177 45.369,-6.292 75.334,-8.357 z"
     inkscape:connector-curvature="0" /><polygon
     id="polygon16"
     points="379.469,295.969 371.981,268.969 279.401,268.969 272.469,293.969 272.469,296.469 274.719,298.969 277.969,301.719 280.639,303.636 374.066,303.636 377.219,300.969 379.469,298.469 " /><polygon
     id="polygon18"
     points="272.469,296.469 274.719,298.969 277.969,301.719 280.639,303.636 374.066,303.636 377.219,300.969 379.469,298.469 379.469,295.969 371.981,268.969 279.401,268.969 272.469,293.969 "
     style="fill:none" /><path
     id="path20"
     d="m 396.719,308.044 c 0,-2.235 -1.535,-4.09 -3.561,-4.489 l -0.439,-0.586 c 0,0 -1.25,-0.75 -1.5,-1.5 -0.25,-0.75 -1,-1.5 -1,-1.5 l -1.25,-3.25 -8.367,-32.751 c 0.074,-0.377 0.117,-0.766 0.117,-1.165 0,-3.406 -2.85,-6.167 -6.365,-6.167 h -96.686 c -2.671,0 -4.956,1.594 -5.9,3.853 l -0.049,-0.021 -0.164,0.642 -0.058,0.229 c -0.016,0.063 -0.044,0.12 -0.058,0.183 -0.008,0.037 -0.011,0.076 -0.019,0.113 l -8.452,33.083 -1.25,3.25 c 0,0 -0.75,0.75 -1,1.5 -0.25,0.75 -1.5,1.5 -1.5,1.5 l -1.5,2 -0.137,0.412 c -0.906,0.838 -1.488,2.049 -1.488,3.413 v 6.1 c 0,0.299 0.032,0.59 0.084,0.873 -0.132,0.729 -0.209,1.477 -0.209,2.244 v 19.25 c 0,6.011 4.157,11.017 9.667,12.137 v 25.238 c 0,3.313 3.208,6 7.167,6 3.958,0 7.167,-2.687 7.167,-6 v -25 h 92.667 v 24.333 c 0,3.313 3.208,6 7.167,6 3.958,0 7.166,-2.687 7.166,-6 v -24.571 c 5.51,-1.12 9.667,-6.126 9.667,-12.137 v -19.25 c 0,-0.27 -0.033,-0.53 -0.05,-0.796 0.079,-0.346 0.133,-0.7 0.133,-1.071 v -6.099 z m -17.25,-9.575 -2.25,2.5 -3.152,2.667 h -93.428 l -2.67,-1.917 -3.25,-2.75 -2.25,-2.5 v -2.5 l 6.933,-25 h 92.58 l 7.487,27 v 2.5 z"
     inkscape:connector-curvature="0"
     style="fill:#ffffff" /></g>
</svg>