<?xml version="1.0" encoding="UTF-8" standalone="no"?>
<!-- Generator: Adobe Illustrator 15.0.0, SVG Export Plug-In  -->

<svg
   xmlns:dc="http://purl.org/dc/elements/1.1/"
   xmlns:cc="http://creativecommons.org/ns#"
   xmlns:rdf="http://www.w3.org/1999/02/22-rdf-syntax-ns#"
   xmlns:svg="http://www.w3.org/2000/svg"
   xmlns="http://www.w3.org/2000/svg"
   xmlns:sodipodi="http://sodipodi.sourceforge.net/DTD/sodipodi-0.dtd"
   xmlns:inkscape="http://www.inkscape.org/namespaces/inkscape"
   version="1.1"
   x="0px"
   y="0px"
   width="576"
   height="576"
   viewBox="-0.031 -0.031 576 576"
   enable-background="new -0.031 -0.031 576 576"
   xml:space="preserve"
   id="svg2"
   inkscape:version="0.48.1 "
   sodipodi:docname="CE12.svg"
   inkscape:export-filename="C:\Documents and Settings\bertrand.bouteilles\Bureau\Panneaux\A - Route\6_services\CE12.png"
   inkscape:export-xdpi="150"
   inkscape:export-ydpi="150"><metadata
   id="metadata20"><rdf:RDF><cc:Work
       rdf:about=""><dc:format>image/svg+xml</dc:format><dc:type
         rdf:resource="http://purl.org/dc/dcmitype/StillImage" /><dc:title></dc:title></cc:Work></rdf:RDF></metadata><sodipodi:namedview
   pagecolor="#ffffff"
   bordercolor="#666666"
   borderopacity="1"
   objecttolerance="10"
   gridtolerance="10"
   guidetolerance="10"
   inkscape:pageopacity="0"
   inkscape:pageshadow="2"
   inkscape:window-width="826"
   inkscape:window-height="783"
   id="namedview18"
   showgrid="false"
   fit-margin-top="0"
   fit-margin-left="0"
   fit-margin-right="0"
   fit-margin-bottom="0"
   inkscape:zoom="0.50868056"
   inkscape:cx="-33.502296"
   inkscape:cy="449.69435"
   inkscape:window-x="110"
   inkscape:window-y="145"
   inkscape:window-maximized="1"
   inkscape:current-layer="svg2" />
<defs
   id="defs4">
</defs>


<path
   d="m 41.96795,574.97073 h 492.0031 c 10.87324,0 21.30243,-4.3185 28.99131,-12.00837 7.68888,-7.68888 12.00837,-18.11707 12.00837,-28.99131 V 41.96794 c 0,-10.87424 -4.31949,-21.30243 -12.00837,-28.9913 C 555.27248,5.2867601 544.84329,0.96727009 533.97005,0.96727009 H 41.96795 C 31.0937,0.96727009 20.66551,5.2867601 12.97664,12.97564 5.2867599,20.66451 0.96727009,31.0937 0.96727009,41.96794 v 492.00311 c 0,10.87424 4.31948981,21.30243 12.00836991,28.99131 7.68888,7.68888 18.11806,12.00837 28.99231,12.00837 z"
   id="path6-1"
   inkscape:connector-curvature="0"
   style="fill:#ffffff;stroke:#000000;stroke-width:1.99654019;stroke-linecap:round;stroke-linejoin:round;stroke-miterlimit:4;stroke-dasharray:none" /><polygon
   points="538.362,36.576 36.576,36.576 36.576,36.576 36.576,538.362 538.362,538.362 538.362,538.362 538.362,36.576 "
   id="polygon8-7"
   transform="matrix(1.0001141,0,0,1.0001141,0.46720178,0.46720178)"
   style="fill:#0000ff;stroke:#0000ff;stroke-width:0.17640001;stroke-linecap:round;stroke-linejoin:round" /><rect
   x="298.96899"
   y="83.469002"
   width="198"
   height="408.5"
   id="rect10"
   style="fill:#ffffff" />
<rect
   x="82.469002"
   y="83.469002"
   width="198"
   height="408.5"
   id="rect12"
   style="fill:#ffffff" />
<path
   d="m 254.778,288.175 -37.463,-85.107 c -0.586,-1.332 -1.604,-2.362 -2.869,-3.049 -6.174,-6.026 -13.987,-10.335 -22.477,-11.816 v -12.239 c 9.265,-4.423 15.667,-13.877 15.667,-24.829 0,-15.187 -12.312,-27.5 -27.5,-27.5 -15.188,0 -27.5,12.313 -27.5,27.5 0,10.819 6.25,20.174 15.333,24.664 v 12.462 c -7.734,1.763 -14.829,5.863 -20.528,11.424 -1.265,0.687 -2.283,1.717 -2.869,3.049 l -37.463,85.107 c -1.623,3.688 0.644,8.251 5.063,10.197 4.419,1.946 9.316,0.534 10.939,-3.153 l 29.326,-66.622 5.147,1.029 -5.767,20.342 -29.483,104 h 31.301 v 86.002 c 0,5.707 5.223,10.333 11.667,10.333 6.443,0 11.667,-4.626 11.667,-10.333 v -86.002 h 4.333 4 v 86.335 c 0,5.707 5.223,10.333 11.667,10.333 6.443,0 11.667,-4.626 11.667,-10.333 v -86.335 h 31.634 l -29.483,-104 -5.716,-20.162 4.379,-0.876 29.326,66.623 c 1.623,3.688 6.52,5.1 10.939,3.152 4.419,-1.945 6.686,-6.508 5.063,-10.196 z"
   id="path14"
   inkscape:connector-curvature="0" />
<path
   d="m 480.608,284.93 -34.64,-78.119 c -1.794,-9.726 -11.339,-17.361 -23.333,-18.634 v -0.208 h -10 V 174.9 c 8.172,-4.768 13.666,-13.621 13.666,-23.764 0,-15.187 -12.312,-27.5 -27.501,-27.5 -15.188,0 -27.499,12.313 -27.499,27.5 0,10.552 5.945,19.711 14.667,24.323 v 12.511 h -5.144 c -1.524,-0.217 -3.091,-0.333 -4.69,-0.333 -13.618,0 -24.895,8.177 -26.861,18.842 l -34.64,78.12 c -2.054,4.634 0.602,10.306 5.931,12.669 5.33,2.364 11.316,0.522 13.371,-4.11 l 28.479,-64.225 c 1.638,0.784 3.389,1.424 5.222,1.918 v 71.333 l -37.342,129.358 c -2.098,7.266 2.767,15.049 10.863,17.386 8.096,2.338 16.36,-1.655 18.458,-8.921 L 395.709,314.97 h 6.217 l 36.094,125.037 c 2.098,7.266 10.362,11.259 18.458,8.921 8.097,-2.337 12.961,-10.12 10.863,-17.386 L 429.615,300.854 c -0.171,-0.593 -0.396,-1.154 -0.646,-1.701 V 230.78 c 1.339,-0.427 2.633,-0.928 3.859,-1.515 l 28.479,64.225 c 2.055,4.633 8.041,6.475 13.371,4.109 5.329,-2.363 7.984,-8.035 5.93,-12.669 z"
   id="path16"
   inkscape:connector-curvature="0" />
</svg>