<?xml version="1.0" encoding="UTF-8" standalone="no"?>
<!-- Generator: Adobe Illustrator 15.0.0, SVG Export Plug-In  -->

<svg
   xmlns:dc="http://purl.org/dc/elements/1.1/"
   xmlns:cc="http://creativecommons.org/ns#"
   xmlns:rdf="http://www.w3.org/1999/02/22-rdf-syntax-ns#"
   xmlns:svg="http://www.w3.org/2000/svg"
   xmlns="http://www.w3.org/2000/svg"
   xmlns:sodipodi="http://sodipodi.sourceforge.net/DTD/sodipodi-0.dtd"
   xmlns:inkscape="http://www.inkscape.org/namespaces/inkscape"
   version="1.1"
   x="0px"
   y="0px"
   width="576"
   height="576"
   viewBox="-0.031 -0.031 576 576"
   enable-background="new -0.031 -0.031 576 576"
   xml:space="preserve"
   id="svg2"
   inkscape:version="0.48.1 "
   sodipodi:docname="CE14.svg"
   inkscape:export-filename="C:\Documents and Settings\bertrand.bouteilles\Bureau\Panneaux\A - Route\6_services\CE14.png"
   inkscape:export-xdpi="150"
   inkscape:export-ydpi="150"><metadata
   id="metadata18"><rdf:RDF><cc:Work
       rdf:about=""><dc:format>image/svg+xml</dc:format><dc:type
         rdf:resource="http://purl.org/dc/dcmitype/StillImage" /><dc:title></dc:title></cc:Work></rdf:RDF></metadata><sodipodi:namedview
   pagecolor="#ffffff"
   bordercolor="#666666"
   borderopacity="1"
   objecttolerance="10"
   gridtolerance="10"
   guidetolerance="10"
   inkscape:pageopacity="0"
   inkscape:pageshadow="2"
   inkscape:window-width="1280"
   inkscape:window-height="964"
   id="namedview16"
   showgrid="false"
   fit-margin-top="0"
   fit-margin-left="0"
   fit-margin-right="0"
   fit-margin-bottom="0"
   inkscape:zoom="0.50868056"
   inkscape:cx="-111.07142"
   inkscape:cy="287.99975"
   inkscape:window-x="-4"
   inkscape:window-y="-4"
   inkscape:window-maximized="1"
   inkscape:current-layer="svg2" />
<defs
   id="defs4">
</defs>



<path
   d="m 41.9682,574.97098 h 492.0031 c 10.87324,0 21.30243,-4.3185 28.99131,-12.00837 7.68888,-7.68888 12.00837,-18.11707 12.00837,-28.99131 V 41.9682 c 0,-10.87424 -4.31949,-21.30243 -12.00837,-28.99131 C 555.27273,5.28701 544.84354,0.96752 533.9703,0.96752 H 41.9682 c -10.87425,0 -21.30244,4.31949 -28.99131,12.00837 C 5.28701,20.66477 0.96752,31.09396 0.96752,41.9682 v 492.0031 c 0,10.87424 4.31949,21.30243 12.00837,28.99131 7.68888,7.68888 18.11806,12.00837 28.99231,12.00837 z"
   id="path6-1"
   inkscape:connector-curvature="0"
   style="fill:#ffffff;stroke:#000000;stroke-width:1.99654019;stroke-linecap:round;stroke-linejoin:round;stroke-miterlimit:4;stroke-dasharray:none" /><polygon
   points="538.362,36.576 538.362,36.576 36.576,36.576 36.576,36.576 36.576,538.362 538.362,538.362 538.362,538.362 "
   id="polygon8-7"
   transform="matrix(1.0001141,0,0,1.0001141,0.46744979,0.46744979)"
   style="fill:#0000ff;stroke:#0000ff;stroke-width:0.17640001;stroke-linecap:round;stroke-linejoin:round" /><rect
   x="89.239578"
   y="89.239578"
   width="397.45935"
   height="397.45935"
   id="rect10-4"
   style="fill:#ffffff;stroke:#0000ff;stroke-width:0.17642012;stroke-linecap:round;stroke-linejoin:round" /><path
   d="m 343.17725,353.96925 h -0.479 c -8.911,31.771 -37.193,55 -70.73,55 -25.755,0 -48.41,-13.706 -61.579,-34.453 -8.354,-11.74 -13.281,-26.067 -13.281,-41.547 0,-13.267 3.613,-25.688 9.906,-36.357 5.52,-10.664 13.417,-19.802 22.954,-26.674 v -28.944 c -35.867,15.271 -61,50.701 -61,91.976 0,55.228 44.995,100 100.5,100 37.732,0 70.604,-20.694 87.786,-51.297 l -14.077,-27.704 z"
   id="path12"
   inkscape:connector-curvature="0" />
<path
   d="m 398.54125,390.76725 29.906,-14.344 -8.331,-17.37 -29.575,14.184 -40.006,-87.663 -0.899,0.411 v -0.682 h -85.107 l -0.466,-19.667 h 68.24 v -20.667 h -68.731 l -1.55,-65.324 c 14.489,-2.135 25.614,-14.68 25.614,-29.842 0,-16.661 -13.432,-30.167 -30,-30.167 -16.568,0 -30,13.506 -30,30.167 0,7.052 2.413,13.534 6.445,18.67 l 3.302,139.136 0.252,-0.006 v 1.033 h 97.776 l 42.193,92.457 21.039,-10.101 -0.102,-0.225 z"
   id="path14"
   inkscape:connector-curvature="0" />
</svg>