<?xml version="1.0" encoding="UTF-8" standalone="no"?>
<!-- Generator: Adobe Illustrator 15.0.0, SVG Export Plug-In  -->

<svg
   xmlns:dc="http://purl.org/dc/elements/1.1/"
   xmlns:cc="http://creativecommons.org/ns#"
   xmlns:rdf="http://www.w3.org/1999/02/22-rdf-syntax-ns#"
   xmlns:svg="http://www.w3.org/2000/svg"
   xmlns="http://www.w3.org/2000/svg"
   xmlns:sodipodi="http://sodipodi.sourceforge.net/DTD/sodipodi-0.dtd"
   xmlns:inkscape="http://www.inkscape.org/namespaces/inkscape"
   version="1.1"
   x="0px"
   y="0px"
   width="576"
   height="576"
   viewBox="-0.031 -0.031 576 576"
   enable-background="new -0.031 -0.031 576 576"
   xml:space="preserve"
   id="svg2"
   inkscape:version="0.48.1 "
   sodipodi:docname="CE15a.svg"
   inkscape:export-filename="C:\Documents and Settings\bertrand.bouteilles\Bureau\Panneaux\A - Route\6_services\CE15a.png"
   inkscape:export-xdpi="150"
   inkscape:export-ydpi="150"><metadata
   id="metadata28"><rdf:RDF><cc:Work
       rdf:about=""><dc:format>image/svg+xml</dc:format><dc:type
         rdf:resource="http://purl.org/dc/dcmitype/StillImage" /><dc:title></dc:title></cc:Work></rdf:RDF></metadata><sodipodi:namedview
   pagecolor="#ffffff"
   bordercolor="#666666"
   borderopacity="1"
   objecttolerance="10"
   gridtolerance="10"
   guidetolerance="10"
   inkscape:pageopacity="0"
   inkscape:pageshadow="2"
   inkscape:window-width="1280"
   inkscape:window-height="964"
   id="namedview26"
   showgrid="false"
   fit-margin-top="0"
   fit-margin-left="0"
   fit-margin-right="0"
   fit-margin-bottom="0"
   inkscape:zoom="0.50868056"
   inkscape:cx="-111.07142"
   inkscape:cy="287.99975"
   inkscape:window-x="-4"
   inkscape:window-y="-4"
   inkscape:window-maximized="1"
   inkscape:current-layer="svg2" />
<defs
   id="defs4">
</defs>



<path
   d="m 41.96821,574.97098 h 492.0031 c 10.87324,0 21.30246,-4.3185 28.99136,-12.00837 7.6888,-7.68888 12.0083,-18.11707 12.0083,-28.99131 V 41.968197 c 0,-10.874241 -4.3195,-21.302429 -12.0083,-28.991306 C 555.27277,5.2870145 544.84355,0.9675215 533.97031,0.9675215 H 41.96821 c -10.87425,0 -21.30244,4.319493 -28.99131,12.0083695 C 5.28702,20.664767 0.96753,31.093956 0.96753,41.968197 V 533.9713 c 0,10.87424 4.31949,21.30243 12.00837,28.99131 7.68888,7.68888 18.11806,12.00837 28.99231,12.00837 z"
   id="path6-1"
   inkscape:connector-curvature="0"
   style="fill:#ffffff;stroke:#000000;stroke-width:1.99654019;stroke-linecap:round;stroke-linejoin:round;stroke-miterlimit:4;stroke-dasharray:none" /><polygon
   points="538.362,36.576 538.362,36.576 36.576,36.576 36.576,36.576 36.576,538.362 538.362,538.362 538.362,538.362 "
   id="polygon8-7"
   transform="matrix(1.0001141,0,0,1.0001141,0.46744979,0.46744979)"
   style="fill:#0000ff;stroke:#0000ff;stroke-width:0.17640001;stroke-linecap:round;stroke-linejoin:round" /><rect
   x="89.239578"
   y="89.239578"
   width="397.45935"
   height="397.45935"
   id="rect10-4"
   style="fill:#ffffff;stroke:#0000ff;stroke-width:0.17642012;stroke-linecap:round;stroke-linejoin:round" /><rect
   x="233.46924"
   y="157.46924"
   width="117.5"
   height="79.5"
   id="rect12"
   style="fill:#ffffff" />
<rect
   x="233.46924"
   y="157.46924"
   width="117.5"
   height="79.5"
   id="rect14"
   style="fill:none" />
<path
   d="m 189.30225,396.38125 c 1.537,3.206 4.675,5.404 8.302,5.404 3.656,0 6.816,-2.234 8.338,-5.482 h -0.307 v -126.834 h 15.333 v 0.5 h 6.174 l -0.063,-4.5 h -22.612 v -50.521 l -15.167,9.595 v 171.838 z"
   id="path16"
   inkscape:connector-curvature="0"
   style="fill:none" />
<path
   d="m 205.96925,269.96925 h 15 v -0.5 h -15.333 v 126.834 h 0.307 c -1.522,3.248 -4.682,5.482 -8.338,5.482 -3.627,0 -6.766,-2.198 -8.302,-5.404 v -171.838 l 15.167,-9.595 v -47.252 l -31.167,47.939 v 181.333 h 0.22 c 0.787,10.79 11.111,19.333 23.738,19.333 13.14,0 23.792,-9.25 23.792,-20.657 0,-0.546 -0.034,-1.084 -0.082,-1.618 v -109.557 h -15 v -14.5 z"
   id="path18"
   inkscape:connector-curvature="0" />
<rect
   x="205.96924"
   y="269.63525"
   width="14.667"
   height="19"
   id="rect20" />
<rect
   x="233.46924"
   y="157.46924"
   width="117.5"
   height="79.5"
   id="rect22"
   style="fill:none" />
<path
   d="m 379.46925,265.46925 v -136 h -175 v 38.227 47.252 50.521 h 22.612 l 0.054,3.833 h -20.832 v 0.667 h -0.333 v 14.5 h 15 6.376 l 1.983,142 h -24.86 v 29.5 h 175 v -29.5 h -25.956 l 6.492,-161 h 19.464 z m -28.5,-28.5 h -117.5 v -79.5 h 117.5 v 79.5 z"
   id="path24"
   inkscape:connector-curvature="0" />
</svg>