<?xml version="1.0" encoding="UTF-8" standalone="no"?>
<!-- Generator: Adobe Illustrator 15.0.0, SVG Export Plug-In  -->

<svg
   xmlns:dc="http://purl.org/dc/elements/1.1/"
   xmlns:cc="http://creativecommons.org/ns#"
   xmlns:rdf="http://www.w3.org/1999/02/22-rdf-syntax-ns#"
   xmlns:svg="http://www.w3.org/2000/svg"
   xmlns="http://www.w3.org/2000/svg"
   xmlns:sodipodi="http://sodipodi.sourceforge.net/DTD/sodipodi-0.dtd"
   xmlns:inkscape="http://www.inkscape.org/namespaces/inkscape"
   version="1.1"
   x="0px"
   y="0px"
   width="576"
   height="576"
   viewBox="-0.031 -0.031 576 576"
   enable-background="new -0.031 -0.031 576 576"
   xml:space="preserve"
   id="svg2"
   inkscape:version="0.48.1 "
   sodipodi:docname="CE15c.svg"
   inkscape:export-filename="C:\Documents and Settings\bertrand.bouteilles\Bureau\Panneaux\A - Route\6_services\CE15c.png"
   inkscape:export-xdpi="150"
   inkscape:export-ydpi="150"><metadata
   id="metadata28"><rdf:RDF><cc:Work
       rdf:about=""><dc:format>image/svg+xml</dc:format><dc:type
         rdf:resource="http://purl.org/dc/dcmitype/StillImage" /><dc:title></dc:title></cc:Work></rdf:RDF></metadata><sodipodi:namedview
   pagecolor="#ffffff"
   bordercolor="#666666"
   borderopacity="1"
   objecttolerance="10"
   gridtolerance="10"
   guidetolerance="10"
   inkscape:pageopacity="0"
   inkscape:pageshadow="2"
   inkscape:window-width="1280"
   inkscape:window-height="964"
   id="namedview26"
   showgrid="false"
   fit-margin-top="0"
   fit-margin-left="0"
   fit-margin-right="0"
   fit-margin-bottom="0"
   inkscape:zoom="0.50868056"
   inkscape:cx="-111.07117"
   inkscape:cy="287.9995"
   inkscape:window-x="-4"
   inkscape:window-y="-4"
   inkscape:window-maximized="1"
   inkscape:current-layer="svg2" />
<defs
   id="defs4">
</defs>



<path
   d="m 41.96845,574.97123 h 492.0031 c 10.87324,0 21.30243,-4.3185 28.99131,-12.00837 7.68888,-7.68888 12.00837,-18.11707 12.00837,-28.99131 V 41.968442 c 0,-10.87424 -4.31949,-21.302428 -12.00837,-28.991305 C 555.27298,5.2872615 544.84379,0.9677685 533.97055,0.9677685 H 41.96845 c -10.87425,0 -21.30244,4.319493 -28.99131,12.0083685 C 5.28726,20.665013 0.96777,31.094202 0.96777,41.968442 V 533.97155 c 0,10.87424 4.31949,21.30243 12.00837,28.99131 7.68888,7.68888 18.11806,12.00837 28.99231,12.00837 z"
   id="path6-1"
   inkscape:connector-curvature="0"
   style="fill:#ffffff;stroke:#000000;stroke-width:1.99654019;stroke-linecap:round;stroke-linejoin:round;stroke-miterlimit:4;stroke-dasharray:none" /><polygon
   points="36.576,36.576 36.576,538.362 538.362,538.362 538.362,538.362 538.362,36.576 538.362,36.576 36.576,36.576 "
   id="polygon8-7"
   transform="matrix(1.0001141,0,0,1.0001141,0.46769979,0.46769979)"
   style="fill:#0000ff;stroke:#0000ff;stroke-width:0.17640001;stroke-linecap:round;stroke-linejoin:round" /><rect
   x="89.23983"
   y="89.23983"
   width="397.45935"
   height="397.45935"
   id="rect10-4"
   style="fill:#ffffff;stroke:#0000ff;stroke-width:0.17642012;stroke-linecap:round;stroke-linejoin:round" /><path
   d="m 225.2145,241.5895 h 12.535 v -0.42 h -12.813 v 106.647 h 0.257 c -1.272,2.731 -3.912,4.609 -6.967,4.609 -3.031,0 -5.654,-1.849 -6.938,-4.544 v -144.486 l 12.673,-8.068 v -39.732 l -26.042,40.31 v 152.473 h 0.184 c 0.658,9.072 9.284,16.255 19.835,16.255 10.979,0 19.879,-7.777 19.879,-17.369 0,-0.459 -0.028,-0.911 -0.068,-1.36 v -92.121 h -12.535 v -12.194 z"
   id="path12"
   inkscape:connector-curvature="0" />
<rect
   x="248.19348"
   y="146.99548"
   width="98.179001"
   height="66.847"
   id="rect14"
   style="fill:none" />
<path
   d="m 370.1875,237.8065 v -114.354 h -146.226 v 32.143 39.732 42.48 h 18.893 l 0.045,3.223 h -17.407 v 0.561 h -0.279 v 12.192 h 12.535 5.327 l 1.657,119.399 h -20.772 v 24.805 h 146.225 v -24.805 h -21.689 l 5.426,-135.375 h 16.265 z m -23.815,-23.964 h -98.179 v -66.847 h 98.179 v 66.847 z"
   id="path16"
   inkscape:connector-curvature="0" />
<path
   d="m 206.7445,458.9805 v -13.674 h -12.371 v -9.438 h 12.371 v -13.674 h 8.248 v 13.674 h 12.403 v 9.438 h -12.403 v 13.674 h -8.248 z"
   id="path18"
   inkscape:connector-curvature="0" />
<path
   d="m 275.2685,447.2095 v -8.864 h 20.554 v 20.959 c -1.997,2.153 -4.892,4.05 -8.682,5.688 -3.79,1.638 -7.63,2.459 -11.517,2.459 -4.94,0 -9.246,-1.154 -12.918,-3.464 -3.673,-2.309 -6.433,-5.61 -8.28,-9.905 -1.847,-4.295 -2.771,-8.967 -2.771,-14.015 0,-5.479 1.031,-10.349 3.093,-14.607 2.062,-4.259 5.079,-7.524 9.053,-9.798 3.028,-1.746 6.797,-2.62 11.308,-2.62 5.863,0 10.443,1.37 13.74,4.109 3.297,2.74 5.418,6.526 6.363,11.359 l -9.472,1.974 c -0.666,-2.584 -1.917,-4.624 -3.753,-6.119 -1.836,-1.495 -4.129,-2.243 -6.878,-2.243 -4.167,0 -7.479,1.472 -9.938,4.414 -2.459,2.943 -3.689,7.311 -3.689,13.101 0,6.244 1.246,10.928 3.737,14.051 2.491,3.122 5.755,4.684 9.793,4.684 1.998,0 4,-0.437 6.008,-1.311 2.008,-0.873 3.732,-1.932 5.171,-3.176 v -6.676 h -10.922 z"
   id="path20"
   inkscape:connector-curvature="0" />
<path
   d="m 304.6165,466.5545 v -52.614 h 15.303 c 5.799,0 9.579,0.264 11.341,0.789 2.706,0.79 4.972,2.507 6.797,5.15 1.825,2.645 2.738,6.06 2.738,10.247 0,3.229 -0.526,5.945 -1.578,8.146 -1.053,2.202 -2.39,3.93 -4.011,5.187 -1.622,1.256 -3.271,2.087 -4.945,2.494 -2.276,0.502 -5.573,0.754 -9.891,0.754 h -6.218 v 19.847 h -9.536 z m 9.536,-43.714 v 14.931 h 5.22 c 3.758,0 6.271,-0.275 7.538,-0.826 1.267,-0.55 2.26,-1.411 2.98,-2.584 0.719,-1.172 1.079,-2.536 1.079,-4.091 0,-1.914 -0.505,-3.493 -1.515,-4.738 -1.01,-1.243 -2.287,-2.021 -3.834,-2.332 -1.139,-0.239 -3.426,-0.359 -6.861,-0.359 h -4.607 z"
   id="path22"
   inkscape:connector-curvature="0" />
<path
   d="m 348.8815,466.5545 v -52.184 h 9.536 v 43.318 h 23.711 v 8.865 h -33.247 z"
   id="path24"
   inkscape:connector-curvature="0" />
</svg>