<?xml version="1.0" encoding="UTF-8" standalone="no"?>
<!-- Generator: Adobe Illustrator 15.0.0, SVG Export Plug-In  -->

<svg
   xmlns:dc="http://purl.org/dc/elements/1.1/"
   xmlns:cc="http://creativecommons.org/ns#"
   xmlns:rdf="http://www.w3.org/1999/02/22-rdf-syntax-ns#"
   xmlns:svg="http://www.w3.org/2000/svg"
   xmlns="http://www.w3.org/2000/svg"
   xmlns:sodipodi="http://sodipodi.sourceforge.net/DTD/sodipodi-0.dtd"
   xmlns:inkscape="http://www.inkscape.org/namespaces/inkscape"
   version="1.1"
   x="0px"
   y="0px"
   width="576"
   height="576"
   viewBox="-0.031 -0.031 576 576"
   enable-background="new -0.031 -0.031 576 576"
   xml:space="preserve"
   id="svg2"
   inkscape:version="0.48.1 "
   sodipodi:docname="CE16.svg"
   inkscape:export-filename="C:\Documents and Settings\bertrand.bouteilles\Bureau\Panneaux\A - Route\6_services\CE16.png"
   inkscape:export-xdpi="150"
   inkscape:export-ydpi="150"><metadata
   id="metadata16"><rdf:RDF><cc:Work
       rdf:about=""><dc:format>image/svg+xml</dc:format><dc:type
         rdf:resource="http://purl.org/dc/dcmitype/StillImage" /><dc:title></dc:title></cc:Work></rdf:RDF></metadata><sodipodi:namedview
   pagecolor="#ffffff"
   bordercolor="#666666"
   borderopacity="1"
   objecttolerance="10"
   gridtolerance="10"
   guidetolerance="10"
   inkscape:pageopacity="0"
   inkscape:pageshadow="2"
   inkscape:window-width="1280"
   inkscape:window-height="964"
   id="namedview14"
   showgrid="false"
   fit-margin-top="0"
   fit-margin-left="0"
   fit-margin-right="0"
   fit-margin-bottom="0"
   inkscape:zoom="0.50868056"
   inkscape:cx="-111.07142"
   inkscape:cy="287.99975"
   inkscape:window-x="-4"
   inkscape:window-y="-4"
   inkscape:window-maximized="1"
   inkscape:current-layer="svg2" />
<defs
   id="defs4">
</defs>



<path
   d="M 41.968185,574.97098 H 533.97129 c 10.8732,0 21.30241,-4.3185 28.9913,-12.00837 7.68891,-7.68888 12.0084,-18.11707 12.0084,-28.99131 V 41.96819 c 0,-10.87424 -4.3195,-21.30243 -12.0084,-28.99131 C 555.27269,5.28701 544.8435,0.96752 533.97029,0.96752 H 41.968185 c -10.87425,0 -21.30244,4.31949 -28.99131,12.00836 -7.68988,7.68888 -12.00937,18.11807 -12.00937,28.99231 V 533.9713 c 0,10.87424 4.31949,21.30243 12.00837,28.99131 7.68888,7.68888 18.11806,12.00837 28.99231,12.00837 z"
   id="path6-1"
   inkscape:connector-curvature="0"
   style="fill:#ffffff;stroke:#000000;stroke-width:1.99654019;stroke-linecap:round;stroke-linejoin:round;stroke-miterlimit:4;stroke-dasharray:none" /><polygon
   points="538.362,36.576 538.362,36.576 36.576,36.576 36.576,36.576 36.576,538.362 538.362,538.362 538.362,538.362 "
   id="polygon8-7"
   transform="matrix(1.0001141,0,0,1.0001141,0.46744979,0.46744979)"
   style="fill:#0000ff;stroke:#0000ff;stroke-width:0.17640001;stroke-linecap:round;stroke-linejoin:round" /><rect
   x="89.239578"
   y="89.239578"
   width="397.45935"
   height="397.45935"
   id="rect10-4"
   style="fill:#ffffff;stroke:#0000ff;stroke-width:0.17642012;stroke-linecap:round;stroke-linejoin:round" /><path
   d="m 430.25189,401.55275 -126.522,-109.879 36.511,-41.671 c 21.766,11.58 59.739,-1.317 90.055,-32.077 14.296,-14.505 24.581,-30.656 30.231,-45.942 l -6.434,-6.533 -67.479,61.611 h -5.333 l -1.334,-2 0.334,-3 64.055,-66.519 -7.277,-7.391 -67.444,63.576 h -3.667 l -2,-2.333 v -1.667 l 63.455,-69.381 -5.474,-5.559 -67.981,64.606 -2.333,-0.667 -1.667,-2 2,-3.667 58.331,-70.104 -4.673,-4.745 c -15.557,5.774 -32.023,16.473 -46.694,31.359 -29.701,30.137 -42.166,67.385 -31.471,89.191 l -44.222,37.098 -46.904,-40.734 c 8.983,-20.493 1.458,-50.601 -20.399,-74.23 -26.801,-28.975 -64.99,-37.233 -85.3,-18.447 -20.308,18.785 -15.044,57.502 11.755,86.476 25.737,27.823 61.968,36.528 82.79,20.538 l 37.172,43.918 -131.604,110.407 c -9.116,5.049 -15.27,14.457 -15.317,25.264 -0.071,16.2 13.6,29.393 30.538,29.467 12.069,0.053 22.533,-6.571 27.58,-16.242 l 109.27,-124.714 109.152,128.96 c 5.089,9.094 14.523,15.206 25.331,15.206 16.2,0 29.332,-13.729 29.332,-30.666 0,-12.07 -6.67,-22.504 -16.363,-27.509 z"
   id="path12"
   inkscape:connector-curvature="0" />
</svg>