<?xml version="1.0" encoding="UTF-8" standalone="no"?>
<!-- Generator: Adobe Illustrator 15.0.0, SVG Export Plug-In  -->

<svg
   xmlns:dc="http://purl.org/dc/elements/1.1/"
   xmlns:cc="http://creativecommons.org/ns#"
   xmlns:rdf="http://www.w3.org/1999/02/22-rdf-syntax-ns#"
   xmlns:svg="http://www.w3.org/2000/svg"
   xmlns="http://www.w3.org/2000/svg"
   xmlns:sodipodi="http://sodipodi.sourceforge.net/DTD/sodipodi-0.dtd"
   xmlns:inkscape="http://www.inkscape.org/namespaces/inkscape"
   version="1.1"
   x="0px"
   y="0px"
   width="576"
   height="576"
   viewBox="-0.031 -0.031 576 576"
   enable-background="new -0.031 -0.031 576 576"
   xml:space="preserve"
   id="svg2"
   inkscape:version="0.48.1 "
   sodipodi:docname="CE17.svg"
   inkscape:export-filename="C:\Documents and Settings\bertrand.bouteilles\Bureau\Panneaux\A - Route\6_services\CE17.png"
   inkscape:export-xdpi="150"
   inkscape:export-ydpi="150"><metadata
   id="metadata24"><rdf:RDF><cc:Work
       rdf:about=""><dc:format>image/svg+xml</dc:format><dc:type
         rdf:resource="http://purl.org/dc/dcmitype/StillImage" /><dc:title></dc:title></cc:Work></rdf:RDF></metadata><sodipodi:namedview
   pagecolor="#ffffff"
   bordercolor="#666666"
   borderopacity="1"
   objecttolerance="10"
   gridtolerance="10"
   guidetolerance="10"
   inkscape:pageopacity="0"
   inkscape:pageshadow="2"
   inkscape:window-width="1280"
   inkscape:window-height="964"
   id="namedview22"
   showgrid="false"
   fit-margin-top="0"
   fit-margin-left="0"
   fit-margin-right="0"
   fit-margin-bottom="0"
   inkscape:zoom="0.50868056"
   inkscape:cx="-111.07117"
   inkscape:cy="287.9995"
   inkscape:window-x="-4"
   inkscape:window-y="-4"
   inkscape:window-maximized="1"
   inkscape:current-layer="svg2" />
<defs
   id="defs4">
</defs>







<path
   d="M 41.968465,574.97123 H 533.97161 c 10.8732,0 21.3024,-4.3185 28.9913,-12.00837 7.6888,-7.68888 12.0083,-18.11707 12.0083,-28.99131 V 41.96844 c 0,-10.87424 -4.3195,-21.30242 -12.0083,-28.9913 -7.6899,-7.68988 -18.1191,-12.00937 -28.9923,-12.00937 H 41.968465 c -10.87425,0 -21.30244,4.31949 -28.99131,12.00837 -7.68988,7.68887 -12.00937,18.11806 -12.00937,28.9923 v 492.00311 c 0,10.87424 4.31949,21.30243 12.00837,28.99131 7.68888,7.68888 18.11806,12.00837 28.99231,12.00837 z"
   id="path6-1"
   inkscape:connector-curvature="0"
   style="fill:#ffffff;stroke:#000000;stroke-width:1.99654019;stroke-linecap:round;stroke-linejoin:round;stroke-miterlimit:4;stroke-dasharray:none" /><polygon
   points="36.576,36.576 36.576,538.362 538.362,538.362 538.362,538.362 538.362,36.576 538.362,36.576 36.576,36.576 "
   id="polygon8-7"
   transform="matrix(1.0001141,0,0,1.0001141,0.46769979,0.46769979)"
   style="fill:#0000ff;stroke:#0000ff;stroke-width:0.17640001;stroke-linecap:round;stroke-linejoin:round" /><rect
   x="89.23983"
   y="89.23983"
   width="397.45935"
   height="397.45935"
   id="rect10-4"
   style="fill:#ffffff;stroke:#0000ff;stroke-width:0.17642012;stroke-linecap:round;stroke-linejoin:round" />
<g
   id="g3001"
   transform="translate(-0.8745,-32.8335)"><polygon
     id="polygon12"
     points="124.26,310.303 247.361,250.969 247.361,204.303 125.081,257.942 124.26,258.302 " /><polygon
     id="polygon14"
     points="140.896,376.636 140.896,371.59 334.197,425.065 334.197,435.469 339.321,437.303 342.024,437.303 349.834,433.588 349.834,424.945 439.034,384.978 449.2,387.524 454.135,384.784 454.135,378.211 454.302,378.137 454.302,316.635 452.187,311.896 340.518,361.933 340.518,384.696 124.926,325.055 124.926,367.172 125.258,367.264 125.258,377.155 135.457,379.854 " /><path
     id="path16"
     d="m 246.43,251.135 c 7.91,2.61 13.539,9.312 13.539,17.167 0,3.202 -0.935,6.212 -2.578,8.832 l -118.647,58.265 c 3.434,-3.268 5.532,-7.634 5.532,-12.43 0,-9.832 -8.817,-17.856 -19.89,-18.313"
     inkscape:connector-curvature="0"
     style="fill:none;stroke:#000000;stroke-width:2" /><line
     id="line18"
     y2="324.96899"
     x2="431.96899"
     y1="277.133"
     x1="257.37601"
     style="fill:none;stroke:#000000;stroke-width:2" /><line
     id="line20"
     y2="377.30301"
     x2="124.635"
     y1="257.96899"
     x1="124.635"
     style="fill:none;stroke:#000000;stroke-width:2" /></g></svg>