<?xml version="1.0" encoding="UTF-8" standalone="no"?>
<!-- Generator: Adobe Illustrator 15.0.0, SVG Export Plug-In  -->

<svg
   xmlns:dc="http://purl.org/dc/elements/1.1/"
   xmlns:cc="http://creativecommons.org/ns#"
   xmlns:rdf="http://www.w3.org/1999/02/22-rdf-syntax-ns#"
   xmlns:svg="http://www.w3.org/2000/svg"
   xmlns="http://www.w3.org/2000/svg"
   xmlns:sodipodi="http://sodipodi.sourceforge.net/DTD/sodipodi-0.dtd"
   xmlns:inkscape="http://www.inkscape.org/namespaces/inkscape"
   version="1.1"
   x="0px"
   y="0px"
   width="576"
   height="576"
   viewBox="-0.031 -0.031 576 576"
   enable-background="new -0.031 -0.031 576 567"
   xml:space="preserve"
   id="svg2"
   inkscape:version="0.48.1 "
   sodipodi:docname="CE19.svg"
   inkscape:export-filename="C:\Documents and Settings\bertrand.bouteilles\Bureau\Panneaux\A - Route\6_services\CE19.png"
   inkscape:export-xdpi="150"
   inkscape:export-ydpi="150"><metadata
   id="metadata22"><rdf:RDF><cc:Work
       rdf:about=""><dc:format>image/svg+xml</dc:format><dc:type
         rdf:resource="http://purl.org/dc/dcmitype/StillImage" /><dc:title></dc:title></cc:Work></rdf:RDF></metadata><sodipodi:namedview
   pagecolor="#ffffff"
   bordercolor="#666666"
   borderopacity="1"
   objecttolerance="10"
   gridtolerance="10"
   guidetolerance="10"
   inkscape:pageopacity="0"
   inkscape:pageshadow="2"
   inkscape:window-width="1280"
   inkscape:window-height="964"
   id="namedview20"
   showgrid="false"
   fit-margin-top="0"
   fit-margin-left="0"
   fit-margin-right="0"
   fit-margin-bottom="0"
   inkscape:zoom="0.51675485"
   inkscape:cx="-104.83593"
   inkscape:cy="287.99975"
   inkscape:window-x="-4"
   inkscape:window-y="-4"
   inkscape:window-maximized="1"
   inkscape:current-layer="svg2" />
<defs
   id="defs4">
</defs>



<path
   d="M 41.968215,574.97098 H 533.97136 c 10.8732,0 21.3024,-4.3185 28.9913,-12.00837 7.6888,-7.68888 12.0083,-18.11707 12.0083,-28.99131 V 41.968196 c 0,-10.874241 -4.3195,-21.302429 -12.0083,-28.991306 -7.6899,-7.689876 -18.1191,-12.009369 -28.9923,-12.009369 H 41.968215 c -10.87425,0 -21.30244,4.319493 -28.99131,12.008369 -7.68988,7.688876 -12.00937,18.118065 -12.00937,28.992306 V 533.9713 c 0,10.87424 4.31949,21.30243 12.00837,28.99131 7.68888,7.68888 18.11806,12.00837 28.99231,12.00837 z"
   id="path6-1"
   inkscape:connector-curvature="0"
   style="fill:#ffffff;stroke:#000000;stroke-width:1.99654019;stroke-linecap:round;stroke-linejoin:round;stroke-miterlimit:4;stroke-dasharray:none" /><polygon
   points="538.362,36.576 538.362,36.576 36.576,36.576 36.576,36.576 36.576,538.362 538.362,538.362 538.362,538.362 "
   id="polygon8-7"
   transform="matrix(1.0001141,0,0,1.0001141,0.46744979,0.4674498)"
   style="fill:#0000ff;stroke:#0000ff;stroke-width:0.17640001;stroke-linecap:round;stroke-linejoin:round" /><rect
   x="89.239578"
   y="89.239578"
   width="397.45935"
   height="397.45935"
   id="rect10-4"
   style="fill:#ffffff;stroke:#0000ff;stroke-width:0.17642012;stroke-linecap:round;stroke-linejoin:round" /><path
   d="m 209.21925,426.21925 c -3.939,-7.771 -20.308,-12.267 -28.389,-10.5 -6.735,1.473 -10.774,6.515 -16.045,9.122 l -4.566,1.378 c -11.827,2.802 -15.747,-7.978 -26,-10.25 -7.41,-1.643 -21.879,2.13 -27,8.912 v 11.595 c 4.882,-6.998 19.715,-10.927 27.25,-9.257 10.253,2.272 14.173,13.052 26,10.25 l 4.566,-1.378 c 5.271,-2.607 9.31,-7.649 16.045,-9.122 8.081,-1.767 24.449,2.729 28.389,10.5 l -0.25,-11.25 z"
   id="path12"
   inkscape:connector-curvature="0"
   style="stroke:#000000;stroke-width:1;stroke-linecap:round;stroke-linejoin:round" />
<polygon
   points="323.969,211.802 334.643,226.456 350.427,213.7 331.302,207.636 328.136,207.469 324.969,208.136 323.636,209.302 "
   id="polygon14"
   style="fill:none"
   transform="translate(2.5e-4,4.50025)" />
<polygon
   points="281.469,234.719 276.734,234.817 261.172,285.829 295.057,258.446 "
   id="polygon16"
   style="fill:none"
   transform="translate(2.5e-4,4.50025)" />
<path
   d="m 457.37625,157.32125 c -15.499,-18.821 -39.237,-16.402 -59.907,-10.352 l -2.5,1.25 1.75,1.25 4,1.25 3,1.75 2.5,3.5 1.5,3.5 0.5,4.5 v 3.75 l -1.25,4.25 -1.5,1.75 -37.521,30.322 c -19.556,-7.096 -45.239,-18.589 -63.661,-11.275 l -8.221,-14.422 c 2.774,-4.084 4.402,-9.035 4.402,-14.374 0,-13.991 -11.155,-25.333 -24.916,-25.333 -13.762,0 -24.917,11.342 -24.917,25.333 0,13.992 11.156,25.333 24.917,25.333 0.125,0 0.249,-0.008 0.374,-0.01 l 5.248,11.771 -7.039,2.405 -6.833,3.333 -3.167,2.167 -1.674,1.675 -23.699,77.682 0.042,0.006 c -1.04,4.005 0.129,8.348 3.399,11.103 1.439,1.212 3.113,1.973 4.857,2.3 l -106.092,85.735 -3.25,0.75 c -15.118,2.085 -23.291,-6.82 -29.75,-19.25 v 42.844 c 5.326,-6.581 19.456,-10.21 26.75,-8.594 10.253,2.272 14.173,13.052 26,10.25 l 4.566,-1.378 c 5.271,-2.607 9.31,-7.649 16.045,-9.122 8.081,-1.767 24.449,2.729 28.389,10.5 l 1.473,1.224 84.404,-68.21 -0.064,47.777 0.047,-0.002 c 0.188,4.253 2.855,8.429 7.258,10.594 6.195,3.046 13.456,0.963 16.22,-4.654 0.924,-1.88 1.216,-3.914 0.978,-5.905 l 0.164,-10e-4 0.072,-52.773 16.505,-28.313 3.955,-3.196 37.009,75.513 0.042,-0.021 c 2.046,3.731 6.281,6.302 11.188,6.302 6.903,0 12.5,-5.074 12.5,-11.334 0,-2.094 -0.637,-4.048 -1.729,-5.73 l 0.147,-0.072 -39.481,-80.559 90.813,-73.389 1.75,-1.25 c 16.064,-11.242 15.879,-48.221 4.407,-62.15 z m -196.204,133.008 15.563,-51.012 4.734,-0.099 13.588,23.728 -33.885,27.383 z m 73.471,-59.373 -10.674,-14.653 -0.333,-2.5 1.333,-1.167 3.167,-0.667 3.166,0.167 19.125,6.064 -15.784,12.756 z"
   id="path18"
   inkscape:connector-curvature="0" />
</svg>