<?xml version="1.0" encoding="UTF-8" standalone="no"?>
<!-- Generator: Adobe Illustrator 15.0.0, SVG Export Plug-In  -->

<svg
   xmlns:dc="http://purl.org/dc/elements/1.1/"
   xmlns:cc="http://creativecommons.org/ns#"
   xmlns:rdf="http://www.w3.org/1999/02/22-rdf-syntax-ns#"
   xmlns:svg="http://www.w3.org/2000/svg"
   xmlns="http://www.w3.org/2000/svg"
   xmlns:sodipodi="http://sodipodi.sourceforge.net/DTD/sodipodi-0.dtd"
   xmlns:inkscape="http://www.inkscape.org/namespaces/inkscape"
   version="1.1"
   x="0px"
   y="0px"
   width="576.00348"
   height="576.00348"
   viewBox="-0.031 -0.031 576.00348 576.00348"
   enable-background="new -0.031 -0.031 576 567"
   xml:space="preserve"
   id="svg2"
   inkscape:version="0.48.1 "
   sodipodi:docname="CE20b.svg"
   inkscape:export-filename="C:\Documents and Settings\bertrand.bouteilles\Bureau\Panneaux\A - Route\6_services\CE20b.png"
   inkscape:export-xdpi="150"
   inkscape:export-ydpi="150"><metadata
   id="metadata16"><rdf:RDF><cc:Work
       rdf:about=""><dc:format>image/svg+xml</dc:format><dc:type
         rdf:resource="http://purl.org/dc/dcmitype/StillImage" /><dc:title></dc:title></cc:Work></rdf:RDF></metadata><sodipodi:namedview
   pagecolor="#ffffff"
   bordercolor="#666666"
   borderopacity="1"
   objecttolerance="10"
   gridtolerance="10"
   guidetolerance="10"
   inkscape:pageopacity="0"
   inkscape:pageshadow="2"
   inkscape:window-width="1280"
   inkscape:window-height="964"
   id="namedview14"
   showgrid="false"
   fit-margin-top="0"
   fit-margin-left="0"
   fit-margin-right="0"
   fit-margin-bottom="0"
   inkscape:zoom="0.51675485"
   inkscape:cx="-129.99144"
   inkscape:cy="288.00173"
   inkscape:window-x="-4"
   inkscape:window-y="-4"
   inkscape:window-maximized="1"
   inkscape:current-layer="svg2" />
<defs
   id="defs4">
</defs>



<path
   d="m 41.96968,574.97246 h 492.0031 c 10.87324,0 21.30243,-4.3185 28.99131,-12.00837 7.68888,-7.68888 12.00837,-18.11707 12.00837,-28.99131 V 41.96967 c 0,-10.87424 -4.31949,-21.30242 -12.00837,-28.9913 C 555.27421,5.28849 544.84502,0.969 533.97178,0.969 H 41.96968 C 31.09543,0.969 20.66724,5.28849 12.97837,12.97737 5.28849,20.66624 0.969,31.09543 0.969,41.96967 v 492.00311 c 0,10.87424 4.31949,21.30243 12.00837,28.99131 7.68888,7.68888 18.11806,12.00837 28.99231,12.00837 z"
   id="path6-1"
   inkscape:connector-curvature="0"
   style="fill:#ffffff;stroke:#000000;stroke-width:2;stroke-linecap:round;stroke-linejoin:round;stroke-miterlimit:4;stroke-dasharray:none" /><polygon
   points="36.576,36.576 36.576,538.362 538.362,538.362 538.362,538.362 538.362,36.576 538.362,36.576 36.576,36.576 "
   id="polygon8-7"
   transform="matrix(1.0001141,0,0,1.0001141,0.468929,0.468929)"
   style="fill:#0000ff;stroke:#0000ff;stroke-width:0.17640001;stroke-linecap:round;stroke-linejoin:round" /><rect
   x="89.241058"
   y="89.241058"
   width="397.45935"
   height="397.45935"
   id="rect10-4"
   style="fill:#ffffff;stroke:#0000ff;stroke-width:0.17642012;stroke-linecap:round;stroke-linejoin:round" /><path
   d="m 474.34473,284.65557 -0.25,-5.25 -8.75,-0.25 c -0.815,16.42 -9.463,29.354 -22.399,38.551 l -109.447,62.083 -8.153,-5.634 -1.25,-2.5 0.25,-3 15.25,-75 -0.75,-4 -0.75,-2.75 -2.5,-2.5 -1.5,-1.25 -1.5,-1.25 -1.5,-0.5 -2.25,-0.5 -4.25,0.25 -48.5,2.675 v -30.326 l 19.167,16.568 5,3 4.333,-0.333 3.667,-0.667 34.166,-48.167 1.167,-4.167 0.167,-3.833 -3.334,-5 -1.45,-0.378 -2.766,-4.876 -49.774,28.234 c -3.113,-3.382 -6.695,-7.287 -10.343,-11.268 v -0.152 l -0.986,-1.06 h -0.124 c -5.639,-6.157 -11.325,-12.379 -15.557,-17.013 v -13.84 c 10.892,-1.869 19.167,-11.07 19.167,-22.147 0,-12.426 -10.41,-22.5 -23.25,-22.5 -12.84,0 -23.25,10.074 -23.25,22.5 0,7.883 4.193,14.815 10.535,18.833 h -0.035 v 13.933 l -14.5,11.901 -1.5,3.667 -0.519,4.667 h -0.398 v 46.945 l -13.25,7.516 v -3.735 l 0,0 v -128.891 l 29.732,-16.082 -0.22,-0.407 c 10.096,-4.399 18.98,-8.874 30.155,-10.097 -13.949,-3.648 -22.043,-5.077 -34.568,1.94 l -0.009,-0.017 -135.922,73.519 v 11.092 l 99.166,-53.638 v 132.933 l -40.46,22.951 -7.881,-13.895 -6.088,3.454 7.881,13.894 -11.686,6.629 3.453,6.089 11.686,-6.629 7.336,12.934 6.089,-3.453 -7.337,-12.935 37.006,-20.991 v 6.54 c -0.103,1.181 -0.166,2.374 -0.166,3.583 0,1.221 0.061,2.426 0.166,3.618 v 0.8 h 0.078 c 2.113,19.596 18.095,34.832 37.506,34.832 2.366,0 4.679,-0.232 6.924,-0.666 h 48.159 v -9.334 h -29.942 c 0.121,-0.112 0.246,-0.219 0.365,-0.333 h -20.521 c -1.328,0.218 -2.686,0.333 -4.069,0.333 -13.558,0 -24.793,-10.848 -26.833,-25.026 v -9.278 c 0,-0.002 0,-0.004 0,-0.005 v -11.682 l 13.25,-7.516 v 25.257 h 0.191 c 0.258,9.983 8.142,18 17.851,18 0.297,0 0.591,-0.012 0.884,-0.026 l -0.009,0.026 63.5,-4.5 1,-0.5 1.25,0.75 -15.5,65.25 10.373,15.176 -102.234,57.991 4.818,8.495 242.885,-137.775 -0.19,-0.336 c 13.734,-9.249 23.001,-22.526 23.847,-39.551 z m -151.228,-63.53 -20.189,23.113 c 0,0 -2.166,1.5 -2.666,1.667 -0.5,0.167 -3.5,-1.333 -4,-1.5 -0.103,-0.034 -2,-2.053 -4.95,-5.238 l 31.805,-18.042 z"
   id="path12"
   inkscape:connector-curvature="0" />
</svg>