<?xml version="1.0" encoding="UTF-8" standalone="no"?>
<!-- Generator: Adobe Illustrator 15.0.0, SVG Export Plug-In  -->

<svg
   xmlns:dc="http://purl.org/dc/elements/1.1/"
   xmlns:cc="http://creativecommons.org/ns#"
   xmlns:rdf="http://www.w3.org/1999/02/22-rdf-syntax-ns#"
   xmlns:svg="http://www.w3.org/2000/svg"
   xmlns="http://www.w3.org/2000/svg"
   xmlns:sodipodi="http://sodipodi.sourceforge.net/DTD/sodipodi-0.dtd"
   xmlns:inkscape="http://www.inkscape.org/namespaces/inkscape"
   version="1.1"
   x="0px"
   y="0px"
   width="576"
   height="576"
   viewBox="-0.031 -0.031 576 576"
   enable-background="new -0.031 -0.031 576 567"
   xml:space="preserve"
   id="svg2"
   inkscape:version="0.48.1 "
   sodipodi:docname="CE20a.svg"
   inkscape:export-filename="C:\Documents and Settings\bertrand.bouteilles\Bureau\Panneaux\A - Route\6_services\CE20a.png"
   inkscape:export-xdpi="150"
   inkscape:export-ydpi="150"><metadata
   id="metadata16"><rdf:RDF><cc:Work
       rdf:about=""><dc:format>image/svg+xml</dc:format><dc:type
         rdf:resource="http://purl.org/dc/dcmitype/StillImage" /><dc:title></dc:title></cc:Work></rdf:RDF></metadata><sodipodi:namedview
   pagecolor="#ffffff"
   bordercolor="#666666"
   borderopacity="1"
   objecttolerance="10"
   gridtolerance="10"
   guidetolerance="10"
   inkscape:pageopacity="0"
   inkscape:pageshadow="2"
   inkscape:window-width="1280"
   inkscape:window-height="964"
   id="namedview14"
   showgrid="false"
   fit-margin-top="0"
   fit-margin-left="0"
   fit-margin-right="0"
   fit-margin-bottom="0"
   inkscape:zoom="0.51675485"
   inkscape:cx="-104.83593"
   inkscape:cy="287.99975"
   inkscape:window-x="-4"
   inkscape:window-y="-4"
   inkscape:window-maximized="1"
   inkscape:current-layer="svg2" />
<defs
   id="defs4">
</defs>



<path
   d="m 41.9682,574.97098 h 492.0031 c 10.87324,0 21.30243,-4.3185 28.99131,-12.00837 7.68888,-7.68888 12.00837,-18.11707 12.00837,-28.99131 V 41.968191 c 0,-10.874237 -4.31949,-21.302425 -12.00837,-28.991302 C 555.27273,5.2870125 544.84354,0.9675195 533.9703,0.9675195 H 41.9682 c -10.87425,0 -21.30244,4.319493 -28.99131,12.0083695 C 5.28701,20.664765 0.96752,31.093954 0.96752,41.968191 V 533.9713 c 0,10.87424 4.31949,21.30243 12.00837,28.99131 7.68888,7.68888 18.11806,12.00837 28.99231,12.00837 z"
   id="path6-1"
   inkscape:connector-curvature="0"
   style="fill:#ffffff;stroke:#000000;stroke-width:1.99654019;stroke-linecap:round;stroke-linejoin:round;stroke-miterlimit:4;stroke-dasharray:none" /><polygon
   points="538.362,36.576 538.362,36.576 36.576,36.576 36.576,36.576 36.576,538.362 538.362,538.362 538.362,538.362 "
   id="polygon8-7"
   transform="matrix(1.0001141,0,0,1.0001141,0.46744979,0.4674498)"
   style="fill:#0000ff;stroke:#0000ff;stroke-width:0.17640001;stroke-linecap:round;stroke-linejoin:round" /><rect
   x="89.239578"
   y="89.239578"
   width="397.45935"
   height="397.45935"
   id="rect10-4"
   style="fill:#ffffff;stroke:#0000ff;stroke-width:0.17642012;stroke-linecap:round;stroke-linejoin:round" /><g
   id="g2993"
   transform="translate(-0.50675,-1.16725)"><path
     id="path12"
     d="m 422.885,316.636 h -61.108 l -33.99,-62 -20.817,-37.973 v -23.175 l 165.13,-54.1 -3.736,-11.403 -94.824,31.066 -5.19,-7.909 c 4.328,-3.295 7.121,-8.411 7.121,-14.173 0,-9.941 -8.283,-18 -18.5,-18 -10.217,0 -18.5,8.059 -18.5,18 0,9.518 7.598,17.29 17.21,17.937 l 0.29,9.563 3.038,-0.657 -30.324,9.935 -4.335,-6.605 c 4.328,-3.295 7.121,-8.411 7.121,-14.173 0,-9.941 -8.283,-18 -18.5,-18 -10.217,0 -18.5,8.059 -18.5,18 0,9.518 7.598,17.29 17.21,17.937 l 0.253,8.33 -55.883,18.308 -4.201,-6.401 c 4.328,-3.295 7.121,-8.411 7.121,-14.173 0,-9.941 -8.283,-18 -18.5,-18 -10.217,0 -18.5,8.059 -18.5,18 0,9.518 7.597,17.29 17.21,17.937 l 0.245,8.084 -26.598,8.714 -3.978,-6.062 c 4.328,-3.295 7.121,-8.411 7.121,-14.173 0,-9.941 -8.283,-18 -18.5,-18 -10.217,0 -18.5,8.059 -18.5,18 0,9.518 7.597,17.29 17.21,17.937 l 0.233,7.676 -91.562,29.998 3.736,11.403 166.383,-54.51 v 16.34 l -18.817,34.324 -33.99,62 h -61.775 c -6.674,0 -12.084,5.424 -12.084,12.113 v 118.44 c 0,6.689 5.41,12.113 12.084,12.113 h 262.498 c 6.673,0 12.084,-5.424 12.084,-12.113 v -118.44 c -0.002,-6.691 -5.413,-12.115 -12.086,-12.115 z m -183.916,70 h -77.333 v -57.334 h 77.333 v 57.334 z m 88.667,0 h -77.333 v -57.334 h 77.333 v 57.334 z m -36,-94.542 H 250.5 l 20.568,-35.625 6.447,-11.167 h 28.242 l 6.447,11.167 20.568,35.625 h -41.136 z m 130,94.542 h -77.333 v -57.334 h 77.333 v 57.334 z"
     inkscape:connector-curvature="0" /></g>
</svg>