<?xml version="1.0" encoding="UTF-8" standalone="no"?>
<!-- Generator: Adobe Illustrator 15.0.0, SVG Export Plug-In  -->

<svg
   xmlns:dc="http://purl.org/dc/elements/1.1/"
   xmlns:cc="http://creativecommons.org/ns#"
   xmlns:rdf="http://www.w3.org/1999/02/22-rdf-syntax-ns#"
   xmlns:svg="http://www.w3.org/2000/svg"
   xmlns="http://www.w3.org/2000/svg"
   xmlns:sodipodi="http://sodipodi.sourceforge.net/DTD/sodipodi-0.dtd"
   xmlns:inkscape="http://www.inkscape.org/namespaces/inkscape"
   version="1.1"
   x="0px"
   y="0px"
   width="576"
   height="576"
   viewBox="-0.031 -0.031 576 576"
   enable-background="new -0.031 -0.031 576 567"
   xml:space="preserve"
   id="svg2"
   inkscape:version="0.48.1 "
   sodipodi:docname="CE21.svg"
   inkscape:export-filename="C:\Documents and Settings\bertrand.bouteilles\Bureau\Panneaux\A - Route\6_services\CE21.png"
   inkscape:export-xdpi="150"
   inkscape:export-ydpi="150"><metadata
   id="metadata24"><rdf:RDF><cc:Work
       rdf:about=""><dc:format>image/svg+xml</dc:format><dc:type
         rdf:resource="http://purl.org/dc/dcmitype/StillImage" /><dc:title></dc:title></cc:Work></rdf:RDF></metadata><sodipodi:namedview
   pagecolor="#ffffff"
   bordercolor="#666666"
   borderopacity="1"
   objecttolerance="10"
   gridtolerance="10"
   guidetolerance="10"
   inkscape:pageopacity="0"
   inkscape:pageshadow="2"
   inkscape:window-width="1280"
   inkscape:window-height="964"
   id="namedview22"
   showgrid="false"
   fit-margin-top="0"
   fit-margin-left="0"
   fit-margin-right="0"
   fit-margin-bottom="0"
   inkscape:zoom="0.51675485"
   inkscape:cx="-104.83593"
   inkscape:cy="287.99975"
   inkscape:window-x="-4"
   inkscape:window-y="-4"
   inkscape:window-maximized="1"
   inkscape:current-layer="svg2" />
<defs
   id="defs4">
</defs>



<path
   d="m 41.9682,574.97098 h 492.00308 c 10.8733,0 21.3024,-4.3185 28.9913,-12.00837 7.6889,-7.68888 12.0084,-18.11707 12.0084,-28.99131 V 41.96819 c 0,-10.87424 -4.3195,-21.30243 -12.0084,-28.99131 -7.6899,-7.68987 -18.119,-12.00936 -28.9923,-12.00936 H 41.9682 c -10.87425,0 -21.30244,4.31949 -28.99131,12.00836 C 5.28701,20.66476 0.96752,31.09395 0.96752,41.96819 V 533.9713 c 0,10.87424 4.31949,21.30243 12.00837,28.99131 7.68888,7.68888 18.11806,12.00837 28.99231,12.00837 z"
   id="path6-1"
   inkscape:connector-curvature="0"
   style="fill:#ffffff;stroke:#000000;stroke-width:1.99654019;stroke-linecap:round;stroke-linejoin:round;stroke-miterlimit:4;stroke-dasharray:none" /><polygon
   points="538.362,36.576 538.362,36.576 36.576,36.576 36.576,36.576 36.576,538.362 538.362,538.362 538.362,538.362 "
   id="polygon8-7"
   transform="matrix(1.0001141,0,0,1.0001141,0.46744979,0.4674498)"
   style="fill:#0000ff;stroke:#0000ff;stroke-width:0.17640001;stroke-linecap:round;stroke-linejoin:round" /><rect
   x="89.239578"
   y="89.239578"
   width="397.45935"
   height="397.45935"
   id="rect10-4"
   style="fill:#ffffff;stroke:#0000ff;stroke-width:0.17642012;stroke-linecap:round;stroke-linejoin:round" />



<g
   id="g3012"
   transform="translate(1.1437528,7.93475)"><polygon
     id="polygon12"
     points="373.745,107.046 385.704,122.956 397.661,138.865 310.376,192.021 223.092,245.178 298.418,176.112 " /><polygon
     id="polygon14"
     points="427.327,207.669 431.016,227.228 434.701,246.785 332.906,255.845 231.113,264.907 329.22,236.287 " /><polygon
     id="polygon16"
     points="437.349,314.771 433.145,334.226 428.938,353.678 331.626,322.459 234.314,291.243 335.832,303.007 " /><polygon
     id="polygon18"
     points="399.461,420.953 387.67,436.989 375.88,453.023 299.834,384.748 223.788,316.478 311.624,368.715 " /><ellipse
     id="ellipse20"
     ry="31"
     rx="32.333"
     cy="279.63599"
     cx="168.63499"
     sodipodi:cx="168.63499"
     sodipodi:cy="279.63599"
     sodipodi:rx="32.333"
     sodipodi:ry="31"
     d="m 200.96799,279.63599 c 0,17.12082 -14.47597,31 -32.333,31 -17.85702,0 -32.333,-13.87918 -32.333,-31 0,-17.12083 14.47598,-31 32.333,-31 17.85703,0 32.333,13.87917 32.333,31 z" /></g>
</svg>