<?xml version="1.0" encoding="UTF-8" standalone="no"?>
<!-- Generator: Adobe Illustrator 16.0.2, SVG Export Plug-In . SVG Version: 6.00 Build 0)  -->

<svg
   xmlns:dc="http://purl.org/dc/elements/1.1/"
   xmlns:cc="http://creativecommons.org/ns#"
   xmlns:rdf="http://www.w3.org/1999/02/22-rdf-syntax-ns#"
   xmlns:svg="http://www.w3.org/2000/svg"
   xmlns="http://www.w3.org/2000/svg"
   xmlns:sodipodi="http://sodipodi.sourceforge.net/DTD/sodipodi-0.dtd"
   xmlns:inkscape="http://www.inkscape.org/namespaces/inkscape"
   version="1.1"
   id="Ebene_1"
   x="0px"
   y="0px"
   width="576"
   height="576"
   viewBox="0 0 576 576"
   xml:space="preserve"
   inkscape:version="0.48.1 "
   sodipodi:docname="CE22.svg"
   inkscape:export-filename="C:\Documents and Settings\bertrand.bouteilles\Bureau\Panneaux\A - Route\6_services\CE22.png"
   inkscape:export-xdpi="150"
   inkscape:export-ydpi="150"><metadata
   id="metadata31"><rdf:RDF><cc:Work
       rdf:about=""><dc:format>image/svg+xml</dc:format><dc:type
         rdf:resource="http://purl.org/dc/dcmitype/StillImage" /><dc:title></dc:title></cc:Work></rdf:RDF></metadata><defs
   id="defs29" /><sodipodi:namedview
   pagecolor="#ffffff"
   bordercolor="#666666"
   borderopacity="1"
   objecttolerance="10"
   gridtolerance="10"
   guidetolerance="10"
   inkscape:pageopacity="0"
   inkscape:pageshadow="2"
   inkscape:window-width="1280"
   inkscape:window-height="964"
   id="namedview27"
   showgrid="false"
   fit-margin-top="0"
   fit-margin-left="0"
   fit-margin-right="0"
   fit-margin-bottom="0"
   inkscape:zoom="0.50868056"
   inkscape:cx="-111.07167"
   inkscape:cy="288"
   inkscape:window-x="-4"
   inkscape:window-y="-4"
   inkscape:window-maximized="1"
   inkscape:current-layer="Ebene_1" />



<path
   d="m 41.99895,575.00173 h 492.0031 c 10.87324,0 21.30243,-4.3185 28.99131,-12.00837 7.68888,-7.68888 12.00837,-18.11707 12.00837,-28.99131 V 41.99895 c 0,-10.87424 -4.31949,-21.30243 -12.00837,-28.99131 C 555.30348,5.31777 544.87429,0.99827 534.00105,0.99827 H 41.99895 c -10.87425,0 -21.30244,4.3195 -28.99131,12.00837 C 5.31776,20.69552 0.99827,31.12471 0.99827,41.99895 v 492.0031 c 0,10.87424 4.31949,21.30243 12.00837,28.99131 7.68888,7.68888 18.11806,12.00837 28.99231,12.00837 z"
   id="path6-1"
   inkscape:connector-curvature="0"
   style="fill:#ffffff;stroke:#000000;stroke-width:1.99654019;stroke-linecap:round;stroke-linejoin:round;stroke-miterlimit:4;stroke-dasharray:none" /><polygon
   points="538.362,36.576 538.362,36.576 36.576,36.576 36.576,36.576 36.576,538.362 538.362,538.362 538.362,538.362 "
   id="polygon8-7"
   transform="matrix(1.0001141,0,0,1.0001141,0.49819979,0.49819979)"
   style="fill:#0000ff;stroke:#0000ff;stroke-width:0.17640001;stroke-linecap:round;stroke-linejoin:round" /><rect
   x="89.270325"
   y="89.270325"
   width="397.45935"
   height="397.45935"
   id="rect10-4"
   style="fill:#ffffff;stroke:#0000ff;stroke-width:0.17642012;stroke-linecap:round;stroke-linejoin:round" /><g
   id="g3019"
   transform="translate(2.1189957,-23.847)"><g
     id="g9">
	<rect
   id="rect11"
   height="296"
   width="393.23801"
   style="fill:none"
   y="164.5"
   x="89.262001" />
	<path
   id="path13"
   d="m 257.9,164.694 v 17.273 h -39.023 v 20.625 h 28.591 v 17.531 h -28.591 l -0.064,39.059 h -18.159 l 0.064,-94.488 H 257.9 z"
   style="stroke:#000000;stroke-width:3;stroke-miterlimit:10"
   inkscape:connector-curvature="0" />
	<path
   id="path15"
   d="m 283.274,164.694 h 24.277 l 18.996,50.08 19.447,-50.08 h 24.213 v 94.617 h -17.966 v -59.748 l -23.505,59.748 h -4.7 l -23.312,-59.232 0.193,59.232 h -17.645 v -94.617 z"
   style="stroke:#000000;stroke-width:3;stroke-miterlimit:10"
   inkscape:connector-curvature="0" />
	<path
   id="path17"
   d="m 168.481,323.03 v 94.682 h -17.966 l 0.064,-66.838 h -0.258 c -0.128,0.559 -1.674,1.783 -4.636,3.674 l -5.603,2.965 -5.022,1.934 c -2.019,0.43 -3.113,0.752 -3.284,0.967 v -19.98 l 3.992,-1.869 c 6.654,-4.254 11.44,-9.432 14.36,-15.533 h 18.353 z"
   style="stroke:#000000;stroke-width:3;stroke-miterlimit:10"
   inkscape:connector-curvature="0" />
	<path
   id="path19"
   d="m 202.116,380.457 c -0.129,-2.406 -0.193,-4.77 -0.193,-7.09 0,-1.16 0.021,-2.32 0.064,-3.48 0.129,-4.554 0.493,-8.98 1.095,-13.277 v -0.451 l 0.257,-0.58 0.451,-4.447 0.322,-0.645 0.644,-3.609 0.257,-0.387 c 0.644,-3.094 2.039,-6.574 4.186,-10.441 l 1.868,-2.836 3.606,-3.674 c 3.821,-3.094 8.779,-5.307 14.875,-6.639 1.932,-0.344 3.928,-0.516 5.989,-0.516 h 0.515 c 3.22,0.087 6.589,0.623 10.11,1.611 1.459,0.172 3.799,1.139 7.019,2.9 3.306,2.063 6.311,4.877 9.016,8.443 l 2.061,3.158 1.674,3.545 0.708,2.578 0.193,0.193 v 0.645 c 0.429,0.902 0.686,1.611 0.773,2.127 l 0.257,0.322 1.095,5.736 0.193,0.129 -0.129,0.838 0.258,0.516 0.644,6.896 0.258,0.645 -0.193,0.064 0.451,4.061 -0.128,0.129 c 0.171,0.43 0.171,0.688 0,0.773 l 0.193,0.645 -0.128,0.193 0.322,4.383 -0.129,0.129 0.193,1.869 -0.064,0.129 v 2.578 c -0.043,1.59 -0.172,3.503 -0.386,5.736 l -0.322,2.385 0.129,0.129 -0.322,0.645 c -0.129,1.59 -0.494,3.48 -1.095,5.672 l -0.387,1.225 -0.064,0.709 -1.674,4.77 -0.322,0.258 c 0,0.43 -0.558,1.74 -1.674,3.932 l -3.091,4.447 c -3.392,3.91 -7.148,6.768 -11.269,8.572 -2.705,1.074 -5.432,1.782 -8.178,2.127 l -4.958,0.322 -1.159,-0.064 c -9.788,-0.258 -17.688,-3.438 -23.697,-9.539 -2.962,-3.309 -5.195,-7.154 -6.697,-11.537 -1.717,-4.469 -2.769,-9.174 -3.155,-14.115 l -0.262,-2.837 z m 32.068,19.465 c 2.662,0.172 4.314,0.129 4.958,-0.129 l 0.064,0.129 3.542,-0.773 c 2.833,-0.944 5,-2.986 6.504,-6.123 1.159,-3.136 2.017,-6.874 2.576,-11.215 l 0.322,-14.566 -0.193,-6.832 -0.644,-5.092 -0.258,-0.258 -0.837,-3.609 -0.258,-0.129 c -0.644,-2.578 -1.867,-4.963 -3.67,-7.154 -1.375,-1.117 -2.469,-1.847 -3.284,-2.191 l -3.735,-0.902 -3.928,-0.193 c -1.761,-0.042 -3.714,0.322 -5.86,1.096 -1.975,0.945 -3.628,2.643 -4.958,5.092 -0.945,2.278 -1.803,5.135 -2.576,8.572 l 0.129,0.387 c -0.258,0.216 -0.409,0.925 -0.451,2.127 -0.602,5.027 -0.667,12.397 -0.193,22.107 l 1.03,7.025 1.352,4.963 c 0.987,2.578 2.339,4.447 4.057,5.607 1.546,0.988 3.649,1.674 6.311,2.061 z"
   style="stroke:#000000;stroke-width:3;stroke-miterlimit:10"
   inkscape:connector-curvature="0" />
	<path
   id="path21"
   d="m 348.763,322.965 v 19.852 c -9.316,9.195 -17.216,22.494 -23.697,39.896 -3.992,12.504 -5.839,24.17 -5.538,34.998 H 300.08 c -0.086,-25.266 8.393,-50.424 25.437,-75.475 h -36.126 v -19.271 h 59.372 z"
   style="stroke:#000000;stroke-width:3;stroke-miterlimit:10"
   inkscape:connector-curvature="0" />
	<path
   id="path23"
   d="m 349.04,398.246 h 19.318 v 19.465 H 349.04 v -19.465 z"
   style="stroke:#000000;stroke-width:3;stroke-miterlimit:10"
   inkscape:connector-curvature="0" />
	<path
   id="path25"
   d="m 451.255,322.965 v 19.852 c -9.316,9.195 -17.216,22.494 -23.697,39.896 -3.993,12.504 -5.839,24.17 -5.538,34.998 h -19.447 c -0.087,-25.266 8.393,-50.424 25.436,-75.475 h -36.125 v -19.271 h 59.371 z"
   style="stroke:#000000;stroke-width:3;stroke-miterlimit:10"
   inkscape:connector-curvature="0" />
</g></g>
</svg>