<?xml version="1.0" encoding="UTF-8" standalone="no"?>
<!-- Generator: Adobe Illustrator 15.0.0, SVG Export Plug-In  -->

<svg
   xmlns:dc="http://purl.org/dc/elements/1.1/"
   xmlns:cc="http://creativecommons.org/ns#"
   xmlns:rdf="http://www.w3.org/1999/02/22-rdf-syntax-ns#"
   xmlns:svg="http://www.w3.org/2000/svg"
   xmlns="http://www.w3.org/2000/svg"
   xmlns:sodipodi="http://sodipodi.sourceforge.net/DTD/sodipodi-0.dtd"
   xmlns:inkscape="http://www.inkscape.org/namespaces/inkscape"
   version="1.1"
   x="0px"
   y="0px"
   width="575.99994"
   height="576"
   viewBox="-0.031 -0.031 575.99994 576"
   enable-background="new -0.031 -0.031 576 567"
   xml:space="preserve"
   id="svg2"
   inkscape:version="0.48.1 "
   sodipodi:docname="CE23.svg"
   inkscape:export-filename="C:\Documents and Settings\bertrand.bouteilles\Bureau\Panneaux\A - Route\6_services\CE23.png"
   inkscape:export-xdpi="150"
   inkscape:export-ydpi="150"><metadata
   id="metadata26"><rdf:RDF><cc:Work
       rdf:about=""><dc:format>image/svg+xml</dc:format><dc:type
         rdf:resource="http://purl.org/dc/dcmitype/StillImage" /><dc:title></dc:title></cc:Work></rdf:RDF></metadata><sodipodi:namedview
   pagecolor="#ffffff"
   bordercolor="#666666"
   borderopacity="1"
   objecttolerance="10"
   gridtolerance="10"
   guidetolerance="10"
   inkscape:pageopacity="0"
   inkscape:pageshadow="2"
   inkscape:window-width="1280"
   inkscape:window-height="964"
   id="namedview24"
   showgrid="false"
   fit-margin-top="0"
   fit-margin-left="0"
   fit-margin-right="0"
   fit-margin-bottom="0"
   inkscape:zoom="0.51675485"
   inkscape:cx="-104.8362"
   inkscape:cy="288"
   inkscape:window-x="-4"
   inkscape:window-y="-4"
   inkscape:window-maximized="1"
   inkscape:current-layer="svg2" />
<defs
   id="defs4">
</defs>








<path
   d="m 41.96795,574.97073 h 492.00314 c 10.8732,0 21.3024,-4.3185 28.9913,-12.00837 7.6888,-7.68888 12.0083,-18.11707 12.0083,-28.99131 V 41.96794 c 0,-10.87424 -4.3195,-21.30243 -12.0083,-28.99131 -7.6899,-7.6898699 -18.1191,-12.00935991 -28.9923,-12.00935991 H 41.96795 C 31.0937,0.96727009 20.66551,5.2867601 12.97664,12.97563 5.2867601,20.66451 0.96727009,31.0937 0.96727009,41.96794 v 492.00311 c 0,10.87424 4.31949001,21.30243 12.00836991,28.99131 7.68888,7.68888 18.11806,12.00837 28.99231,12.00837 z"
   id="path6-1"
   inkscape:connector-curvature="0"
   style="fill:#ffffff;stroke:#000000;stroke-width:1.99654019;stroke-linecap:round;stroke-linejoin:round;stroke-miterlimit:4;stroke-dasharray:none" /><polygon
   points="538.362,36.576 538.362,36.576 36.576,36.576 36.576,36.576 36.576,538.362 538.362,538.362 538.362,538.362 "
   id="polygon8-7"
   transform="matrix(1.0001141,0,0,1.0001141,0.46717988,0.46719989)"
   style="fill:#0000ff;stroke:#0000ff;stroke-width:0.17640001;stroke-linecap:round;stroke-linejoin:round" /><rect
   x="89.239304"
   y="89.239326"
   width="397.45935"
   height="397.45935"
   id="rect10-4"
   style="fill:#ffffff;stroke:#0000ff;stroke-width:0.17642012;stroke-linecap:round;stroke-linejoin:round" /><g
   id="g3003"
   transform="translate(0.10698009,6.874503)"><path
     id="path12"
     d="m 454.719,339.219 c 0,0 -8.5,-25.5 -12.25,-36.75 -3.75,-11.25 -14.5,-30.5 -14.5,-30.5 l -12.75,-16.25 -35.581,19.606 -0.046,-0.103 -1.888,0.967 -47.542,24.359 0.016,0.035 c -1.03,0.496 -1.998,1.158 -2.848,2.013 -4.091,4.111 -4,10.832 0.202,15.012 3.122,3.106 7.634,3.93 11.426,2.465 l 0.055,0.119 47.831,-24.508 14.625,25.535 53.25,18 z"
     inkscape:connector-curvature="0" /><ellipse
     id="ellipse14"
     ry="22.625"
     rx="21.875"
     cy="236.34399"
     cx="390.84399"
     sodipodi:cx="390.84399"
     sodipodi:cy="236.34399"
     sodipodi:rx="21.875"
     sodipodi:ry="22.625"
     d="m 412.71899,236.34399 c 0,12.49545 -9.79377,22.625 -21.875,22.625 -12.08122,0 -21.875,-10.12955 -21.875,-22.625 0,-12.49544 9.79378,-22.625 21.875,-22.625 12.08123,0 21.875,10.12956 21.875,22.625 z" /><ellipse
     id="ellipse16"
     ry="22.625"
     rx="21.875"
     cy="195.84399"
     cx="249.84399"
     sodipodi:cx="249.84399"
     sodipodi:cy="195.84399"
     sodipodi:rx="21.875"
     sodipodi:ry="22.625"
     d="m 271.71899,195.84399 c 0,12.49545 -9.79377,22.625 -21.875,22.625 -12.08122,0 -21.875,-10.12955 -21.875,-22.625 0,-12.49544 9.79378,-22.625 21.875,-22.625 12.08123,0 21.875,10.12956 21.875,22.625 z" /><path
     id="path18"
     d="m 258.101,278.74 0.118,-0.056 -26.339,-48.898 -18.661,-38.067 -18.5,6.25 c 0,0 -19.5,10.25 -25.25,13.5 -5.75,3.25 -17,10.75 -21.75,13.75 -4.75,3 -14.75,8.75 -14.75,8.75 l 53.25,19.75 27.22,-12.796 25.324,47.014 0.035,-0.017 c 0.516,1.02 1.199,1.973 2.07,2.805 4.195,4.006 10.912,3.776 15.004,-0.511 3.041,-3.186 3.773,-7.713 2.229,-11.474 z"
     inkscape:connector-curvature="0" /><path
     id="path20"
     d="m 439.219,359.719 13.75,-12.5 -91.75,-29.5 -3,0.75 -2.25,3.75 -0.944,8.264 -0.832,2.36 -130.874,-43.194 1.678,-4.761 -0.32,-0.113 0.293,-0.806 -0.25,-3.25 -1,-2.5 -1,-3.25 -93,-35.25 -1.25,0.5 0.5,14.25 3.454,5.18 -7.426,-2.451 -3.993,12.098 76.121,25.124 -12.545,35.601 0.039,0.014 c -0.414,1.077 -0.649,2.229 -0.649,3.435 0,5.8 5.205,10.5 11.625,10.5 4.771,0 8.866,-2.598 10.658,-6.312 l 0.133,0.047 12.699,-36.037 130.874,43.194 -10.628,30.159 0.039,0.014 c -0.413,1.077 -0.649,2.229 -0.649,3.435 0,5.8 5.205,10.5 11.625,10.5 4.771,0 8.866,-2.598 10.658,-6.312 l 0.133,0.047 10.781,-30.596 71.114,23.471 1.257,-3.809 3.182,-8.552 -8.253,-3.5 z"
     inkscape:connector-curvature="0" /><polygon
     id="polygon22"
     points="241.417,388.469 278.094,388.469 314.77,388.469 296.432,361.594 278.094,334.719 259.756,361.594 " /></g>
</svg>