<?xml version="1.0" encoding="UTF-8" standalone="no"?>
<!-- Generator: Adobe Illustrator 15.0.0, SVG Export Plug-In  -->

<svg
   xmlns:dc="http://purl.org/dc/elements/1.1/"
   xmlns:cc="http://creativecommons.org/ns#"
   xmlns:rdf="http://www.w3.org/1999/02/22-rdf-syntax-ns#"
   xmlns:svg="http://www.w3.org/2000/svg"
   xmlns="http://www.w3.org/2000/svg"
   xmlns:sodipodi="http://sodipodi.sourceforge.net/DTD/sodipodi-0.dtd"
   xmlns:inkscape="http://www.inkscape.org/namespaces/inkscape"
   version="1.1"
   x="0px"
   y="0px"
   width="576"
   height="576"
   viewBox="-0.031 -0.031 576 576"
   enable-background="new -0.031 -0.031 576 567"
   xml:space="preserve"
   id="svg2"
   inkscape:version="0.48.1 "
   sodipodi:docname="CE24.svg"
   inkscape:export-filename="C:\Documents and Settings\bertrand.bouteilles\Bureau\Panneaux\A - Route\6_services\CE24.png"
   inkscape:export-xdpi="150"
   inkscape:export-ydpi="150"><metadata
   id="metadata36"><rdf:RDF><cc:Work
       rdf:about=""><dc:format>image/svg+xml</dc:format><dc:type
         rdf:resource="http://purl.org/dc/dcmitype/StillImage" /><dc:title></dc:title></cc:Work></rdf:RDF></metadata><sodipodi:namedview
   pagecolor="#ffffff"
   bordercolor="#666666"
   borderopacity="1"
   objecttolerance="10"
   gridtolerance="10"
   guidetolerance="10"
   inkscape:pageopacity="0"
   inkscape:pageshadow="2"
   inkscape:window-width="1280"
   inkscape:window-height="964"
   id="namedview34"
   showgrid="false"
   fit-margin-top="0"
   fit-margin-left="0"
   fit-margin-right="0"
   fit-margin-bottom="0"
   inkscape:zoom="1.953125"
   inkscape:cx="288"
   inkscape:cy="287.99975"
   inkscape:window-x="-4"
   inkscape:window-y="-4"
   inkscape:window-maximized="1"
   inkscape:current-layer="svg2" />
<defs
   id="defs4">
</defs>













<path
   d="m 41.9682,574.97098 h 492.00308 c 10.8733,0 21.3024,-4.3185 28.9913,-12.00837 7.6889,-7.68888 12.0084,-18.11707 12.0084,-28.99131 V 41.9682 c 0,-10.87424 -4.3195,-21.30243 -12.0084,-28.99131 -7.6899,-7.68987 -18.119,-12.00937 -28.9923,-12.00937 H 41.9682 c -10.87425,0 -21.30244,4.3195 -28.99131,12.00837 C 5.28701,20.66477 0.96752,31.09396 0.96752,41.9682 v 492.0031 c 0,10.87424 4.31949,21.30243 12.00837,28.99131 7.68888,7.68888 18.11806,12.00837 28.99231,12.00837 z"
   id="path6-1"
   inkscape:connector-curvature="0"
   style="fill:#ffffff;stroke:#000000;stroke-width:1.99654019;stroke-linecap:round;stroke-linejoin:round;stroke-miterlimit:4;stroke-dasharray:none" /><polygon
   points="538.362,36.576 538.362,36.576 36.576,36.576 36.576,36.576 36.576,538.362 538.362,538.362 538.362,538.362 "
   id="polygon8-7"
   transform="matrix(1.0001141,0,0,1.0001141,0.46744979,0.4674498)"
   style="fill:#0000ff;stroke:#0000ff;stroke-width:0.17640001;stroke-linecap:round;stroke-linejoin:round" /><rect
   x="89.239578"
   y="89.239578"
   width="397.45935"
   height="397.45935"
   id="rect10-4"
   style="fill:#ffffff;stroke:#0000ff;stroke-width:0.17642012;stroke-linecap:round;stroke-linejoin:round" /><g
   id="g3013"
   transform="translate(4.66675,6.50025)"><path
     id="path12"
     d="m 451.636,264.813 v -85.511 -24 -1.333 h -0.088 c -0.749,-5.999 -6.477,-10.667 -13.436,-10.667 H 156.495 l -21.526,32.667 11.054,15.333 h 110.279 v 121.333 h 73.566 c 2.046,17.999 17.724,32 36.769,32 19.043,0 34.721,-14.001 36.767,-32 h 34.848 l 13.384,-47.822 z"
     inkscape:connector-curvature="0" /><path
     id="path14"
     d="m 174.662,200.636 -40.72,58.064 -0.639,0.911 v 0.337 l -18.334,25.521 18.334,26.834 h 21.164 c 1.73,18.318 17.558,32.666 36.836,32.666 19.278,0 35.105,-14.348 36.835,-32.666 h 19.164 V 200.636 h -72.64 z"
     inkscape:connector-curvature="0" /><ellipse
     id="ellipse16"
     ry="22.167"
     rx="21"
     cy="303.802"
     cx="192.302"
     sodipodi:cx="192.302"
     sodipodi:cy="303.802"
     sodipodi:rx="21"
     sodipodi:ry="22.167"
     style="fill:#ffffff"
     d="m 213.302,303.802 c 0,12.2425 -9.40202,22.167 -21,22.167 -11.59798,0 -21,-9.9245 -21,-22.167 0,-12.24249 9.40202,-22.167 21,-22.167 11.59798,0 21,9.92451 21,22.167 z" /><ellipse
     id="ellipse18"
     ry="20.125"
     rx="19.708"
     cy="278.09299"
     cx="284.76001"
     sodipodi:cx="284.76001"
     sodipodi:cy="278.09299"
     sodipodi:rx="19.708"
     sodipodi:ry="20.125"
     style="fill:#ffffff"
     d="m 304.46801,278.09299 c 0,11.11473 -8.82357,20.125 -19.708,20.125 -10.88443,0 -19.708,-9.01027 -19.708,-20.125 0,-11.11473 8.82357,-20.125 19.708,-20.125 10.88443,0 19.708,9.01027 19.708,20.125 z" /><path
     id="path20"
     d="m 344.864,299.969 c -0.363,1.633 -0.562,3.333 -0.562,5.083 0,12.243 9.401,22.167 21,22.167 11.598,0 21,-9.924 21,-22.167 0,-1.75 -0.198,-3.45 -0.562,-5.083 h -40.876 z"
     inkscape:connector-curvature="0"
     style="fill:#ffffff" /><polygon
     id="polygon22"
     points="152.078,248.969 236.469,248.969 236.469,209.719 179.588,209.719 "
     style="fill:#ffffff" /><rect
     id="rect24"
     height="53.5"
     width="109.75"
     y="182.71899"
     x="317.46899"
     style="fill:#ffffff" /><path
     id="path26"
     d="m 325.03,368.598 c -2.967,-5.363 -15.293,-8.467 -21.378,-7.248 -5.071,1.018 -8.114,4.496 -12.083,6.296 l -3.438,0.952 c -8.906,1.933 -11.858,-5.507 -19.58,-7.075 -5.58,-1.133 -16.477,1.471 -20.333,6.151 v 8.002 c 3.677,-4.83 14.846,-7.541 20.521,-6.389 7.722,1.568 10.673,9.008 19.579,7.074 l 3.439,-0.951 c 3.969,-1.799 7.012,-5.278 12.083,-6.296 6.085,-1.219 18.411,1.885 21.378,7.247 l -0.188,-7.763 z"
     inkscape:connector-curvature="0"
     style="stroke:#000000;stroke-linecap:round;stroke-linejoin:round" /><path
     id="path28"
     d="m 324.53,388.348 c -2.967,-5.363 -15.293,-8.467 -21.378,-7.248 -5.071,1.018 -8.114,4.496 -12.083,6.296 l -3.438,0.952 c -8.906,1.933 -11.858,-5.507 -19.58,-7.075 -5.58,-1.133 -16.477,1.471 -20.333,6.151 v 8.002 c 3.677,-4.83 14.846,-7.541 20.521,-6.389 7.722,1.568 10.673,9.008 19.579,7.074 l 3.439,-0.951 c 3.969,-1.799 7.012,-5.278 12.083,-6.296 6.085,-1.219 18.411,1.885 21.378,7.247 l -0.188,-7.763 z"
     inkscape:connector-curvature="0"
     style="stroke:#000000;stroke-linecap:round;stroke-linejoin:round" /><polygon
     id="polygon30"
     points="236.219,409.386 236.219,359.469 236.219,349.302 236.219,349.219 141.219,349.219 141.219,359.469 225.719,359.469 225.719,419.469 225.885,419.469 225.885,419.636 348.718,419.636 348.718,419.387 348.719,419.387 348.719,359.469 433.219,359.469 433.219,349.219 338.219,349.219 338.219,349.22 338.219,359.469 338.219,409.386 " /><polygon
     id="polygon32"
     points="256.501,319.47 286.303,319.47 316.104,319.47 301.203,339.969 286.303,360.47 271.402,339.969 " /></g>
</svg>