<?xml version="1.0" encoding="UTF-8" standalone="no"?>
<!-- Generator: Adobe Illustrator 15.0.0, SVG Export Plug-In  -->

<svg
   xmlns:dc="http://purl.org/dc/elements/1.1/"
   xmlns:cc="http://creativecommons.org/ns#"
   xmlns:rdf="http://www.w3.org/1999/02/22-rdf-syntax-ns#"
   xmlns:svg="http://www.w3.org/2000/svg"
   xmlns="http://www.w3.org/2000/svg"
   xmlns:sodipodi="http://sodipodi.sourceforge.net/DTD/sodipodi-0.dtd"
   xmlns:inkscape="http://www.inkscape.org/namespaces/inkscape"
   version="1.1"
   x="0px"
   y="0px"
   width="576"
   height="576"
   viewBox="-0.031 -0.031 576 576"
   enable-background="new -0.031 -0.031 576 567"
   xml:space="preserve"
   id="svg2"
   inkscape:version="0.48.1 "
   sodipodi:docname="CE25.svg"
   inkscape:export-filename="C:\Documents and Settings\bertrand.bouteilles\Bureau\Panneaux\A - Route\6_services\CE25.png"
   inkscape:export-xdpi="150"
   inkscape:export-ydpi="150"><metadata
   id="metadata42"><rdf:RDF><cc:Work
       rdf:about=""><dc:format>image/svg+xml</dc:format><dc:type
         rdf:resource="http://purl.org/dc/dcmitype/StillImage" /><dc:title></dc:title></cc:Work></rdf:RDF></metadata><sodipodi:namedview
   pagecolor="#ffffff"
   bordercolor="#666666"
   borderopacity="1"
   objecttolerance="10"
   gridtolerance="10"
   guidetolerance="10"
   inkscape:pageopacity="0"
   inkscape:pageshadow="2"
   inkscape:window-width="1280"
   inkscape:window-height="964"
   id="namedview40"
   showgrid="false"
   fit-margin-top="0"
   fit-margin-left="0"
   fit-margin-right="0"
   fit-margin-bottom="0"
   inkscape:zoom="0.51675485"
   inkscape:cx="-104.83593"
   inkscape:cy="287.99975"
   inkscape:window-x="-4"
   inkscape:window-y="-4"
   inkscape:window-maximized="1"
   inkscape:current-layer="svg2" />
<defs
   id="defs4">
</defs>
















<path
   d="M 41.968215,574.97098 H 533.97136 c 10.8732,0 21.3024,-4.3185 28.9913,-12.00837 7.6888,-7.68888 12.0083,-18.11707 12.0083,-28.99131 V 41.96819 c 0,-10.87424 -4.3195,-21.30242 -12.0083,-28.9913 -7.6899,-7.68988 -18.1191,-12.00937 -28.9923,-12.00937 H 41.968215 c -10.87425,0 -21.30244,4.31949 -28.99131,12.00837 -7.68988,7.68887 -12.00937,18.11806 -12.00937,28.9923 V 533.9713 c 0,10.87424 4.31949,21.30243 12.00837,28.99131 7.68888,7.68888 18.11806,12.00837 28.99231,12.00837 z"
   id="path6-1"
   inkscape:connector-curvature="0"
   style="fill:#ffffff;stroke:#000000;stroke-width:1.99654019;stroke-linecap:round;stroke-linejoin:round;stroke-miterlimit:4;stroke-dasharray:none" /><polygon
   points="538.362,36.576 538.362,36.576 36.576,36.576 36.576,36.576 36.576,538.362 538.362,538.362 538.362,538.362 "
   id="polygon8-7"
   transform="matrix(1.0001141,0,0,1.0001141,0.46744979,0.4674498)"
   style="fill:#0000ff;stroke:#0000ff;stroke-width:0.17640001;stroke-linecap:round;stroke-linejoin:round" /><rect
   x="89.239578"
   y="89.239578"
   width="397.45935"
   height="397.45935"
   id="rect10-4"
   style="fill:#ffffff;stroke:#0000ff;stroke-width:0.17642012;stroke-linecap:round;stroke-linejoin:round" /><g
   id="g3019"
   transform="translate(2.00025,4.25025)"><path
     id="path12"
     d="m 401.719,239.969 c 0,6.627 -5.373,12 -12,12 h -207.25 c -6.627,0 -12,-5.373 -12,-12 v -120 c 0,-6.627 5.373,-12 12,-12 h 207.25 c 6.627,0 12,5.373 12,12 v 120 z"
     inkscape:connector-curvature="0" /><path
     id="path14"
     d="m 382.869,402.401 c -31.495,9.544 -63.165,20.043 -96.358,24.06 -34.024,4.118 -72.251,5.78 -106.592,6.613 l -9.45,-83.105 c 32.7,3.729 66.852,8.587 99.845,4.878 35.899,-4.034 68.857,-12.554 101.732,-25.772 0,0 0.451,8.673 0.902,17.346 0.45,8.674 3.157,20.501 5.861,34.299 2.707,13.798 4.06,21.681 4.06,21.681 z"
     inkscape:connector-curvature="0"
     style="fill:none;stroke:#999999;stroke-width:3;stroke-linecap:round;stroke-linejoin:round" /><path
     id="path16"
     d="m 188.219,343.719 2.014,-25.25 c 0,0 18.125,7.521 45.314,12.894 27.188,5.372 60.922,11.819 60.922,11.819"
     inkscape:connector-curvature="0"
     style="fill:none;stroke:#000000;stroke-width:3;stroke-linecap:round;stroke-linejoin:round" /><path
     id="path18"
     d="m 387.469,356.969 25,3 c 0,0 -5,13 -8,30 -3,17 -7.5,31 -9,48.5 -1.5,17.5 -1,19.5 -1,19.5 0,0 -43,-10 -65,-13 -22,-3 -43,-5.5 -43,-5.5"
     inkscape:connector-curvature="0"
     style="fill:none;stroke:#000000;stroke-width:3;stroke-linecap:round;stroke-linejoin:round" /><path
     id="path20"
     d="m 246.59,411.874 c 1.379,1.095 3.379,3.095 2.379,5.095 -3,5 -9,8 -13.821,7.324 -2.251,0.271 -4.539,0.319 -6.845,0.266 -6.917,-0.159 -13.999,-1.229 -20.664,0.133 -2.611,0.222 -5.17,0.61 -7.67,1.277 0.333,-2.667 0.974,-5.139 1.856,-7.468 2.072,-7.767 8.357,-13.399 13.75,-19.216 1.798,-1.938 3.496,-3.898 4.906,-5.963 2.487,-5.354 4.487,-9.354 3.487,-14.354 0,-2 -1.75,-3.5 -4,-4.125 -2.25,-0.625 -5,-0.375 -7,1.125 -4,4 -10,16 -15,7 -4,-6 4,-12 10,-16 5,-2.5 10.75,-3.25 15.875,-2.25 2.563,0.5 4.97,1.438 7.054,2.814 17.071,11.436 3.071,30.436 -7.196,40.412 -1.761,2.023 -3.4,4.023 -4.733,6.023 4,0 7.75,-0.5 11.52,-0.983 3.77,-0.484 7.589,-0.943 11.662,-0.881 2.653,-0.143 4.44,-0.229 4.44,-0.229 z"
     inkscape:connector-curvature="0" /><path
     id="path22"
     d="m 272.821,363.189 c 10.147,-1.221 18.147,3.779 22.147,12.779 5,12 8,27 -1,38 -10,13 -32,7 -38,-8 -5,-13 -11,-36 7.519,-40.835 2.746,-1.04 5.867,-1.682 9.334,-1.944 z m 0.81,8.614 c -6.662,2.166 -9.662,10.166 -8.662,16.166 2,10 8,29 17,22 10,-8 6,-26 -3.914,-37.347 -1.328,-0.689 -2.801,-0.961 -4.424,-0.819 z"
     inkscape:connector-curvature="0" /><path
     id="path24"
     d="m 373.303,383.969 c -4.881,14.271 -20.989,14.112 -28.809,4.832 1.62,-0.607 3.311,-1.175 5.142,-1.498 5.667,-1 15.667,-6 15.667,-6 l -0.667,-6.334 c 0,0 -4.667,2.667 -13.333,5.667 -7.333,2.539 -5.361,2.213 -9.832,3.063 -0.567,-1.459 -0.969,-3.037 -1.168,-4.729 1.697,-0.435 3.528,-0.993 5.666,-1.668 6.333,-2 19,-8.667 19,-8.667 l 0.334,-8 c 0,0 -9.667,4.333 -19,8 -1.691,0.665 -3.597,1.271 -5.58,1.824 2.637,-11.919 13.693,-20.44 26.58,-15.491 l -0.667,-12.666 c -14.558,3.449 -30.19,6.223 -35.493,23.879 -0.71,2.363 -1.226,4.618 -1.575,6.772 -3.446,0.62 -6.382,1.035 -7.989,1.227 -0.686,0.081 -1.132,0.122 -1.275,0.122 l 1.333,4.333 c 0,0 2.944,0.801 7.389,1.207 0.023,1.998 0.214,3.881 0.563,5.642 -3.543,0.271 -5.619,0.151 -5.619,0.151 l 0.667,5.333 c 0,0 3.054,10e-4 6.772,0.16 6.689,14.419 26.252,17.245 43.561,6.489 l -1.667,-13.648 z"
     inkscape:connector-curvature="0" /><path
     id="path26"
     d="m 194.969,345.219 2.75,-17 c 0,0 20,6.5 34,9.25 14,2.75 43.75,9 43.75,9"
     inkscape:connector-curvature="0"
     style="fill:none;stroke:#999999;stroke-width:3;stroke-linecap:round;stroke-linejoin:round" /><path
     id="path28"
     d="m 312.219,433.969 c 0,0 19.5,2.25 39.75,6 20.25,3.75 34.75,8.75 34.75,8.75 0,0 -0.25,-11.25 4,-28 4.25,-16.75 6.25,-32 9.25,-41.75 3,-9.75 4.75,-12.25 4.75,-12.25 l -15.75,-1"
     inkscape:connector-curvature="0"
     style="fill:none;stroke:#999999;stroke-width:3;stroke-linecap:round;stroke-linejoin:round" /><path
     id="path30"
     d="m 394.969,407.469 c -34.92,12.105 -70.034,25.42 -106.837,30.516 -37.726,5.224 -76.087,5.427 -114.163,6.484 l -14.5,-103.5 c 36.256,4.729 74.123,10.892 110.704,6.188 39.804,-5.118 76.346,-15.922 112.796,-32.688 0,0 0.5,11 1,22 0.5,11 3.5,26 6.5,43.5 3,17.5 4.5,27.5 4.5,27.5 z"
     inkscape:connector-curvature="0"
     style="fill:none;stroke:#000000;stroke-width:3;stroke-linecap:round;stroke-linejoin:round" /><path
     id="path32"
     d="m 283.969,180.469 h -43 v -8 h 43 v -7.816 c 0.237,-1.025 0.375,-2.087 0.375,-3.184 0,-7.619 -6.037,-13.823 -13.625,-14.212 v -0.288 h -62 v 0.019 c -7.765,0.199 -14,6.487 -14,14.231 0,0.892 0.092,1.762 0.25,2.609 v 30.532 c -0.158,0.847 -0.25,1.717 -0.25,2.609 0,7.745 6.235,14.032 14,14.231 v 0.019 h 62 v -0.288 c 7.588,-0.389 13.625,-6.593 13.625,-14.212 0,-1.097 -0.138,-2.159 -0.375,-3.184 v -13.066 z"
     inkscape:connector-curvature="0"
     style="fill:#ffffff" /><path
     id="path34"
     d="m 377.969,159.594 c 0,-7.123 -5.676,-12.906 -12.75,-13.106 v -0.019 h -74.5 v 26.25 h 74.5 V 172.7 c 7.074,-0.2 12.75,-5.983 12.75,-13.106 z"
     inkscape:connector-curvature="0"
     style="fill:#ffffff" /><path
     id="path36"
     d="m 377.469,196.344 c 0,-8.073 -5.676,-14.626 -12.75,-14.854 v -0.021 h -74.5 v 29.75 h 74.5 v -0.021 c 7.074,-0.228 12.75,-6.781 12.75,-14.854 z"
     inkscape:connector-curvature="0"
     style="fill:#ffffff" /><polygon
     id="polygon38"
     points="248.917,269.469 284.844,269.469 320.77,269.469 302.807,289.344 284.844,309.219 266.881,289.344 " /></g>
</svg>