<?xml version="1.0" encoding="UTF-8" standalone="no"?>
<!-- Generator: Adobe Illustrator 15.0.0, SVG Export Plug-In  -->

<svg
   xmlns:dc="http://purl.org/dc/elements/1.1/"
   xmlns:cc="http://creativecommons.org/ns#"
   xmlns:rdf="http://www.w3.org/1999/02/22-rdf-syntax-ns#"
   xmlns:svg="http://www.w3.org/2000/svg"
   xmlns="http://www.w3.org/2000/svg"
   xmlns:sodipodi="http://sodipodi.sourceforge.net/DTD/sodipodi-0.dtd"
   xmlns:inkscape="http://www.inkscape.org/namespaces/inkscape"
   version="1.1"
   x="0px"
   y="0px"
   width="576"
   height="576"
   viewBox="-0.031 -0.031 576 576"
   enable-background="new -0.031 -0.031 576 567"
   xml:space="preserve"
   id="svg2"
   inkscape:version="0.48.1 "
   sodipodi:docname="CE26.svg"
   inkscape:export-filename="C:\Documents and Settings\bertrand.bouteilles\Bureau\Panneaux\A - Route\6_services\CE26.png"
   inkscape:export-xdpi="150"
   inkscape:export-ydpi="150"><metadata
   id="metadata32"><rdf:RDF><cc:Work
       rdf:about=""><dc:format>image/svg+xml</dc:format><dc:type
         rdf:resource="http://purl.org/dc/dcmitype/StillImage" /><dc:title></dc:title></cc:Work></rdf:RDF></metadata><sodipodi:namedview
   pagecolor="#ffffff"
   bordercolor="#666666"
   borderopacity="1"
   objecttolerance="10"
   gridtolerance="10"
   guidetolerance="10"
   inkscape:pageopacity="0"
   inkscape:pageshadow="2"
   inkscape:window-width="1280"
   inkscape:window-height="964"
   id="namedview30"
   showgrid="false"
   fit-margin-top="0"
   fit-margin-left="0"
   fit-margin-right="0"
   fit-margin-bottom="0"
   inkscape:zoom="0.36540086"
   inkscape:cx="-170.70462"
   inkscape:cy="195.41902"
   inkscape:window-x="-4"
   inkscape:window-y="-4"
   inkscape:window-maximized="1"
   inkscape:current-layer="svg2" />
<defs
   id="defs4">
</defs>



<path
   d="m 41.96795,574.97071 h 492.00308 c 10.8733,0 21.3025,-4.3185 28.9913,-12.0083 7.6889,-7.6889 12.0084,-18.1171 12.0084,-28.9913 V 41.96795 c 0,-10.87424 -4.3195,-21.30243 -12.0084,-28.99131 -7.6898,-7.6898799 -18.119,-12.00936991 -28.9923,-12.00936991 H 41.96795 C 31.0937,0.96727009 20.66551,5.2867601 12.97664,12.97564 5.2867601,20.66452 0.96727009,31.09371 0.96727009,41.96795 v 492.00316 c 0,10.8742 4.31949001,21.3024 12.00836991,28.99129 7.68888,7.6888 18.11806,12.0083 28.99231,12.0083 z"
   id="path6-1"
   inkscape:connector-curvature="0"
   style="fill:#ffffff;stroke:#000000;stroke-width:1.99654019;stroke-linecap:round;stroke-linejoin:round;stroke-miterlimit:4;stroke-dasharray:none" /><polygon
   points="538.362,36.576 538.362,36.576 36.576,36.576 36.576,36.576 36.576,538.362 538.362,538.362 538.362,538.362 "
   id="polygon8-7"
   transform="matrix(1.0001141,0,0,1.0001141,0.46719988,0.46718489)"
   style="fill:#0000ff;stroke:#0000ff;stroke-width:0.17640001;stroke-linecap:round;stroke-linejoin:round" /><rect
   x="89.239326"
   y="89.239311"
   width="397.45935"
   height="397.45935"
   id="rect10-4"
   style="fill:#ffffff;stroke:#0000ff;stroke-width:0.17642012;stroke-linecap:round;stroke-linejoin:round" />







<g
   id="g3020"
   transform="translate(3.5420001,9.9999851)"><path
     id="path12"
     d="m 415.636,276.636 c 0,77.427 -25.996,141.547 -59.923,152.875 l 26.151,-0.812 c 30.124,-16.72 52.438,-77.111 52.438,-149.063 0,-84.868 -31.042,-153.667 -69.332,-153.667 -1.203,0 -2.399,0.068 -3.588,0.203 31.111,16.197 54.254,77.411 54.254,150.464 z"
     inkscape:connector-curvature="0" /><path
     id="path14"
     d="m 358.222,127.777 -36.508,-1.711 c 32.86,12.114 57.922,75.653 57.922,152.236 0,72.244 -22.301,132.884 -52.412,149.696 3.608,1.29 7.309,1.971 11.08,1.971 38.29,0 69.332,-69.097 69.332,-154.333 0,-69.823 -20.833,-128.806 -49.414,-147.859 z"
     inkscape:connector-curvature="0" /><path
     id="path16"
     d="m 389.97,128.636 c -0.045,0 -0.089,0.003 -0.134,0.003 31.497,14.651 55.132,75.938 55.132,149.329 0,71.167 -22.221,130.958 -52.286,147.877 37.216,-3.041 66.953,-68.375 66.953,-148.544 0,-82.105 -31.192,-148.665 -69.665,-148.665 z"
     inkscape:connector-curvature="0" /><path
     id="path18"
     d="m 306.303,132.635 c -34.241,0 -62,64.173 -62,143.333 0,14.714 0.96,28.907 2.742,42.27 -5.916,3.962 -11.076,10.73 -11.076,10.73 0,0 -22,45.5 -25.5,50.5 -3.5,5 -7.5,5.5 -7.5,5.5 l -8.5,2.5 -6.5,-1.5 -3.5,-2.5 -4,-5 -2,-5.5 v -21 h -13.631 c -0.382,6.315 -1.288,25.911 1.631,33 3.5,8.5 10,12.5 13.5,15 3.444,2.46 13.67,3.946 24.954,3.04 l 10.503,-4.621 c 0.474,-0.959 0.93,-1.964 2.043,-2.919 3.5,-3 5.5,-6.5 5.5,-6.5 0,0 21,-43 25.5,-51 0.521,-0.927 0.992,-1.715 1.433,-2.409 9.784,49.413 31.358,83.743 56.401,83.743 34.24,0 62,-64.172 62,-143.334 0,-79.16 -27.76,-143.333 -62,-143.333 z m 11.666,203.834 -12,19 12.124,9.969 c -3.792,3.361 -7.873,5.197 -12.125,5.197 -13.066,0 -24.521,-17.281 -30.923,-43.214 0.142,0.016 0.281,0.035 0.424,0.048 5.5,0.5 10.5,6.5 10.5,6.5 l 13.5,10 9,-8.5 c 0,0 -4,-6.5 -10.5,-11.5 -6.5,-5 -11.5,-7.5 -21,-10.5 -1.666,-0.525 -3.298,-0.858 -4.902,-1.051 -1.569,-10.172 -2.432,-21.225 -2.432,-32.783 0,-50.257 16.268,-91 36.333,-91 20.067,0 36.334,40.742 36.334,91 0,26.158 -4.408,49.733 -11.463,66.333 l -12.87,-9.499 z"
     inkscape:connector-curvature="0" /><ellipse
     id="ellipse20"
     ry="51.200001"
     rx="50.400002"
     cy="206.71899"
     cx="172.21899"
     sodipodi:cx="172.21899"
     sodipodi:cy="206.71899"
     sodipodi:rx="50.400002"
     sodipodi:ry="51.200001"
     style="fill:none"
     d="m 222.619,206.71899 c 0,28.27698 -22.56485,51.2 -50.40001,51.2 -27.83515,0 -50.4,-22.92302 -50.4,-51.2 0,-28.27698 22.56485,-51.2 50.4,-51.2 27.83516,0 50.40001,22.92302 50.40001,51.2 z" /><path
     id="path22"
     d="m 235.219,206.719 c 0,-35.346 -28.206,-64 -63,-64 -34.794,0 -63,28.654 -63,64 0,26.321 15.646,48.921 38,58.751 v 71.249 h 51 v -71.708 c 21.817,-10.059 37,-32.367 37,-58.292 z m -63,51.2 c -27.835,0 -50.4,-22.923 -50.4,-51.2 0,-28.277 22.565,-51.2 50.4,-51.2 27.835,0 50.4,22.923 50.4,51.2 0,28.277 -22.565,51.2 -50.4,51.2 z"
     inkscape:connector-curvature="0" /><path
     id="path24"
     d="m 181.444,204.692 0.025,-0.223 -0.464,-0.464 c -0.57,-0.803 -1.282,-1.521 -2.116,-2.116 l -0.42,-0.42 -28,-32 -3.5,2 -1,3 1,3.5 16.012,30.293 c -0.002,0.069 -0.012,0.137 -0.012,0.207 0,4.695 4.365,8.5 9.75,8.5 5.385,0 9.75,-3.805 9.75,-8.5 0,-1.359 -0.375,-2.638 -1.025,-3.777 z"
     inkscape:connector-curvature="0" /><path
     id="path26"
     d="m 273.891,312.82 c -4.135,-0.645 -9.194,-0.492 -14.505,0.612 -5.456,1.136 -10.266,3.089 -13.832,5.411 l -1.132,-9.532 c 3.36,-2.333 7.956,-4.276 13.195,-5.367 5.197,-1.082 10.148,-1.142 14.143,-0.362"
     inkscape:connector-curvature="0"
     style="fill:#ffffff" /><path
     id="path28"
     d="m 278.451,330.752 c -1.662,-4.651 -9.76,-6.007 -18.09,-3.03 -8.329,2.974 -13.735,9.156 -12.073,13.807 0.096,0.268 0.213,0.524 0.35,0.771 l 2.983,8.063 c -1.662,-4.65 3.744,-10.833 12.073,-13.807 8.33,-2.977 16.428,-1.621 18.09,3.03 0.036,0.1 0.068,0.2 0.097,0.302"
     inkscape:connector-curvature="0"
     style="fill:#ffffff" /></g>
</svg>