<?xml version="1.0" encoding="UTF-8" standalone="no"?>
<!-- Generator: Adobe Illustrator 15.0.0, SVG Export Plug-In  -->

<svg
   xmlns:dc="http://purl.org/dc/elements/1.1/"
   xmlns:cc="http://creativecommons.org/ns#"
   xmlns:rdf="http://www.w3.org/1999/02/22-rdf-syntax-ns#"
   xmlns:svg="http://www.w3.org/2000/svg"
   xmlns="http://www.w3.org/2000/svg"
   xmlns:sodipodi="http://sodipodi.sourceforge.net/DTD/sodipodi-0.dtd"
   xmlns:inkscape="http://www.inkscape.org/namespaces/inkscape"
   version="1.1"
   x="0px"
   y="0px"
   width="576"
   height="576"
   viewBox="-0.031 -0.031 576 576"
   enable-background="new -0.031 -0.031 576 567"
   xml:space="preserve"
   id="svg2"
   inkscape:version="0.48.1 "
   sodipodi:docname="CE27.svg"
   inkscape:export-filename="C:\Documents and Settings\bertrand.bouteilles\Bureau\Panneaux\A - Route\6_services\CE27.png"
   inkscape:export-xdpi="150"
   inkscape:export-ydpi="150"><metadata
   id="metadata20"><rdf:RDF><cc:Work
       rdf:about=""><dc:format>image/svg+xml</dc:format><dc:type
         rdf:resource="http://purl.org/dc/dcmitype/StillImage" /><dc:title></dc:title></cc:Work></rdf:RDF></metadata><sodipodi:namedview
   pagecolor="#ffffff"
   bordercolor="#666666"
   borderopacity="1"
   objecttolerance="10"
   gridtolerance="10"
   guidetolerance="10"
   inkscape:pageopacity="0"
   inkscape:pageshadow="2"
   inkscape:window-width="1280"
   inkscape:window-height="964"
   id="namedview18"
   showgrid="false"
   fit-margin-top="0"
   fit-margin-left="0"
   fit-margin-right="0"
   fit-margin-bottom="0"
   inkscape:zoom="0.51675485"
   inkscape:cx="-104.83619"
   inkscape:cy="288"
   inkscape:window-x="-4"
   inkscape:window-y="-4"
   inkscape:window-maximized="1"
   inkscape:current-layer="svg2" />
<defs
   id="defs4">
</defs>



<path
   d="m 41.96795,574.97073 h 492.00306 c 10.8733,0 21.3025,-4.3185 28.9914,-12.00837 7.6888,-7.68888 12.0083,-18.11707 12.0083,-28.99131 V 41.967944 c 0,-10.874241 -4.3195,-21.302429 -12.0083,-28.991306 -7.6899,-7.6898749 -18.1191,-12.00936791 -28.9924,-12.00936791 H 41.96795 C 31.0937,0.96727009 20.66551,5.2867631 12.97664,12.975638 5.2867601,20.664514 0.96727009,31.093703 0.96727009,41.967944 V 533.97105 c 0,10.87424 4.31949001,21.30243 12.00836991,28.99131 7.68888,7.68888 18.11806,12.00837 28.99231,12.00837 z"
   id="path6-1"
   inkscape:connector-curvature="0"
   style="fill:#ffffff;stroke:#000000;stroke-width:1.99654019;stroke-linecap:round;stroke-linejoin:round;stroke-miterlimit:4;stroke-dasharray:none" /><polygon
   points="36.576,36.576 36.576,36.576 36.576,538.362 538.362,538.362 538.362,538.362 538.362,36.576 538.362,36.576 "
   id="polygon8-7"
   transform="matrix(1.0001141,0,0,1.0001141,0.46718988,0.46720088)"
   style="fill:#0000ff;stroke:#0000ff;stroke-width:0.17640001;stroke-linecap:round;stroke-linejoin:round" /><rect
   x="89.239319"
   y="89.239326"
   width="397.45935"
   height="397.45935"
   id="rect10-4"
   style="fill:#ffffff;stroke:#0000ff;stroke-width:0.17642012;stroke-linecap:round;stroke-linejoin:round" />

<g
   id="g3008"
   transform="translate(1.9457267,8.5053169)"><path
     id="path12"
     d="m 357.219,345.969 -1.75,-3 -17.25,-43.25 0.319,-0.528 2.834,-11.337 -59.653,-19.885 -30.5,84.5 0.341,0.24 -55.042,24.133 0,0.001 c -7.587,3.326 -11.011,12.241 -7.647,19.912 3.364,7.672 12.24,11.194 19.828,7.868 l 0.134,0.306 72.657,-31.855 1.479,-2.354 21.25,-44.75 21.268,33.834 -20.157,68.347 h 0.001 c -2.345,7.946 2.269,16.309 10.303,18.677 8.035,2.37 16.447,-2.149 18.791,-10.096 l 0.319,0.095 22.442,-76.094 1.533,-5.513 -0.75,-4.5 -0.75,-4.751 z"
     inkscape:connector-curvature="0" /><circle
     id="circle14"
     r="29.375"
     cy="140.84399"
     cx="355.09399"
     sodipodi:cx="355.09399"
     sodipodi:cy="140.84399"
     sodipodi:rx="29.375"
     sodipodi:ry="29.375"
     d="m 384.46899,140.84399 c 0,16.22337 -13.15163,29.375 -29.375,29.375 -16.22336,0 -29.375,-13.15163 -29.375,-29.375 0,-16.22336 13.15164,-29.375 29.375,-29.375 16.22337,0 29.375,13.15164 29.375,29.375 z" /><path
     id="path16"
     d="m 356.346,252.146 0.103,-0.315 -61.454,-20.142 4.725,-5.47 54,17.75 12,-33.75 -0.158,-0.098 c 0.914,-2.772 1.408,-5.72 1.408,-8.777 0,-16.223 -13.878,-29.375 -31,-29.375 -8.5,0 -16.197,3.244 -21.798,8.493 l -50.452,40.507 0.017,0.006 c -5.002,3.567 -8.267,9.337 -8.267,15.869 0,9.277 6.568,17.032 15.385,19.079 l 9.636,3.158 62.102,20.351 4.343,1.424 v -10e-4 c 8.25,2.706 17.042,-1.53 19.638,-9.458 2.598,-7.93 -1.982,-16.548 -10.228,-19.251 z"
     inkscape:connector-curvature="0" /></g>
</svg>