<?xml version="1.0" encoding="UTF-8" standalone="no"?>
<!-- Generator: Adobe Illustrator 15.0.0, SVG Export Plug-In  -->

<svg
   xmlns:dc="http://purl.org/dc/elements/1.1/"
   xmlns:cc="http://creativecommons.org/ns#"
   xmlns:rdf="http://www.w3.org/1999/02/22-rdf-syntax-ns#"
   xmlns:svg="http://www.w3.org/2000/svg"
   xmlns="http://www.w3.org/2000/svg"
   xmlns:sodipodi="http://sodipodi.sourceforge.net/DTD/sodipodi-0.dtd"
   xmlns:inkscape="http://www.inkscape.org/namespaces/inkscape"
   version="1.1"
   x="0px"
   y="0px"
   width="576"
   height="576"
   viewBox="-0.031 -0.031 576 576"
   enable-background="new -0.031 -0.031 576 576"
   xml:space="preserve"
   id="svg2"
   inkscape:version="0.48.1 "
   sodipodi:docname="CE28.svg"
   inkscape:export-filename="C:\Documents and Settings\bertrand.bouteilles\Bureau\Panneaux\A - Route\6_services\CE28.png"
   inkscape:export-xdpi="150"
   inkscape:export-ydpi="150"><metadata
   id="metadata16"><rdf:RDF><cc:Work
       rdf:about=""><dc:format>image/svg+xml</dc:format><dc:type
         rdf:resource="http://purl.org/dc/dcmitype/StillImage" /><dc:title></dc:title></cc:Work></rdf:RDF></metadata><sodipodi:namedview
   pagecolor="#ffffff"
   bordercolor="#666666"
   borderopacity="1"
   objecttolerance="10"
   gridtolerance="10"
   guidetolerance="10"
   inkscape:pageopacity="0"
   inkscape:pageshadow="2"
   inkscape:window-width="1280"
   inkscape:window-height="964"
   id="namedview14"
   showgrid="false"
   fit-margin-top="0"
   fit-margin-left="0"
   fit-margin-right="0"
   fit-margin-bottom="0"
   inkscape:zoom="0.50868056"
   inkscape:cx="-111.07142"
   inkscape:cy="287.99975"
   inkscape:window-x="-4"
   inkscape:window-y="-4"
   inkscape:window-maximized="1"
   inkscape:current-layer="svg2" />
<defs
   id="defs4">
</defs>



<path
   d="M 41.968215,574.97098 H 533.97135 c 10.8732,0 21.3024,-4.3185 28.9913,-12.00837 7.6889,-7.68888 12.0083,-18.11707 12.0083,-28.99131 V 41.9682 c 0,-10.87424 -4.3194,-21.30243 -12.0083,-28.99131 -7.6899,-7.68987 -18.1191,-12.00937 -28.9923,-12.00937 H 41.968215 c -10.87425,0 -21.30244,4.3195 -28.99131,12.00837 -7.68987,7.68888 -12.00936,18.11807 -12.00936,28.99231 v 492.0031 c 0,10.87424 4.31949,21.30243 12.00836,28.99131 7.68888,7.68888 18.11806,12.00837 28.99231,12.00837 z"
   id="path6-1"
   inkscape:connector-curvature="0"
   style="fill:#ffffff;stroke:#000000;stroke-width:1.99654019;stroke-linecap:round;stroke-linejoin:round;stroke-miterlimit:4;stroke-dasharray:none" /><polygon
   points="538.362,36.576 538.362,36.576 36.576,36.576 36.576,36.576 36.576,538.362 538.362,538.362 538.362,538.362 "
   id="polygon8-7"
   transform="matrix(1.0001141,0,0,1.0001141,0.46744979,0.46744979)"
   style="fill:#0000ff;stroke:#0000ff;stroke-width:0.17640001;stroke-linecap:round;stroke-linejoin:round" /><rect
   x="89.239578"
   y="89.239578"
   width="397.45935"
   height="397.45935"
   id="rect10-4"
   style="fill:#ffffff;stroke:#0000ff;stroke-width:0.17642012;stroke-linecap:round;stroke-linejoin:round" /><path
   d="m 365.21525,169.0938 v -52.498 h -99.035 c 0.017,0.25 0.04,0.499 0.04,0.75 0,12.84 -21.825,23.249 -48.748,23.249 -2.291,0 -4.542,-0.081 -6.749,-0.227 v 28.725 h 82.496 v 15 h -82.496 v 26.999 h 75.622 c -0.279,30.633 -0.709,60.58 -5.07,91.106 -4.792,33.539 -7.555,67.334 -7.555,101.187 0,14.979 6.989,31.835 16.979,42.823 7.539,8.293 9.928,9.755 20.741,12.704 5.633,1.537 17.123,-1.14 20.192,-6.401 19.079,-32.708 17.084,-66.064 17.084,-102.95 0,-33.878 -8.947,-68.838 -11.777,-102.805 -0.979,-11.734 -0.679,-23.744 -0.423,-35.664 h 25.699 v -26.999 h -32.998 v -15 h 35.998 z"
   id="path12"
   inkscape:connector-curvature="0" />
</svg>