<?xml version="1.0" encoding="UTF-8" standalone="no"?>
<!-- Generator: Adobe Illustrator 15.0.0, SVG Export Plug-In  -->

<svg
   xmlns:dc="http://purl.org/dc/elements/1.1/"
   xmlns:cc="http://creativecommons.org/ns#"
   xmlns:rdf="http://www.w3.org/1999/02/22-rdf-syntax-ns#"
   xmlns:svg="http://www.w3.org/2000/svg"
   xmlns="http://www.w3.org/2000/svg"
   xmlns:sodipodi="http://sodipodi.sourceforge.net/DTD/sodipodi-0.dtd"
   xmlns:inkscape="http://www.inkscape.org/namespaces/inkscape"
   version="1.1"
   x="0px"
   y="0px"
   width="576"
   height="576"
   viewBox="-0.031 -0.031 576 576"
   enable-background="new -0.031 -0.031 576 567"
   xml:space="preserve"
   id="svg2"
   inkscape:version="0.48.1 "
   sodipodi:docname="CE29.svg"
   inkscape:export-filename="C:\Documents and Settings\bertrand.bouteilles\Bureau\Panneaux\A - Route\6_services\CE29.png"
   inkscape:export-xdpi="150"
   inkscape:export-ydpi="150"><metadata
   id="metadata16"><rdf:RDF><cc:Work
       rdf:about=""><dc:format>image/svg+xml</dc:format><dc:type
         rdf:resource="http://purl.org/dc/dcmitype/StillImage" /><dc:title></dc:title></cc:Work></rdf:RDF></metadata><sodipodi:namedview
   pagecolor="#ffffff"
   bordercolor="#666666"
   borderopacity="1"
   objecttolerance="10"
   gridtolerance="10"
   guidetolerance="10"
   inkscape:pageopacity="0"
   inkscape:pageshadow="2"
   inkscape:window-width="1280"
   inkscape:window-height="964"
   id="namedview14"
   showgrid="false"
   fit-margin-top="0"
   fit-margin-left="0"
   fit-margin-right="0"
   fit-margin-bottom="0"
   inkscape:zoom="0.51675485"
   inkscape:cx="-129.99292"
   inkscape:cy="287.99975"
   inkscape:window-x="-4"
   inkscape:window-y="-4"
   inkscape:window-maximized="1"
   inkscape:current-layer="svg2" />
<defs
   id="defs4">
</defs>



<path
   d="m 41.96819,574.97098 h 492.0031 c 10.87324,0 21.30243,-4.3185 28.9913,-12.00837 7.6889,-7.68888 12.0084,-18.11707 12.0084,-28.99131 V 41.96819 c 0,-10.87424 -4.3195,-21.30243 -12.0084,-28.9913 C 555.27272,5.28701 544.84353,0.96752 533.97029,0.96752 H 41.96819 c -10.87425,0 -21.30244,4.31949 -28.99131,12.00837 C 5.287,20.66476 0.96751,31.09395 0.96751,41.96819 V 533.9713 c 0,10.87424 4.31949,21.30243 12.00837,28.99131 7.68888,7.68888 18.11806,12.00837 28.99231,12.00837 z"
   id="path6-1"
   inkscape:connector-curvature="0"
   style="fill:#ffffff;stroke:#000000;stroke-width:1.99654019;stroke-linecap:round;stroke-linejoin:round;stroke-miterlimit:4;stroke-dasharray:none" /><polygon
   points="538.362,36.576 538.362,36.576 36.576,36.576 36.576,36.576 36.576,538.362 538.362,538.362 538.362,538.362 "
   id="polygon8-7"
   transform="matrix(1.0001141,0,0,1.0001141,0.46744979,0.4674498)"
   style="fill:#0000ff;stroke:#0000ff;stroke-width:0.17640001;stroke-linecap:round;stroke-linejoin:round" /><rect
   x="89.239578"
   y="89.239578"
   width="397.45935"
   height="397.45935"
   id="rect10-4"
   style="fill:#ffffff;stroke:#0000ff;stroke-width:0.17642012;stroke-linecap:round;stroke-linejoin:round" /><path
   d="m 345.84975,174.21925 h -28.131 v -23.112 c 6.64,0.056 11.5,0.112 11.5,0.112 0,0 3.5,0.5 7,-1.5 3.5,-2 5,-1 7.5,-4.5 2.5,-3.5 2.5,-5 2.5,-8 0,-3 -1.5,-6.5 -5.5,-9 -4,-2.5 -6,-5 -10.5,-5 -1.176,0 -6.008,-0.034 -12.5,-0.084 v -6.416 h -27 v 6.195 c -12.449,-0.104 -23,-0.195 -23,-0.195 l -50.5,38.123 v 20.377 l 0.5,20 h 9 c 0,0 0.5,-8.5 3,-13.5 2.5,-5 43,-34 43,-34 0,0 3.5,-2 8.5,-2.5 1.24,-0.124 4.82,-0.187 9.5,-0.21 v 23.21 h -30.13 c -7.108,0 -12.87,11.916 -12.87,26.615 v 257.27 c 0,0.374 0.006,0.745 0.014,1.115 h 110.973 c 0.008,-0.37 0.014,-0.741 0.014,-1.115 v -257.27 c -10e-4,-14.7 -5.764,-26.615 -12.87,-26.615 z"
   id="path12"
   inkscape:connector-curvature="0"
   style="fill:#ff0000" />
</svg>