<?xml version="1.0" encoding="UTF-8" standalone="no"?>
<!-- Generator: Adobe Illustrator 15.0.0, SVG Export Plug-In  -->

<svg
   xmlns:dc="http://purl.org/dc/elements/1.1/"
   xmlns:cc="http://creativecommons.org/ns#"
   xmlns:rdf="http://www.w3.org/1999/02/22-rdf-syntax-ns#"
   xmlns:svg="http://www.w3.org/2000/svg"
   xmlns="http://www.w3.org/2000/svg"
   xmlns:sodipodi="http://sodipodi.sourceforge.net/DTD/sodipodi-0.dtd"
   xmlns:inkscape="http://www.inkscape.org/namespaces/inkscape"
   version="1.1"
   x="0px"
   y="0px"
   width="576px"
   height="576px"
   viewBox="-0.531 -0.531 576 576"
   enable-background="new -0.531 -0.531 576 576"
   xml:space="preserve"
   id="svg2"
   inkscape:version="0.48.1 "
   sodipodi:docname="CE2b.svg"
   inkscape:export-filename="C:\Documents and Settings\bertrand.bouteilles\Bureau\Panneaux\A - Route\6_services\CE2b.png"
   inkscape:export-xdpi="150"
   inkscape:export-ydpi="150"><metadata
   id="metadata16"><rdf:RDF><cc:Work
       rdf:about=""><dc:format>image/svg+xml</dc:format><dc:type
         rdf:resource="http://purl.org/dc/dcmitype/StillImage" /><dc:title></dc:title></cc:Work></rdf:RDF></metadata><sodipodi:namedview
   pagecolor="#ffffff"
   bordercolor="#666666"
   borderopacity="1"
   objecttolerance="10"
   gridtolerance="10"
   guidetolerance="10"
   inkscape:pageopacity="0"
   inkscape:pageshadow="2"
   inkscape:window-width="1030"
   inkscape:window-height="815"
   id="namedview14"
   showgrid="false"
   inkscape:zoom="0.50868056"
   inkscape:cx="-111.07167"
   inkscape:cy="288"
   inkscape:window-x="0"
   inkscape:window-y="0"
   inkscape:window-maximized="0"
   inkscape:current-layer="svg2" />
<defs
   id="defs4">
</defs>



<path
   d="m 41.46795,574.47073 h 492.0031 c 10.87324,0 21.30243,-4.3185 28.99131,-12.00837 7.68888,-7.68888 12.00837,-18.11707 12.00837,-28.99131 V 41.46795 c 0,-10.87424 -4.31949,-21.30243 -12.00837,-28.99131 C 554.77248,4.78677 544.34329,0.46727 533.47005,0.46727 H 41.46795 c -10.87425,0 -21.30244,4.3195 -28.99131,12.00837 C 4.78676,20.16452 0.46727,30.59371 0.46727,41.46795 v 492.0031 c 0,10.87424 4.31949,21.30243 12.00837,28.99131 7.68888,7.68888 18.11806,12.00837 28.99231,12.00837 z"
   id="path6-1"
   inkscape:connector-curvature="0"
   style="fill:#ffffff;stroke:#000000;stroke-width:1.99654019;stroke-linecap:round;stroke-linejoin:round;stroke-miterlimit:4;stroke-dasharray:none" /><polygon
   points="36.576,538.362 538.362,538.362 538.362,538.362 538.362,36.576 538.362,36.576 36.576,36.576 36.576,36.576 "
   id="polygon8-7"
   transform="matrix(1.0001141,0,0,1.0001141,-0.03280021,-0.03280021)"
   style="fill:#0000ff;stroke:#0000ff;stroke-width:0.17640001;stroke-linecap:round;stroke-linejoin:round" /><rect
   x="88.739326"
   y="88.739326"
   width="397.45935"
   height="397.45935"
   id="rect10-4"
   style="fill:#ffffff;stroke:#0000ff;stroke-width:0.17642012;stroke-linecap:round;stroke-linejoin:round" /><path
   d="m 429.65188,350.80077 c -11.234,-29.336 -27.884,-61.988 -49.363,-85.297 -22.692,-24.624 -46.35,-52.666 -74.036,-71.862 -6.48,-4.493 -12.961,-8.986 -19.44,-13.479 l -45.336,-28.41 c -9.466,-3.878 -19.525,-6.988 -28.373,-10.665 -14.406,-5.987 -27.19,-8.618 -42.384,-4.277 -14.091,4.026 -24.51,22.277 -32.971,32.944 l -2.667,6 -0.667,10.667 2.667,9.333 6.667,8.667 27.333,17.333 36,20 8.667,4 8,2 6,-2 4,-2 28.297,-27.093 19.929,22.085 c 0.876,1.199 1.794,2.365 2.771,3.486 8.544,9.81 16.339,18.99 26.47,27.095 18.604,14.882 34.366,31.744 53.866,45.761 -9.745,9.312 -19.49,18.624 -29.235,27.936 -2.513,2.401 -8.603,5.79 -7.752,9.62 0.888,3.994 0.53,11.021 2.651,14.285 7.944,12.222 15.888,24.443 23.831,36.664 5.901,9.079 11.43,21.853 19.172,29.495 10.343,10.211 22.23,8.478 33.086,1.454 7.469,-4.833 21.266,-10.671 26.066,-18.217 14.383,-22.607 5.574,-42.487 -3.249,-65.525 z"
   id="path12"
   inkscape:connector-curvature="0" />
</svg>