<?xml version="1.0" encoding="UTF-8" standalone="no"?>
<!-- Generator: Adobe Illustrator 15.0.0, SVG Export Plug-In  -->

<svg
   xmlns:dc="http://purl.org/dc/elements/1.1/"
   xmlns:cc="http://creativecommons.org/ns#"
   xmlns:rdf="http://www.w3.org/1999/02/22-rdf-syntax-ns#"
   xmlns:svg="http://www.w3.org/2000/svg"
   xmlns="http://www.w3.org/2000/svg"
   xmlns:sodipodi="http://sodipodi.sourceforge.net/DTD/sodipodi-0.dtd"
   xmlns:inkscape="http://www.inkscape.org/namespaces/inkscape"
   version="1.1"
   x="0px"
   y="0px"
   width="576"
   height="576"
   viewBox="-0.531 -0.031 576 576"
   enable-background="new -0.531 -0.031 574 551"
   xml:space="preserve"
   id="svg2"
   inkscape:version="0.48.1 "
   sodipodi:docname="CE30a.svg"
   inkscape:export-filename="C:\Documents and Settings\bertrand.bouteilles\Bureau\Panneaux\A - Route\6_services\CE30a.png"
   inkscape:export-xdpi="150"
   inkscape:export-ydpi="150"><metadata
   id="metadata20"><rdf:RDF><cc:Work
       rdf:about=""><dc:format>image/svg+xml</dc:format><dc:type
         rdf:resource="http://purl.org/dc/dcmitype/StillImage" /><dc:title></dc:title></cc:Work></rdf:RDF></metadata><sodipodi:namedview
   pagecolor="#ffffff"
   bordercolor="#666666"
   borderopacity="1"
   objecttolerance="10"
   gridtolerance="10"
   guidetolerance="10"
   inkscape:pageopacity="0"
   inkscape:pageshadow="2"
   inkscape:window-width="1280"
   inkscape:window-height="964"
   id="namedview18"
   showgrid="false"
   fit-margin-top="0"
   fit-margin-left="0"
   fit-margin-right="0"
   fit-margin-bottom="0"
   inkscape:zoom="0.53176044"
   inkscape:cx="-93.750603"
   inkscape:cy="287.99975"
   inkscape:window-x="-4"
   inkscape:window-y="-4"
   inkscape:window-maximized="1"
   inkscape:current-layer="svg2" />
<defs
   id="defs4">
</defs>





<path
   d="m 41.4682,574.97098 h 492.0031 c 10.87324,0 21.30243,-4.3185 28.99131,-12.00837 7.68888,-7.68888 12.00837,-18.11707 12.00837,-28.99131 V 41.968194 c 0,-10.874241 -4.31949,-21.302429 -12.00837,-28.991306 C 554.77273,5.2870115 544.34354,0.967519 533.4703,0.967519 H 41.4682 c -10.87425,0 -21.30244,4.3194925 -28.99131,12.008369 C 4.78701,20.664764 0.46752,31.093953 0.46752,41.968194 V 533.9713 c 0,10.87424 4.31949,21.30243 12.00837,28.99131 7.68888,7.68888 18.11806,12.00837 28.99231,12.00837 z"
   id="path6-1"
   inkscape:connector-curvature="0"
   style="fill:#ffffff;stroke:#000000;stroke-width:1.99654019;stroke-linecap:round;stroke-linejoin:round;stroke-miterlimit:4;stroke-dasharray:none" /><g
   id="g2997"
   transform="translate(-0.49975,9.75075)"><path
     id="path8"
     d="m 533.969,497.864 c 0,11.655 -5.449,21.104 -12.171,21.104 H 48.14 c -6.722,0 -12.171,-9.449 -12.171,-21.104 V 59.073 c 0,-11.655 5.449,-21.104 12.171,-21.104 h 473.658 c 6.722,0 12.171,9.449 12.171,21.104 v 438.791 z"
     inkscape:connector-curvature="0"
     style="opacity:0.17000002;fill:#ffffff" /><path
     style="fill:#00ff00"
     id="path10"
     d="m 540.969,500.693 c 0,10.921 -5.497,19.775 -12.28,19.775 H 47.248 c -6.781,0 -12.279,-8.854 -12.279,-19.775 V 55.745 c 0,-10.922 5.498,-19.776 12.279,-19.776 h 481.441 c 6.783,0 12.28,8.854 12.28,19.776 v 444.948 z"
     inkscape:connector-curvature="0" /><path
     id="path12"
     d="M 350.719,240.135 H 326.69 l -62.221,-66.166 -3,-0.333 H 129.852 L 96.155,238.62 c -4.894,9.438 -0.613,21.366 9.56,26.642 10.173,5.275 22.388,1.901 27.283,-7.537 0.363,-0.701 0.659,-1.417 0.923,-2.142 l 22.708,-43.792 33.828,0.735 -27.987,68.775 -11.888,88.501 H 84.385 c -10.631,0 -19.25,9.29 -19.25,20.75 0,11.459 8.619,20.75 19.25,20.75 0.789,0 1.562,-0.066 2.326,-0.166 h 18.617 l 79.307,-9.161 v -4.056 l 21.5,-70.951 37.667,63.333 0.418,-0.175 18.558,89.624 c 2.156,10.41 13,16.967 24.223,14.643 11.22,-2.322 18.57,-12.646 16.415,-23.057 -0.16,-0.773 -0.382,-1.517 -0.635,-2.245 l -19.855,-95.889 -1.229,0.255 -45.896,-88.489 30.333,-49.667 4.413,4.833 h -0.624 l 8.113,8.203 2.098,2.298 0.193,0.018 27.524,27.827 h 40.54 c 0.765,0.093 1.537,0.154 2.326,0.154 10.632,0 19.25,-8.62 19.25,-19.25 0.002,-10.63 -8.616,-19.249 -19.248,-19.249 z"
     inkscape:connector-curvature="0"
     style="fill:#ffffff" /><ellipse
     id="ellipse14"
     ry="33.333"
     rx="34.167"
     cy="135.96899"
     cx="264.302"
     sodipodi:cx="264.302"
     sodipodi:cy="135.96899"
     sodipodi:rx="34.167"
     sodipodi:ry="33.333"
     style="fill:#ffffff"
     d="m 298.469,135.96899 c 0,18.40931 -15.29709,33.333 -34.167,33.333 -18.86991,0 -34.167,-14.92369 -34.167,-33.333 0,-18.4093 15.29709,-33.333 34.167,-33.333 18.86991,0 34.167,14.9237 34.167,33.333 z" /><rect
     id="rect16"
     height="360.5"
     width="110"
     y="81.469002"
     x="421.46899"
     style="fill:#ffffff" /></g>
</svg>