<?xml version="1.0" encoding="UTF-8" standalone="no"?>
<!-- Generator: Adobe Illustrator 15.0.0, SVG Export Plug-In  -->

<svg
   xmlns:dc="http://purl.org/dc/elements/1.1/"
   xmlns:cc="http://creativecommons.org/ns#"
   xmlns:rdf="http://www.w3.org/1999/02/22-rdf-syntax-ns#"
   xmlns:svg="http://www.w3.org/2000/svg"
   xmlns="http://www.w3.org/2000/svg"
   xmlns:sodipodi="http://sodipodi.sourceforge.net/DTD/sodipodi-0.dtd"
   xmlns:inkscape="http://www.inkscape.org/namespaces/inkscape"
   version="1.1"
   x="0px"
   y="0px"
   width="576px"
   height="576px"
   viewBox="-0.531 -0.531 576 576"
   enable-background="new -0.531 -0.531 576 576"
   xml:space="preserve"
   id="svg2"
   inkscape:version="0.48.1 "
   sodipodi:docname="CE3a.svg"
   inkscape:export-filename="C:\Documents and Settings\bertrand.bouteilles\Bureau\Panneaux\A - Route\6_services\CE3a.png"
   inkscape:export-xdpi="150"
   inkscape:export-ydpi="150"><metadata
   id="metadata18"><rdf:RDF><cc:Work
       rdf:about=""><dc:format>image/svg+xml</dc:format><dc:type
         rdf:resource="http://purl.org/dc/dcmitype/StillImage" /><dc:title></dc:title></cc:Work></rdf:RDF></metadata><sodipodi:namedview
   pagecolor="#ffffff"
   bordercolor="#666666"
   borderopacity="1"
   objecttolerance="10"
   gridtolerance="10"
   guidetolerance="10"
   inkscape:pageopacity="0"
   inkscape:pageshadow="2"
   inkscape:window-width="1001"
   inkscape:window-height="820"
   id="namedview16"
   showgrid="false"
   inkscape:zoom="0.50868056"
   inkscape:cx="-111.07167"
   inkscape:cy="288"
   inkscape:window-x="0"
   inkscape:window-y="0"
   inkscape:window-maximized="0"
   inkscape:current-layer="svg2" />
<defs
   id="defs4">
</defs>



<path
   d="m 41.46793,574.47073 h 492.00312 c 10.8732,0 21.3024,-4.3185 28.9913,-12.00837 7.6889,-7.68888 12.0084,-18.11707 12.0084,-28.99131 V 41.46794 c 0,-10.87424 -4.3195,-21.30242 -12.0084,-28.9913 -7.6899,-7.68988 -18.1191,-12.00937 -28.9923,-12.00937 H 41.46793 c -10.87425,0 -21.30244,4.31949 -28.99131,12.00837 C 4.78674,20.16451 0.46725,30.5937 0.46725,41.46794 v 492.00311 c 0,10.87424 4.31949,21.30243 12.00837,28.99131 7.68888,7.68888 18.11806,12.00837 28.99231,12.00837 z"
   id="path6-1"
   inkscape:connector-curvature="0"
   style="fill:#ffffff;stroke:#000000;stroke-width:1.99654019;stroke-linecap:round;stroke-linejoin:round;stroke-miterlimit:4;stroke-dasharray:none" /><polygon
   points="36.576,538.362 538.362,538.362 538.362,538.362 538.362,36.576 538.362,36.576 36.576,36.576 36.576,36.576 "
   id="polygon8-7"
   transform="matrix(1.0001141,0,0,1.0001141,-0.03280021,-0.03280021)"
   style="fill:#0000ff;stroke:#0000ff;stroke-width:0.17640001;stroke-linecap:round;stroke-linejoin:round" /><rect
   x="88.739326"
   y="88.739326"
   width="397.45935"
   height="397.45935"
   id="rect10-4"
   style="fill:#ffffff;stroke:#0000ff;stroke-width:0.17642012;stroke-linecap:round;stroke-linejoin:round" /><path
   d="M393.469,455.469c-28.166,0-51-21.714-51-48.5v-0.5v-114v-56h-166v6.112c1.076-0.066,2.157-0.112,3.25-0.112  c27.579,0,49.958,21.446,50.237,48h0.013v114h-0.013c0.001,0.167,0.013,0.332,0.013,0.5c0,26.786-22.833,48.5-51,48.5  c-0.838,0-1.671-0.022-2.5-0.061v6.061h217.5v-4.012C393.802,455.458,393.637,455.469,393.469,455.469z"
   id="path12" />
<ellipse
   stroke="#0000FF"
   stroke-width="0.1764"
   stroke-linecap="round"
   stroke-linejoin="round"
   cx="285.969"
   cy="167.469"
   rx="61.5"
   ry="60"
   id="ellipse14" />
</svg>