<?xml version="1.0" encoding="UTF-8" standalone="no"?>
<!-- Generator: Adobe Illustrator 15.0.0, SVG Export Plug-In  -->

<svg
   xmlns:dc="http://purl.org/dc/elements/1.1/"
   xmlns:cc="http://creativecommons.org/ns#"
   xmlns:rdf="http://www.w3.org/1999/02/22-rdf-syntax-ns#"
   xmlns:svg="http://www.w3.org/2000/svg"
   xmlns="http://www.w3.org/2000/svg"
   xmlns:sodipodi="http://sodipodi.sourceforge.net/DTD/sodipodi-0.dtd"
   xmlns:inkscape="http://www.inkscape.org/namespaces/inkscape"
   version="1.1"
   x="0px"
   y="0px"
   width="576"
   height="576"
   viewBox="-0.031 -0.031 576 576"
   enable-background="new -0.031 -0.031 576 576"
   xml:space="preserve"
   id="svg2"
   inkscape:version="0.48.1 "
   sodipodi:docname="CE4b.svg"
   inkscape:export-filename="C:\Documents and Settings\bertrand.bouteilles\Bureau\Panneaux\A - Route\6_services\CE4b.png"
   inkscape:export-xdpi="150"
   inkscape:export-ydpi="150"><metadata
   id="metadata22"><rdf:RDF><cc:Work
       rdf:about=""><dc:format>image/svg+xml</dc:format><dc:type
         rdf:resource="http://purl.org/dc/dcmitype/StillImage" /><dc:title></dc:title></cc:Work></rdf:RDF></metadata><sodipodi:namedview
   pagecolor="#ffffff"
   bordercolor="#666666"
   borderopacity="1"
   objecttolerance="10"
   gridtolerance="10"
   guidetolerance="10"
   inkscape:pageopacity="0"
   inkscape:pageshadow="2"
   inkscape:window-width="1280"
   inkscape:window-height="964"
   id="namedview20"
   showgrid="false"
   inkscape:zoom="0.50868056"
   inkscape:cx="70.509893"
   inkscape:cy="287.99975"
   inkscape:window-x="-4"
   inkscape:window-y="-4"
   inkscape:window-maximized="1"
   inkscape:current-layer="svg2"
   fit-margin-top="0"
   fit-margin-left="0"
   fit-margin-right="0"
   fit-margin-bottom="0" />
<defs
   id="defs4">
</defs>



<path
   d="m 41.96822,574.97098 h 492.00314 c 10.8732,0 21.3024,-4.3185 28.9913,-12.00837 7.6888,-7.68888 12.0083,-18.11707 12.0083,-28.99131 V 41.96819 c 0,-10.87424 -4.3195,-21.30243 -12.0083,-28.9913 -7.6899,-7.68988 -18.1191,-12.00937 -28.9923,-12.00937 H 41.96822 c -10.87425,0 -21.30244,4.31949 -28.99131,12.00837 C 5.28703,20.66476 0.96754,31.09395 0.96754,41.96819 V 533.9713 c 0,10.87424 4.31949,21.30243 12.00837,28.99131 7.68888,7.68888 18.11806,12.00837 28.99231,12.00837 z"
   id="path6-1"
   inkscape:connector-curvature="0"
   style="fill:#ffffff;stroke:#000000;stroke-width:1.99654019;stroke-linecap:round;stroke-linejoin:round;stroke-miterlimit:4;stroke-dasharray:none" /><polygon
   points="538.362,36.576 538.362,36.576 36.576,36.576 36.576,36.576 36.576,538.362 538.362,538.362 538.362,538.362 "
   id="polygon8-7"
   transform="matrix(1.0001141,0,0,1.0001141,0.46744979,0.46744979)"
   style="fill:#0000ff;stroke:#0000ff;stroke-width:0.17640001;stroke-linecap:round;stroke-linejoin:round" /><rect
   x="89.239578"
   y="89.239578"
   width="397.45935"
   height="397.45935"
   id="rect10-4"
   style="fill:#ffffff;stroke:#0000ff;stroke-width:0.17642012;stroke-linecap:round;stroke-linejoin:round" /><ellipse
   cx="276.06"
   cy="372.05499"
   rx="26.399"
   ry="25.919001"
   id="ellipse12"
   sodipodi:cx="276.06"
   sodipodi:cy="372.05499"
   sodipodi:rx="26.399"
   sodipodi:ry="25.919001"
   transform="translate(2.5e-4,2.5e-4)" />
<path
   d="m 434.43725,396.47525 -2.093,0.016 18.42,-40.448 -8.4,0.28 h -42.064 v -108.939 c -25.741,-24.999 -72.915,-41.749 -126.857,-41.749 -60.39,0 -112.299,20.993 -135.142,51.051 v 110.036 h 27.189 v 29.934 h -28.521 v 9.625 h 311 v -9.625 h -14.625 l 1.093,-0.181 z m -259.323,0.181 v -29.934 h 67.065 c 4.891,-15.729 18.079,-27 33.589,-27 14.226,0 26.491,9.485 32.2,23.191 v 4.033 h 124.761 l -14.854,29.709 h -242.761 z"
   id="path14"
   inkscape:connector-curvature="0" />
<path
   d="m 213.42125,270.46925 c -0.734,-10.601 -10.727,-19 -22.952,-19 -12.225,0 -22.218,8.399 -22.952,19 h -0.048 v 69.5 h 0.217 c 1.525,9.882 11.141,17.5 22.783,17.5 11.642,0 21.258,-7.618 22.783,-17.5 h 0.217 v -69.5 h -0.048 z m -22.194,20.841 c -9.331,0 -16.895,-7.427 -16.895,-16.588 0,-9.161 7.564,-16.588 16.895,-16.588 9.332,0 16.896,7.427 16.896,16.588 0,9.161 -7.565,16.588 -16.896,16.588 z"
   id="path16"
   inkscape:connector-curvature="0"
   style="fill:#ffffff" />
<path
   d="m 291.96925,253.01725 c -10.601,0.734 -19,10.727 -19,22.952 0,12.225 8.399,22.219 19,22.952 v 0.048 h 69.5 v -0.217 c 9.882,-1.524 17.5,-11.141 17.5,-22.783 0,-11.642 -7.618,-21.258 -17.5,-22.783 v -0.217 h -69.5 v 0.048 z"
   id="path18"
   inkscape:connector-curvature="0"
   style="fill:#ffffff" />
</svg>