<?xml version="1.0" encoding="UTF-8" standalone="no"?>
<!-- Generator: Adobe Illustrator 15.0.0, SVG Export Plug-In  -->

<svg
   xmlns:dc="http://purl.org/dc/elements/1.1/"
   xmlns:cc="http://creativecommons.org/ns#"
   xmlns:rdf="http://www.w3.org/1999/02/22-rdf-syntax-ns#"
   xmlns:svg="http://www.w3.org/2000/svg"
   xmlns="http://www.w3.org/2000/svg"
   xmlns:sodipodi="http://sodipodi.sourceforge.net/DTD/sodipodi-0.dtd"
   xmlns:inkscape="http://www.inkscape.org/namespaces/inkscape"
   version="1.1"
   x="0px"
   y="0px"
   width="576"
   height="576"
   viewBox="-0.031 -0.031 576 576"
   enable-background="new -0.031 -0.031 576 576"
   xml:space="preserve"
   id="svg2"
   inkscape:version="0.48.1 "
   sodipodi:docname="CE4c.svg"
   inkscape:export-filename="C:\Documents and Settings\bertrand.bouteilles\Bureau\Panneaux\A - Route\6_services\CE4c.png"
   inkscape:export-xdpi="150"
   inkscape:export-ydpi="150"><metadata
   id="metadata28"><rdf:RDF><cc:Work
       rdf:about=""><dc:format>image/svg+xml</dc:format><dc:type
         rdf:resource="http://purl.org/dc/dcmitype/StillImage" /><dc:title></dc:title></cc:Work></rdf:RDF></metadata><sodipodi:namedview
   pagecolor="#ffffff"
   bordercolor="#666666"
   borderopacity="1"
   objecttolerance="10"
   gridtolerance="10"
   guidetolerance="10"
   inkscape:pageopacity="0"
   inkscape:pageshadow="2"
   inkscape:window-width="1280"
   inkscape:window-height="964"
   id="namedview26"
   showgrid="false"
   inkscape:zoom="0.50868056"
   inkscape:cx="-510.14309"
   inkscape:cy="287.99975"
   inkscape:window-x="-4"
   inkscape:window-y="-4"
   inkscape:window-maximized="1"
   inkscape:current-layer="svg2"
   fit-margin-top="0"
   fit-margin-left="0"
   fit-margin-right="0"
   fit-margin-bottom="0" />
<defs
   id="defs4">
</defs>



<path
   d="m 41.9682,574.97098 h 492.0031 c 10.87324,0 21.30243,-4.3185 28.99131,-12.00837 7.68888,-7.68888 12.00837,-18.11707 12.00837,-28.99131 V 41.96819 c 0,-10.87424 -4.31949,-21.30242 -12.00837,-28.9913 C 555.27273,5.28701 544.84354,0.96752 533.9703,0.96752 H 41.9682 c -10.87425,0 -21.30244,4.31949 -28.99131,12.00837 C 5.28701,20.66476 0.96752,31.09395 0.96752,41.96819 V 533.9713 c 0,10.87424 4.31949,21.30243 12.00837,28.99131 7.68888,7.68888 18.11806,12.00837 28.99231,12.00837 z"
   id="path6-1"
   inkscape:connector-curvature="0"
   style="fill:#ffffff;stroke:#000000;stroke-width:1.99654019;stroke-linecap:round;stroke-linejoin:round;stroke-miterlimit:4;stroke-dasharray:none" /><polygon
   points="538.362,36.576 538.362,36.576 36.576,36.576 36.576,36.576 36.576,538.362 538.362,538.362 538.362,538.362 "
   id="polygon8-7"
   transform="matrix(1.0001141,0,0,1.0001141,0.46744979,0.46744979)"
   style="fill:#0000ff;stroke:#0000ff;stroke-width:0.17640001;stroke-linecap:round;stroke-linejoin:round" /><rect
   x="89.239578"
   y="89.239578"
   width="397.45935"
   height="397.45935"
   id="rect10-4"
   style="fill:#ffffff;stroke:#0000ff;stroke-width:0.17642012;stroke-linecap:round;stroke-linejoin:round" /><polygon
   points="284.99,161.449 208.395,268.345 361.324,268.345 "
   id="polygon12"
   style="fill:none"
   transform="translate(2.5e-4,2.5e-4)" />
<path
   d="m 369.48925,268.34525 -80.411,-112.604 27.554,-38.45 -5.698,-3.215 -25.848,36.074 -26.911,-37.685 -5.814,3.293 28.635,40.1 -80.602,112.487 h -35.329 v 6.137 h 238.429 v -6.137 h -34.005 z m -84.499,-106.896 76.334,106.896 h -152.93 l 76.596,-106.896 z"
   id="path14"
   inkscape:connector-curvature="0" />
<polygon
   points="204.136,270.39 246.401,270.39 265.455,243.389 284.509,216.386 303.563,243.389 322.617,270.39 367.179,270.39 326.417,213.523 285.657,156.656 244.897,213.523 "
   id="polygon16"
   style="stroke:#000000;stroke-linecap:round;stroke-linejoin:round"
   transform="translate(2.5e-4,2.5e-4)" />
<ellipse
   cx="268.65302"
   cy="431.97699"
   rx="19.964001"
   ry="20.299999"
   id="ellipse18"
   sodipodi:cx="268.65302"
   sodipodi:cy="431.97699"
   sodipodi:rx="19.964001"
   sodipodi:ry="20.299999"
   transform="translate(2.5e-4,2.5e-4)" />
<path
   d="m 388.42125,451.10325 -1.583,0.012 13.93,-31.68 -6.353,0.221 h -31.81 v -85.322 c -19.466,-19.58 -55.141,-32.698 -95.933,-32.698 -45.669,0 -84.922,16.441 -102.198,39.983 v 86.181 h 20.562 v 23.444 h -21.568 v 7.539 h 235.186 v -7.539 h -11.061 l 0.828,-0.141 z m -196.106,0.141 v -23.444 h 50.716 c 3.699,-12.318 13.671,-21.147 25.4,-21.147 10.758,0 20.034,7.431 24.351,18.165 v 3.159 h 94.347 l -11.233,23.268 h -183.581 z"
   id="path20"
   inkscape:connector-curvature="0" />
<path
   d="m 221.28425,352.41325 c -0.556,-8.303 -8.112,-14.881 -17.357,-14.881 -9.246,0 -16.802,6.578 -17.357,14.881 h -0.036 v 54.434 h 0.164 c 1.152,7.739 8.425,13.705 17.229,13.705 8.804,0 16.077,-5.966 17.229,-13.705 h 0.164 v -54.434 h -0.036 z m -16.784,16.323 c -7.057,0 -12.777,-5.817 -12.777,-12.992 0,-7.175 5.72,-12.992 12.777,-12.992 7.056,0 12.777,5.817 12.777,12.992 0,7.175 -5.721,12.992 -12.777,12.992 z"
   id="path22"
   inkscape:connector-curvature="0"
   style="fill:#ffffff" />
<path
   d="m 280.68325,338.74425 c -8.017,0.575 -14.368,8.401 -14.368,17.977 0,9.576 6.352,17.402 14.368,17.977 v 0.037 h 52.557 v -0.17 c 7.474,-1.193 13.234,-8.725 13.234,-17.844 0,-9.119 -5.761,-16.648 -13.234,-17.844 v -0.171 h -52.557 v 0.038 z"
   id="path24"
   inkscape:connector-curvature="0"
   style="fill:#ffffff" />
</svg>