<?xml version="1.0" encoding="UTF-8" standalone="no"?>
<!-- Generator: Adobe Illustrator 15.0.0, SVG Export Plug-In  -->

<svg
   xmlns:dc="http://purl.org/dc/elements/1.1/"
   xmlns:cc="http://creativecommons.org/ns#"
   xmlns:rdf="http://www.w3.org/1999/02/22-rdf-syntax-ns#"
   xmlns:svg="http://www.w3.org/2000/svg"
   xmlns="http://www.w3.org/2000/svg"
   xmlns:sodipodi="http://sodipodi.sourceforge.net/DTD/sodipodi-0.dtd"
   xmlns:inkscape="http://www.inkscape.org/namespaces/inkscape"
   version="1.1"
   x="0px"
   y="0px"
   width="576"
   height="576"
   viewBox="-0.031 -0.031 576 576"
   enable-background="new -0.031 -0.031 576 576"
   xml:space="preserve"
   id="svg2"
   inkscape:version="0.48.1 "
   sodipodi:docname="CE5a.svg"
   inkscape:export-filename="C:\Documents and Settings\bertrand.bouteilles\Bureau\Panneaux\A - Route\6_services\CE5a.png"
   inkscape:export-xdpi="150"
   inkscape:export-ydpi="150"><metadata
   id="metadata16"><rdf:RDF><cc:Work
       rdf:about=""><dc:format>image/svg+xml</dc:format><dc:type
         rdf:resource="http://purl.org/dc/dcmitype/StillImage" /><dc:title></dc:title></cc:Work></rdf:RDF></metadata><sodipodi:namedview
   pagecolor="#ffffff"
   bordercolor="#666666"
   borderopacity="1"
   objecttolerance="10"
   gridtolerance="10"
   guidetolerance="10"
   inkscape:pageopacity="0"
   inkscape:pageshadow="2"
   inkscape:window-width="1280"
   inkscape:window-height="964"
   id="namedview14"
   showgrid="false"
   inkscape:zoom="0.50868056"
   inkscape:cx="-111.07142"
   inkscape:cy="287.99975"
   inkscape:window-x="-4"
   inkscape:window-y="-4"
   inkscape:window-maximized="1"
   inkscape:current-layer="svg2"
   fit-margin-top="0"
   fit-margin-left="0"
   fit-margin-right="0"
   fit-margin-bottom="0" />
<defs
   id="defs4">
</defs>



<path
   d="m 41.9682,574.97098 h 492.0031 c 10.87324,0 21.30243,-4.3185 28.99131,-12.00837 7.68888,-7.68888 12.00837,-18.11707 12.00837,-28.99131 V 41.9682 c 0,-10.87424 -4.31949,-21.30243 -12.00837,-28.99131 C 555.27273,5.28701 544.84354,0.96752 533.9703,0.96752 H 41.9682 c -10.87425,0 -21.30244,4.31949 -28.99131,12.00837 C 5.28701,20.66477 0.96752,31.09396 0.96752,41.9682 v 492.0031 c 0,10.87424 4.31949,21.30243 12.00837,28.99131 7.68888,7.68888 18.11806,12.00837 28.99231,12.00837 z"
   id="path6-1"
   inkscape:connector-curvature="0"
   style="fill:#ffffff;stroke:#000000;stroke-width:1.99654019;stroke-linecap:round;stroke-linejoin:round;stroke-miterlimit:4;stroke-dasharray:none" /><polygon
   points="538.362,36.576 538.362,36.576 36.576,36.576 36.576,36.576 36.576,538.362 538.362,538.362 538.362,538.362 "
   id="polygon8-7"
   transform="matrix(1.0001141,0,0,1.0001141,0.46744979,0.46744979)"
   style="fill:#0000ff;stroke:#0000ff;stroke-width:0.17640001;stroke-linecap:round;stroke-linejoin:round" /><rect
   x="89.239578"
   y="89.239578"
   width="397.45935"
   height="397.45935"
   id="rect10-4"
   style="fill:#ffffff;stroke:#0000ff;stroke-width:0.17642012;stroke-linecap:round;stroke-linejoin:round" /><path
   d="m 475.96925,400.96925 h -42 v -114 h 15.301 l -39.9,-45 -39.9,-45 -39.9,45 -6.27,7.071 c -24.243,-6.874 -46.508,-13.569 -64.304,-33.868 -18.232,-20.796 -27.852,-39.658 -36.026,-65.204 -5.564,31.074 -18.666,56.151 -32.95,83.934 -9.621,18.712 -28.34,34.297 -43.05,49.066 25.792,-8.938 44.262,-24.262 63,-43 -7.867,15.626 -15.812,31.737 -26,46 -12.625,17.676 -34.041,27.784 -54,35 32.075,4.823 74.87,-11.498 86,-45 -1.958,12.244 -4.038,25.194 -11.029,35.688 -5.973,8.968 -12.523,23.67 -23.115,28.031 -12.74,5.246 -24.794,13.579 -36.856,20.28 31.255,-1.33 60.418,-1.537 81,-28 2.013,16.468 2.276,29.939 -4.235,45.259 -3.363,7.914 -6.727,15.827 -10.09,23.741 h -107.676 v 17 h 372 v -16.998 z m -169,0 h -42.743 c -7.435,-13.729 -14.891,-26.821 -16.257,-43 -0.815,-9.651 -1.333,-19.337 -2,-29 16.146,9.986 28.116,16.385 47.458,13.806 4.514,-0.602 9.028,-1.204 13.542,-1.806 v 60 z m 0,-73.619 c -11.93,-2.623 -22.043,-6.289 -33.917,-14.161 -16.545,-10.97 -21.621,-21.37 -26.083,-39.22 14.193,10.645 21.321,26.939 42.513,25.977 5.829,-0.265 11.658,-0.53 17.487,-0.795 v 28.199 z m -13.75,-44.386 c -13.073,-2.972 -24.989,-10.641 -33.753,-20.739 -6.393,-7.366 -8.659,-18.301 -12.497,-27.256 19.701,22.083 45.335,22.041 71.287,19.758 l -25.037,28.237 z m 95.75,117.005 h -40 v -75 h 40 v 75 z"
   id="path12"
   inkscape:connector-curvature="0" />
</svg>