<?xml version="1.0" encoding="UTF-8" standalone="no"?>
<!-- Generator: Adobe Illustrator 15.0.0, SVG Export Plug-In  -->

<svg
   xmlns:dc="http://purl.org/dc/elements/1.1/"
   xmlns:cc="http://creativecommons.org/ns#"
   xmlns:rdf="http://www.w3.org/1999/02/22-rdf-syntax-ns#"
   xmlns:svg="http://www.w3.org/2000/svg"
   xmlns="http://www.w3.org/2000/svg"
   xmlns:sodipodi="http://sodipodi.sourceforge.net/DTD/sodipodi-0.dtd"
   xmlns:inkscape="http://www.inkscape.org/namespaces/inkscape"
   version="1.1"
   x="0px"
   y="0px"
   width="576"
   height="576"
   viewBox="-0.031 -0.031 576 576"
   enable-background="new -0.031 -0.031 576 576"
   xml:space="preserve"
   id="svg2"
   inkscape:version="0.48.1 "
   sodipodi:docname="CE5b.svg"
   inkscape:export-filename="C:\Documents and Settings\bertrand.bouteilles\Bureau\Panneaux\A - Route\6_services\CE5b.png"
   inkscape:export-xdpi="150"
   inkscape:export-ydpi="150"><metadata
   id="metadata20"><rdf:RDF><cc:Work
       rdf:about=""><dc:format>image/svg+xml</dc:format><dc:type
         rdf:resource="http://purl.org/dc/dcmitype/StillImage" /><dc:title></dc:title></cc:Work></rdf:RDF></metadata><sodipodi:namedview
   pagecolor="#ffffff"
   bordercolor="#666666"
   borderopacity="1"
   objecttolerance="10"
   gridtolerance="10"
   guidetolerance="10"
   inkscape:pageopacity="0"
   inkscape:pageshadow="2"
   inkscape:window-width="1280"
   inkscape:window-height="964"
   id="namedview18"
   showgrid="false"
   inkscape:zoom="0.50868056"
   inkscape:cx="-111.07167"
   inkscape:cy="288"
   inkscape:window-x="-4"
   inkscape:window-y="-4"
   inkscape:window-maximized="1"
   inkscape:current-layer="svg2"
   fit-margin-top="0"
   fit-margin-left="0"
   fit-margin-right="0"
   fit-margin-bottom="0" />
<defs
   id="defs4">
</defs>



<path
   d="m 41.96795,574.97073 h 492.0031 c 10.87324,0 21.30243,-4.3185 28.99131,-12.00837 7.68888,-7.68888 12.00837,-18.11707 12.00837,-28.99131 V 41.967945 c 0,-10.874241 -4.31949,-21.302429 -12.00837,-28.991306 C 555.27248,5.2867632 544.84329,0.96727009 533.97005,0.96727009 H 41.96795 C 31.0937,0.96727009 20.66551,5.2867632 12.97664,12.975639 5.2867602,20.664515 0.96727009,31.093704 0.96727009,41.967945 V 533.97105 c 0,10.87424 4.31949011,21.30243 12.00836991,28.99131 7.68888,7.68888 18.11806,12.00837 28.99231,12.00837 z"
   id="path6-1"
   inkscape:connector-curvature="0"
   style="fill:#ffffff;stroke:#000000;stroke-width:1.99654019;stroke-linecap:round;stroke-linejoin:round;stroke-miterlimit:4;stroke-dasharray:none" /><polygon
   points="538.362,36.576 538.362,36.576 36.576,36.576 36.576,36.576 36.576,538.362 538.362,538.362 538.362,538.362 "
   id="polygon8-7"
   transform="matrix(1.0001141,0,0,1.0001141,0.46719985,0.46719985)"
   style="fill:#0000ff;stroke:#0000ff;stroke-width:0.17640001;stroke-linecap:round;stroke-linejoin:round" /><rect
   x="89.239326"
   y="89.239326"
   width="397.45935"
   height="397.45935"
   id="rect10-4"
   style="fill:#ffffff;stroke:#0000ff;stroke-width:0.17642012;stroke-linecap:round;stroke-linejoin:round" /><polygon
   points="287.209,113.87 281.75,112.461 99.969,183.927 99.969,231.858 100.878,234.222 283.129,162.57 470.982,236.425 470.982,185.773 289.78,114.533 287.778,114.016 287.521,114.682 "
   id="polygon12" />
<path
   d="m 165.595,376.987 c -8.283,-2.838 -14.451,-9.999 -15.62,-18.686 h -5.485 v 26 h 20.253 l 0.852,-7.314 z"
   id="path14"
   inkscape:connector-curvature="0"
   style="fill:none" />
<path
   d="m 428.771,344.302 v 16.949 c -49.478,-6.185 -98.954,-12.369 -148.431,-18.554 -18.59,-2.324 -38.848,-6.064 -56.37,2.271 -15.748,7.492 -22.231,23.179 -27.31,39.333 h -9.297 l -2.638,-2.666 -2.609,-4.897 c 8.859,-3.339 15.141,-11.675 15.141,-21.438 0,-12.701 -10.631,-22.999 -23.744,-22.999 -10.079,0 -18.685,6.086 -22.132,14.667 h -6.891 v -32 h -43.532 v 146.667 h 43.532 v -34.667 h 284.28 v 36 h 43.532 V 344.302 h -43.531 z m -284.281,14 h 5.485 c 1.169,8.687 7.337,15.848 15.62,18.686 l -0.852,7.314 H 144.49 v -26 z"
   id="path16"
   inkscape:connector-curvature="0" />
</svg>