<?xml version="1.0" encoding="UTF-8" standalone="no"?>
<!-- Generator: Adobe Illustrator 15.0.0, SVG Export Plug-In  -->

<svg
   xmlns:dc="http://purl.org/dc/elements/1.1/"
   xmlns:cc="http://creativecommons.org/ns#"
   xmlns:rdf="http://www.w3.org/1999/02/22-rdf-syntax-ns#"
   xmlns:svg="http://www.w3.org/2000/svg"
   xmlns="http://www.w3.org/2000/svg"
   xmlns:sodipodi="http://sodipodi.sourceforge.net/DTD/sodipodi-0.dtd"
   xmlns:inkscape="http://www.inkscape.org/namespaces/inkscape"
   version="1.1"
   x="0px"
   y="0px"
   width="576"
   height="576"
   viewBox="-0.031 -0.031 576 576"
   enable-background="new -0.031 -0.031 576 576"
   xml:space="preserve"
   id="svg2"
   inkscape:version="0.48.1 "
   sodipodi:docname="CE6a.svg"
   inkscape:export-filename="C:\Documents and Settings\bertrand.bouteilles\Bureau\Panneaux\A - Route\6_services\CE6a.png"
   inkscape:export-xdpi="150"
   inkscape:export-ydpi="150"><metadata
   id="metadata20"><rdf:RDF><cc:Work
       rdf:about=""><dc:format>image/svg+xml</dc:format><dc:type
         rdf:resource="http://purl.org/dc/dcmitype/StillImage" /><dc:title></dc:title></cc:Work></rdf:RDF></metadata><sodipodi:namedview
   pagecolor="#ffffff"
   bordercolor="#666666"
   borderopacity="1"
   objecttolerance="10"
   gridtolerance="10"
   guidetolerance="10"
   inkscape:pageopacity="0"
   inkscape:pageshadow="2"
   inkscape:window-width="1280"
   inkscape:window-height="964"
   id="namedview18"
   showgrid="false"
   inkscape:zoom="0.50868056"
   inkscape:cx="-111.07167"
   inkscape:cy="288"
   inkscape:window-x="-4"
   inkscape:window-y="-4"
   inkscape:window-maximized="1"
   inkscape:current-layer="svg2"
   fit-margin-top="0"
   fit-margin-left="0"
   fit-margin-right="0"
   fit-margin-bottom="0" />
<defs
   id="defs4">
</defs>



<path
   d="m 41.96795,574.97073 h 492.0031 c 10.87324,0 21.30243,-4.3185 28.99131,-12.00837 7.68888,-7.68888 12.00837,-18.11707 12.00837,-28.99131 V 41.96794 c 0,-10.87424 -4.31949,-21.30243 -12.00837,-28.99131 C 555.27248,5.2867601 544.84329,0.96727009 533.97005,0.96727009 H 41.96795 C 31.0937,0.96727009 20.66551,5.2867601 12.97664,12.97563 5.2867601,20.66451 0.96727009,31.0937 0.96727009,41.96794 v 492.00311 c 0,10.87424 4.31949001,21.30243 12.00836991,28.99131 7.68888,7.68888 18.11806,12.00837 28.99231,12.00837 z"
   id="path6-1"
   inkscape:connector-curvature="0"
   style="fill:#ffffff;stroke:#000000;stroke-width:1.99654019;stroke-linecap:round;stroke-linejoin:round;stroke-miterlimit:4;stroke-dasharray:none" /><polygon
   points="538.362,36.576 538.362,36.576 36.576,36.576 36.576,36.576 36.576,538.362 538.362,538.362 538.362,538.362 "
   id="polygon8-7"
   transform="matrix(1.0001141,0,0,1.0001141,0.46719988,0.46719988)"
   style="fill:#0000ff;stroke:#0000ff;stroke-width:0.17640001;stroke-linecap:round;stroke-linejoin:round" /><rect
   x="89.239326"
   y="89.239326"
   width="397.45935"
   height="397.45935"
   id="rect10-4"
   style="fill:#ffffff;stroke:#0000ff;stroke-width:0.17642012;stroke-linecap:round;stroke-linejoin:round" /><path
   d="M 342.841,436.832 275.249,289.636 h 35.387 v -57.333 l -2,-2.667 -1.334,-3 -17.333,-27.333 -15.333,0.667 -11,-9.167 v -12.786 c 11.636,-4.01 20,-15.048 20,-28.047 0,-16.384 -13.283,-29.667 -29.665,-29.667 -16.385,0 -29.668,13.283 -29.668,29.667 0,11.32 6.343,21.157 15.667,26.157 v 13.785 l -6,2.057 -4.333,3.333 -5.667,5.667 -5.333,8 -5,9 -18.983,30.112 -49.266,23.611 c -7.736,3.707 -12.323,11.305 -10.239,16.972 2.08,5.667 10.038,7.254 17.772,3.547 l 56.049,-26.861 17.667,-22.048 -1.206,49.13 -65.849,143.399 c -3.841,8.362 0.097,18.383 8.798,22.378 8.698,3.996 18.864,0.452 22.705,-7.912 l 56.174,-122.329 h 7.446 l 56.633,123.329 c 3.841,8.364 14.007,11.908 22.705,7.912 8.701,-3.994 12.64,-14.015 8.798,-22.377 z"
   id="path12"
   inkscape:connector-curvature="0" />
<polygon
   points="229.715,461.969 240.073,461.969 152.765,280.636 142.407,280.636 "
   id="polygon14" />
<path
   d="M 444.39,440.832 380.302,301.269 v -39.78 l 30.979,48.563 c 4.613,7.232 12.709,10.869 18.083,8.117 5.374,-2.748 5.991,-10.84 1.378,-18.07 L 373.888,210.97 h -5.251 v -13.747 c 9.558,-3.71 16.333,-12.943 16.333,-23.753 0,-14.083 -11.492,-25.5 -25.665,-25.5 -14.176,0 -25.668,11.417 -25.668,25.5 0,10.81 6.774,20.042 16.333,23.753 v 13.723 l -4.667,0.691 -3,1.333 -2.666,1.667 -16.334,27.333 -0.666,2 0.333,2.667 11,14.582 v 39.945 l -65.055,141.67 c -3.841,8.362 -2.114,17.367 3.859,20.109 5.97,2.744 13.925,-1.815 17.767,-10.18 l 38.43,-83.688 v 0.229 h 56.39 l 37.406,81.459 c 3.841,8.364 11.796,12.924 17.767,10.18 5.97,-2.744 7.696,-11.749 3.856,-20.111 z"
   id="path16"
   inkscape:connector-curvature="0" />
</svg>