<?xml version="1.0" encoding="UTF-8" standalone="no"?>
<!-- Generator: Adobe Illustrator 15.0.0, SVG Export Plug-In  -->

<svg
   xmlns:dc="http://purl.org/dc/elements/1.1/"
   xmlns:cc="http://creativecommons.org/ns#"
   xmlns:rdf="http://www.w3.org/1999/02/22-rdf-syntax-ns#"
   xmlns:svg="http://www.w3.org/2000/svg"
   xmlns="http://www.w3.org/2000/svg"
   xmlns:sodipodi="http://sodipodi.sourceforge.net/DTD/sodipodi-0.dtd"
   xmlns:inkscape="http://www.inkscape.org/namespaces/inkscape"
   version="1.1"
   x="0px"
   y="0px"
   width="576"
   height="576"
   viewBox="-0.031 -0.031 576 576"
   enable-background="new -0.031 -0.031 576 576"
   xml:space="preserve"
   id="svg2"
   inkscape:version="0.48.1 "
   sodipodi:docname="CE6b.svg"
   inkscape:export-filename="C:\Documents and Settings\bertrand.bouteilles\Bureau\Panneaux\A - Route\6_services\CE6b.png"
   inkscape:export-xdpi="150"
   inkscape:export-ydpi="150"><metadata
   id="metadata20"><rdf:RDF><cc:Work
       rdf:about=""><dc:format>image/svg+xml</dc:format><dc:type
         rdf:resource="http://purl.org/dc/dcmitype/StillImage" /><dc:title></dc:title></cc:Work></rdf:RDF></metadata><sodipodi:namedview
   pagecolor="#ffffff"
   bordercolor="#666666"
   borderopacity="1"
   objecttolerance="10"
   gridtolerance="10"
   guidetolerance="10"
   inkscape:pageopacity="0"
   inkscape:pageshadow="2"
   inkscape:window-width="1280"
   inkscape:window-height="964"
   id="namedview18"
   showgrid="false"
   inkscape:zoom="0.50868056"
   inkscape:cx="-111.07167"
   inkscape:cy="288"
   inkscape:window-x="-4"
   inkscape:window-y="-4"
   inkscape:window-maximized="1"
   inkscape:current-layer="svg2"
   fit-margin-top="0"
   fit-margin-left="0"
   fit-margin-right="0"
   fit-margin-bottom="0" />
<defs
   id="defs4">
</defs>



<path
   d="m 41.96795,574.97073 h 492.0031 c 10.87324,0 21.30243,-4.3185 28.99131,-12.00837 7.68888,-7.68888 12.00837,-18.11707 12.00837,-28.99131 V 41.96795 c 0,-10.87424 -4.31949,-21.30243 -12.00837,-28.99131 C 555.27248,5.2867701 544.84329,0.96727009 533.97005,0.96727009 H 41.96795 C 31.0937,0.96727009 20.66551,5.2867701 12.97664,12.97564 5.2867601,20.66452 0.96727009,31.09371 0.96727009,41.96795 v 492.0031 c 0,10.87424 4.31949001,21.30243 12.00836991,28.99131 7.68888,7.68888 18.11806,12.00837 28.99231,12.00837 z"
   id="path6-1"
   inkscape:connector-curvature="0"
   style="fill:#ffffff;stroke:#000000;stroke-width:1.99654019;stroke-linecap:round;stroke-linejoin:round;stroke-miterlimit:4;stroke-dasharray:none" /><polygon
   points="538.362,36.576 538.362,36.576 36.576,36.576 36.576,36.576 36.576,538.362 538.362,538.362 538.362,538.362 "
   id="polygon8-7"
   transform="matrix(1.0001141,0,0,1.0001141,0.46719988,0.46719988)"
   style="fill:#0000ff;stroke:#0000ff;stroke-width:0.17640001;stroke-linecap:round;stroke-linejoin:round" /><rect
   x="89.239326"
   y="89.239326"
   width="397.45935"
   height="397.45935"
   id="rect10-4"
   style="fill:#ffffff;stroke:#0000ff;stroke-width:0.17642012;stroke-linecap:round;stroke-linejoin:round" /><polygon
   points="153.509,414.302 286.433,414.302 306.969,341.636 307.302,338.302 305.636,332.636 274.302,295.302 154.969,398.969 154.463,404.285 "
   id="polygon12"
   style="fill:none" />
<polygon
   points="399.302,239.969 396.636,236.969 371.302,218.635 306.636,275.635 305.969,280.635 332.969,323.636 335.969,328.969 336.636,334.302 336.636,341.969 314.302,408.636 321.135,414.302 327.067,414.302 443.903,221.152 407.703,242.266 402.926,241.907 400.636,240.635 "
   id="polygon14"
   style="fill:none" />
<path
   d="m 474.802,398.469 -1.666,-1.5 -2.5,-0.167 -1.667,0.334 -1.833,1.666 -11,13.334 -3,1.333 -2.667,0.667 -3.333,0.166 h -1.167 -110.332 l 121.508,-200.873 8.488,-4.951 -0.07,-0.121 c 5.931,-3.579 8.572,-10.114 5.895,-14.705 -2.679,-4.591 -9.667,-5.509 -15.701,-2.108 l -0.006,-0.008 -47.146,27.498 -3.636,-1.398 -22.667,-15 -2.666,-2.667 2.445,-3.762 c 3.246,1.556 6.882,2.429 10.722,2.429 13.715,0 24.833,-11.118 24.833,-24.833 0,-13.715 -11.118,-24.833 -24.833,-24.833 -13.716,0 -24.834,11.118 -24.834,24.833 0,4.021 0.962,7.815 2.658,11.175 l -8.991,7.992 -10.334,-5.333 -4.333,-2 -6,-0.667 -80.942,6.634 -0.682,0.032 h -4.042 l -0.823,0.229 -3.352,0.158 -1.737,1.256 -0.087,0.024 -7,4.667 0.144,0.328 -39.629,28.648 0.089,0.124 c -3.773,2.822 -5.79,6.997 -5.63,10.856 l -93.134,47.601 2.556,5.002 92.506,-47.279 c 3.474,4.438 10.561,4.893 16.125,1.005 l 0.006,0.008 42.159,-30.478 36.474,-0.816 -45.333,44.667 -3,4 -1,3.667 -0.667,5.333 0.333,8.333 -119,112.667 -1.333,4 -1,1.666 v 4.667 l -0.493,12.333 H 106.97 v 9.667 h 342 v -0.26 l 2.333,0.093 2,-0.333 2.667,-0.5 2,-1 2.333,-1.167 15.834,-19.166 -1.335,-3.167 z M 306.969,341.636 286.433,414.302 H 153.509 l 0.954,-10.017 0.506,-5.316 119.333,-103.667 31.333,37.334 1.666,5.666 -0.332,3.334 z m 14.166,72.666 -6.833,-5.666 22.334,-66.667 v -7.667 l -0.667,-5.333 -3,-5.333 -27,-43 0.667,-5 64.666,-57 25.334,18.333 2.666,3 1.334,0.667 2.29,1.272 4.777,0.358 36.2,-21.114 -116.836,193.15 h -5.932 z"
   id="path16"
   inkscape:connector-curvature="0" />
</svg>