<?xml version="1.0" encoding="UTF-8" standalone="no"?>
<!-- Generator: Adobe Illustrator 15.0.0, SVG Export Plug-In  -->

<svg
   xmlns:dc="http://purl.org/dc/elements/1.1/"
   xmlns:cc="http://creativecommons.org/ns#"
   xmlns:rdf="http://www.w3.org/1999/02/22-rdf-syntax-ns#"
   xmlns:svg="http://www.w3.org/2000/svg"
   xmlns="http://www.w3.org/2000/svg"
   xmlns:sodipodi="http://sodipodi.sourceforge.net/DTD/sodipodi-0.dtd"
   xmlns:inkscape="http://www.inkscape.org/namespaces/inkscape"
   version="1.1"
   x="0px"
   y="0px"
   width="576"
   height="576"
   viewBox="-0.031 -0.031 576 576"
   enable-background="new -0.031 -0.031 576 576"
   xml:space="preserve"
   id="svg2"
   inkscape:version="0.48.1 "
   sodipodi:docname="CE7.svg"
   inkscape:export-filename="C:\Documents and Settings\bertrand.bouteilles\Bureau\Panneaux\A - Route\6_services\CE7.png"
   inkscape:export-xdpi="150"
   inkscape:export-ydpi="150"><metadata
   id="metadata16"><rdf:RDF><cc:Work
       rdf:about=""><dc:format>image/svg+xml</dc:format><dc:type
         rdf:resource="http://purl.org/dc/dcmitype/StillImage" /><dc:title></dc:title></cc:Work></rdf:RDF></metadata><sodipodi:namedview
   pagecolor="#ffffff"
   bordercolor="#666666"
   borderopacity="1"
   objecttolerance="10"
   gridtolerance="10"
   guidetolerance="10"
   inkscape:pageopacity="0"
   inkscape:pageshadow="2"
   inkscape:window-width="1280"
   inkscape:window-height="964"
   id="namedview14"
   showgrid="false"
   inkscape:zoom="0.50868056"
   inkscape:cx="-510.14334"
   inkscape:cy="288"
   inkscape:window-x="-4"
   inkscape:window-y="-4"
   inkscape:window-maximized="1"
   inkscape:current-layer="svg2"
   fit-margin-top="0"
   fit-margin-left="0"
   fit-margin-right="0"
   fit-margin-bottom="0" />
<defs
   id="defs4">
</defs>



<path
   d="m 41.96795,574.97073 h 492.0031 c 10.87324,0 21.30243,-4.3185 28.99131,-12.00837 7.68888,-7.68888 12.00837,-18.11707 12.00837,-28.99131 V 41.96794 c 0,-10.87424 -4.31949,-21.30243 -12.00837,-28.9913 C 555.27248,5.2867601 544.84329,0.96727009 533.97005,0.96727009 H 41.96795 C 31.0937,0.96727009 20.66551,5.2867601 12.97664,12.97564 5.2867601,20.66451 0.96727009,31.0937 0.96727009,41.96794 v 492.00311 c 0,10.87424 4.31949001,21.30243 12.00836991,28.99131 7.68888,7.68888 18.11806,12.00837 28.99231,12.00837 z"
   id="path6-1"
   inkscape:connector-curvature="0"
   style="fill:#ffffff;stroke:#000000;stroke-width:1.99654019;stroke-linecap:round;stroke-linejoin:round;stroke-miterlimit:4;stroke-dasharray:none" /><polygon
   points="36.576,36.576 36.576,538.362 538.362,538.362 538.362,538.362 538.362,36.576 538.362,36.576 36.576,36.576 "
   id="polygon8-7"
   transform="matrix(1.0001141,0,0,1.0001141,0.46719988,0.46719988)"
   style="fill:#0000ff;stroke:#0000ff;stroke-width:0.17640001;stroke-linecap:round;stroke-linejoin:round" /><rect
   x="89.239326"
   y="89.239326"
   width="397.45935"
   height="397.45935"
   id="rect10-4"
   style="fill:#ffffff;stroke:#0000ff;stroke-width:0.17642012;stroke-linecap:round;stroke-linejoin:round" /><path
   d="m 391.835,413.969 c -15.128,-25.337 -22.117,-47.149 -24.533,-77.333 29.176,12.109 54.036,8.29 84.334,1.667 -37.563,-9.392 -62.205,-29.115 -84.667,-60 22.086,22.631 54.385,26.923 84,23.333 -37.521,-3.98 -72.694,-34.886 -90,-67.333 23.349,24.748 55.308,28.832 87.333,22.667 -51.484,-13.697 -87.722,-58.344 -106,-106.667 -7.143,51.325 -33.527,101.722 -71.333,136.667 24.841,-4.932 42.456,-23.665 59.333,-41.667 -10.511,33.781 -37.757,64.719 -68,82 33.354,-2.085 56.854,-21.12 78.333,-45.667 -11.445,35.969 -33.364,60.106 -63,82.333 27.736,-0.66 52.633,-2.987 72.667,-23.666 0.967,27.847 -6.443,49.73 -17.904,73.666 h -57.095 v -14.333 h 12.333 v -11 h -35.333 v 11 h 11 v 14.333 h -47 v -35 h 38.333 v -13.333 h -104 v 13.333 h 38.667 v 35 h -47.667 v -14 h 12.333 v -11 h -35.333 v 11 h 11 v 14 h -18.667 v 17.001 h 360.667 v -17.001 h -79.801 z"
   id="path12"
   inkscape:connector-curvature="0" />
</svg>