<?xml version="1.0" encoding="UTF-8" standalone="no"?>
<!-- Generator: Adobe Illustrator 15.0.0, SVG Export Plug-In  -->

<svg
   xmlns:dc="http://purl.org/dc/elements/1.1/"
   xmlns:cc="http://creativecommons.org/ns#"
   xmlns:rdf="http://www.w3.org/1999/02/22-rdf-syntax-ns#"
   xmlns:svg="http://www.w3.org/2000/svg"
   xmlns="http://www.w3.org/2000/svg"
   xmlns:sodipodi="http://sodipodi.sourceforge.net/DTD/sodipodi-0.dtd"
   xmlns:inkscape="http://www.inkscape.org/namespaces/inkscape"
   version="1.1"
   x="0px"
   y="0px"
   width="576"
   height="576"
   viewBox="-0.031 -0.031 576 576"
   enable-background="new -0.031 -0.031 576 576"
   xml:space="preserve"
   id="svg2"
   inkscape:version="0.48.1 "
   sodipodi:docname="CE8.svg"
   inkscape:export-filename="C:\Documents and Settings\bertrand.bouteilles\Bureau\Panneaux\A - Route\6_services\CE8.png"
   inkscape:export-xdpi="150"
   inkscape:export-ydpi="150"><metadata
   id="metadata36"><rdf:RDF><cc:Work
       rdf:about=""><dc:format>image/svg+xml</dc:format><dc:type
         rdf:resource="http://purl.org/dc/dcmitype/StillImage" /><dc:title></dc:title></cc:Work></rdf:RDF></metadata><sodipodi:namedview
   pagecolor="#ffffff"
   bordercolor="#666666"
   borderopacity="1"
   objecttolerance="10"
   gridtolerance="10"
   guidetolerance="10"
   inkscape:pageopacity="0"
   inkscape:pageshadow="2"
   inkscape:window-width="1280"
   inkscape:window-height="964"
   id="namedview34"
   showgrid="false"
   inkscape:zoom="0.50868056"
   inkscape:cx="-510.14334"
   inkscape:cy="288"
   inkscape:window-x="-4"
   inkscape:window-y="-4"
   inkscape:window-maximized="1"
   inkscape:current-layer="svg2"
   fit-margin-top="0"
   fit-margin-left="0"
   fit-margin-right="0"
   fit-margin-bottom="0" />
<defs
   id="defs4">
</defs>



<path
   d="m 41.96795,574.97073 h 492.0031 c 10.87324,0 21.30243,-4.3185 28.99131,-12.00837 7.68888,-7.68888 12.00837,-18.11707 12.00837,-28.99131 V 41.96794 c 0,-10.87424 -4.31949,-21.30242 -12.00837,-28.9913 C 555.27248,5.2867601 544.84329,0.96727009 533.97005,0.96727009 H 41.96795 C 31.0937,0.96727009 20.66551,5.2867601 12.97664,12.97564 5.2867601,20.66451 0.96727009,31.0937 0.96727009,41.96794 v 492.00311 c 0,10.87424 4.31949001,21.30243 12.00836991,28.99131 7.68888,7.68888 18.11806,12.00837 28.99231,12.00837 z"
   id="path6-1"
   inkscape:connector-curvature="0"
   style="fill:#ffffff;stroke:#000000;stroke-width:1.99654019;stroke-linecap:round;stroke-linejoin:round;stroke-miterlimit:4;stroke-dasharray:none" /><polygon
   points="538.362,36.576 538.362,36.576 36.576,36.576 36.576,36.576 36.576,538.362 538.362,538.362 538.362,538.362 "
   id="polygon8-7"
   transform="matrix(1.0001141,0,0,1.0001141,0.46719988,0.46719988)"
   style="fill:#0000ff;stroke:#0000ff;stroke-width:0.17640001;stroke-linecap:round;stroke-linejoin:round" /><rect
   x="89.239326"
   y="89.239326"
   width="397.45935"
   height="397.45935"
   id="rect10-4"
   style="fill:#ffffff;stroke:#0000ff;stroke-width:0.17642012;stroke-linecap:round;stroke-linejoin:round" /><polygon
   points="334.302,316.636 320.924,332.094 353.302,332.315 353.302,316.636 "
   id="polygon12"
   style="fill:none" />
<polygon
   points="375.302,316.636 357.302,316.636 357.302,332.343 390.136,332.568 "
   id="polygon14"
   style="fill:none" />
<path
   d="m 428.636,336.636 -28.667,-4 -1.67,-0.012 -21.663,-19.321 h -46.667 l -19.345,18.721 -7.988,-0.055 -0.667,2.667 -0.667,14 6.667,2 h 7.034 c 0.347,4.105 3.852,7.333 8.132,7.333 4.281,0 7.786,-3.228 8.133,-7.333 h 72.402 c 0.347,4.105 3.852,7.333 8.132,7.333 4.281,0 7.786,-3.228 8.133,-7.333 h 4.034 l 4,-2 3.333,-2 0.667,-6.667 -3.333,-3.333 z m -75.334,-4.321 -32.378,-0.222 13.378,-15.458 h 19 v 15.68 z m 4,0.028 v -15.707 h 18 l 14.834,15.933 -32.834,-0.226 z"
   id="path16"
   inkscape:connector-curvature="0" />
<polygon
   points="174.968,316.969 161.59,332.427 193.968,332.648 193.968,316.969 "
   id="polygon18"
   style="fill:none" />
<polygon
   points="215.968,316.969 197.968,316.969 197.968,332.676 230.802,332.901 "
   id="polygon20"
   style="fill:none" />
<path
   d="m 269.302,336.969 -28.667,-4 -1.67,-0.012 -21.663,-19.321 h -46.667 l -19.345,18.721 -7.988,-0.055 -0.667,2.667 -0.667,14 6.667,2 h 7.034 c 0.347,4.105 3.852,7.333 8.132,7.333 4.281,0 7.786,-3.228 8.133,-7.333 h 72.402 c 0.347,4.105 3.852,7.333 8.132,7.333 4.281,0 7.786,-3.228 8.133,-7.333 h 4.034 l 4,-2 3.333,-2 0.667,-6.667 -3.333,-3.333 z m -75.334,-4.321 -32.378,-0.222 13.378,-15.458 h 19 v 15.68 z m 4,0.028 v -15.707 h 18 l 14.834,15.933 -32.834,-0.226 z"
   id="path22"
   inkscape:connector-curvature="0" />
<polygon
   points="455.636,357.636 118.302,357.636 118.302,367.636 105.302,367.636 105.302,357.969 96.302,357.969 96.302,388.969 105.302,388.969 105.302,379.303 468.636,379.303 468.636,389.969 477.636,389.969 477.636,358.969 468.636,358.969 468.636,367.636 455.636,367.636 "
   id="polygon24" />
<ellipse
   cx="149.96899"
   cy="392.46899"
   rx="15"
   ry="15.5"
   id="ellipse26"
   sodipodi:cx="149.96899"
   sodipodi:cy="392.46899"
   sodipodi:rx="15"
   sodipodi:ry="15.5" />
<ellipse
   cx="183.96899"
   cy="392.46899"
   rx="15"
   ry="15.5"
   id="ellipse28"
   sodipodi:cx="183.96899"
   sodipodi:cy="392.46899"
   sodipodi:rx="15"
   sodipodi:ry="15.5" />
<ellipse
   cx="390.63501"
   cy="392.46899"
   rx="15"
   ry="15.5"
   id="ellipse30"
   sodipodi:cx="390.63501"
   sodipodi:cy="392.46899"
   sodipodi:rx="15"
   sodipodi:ry="15.5" />
<ellipse
   cx="423.96799"
   cy="392.46899"
   rx="15"
   ry="15.5"
   id="ellipse32"
   sodipodi:cx="423.96799"
   sodipodi:cy="392.46899"
   sodipodi:rx="15"
   sodipodi:ry="15.5" />
</svg>