<?xml version="1.0" encoding="UTF-8" standalone="no"?>
<!-- Generator: Adobe Illustrator 15.0.0, SVG Export Plug-In  -->

<svg
   xmlns:dc="http://purl.org/dc/elements/1.1/"
   xmlns:cc="http://creativecommons.org/ns#"
   xmlns:rdf="http://www.w3.org/1999/02/22-rdf-syntax-ns#"
   xmlns:svg="http://www.w3.org/2000/svg"
   xmlns="http://www.w3.org/2000/svg"
   xmlns:sodipodi="http://sodipodi.sourceforge.net/DTD/sodipodi-0.dtd"
   xmlns:inkscape="http://www.inkscape.org/namespaces/inkscape"
   version="1.1"
   x="0px"
   y="0px"
   width="576"
   height="576"
   viewBox="-0.031 -0.031 576 576"
   enable-background="new -0.031 -0.031 576 567"
   xml:space="preserve"
   id="svg2"
   inkscape:version="0.48.1 "
   sodipodi:docname="CE9.svg"
   inkscape:export-filename="C:\Documents and Settings\bertrand.bouteilles\Bureau\Panneaux\A - Route\6_services\CE9.png"
   inkscape:export-xdpi="150"
   inkscape:export-ydpi="150"><metadata
   id="metadata22"><rdf:RDF><cc:Work
       rdf:about=""><dc:format>image/svg+xml</dc:format><dc:type
         rdf:resource="http://purl.org/dc/dcmitype/StillImage" /><dc:title></dc:title></cc:Work></rdf:RDF></metadata><sodipodi:namedview
   pagecolor="#ffffff"
   bordercolor="#666666"
   borderopacity="1"
   objecttolerance="10"
   gridtolerance="10"
   guidetolerance="10"
   inkscape:pageopacity="0"
   inkscape:pageshadow="2"
   inkscape:window-width="1280"
   inkscape:window-height="964"
   id="namedview20"
   showgrid="false"
   fit-margin-top="0"
   fit-margin-left="0"
   fit-margin-right="0"
   fit-margin-bottom="0"
   inkscape:zoom="0.51675485"
   inkscape:cx="-129.99292"
   inkscape:cy="287.99975"
   inkscape:window-x="-4"
   inkscape:window-y="-4"
   inkscape:window-maximized="1"
   inkscape:current-layer="svg2" />
<defs
   id="defs4">
</defs>



<path
   d="m 41.9682,574.97098 h 492.0031 c 10.87324,0 21.30243,-4.3185 28.99131,-12.00837 7.68888,-7.68888 12.00837,-18.11707 12.00837,-28.99131 V 41.968195 c 0,-10.874241 -4.31949,-21.302429 -12.00837,-28.991306 C 555.27273,5.287013 544.84354,0.96752 533.9703,0.96752 H 41.9682 c -10.87425,0 -21.30244,4.319493 -28.99131,12.008369 C 5.28701,20.664765 0.96752,31.093954 0.96752,41.968195 V 533.9713 c 0,10.87424 4.31949,21.30243 12.00837,28.99131 7.68888,7.68888 18.11806,12.00837 28.99231,12.00837 z"
   id="path6-1"
   inkscape:connector-curvature="0"
   style="fill:#ffffff;stroke:#000000;stroke-width:1.99654019;stroke-linecap:round;stroke-linejoin:round;stroke-miterlimit:4;stroke-dasharray:none" /><polygon
   points="538.362,36.576 538.362,36.576 36.576,36.576 36.576,36.576 36.576,538.362 538.362,538.362 538.362,538.362 "
   id="polygon8-7"
   transform="matrix(1.0001141,0,0,1.0001141,0.46744979,0.4674498)"
   style="fill:#0000ff;stroke:#0000ff;stroke-width:0.17640001;stroke-linecap:round;stroke-linejoin:round" /><rect
   x="89.239578"
   y="89.239578"
   width="397.45935"
   height="397.45935"
   id="rect10-4"
   style="fill:#ffffff;stroke:#0000ff;stroke-width:0.17642012;stroke-linecap:round;stroke-linejoin:round" /><path
   d="m 273.89125,317.32025 c -4.135,-0.645 -9.194,-0.492 -14.505,0.612 -5.456,1.136 -10.266,3.089 -13.832,5.411 l -1.132,-9.532 c 3.36,-2.333 7.956,-4.276 13.195,-5.367 5.197,-1.082 10.148,-1.142 14.143,-0.362"
   id="path12"
   inkscape:connector-curvature="0"
   style="fill:#ffffff" />
<path
   d="m 278.45125,335.25225 c -1.662,-4.651 -9.76,-6.007 -18.09,-3.03 -8.329,2.974 -13.735,9.156 -12.073,13.807 0.096,0.268 0.213,0.524 0.35,0.771 l 2.983,8.063 c -1.662,-4.65 3.744,-10.833 12.073,-13.807 8.33,-2.977 16.428,-1.621 18.09,3.03 0.036,0.1 0.068,0.2 0.097,0.302"
   id="path14"
   inkscape:connector-curvature="0"
   style="fill:#ffffff" />
<path
   d="m 268.10025,308.60225 c 0,40.692 -29.78,73.68 -66.515,73.68 h -35.725 v 55.089 1.778 h -38.986 v -204.229 h 74.711 c 36.734,0 66.515,32.988 66.515,73.682 z m -53.621,2.692 c 0,-15.194 -11.119,-27.512 -24.835,-27.512 h -21.706 v 54.325 c 7.229,0.464 14.466,0.697 21.706,0.697 13.716,10e-4 24.835,-12.316 24.835,-27.51 z"
   id="path16"
   inkscape:connector-curvature="0" />
<polygon
   points="296.83,187.73 309.271,203.472 305.608,204.085 259.982,211.723 289.804,249.773 319.626,287.822 335.429,242.136 336.768,238.265 348.354,252.925 382.957,225.579 393.303,225.579 393.303,288.912 395.97,288.912 401.97,288.912 449.303,288.912 449.303,270.246 401.97,270.246 401.97,210.554 456.752,167.261 405.229,102.065 "
   id="polygon18"
   transform="translate(2.5e-4,4.50025)" />
</svg>