<?xml version="1.0" encoding="UTF-8" standalone="no"?>
<!-- Created with Inkscape (http://www.inkscape.org/) -->

<svg
   xmlns:svg="http://www.w3.org/2000/svg"
   xmlns="http://www.w3.org/2000/svg"
   version="1.1"
   width="64"
   height="64"
   id="svg3607">
  <defs
     id="defs3" />
  <g
     transform="translate(-251.43354,-40.176215)"
     id="layer1"
     style="fill:#ffffff;fill-opacity:1">
    <path
       d="m 283.34918,41.676208 c -2.77891,0 -3.65478,2.941241 -3.89665,5.083165 -0.26635,2.312544 -0.67735,9.486448 -0.67735,15.249563 l -23.8885,13.894019 0,6.94705 23.71878,-6.438715 c 0,6.42486 0.25305,13.092116 1.0166,15.419077 l -8.8099,5.930017 0,3.558066 9.65658,-2.879664 c 0.95651,2.136304 1.07209,4.297614 2.88044,4.235984 1.80839,0.0655 2.09325,-2.09968 3.04943,-4.235984 l 9.48766,2.879664 0,-3.558066 -8.64068,-5.930017 c 0.7583,-2.326926 0.84736,-8.994219 0.84736,-15.419077 l 23.88744,6.438715 0,-6.94705 -23.88744,-13.894019 c 0,-5.763099 -0.41398,-12.937026 -0.67746,-15.249563 -0.2458,-2.141924 -1.28804,-5.083165 -4.06631,-5.083165 z"
       id="path3971-1"
       style="fill:#ffffff;fill-opacity:1;stroke:#000000;stroke-width:2.99998283;stroke-miterlimit:4;stroke-opacity:1;stroke-dasharray:none" />
  </g>
</svg>
