<?xml version="1.0" encoding="UTF-8" standalone="no"?>
<!-- Created with Inkscape (http://www.inkscape.org/) -->

<svg
   xmlns:dc="http://purl.org/dc/elements/1.1/"
   xmlns:cc="http://creativecommons.org/ns#"
   xmlns:rdf="http://www.w3.org/1999/02/22-rdf-syntax-ns#"
   xmlns:svg="http://www.w3.org/2000/svg"
   xmlns="http://www.w3.org/2000/svg"
   version="1.1"
   width="5.669291"
   height="5.669291"
   id="svg2">
  <defs
     id="defs4" />
  <metadata
     id="metadata7">
    <rdf:RDF>
      <cc:Work
         rdf:about="">
        <dc:format>image/svg+xml</dc:format>
        <dc:type
           rdf:resource="http://purl.org/dc/dcmitype/StillImage" />
        <dc:title></dc:title>
      </cc:Work>
    </rdf:RDF>
  </metadata>
  <path
     d="m 14.173229,3.9862204 a 3.1003938,3.1003938 0 1 1 -6.2007878,0 3.1003938,3.1003938 0 1 1 6.2007878,0 z"
     transform="matrix(0.88571427,0,0,0.88571427,-6.9727224,-0.69600675)"
     id="path4079"
     style="fill:#ffffff;fill-opacity:1;fill-rule:nonzero;stroke:#000000;stroke-width:0.20002539;stroke-linecap:square;stroke-linejoin:round;stroke-miterlimit:4;stroke-opacity:1;stroke-dasharray:none" />
  <g
     transform="matrix(0.09417227,0,0,0.09417227,7.7983658,0.98750228)"
     id="g4023">
    <path
       d="m -64.196647,44.071284 c 9.190165,-9.190164 9.190165,-41.3557411 11.487706,-41.3557411 2.297541,0 2.297541,32.1655771 11.487706,41.3557411 z"
       id="path4019"
       style="fill:#000000;fill-opacity:1;fill-rule:nonzero;stroke:#000000;stroke-width:5.64386988;stroke-linecap:round;stroke-linejoin:round;stroke-miterlimit:4;stroke-opacity:1;stroke-dasharray:none" />
    <path
       d="M -69.094488,9.2125981 C -69.980315,10.098425 -60.389881,22.427605 -53.149606,22.5 c 7.240275,0.0724 17.716534,-13.287402 16.830708,-14.1732287 -0.885826,-0.8858267 -10.228145,7.9724407 -16.830708,7.9724407 -5.942307,0 -15.059055,-7.9724407 -15.944882,-7.0866139 z"
       id="path4021"
       style="fill:#000000;fill-opacity:1;fill-rule:nonzero;stroke:#000000;stroke-width:5.64386988;stroke-linecap:round;stroke-linejoin:round;stroke-miterlimit:4;stroke-opacity:1;stroke-dasharray:none" />
  </g>
  <path
     d="M 0,0 A 0,0 0 1 1 0,0 0,0 0 1 1 0,0 z"
     transform="translate(0,-1.4173229)"
     id="path4081"
     style="fill:#ffffff;fill-opacity:1;fill-rule:nonzero;stroke:#000000;stroke-width:0.17716534;stroke-linecap:square;stroke-linejoin:round;stroke-miterlimit:4;stroke-opacity:1;stroke-dasharray:none" />
</svg>
