<?xml version="1.0" encoding="UTF-8" standalone="no"?>
<!-- Created with Inkscape (http://www.inkscape.org/) -->

<svg
   xmlns:dc="http://purl.org/dc/elements/1.1/"
   xmlns:cc="http://creativecommons.org/ns#"
   xmlns:rdf="http://www.w3.org/1999/02/22-rdf-syntax-ns#"
   xmlns:svg="http://www.w3.org/2000/svg"
   xmlns="http://www.w3.org/2000/svg"
   version="1.1"
   width="10.629921"
   height="10.629921"
   id="svg2"
   style="display:inline">
  <defs
     id="defs4" />
  <metadata
     id="metadata7">
    <rdf:RDF>
      <cc:Work
         rdf:about="">
        <dc:format>image/svg+xml</dc:format>
        <dc:type
           rdf:resource="http://purl.org/dc/dcmitype/StillImage" />
        <dc:title></dc:title>
      </cc:Work>
    </rdf:RDF>
  </metadata>
  <g
     transform="translate(2.8211808,-1062.5387)"
     id="layer1"
     style="display:inline">
    <g
       transform="translate(0.09567989,0.3037356)"
       id="g3948">
      <path
         d="m 12.755905,3.3661418 a 1.0629921,1.0629921 0 1 1 -2.125984,0 1.0629921,1.0629921 0 1 1 2.125984,0 z"
         transform="matrix(-0.42334331,-0.61909651,0.61909651,-0.42334331,4.5555884,1076.214)"
         id="path3760"
         style="fill:none;stroke:#000000;stroke-width:0.70866138;stroke-linecap:round;stroke-linejoin:round;stroke-miterlimit:4;stroke-opacity:1;stroke-dasharray:none" />
      <path
         d="m 8.5039371,1.948819 a 0.70866144,0.70866144 0 1 1 -1.4173228,0 0.70866144,0.70866144 0 1 1 1.4173228,0 z"
         transform="matrix(0.9970999,-0.07610373,0.07610373,0.9970999,-4.0638101,1069.3404)"
         id="path3762"
         style="fill:#000000;fill-opacity:1;stroke:none" />
      <path
         d="m 8.5039371,1.948819 a 0.70866144,0.70866144 0 1 1 -1.4173228,0 0.70866144,0.70866144 0 1 1 1.4173228,0 z"
         transform="matrix(0.9970999,-0.07610373,0.07610373,0.9970999,-10.115848,1066.5506)"
         id="path3762-1"
         style="fill:#000000;fill-opacity:1;stroke:none;display:inline" />
      <path
         d="m 8.5039371,1.948819 a 0.70866144,0.70866144 0 1 1 -1.4173228,0 0.70866144,0.70866144 0 1 1 1.4173228,0 z"
         transform="matrix(0.9970999,-0.07610373,0.07610373,0.9970999,-6.1358626,1061.8974)"
         id="path3762-9"
         style="fill:#000000;fill-opacity:1;stroke:none;display:inline" />
      <path
         d="m 6.7457483,1071.397 c 0,0 0.2487808,-1.5058 0.3543307,-2.4803 0.1055498,-0.9744 0.2789685,-1.4173 0.2789685,-2.126 0,-0.7086 -0.6332992,-0.7086 -0.6332992,-0.7086 0,0 -0.6332993,0 -0.6332993,0.7086 0,0.7087 0.1734188,1.1516 0.2789686,2.126 0.10555,0.9745 0.3543307,2.4803 0.3543307,2.4803 z"
         id="path3882"
         style="fill:#000000;fill-opacity:1;fill-rule:nonzero;stroke:#000000;stroke-width:0.03543307;stroke-linecap:round;stroke-linejoin:round;stroke-miterlimit:4;stroke-opacity:1;stroke-dasharray:none" />
    </g>
  </g>
</svg>
