<?xml version="1.0" encoding="UTF-8" standalone="no"?>
<!-- Created with Inkscape (http://www.inkscape.org/) -->

<svg
   xmlns:svg="http://www.w3.org/2000/svg"
   xmlns="http://www.w3.org/2000/svg"
   version="1.1"
   width="56.692913"
   height="56.692913"
   id="svg2"
   style="display:inline">
  <defs
     id="defs4" />
  <g
     transform="translate(3.0895642,-1007.3063)"
     id="layer1"
     style="display:inline">
    <g
       transform="matrix(4.8740351,-1.3404939,1.3404939,4.8740351,-1420.1159,-4167.1161)"
       id="g3653">
      <path
         d="m 12.755905,3.3661418 a 1.0629921,1.0629921 0 1 1 -2.125984,0 1.0629921,1.0629921 0 1 1 2.125984,0 z"
         transform="matrix(0.75000003,0,0,0.75000003,-6.0100392,1065.6803)"
         id="path3760"
         style="fill:none;stroke:#000000;stroke-width:0.70866138;stroke-linecap:round;stroke-linejoin:round;stroke-miterlimit:4;stroke-opacity:1;stroke-dasharray:none" />
      <path
         d="m 8.5039371,1.948819 a 0.70866144,0.70866144 0 1 1 -1.4173228,0 0.70866144,0.70866144 0 1 1 1.4173228,0 z"
         transform="matrix(-0.5,0.8660254,-0.8660254,-0.5,3.7387116,1062.4284)"
         id="path3762"
         style="fill:#000000;fill-opacity:1;stroke:none" />
      <path
         d="m 8.5039371,1.948819 a 0.70866144,0.70866144 0 1 1 -1.4173228,0 0.70866144,0.70866144 0 1 1 1.4173228,0 z"
         transform="matrix(-0.5,0.8660254,-0.8660254,-0.5,10.64816,1058.4392)"
         id="path3762-1"
         style="fill:#000000;fill-opacity:1;stroke:none;display:inline" />
      <path
         d="m 8.5039371,1.948819 a 0.70866144,0.70866144 0 1 1 -1.4173228,0 0.70866144,0.70866144 0 1 1 1.4173228,0 z"
         transform="matrix(-0.5,0.8660254,-0.8660254,-0.5,10.64816,1066.4176)"
         id="path3762-9"
         style="fill:#000000;fill-opacity:1;stroke:none;display:inline" />
    </g>
  </g>
</svg>
