<?xml version="1.0" encoding="UTF-8" standalone="no"?>
<!-- Created with Inkscape (http://www.inkscape.org/) -->

<svg
   xmlns:dc="http://purl.org/dc/elements/1.1/"
   xmlns:cc="http://creativecommons.org/ns#"
   xmlns:rdf="http://www.w3.org/1999/02/22-rdf-syntax-ns#"
   xmlns:svg="http://www.w3.org/2000/svg"
   xmlns="http://www.w3.org/2000/svg"
   version="1.1"
   width="5.669291"
   height="5.669291"
   id="svg2">
  <defs
     id="defs4" />
  <metadata
     id="metadata7">
    <rdf:RDF>
      <cc:Work
         rdf:about="">
        <dc:format>image/svg+xml</dc:format>
        <dc:type
           rdf:resource="http://purl.org/dc/dcmitype/StillImage" />
        <dc:title></dc:title>
      </cc:Work>
    </rdf:RDF>
  </metadata>
  <path
     d="m 5.5800464,2.8346455 a 2.745401,2.7453995 0 1 1 -5.49080182,0 2.745401,2.7453995 0 1 1 5.49080182,0 z"
     id="path3795"
     style="fill:#ffffff;fill-opacity:1;fill-rule:nonzero;stroke:#000000;stroke-width:0.17716534;stroke-linecap:butt;stroke-linejoin:round;stroke-miterlimit:4.4000001;stroke-opacity:1;stroke-dasharray:none" />
  <path
     d="m 2.3221284,0.4429 1.0250343,0 0,0.3417 c 0,0 -0.5596078,1.2943 -0.1581864,1.6957 0.4014214,0.4014 1.6957379,-0.1582 1.6957379,-0.1582 l 0.3416781,0 0,1.0251 -0.3416781,0 c 0,0 -1.2943135,-0.5596 -1.6957379,-0.1582 -0.4014129,0.4014 0.1581864,1.6957 0.1581864,1.6957 l 0,0.3417 -1.0250343,0 0,-0.3417 c 0,0 0.5596079,-1.2943 0.1581865,-1.6957 C 2.0788935,2.7876 0.78457685,3.3472 0.78457685,3.3472 l -0.34167811,0 0,-1.0251 0.34167811,0 c 0,0 1.29431665,0.5596 1.69573805,0.1582 C 2.8817363,2.0789 2.3221284,0.7846 2.3221284,0.7846 z"
     id="path2987"
     style="fill:#000000;fill-opacity:1;stroke:#000000;stroke-width:0.53149605;stroke-linecap:butt;stroke-linejoin:round;stroke-miterlimit:4.4000001;stroke-opacity:1;stroke-dasharray:none" />
</svg>
