<?xml version="1.0" encoding="UTF-8" standalone="no"?>
<!-- Created with Inkscape (http://www.inkscape.org/) -->

<svg
   xmlns:svg="http://www.w3.org/2000/svg"
   xmlns="http://www.w3.org/2000/svg"
   version="1.1"
   width="35.433071"
   height="35.433079"
   id="svg2"
   style="display:inline">
  <defs
     id="defs4" />
  <g
     transform="translate(413.078,-1135.8503)"
     id="layer1"
     style="display:inline">
    <path
       d="m -4.9606297,6.4068923 a 1.9488189,1.9488189 0 1 1 -3.8976378,0 1.9488189,1.9488189 0 1 1 3.8976378,0 z"
       transform="matrix(0.86363636,0,0,0.86363636,-384.16783,1137.4037)"
       id="path2847"
       style="fill:none;stroke:#000000;stroke-width:0.61541647;stroke-linejoin:round;stroke-miterlimit:4;stroke-opacity:1;stroke-dasharray:none" />
    <path
       d="m -4.9606297,6.4068923 a 1.9488189,1.9488189 0 1 1 -3.8976378,0 1.9488189,1.9488189 0 1 1 3.8976378,0 z"
       transform="matrix(0.86360495,0,0,0.86360495,-403.6563,1146.2622)"
       id="path2847-1"
       style="fill:none;stroke:#000000;stroke-width:0.61558062;stroke-linejoin:round;stroke-miterlimit:4;stroke-opacity:1;stroke-dasharray:none;display:inline" />
    <path
       d="m -4.9606297,6.4068923 a 1.9488189,1.9488189 0 1 1 -3.8976378,0 1.9488189,1.9488189 0 1 1 3.8976378,0 z"
       transform="matrix(0.86363636,0,0,0.86363636,-389.39421,1158.7521)"
       id="path2847-1-3"
       style="fill:none;stroke:#000000;stroke-width:0.61541647;stroke-linejoin:round;stroke-miterlimit:4;stroke-opacity:1;stroke-dasharray:none;display:inline" />
  </g>
</svg>
