<?xml version="1.0" encoding="UTF-8" standalone="no"?>
<!-- Created with Inkscape (http://www.inkscape.org/) -->

<svg
   xmlns:svg="http://www.w3.org/2000/svg"
   xmlns="http://www.w3.org/2000/svg"
   version="1.1"
   width="22.677164"
   height="19.488188"
   id="svg2">
  <defs
     id="defs4" />
  <g
     transform="translate(0,-1032.8739)"
     id="layer1">
    <path
       d="m 13,13.933071 a 1.5,1.5 0 1 1 -3,0 1.5,1.5 0 1 1 3,0 z"
       transform="matrix(0.64960631,0,0,0.64960631,6.1489961,1039.7678)"
       id="path2818"
       style="fill:none;stroke:#000000;stroke-width:0.81818175;stroke-miterlimit:4;stroke-opacity:1;stroke-dasharray:none" />
    <g
       transform="matrix(0.96267259,0,0,0.96267259,123.29844,74.242387)"
       id="g4020"
       style="display:inline">
      <path
         d="m -125.95752,1015.6731 0.27557,-6.7226"
         id="path4016"
         style="fill:none;stroke:#000000;stroke-width:0.53149605;stroke-linecap:round;stroke-linejoin:miter;stroke-miterlimit:4;stroke-opacity:1;stroke-dasharray:none" />
      <path
         d="m -124.07492,1009.0844 c 0,0 -3.75643,0.514 -3.73858,1.8079 0.13188,1.9945 3.76856,1.0783 3.83902,2.7677 -0.0333,1.3872 -3.58235,2.1204 -3.58235,2.1204"
         id="path4018"
         style="fill:none;stroke:#000000;stroke-width:0.53149605;stroke-linecap:round;stroke-linejoin:miter;stroke-miterlimit:4;stroke-opacity:1;stroke-dasharray:none" />
    </g>
    <path
       d="m 13,13.933071 a 1.5,1.5 0 1 1 -3,0 1.5,1.5 0 1 1 3,0 z"
       transform="matrix(0.64960631,0,0,0.64960631,6.1489961,1030.0216)"
       id="path2818-9"
       style="fill:none;stroke:#000000;stroke-width:0.81818175;stroke-miterlimit:4;stroke-opacity:1;stroke-dasharray:none" />
  </g>
</svg>
