<?xml version="1.0" encoding="UTF-8" standalone="no"?>
<!-- Created with Inkscape (http://www.inkscape.org/) -->

<svg
   xmlns:svg="http://www.w3.org/2000/svg"
   xmlns="http://www.w3.org/2000/svg"
   version="1.1"
   width="17.007874"
   height="14.881889"
   id="svg2">
  <defs
     id="defs4" />
  <g
     transform="translate(0,-1037.4802)"
     id="layer1">
    <path
       d="m 13,13.933071 a 1.5,1.5 0 1 1 -3,0 1.5,1.5 0 1 1 3,0 z"
       transform="matrix(0.53149607,0,0,0.53149607,4.1633859,1041.5906)"
       id="path2818"
       style="fill:none;stroke:#000000;stroke-width:0.99999994;stroke-miterlimit:4;stroke-opacity:1;stroke-dasharray:none" />
    <g
       transform="matrix(0.72200444,0,0,0.72200444,92.699101,318.01475)"
       id="g4020"
       style="display:inline">
      <path
         d="m -125.95752,1015.6731 0.27557,-6.7226"
         id="path4016"
         style="fill:none;stroke:#000000;stroke-width:0.70866138;stroke-linecap:round;stroke-linejoin:miter;stroke-miterlimit:4;stroke-opacity:1;stroke-dasharray:none" />
      <path
         d="m -124.07492,1009.0844 c 0,0 -3.75643,0.514 -3.73858,1.8079 0.13188,1.9945 3.76856,1.0783 3.83902,2.7677 -0.0333,1.3872 -3.58235,2.1204 -3.58235,2.1204"
         id="path4018"
         style="fill:none;stroke:#000000;stroke-width:0.70866138;stroke-linecap:round;stroke-linejoin:miter;stroke-miterlimit:4;stroke-opacity:1;stroke-dasharray:none" />
    </g>
    <path
       d="m 13,13.933071 a 1.5,1.5 0 1 1 -3,0 1.5,1.5 0 1 1 3,0 z"
       transform="matrix(0.53149607,0,0,0.53149607,4.1633857,1033.7953)"
       id="path2818-4"
       style="fill:none;stroke:#000000;stroke-width:0.99999994;stroke-miterlimit:4;stroke-opacity:1;stroke-dasharray:none" />
  </g>
</svg>
