<?xml version="1.0" encoding="UTF-8" standalone="no"?>
<!-- Created with Inkscape (http://www.inkscape.org/) -->

<svg
   xmlns:dc="http://purl.org/dc/elements/1.1/"
   xmlns:cc="http://creativecommons.org/ns#"
   xmlns:rdf="http://www.w3.org/1999/02/22-rdf-syntax-ns#"
   xmlns:svg="http://www.w3.org/2000/svg"
   xmlns="http://www.w3.org/2000/svg"
   version="1.1"
   width="22.677164"
   height="19.84252"
   id="svg2"
   style="display:inline">
  <defs
     id="defs4" />
  <metadata
     id="metadata7">
    <rdf:RDF>
      <cc:Work
         rdf:about="">
        <dc:format>image/svg+xml</dc:format>
        <dc:type
           rdf:resource="http://purl.org/dc/dcmitype/StillImage" />
        <dc:title></dc:title>
      </cc:Work>
    </rdf:RDF>
  </metadata>
  <g
     transform="translate(181.40587,-914.22378)"
     id="layer1"
     style="display:inline">
    <path
       d="m -178.56622,933.80532 -0.01,-2.31267"
       id="path2967"
       style="fill:#000000;fill-opacity:1;fill-rule:nonzero;stroke:#000000;stroke-width:0.52197945;stroke-linecap:round;stroke-linejoin:round;stroke-miterlimit:4;stroke-opacity:1;stroke-dasharray:none" />
    <path
       d="m -179.81338,933.80056 -0.4547,-1.13675"
       id="path2969"
       style="fill:#000000;fill-opacity:1;fill-rule:nonzero;stroke:#000000;stroke-width:0.53149605;stroke-linecap:round;stroke-linejoin:round;stroke-miterlimit:4;stroke-opacity:1;stroke-dasharray:none" />
    <path
       d="m -177.32917,933.80056 0.59938,-1.09541"
       id="path2971"
       style="fill:#000000;fill-opacity:1;fill-rule:nonzero;stroke:#000000;stroke-width:0.53149605;stroke-linecap:round;stroke-linejoin:round;stroke-miterlimit:4;stroke-opacity:1;stroke-dasharray:none" />
    <path
       d="m 117.02618,-36.755943 a 0.61872,0.61872 0 1 1 -1.23744,0 0.61872,0.61872 0 1 1 1.23744,0 z"
       transform="matrix(0.12253427,0,0,0.12253427,-195.31544,938.21584)"
       id="path2973"
       style="fill:#000000;fill-opacity:1;fill-rule:nonzero;stroke:#000000;stroke-width:4.54593611;stroke-linecap:round;stroke-linejoin:round;stroke-miterlimit:4;stroke-opacity:1;stroke-dasharray:none" />
    <path
       d="m 161.13196,-36.04884 a 0.61871845,0.61871845 0 1 1 -1.23743,0 0.61871845,0.61871845 0 1 1 1.23743,0 z"
       transform="matrix(0.12253427,0,0,0.12253427,-195.75928,938.12919)"
       id="path2975"
       style="fill:#000000;fill-opacity:1;fill-rule:nonzero;stroke:#000000;stroke-width:4.54593611;stroke-linecap:round;stroke-linejoin:round;stroke-miterlimit:4;stroke-opacity:1;stroke-dasharray:none" />
  </g>
  <g
     transform="translate(192.74445,-924.14529)"
     id="layer1-4"
     style="display:inline">
    <path
       d="m -178.56622,933.80532 -0.01,-2.31267"
       id="path2967-7"
       style="fill:#000000;fill-opacity:1;fill-rule:nonzero;stroke:#000000;stroke-width:0.52197945;stroke-linecap:round;stroke-linejoin:round;stroke-miterlimit:4;stroke-opacity:1;stroke-dasharray:none" />
    <path
       d="m -179.81338,933.80056 -0.4547,-1.13675"
       id="path2969-8"
       style="fill:#000000;fill-opacity:1;fill-rule:nonzero;stroke:#000000;stroke-width:0.53149605;stroke-linecap:round;stroke-linejoin:round;stroke-miterlimit:4;stroke-opacity:1;stroke-dasharray:none" />
    <path
       d="m -177.32917,933.80056 0.59938,-1.09541"
       id="path2971-4"
       style="fill:#000000;fill-opacity:1;fill-rule:nonzero;stroke:#000000;stroke-width:0.53149605;stroke-linecap:round;stroke-linejoin:round;stroke-miterlimit:4;stroke-opacity:1;stroke-dasharray:none" />
    <path
       d="m 117.02618,-36.755943 a 0.61872,0.61872 0 1 1 -1.23744,0 0.61872,0.61872 0 1 1 1.23744,0 z"
       transform="matrix(0.12253427,0,0,0.12253427,-195.31544,938.21584)"
       id="path2973-5"
       style="fill:#000000;fill-opacity:1;fill-rule:nonzero;stroke:#000000;stroke-width:4.54593611;stroke-linecap:round;stroke-linejoin:round;stroke-miterlimit:4;stroke-opacity:1;stroke-dasharray:none" />
    <path
       d="m 161.13196,-36.04884 a 0.61871845,0.61871845 0 1 1 -1.23743,0 0.61871845,0.61871845 0 1 1 1.23743,0 z"
       transform="matrix(0.12253427,0,0,0.12253427,-195.75928,938.12919)"
       id="path2975-0"
       style="fill:#000000;fill-opacity:1;fill-rule:nonzero;stroke:#000000;stroke-width:4.54593611;stroke-linecap:round;stroke-linejoin:round;stroke-miterlimit:4;stroke-opacity:1;stroke-dasharray:none" />
  </g>
</svg>
