<?xml version="1.0" encoding="UTF-8" standalone="no"?>
<!-- Created with Inkscape (http://www.inkscape.org/) -->

<svg
   xmlns:dc="http://purl.org/dc/elements/1.1/"
   xmlns:cc="http://creativecommons.org/ns#"
   xmlns:rdf="http://www.w3.org/1999/02/22-rdf-syntax-ns#"
   xmlns:svg="http://www.w3.org/2000/svg"
   xmlns="http://www.w3.org/2000/svg"
   version="1.1"
   width="35.433071"
   height="35.433071"
   id="svg2816">
  <metadata
     id="metadata13">
    <rdf:RDF>
      <cc:Work
         rdf:about="">
        <dc:format>image/svg+xml</dc:format>
        <dc:type
           rdf:resource="http://purl.org/dc/dcmitype/StillImage" />
        <dc:title></dc:title>
      </cc:Work>
    </rdf:RDF>
  </metadata>
  <defs
     id="defs2818" />
  <path
     d="m 3.5433071,4.9606302 c 1.278947,-1.683071 1.534736,-1.92351 3.069472,-1.92351 1.534737,0 3.0694728,1.442632 4.0926299,3.366142 C 7.1243581,3.7584362 6.8685691,3.7584362 3.5433071,4.9606302 z"
     id="path3071"
     style="fill:#9d5300;fill-opacity:1;fill-rule:nonzero;stroke:#9d5300;stroke-width:0.53149605;stroke-linejoin:round;stroke-miterlimit:4;stroke-opacity:1;stroke-dasharray:none" />
  <path
     d="m 10.629921,17.716536 c 1.214201,-2.235457 2.428402,-3.073754 3.642604,-3.073753 1.214202,0 2.73195,1.397159 3.642601,3.073753 -3.642601,-1.956025 -3.33905,-2.794321 -7.285205,0 z"
     id="path3073"
     style="fill:#9d5300;fill-opacity:1;fill-rule:nonzero;stroke:#9d5300;stroke-width:0.53149611;stroke-linejoin:round;stroke-miterlimit:4;stroke-opacity:1;stroke-dasharray:none" />
  <path
     d="m 17.915126,17.716536 c 1.214204,-2.235457 1.743585,-3.263004 3.642602,-3.353186 1.899021,-0.09018 3.035508,1.676593 4.856804,3.632618 -3.6426,-2.514889 -6.071,-2.514889 -8.499406,-0.279432 z"
     id="path3075"
     style="fill:#9d5300;fill-opacity:1;stroke:#9d5300;stroke-width:0.53100002;stroke-linecap:round;stroke-linejoin:round;stroke-miterlimit:4;stroke-opacity:1;stroke-dasharray:none" />
  <path
     d="m 18.425197,30.472441 c 1.214203,-1.956025 1.62891,-2.215228 3.035504,-2.235457 1.406593,-0.02025 2.731952,0.279432 3.642602,2.514886 -1.821302,-1.67659 -4.553253,-1.67659 -6.678106,-0.279429 z"
     id="path3845"
     style="fill:#9d5300;fill-opacity:1;fill-rule:nonzero;stroke:#9d5300;stroke-width:0.53149611;stroke-linecap:round;stroke-linejoin:round;stroke-miterlimit:4;stroke-opacity:1;stroke-dasharray:none" />
</svg>
