<?xml version="1.0" encoding="UTF-8" standalone="no"?>
<!-- Created with Inkscape (http://www.inkscape.org/) -->

<svg
   xmlns:dc="http://purl.org/dc/elements/1.1/"
   xmlns:cc="http://creativecommons.org/ns#"
   xmlns:rdf="http://www.w3.org/1999/02/22-rdf-syntax-ns#"
   xmlns:svg="http://www.w3.org/2000/svg"
   xmlns="http://www.w3.org/2000/svg"
   version="1.1"
   width="70.866142"
   height="70.866142"
   id="svg2816">
  <metadata
     id="metadata13">
    <rdf:RDF>
      <cc:Work
         rdf:about="">
        <dc:format>image/svg+xml</dc:format>
        <dc:type
           rdf:resource="http://purl.org/dc/dcmitype/StillImage" />
        <dc:title></dc:title>
      </cc:Work>
    </rdf:RDF>
  </metadata>
  <defs
     id="defs2818" />
  <path
     d="m 48.188976,38.267717 c 0,11.391106 -5.156357,13.75028 -6.875141,15.46907 -10.312711,-3.437574 -10.312711,-3.437574 -18.906637,-15.46907 0,-11.391106 5.771448,-20.625421 12.890889,-20.625421 7.119441,0 12.890889,9.234315 12.890889,20.625421 z"
     id="path3947"
     style="fill:#ffffff;fill-opacity:1;stroke:none" />
  <path
     d="m 15.590551,28.346457 a 1.4173229,1.4173229 0 1 1 -2.834646,0 1.4173229,1.4173229 0 1 1 2.834646,0 z"
     transform="matrix(0.62499998,0,0,0.62499998,11.692914,16.299214)"
     id="path2988"
     style="fill:#9d5300;fill-opacity:1;fill-rule:nonzero;stroke:none" />
  <path
     d="m 15.590551,28.346457 a 1.4173229,1.4173229 0 1 1 -2.834646,0 1.4173229,1.4173229 0 1 1 2.834646,0 z"
     transform="matrix(0.62499998,0,0,0.62499998,15.944882,4.2519697)"
     id="path2988-7"
     style="fill:#9d5300;fill-opacity:1;fill-rule:nonzero;stroke:none" />
  <path
     d="m 15.590551,28.346457 a 1.4173229,1.4173229 0 1 1 -2.834646,0 1.4173229,1.4173229 0 1 1 2.834646,0 z"
     transform="matrix(0.62499998,0,0,0.62499998,24.271654,-2.8346445)"
     id="path2988-8"
     style="fill:#9d5300;fill-opacity:1;fill-rule:nonzero;stroke:none" />
  <path
     d="m 15.590551,28.346457 a 1.4173229,1.4173229 0 1 1 -2.834646,0 1.4173229,1.4173229 0 1 1 2.834646,0 z"
     transform="matrix(0.62499998,0,0,0.62499998,27.814961,-2.8346445)"
     id="path2988-45"
     style="fill:#9d5300;fill-opacity:1;fill-rule:nonzero;stroke:none" />
  <path
     d="m 15.590551,28.346457 a 1.4173229,1.4173229 0 1 1 -2.834646,0 1.4173229,1.4173229 0 1 1 2.834646,0 z"
     transform="matrix(0.62499998,0,0,0.62499998,34.901575,1.417324)"
     id="path2988-0"
     style="fill:#9d5300;fill-opacity:1;fill-rule:nonzero;stroke:none" />
  <path
     d="m 15.590551,28.346457 a 1.4173229,1.4173229 0 1 1 -2.834646,0 1.4173229,1.4173229 0 1 1 2.834646,0 z"
     transform="matrix(0.37499999,0,0,0.37499999,18.658446,17.776078)"
     id="path2988-4-3"
     style="fill:#9d5300;fill-opacity:1;fill-rule:nonzero;stroke:none" />
  <path
     d="m 15.590551,28.346457 a 1.4173229,1.4173229 0 1 1 -2.834646,0 1.4173229,1.4173229 0 1 1 2.834646,0 z"
     transform="matrix(0.37499999,0,0,0.37499999,17.362205,23.208662)"
     id="path2988-4-3-6"
     style="fill:#9d5300;fill-opacity:1;fill-rule:nonzero;stroke:none" />
  <path
     d="m 15.590551,28.346457 a 1.4173229,1.4173229 0 1 1 -2.834646,0 1.4173229,1.4173229 0 1 1 2.834646,0 z"
     transform="matrix(0.37499999,0,0,0.37499999,17.127484,26.100927)"
     id="path2988-4-3-1"
     style="fill:#9d5300;fill-opacity:1;fill-rule:nonzero;stroke:none" />
  <path
     d="m 15.590551,28.346457 a 1.4173229,1.4173229 0 1 1 -2.834646,0 1.4173229,1.4173229 0 1 1 2.834646,0 z"
     transform="matrix(0.37499999,0,0,0.37499999,19.477982,30.966097)"
     id="path2988-4-3-0"
     style="fill:#9d5300;fill-opacity:1;fill-rule:nonzero;stroke:none" />
  <path
     d="m 15.590551,28.346457 a 1.4173229,1.4173229 0 1 1 -2.834646,0 1.4173229,1.4173229 0 1 1 2.834646,0 z"
     transform="matrix(0.37499999,0,0,0.37499999,22.341939,34.799887)"
     id="path2988-4-3-63"
     style="fill:#9d5300;fill-opacity:1;fill-rule:nonzero;stroke:none" />
  <path
     d="m 15.590551,28.346457 a 1.4173229,1.4173229 0 1 1 -2.834646,0 1.4173229,1.4173229 0 1 1 2.834646,0 z"
     transform="matrix(0.37499999,0,0,0.37499999,26.682158,39.189883)"
     id="path2988-4-3-2"
     style="fill:#9d5300;fill-opacity:1;fill-rule:nonzero;stroke:none" />
  <path
     d="m 15.590551,28.346457 a 1.4173229,1.4173229 0 1 1 -2.834646,0 1.4173229,1.4173229 0 1 1 2.834646,0 z"
     transform="matrix(0.37499999,0,0,0.37499999,32.140594,41.793686)"
     id="path2988-4-3-06"
     style="fill:#9d5300;fill-opacity:1;fill-rule:nonzero;stroke:none" />
  <path
     d="m 15.590551,28.346457 a 1.4173229,1.4173229 0 1 1 -2.834646,0 1.4173229,1.4173229 0 1 1 2.834646,0 z"
     transform="matrix(0.37499999,0,0,0.37499999,36.323895,42.805861)"
     id="path2988-4-3-15"
     style="fill:#9d5300;fill-opacity:1;fill-rule:nonzero;stroke:none" />
  <path
     d="m 15.590551,28.346457 a 1.4173229,1.4173229 0 1 1 -2.834646,0 1.4173229,1.4173229 0 1 1 2.834646,0 z"
     transform="matrix(0.37499999,0,0,0.37499999,40.007278,39.107469)"
     id="path2988-4-3-5"
     style="fill:#9d5300;fill-opacity:1;fill-rule:nonzero;stroke:none" />
  <path
     d="m 15.590551,28.346457 a 1.4173229,1.4173229 0 1 1 -2.834646,0 1.4173229,1.4173229 0 1 1 2.834646,0 z"
     transform="matrix(0.37499999,0,0,0.37499999,42.27149,33.696662)"
     id="path2988-4-3-4"
     style="fill:#9d5300;fill-opacity:1;fill-rule:nonzero;stroke:none" />
  <path
     d="m 15.590551,28.346457 a 1.4173229,1.4173229 0 1 1 -2.834646,0 1.4173229,1.4173229 0 1 1 2.834646,0 z"
     transform="matrix(0.37499999,0,0,0.37499999,42.862433,28.559732)"
     id="path2988-4-3-7"
     style="fill:#9d5300;fill-opacity:1;fill-rule:nonzero;stroke:none" />
  <path
     d="m 15.590551,28.346457 a 1.4173229,1.4173229 0 1 1 -2.834646,0 1.4173229,1.4173229 0 1 1 2.834646,0 z"
     transform="matrix(0.37499999,0,0,0.37499999,42.302591,22.077877)"
     id="path2988-4-3-65"
     style="fill:#9d5300;fill-opacity:1;fill-rule:nonzero;stroke:none" />
  <path
     d="m 15.590551,28.346457 a 1.4173229,1.4173229 0 1 1 -2.834646,0 1.4173229,1.4173229 0 1 1 2.834646,0 z"
     transform="matrix(0.37499999,0,0,0.37499999,40.570014,15.866946)"
     id="path2988-4-3-69"
     style="fill:#9d5300;fill-opacity:1;fill-rule:nonzero;stroke:none" />
  <path
     d="m 15.590551,28.346457 a 1.4173229,1.4173229 0 1 1 -2.834646,0 1.4173229,1.4173229 0 1 1 2.834646,0 z"
     transform="matrix(0.37499999,0,0,0.37499999,37.173516,10.516497)"
     id="path2988-4-3-3"
     style="fill:#9d5300;fill-opacity:1;fill-rule:nonzero;stroke:none" />
  <path
     d="m 15.590551,28.346457 a 1.4173229,1.4173229 0 1 1 -2.834646,0 1.4173229,1.4173229 0 1 1 2.834646,0 z"
     transform="matrix(0.37499999,0,0,0.37499999,32.106237,7.290782)"
     id="path2988-4-3-74"
     style="fill:#9d5300;fill-opacity:1;fill-rule:nonzero;stroke:none" />
  <path
     d="m 15.590551,28.346457 a 1.4173229,1.4173229 0 1 1 -2.834646,0 1.4173229,1.4173229 0 1 1 2.834646,0 z"
     transform="matrix(0.37499999,0,0,0.37499999,28.669809,7.1180993)"
     id="path2988-4-3-52"
     style="fill:#9d5300;fill-opacity:1;fill-rule:nonzero;stroke:none" />
  <path
     d="m 15.590551,28.346457 a 1.4173229,1.4173229 0 1 1 -2.834646,0 1.4173229,1.4173229 0 1 1 2.834646,0 z"
     transform="matrix(0.37499999,0,0,0.37499999,23.215028,10.080462)"
     id="path2988-4-3-54"
     style="fill:#9d5300;fill-opacity:1;fill-rule:nonzero;stroke:none" />
  <path
     d="m 15.590551,28.346457 a 1.4173229,1.4173229 0 1 1 -2.834646,0 1.4173229,1.4173229 0 1 1 2.834646,0 z"
     transform="matrix(0.37499999,0,0,0.37499999,21.047371,12.771765)"
     id="path2988-4-3-744"
     style="fill:#9d5300;fill-opacity:1;fill-rule:nonzero;stroke:none" />
  <path
     d="m 15.590551,28.346457 a 1.4173229,1.4173229 0 1 1 -2.834646,0 1.4173229,1.4173229 0 1 1 2.834646,0 z"
     transform="matrix(0.62499998,0,0,0.62499998,39.330709,8.5039382)"
     id="path2988-3"
     style="fill:#9d5300;fill-opacity:1;fill-rule:nonzero;stroke:none" />
  <path
     d="m 15.590551,28.346457 a 1.4173229,1.4173229 0 1 1 -2.834646,0 1.4173229,1.4173229 0 1 1 2.834646,0 z"
     transform="matrix(0.62499998,0,0,0.62499998,13.110237,24.094489)"
     id="path2988-07"
     style="fill:#9d5300;fill-opacity:1;fill-rule:nonzero;stroke:none" />
  <path
     d="m 15.590551,28.346457 a 1.4173229,1.4173229 0 1 1 -2.834646,0 1.4173229,1.4173229 0 1 1 2.834646,0 z"
     transform="matrix(0.62499998,0,0,0.62499998,17.362205,30.472442)"
     id="path2988-86"
     style="fill:#9d5300;fill-opacity:1;fill-rule:nonzero;stroke:none" />
  <path
     d="m 15.590551,28.346457 a 1.4173229,1.4173229 0 1 1 -2.834646,0 1.4173229,1.4173229 0 1 1 2.834646,0 z"
     transform="matrix(0.62499998,0,0,0.62499998,33.484252,38.267718)"
     id="path2988-88"
     style="fill:#9d5300;fill-opacity:1;fill-rule:nonzero;stroke:none" />
  <path
     d="m 15.590551,28.346457 a 1.4173229,1.4173229 0 1 1 -2.834646,0 1.4173229,1.4173229 0 1 1 2.834646,0 z"
     transform="matrix(0.62499998,0,0,0.62499998,40.748032,28.523623)"
     id="path2988-43"
     style="fill:#9d5300;fill-opacity:1;fill-rule:nonzero;stroke:none" />
  <path
     d="m 15.590551,28.346457 a 1.4173229,1.4173229 0 1 1 -2.834646,0 1.4173229,1.4173229 0 1 1 2.834646,0 z"
     transform="matrix(0.62499998,0,0,0.62499998,41.456693,16.299214)"
     id="path2988-1"
     style="fill:#9d5300;fill-opacity:1;fill-rule:nonzero;stroke:none" />
  <path
     d="m 15.590551,28.346457 a 1.4173229,1.4173229 0 1 1 -2.834646,0 1.4173229,1.4173229 0 1 1 2.834646,0 z"
     transform="matrix(0.37499999,0,0,0.37499999,19.789589,15.010713)"
     id="path2988-4-3-49"
     style="fill:#9d5300;fill-opacity:1;fill-rule:nonzero;stroke:none" />
  <path
     d="m 15.590551,28.346457 a 1.4173229,1.4173229 0 1 1 -2.834646,0 1.4173229,1.4173229 0 1 1 2.834646,0 z"
     transform="matrix(0.37499999,0,0,0.37499999,17.939077,20.26987)"
     id="path2988-4-3-20"
     style="fill:#9d5300;fill-opacity:1;fill-rule:nonzero;stroke:none" />
  <path
     d="m 15.590551,28.346457 a 1.4173229,1.4173229 0 1 1 -2.834646,0 1.4173229,1.4173229 0 1 1 2.834646,0 z"
     transform="matrix(0.37499999,0,0,0.37499999,20.687584,32.623825)"
     id="path2988-4-3-68"
     style="fill:#9d5300;fill-opacity:1;fill-rule:nonzero;stroke:none" />
  <path
     d="m 15.590551,28.346457 a 1.4173229,1.4173229 0 1 1 -2.834646,0 1.4173229,1.4173229 0 1 1 2.834646,0 z"
     transform="matrix(0.37499999,0,0,0.37499999,24.459284,37.258935)"
     id="path2988-4-3-9"
     style="fill:#9d5300;fill-opacity:1;fill-rule:nonzero;stroke:none" />
  <path
     d="m 15.590551,28.346457 a 1.4173229,1.4173229 0 1 1 -2.834646,0 1.4173229,1.4173229 0 1 1 2.834646,0 z"
     transform="matrix(0.37499999,0,0,0.37499999,28.917947,40.488469)"
     id="path2988-4-3-26"
     style="fill:#9d5300;fill-opacity:1;fill-rule:nonzero;stroke:none" />
  <path
     d="m 15.590551,28.346457 a 1.4173229,1.4173229 0 1 1 -2.834646,0 1.4173229,1.4173229 0 1 1 2.834646,0 z"
     transform="matrix(0.37499999,0,0,0.37499999,34.432107,42.583214)"
     id="path2988-4-3-64"
     style="fill:#9d5300;fill-opacity:1;fill-rule:nonzero;stroke:none" />
  <path
     d="m 15.590551,28.346457 a 1.4173229,1.4173229 0 1 1 -2.834646,0 1.4173229,1.4173229 0 1 1 2.834646,0 z"
     transform="matrix(0.37499999,0,0,0.37499999,38.35167,41.055097)"
     id="path2988-4-3-95"
     style="fill:#9d5300;fill-opacity:1;fill-rule:nonzero;stroke:none" />
  <path
     d="m 15.590551,28.346457 a 1.4173229,1.4173229 0 1 1 -2.834646,0 1.4173229,1.4173229 0 1 1 2.834646,0 z"
     transform="matrix(0.37499999,0,0,0.37499999,41.465121,36.350339)"
     id="path2988-4-3-04"
     style="fill:#9d5300;fill-opacity:1;fill-rule:nonzero;stroke:none" />
  <path
     d="m 15.590551,28.346457 a 1.4173229,1.4173229 0 1 1 -2.834646,0 1.4173229,1.4173229 0 1 1 2.834646,0 z"
     transform="matrix(0.37499999,0,0,0.37499999,42.76347,30.932321)"
     id="path2988-4-3-8"
     style="fill:#9d5300;fill-opacity:1;fill-rule:nonzero;stroke:none" />
  <path
     d="m 15.590551,28.346457 a 1.4173229,1.4173229 0 1 1 -2.834646,0 1.4173229,1.4173229 0 1 1 2.834646,0 z"
     transform="matrix(0.37499999,0,0,0.37499999,42.79026,25.27372)"
     id="path2988-4-3-71"
     style="fill:#9d5300;fill-opacity:1;fill-rule:nonzero;stroke:none" />
  <path
     d="m 15.590551,28.346457 a 1.4173229,1.4173229 0 1 1 -2.834646,0 1.4173229,1.4173229 0 1 1 2.834646,0 z"
     transform="matrix(0.37499999,0,0,0.37499999,41.548134,18.516424)"
     id="path2988-4-3-72"
     style="fill:#9d5300;fill-opacity:1;fill-rule:nonzero;stroke:none" />
  <path
     d="m 15.590551,28.346457 a 1.4173229,1.4173229 0 1 1 -2.834646,0 1.4173229,1.4173229 0 1 1 2.834646,0 z"
     transform="matrix(0.37499999,0,0,0.37499999,38.743925,12.507435)"
     id="path2988-4-3-722"
     style="fill:#9d5300;fill-opacity:1;fill-rule:nonzero;stroke:none" />
  <path
     d="m 15.590551,28.346457 a 1.4173229,1.4173229 0 1 1 -2.834646,0 1.4173229,1.4173229 0 1 1 2.834646,0 z"
     transform="matrix(0.37499999,0,0,0.37499999,35.20693,8.7761111)"
     id="path2988-4-3-61"
     style="fill:#9d5300;fill-opacity:1;fill-rule:nonzero;stroke:none" />
  <path
     d="m 15.590551,28.346457 a 1.4173229,1.4173229 0 1 1 -2.834646,0 1.4173229,1.4173229 0 1 1 2.834646,0 z"
     transform="matrix(0.37499999,0,0,0.37499999,25.932731,8.0510671)"
     id="path2988-4-3-061"
     style="fill:#9d5300;fill-opacity:1;fill-rule:nonzero;stroke:none" />
  <path
     d="m 15.590551,28.346457 a 1.4173229,1.4173229 0 1 1 -2.834646,0 1.4173229,1.4173229 0 1 1 2.834646,0 z"
     transform="matrix(0.37499999,0,0,0.37499999,17.943264,28.828796)"
     id="path2988-4-3-59"
     style="fill:#9d5300;fill-opacity:1;fill-rule:nonzero;stroke:none" />
  <path
     d="m 15.590551,28.346457 a 1.4173229,1.4173229 0 1 1 -2.834646,0 1.4173229,1.4173229 0 1 1 2.834646,0 z"
     transform="matrix(0.62499998,0,0,0.62499998,13.818898,7.9724422)"
     id="path2988-7-4"
     style="fill:#9d5300;fill-opacity:1;fill-rule:nonzero;stroke:none" />
  <path
     d="m 15.590551,28.346457 a 1.4173229,1.4173229 0 1 1 -2.834646,0 1.4173229,1.4173229 0 1 1 2.834646,0 z"
     transform="matrix(0.62499998,0,0,0.62499998,12.57874,12.047245)"
     id="path2988-7-9"
     style="fill:#9d5300;fill-opacity:1;fill-rule:nonzero;stroke:none" />
  <path
     d="m 15.590551,28.346457 a 1.4173229,1.4173229 0 1 1 -2.834646,0 1.4173229,1.4173229 0 1 1 2.834646,0 z"
     transform="matrix(0.62499998,0,0,0.62499998,11.161418,20.551182)"
     id="path2988-7-0"
     style="fill:#9d5300;fill-opacity:1;fill-rule:nonzero;stroke:none" />
  <path
     d="m 15.590551,28.346457 a 1.4173229,1.4173229 0 1 1 -2.834646,0 1.4173229,1.4173229 0 1 1 2.834646,0 z"
     transform="matrix(0.62499998,0,0,0.62499998,15.236221,27.637796)"
     id="path2988-7-91"
     style="fill:#9d5300;fill-opacity:1;fill-rule:nonzero;stroke:none" />
  <path
     d="m 15.590551,28.346457 a 1.4173229,1.4173229 0 1 1 -2.834646,0 1.4173229,1.4173229 0 1 1 2.834646,0 z"
     transform="matrix(0.62499998,0,0,0.62499998,20.196851,33.129922)"
     id="path2988-7-7"
     style="fill:#9d5300;fill-opacity:1;fill-rule:nonzero;stroke:none" />
  <path
     d="m 15.590551,28.346457 a 1.4173229,1.4173229 0 1 1 -2.834646,0 1.4173229,1.4173229 0 1 1 2.834646,0 z"
     transform="matrix(0.62499998,0,0,0.62499998,23.031496,35.433072)"
     id="path2988-7-71"
     style="fill:#9d5300;fill-opacity:1;fill-rule:nonzero;stroke:none" />
  <path
     d="m 15.590551,28.346457 a 1.4173229,1.4173229 0 1 1 -2.834646,0 1.4173229,1.4173229 0 1 1 2.834646,0 z"
     transform="matrix(0.62499998,0,0,0.62499998,26.574803,37.02756)"
     id="path2988-7-1"
     style="fill:#9d5300;fill-opacity:1;fill-rule:nonzero;stroke:none" />
  <path
     d="m 15.590551,28.346457 a 1.4173229,1.4173229 0 1 1 -2.834646,0 1.4173229,1.4173229 0 1 1 2.834646,0 z"
     transform="matrix(0.62499998,0,0,0.62499998,36.496063,35.433072)"
     id="path2988-7-5"
     style="fill:#9d5300;fill-opacity:1;fill-rule:nonzero;stroke:none" />
  <path
     d="m 15.590551,28.346457 a 1.4173229,1.4173229 0 1 1 -2.834646,0 1.4173229,1.4173229 0 1 1 2.834646,0 z"
     transform="matrix(0.62499998,0,0,0.62499998,29.586615,38.267718)"
     id="path2988-7-97"
     style="fill:#9d5300;fill-opacity:1;fill-rule:nonzero;stroke:none" />
  <path
     d="m 15.590551,28.346457 a 1.4173229,1.4173229 0 1 1 -2.834646,0 1.4173229,1.4173229 0 1 1 2.834646,0 z"
     transform="matrix(0.62499998,0,0,0.62499998,39.330709,32.598426)"
     id="path2988-7-76"
     style="fill:#9d5300;fill-opacity:1;fill-rule:nonzero;stroke:none" />
  <path
     d="m 15.590551,28.346457 a 1.4173229,1.4173229 0 1 1 -2.834646,0 1.4173229,1.4173229 0 1 1 2.834646,0 z"
     transform="matrix(0.62499998,0,0,0.62499998,41.456693,24.094489)"
     id="path2988-7-73"
     style="fill:#9d5300;fill-opacity:1;fill-rule:nonzero;stroke:none" />
  <path
     d="m 15.590551,28.346457 a 1.4173229,1.4173229 0 1 1 -2.834646,0 1.4173229,1.4173229 0 1 1 2.834646,0 z"
     transform="matrix(0.62499998,0,0,0.62499998,41.456693,20.019686)"
     id="path2988-7-6"
     style="fill:#9d5300;fill-opacity:1;fill-rule:nonzero;stroke:none" />
  <path
     d="m 15.590551,28.346457 a 1.4173229,1.4173229 0 1 1 -2.834646,0 1.4173229,1.4173229 0 1 1 2.834646,0 z"
     transform="matrix(0.62499998,0,0,0.62499998,40.748032,12.224411)"
     id="path2988-7-56"
     style="fill:#9d5300;fill-opacity:1;fill-rule:nonzero;stroke:none" />
  <path
     d="m 15.590551,28.346457 a 1.4173229,1.4173229 0 1 1 -2.834646,0 1.4173229,1.4173229 0 1 1 2.834646,0 z"
     transform="matrix(0.62499998,0,0,0.62499998,37.204725,4.9606311)"
     id="path2988-7-3"
     style="fill:#9d5300;fill-opacity:1;fill-rule:nonzero;stroke:none" />
  <path
     d="m 15.590551,28.346457 a 1.4173229,1.4173229 0 1 1 -2.834646,0 1.4173229,1.4173229 0 1 1 2.834646,0 z"
     transform="matrix(0.62499998,0,0,0.62499998,31.535433,-1.2401563)"
     id="path2988-7-94"
     style="fill:#9d5300;fill-opacity:1;fill-rule:nonzero;stroke:none" />
  <path
     d="m 15.590551,28.346457 a 1.4173229,1.4173229 0 1 1 -2.834646,0 1.4173229,1.4173229 0 1 1 2.834646,0 z"
     transform="matrix(0.62499998,0,0,0.62499998,20.905512,-1.4173216)"
     id="path2988-7-8"
     style="fill:#9d5300;fill-opacity:1;fill-rule:nonzero;stroke:none" />
  <path
     d="m 15.590551,28.346457 a 1.4173229,1.4173229 0 1 1 -2.834646,0 1.4173229,1.4173229 0 1 1 2.834646,0 z"
     transform="matrix(0.62499998,0,0,0.62499998,18.070866,0.70866263)"
     id="path2988-7-12"
     style="fill:#9d5300;fill-opacity:1;fill-rule:nonzero;stroke:none" />
  <path
     d="m 5.6692914,17.716536 a 0.70866144,0.70866144 0 1 1 -1.4173229,0 0.70866144,0.70866144 0 1 1 1.4173229,0 z"
     transform="matrix(0.49999999,0,0,0.49999999,21.968504,23.740158)"
     id="path2990-9"
     style="fill:#9d5300;fill-opacity:1;fill-rule:nonzero;stroke:none" />
  <path
     d="m 5.6692914,17.716536 a 0.70866144,0.70866144 0 1 1 -1.4173229,0 0.70866144,0.70866144 0 1 1 1.4173229,0 z"
     transform="matrix(0.49999999,0,0,0.49999999,23.740158,18.425198)"
     id="path2990-3"
     style="fill:#9d5300;fill-opacity:1;fill-rule:nonzero;stroke:none" />
  <path
     d="m 5.6692914,17.716536 a 0.70866144,0.70866144 0 1 1 -1.4173229,0 0.70866144,0.70866144 0 1 1 1.4173229,0 z"
     transform="matrix(0.49999999,0,0,0.49999999,27.283465,13.464568)"
     id="path2990-90"
     style="fill:#9d5300;fill-opacity:1;fill-rule:nonzero;stroke:none" />
  <path
     d="m 5.6692914,17.716536 a 0.70866144,0.70866144 0 1 1 -1.4173229,0 0.70866144,0.70866144 0 1 1 1.4173229,0 z"
     transform="matrix(0.49999999,0,0,0.49999999,36.496063,11.338583)"
     id="path2990-8"
     style="fill:#9d5300;fill-opacity:1;fill-rule:nonzero;stroke:none" />
  <path
     d="m 5.6692914,17.716536 a 0.70866144,0.70866144 0 1 1 -1.4173229,0 0.70866144,0.70866144 0 1 1 1.4173229,0 z"
     transform="matrix(0.49999999,0,0,0.49999999,40.748032,16.653544)"
     id="path2990-85"
     style="fill:#9d5300;fill-opacity:1;fill-rule:nonzero;stroke:none" />
  <path
     d="m 5.6692914,17.716536 a 0.70866144,0.70866144 0 1 1 -1.4173229,0 0.70866144,0.70866144 0 1 1 1.4173229,0 z"
     transform="matrix(0.49999999,0,0,0.49999999,25.15748,33.307087)"
     id="path2990-0"
     style="fill:#9d5300;fill-opacity:1;fill-rule:nonzero;stroke:none" />
  <path
     d="m 5.6692914,17.716536 a 0.70866144,0.70866144 0 1 1 -1.4173229,0 0.70866144,0.70866144 0 1 1 1.4173229,0 z"
     transform="matrix(0.49999999,0,0,0.49999999,29.409449,38.267717)"
     id="path2990-96"
     style="fill:#9d5300;fill-opacity:1;fill-rule:nonzero;stroke:none" />
  <path
     d="m 5.6692914,17.716536 a 0.70866144,0.70866144 0 1 1 -1.4173229,0 0.70866144,0.70866144 0 1 1 1.4173229,0 z"
     transform="matrix(0.49999999,0,0,0.49999999,33.661417,40.748032)"
     id="path2990-38"
     style="fill:#9d5300;fill-opacity:1;fill-rule:nonzero;stroke:none" />
  <path
     d="m 5.6692914,17.716536 a 0.70866144,0.70866144 0 1 1 -1.4173229,0 0.70866144,0.70866144 0 1 1 1.4173229,0 z"
     transform="matrix(0.49999999,0,0,0.49999999,41.456693,38.622048)"
     id="path2990-5"
     style="fill:#9d5300;fill-opacity:1;fill-rule:nonzero;stroke:none" />
  <path
     d="m 5.6692914,17.716536 a 0.70866144,0.70866144 0 1 1 -1.4173229,0 0.70866144,0.70866144 0 1 1 1.4173229,0 z"
     transform="matrix(0.49999999,0,0,0.49999999,43.582677,31.535434)"
     id="path2990-6"
     style="fill:#9d5300;fill-opacity:1;fill-rule:nonzero;stroke:none" />
  <path
     d="m 5.6692914,17.716536 a 0.70866144,0.70866144 0 1 1 -1.4173229,0 0.70866144,0.70866144 0 1 1 1.4173229,0 z"
     transform="matrix(0.49999999,0,0,0.49999999,42.874016,23.031497)"
     id="path2990-1"
     style="fill:#9d5300;fill-opacity:1;fill-rule:nonzero;stroke:none" />
</svg>
