<?xml version="1.0" encoding="UTF-8" standalone="no"?>
<!-- Created with Inkscape (http://www.inkscape.org/) -->

<svg
   xmlns:dc="http://purl.org/dc/elements/1.1/"
   xmlns:cc="http://creativecommons.org/ns#"
   xmlns:rdf="http://www.w3.org/1999/02/22-rdf-syntax-ns#"
   xmlns:svg="http://www.w3.org/2000/svg"
   xmlns="http://www.w3.org/2000/svg"
   version="1.1"
   width="35.433071"
   height="35.433071"
   id="svg2"
   style="display:inline">
  <metadata
     id="metadata3735">
    <rdf:RDF>
      <cc:Work
         rdf:about="">
        <dc:format>image/svg+xml</dc:format>
        <dc:type
           rdf:resource="http://purl.org/dc/dcmitype/StillImage" />
        <dc:title></dc:title>
      </cc:Work>
    </rdf:RDF>
  </metadata>
  <defs
     id="defs4" />
  <g
     transform="translate(-0.08580467,-2.7320281)"
     id="g4086">
    <path
       d="m 2.863731,28.568697 2.9709868,0.439749 3.2498519,-0.02145 3.2820283,0.02145 3.046066,-5e-6 2.64922,0.418298 c 0,0 0.540491,0.180887 0.536279,0.622083 -0.0042,0.441196 -0.536279,0.579182 -0.536279,0.579182 L 15.466292,30.413492 12.420227,31.035577 9.0631185,31.078487 5.5987549,30.628011 2.7886518,29.78069 c 0,0 -0.5456426,-0.08062 -0.5041024,-0.611357 0.04154,-0.530734 0.5791816,-0.600631 0.5791816,-0.600631 z"
       id="path3316"
       style="fill:#ffffff;fill-opacity:1;stroke:none" />
    <path
       d="m 39.685038,158.36777 a 3.5433071,3.5433071 0 1 1 -7.086614,0 3.5433071,3.5433071 0 1 1 7.086614,0 z"
       transform="matrix(0.29166699,0,0,0.29166699,-1.4455861,-16.163987)"
       id="path4179"
       style="fill:#9d5300;fill-opacity:1;fill-rule:nonzero;stroke:none" />
    <path
       d="m 26.929134,156.24179 a 2.8346457,2.8346457 0 1 1 -5.669292,0 2.8346457,2.8346457 0 1 1 5.669292,0 z"
       transform="matrix(0.29166699,0,0,0.29166699,-1.2388935,-15.750606)"
       id="path4181"
       style="fill:#9d5300;fill-opacity:1;fill-rule:nonzero;stroke:none" />
    <path
       d="m 17.007874,154.1158 a 2.1259842,2.1259842 0 1 1 -4.251969,0 2.1259842,2.1259842 0 1 1 4.251969,0 z"
       transform="matrix(0.29166699,0,0,0.29166699,-1.4455863,-15.750602)"
       id="path4183"
       style="fill:#9d5300;fill-opacity:1;fill-rule:nonzero;stroke:none" />
    <path
       d="m 49.606298,157.6591 a 2.8346457,2.8346457 0 1 1 -5.669292,0 2.8346457,2.8346457 0 1 1 5.669292,0 z"
       transform="matrix(0.36458375,0,0,0.36458375,-4.6493297,-27.453286)"
       id="path4185"
       style="fill:#9d5300;fill-opacity:1;fill-rule:nonzero;stroke:none" />
    <path
       d="m 59.527557,156.95044 a 2.1259842,2.1259842 0 1 1 -4.251968,0 2.1259842,2.1259842 0 1 1 4.251968,0 z"
       transform="matrix(0.34027816,0,0,0.34027816,-4.1325971,-23.690183)"
       id="path4187"
       style="fill:#9d5300;fill-opacity:1;fill-rule:nonzero;stroke:none" />
    <path
       d="m 68.031497,157.6591 a 1.4173229,1.4173229 0 1 1 -2.834646,0 1.4173229,1.4173229 0 1 1 2.834646,0 z"
       transform="matrix(0.43750036,0,0,0.43750036,-11.160132,-38.949198)"
       id="path4189"
       style="fill:#9d5300;fill-opacity:1;fill-rule:nonzero;stroke:none" />
  </g>
  <g
     transform="matrix(0.43750036,0,0,0.43750036,12.89748,8.1496025)"
     id="g2993"
     style="display:inline">
    <path
       d="m 39.685038,158.36777 a 3.5433071,3.5433071 0 1 1 -7.086614,0 3.5433071,3.5433071 0 1 1 7.086614,0 z"
       transform="matrix(0.66666685,0,0,0.66666685,-8.5039386,-102.27145)"
       id="path4179-5"
       style="fill:#9d5300;fill-opacity:1;fill-rule:nonzero;stroke:none" />
    <path
       d="m 26.929134,156.24179 a 2.8346457,2.8346457 0 1 1 -5.669292,0 2.8346457,2.8346457 0 1 1 5.669292,0 z"
       transform="matrix(0.66666685,0,0,0.66666685,-8.0314987,-101.32658)"
       id="path4181-6"
       style="fill:#9d5300;fill-opacity:1;fill-rule:nonzero;stroke:none" />
    <path
       d="m 17.007874,154.1158 a 2.1259842,2.1259842 0 1 1 -4.251969,0 2.1259842,2.1259842 0 1 1 4.251969,0 z"
       transform="matrix(0.66666685,0,0,0.66666685,-8.5039391,-101.32657)"
       id="path4183-9"
       style="fill:#9d5300;fill-opacity:1;fill-rule:nonzero;stroke:none" />
    <path
       d="m 49.606298,157.6591 a 2.8346457,2.8346457 0 1 1 -5.669292,0 2.8346457,2.8346457 0 1 1 5.669292,0 z"
       transform="matrix(0.8333336,0,0,0.8333336,-15.826775,-128.07554)"
       id="path4185-37"
       style="fill:#9d5300;fill-opacity:1;fill-rule:nonzero;stroke:none" />
    <path
       d="m 59.527557,156.95044 a 2.1259842,2.1259842 0 1 1 -4.251968,0 2.1259842,2.1259842 0 1 1 4.251968,0 z"
       transform="matrix(0.777778,0,0,0.777778,-14.645673,-119.47417)"
       id="path4187-4"
       style="fill:#9d5300;fill-opacity:1;fill-rule:nonzero;stroke:none" />
    <path
       d="m 68.031497,157.6591 a 1.4173229,1.4173229 0 1 1 -2.834646,0 1.4173229,1.4173229 0 1 1 2.834646,0 z"
       transform="translate(-30.708597,-154.35189)"
       id="path4189-5"
       style="fill:#9d5300;fill-opacity:1;fill-rule:nonzero;stroke:none" />
  </g>
</svg>
