<?xml version="1.0" encoding="UTF-8" standalone="no"?>
<!-- Created with Inkscape (http://www.inkscape.org/) -->

<svg
   xmlns:dc="http://purl.org/dc/elements/1.1/"
   xmlns:cc="http://creativecommons.org/ns#"
   xmlns:rdf="http://www.w3.org/1999/02/22-rdf-syntax-ns#"
   xmlns:svg="http://www.w3.org/2000/svg"
   xmlns="http://www.w3.org/2000/svg"
   version="1.1"
   width="35.433071"
   height="35.433071"
   id="svg2"
   style="display:inline">
  <metadata
     id="metadata3735">
    <rdf:RDF>
      <cc:Work
         rdf:about="">
        <dc:format>image/svg+xml</dc:format>
        <dc:type
           rdf:resource="http://purl.org/dc/dcmitype/StillImage" />
        <dc:title></dc:title>
      </cc:Work>
    </rdf:RDF>
  </metadata>
  <defs
     id="defs4" />
  <path
     d="m 5.6692914,17.716536 a 0.70866144,0.70866144 0 1 1 -1.4173229,0 0.70866144,0.70866144 0 1 1 1.4173229,0 z"
     transform="matrix(0.49999999,0,0,0.49999999,3.1889764,24.80315)"
     id="path2990"
     style="fill:#9d5300;fill-opacity:1;fill-rule:nonzero;stroke:none" />
  <path
     d="m 5.6692914,17.716536 a 0.70866144,0.70866144 0 1 1 -1.4173229,0 0.70866144,0.70866144 0 1 1 1.4173229,0 z"
     transform="matrix(0.49999999,0,0,0.49999999,27.637795,19.488189)"
     id="path2990-81"
     style="fill:#9d5300;fill-opacity:1;fill-rule:nonzero;stroke:none;display:inline" />
  <path
     d="m 5.6692914,17.716536 a 0.70866144,0.70866144 0 1 1 -1.4173229,0 0.70866144,0.70866144 0 1 1 1.4173229,0 z"
     transform="matrix(0.49999999,0,0,0.49999999,5.6692914,6.7322838)"
     id="path2990-0"
     style="fill:#9d5300;fill-opacity:1;fill-rule:nonzero;stroke:none;display:inline" />
  <path
     d="m 5.6692914,17.716536 a 0.70866144,0.70866144 0 1 1 -1.4173229,0 0.70866144,0.70866144 0 1 1 1.4173229,0 z"
     transform="matrix(0.49999999,0,0,0.49999999,3.8976378,8.5039374)"
     id="path2990-3"
     style="fill:#9d5300;fill-opacity:1;fill-rule:nonzero;stroke:none;display:inline" />
  <path
     d="m 5.6692914,17.716536 a 0.70866144,0.70866144 0 1 1 -1.4173229,0 0.70866144,0.70866144 0 1 1 1.4173229,0 z"
     transform="matrix(0.49999999,0,0,0.49999999,4.2989013e-8,6.7322838)"
     id="path2990-04"
     style="fill:#9d5300;fill-opacity:1;fill-rule:nonzero;stroke:none;display:inline" />
  <path
     d="m 5.6692914,17.716536 a 0.70866144,0.70866144 0 1 1 -1.4173229,0 0.70866144,0.70866144 0 1 1 1.4173229,0 z"
     transform="matrix(0.49999999,0,0,0.49999999,-1.4173228,14.173229)"
     id="path2990-44"
     style="fill:#9d5300;fill-opacity:1;fill-rule:nonzero;stroke:none;display:inline" />
  <path
     d="m 5.6692914,17.716536 a 0.70866144,0.70866144 0 1 1 -1.4173229,0 0.70866144,0.70866144 0 1 1 1.4173229,0 z"
     transform="matrix(0.49999999,0,0,0.49999999,4.2989013e-8,12.755906)"
     id="path2990-47"
     style="fill:#9d5300;fill-opacity:1;fill-rule:nonzero;stroke:none;display:inline" />
  <path
     d="m 5.6692914,17.716536 a 0.70866144,0.70866144 0 1 1 -1.4173229,0 0.70866144,0.70866144 0 1 1 1.4173229,0 z"
     transform="matrix(0.49999999,0,0,0.49999999,7.7952756,11.338583)"
     id="path2990-6"
     style="fill:#9d5300;fill-opacity:1;fill-rule:nonzero;stroke:none;display:inline" />
  <path
     d="m 5.6692914,17.716536 a 0.70866144,0.70866144 0 1 1 -1.4173229,0 0.70866144,0.70866144 0 1 1 1.4173229,0 z"
     transform="matrix(0.49999999,0,0,0.49999999,2.8346457,-2.4803146)"
     id="path2990-7"
     style="fill:#9d5300;fill-opacity:1;fill-rule:nonzero;stroke:none;display:inline" />
  <path
     d="m 5.6692914,17.716536 a 0.70866144,0.70866144 0 1 1 -1.4173229,0 0.70866144,0.70866144 0 1 1 1.4173229,0 z"
     transform="matrix(0.49999999,0,0,0.49999999,21.968504,-3.5433067)"
     id="path2990-59"
     style="fill:#9d5300;fill-opacity:1;fill-rule:nonzero;stroke:none;display:inline" />
  <path
     d="m 5.6692914,17.716536 a 0.70866144,0.70866144 0 1 1 -1.4173229,0 0.70866144,0.70866144 0 1 1 1.4173229,0 z"
     transform="matrix(0.49999999,0,0,0.49999999,5.6692914,-4.9606295)"
     id="path2990-62"
     style="fill:#9d5300;fill-opacity:1;fill-rule:nonzero;stroke:none;display:inline" />
  <path
     d="m 5.6692914,17.716536 a 0.70866144,0.70866144 0 1 1 -1.4173229,0 0.70866144,0.70866144 0 1 1 1.4173229,0 z"
     transform="matrix(0.49999999,0,0,0.49999999,3.7450469e-8,-2.4803146)"
     id="path2990-17"
     style="fill:#9d5300;fill-opacity:1;fill-rule:nonzero;stroke:none;display:inline" />
  <path
     d="m 5.6692914,17.716536 a 0.70866144,0.70866144 0 1 1 -1.4173229,0 0.70866144,0.70866144 0 1 1 1.4173229,0 z"
     transform="matrix(0.49999999,0,0,0.49999999,27.992126,-3.5433067)"
     id="path2990-85"
     style="fill:#9d5300;fill-opacity:1;fill-rule:nonzero;stroke:none;display:inline" />
  <path
     d="m 5.6692914,17.716536 a 0.70866144,0.70866144 0 1 1 -1.4173229,0 0.70866144,0.70866144 0 1 1 1.4173229,0 z"
     transform="matrix(0.49999999,0,0,0.49999999,30.826772,-2.1259839)"
     id="path2990-74"
     style="fill:#9d5300;fill-opacity:1;fill-rule:nonzero;stroke:none;display:inline" />
  <path
     d="m 5.6692914,17.716536 a 0.70866144,0.70866144 0 1 1 -1.4173229,0 0.70866144,0.70866144 0 1 1 1.4173229,0 z"
     transform="matrix(0.49999999,0,0,0.49999999,15.590551,-2.4803146)"
     id="path2990-53"
     style="fill:#9d5300;fill-opacity:1;fill-rule:nonzero;stroke:none;display:inline" />
  <path
     d="m 5.6692914,17.716536 a 0.70866144,0.70866144 0 1 1 -1.4173229,0 0.70866144,0.70866144 0 1 1 1.4173229,0 z"
     transform="matrix(0.49999999,0,0,0.49999999,7.0866142,-6.7322831)"
     id="path2990-88"
     style="fill:#9d5300;fill-opacity:1;fill-rule:nonzero;stroke:none;display:inline" />
  <path
     d="m 5.6692914,17.716536 a 0.70866144,0.70866144 0 1 1 -1.4173229,0 0.70866144,0.70866144 0 1 1 1.4173229,0 z"
     transform="matrix(0.49999999,0,0,0.49999999,12.401575,-6.3779524)"
     id="path2990-318"
     style="fill:#9d5300;fill-opacity:1;fill-rule:nonzero;stroke:none;display:inline" />
  <path
     d="m 5.6692914,17.716536 a 0.70866144,0.70866144 0 1 1 -1.4173229,0 0.70866144,0.70866144 0 1 1 1.4173229,0 z"
     transform="matrix(0.49999999,0,0,0.49999999,25.15748,-6.3779524)"
     id="path2990-96"
     style="fill:#9d5300;fill-opacity:1;fill-rule:nonzero;stroke:none;display:inline" />
  <path
     d="m 5.6692914,17.716536 a 0.70866144,0.70866144 0 1 1 -1.4173229,0 0.70866144,0.70866144 0 1 1 1.4173229,0 z"
     transform="matrix(0.49999999,0,0,0.49999999,9.5669292,-4.2519681)"
     id="path2990-43"
     style="fill:#9d5300;fill-opacity:1;fill-rule:nonzero;stroke:none;display:inline" />
  <path
     d="m 5.6692914,17.716536 a 0.70866144,0.70866144 0 1 1 -1.4173229,0 0.70866144,0.70866144 0 1 1 1.4173229,0 z"
     transform="matrix(0.49999999,0,0,0.49999999,6.3779528,0.70866179)"
     id="path2990-33"
     style="fill:#9d5300;fill-opacity:1;fill-rule:nonzero;stroke:none;display:inline" />
  <path
     d="m 5.6692914,17.716536 a 0.70866144,0.70866144 0 1 1 -1.4173229,0 0.70866144,0.70866144 0 1 1 1.4173229,0 z"
     transform="matrix(0.49999999,0,0,0.49999999,26.929134,3.1889768)"
     id="path2990-86"
     style="fill:#9d5300;fill-opacity:1;fill-rule:nonzero;stroke:none;display:inline" />
  <path
     d="m 5.6692914,17.716536 a 0.70866144,0.70866144 0 1 1 -1.4173229,0 0.70866144,0.70866144 0 1 1 1.4173229,0 z"
     transform="matrix(0.49999999,0,0,0.49999999,24.96063,5.0393705)"
     id="path2990-048"
     style="fill:#9d5300;fill-opacity:1;fill-rule:nonzero;stroke:none;display:inline" />
  <path
     d="m 5.6692914,17.716536 a 0.70866144,0.70866144 0 1 1 -1.4173229,0 0.70866144,0.70866144 0 1 1 1.4173229,0 z"
     transform="matrix(0.49999999,0,0,0.49999999,3.8976378,12.755906)"
     id="path2990-889"
     style="fill:#9d5300;fill-opacity:1;fill-rule:nonzero;stroke:none;display:inline" />
  <path
     d="m 5.6692914,17.716536 a 0.70866144,0.70866144 0 1 1 -1.4173229,0 0.70866144,0.70866144 0 1 1 1.4173229,0 z"
     transform="matrix(0.49999999,0,0,0.49999999,8.1496063,15.590552)"
     id="path2990-77"
     style="fill:#9d5300;fill-opacity:1;fill-rule:nonzero;stroke:none;display:inline" />
  <path
     d="m 5.6692914,17.716536 a 0.70866144,0.70866144 0 1 1 -1.4173229,0 0.70866144,0.70866144 0 1 1 1.4173229,0 z"
     transform="matrix(0.49999999,0,0,0.49999999,6.3779528,19.133859)"
     id="path2990-64"
     style="fill:#9d5300;fill-opacity:1;fill-rule:nonzero;stroke:none;display:inline" />
  <path
     d="m 5.6692914,17.716536 a 0.70866144,0.70866144 0 1 1 -1.4173229,0 0.70866144,0.70866144 0 1 1 1.4173229,0 z"
     transform="matrix(0.49999999,0,0,0.49999999,-0.70866138,22.677166)"
     id="path2990-30"
     style="fill:#9d5300;fill-opacity:1;fill-rule:nonzero;stroke:none;display:inline" />
  <path
     d="m 5.6692914,17.716536 a 0.70866144,0.70866144 0 1 1 -1.4173229,0 0.70866144,0.70866144 0 1 1 1.4173229,0 z"
     transform="matrix(0.49999999,0,0,0.49999999,23.740158,17.716536)"
     id="path2990-54"
     style="fill:#9d5300;fill-opacity:1;fill-rule:nonzero;stroke:none;display:inline" />
  <path
     d="m 5.6692914,17.716536 a 0.70866144,0.70866144 0 1 1 -1.4173229,0 0.70866144,0.70866144 0 1 1 1.4173229,0 z"
     transform="matrix(0.49999999,0,0,0.49999999,20.905512,18.425197)"
     id="path2990-05"
     style="fill:#9d5300;fill-opacity:1;fill-rule:nonzero;stroke:none;display:inline" />
  <path
     d="m 5.6692914,17.716536 a 0.70866144,0.70866144 0 1 1 -1.4173229,0 0.70866144,0.70866144 0 1 1 1.4173229,0 z"
     transform="matrix(0.49999999,0,0,0.49999999,31.181102,16.653544)"
     id="path2990-69"
     style="fill:#9d5300;fill-opacity:1;fill-rule:nonzero;stroke:none;display:inline" />
  <path
     d="m 5.6692914,17.716536 a 0.70866144,0.70866144 0 1 1 -1.4173229,0 0.70866144,0.70866144 0 1 1 1.4173229,0 z"
     transform="matrix(0.49999999,0,0,0.49999999,28.346457,14.527559)"
     id="path2990-22"
     style="fill:#9d5300;fill-opacity:1;fill-rule:nonzero;stroke:none;display:inline" />
  <path
     d="m 5.6692914,17.716536 a 0.70866144,0.70866144 0 1 1 -1.4173229,0 0.70866144,0.70866144 0 1 1 1.4173229,0 z"
     transform="matrix(0.49999999,0,0,0.49999999,-1.4173228,17.007874)"
     id="path2990-477"
     style="fill:#9d5300;fill-opacity:1;fill-rule:nonzero;stroke:none;display:inline" />
  <path
     d="m 5.6692914,17.716536 a 0.70866144,0.70866144 0 1 1 -1.4173229,0 0.70866144,0.70866144 0 1 1 1.4173229,0 z"
     transform="matrix(0.49999999,0,0,0.49999999,-1.4173228,8.5039374)"
     id="path2990-12"
     style="fill:#9d5300;fill-opacity:1;fill-rule:nonzero;stroke:none;display:inline" />
  <path
     d="m 5.6692914,17.716536 a 0.70866144,0.70866144 0 1 1 -1.4173229,0 0.70866144,0.70866144 0 1 1 1.4173229,0 z"
     transform="matrix(0.49999999,0,0,0.49999999,29.76378,2.4803153)"
     id="path2990-36"
     style="fill:#9d5300;fill-opacity:1;fill-rule:nonzero;stroke:none;display:inline" />
  <path
     d="m 5.6692914,17.716536 a 0.70866144,0.70866144 0 1 1 -1.4173229,0 0.70866144,0.70866144 0 1 1 1.4173229,0 z"
     transform="matrix(0.49999999,0,0,0.49999999,5.3149607,12.047244)"
     id="path2990-40"
     style="fill:#9d5300;fill-opacity:1;fill-rule:nonzero;stroke:none;display:inline" />
  <path
     d="m 5.6692914,17.716536 a 0.70866144,0.70866144 0 1 1 -1.4173229,0 0.70866144,0.70866144 0 1 1 1.4173229,0 z"
     transform="matrix(0.49999999,0,0,0.49999999,1.4173229,15.236221)"
     id="path2990-629"
     style="fill:#9d5300;fill-opacity:1;fill-rule:nonzero;stroke:none;display:inline" />
  <path
     d="m 5.6692914,17.716536 a 0.70866144,0.70866144 0 1 1 -1.4173229,0 0.70866144,0.70866144 0 1 1 1.4173229,0 z"
     transform="matrix(0.49999999,0,0,0.49999999,3.745047e-8,19.84252)"
     id="path2990-11"
     style="fill:#9d5300;fill-opacity:1;fill-rule:nonzero;stroke:none;display:inline" />
  <path
     d="m 5.6692914,17.716536 a 0.70866144,0.70866144 0 1 1 -1.4173229,0 0.70866144,0.70866144 0 1 1 1.4173229,0 z"
     transform="matrix(0.49999999,0,0,0.49999999,6.0236221,24.80315)"
     id="path2990-03"
     style="fill:#9d5300;fill-opacity:1;fill-rule:nonzero;stroke:none;display:inline" />
  <path
     d="m 5.6692914,17.716536 a 0.70866144,0.70866144 0 1 1 -1.4173229,0 0.70866144,0.70866144 0 1 1 1.4173229,0 z"
     transform="matrix(0.49999999,0,0,0.49999999,17.716535,24.448819)"
     id="path2990-403"
     style="fill:#9d5300;fill-opacity:1;fill-rule:nonzero;stroke:none;display:inline" />
  <path
     d="m 5.6692914,17.716536 a 0.70866144,0.70866144 0 1 1 -1.4173229,0 0.70866144,0.70866144 0 1 1 1.4173229,0 z"
     transform="matrix(0.49999999,0,0,0.49999999,13.818898,24.80315)"
     id="path2990-91"
     style="fill:#9d5300;fill-opacity:1;fill-rule:nonzero;stroke:none;display:inline" />
  <path
     d="m 5.6692914,17.716536 a 0.70866144,0.70866144 0 1 1 -1.4173229,0 0.70866144,0.70866144 0 1 1 1.4173229,0 z"
     transform="matrix(0.49999999,0,0,0.49999999,9.5669292,24.80315)"
     id="path2990-338"
     style="fill:#9d5300;fill-opacity:1;fill-rule:nonzero;stroke:none;display:inline" />
  <path
     d="m 5.6692914,17.716536 a 0.70866144,0.70866144 0 1 1 -1.4173229,0 0.70866144,0.70866144 0 1 1 1.4173229,0 z"
     transform="matrix(0.49999999,0,0,0.49999999,31.535433,24.094489)"
     id="path2990-29"
     style="fill:#9d5300;fill-opacity:1;fill-rule:nonzero;stroke:none;display:inline" />
  <path
     d="m 5.6692914,17.716536 a 0.70866144,0.70866144 0 1 1 -1.4173229,0 0.70866144,0.70866144 0 1 1 1.4173229,0 z"
     transform="matrix(0.49999999,0,0,0.49999999,23.740158,21.259843)"
     id="path2990-61"
     style="fill:#9d5300;fill-opacity:1;fill-rule:nonzero;stroke:none;display:inline" />
  <path
     d="m 5.6692914,17.716536 a 0.70866144,0.70866144 0 1 1 -1.4173229,0 0.70866144,0.70866144 0 1 1 1.4173229,0 z"
     transform="matrix(0.49999999,0,0,0.49999999,28.700787,17.716536)"
     id="path2990-15"
     style="fill:#9d5300;fill-opacity:1;fill-rule:nonzero;stroke:none;display:inline" />
  <path
     d="m 5.6692914,17.716536 a 0.70866144,0.70866144 0 1 1 -1.4173229,0 0.70866144,0.70866144 0 1 1 1.4173229,0 z"
     transform="matrix(0.49999999,0,0,0.49999999,3.8976378,19.133859)"
     id="path2990-99"
     style="fill:#9d5300;fill-opacity:1;fill-rule:nonzero;stroke:none;display:inline" />
  <path
     d="m 5.6692914,17.716536 a 0.70866144,0.70866144 0 1 1 -1.4173229,0 0.70866144,0.70866144 0 1 1 1.4173229,0 z"
     transform="matrix(0.49999999,0,0,0.49999999,1.7716536,17.716536)"
     id="path2990-14"
     style="fill:#9d5300;fill-opacity:1;fill-rule:nonzero;stroke:none;display:inline" />
  <path
     d="m 5.6692914,17.716536 a 0.70866144,0.70866144 0 1 1 -1.4173229,0 0.70866144,0.70866144 0 1 1 1.4173229,0 z"
     transform="matrix(0.49999999,0,0,0.49999999,4.96063,14.527559)"
     id="path2990-910"
     style="fill:#9d5300;fill-opacity:1;fill-rule:nonzero;stroke:none;display:inline" />
  <path
     d="m 5.6692914,17.716536 a 0.70866144,0.70866144 0 1 1 -1.4173229,0 0.70866144,0.70866144 0 1 1 1.4173229,0 z"
     transform="matrix(0.49999999,0,0,0.49999999,4.2519685,17.007874)"
     id="path2990-758"
     style="fill:#9d5300;fill-opacity:1;fill-rule:nonzero;stroke:none;display:inline" />
  <path
     d="m 5.6692914,17.716536 a 0.70866144,0.70866144 0 1 1 -1.4173229,0 0.70866144,0.70866144 0 1 1 1.4173229,0 z"
     transform="matrix(0.49999999,0,0,0.49999999,-1.4173228,5.314961)"
     id="path2990-20"
     style="fill:#9d5300;fill-opacity:1;fill-rule:nonzero;stroke:none;display:inline" />
  <path
     d="m 5.6692914,17.716536 a 0.70866144,0.70866144 0 1 1 -1.4173229,0 0.70866144,0.70866144 0 1 1 1.4173229,0 z"
     transform="matrix(0.49999999,0,0,0.49999999,25.511811,1.4173232)"
     id="path2990-55"
     style="fill:#9d5300;fill-opacity:1;fill-rule:nonzero;stroke:none;display:inline" />
  <path
     d="m 5.6692914,17.716536 a 0.70866144,0.70866144 0 1 1 -1.4173229,0 0.70866144,0.70866144 0 1 1 1.4173229,0 z"
     transform="matrix(0.49999999,0,0,0.49999999,3.2913386,-0.37795236)"
     id="path2990-28"
     style="fill:#9d5300;fill-opacity:1;fill-rule:nonzero;stroke:none;display:inline" />
  <path
     d="m 5.6692914,17.716536 a 0.70866144,0.70866144 0 1 1 -1.4173229,0 0.70866144,0.70866144 0 1 1 1.4173229,0 z"
     transform="matrix(0.49999999,0,0,0.49999999,23.740158,-1.4173225)"
     id="path2990-38"
     style="fill:#9d5300;fill-opacity:1;fill-rule:nonzero;stroke:none;display:inline" />
  <path
     d="m 5.6692914,17.716536 a 0.70866144,0.70866144 0 1 1 -1.4173229,0 0.70866144,0.70866144 0 1 1 1.4173229,0 z"
     transform="matrix(0.49999999,0,0,0.49999999,19.133858,-3.188976)"
     id="path2990-919"
     style="fill:#9d5300;fill-opacity:1;fill-rule:nonzero;stroke:none;display:inline" />
  <path
     d="m 5.6692914,17.716536 a 0.70866144,0.70866144 0 1 1 -1.4173229,0 0.70866144,0.70866144 0 1 1 1.4173229,0 z"
     transform="matrix(0.49999999,0,0,0.49999999,-1.4173228,-0.70866103)"
     id="path2990-625"
     style="fill:#9d5300;fill-opacity:1;fill-rule:nonzero;stroke:none;display:inline" />
  <path
     d="m 5.6692914,17.716536 a 0.70866144,0.70866144 0 1 1 -1.4173229,0 0.70866144,0.70866144 0 1 1 1.4173229,0 z"
     transform="matrix(0.49999999,0,0,0.49999999,-1.7716535,2.834646)"
     id="path2990-93"
     style="fill:#9d5300;fill-opacity:1;fill-rule:nonzero;stroke:none;display:inline" />
  <path
     d="m 5.6692914,17.716536 a 0.70866144,0.70866144 0 1 1 -1.4173229,0 0.70866144,0.70866144 0 1 1 1.4173229,0 z"
     transform="matrix(0.49999999,0,0,0.49999999,30.826772,0.70866179)"
     id="path2990-294"
     style="fill:#9d5300;fill-opacity:1;fill-rule:nonzero;stroke:none;display:inline" />
  <path
     d="m 5.6692914,17.716536 a 0.70866144,0.70866144 0 1 1 -1.4173229,0 0.70866144,0.70866144 0 1 1 1.4173229,0 z"
     transform="matrix(0.49999999,0,0,0.49999999,28.346457,-0.70866103)"
     id="path2990-35"
     style="fill:#9d5300;fill-opacity:1;fill-rule:nonzero;stroke:none;display:inline" />
  <path
     d="m 5.6692914,17.716536 a 0.70866144,0.70866144 0 1 1 -1.4173229,0 0.70866144,0.70866144 0 1 1 1.4173229,0 z"
     transform="matrix(0.49999999,0,0,0.49999999,14.527559,0.70866179)"
     id="path2990-314"
     style="fill:#9d5300;fill-opacity:1;fill-rule:nonzero;stroke:none;display:inline" />
  <path
     d="m 5.6692914,17.716536 a 0.70866144,0.70866144 0 1 1 -1.4173229,0 0.70866144,0.70866144 0 1 1 1.4173229,0 z"
     transform="matrix(0.49999999,0,0,0.49999999,10.629921,0.7086618)"
     id="path2990-694"
     style="fill:#9d5300;fill-opacity:1;fill-rule:nonzero;stroke:none;display:inline" />
  <path
     d="m 5.6692914,17.716536 a 0.70866144,0.70866144 0 1 1 -1.4173229,0 0.70866144,0.70866144 0 1 1 1.4173229,0 z"
     transform="matrix(0.49999999,0,0,0.49999999,25.511811,-3.5433067)"
     id="path2990-226"
     style="fill:#9d5300;fill-opacity:1;fill-rule:nonzero;stroke:none;display:inline" />
  <path
     d="m 5.6692914,17.716536 a 0.70866144,0.70866144 0 1 1 -1.4173229,0 0.70866144,0.70866144 0 1 1 1.4173229,0 z"
     transform="matrix(0.49999999,0,0,0.49999999,-2.1259842,-3.0866138)"
     id="path2990-41"
     style="fill:#9d5300;fill-opacity:1;fill-rule:nonzero;stroke:none;display:inline" />
  <path
     d="m 5.6692914,17.716536 a 0.70866144,0.70866144 0 1 1 -1.4173229,0 0.70866144,0.70866144 0 1 1 1.4173229,0 z"
     transform="matrix(0.49999999,0,0,0.49999999,3.5433071,-6.0236217)"
     id="path2990-92"
     style="fill:#9d5300;fill-opacity:1;fill-rule:nonzero;stroke:none;display:inline" />
  <path
     d="m 5.6692914,17.716536 a 0.70866144,0.70866144 0 1 1 -1.4173229,0 0.70866144,0.70866144 0 1 1 1.4173229,0 z"
     transform="matrix(0.49999999,0,0,0.49999999,3.2913386,-8.5039366)"
     id="path2990-888"
     style="fill:#9d5300;fill-opacity:1;fill-rule:nonzero;stroke:none;display:inline" />
  <path
     d="m 5.6692914,17.716536 a 0.70866144,0.70866144 0 1 1 -1.4173229,0 0.70866144,0.70866144 0 1 1 1.4173229,0 z"
     transform="matrix(0.49999999,0,0,0.49999999,5.6692914,-8.1496059)"
     id="path2990-68"
     style="fill:#9d5300;fill-opacity:1;fill-rule:nonzero;stroke:none;display:inline" />
  <path
     d="m 5.6692914,17.716536 a 0.70866144,0.70866144 0 1 1 -1.4173229,0 0.70866144,0.70866144 0 1 1 1.4173229,0 z"
     transform="matrix(0.49999999,0,0,0.49999999,8.7086615,-8.5039366)"
     id="path2990-383"
     style="fill:#9d5300;fill-opacity:1;fill-rule:nonzero;stroke:none;display:inline" />
  <path
     d="m 5.6692914,17.716536 a 0.70866144,0.70866144 0 1 1 -1.4173229,0 0.70866144,0.70866144 0 1 1 1.4173229,0 z"
     transform="matrix(0.49999999,0,0,0.49999999,10.629921,-7.4409445)"
     id="path2990-3380"
     style="fill:#9d5300;fill-opacity:1;fill-rule:nonzero;stroke:none;display:inline" />
  <path
     d="m 5.6692914,17.716536 a 0.70866144,0.70866144 0 1 1 -1.4173229,0 0.70866144,0.70866144 0 1 1 1.4173229,0 z"
     transform="matrix(0.49999999,0,0,0.49999999,14.527559,-7.0866138)"
     id="path2990-476"
     style="fill:#9d5300;fill-opacity:1;fill-rule:nonzero;stroke:none;display:inline" />
  <path
     d="m 5.6692914,17.716536 a 0.70866144,0.70866144 0 1 1 -1.4173229,0 0.70866144,0.70866144 0 1 1 1.4173229,0 z"
     transform="matrix(0.49999999,0,0,0.49999999,17.716535,-8.1496059)"
     id="path2990-890"
     style="fill:#9d5300;fill-opacity:1;fill-rule:nonzero;stroke:none;display:inline" />
  <path
     d="m 5.6692914,17.716536 a 0.70866144,0.70866144 0 1 1 -1.4173229,0 0.70866144,0.70866144 0 1 1 1.4173229,0 z"
     transform="matrix(0.49999999,0,0,0.49999999,20.551181,-8.1496059)"
     id="path2990-687"
     style="fill:#9d5300;fill-opacity:1;fill-rule:nonzero;stroke:none;display:inline" />
  <path
     d="m 5.6692914,17.716536 a 0.70866144,0.70866144 0 1 1 -1.4173229,0 0.70866144,0.70866144 0 1 1 1.4173229,0 z"
     transform="matrix(0.49999999,0,0,0.49999999,23.031496,-7.7952752)"
     id="path2990-903"
     style="fill:#9d5300;fill-opacity:1;fill-rule:nonzero;stroke:none;display:inline" />
  <path
     d="m 5.6692914,17.716536 a 0.70866144,0.70866144 0 1 1 -1.4173229,0 0.70866144,0.70866144 0 1 1 1.4173229,0 z"
     transform="matrix(0.49999999,0,0,0.49999999,24.96063,-8.5039366)"
     id="path2990-337"
     style="fill:#9d5300;fill-opacity:1;fill-rule:nonzero;stroke:none;display:inline" />
  <path
     d="m 5.6692914,17.716536 a 0.70866144,0.70866144 0 1 1 -1.4173229,0 0.70866144,0.70866144 0 1 1 1.4173229,0 z"
     transform="matrix(0.49999999,0,0,0.49999999,27.669291,-8.5039366)"
     id="path2990-326"
     style="fill:#9d5300;fill-opacity:1;fill-rule:nonzero;stroke:none;display:inline" />
  <path
     d="m 5.6692914,17.716536 a 0.70866144,0.70866144 0 1 1 -1.4173229,0 0.70866144,0.70866144 0 1 1 1.4173229,0 z"
     transform="matrix(0.49999999,0,0,0.49999999,30.826772,-7.7952752)"
     id="path2990-52"
     style="fill:#9d5300;fill-opacity:1;fill-rule:nonzero;stroke:none;display:inline" />
  <path
     d="m 5.6692914,17.716536 a 0.70866144,0.70866144 0 1 1 -1.4173229,0 0.70866144,0.70866144 0 1 1 1.4173229,0 z"
     transform="matrix(0.49999999,0,0,0.49999999,14.527559,-4.9606295)"
     id="path2990-9604"
     style="fill:#9d5300;fill-opacity:1;fill-rule:nonzero;stroke:none;display:inline" />
  <path
     d="m 5.6692914,17.716536 a 0.70866144,0.70866144 0 1 1 -1.4173229,0 0.70866144,0.70866144 0 1 1 1.4173229,0 z"
     transform="matrix(0.49999999,0,0,0.49999999,28.700787,-6.3779524)"
     id="path2990-104"
     style="fill:#9d5300;fill-opacity:1;fill-rule:nonzero;stroke:none;display:inline" />
  <path
     d="m 5.6692914,17.716536 a 0.70866144,0.70866144 0 1 1 -1.4173229,0 0.70866144,0.70866144 0 1 1 1.4173229,0 z"
     transform="matrix(0.49999999,0,0,0.49999999,31.181102,-4.6062988)"
     id="path2990-870"
     style="fill:#9d5300;fill-opacity:1;fill-rule:nonzero;stroke:none;display:inline" />
  <path
     d="m 5.6692914,17.716536 a 0.70866144,0.70866144 0 1 1 -1.4173229,0 0.70866144,0.70866144 0 1 1 1.4173229,0 z"
     transform="matrix(0.49999999,0,0,0.49999999,1.4173229,0.7086618)"
     id="path2990-8624"
     style="fill:#9d5300;fill-opacity:1;fill-rule:nonzero;stroke:none;display:inline" />
  <path
     d="m 5.6692914,17.716536 a 0.70866144,0.70866144 0 1 1 -1.4173229,0 0.70866144,0.70866144 0 1 1 1.4173229,0 z"
     transform="matrix(0.49999999,0,0,0.49999999,3.8976378,2.834646)"
     id="path2990-79"
     style="fill:#9d5300;fill-opacity:1;fill-rule:nonzero;stroke:none;display:inline" />
  <path
     d="m 5.6692914,17.716536 a 0.70866144,0.70866144 0 1 1 -1.4173229,0 0.70866144,0.70866144 0 1 1 1.4173229,0 z"
     transform="matrix(0.49999999,0,0,0.49999999,4.2989013e-8,4.2519689)"
     id="path2990-39"
     style="fill:#9d5300;fill-opacity:1;fill-rule:nonzero;stroke:none;display:inline" />
  <path
     d="m 5.6692914,17.716536 a 0.70866144,0.70866144 0 1 1 -1.4173229,0 0.70866144,0.70866144 0 1 1 1.4173229,0 z"
     transform="matrix(0.49999999,0,0,0.49999999,27.283465,6.3779531)"
     id="path2990-283"
     style="fill:#9d5300;fill-opacity:1;fill-rule:nonzero;stroke:none;display:inline" />
  <path
     d="m 5.6692914,17.716536 a 0.70866144,0.70866144 0 1 1 -1.4173229,0 0.70866144,0.70866144 0 1 1 1.4173229,0 z"
     transform="matrix(0.49999999,0,0,0.49999999,12.047244,17.007874)"
     id="path2990-257"
     style="fill:#9d5300;fill-opacity:1;fill-rule:nonzero;stroke:none;display:inline" />
  <path
     d="m 5.6692914,17.716536 a 0.70866144,0.70866144 0 1 1 -1.4173229,0 0.70866144,0.70866144 0 1 1 1.4173229,0 z"
     transform="matrix(0.49999999,0,0,0.49999999,-1.4173228,24.80315)"
     id="path2990-935"
     style="fill:#9d5300;fill-opacity:1;fill-rule:nonzero;stroke:none;display:inline" />
  <path
     d="m 5.6692914,17.716536 a 0.70866144,0.70866144 0 1 1 -1.4173229,0 0.70866144,0.70866144 0 1 1 1.4173229,0 z"
     transform="matrix(0.49999999,0,0,0.49999999,24.80315,25.157481)"
     id="path2990-708"
     style="fill:#9d5300;fill-opacity:1;fill-rule:nonzero;stroke:none;display:inline" />
  <path
     d="m 5.6692914,17.716536 a 0.70866144,0.70866144 0 1 1 -1.4173229,0 0.70866144,0.70866144 0 1 1 1.4173229,0 z"
     transform="matrix(0.49999999,0,0,0.49999999,27.637795,24.448819)"
     id="path2990-905"
     style="fill:#9d5300;fill-opacity:1;fill-rule:nonzero;stroke:none;display:inline" />
  <path
     d="m 5.6692914,17.716536 a 0.70866144,0.70866144 0 1 1 -1.4173229,0 0.70866144,0.70866144 0 1 1 1.4173229,0 z"
     transform="matrix(0.49999999,0,0,0.49999999,12.755906,15.590552)"
     id="path2990-740"
     style="fill:#9d5300;fill-opacity:1;fill-rule:nonzero;stroke:none;display:inline" />
  <path
     d="m 5.6692914,17.716536 a 0.70866144,0.70866144 0 1 1 -1.4173229,0 0.70866144,0.70866144 0 1 1 1.4173229,0 z"
     transform="matrix(0.49999999,0,0,0.49999999,-1.4173228,-6.3779524)"
     id="path2990-6462"
     style="fill:#9d5300;fill-opacity:1;fill-rule:nonzero;stroke:none;display:inline" />
  <path
     d="m 5.6692914,17.716536 a 0.70866144,0.70866144 0 1 1 -1.4173229,0 0.70866144,0.70866144 0 1 1 1.4173229,0 z"
     transform="matrix(0.49999999,0,0,0.49999999,0.70866145,-7.7952752)"
     id="path2990-896"
     style="fill:#9d5300;fill-opacity:1;fill-rule:nonzero;stroke:none;display:inline" />
  <path
     d="m 5.6692914,17.716536 a 0.70866144,0.70866144 0 1 1 -1.4173229,0 0.70866144,0.70866144 0 1 1 1.4173229,0 z"
     transform="matrix(0.49999999,0,0,0.49999999,16.653543,-4.9606295)"
     id="path2990-07"
     style="fill:#9d5300;fill-opacity:1;fill-rule:nonzero;stroke:none;display:inline" />
  <path
     d="m 5.6692914,17.716536 a 0.70866144,0.70866144 0 1 1 -1.4173229,0 0.70866144,0.70866144 0 1 1 1.4173229,0 z"
     transform="matrix(0.49999999,0,0,0.49999999,10.275591,-2.1259839)"
     id="path2990-010"
     style="fill:#9d5300;fill-opacity:1;fill-rule:nonzero;stroke:none;display:inline" />
  <path
     d="m 5.6692914,17.716536 a 0.70866144,0.70866144 0 1 1 -1.4173229,0 0.70866144,0.70866144 0 1 1 1.4173229,0 z"
     transform="matrix(0.49999999,0,0,0.49999999,7.0866142,-1.7716532)"
     id="path2990-13"
     style="fill:#9d5300;fill-opacity:1;fill-rule:nonzero;stroke:none;display:inline" />
  <path
     d="m 5.6692914,17.716536 a 0.70866144,0.70866144 0 1 1 -1.4173229,0 0.70866144,0.70866144 0 1 1 1.4173229,0 z"
     transform="matrix(0.49999999,0,0,0.49999999,7.7952756,3.1889768)"
     id="path2990-772"
     style="fill:#9d5300;fill-opacity:1;fill-rule:nonzero;stroke:none;display:inline" />
  <path
     d="m 5.6692914,17.716536 a 0.70866144,0.70866144 0 1 1 -1.4173229,0 0.70866144,0.70866144 0 1 1 1.4173229,0 z"
     transform="matrix(0.49999999,0,0,0.49999999,2.8346457,5.314961)"
     id="path2990-909"
     style="fill:#9d5300;fill-opacity:1;fill-rule:nonzero;stroke:none;display:inline" />
  <path
     d="m 5.6692914,17.716536 a 0.70866144,0.70866144 0 1 1 -1.4173229,0 0.70866144,0.70866144 0 1 1 1.4173229,0 z"
     transform="matrix(0.49999999,0,0,0.49999999,30.826772,5.6692917)"
     id="path2990-945"
     style="fill:#9d5300;fill-opacity:1;fill-rule:nonzero;stroke:none;display:inline" />
  <path
     d="m 5.6692914,17.716536 a 0.70866144,0.70866144 0 1 1 -1.4173229,0 0.70866144,0.70866144 0 1 1 1.4173229,0 z"
     transform="matrix(0.49999999,0,0,0.49999999,26.574803,10.629922)"
     id="path2990-604"
     style="fill:#9d5300;fill-opacity:1;fill-rule:nonzero;stroke:none;display:inline" />
  <path
     d="m 5.6692914,17.716536 a 0.70866144,0.70866144 0 1 1 -1.4173229,0 0.70866144,0.70866144 0 1 1 1.4173229,0 z"
     transform="matrix(0.49999999,0,0,0.49999999,7.4409449,17.716536)"
     id="path2990-09"
     style="fill:#9d5300;fill-opacity:1;fill-rule:nonzero;stroke:none;display:inline" />
  <path
     d="m 5.6692914,17.716536 a 0.70866144,0.70866144 0 1 1 -1.4173229,0 0.70866144,0.70866144 0 1 1 1.4173229,0 z"
     transform="matrix(0.49999999,0,0,0.49999999,2.1259843,20.905512)"
     id="path2990-759"
     style="fill:#9d5300;fill-opacity:1;fill-rule:nonzero;stroke:none;display:inline" />
  <path
     d="m 5.6692914,17.716536 a 0.70866144,0.70866144 0 1 1 -1.4173229,0 0.70866144,0.70866144 0 1 1 1.4173229,0 z"
     transform="matrix(0.49999999,0,0,0.49999999,1.7716536,23.385827)"
     id="path2990-785"
     style="fill:#9d5300;fill-opacity:1;fill-rule:nonzero;stroke:none;display:inline" />
  <path
     d="m 5.6692914,17.716536 a 0.70866144,0.70866144 0 1 1 -1.4173229,0 0.70866144,0.70866144 0 1 1 1.4173229,0 z"
     transform="matrix(0.49999999,0,0,0.49999999,29.76378,21.259843)"
     id="path2990-117"
     style="fill:#9d5300;fill-opacity:1;fill-rule:nonzero;stroke:none;display:inline" />
  <path
     d="m 5.6692914,17.716536 a 0.70866144,0.70866144 0 1 1 -1.4173229,0 0.70866144,0.70866144 0 1 1 1.4173229,0 z"
     transform="matrix(0.49999999,0,0,0.49999999,17.716535,18.070867)"
     id="path2990-0408"
     style="fill:#9d5300;fill-opacity:1;fill-rule:nonzero;stroke:none;display:inline" />
  <path
     d="m 5.6692914,17.716536 a 0.70866144,0.70866144 0 1 1 -1.4173229,0 0.70866144,0.70866144 0 1 1 1.4173229,0 z"
     transform="matrix(0.49999999,0,0,0.49999999,14.173228,19.133859)"
     id="path2990-51"
     style="fill:#9d5300;fill-opacity:1;fill-rule:nonzero;stroke:none;display:inline" />
  <path
     d="m 5.6692914,17.716536 a 0.70866144,0.70866144 0 1 1 -1.4173229,0 0.70866144,0.70866144 0 1 1 1.4173229,0 z"
     transform="matrix(0.49999999,0,0,0.49999999,25.511811,15.590552)"
     id="path2990-66"
     style="fill:#9d5300;fill-opacity:1;fill-rule:nonzero;stroke:none;display:inline" />
  <path
     d="m 5.6692914,17.716536 a 0.70866144,0.70866144 0 1 1 -1.4173229,0 0.70866144,0.70866144 0 1 1 1.4173229,0 z"
     transform="matrix(0.49999999,0,0,0.49999999,13.110236,-2.1259839)"
     id="path2990-102"
     style="fill:#9d5300;fill-opacity:1;fill-rule:nonzero;stroke:none;display:inline" />
  <path
     d="m 5.6692914,17.716536 a 0.70866144,0.70866144 0 1 1 -1.4173229,0 0.70866144,0.70866144 0 1 1 1.4173229,0 z"
     transform="matrix(0.49999999,0,0,0.49999999,0.70866145,-4.6062988)"
     id="path2990-297"
     style="fill:#9d5300;fill-opacity:1;fill-rule:nonzero;stroke:none;display:inline" />
  <path
     d="m 5.6692914,17.716536 a 0.70866144,0.70866144 0 1 1 -1.4173229,0 0.70866144,0.70866144 0 1 1 1.4173229,0 z"
     transform="matrix(0.49999999,0,0,0.49999999,-2.1259842,-8.5039366)"
     id="path2990-56"
     style="fill:#9d5300;fill-opacity:1;fill-rule:nonzero;stroke:none;display:inline" />
  <path
     d="m 5.6692914,17.716536 a 0.70866144,0.70866144 0 1 1 -1.4173229,0 0.70866144,0.70866144 0 1 1 1.4173229,0 z"
     transform="matrix(0.49999999,0,0,0.49999999,20.19685,-6.3779524)"
     id="path2990-46"
     style="fill:#9d5300;fill-opacity:1;fill-rule:nonzero;stroke:none;display:inline" />
  <path
     d="m 5.6692914,17.716536 a 0.70866144,0.70866144 0 1 1 -1.4173229,0 0.70866144,0.70866144 0 1 1 1.4173229,0 z"
     transform="matrix(0.49999999,0,0,0.49999999,21.968504,0.70866179)"
     id="path2990-379"
     style="fill:#9d5300;fill-opacity:1;fill-rule:nonzero;stroke:none;display:inline" />
  <path
     d="m 5.6692914,17.716536 a 0.70866144,0.70866144 0 1 1 -1.4173229,0 0.70866144,0.70866144 0 1 1 1.4173229,0 z"
     transform="matrix(0.49999999,0,0,0.49999999,19.543307,-0.37795236)"
     id="path2990-749"
     style="fill:#9d5300;fill-opacity:1;fill-rule:nonzero;stroke:none;display:inline" />
  <path
     d="m 5.6692914,17.716536 a 0.70866144,0.70866144 0 1 1 -1.4173229,0 0.70866144,0.70866144 0 1 1 1.4173229,0 z"
     transform="matrix(0.49999999,0,0,0.49999999,17.362205,-0.70866103)"
     id="path2990-170"
     style="fill:#9d5300;fill-opacity:1;fill-rule:nonzero;stroke:none;display:inline" />
  <path
     d="m 5.6692914,17.716536 a 0.70866144,0.70866144 0 1 1 -1.4173229,0 0.70866144,0.70866144 0 1 1 1.4173229,0 z"
     transform="matrix(0.49999999,0,0,0.49999999,-1.4173228,10.629922)"
     id="path2990-4155"
     style="fill:#9d5300;fill-opacity:1;fill-rule:nonzero;stroke:none;display:inline" />
  <path
     d="m 5.6692914,17.716536 a 0.70866144,0.70866144 0 1 1 -1.4173229,0 0.70866144,0.70866144 0 1 1 1.4173229,0 z"
     transform="matrix(0.49999999,0,0,0.49999999,29.055118,8.5039374)"
     id="path2990-222"
     style="fill:#9d5300;fill-opacity:1;fill-rule:nonzero;stroke:none;display:inline" />
  <path
     d="m 5.6692914,17.716536 a 0.70866144,0.70866144 0 1 1 -1.4173229,0 0.70866144,0.70866144 0 1 1 1.4173229,0 z"
     transform="matrix(0.49999999,0,0,0.49999999,6.7322835,9.9212602)"
     id="path2990-463"
     style="fill:#9d5300;fill-opacity:1;fill-rule:nonzero;stroke:none;display:inline" />
  <path
     d="m 5.6692914,17.716536 a 0.70866144,0.70866144 0 1 1 -1.4173229,0 0.70866144,0.70866144 0 1 1 1.4173229,0 z"
     transform="matrix(0.49999999,0,0,0.49999999,3.2913386,10.456693)"
     id="path2990-63"
     style="fill:#9d5300;fill-opacity:1;fill-rule:nonzero;stroke:none;display:inline" />
  <path
     d="m 5.6692914,17.716536 a 0.70866144,0.70866144 0 1 1 -1.4173229,0 0.70866144,0.70866144 0 1 1 1.4173229,0 z"
     transform="matrix(0.49999999,0,0,0.49999999,31.181102,9.5669295)"
     id="path2990-34"
     style="fill:#9d5300;fill-opacity:1;fill-rule:nonzero;stroke:none;display:inline" />
  <path
     d="m 5.6692914,17.716536 a 0.70866144,0.70866144 0 1 1 -1.4173229,0 0.70866144,0.70866144 0 1 1 1.4173229,0 z"
     transform="matrix(0.49999999,0,0,0.49999999,31.181102,13.464567)"
     id="path2990-8902"
     style="fill:#9d5300;fill-opacity:1;fill-rule:nonzero;stroke:none;display:inline" />
  <path
     d="m 5.6692914,17.716536 a 0.70866144,0.70866144 0 1 1 -1.4173229,0 0.70866144,0.70866144 0 1 1 1.4173229,0 z"
     transform="matrix(0.49999999,0,0,0.49999999,29.055118,11.692914)"
     id="path2990-4765"
     style="fill:#9d5300;fill-opacity:1;fill-rule:nonzero;stroke:none;display:inline" />
  <path
     d="m 5.6692914,17.716536 a 0.70866144,0.70866144 0 1 1 -1.4173229,0 0.70866144,0.70866144 0 1 1 1.4173229,0 z"
     transform="matrix(0.49999999,0,0,0.49999999,15.944882,16.299213)"
     id="path2990-108"
     style="fill:#9d5300;fill-opacity:1;fill-rule:nonzero;stroke:none;display:inline" />
  <path
     d="m 5.6692914,17.716536 a 0.70866144,0.70866144 0 1 1 -1.4173229,0 0.70866144,0.70866144 0 1 1 1.4173229,0 z"
     transform="matrix(0.49999999,0,0,0.49999999,22.677165,15.590552)"
     id="path2990-76"
     style="fill:#9d5300;fill-opacity:1;fill-rule:nonzero;stroke:none;display:inline" />
  <path
     d="m 5.6692914,17.716536 a 0.70866144,0.70866144 0 1 1 -1.4173229,0 0.70866144,0.70866144 0 1 1 1.4173229,0 z"
     transform="matrix(0.49999999,0,0,0.49999999,10.629921,18.779528)"
     id="path2990-804"
     style="fill:#9d5300;fill-opacity:1;fill-rule:nonzero;stroke:none;display:inline" />
  <path
     d="m 5.6692914,17.716536 a 0.70866144,0.70866144 0 1 1 -1.4173229,0 0.70866144,0.70866144 0 1 1 1.4173229,0 z"
     transform="matrix(0.49999999,0,0,0.49999999,26.574803,21.968504)"
     id="path2990-113"
     style="fill:#9d5300;fill-opacity:1;fill-rule:nonzero;stroke:none;display:inline" />
  <path
     d="m 5.6692914,17.716536 a 0.70866144,0.70866144 0 1 1 -1.4173229,0 0.70866144,0.70866144 0 1 1 1.4173229,0 z"
     transform="matrix(0.49999999,0,0,0.49999999,19.84252,20.196851)"
     id="path2990-593"
     style="fill:#9d5300;fill-opacity:1;fill-rule:nonzero;stroke:none;display:inline" />
  <path
     d="m 5.6692914,17.716536 a 0.70866144,0.70866144 0 1 1 -1.4173229,0 0.70866144,0.70866144 0 1 1 1.4173229,0 z"
     transform="matrix(0.49999999,0,0,0.49999999,21.614173,22.677166)"
     id="path2990-4150"
     style="fill:#9d5300;fill-opacity:1;fill-rule:nonzero;stroke:none;display:inline" />
  <path
     d="m 5.6692914,17.716536 a 0.70866144,0.70866144 0 1 1 -1.4173229,0 0.70866144,0.70866144 0 1 1 1.4173229,0 z"
     transform="matrix(0.49999999,0,0,0.49999999,16.834646,21.291339)"
     id="path2990-83"
     style="fill:#9d5300;fill-opacity:1;fill-rule:nonzero;stroke:none;display:inline" />
  <path
     d="m 5.6692914,17.716536 a 0.70866144,0.70866144 0 1 1 -1.4173229,0 0.70866144,0.70866144 0 1 1 1.4173229,0 z"
     transform="matrix(0.49999999,0,0,0.49999999,14.88189,21.968504)"
     id="path2990-565"
     style="fill:#9d5300;fill-opacity:1;fill-rule:nonzero;stroke:none;display:inline" />
  <path
     d="m 5.6692914,17.716536 a 0.70866144,0.70866144 0 1 1 -1.4173229,0 0.70866144,0.70866144 0 1 1 1.4173229,0 z"
     transform="matrix(0.49999999,0,0,0.49999999,12.047244,20.905512)"
     id="path2990-990"
     style="fill:#9d5300;fill-opacity:1;fill-rule:nonzero;stroke:none;display:inline" />
  <path
     d="m 5.6692914,17.716536 a 0.70866144,0.70866144 0 1 1 -1.4173229,0 0.70866144,0.70866144 0 1 1 1.4173229,0 z"
     transform="matrix(0.49999999,0,0,0.49999999,8.1496063,21.259843)"
     id="path2990-763"
     style="fill:#9d5300;fill-opacity:1;fill-rule:nonzero;stroke:none;display:inline" />
  <path
     d="m 5.6692914,17.716536 a 0.70866144,0.70866144 0 1 1 -1.4173229,0 0.70866144,0.70866144 0 1 1 1.4173229,0 z"
     transform="matrix(0.49999999,0,0,0.49999999,4.96063,22.677166)"
     id="path2990-761"
     style="fill:#9d5300;fill-opacity:1;fill-rule:nonzero;stroke:none;display:inline" />
  <g
     transform="translate(-39.641759,-2.8315542)"
     id="g8471">
    <path
       d="m 5.6692914,17.716536 a 0.70866144,0.70866144 0 1 1 -1.4173229,0 0.70866144,0.70866144 0 1 1 1.4173229,0 z"
       transform="matrix(1.25,0,0,1.25,48.714203,0.75991905)"
       id="path2990-76-1-2"
       style="fill:#9d5300;fill-opacity:1;fill-rule:nonzero;stroke:none;display:inline" />
    <path
       d="m 5.6692914,17.716536 a 0.70866144,0.70866144 0 1 1 -1.4173229,0 0.70866144,0.70866144 0 1 1 1.4173229,0 z"
       transform="matrix(1.25,0,0,1.25,47.684547,-1.7284155)"
       id="path2990-76-1-26"
       style="fill:#9d5300;fill-opacity:1;fill-rule:nonzero;stroke:none;display:inline" />
    <path
       d="m 5.6692914,17.716536 a 0.70866144,0.70866144 0 1 1 -1.4173229,0 0.70866144,0.70866144 0 1 1 1.4173229,0 z"
       transform="matrix(1.25,0,0,1.25,48.113571,-4.7315796)"
       id="path2990-76-1-9"
       style="fill:#9d5300;fill-opacity:1;fill-rule:nonzero;stroke:none;display:inline" />
    <path
       d="m 5.6692914,17.716536 a 0.70866144,0.70866144 0 1 1 -1.4173229,0 0.70866144,0.70866144 0 1 1 1.4173229,0 z"
       transform="matrix(1.25,0,0,1.25,51.202538,-4.9031888)"
       id="path2990-76-1-1"
       style="fill:#9d5300;fill-opacity:1;fill-rule:nonzero;stroke:none;display:inline" />
    <path
       d="m 5.6692914,17.716536 a 0.70866144,0.70866144 0 1 1 -1.4173229,0 0.70866144,0.70866144 0 1 1 1.4173229,0 z"
       transform="matrix(1.25,0,0,1.25,54.377312,-4.9889935)"
       id="path2990-76-1-0"
       style="fill:#9d5300;fill-opacity:1;fill-rule:nonzero;stroke:none;display:inline" />
    <path
       d="m 5.6692914,17.716536 a 0.70866144,0.70866144 0 1 1 -1.4173229,0 0.70866144,0.70866144 0 1 1 1.4173229,0 z"
       transform="matrix(1.25,0,0,1.25,51.888976,0.7599195)"
       id="path2990-76-1-4"
       style="fill:#9d5300;fill-opacity:1;fill-rule:nonzero;stroke:none;display:inline" />
    <path
       d="m 5.6692914,17.716536 a 0.70866144,0.70866144 0 1 1 -1.4173229,0 0.70866144,0.70866144 0 1 1 1.4173229,0 z"
       transform="matrix(1.25,0,0,1.25,45.196211,0.33089618)"
       id="path2990-76-1-27"
       style="fill:#9d5300;fill-opacity:1;fill-rule:nonzero;stroke:none;display:inline" />
    <path
       d="m 5.6692914,17.716536 a 0.70866144,0.70866144 0 1 1 -1.4173229,0 0.70866144,0.70866144 0 1 1 1.4173229,0 z"
       transform="translate(51.842064,2.5291085)"
       id="path2990-76-1-40"
       style="fill:#9d5300;fill-opacity:1;fill-rule:nonzero;stroke:none;display:inline" />
    <path
       d="m 5.6692914,17.716536 a 0.70866144,0.70866144 0 1 1 -1.4173229,0 0.70866144,0.70866144 0 1 1 1.4173229,0 z"
       transform="translate(46.007345,1.6710619)"
       id="path2990-76-1-3"
       style="fill:#9d5300;fill-opacity:1;fill-rule:nonzero;stroke:none;display:inline" />
    <path
       d="m 5.6692914,17.716536 a 0.70866144,0.70866144 0 1 1 -1.4173229,0 0.70866144,0.70866144 0 1 1 1.4173229,0 z"
       transform="translate(46.264759,-1.8469297)"
       id="path2990-76-1-28"
       style="fill:#9d5300;fill-opacity:1;fill-rule:nonzero;stroke:none;display:inline" />
    <path
       d="m 5.6692914,17.716536 a 0.70866144,0.70866144 0 1 1 -1.4173229,0 0.70866144,0.70866144 0 1 1 1.4173229,0 z"
       transform="translate(49.696947,-3.3056092)"
       id="path2990-76-1-03"
       style="fill:#9d5300;fill-opacity:1;fill-rule:nonzero;stroke:none;display:inline" />
    <path
       d="m 5.6692914,17.716536 a 0.70866144,0.70866144 0 1 1 -1.4173229,0 0.70866144,0.70866144 0 1 1 1.4173229,0 z"
       transform="translate(54.244594,-3.3914138)"
       id="path2990-76-1-7"
       style="fill:#9d5300;fill-opacity:1;fill-rule:nonzero;stroke:none;display:inline" />
    <path
       d="m 5.6692914,17.716536 a 0.70866144,0.70866144 0 1 1 -1.4173229,0 0.70866144,0.70866144 0 1 1 1.4173229,0 z"
       transform="translate(58.363218,-0.04503162)"
       id="path2990-76-1-00"
       style="fill:#9d5300;fill-opacity:1;fill-rule:nonzero;stroke:none;display:inline" />
    <path
       d="m 5.6692914,17.716536 a 0.70866144,0.70866144 0 1 1 -1.4173229,0 0.70866144,0.70866144 0 1 1 1.4173229,0 z"
       transform="translate(58.363218,2.6149132)"
       id="path2990-76-1-34"
       style="fill:#9d5300;fill-opacity:1;fill-rule:nonzero;stroke:none;display:inline" />
    <path
       d="m 5.6692914,17.716536 a 0.70866144,0.70866144 0 1 1 -1.4173229,0 0.70866144,0.70866144 0 1 1 1.4173229,0 z"
       transform="translate(55.27425,2.2716946)"
       id="path2990-76-1-92"
       style="fill:#9d5300;fill-opacity:1;fill-rule:nonzero;stroke:none;display:inline" />
    <path
       d="m 5.6692914,17.716536 a 0.70866144,0.70866144 0 1 1 -1.4173229,0 0.70866144,0.70866144 0 1 1 1.4173229,0 z"
       transform="translate(56.475515,5.017444)"
       id="path2990-76-1-74"
       style="fill:#9d5300;fill-opacity:1;fill-rule:nonzero;stroke:none;display:inline" />
    <path
       d="m 5.6692914,17.716536 a 0.70866144,0.70866144 0 1 1 -1.4173229,0 0.70866144,0.70866144 0 1 1 1.4173229,0 z"
       transform="translate(55.016836,7.5915842)"
       id="path2990-76-1-25"
       style="fill:#9d5300;fill-opacity:1;fill-rule:nonzero;stroke:none;display:inline" />
    <path
       d="m 5.6692914,17.716536 a 0.70866144,0.70866144 0 1 1 -1.4173229,0 0.70866144,0.70866144 0 1 1 1.4173229,0 z"
       transform="translate(51.58465,8.0206076)"
       id="path2990-76-1-24"
       style="fill:#9d5300;fill-opacity:1;fill-rule:nonzero;stroke:none;display:inline" />
    <path
       d="m 5.6692914,17.716536 a 0.70866144,0.70866144 0 1 1 -1.4173229,0 0.70866144,0.70866144 0 1 1 1.4173229,0 z"
       transform="translate(47.980853,7.5915842)"
       id="path2990-76-1-43"
       style="fill:#9d5300;fill-opacity:1;fill-rule:nonzero;stroke:none;display:inline" />
    <path
       d="m 5.6692914,17.716536 a 0.70866144,0.70866144 0 1 1 -1.4173229,0 0.70866144,0.70866144 0 1 1 1.4173229,0 z"
       transform="translate(59.221265,5.6180768)"
       id="path2990-76-1-8"
       style="fill:#9d5300;fill-opacity:1;fill-rule:nonzero;stroke:none;display:inline" />
    <path
       d="m 5.6692914,17.716536 a 0.70866144,0.70866144 0 1 1 -1.4173229,0 0.70866144,0.70866144 0 1 1 1.4173229,0 z"
       transform="translate(61.366382,2.2716945)"
       id="path2990-76-1-6"
       style="fill:#9d5300;fill-opacity:1;fill-rule:nonzero;stroke:none;display:inline" />
    <path
       d="m 5.6692914,17.716536 a 0.70866144,0.70866144 0 1 1 -1.4173229,0 0.70866144,0.70866144 0 1 1 1.4173229,0 z"
       transform="translate(53.214938,9.8225057)"
       id="path2990-76-1-08"
       style="fill:#9d5300;fill-opacity:1;fill-rule:nonzero;stroke:none;display:inline" />
    <path
       d="m 5.6692914,17.716536 a 0.70866144,0.70866144 0 1 1 -1.4173229,0 0.70866144,0.70866144 0 1 1 1.4173229,0 z"
       transform="translate(57.934195,8.1064123)"
       id="path2990-76-1-922"
       style="fill:#9d5300;fill-opacity:1;fill-rule:nonzero;stroke:none;display:inline" />
  </g>
  <path
     d="m 5.6692914,17.716536 a 0.70866144,0.70866144 0 1 1 -1.4173229,0 0.70866144,0.70866144 0 1 1 1.4173229,0 z"
     transform="matrix(0.49999999,0,0,0.49999999,22.15295,3.3370194)"
     id="path2990-55-3"
     style="fill:#9d5300;fill-opacity:1;fill-rule:nonzero;stroke:none;display:inline" />
</svg>
