<?xml version="1.0" encoding="UTF-8" standalone="no"?>
<!-- Created with Inkscape (http://www.inkscape.org/) -->

<svg
   xmlns:svg="http://www.w3.org/2000/svg"
   xmlns="http://www.w3.org/2000/svg"
   version="1.1"
   width="35.433071"
   height="35.433079"
   id="svg2"
   style="display:inline">
  <defs
     id="defs4" />
  <g
     transform="translate(413.078,-1135.8503)"
     id="layer1"
     style="display:inline">
    <path
       d="m -4.9606297,6.4068923 a 1.9488189,1.9488189 0 1 1 -3.8976378,0 1.9488189,1.9488189 0 1 1 3.8976378,0 z"
       transform="matrix(0.43094013,0,0,0.43094013,-388.87352,1141.9711)"
       id="path2847"
       style="fill:none;stroke:#000000;stroke-width:1.23334086;stroke-linejoin:round;stroke-miterlimit:4;stroke-opacity:1;stroke-dasharray:none" />
    <path
       d="m -4.9606297,6.4068923 a 1.9488189,1.9488189 0 1 1 -3.8976378,0 1.9488189,1.9488189 0 1 1 3.8976378,0 z"
       transform="matrix(0.43092445,0,0,0.43092445,-406.70153,1150.0748)"
       id="path2847-1"
       style="fill:none;stroke:#000000;stroke-width:1.23338568;stroke-linejoin:round;stroke-miterlimit:4;stroke-opacity:1;stroke-dasharray:none;display:inline" />
    <path
       d="m -4.9606297,6.4068923 a 1.9488189,1.9488189 0 1 1 -3.8976378,0 1.9488189,1.9488189 0 1 1 3.8976378,0 z"
       transform="matrix(0.43094013,0,0,0.43094013,-393.65465,1161.5006)"
       id="path2847-1-3"
       style="fill:none;stroke:#000000;stroke-width:1.23334086;stroke-linejoin:round;stroke-miterlimit:4;stroke-opacity:1;stroke-dasharray:none;display:inline" />
  </g>
</svg>
